<?xml version="1.0" encoding="UTF-8" standalone="no"?>
<!DOCTYPE svg PUBLIC "-//W3C//DTD SVG 1.1//EN"
 "http://www.w3.org/Graphics/SVG/1.1/DTD/svg11.dtd">
<!-- Generated by graphviz version 2.36.0 (20140111.2315)
 -->
<!-- Title: RTX::Pipe Pages: 1 -->
<svg width="158pt" height="196pt"
 viewBox="0.00 0.00 158.00 196.00" xmlns="http://www.w3.org/2000/svg" xmlns:xlink="http://www.w3.org/1999/xlink">
<g id="graph0" class="graph" transform="scale(1 1) rotate(0) translate(4 192)">
<title>RTX::Pipe</title>
<polygon fill="white" stroke="none" points="-4,4 -4,-192 154,-192 154,4 -4,4"/>
<!-- Node1 -->
<g id="node1" class="node"><title>Node1</title>
<polygon fill="#bfbfbf" stroke="black" points="44.3022,-57 44.3022,-75 105.698,-75 105.698,-57 44.3022,-57"/>
<text text-anchor="middle" x="75" y="-63" font-family="Helvetica,sans-Serif" font-size="10.00">RTX::Pipe</text>
</g>
<!-- Node4 -->
<g id="node4" class="node"><title>Node4</title>
<g id="a_node4"><a xlink:href="class_r_t_x_1_1_pump.html" target="_top" xlink:title="RTX::Pump">
<polygon fill="white" stroke="black" points="-0.751953,-1 -0.751953,-19 66.752,-19 66.752,-1 -0.751953,-1"/>
<text text-anchor="middle" x="33" y="-7" font-family="Helvetica,sans-Serif" font-size="10.00">RTX::Pump</text>
</a>
</g>
</g>
<!-- Node1&#45;&gt;Node4 -->
<g id="edge3" class="edge"><title>Node1&#45;&gt;Node4</title>
<path fill="none" stroke="midnightblue" d="M62.1168,-48.4358C54.5787,-38.744 45.3915,-26.9319 39.3789,-19.2014"/>
<polygon fill="midnightblue" stroke="midnightblue" points="59.5353,-50.8178 68.4375,-56.5625 65.0608,-46.5202 59.5353,-50.8178"/>
</g>
<!-- Node5 -->
<g id="node5" class="node"><title>Node5</title>
<g id="a_node5"><a xlink:href="class_r_t_x_1_1_valve.html" target="_top" xlink:title="RTX::Valve">
<polygon fill="white" stroke="black" points="85.1709,-1 85.1709,-19 150.829,-19 150.829,-1 85.1709,-1"/>
<text text-anchor="middle" x="118" y="-7" font-family="Helvetica,sans-Serif" font-size="10.00">RTX::Valve</text>
</a>
</g>
</g>
<!-- Node1&#45;&gt;Node5 -->
<g id="edge4" class="edge"><title>Node1&#45;&gt;Node5</title>
<path fill="none" stroke="midnightblue" d="M87.9543,-48.7319C95.7152,-38.9855 105.251,-27.0108 111.469,-19.2014"/>
<polygon fill="midnightblue" stroke="midnightblue" points="85.2101,-46.5594 81.7188,-56.5625 90.686,-50.9199 85.2101,-46.5594"/>
</g>
<!-- Node2 -->
<g id="node2" class="node"><title>Node2</title>
<g id="a_node2"><a xlink:href="class_r_t_x_1_1_link.html" target="_top" xlink:title="Link Class. ">
<polygon fill="white" stroke="black" points="45.1372,-113 45.1372,-131 104.863,-131 104.863,-113 45.1372,-113"/>
<text text-anchor="middle" x="75" y="-119" font-family="Helvetica,sans-Serif" font-size="10.00">RTX::Link</text>
</a>
</g>
</g>
<!-- Node2&#45;&gt;Node1 -->
<g id="edge1" class="edge"><title>Node2&#45;&gt;Node1</title>
<path fill="none" stroke="midnightblue" d="M75,-102.329C75,-93.0774 75,-82.3798 75,-75.2014"/>
<polygon fill="midnightblue" stroke="midnightblue" points="71.5001,-102.562 75,-112.562 78.5001,-102.563 71.5001,-102.562"/>
</g>
<!-- Node3 -->
<g id="node3" class="node"><title>Node3</title>
<g id="a_node3"><a xlink:href="class_r_t_x_1_1_element.html" target="_top" xlink:title="Element Base Class. ">
<polygon fill="white" stroke="black" points="35.9673,-169 35.9673,-187 114.033,-187 114.033,-169 35.9673,-169"/>
<text text-anchor="middle" x="75" y="-175" font-family="Helvetica,sans-Serif" font-size="10.00">RTX::Element</text>
</a>
</g>
</g>
<!-- Node3&#45;&gt;Node2 -->
<g id="edge2" class="edge"><title>Node3&#45;&gt;Node2</title>
<path fill="none" stroke="midnightblue" d="M75,-158.329C75,-149.077 75,-138.38 75,-131.201"/>
<polygon fill="midnightblue" stroke="midnightblue" points="71.5001,-158.562 75,-168.562 78.5001,-158.563 71.5001,-158.562"/>
</g>
</g>
</svg>
