<?xml version="1.0" encoding="UTF-8" standalone="no"?>
<!DOCTYPE svg PUBLIC "-//W3C//DTD SVG 1.1//EN"
 "http://www.w3.org/Graphics/SVG/1.1/DTD/svg11.dtd">
<!-- Generated by graphviz version 2.36.0 (20140111.2315)
 -->
<!-- Title: RTX::IncompatibleComponent Pages: 1 -->
<svg width="186pt" height="220pt"
 viewBox="0.00 0.00 186.00 220.00" xmlns="http://www.w3.org/2000/svg" xmlns:xlink="http://www.w3.org/1999/xlink">
<g id="graph0" class="graph" transform="scale(1 1) rotate(0) translate(4 216)">
<title>RTX::IncompatibleComponent</title>
<polygon fill="white" stroke="none" points="-4,4 -4,-216 182,-216 182,4 -4,4"/>
<!-- Node1 -->
<g id="node1" class="node"><title>Node1</title>
<polygon fill="#bfbfbf" stroke="black" points="-0.889648,-1 -0.889648,-19 148.89,-19 148.89,-1 -0.889648,-1"/>
<text text-anchor="middle" x="74" y="-7" font-family="Helvetica,sans-Serif" font-size="10.00">RTX::IncompatibleComponent</text>
</g>
<!-- Node2 -->
<g id="node2" class="node"><title>Node2</title>
<g id="a_node2"><a xlink:href="class_r_t_x_1_1_rtx_exception.html" target="_top" xlink:title="RTX::RtxException">
<polygon fill="white" stroke="black" points="23.8516,-59 23.8516,-77 124.148,-77 124.148,-59 23.8516,-59"/>
<text text-anchor="middle" x="74" y="-65" font-family="Helvetica,sans-Serif" font-size="10.00">RTX::RtxException</text>
</a>
</g>
</g>
<!-- Node2&#45;&gt;Node1 -->
<g id="edge1" class="edge"><title>Node2&#45;&gt;Node1</title>
<path fill="none" stroke="midnightblue" d="M74,-48.6464C74,-38.7413 74,-27.0014 74,-19.2969"/>
<polygon fill="midnightblue" stroke="midnightblue" points="70.5001,-48.737 74,-58.737 77.5001,-48.737 70.5001,-48.737"/>
</g>
<!-- Node3 -->
<g id="node3" class="node"><title>Node3</title>
<g id="a_node3"><a xlink:title="STL class. ">
<polygon fill="white" stroke="#bfbfbf" points="5.14795,-125 5.14795,-143 82.8521,-143 82.8521,-125 5.14795,-125"/>
<text text-anchor="middle" x="44" y="-131" font-family="Helvetica,sans-Serif" font-size="10.00">std::exception</text>
</a>
</g>
</g>
<!-- Node3&#45;&gt;Node2 -->
<g id="edge2" class="edge"><title>Node3&#45;&gt;Node2</title>
<path fill="none" stroke="midnightblue" d="M52.1894,-115.529C58.0316,-103.066 65.6236,-86.8696 70.1366,-77.242"/>
<polygon fill="midnightblue" stroke="midnightblue" points="48.8748,-114.354 47.7995,-124.894 55.213,-117.325 48.8748,-114.354"/>
</g>
<!-- Node4 -->
<g id="node4" class="node"><title>Node4</title>
<g id="a_node4"><a xlink:title="STL class. ">
<polygon fill="white" stroke="#bfbfbf" points="101.325,-125 101.325,-143 160.675,-143 160.675,-125 101.325,-125"/>
<text text-anchor="middle" x="131" y="-131" font-family="Helvetica,sans-Serif" font-size="10.00">std::string</text>
</a>
</g>
</g>
<!-- Node4&#45;&gt;Node2 -->
<g id="edge3" class="edge"><title>Node4&#45;&gt;Node2</title>
<path fill="none" stroke="#9a32cd" stroke-dasharray="5,2" d="M117.079,-117.37C105.797,-104.702 90.3438,-87.351 81.3405,-77.242"/>
<polygon fill="#9a32cd" stroke="#9a32cd" points="114.516,-119.754 123.781,-124.894 119.744,-115.099 114.516,-119.754"/>
<text text-anchor="middle" x="108.889" y="-98" font-family="Helvetica,sans-Serif" font-size="10.00"> s</text>
</g>
<!-- Node5 -->
<g id="node5" class="node"><title>Node5</title>
<g id="a_node5"><a xlink:title="STL class. ">
<polygon fill="white" stroke="#bfbfbf" points="83.9521,-183 83.9521,-211 178.048,-211 178.048,-183 83.9521,-183"/>
<text text-anchor="start" x="91.9521" y="-199" font-family="Helvetica,sans-Serif" font-size="10.00">std::basic_string&lt;</text>
<text text-anchor="middle" x="131" y="-189" font-family="Helvetica,sans-Serif" font-size="10.00"> char &gt;</text>
</a>
</g>
</g>
<!-- Node5&#45;&gt;Node4 -->
<g id="edge4" class="edge"><title>Node5&#45;&gt;Node4</title>
<path fill="none" stroke="midnightblue" d="M131,-172.588C131,-162.213 131,-150.68 131,-143.159"/>
<polygon fill="midnightblue" stroke="midnightblue" points="127.5,-172.764 131,-182.764 134.5,-172.764 127.5,-172.764"/>
</g>
</g>
</svg>
