<?xml version="1.0" encoding="UTF-8" standalone="no"?>
<!DOCTYPE svg PUBLIC "-//W3C//DTD SVG 1.1//EN"
 "http://www.w3.org/Graphics/SVG/1.1/DTD/svg11.dtd">
<!-- Generated by graphviz version 2.36.0 (20140111.2315)
 -->
<!-- Title: RTX::DequePointRecord Pages: 1 -->
<svg width="309pt" height="296pt"
 viewBox="0.00 0.00 309.38 296.00" xmlns="http://www.w3.org/2000/svg" xmlns:xlink="http://www.w3.org/1999/xlink">
<g id="graph0" class="graph" transform="scale(1 1) rotate(0) translate(4 292)">
<title>RTX::DequePointRecord</title>
<polygon fill="white" stroke="none" points="-4,4 -4,-292 305.379,-292 305.379,4 -4,4"/>
<!-- Node1 -->
<g id="node1" class="node"><title>Node1</title>
<polygon fill="#bfbfbf" stroke="black" points="79.061,-1 79.061,-19 204.939,-19 204.939,-1 79.061,-1"/>
<text text-anchor="middle" x="142" y="-7" font-family="Helvetica,sans-Serif" font-size="10.00">RTX::DequePointRecord</text>
</g>
<!-- Node2 -->
<g id="node2" class="node"><title>Node2</title>
<g id="a_node2"><a xlink:href="class_r_t_x_1_1_point_record.html" target="_top" xlink:title="A Point Record Class for storing and retrieving Points. ">
<polygon fill="white" stroke="black" points="93.7949,-59 93.7949,-77 190.205,-77 190.205,-59 93.7949,-59"/>
<text text-anchor="middle" x="142" y="-65" font-family="Helvetica,sans-Serif" font-size="10.00">RTX::PointRecord</text>
</a>
</g>
</g>
<!-- Node2&#45;&gt;Node1 -->
<g id="edge1" class="edge"><title>Node2&#45;&gt;Node1</title>
<path fill="none" stroke="midnightblue" d="M142,-48.6464C142,-38.7413 142,-27.0014 142,-19.2969"/>
<polygon fill="midnightblue" stroke="midnightblue" points="138.5,-48.737 142,-58.737 145.5,-48.737 138.5,-48.737"/>
</g>
<!-- Node3 -->
<g id="node3" class="node"><title>Node3</title>
<polygon fill="white" stroke="#bfbfbf" points="87.4521,-125 87.4521,-153 196.548,-153 196.548,-125 87.4521,-125"/>
<text text-anchor="start" x="95.4521" y="-141" font-family="Helvetica,sans-Serif" font-size="10.00">std::map&lt; std::string,</text>
<text text-anchor="middle" x="142" y="-131" font-family="Helvetica,sans-Serif" font-size="10.00"> RTX::Point &gt;</text>
</g>
<!-- Node3&#45;&gt;Node2 -->
<g id="edge2" class="edge"><title>Node3&#45;&gt;Node2</title>
<path fill="none" stroke="#9a32cd" stroke-dasharray="5,2" d="M142,-114.524C142,-101.54 142,-86.2294 142,-77.0841"/>
<polygon fill="#9a32cd" stroke="#9a32cd" points="138.5,-114.696 142,-124.696 145.5,-114.696 138.5,-114.696"/>
<text text-anchor="middle" x="171.465" y="-98" font-family="Helvetica,sans-Serif" font-size="10.00"> _pointCache</text>
</g>
<!-- Node4 -->
<g id="node4" class="node"><title>Node4</title>
<g id="a_node4"><a xlink:title="STL class. ">
<polygon fill="white" stroke="#bfbfbf" points="17.3252,-201 17.3252,-219 76.6748,-219 76.6748,-201 17.3252,-201"/>
<text text-anchor="middle" x="47" y="-207" font-family="Helvetica,sans-Serif" font-size="10.00">std::string</text>
</a>
</g>
</g>
<!-- Node4&#45;&gt;Node2 -->
<g id="edge6" class="edge"><title>Node4&#45;&gt;Node2</title>
<path fill="none" stroke="#9a32cd" stroke-dasharray="5,2" d="M30.2342,-193.656C13.0896,-176.058 -9.02085,-146.712 6.28125,-124 25.6719,-95.2196 62.9698,-81.494 93.5657,-74.9511"/>
<polygon fill="#9a32cd" stroke="#9a32cd" points="28.0069,-196.373 37.6097,-200.849 32.8942,-191.361 28.0069,-196.373"/>
<text text-anchor="middle" x="42.8594" y="-136" font-family="Helvetica,sans-Serif" font-size="10.00"> _cachedPointId</text>
</g>
<!-- Node4&#45;&gt;Node3 -->
<g id="edge3" class="edge"><title>Node4&#45;&gt;Node3</title>
<path fill="none" stroke="#9a32cd" stroke-dasharray="5,2" d="M66.7959,-194.622C83.6322,-182.393 107.607,-164.98 123.93,-153.124"/>
<polygon fill="#9a32cd" stroke="#9a32cd" points="64.305,-192.105 58.2708,-200.814 68.4187,-197.769 64.305,-192.105"/>
<text text-anchor="middle" x="109.67" y="-174" font-family="Helvetica,sans-Serif" font-size="10.00"> keys</text>
</g>
<!-- Node5 -->
<g id="node5" class="node"><title>Node5</title>
<g id="a_node5"><a xlink:title="STL class. ">
<polygon fill="white" stroke="#bfbfbf" points="-0.0478516,-259 -0.0478516,-287 94.0479,-287 94.0479,-259 -0.0478516,-259"/>
<text text-anchor="start" x="7.95215" y="-275" font-family="Helvetica,sans-Serif" font-size="10.00">std::basic_string&lt;</text>
<text text-anchor="middle" x="47" y="-265" font-family="Helvetica,sans-Serif" font-size="10.00"> char &gt;</text>
</a>
</g>
</g>
<!-- Node5&#45;&gt;Node4 -->
<g id="edge4" class="edge"><title>Node5&#45;&gt;Node4</title>
<path fill="none" stroke="midnightblue" d="M47,-248.588C47,-238.213 47,-226.68 47,-219.159"/>
<polygon fill="midnightblue" stroke="midnightblue" points="43.5001,-248.764 47,-258.764 50.5001,-248.764 43.5001,-248.764"/>
</g>
<!-- Node6 -->
<g id="node6" class="node"><title>Node6</title>
<g id="a_node6"><a xlink:href="class_r_t_x_1_1_point.html" target="_top" xlink:title="A Point Class to store data tuples (date, value, quality, confidence) ">
<polygon fill="white" stroke="black" points="142.913,-201 142.913,-219 207.087,-219 207.087,-201 142.913,-201"/>
<text text-anchor="middle" x="175" y="-207" font-family="Helvetica,sans-Serif" font-size="10.00">RTX::Point</text>
</a>
</g>
</g>
<!-- Node6&#45;&gt;Node2 -->
<g id="edge7" class="edge"><title>Node6&#45;&gt;Node2</title>
<path fill="none" stroke="#9a32cd" stroke-dasharray="5,2" d="M198.803,-194.766C202.928,-191.15 206.643,-186.881 209,-182 218.904,-161.488 272.476,-193.375 204,-96 197.719,-87.0688 187.82,-81.0634 177.759,-77.0367"/>
<polygon fill="#9a32cd" stroke="#9a32cd" points="196.518,-192.105 190.617,-200.904 200.717,-197.705 196.518,-192.105"/>
<text text-anchor="middle" x="269.689" y="-136" font-family="Helvetica,sans-Serif" font-size="10.00"> _cachedPoint</text>
</g>
<!-- Node6&#45;&gt;Node3 -->
<g id="edge5" class="edge"><title>Node6&#45;&gt;Node3</title>
<path fill="none" stroke="#9a32cd" stroke-dasharray="5,2" d="M166.613,-191.463C160.906,-179.53 153.474,-163.992 148.277,-153.124"/>
<polygon fill="#9a32cd" stroke="#9a32cd" points="163.613,-193.303 171.085,-200.814 169.928,-190.282 163.613,-193.303"/>
<text text-anchor="middle" x="183.677" y="-174" font-family="Helvetica,sans-Serif" font-size="10.00"> elements</text>
</g>
</g>
</svg>
