<?xml version="1.0" encoding="UTF-8" standalone="no"?>
<!DOCTYPE svg PUBLIC "-//W3C//DTD SVG 1.1//EN"
 "http://www.w3.org/Graphics/SVG/1.1/DTD/svg11.dtd">
<!-- Generated by graphviz version 2.36.0 (20140111.2315)
 -->
<!-- Title: RTX::MultiplierTimeSeries Pages: 1 -->
<svg width="158pt" height="272pt"
 viewBox="0.00 0.00 158.00 272.00" xmlns="http://www.w3.org/2000/svg" xmlns:xlink="http://www.w3.org/1999/xlink">
<g id="graph0" class="graph" transform="scale(1 1) rotate(0) translate(4 268)">
<title>RTX::MultiplierTimeSeries</title>
<polygon fill="white" stroke="none" points="-4,4 -4,-268 154,-268 154,4 -4,4"/>
<!-- Node1 -->
<g id="node1" class="node"><title>Node1</title>
<polygon fill="#bfbfbf" stroke="black" points="9.20459,-1 9.20459,-19 140.795,-19 140.795,-1 9.20459,-1"/>
<text text-anchor="middle" x="75" y="-7" font-family="Helvetica,sans-Serif" font-size="10.00">RTX::MultiplierTimeSeries</text>
</g>
<!-- Node2 -->
<g id="node2" class="node"><title>Node2</title>
<g id="a_node2"><a xlink:href="class_r_t_x_1_1_single_point_filter_modular_time_series.html" target="_top" xlink:title="RTX::SinglePointFilterModular\lTimeSeries">
<polygon fill="white" stroke="black" points="-0.160645,-57 -0.160645,-85 150.161,-85 150.161,-57 -0.160645,-57"/>
<text text-anchor="start" x="7.83936" y="-73" font-family="Helvetica,sans-Serif" font-size="10.00">RTX::SinglePointFilterModular</text>
<text text-anchor="middle" x="75" y="-63" font-family="Helvetica,sans-Serif" font-size="10.00">TimeSeries</text>
</a>
</g>
</g>
<!-- Node2&#45;&gt;Node1 -->
<g id="edge1" class="edge"><title>Node2&#45;&gt;Node1</title>
<path fill="none" stroke="midnightblue" d="M75,-46.8856C75,-37.0939 75,-26.3163 75,-19.1534"/>
<polygon fill="midnightblue" stroke="midnightblue" points="71.5001,-46.906 75,-56.906 78.5001,-46.906 71.5001,-46.906"/>
</g>
<!-- Node3 -->
<g id="node3" class="node"><title>Node3</title>
<g id="a_node3"><a xlink:href="class_r_t_x_1_1_modular_time_series.html" target="_top" xlink:title="A Time Series class that allows a single upstream TimeSeries. ">
<polygon fill="white" stroke="black" points="11.1455,-123 11.1455,-141 138.854,-141 138.854,-123 11.1455,-123"/>
<text text-anchor="middle" x="75" y="-129" font-family="Helvetica,sans-Serif" font-size="10.00">RTX::ModularTimeSeries</text>
</a>
</g>
</g>
<!-- Node3&#45;&gt;Node2 -->
<g id="edge2" class="edge"><title>Node3&#45;&gt;Node2</title>
<path fill="none" stroke="midnightblue" d="M75,-112.654C75,-103.736 75,-93.2225 75,-85.1215"/>
<polygon fill="midnightblue" stroke="midnightblue" points="71.5001,-112.796 75,-122.796 78.5001,-112.796 71.5001,-112.796"/>
</g>
<!-- Node4 -->
<g id="node4" class="node"><title>Node4</title>
<g id="a_node4"><a xlink:href="class_r_t_x_1_1_time_series.html" target="_top" xlink:title="An abstraction of Points ordered in time. ">
<polygon fill="white" stroke="black" points="29.2095,-179 29.2095,-197 120.791,-197 120.791,-179 29.2095,-179"/>
<text text-anchor="middle" x="75" y="-185" font-family="Helvetica,sans-Serif" font-size="10.00">RTX::TimeSeries</text>
</a>
</g>
</g>
<!-- Node4&#45;&gt;Node3 -->
<g id="edge3" class="edge"><title>Node4&#45;&gt;Node3</title>
<path fill="none" stroke="midnightblue" d="M75,-168.329C75,-159.077 75,-148.38 75,-141.201"/>
<polygon fill="midnightblue" stroke="midnightblue" points="71.5001,-168.562 75,-178.562 78.5001,-168.563 71.5001,-168.562"/>
</g>
<!-- Node5 -->
<g id="node5" class="node"><title>Node5</title>
<polygon fill="white" stroke="#bfbfbf" points="10.0273,-235 10.0273,-263 139.973,-263 139.973,-235 10.0273,-235"/>
<text text-anchor="start" x="18.0273" y="-251" font-family="Helvetica,sans-Serif" font-size="10.00">boost::enable_shared</text>
<text text-anchor="middle" x="75" y="-241" font-family="Helvetica,sans-Serif" font-size="10.00">_from_this&lt; TimeSeries &gt;</text>
</g>
<!-- Node5&#45;&gt;Node4 -->
<g id="edge4" class="edge"><title>Node5&#45;&gt;Node4</title>
<path fill="none" stroke="midnightblue" d="M75,-224.886C75,-215.094 75,-204.316 75,-197.153"/>
<polygon fill="midnightblue" stroke="midnightblue" points="71.5001,-224.906 75,-234.906 78.5001,-224.906 71.5001,-224.906"/>
</g>
</g>
</svg>
