<?xml version="1.0" encoding="UTF-8" standalone="no"?>
<!DOCTYPE svg PUBLIC "-//W3C//DTD SVG 1.1//EN"
 "http://www.w3.org/Graphics/SVG/1.1/DTD/svg11.dtd">
<!-- Generated by graphviz version 2.28.0 (20110509.1545)
 -->
<!-- Title: RTX::OdbcPointRecord::OdbcTableDescription Pages: 1 -->
<svg width="134pt" height="268pt"
 viewBox="0.00 0.00 133.59 268.00" xmlns="http://www.w3.org/2000/svg" xmlns:xlink="http://www.w3.org/1999/xlink">
<g id="graph1" class="graph" transform="scale(1 1) rotate(0) translate(4 264)">
<title>RTX::OdbcPointRecord::OdbcTableDescription</title>
<polygon fill="white" stroke="white" points="-4,5 -4,-264 130.591,-264 130.591,5 -4,5"/>
<!-- Node1 -->
<g id="node1" class="node"><title>Node1</title>
<polygon fill="#bfbfbf" stroke="black" points="-0.155762,-1 -0.155762,-33 120.156,-33 120.156,-1 -0.155762,-1"/>
<text text-anchor="start" x="7.84424" y="-19" font-family="Helvetica,sans-Serif" font-size="10.00">RTX::OdbcPointRecord</text>
<text text-anchor="middle" x="60" y="-7" font-family="Helvetica,sans-Serif" font-size="10.00">::OdbcTableDescription</text>
</g>
<!-- Node2 -->
<g id="node2" class="node"><title>Node2</title>
<a xlink:title="STL class. ">
<polygon fill="white" stroke="#bfbfbf" points="30.3252,-167 30.3252,-187 89.6748,-187 89.6748,-167 30.3252,-167"/>
<text text-anchor="middle" x="60" y="-173" font-family="Helvetica,sans-Serif" font-size="10.00">std::string</text>
</a>
</g>
<!-- Node2&#45;&gt;Node1 -->
<g id="edge2" class="edge"><title>Node2&#45;&gt;Node1</title>
<path fill="none" stroke="#9a32cd" stroke-dasharray="5,2" d="M60,-156.346C60,-124.488 60,-62.2371 60,-33.3743"/>
<polygon fill="#9a32cd" stroke="#9a32cd" points="56.5001,-156.59 60,-166.59 63.5001,-156.59 56.5001,-156.59"/>
<text text-anchor="middle" x="92.7954" y="-138" font-family="Helvetica,sans-Serif" font-size="10.00"> dataNameCol</text>
<text text-anchor="middle" x="92.7954" y="-126" font-family="Helvetica,sans-Serif" font-size="10.00">tagUnitsCol</text>
<text text-anchor="middle" x="92.7954" y="-114" font-family="Helvetica,sans-Serif" font-size="10.00">tagTable</text>
<text text-anchor="middle" x="92.7954" y="-102" font-family="Helvetica,sans-Serif" font-size="10.00">dataDateCol</text>
<text text-anchor="middle" x="92.7954" y="-90" font-family="Helvetica,sans-Serif" font-size="10.00">dataTable</text>
<text text-anchor="middle" x="92.7954" y="-78" font-family="Helvetica,sans-Serif" font-size="10.00">dataValueCol</text>
<text text-anchor="middle" x="92.7954" y="-66" font-family="Helvetica,sans-Serif" font-size="10.00">tagNameCol</text>
<text text-anchor="middle" x="92.7954" y="-54" font-family="Helvetica,sans-Serif" font-size="10.00">dataQualityCol</text>
</g>
<!-- Node3 -->
<g id="node4" class="node"><title>Node3</title>
<a xlink:title="STL class. ">
<polygon fill="white" stroke="#bfbfbf" points="12.9521,-227 12.9521,-259 107.048,-259 107.048,-227 12.9521,-227"/>
<text text-anchor="start" x="20.9521" y="-245" font-family="Helvetica,sans-Serif" font-size="10.00">std::basic_string&lt;</text>
<text text-anchor="middle" x="60" y="-233" font-family="Helvetica,sans-Serif" font-size="10.00"> char &gt;</text>
</a>
</g>
<!-- Node3&#45;&gt;Node2 -->
<g id="edge4" class="edge"><title>Node3&#45;&gt;Node2</title>
<path fill="none" stroke="midnightblue" d="M60,-216.611C60,-206.286 60,-195.001 60,-187.313"/>
<polygon fill="midnightblue" stroke="midnightblue" points="56.5001,-216.833 60,-226.833 63.5001,-216.833 56.5001,-216.833"/>
</g>
</g>
</svg>
