<?xml version="1.0" encoding="UTF-8" standalone="no"?>
<!DOCTYPE svg PUBLIC "-//W3C//DTD SVG 1.1//EN"
 "http://www.w3.org/Graphics/SVG/1.1/DTD/svg11.dtd">
<!-- Generated by graphviz version 2.36.0 (20140111.2315)
 -->
<!-- Title: RTX::OdbcPointRecord::OdbcTableDescription Pages: 1 -->
<svg width="134pt" height="242pt"
 viewBox="0.00 0.00 133.59 242.00" xmlns="http://www.w3.org/2000/svg" xmlns:xlink="http://www.w3.org/1999/xlink">
<g id="graph0" class="graph" transform="scale(1 1) rotate(0) translate(4 238)">
<title>RTX::OdbcPointRecord::OdbcTableDescription</title>
<polygon fill="white" stroke="none" points="-4,4 -4,-238 129.591,-238 129.591,4 -4,4"/>
<!-- Node1 -->
<g id="node1" class="node"><title>Node1</title>
<polygon fill="#bfbfbf" stroke="black" points="-0.155762,-1 -0.155762,-29 120.156,-29 120.156,-1 -0.155762,-1"/>
<text text-anchor="start" x="7.84424" y="-17" font-family="Helvetica,sans-Serif" font-size="10.00">RTX::OdbcPointRecord</text>
<text text-anchor="middle" x="60" y="-7" font-family="Helvetica,sans-Serif" font-size="10.00">::OdbcTableDescription</text>
</g>
<!-- Node2 -->
<g id="node2" class="node"><title>Node2</title>
<g id="a_node2"><a xlink:title="STL class. ">
<polygon fill="white" stroke="#bfbfbf" points="30.3252,-147 30.3252,-165 89.6748,-165 89.6748,-147 30.3252,-147"/>
<text text-anchor="middle" x="60" y="-153" font-family="Helvetica,sans-Serif" font-size="10.00">std::string</text>
</a>
</g>
</g>
<!-- Node2&#45;&gt;Node1 -->
<g id="edge1" class="edge"><title>Node2&#45;&gt;Node1</title>
<path fill="none" stroke="#9a32cd" stroke-dasharray="5,2" d="M60,-136.53C60,-108.009 60,-53.9485 60,-29.0963"/>
<polygon fill="#9a32cd" stroke="#9a32cd" points="56.5001,-136.721 60,-146.721 63.5001,-136.721 56.5001,-136.721"/>
<text text-anchor="middle" x="92.7954" y="-120" font-family="Helvetica,sans-Serif" font-size="10.00"> dataNameCol</text>
<text text-anchor="middle" x="92.7954" y="-110" font-family="Helvetica,sans-Serif" font-size="10.00">tagUnitsCol</text>
<text text-anchor="middle" x="92.7954" y="-100" font-family="Helvetica,sans-Serif" font-size="10.00">tagTable</text>
<text text-anchor="middle" x="92.7954" y="-90" font-family="Helvetica,sans-Serif" font-size="10.00">dataDateCol</text>
<text text-anchor="middle" x="92.7954" y="-80" font-family="Helvetica,sans-Serif" font-size="10.00">dataTable</text>
<text text-anchor="middle" x="92.7954" y="-70" font-family="Helvetica,sans-Serif" font-size="10.00">dataValueCol</text>
<text text-anchor="middle" x="92.7954" y="-60" font-family="Helvetica,sans-Serif" font-size="10.00">tagNameCol</text>
<text text-anchor="middle" x="92.7954" y="-50" font-family="Helvetica,sans-Serif" font-size="10.00">dataQualityCol</text>
</g>
<!-- Node3 -->
<g id="node3" class="node"><title>Node3</title>
<g id="a_node3"><a xlink:title="STL class. ">
<polygon fill="white" stroke="#bfbfbf" points="12.9521,-205 12.9521,-233 107.048,-233 107.048,-205 12.9521,-205"/>
<text text-anchor="start" x="20.9521" y="-221" font-family="Helvetica,sans-Serif" font-size="10.00">std::basic_string&lt;</text>
<text text-anchor="middle" x="60" y="-211" font-family="Helvetica,sans-Serif" font-size="10.00"> char &gt;</text>
</a>
</g>
</g>
<!-- Node3&#45;&gt;Node2 -->
<g id="edge2" class="edge"><title>Node3&#45;&gt;Node2</title>
<path fill="none" stroke="midnightblue" d="M60,-194.588C60,-184.213 60,-172.68 60,-165.159"/>
<polygon fill="midnightblue" stroke="midnightblue" points="56.5001,-194.764 60,-204.764 63.5001,-194.764 56.5001,-194.764"/>
</g>
</g>
</svg>
