<?xml version="1.0" encoding="UTF-8" standalone="no"?>
<!DOCTYPE svg PUBLIC "-//W3C//DTD SVG 1.1//EN"
 "http://www.w3.org/Graphics/SVG/1.1/DTD/svg11.dtd">
<!-- Generated by graphviz version 2.28.0 (20110509.1545)
 -->
<!-- Title: RTX::RtxException Pages: 1 -->
<svg width="180pt" height="172pt"
 viewBox="0.00 0.00 180.00 172.00" xmlns="http://www.w3.org/2000/svg" xmlns:xlink="http://www.w3.org/1999/xlink">
<g id="graph1" class="graph" transform="scale(1 1) rotate(0) translate(4 168)">
<title>RTX::RtxException</title>
<polygon fill="white" stroke="white" points="-4,5 -4,-168 177,-168 177,5 -4,5"/>
<!-- Node1 -->
<g id="node1" class="node"><title>Node1</title>
<polygon fill="#bfbfbf" stroke="black" points="17.8516,-1 17.8516,-21 118.148,-21 118.148,-1 17.8516,-1"/>
<text text-anchor="middle" x="68" y="-7" font-family="Helvetica,sans-Serif" font-size="10.00">RTX::RtxException</text>
</g>
<!-- Node2 -->
<g id="node2" class="node"><title>Node2</title>
<a xlink:title="STL class.">
<polygon fill="white" stroke="#bfbfbf" points="-0.852051,-71 -0.852051,-91 76.8521,-91 76.8521,-71 -0.852051,-71"/>
<text text-anchor="middle" x="38" y="-77" font-family="Helvetica,sans-Serif" font-size="10.00">std::exception</text>
</a>
</g>
<!-- Node2&#45;&gt;Node1 -->
<g id="edge2" class="edge"><title>Node2&#45;&gt;Node1</title>
<path fill="none" stroke="midnightblue" d="M46.2323,-61.3402C52.0178,-48.2263 59.5029,-31.2601 64.0182,-21.0255"/>
<polygon fill="midnightblue" stroke="midnightblue" points="42.8802,-60.2673 42.0459,-70.8292 49.2846,-63.0928 42.8802,-60.2673"/>
</g>
<!-- Node3 -->
<g id="node4" class="node"><title>Node3</title>
<a xlink:title="STL class.">
<polygon fill="white" stroke="#bfbfbf" points="95.3252,-71 95.3252,-91 154.675,-91 154.675,-71 95.3252,-71"/>
<text text-anchor="middle" x="125" y="-77" font-family="Helvetica,sans-Serif" font-size="10.00">std::string</text>
</a>
</g>
<!-- Node3&#45;&gt;Node1 -->
<g id="edge4" class="edge"><title>Node3&#45;&gt;Node1</title>
<path fill="none" stroke="#9a32cd" stroke-dasharray="5,2" d="M110.649,-62.8795C99.5015,-49.5807 84.4842,-31.6654 75.5655,-21.0255"/>
<polygon fill="#9a32cd" stroke="#9a32cd" points="108.206,-65.4139 117.313,-70.8292 113.571,-60.9171 108.206,-65.4139"/>
<text text-anchor="middle" x="102.889" y="-42" font-family="Helvetica,sans-Serif" font-size="10.00"> s</text>
</g>
<!-- Node4 -->
<g id="node6" class="node"><title>Node4</title>
<a xlink:title="STL class.">
<polygon fill="white" stroke="#bfbfbf" points="77.9521,-131 77.9521,-163 172.048,-163 172.048,-131 77.9521,-131"/>
<text text-anchor="start" x="85.9521" y="-149" font-family="Helvetica,sans-Serif" font-size="10.00">std::basic_string&lt;</text>
<text text-anchor="middle" x="125" y="-137" font-family="Helvetica,sans-Serif" font-size="10.00"> char &gt;</text>
</a>
</g>
<!-- Node4&#45;&gt;Node3 -->
<g id="edge6" class="edge"><title>Node4&#45;&gt;Node3</title>
<path fill="none" stroke="midnightblue" d="M125,-120.611C125,-110.286 125,-99.0006 125,-91.3126"/>
<polygon fill="midnightblue" stroke="midnightblue" points="121.5,-120.833 125,-130.833 128.5,-120.833 121.5,-120.833"/>
</g>
</g>
</svg>
