<?xml version="1.0" encoding="UTF-8" standalone="no"?>
<!DOCTYPE svg PUBLIC "-//W3C//DTD SVG 1.1//EN"
 "http://www.w3.org/Graphics/SVG/1.1/DTD/svg11.dtd">
<!-- Generated by graphviz version 2.28.0 (20110509.1545)
 -->
<!-- Title: RTX::Junction Pages: 1 -->
<svg width="172pt" height="204pt"
 viewBox="0.00 0.00 172.00 204.00" xmlns="http://www.w3.org/2000/svg" xmlns:xlink="http://www.w3.org/1999/xlink">
<g id="graph1" class="graph" transform="scale(1 1) rotate(0) translate(4 200)">
<title>RTX::Junction</title>
<polygon fill="white" stroke="white" points="-4,5 -4,-200 169,-200 169,5 -4,5"/>
<!-- Node1 -->
<g id="node1" class="node"><title>Node1</title>
<polygon fill="#bfbfbf" stroke="black" points="47.6865,-59 47.6865,-79 126.313,-79 126.313,-59 47.6865,-59"/>
<text text-anchor="middle" x="87" y="-65" font-family="Helvetica,sans-Serif" font-size="10.00">RTX::Junction</text>
</g>
<!-- Node4 -->
<g id="node7" class="node"><title>Node4</title>
<a xlink:href="class_r_t_x_1_1_reservoir.html" target="_top" xlink:title="RTX::Reservoir">
<polygon fill="white" stroke="black" points="-0.0844727,-1 -0.0844727,-21 84.0845,-21 84.0845,-1 -0.0844727,-1"/>
<text text-anchor="middle" x="42" y="-7" font-family="Helvetica,sans-Serif" font-size="10.00">RTX::Reservoir</text>
</a>
</g>
<!-- Node1&#45;&gt;Node4 -->
<g id="edge6" class="edge"><title>Node1&#45;&gt;Node4</title>
<path fill="none" stroke="midnightblue" d="M73.1928,-50.8177C65.3061,-41.0032 55.7356,-29.0932 49.2926,-21.0752"/>
<polygon fill="midnightblue" stroke="midnightblue" points="70.5769,-53.15 79.5692,-58.7527 76.0335,-48.7652 70.5769,-53.15"/>
</g>
<!-- Node5 -->
<g id="node9" class="node"><title>Node5</title>
<a xlink:href="class_r_t_x_1_1_tank.html" target="_top" xlink:title="RTX::Tank">
<polygon fill="white" stroke="black" points="101.748,-1 101.748,-21 164.252,-21 164.252,-1 101.748,-1"/>
<text text-anchor="middle" x="133" y="-7" font-family="Helvetica,sans-Serif" font-size="10.00">RTX::Tank</text>
</a>
</g>
<!-- Node1&#45;&gt;Node5 -->
<g id="edge8" class="edge"><title>Node1&#45;&gt;Node5</title>
<path fill="none" stroke="midnightblue" d="M101.114,-50.8177C109.176,-41.0032 118.959,-29.0932 125.545,-21.0752"/>
<polygon fill="midnightblue" stroke="midnightblue" points="98.2388,-48.8039 94.596,-58.7527 103.648,-53.2471 98.2388,-48.8039"/>
</g>
<!-- Node2 -->
<g id="node2" class="node"><title>Node2</title>
<a xlink:href="class_r_t_x_1_1_node.html" target="_top" xlink:title="Node Class.">
<polygon fill="white" stroke="black" points="54.3564,-117 54.3564,-137 119.644,-137 119.644,-117 54.3564,-117"/>
<text text-anchor="middle" x="87" y="-123" font-family="Helvetica,sans-Serif" font-size="10.00">RTX::Node</text>
</a>
</g>
<!-- Node2&#45;&gt;Node1 -->
<g id="edge2" class="edge"><title>Node2&#45;&gt;Node1</title>
<path fill="none" stroke="midnightblue" d="M87,-106.707C87,-97.3384 87,-86.5262 87,-79.0752"/>
<polygon fill="midnightblue" stroke="midnightblue" points="83.5001,-106.753 87,-116.753 90.5001,-106.753 83.5001,-106.753"/>
</g>
<!-- Node3 -->
<g id="node4" class="node"><title>Node3</title>
<a xlink:href="class_r_t_x_1_1_element.html" target="_top" xlink:title="Element Base Class.">
<polygon fill="white" stroke="black" points="47.9673,-175 47.9673,-195 126.033,-195 126.033,-175 47.9673,-175"/>
<text text-anchor="middle" x="87" y="-181" font-family="Helvetica,sans-Serif" font-size="10.00">RTX::Element</text>
</a>
</g>
<!-- Node3&#45;&gt;Node2 -->
<g id="edge4" class="edge"><title>Node3&#45;&gt;Node2</title>
<path fill="none" stroke="midnightblue" d="M87,-164.707C87,-155.338 87,-144.526 87,-137.075"/>
<polygon fill="midnightblue" stroke="midnightblue" points="83.5001,-164.753 87,-174.753 90.5001,-164.753 83.5001,-164.753"/>
</g>
</g>
</svg>
