<?xml version="1.0" encoding="UTF-8" standalone="no"?>
<!DOCTYPE svg PUBLIC "-//W3C//DTD SVG 1.1//EN"
 "http://www.w3.org/Graphics/SVG/1.1/DTD/svg11.dtd">
<!-- Generated by graphviz version 2.28.0 (20110509.1545)
 -->
<!-- Title: RTX::Pipe Pages: 1 -->
<svg width="158pt" height="204pt"
 viewBox="0.00 0.00 158.00 204.00" xmlns="http://www.w3.org/2000/svg" xmlns:xlink="http://www.w3.org/1999/xlink">
<g id="graph1" class="graph" transform="scale(1 1) rotate(0) translate(4 200)">
<title>RTX::Pipe</title>
<polygon fill="white" stroke="white" points="-4,5 -4,-200 155,-200 155,5 -4,5"/>
<!-- Node1 -->
<g id="node1" class="node"><title>Node1</title>
<polygon fill="#bfbfbf" stroke="black" points="44.3022,-59 44.3022,-79 105.698,-79 105.698,-59 44.3022,-59"/>
<text text-anchor="middle" x="75" y="-65" font-family="Helvetica,sans-Serif" font-size="10.00">RTX::Pipe</text>
</g>
<!-- Node4 -->
<g id="node7" class="node"><title>Node4</title>
<a xlink:href="class_r_t_x_1_1_pump.html" target="_top" xlink:title="RTX::Pump">
<polygon fill="white" stroke="black" points="-0.751953,-1 -0.751953,-21 66.752,-21 66.752,-1 -0.751953,-1"/>
<text text-anchor="middle" x="33" y="-7" font-family="Helvetica,sans-Serif" font-size="10.00">RTX::Pump</text>
</a>
</g>
<!-- Node1&#45;&gt;Node4 -->
<g id="edge6" class="edge"><title>Node1&#45;&gt;Node4</title>
<path fill="none" stroke="midnightblue" d="M61.8898,-50.5197C54.5722,-40.763 45.7591,-29.0122 39.8064,-21.0752"/>
<polygon fill="midnightblue" stroke="midnightblue" points="59.2645,-52.8527 68.0646,-58.7527 64.8645,-48.6527 59.2645,-52.8527"/>
</g>
<!-- Node5 -->
<g id="node9" class="node"><title>Node5</title>
<a xlink:href="class_r_t_x_1_1_valve.html" target="_top" xlink:title="RTX::Valve">
<polygon fill="white" stroke="black" points="85.1709,-1 85.1709,-21 150.829,-21 150.829,-1 85.1709,-1"/>
<text text-anchor="middle" x="118" y="-7" font-family="Helvetica,sans-Serif" font-size="10.00">RTX::Valve</text>
</a>
</g>
<!-- Node1&#45;&gt;Node5 -->
<g id="edge8" class="edge"><title>Node1&#45;&gt;Node5</title>
<path fill="none" stroke="midnightblue" d="M88.1935,-50.8177C95.7297,-41.0032 104.875,-29.0932 111.032,-21.0752"/>
<polygon fill="midnightblue" stroke="midnightblue" points="85.4148,-48.6896 82.1006,-58.7527 90.9669,-52.9528 85.4148,-48.6896"/>
</g>
<!-- Node2 -->
<g id="node2" class="node"><title>Node2</title>
<a xlink:href="class_r_t_x_1_1_link.html" target="_top" xlink:title="Link Class.">
<polygon fill="white" stroke="black" points="45.1372,-117 45.1372,-137 104.863,-137 104.863,-117 45.1372,-117"/>
<text text-anchor="middle" x="75" y="-123" font-family="Helvetica,sans-Serif" font-size="10.00">RTX::Link</text>
</a>
</g>
<!-- Node2&#45;&gt;Node1 -->
<g id="edge2" class="edge"><title>Node2&#45;&gt;Node1</title>
<path fill="none" stroke="midnightblue" d="M75,-106.707C75,-97.3384 75,-86.5262 75,-79.0752"/>
<polygon fill="midnightblue" stroke="midnightblue" points="71.5001,-106.753 75,-116.753 78.5001,-106.753 71.5001,-106.753"/>
</g>
<!-- Node3 -->
<g id="node4" class="node"><title>Node3</title>
<a xlink:href="class_r_t_x_1_1_element.html" target="_top" xlink:title="Element Base Class.">
<polygon fill="white" stroke="black" points="35.9673,-175 35.9673,-195 114.033,-195 114.033,-175 35.9673,-175"/>
<text text-anchor="middle" x="75" y="-181" font-family="Helvetica,sans-Serif" font-size="10.00">RTX::Element</text>
</a>
</g>
<!-- Node3&#45;&gt;Node2 -->
<g id="edge4" class="edge"><title>Node3&#45;&gt;Node2</title>
<path fill="none" stroke="midnightblue" d="M75,-164.707C75,-155.338 75,-144.526 75,-137.075"/>
<polygon fill="midnightblue" stroke="midnightblue" points="71.5001,-164.753 75,-174.753 78.5001,-164.753 71.5001,-164.753"/>
</g>
</g>
</svg>
