<?xml version="1.0" encoding="UTF-8" standalone="no"?>
<!DOCTYPE svg PUBLIC "-//W3C//DTD SVG 1.1//EN"
 "http://www.w3.org/Graphics/SVG/1.1/DTD/svg11.dtd">
<!-- Generated by graphviz version 2.28.0 (20110509.1545)
 -->
<!-- Title: RTX::Reservoir Pages: 1 -->
<svg width="92pt" height="204pt"
 viewBox="0.00 0.00 92.00 204.00" xmlns="http://www.w3.org/2000/svg" xmlns:xlink="http://www.w3.org/1999/xlink">
<g id="graph1" class="graph" transform="scale(1 1) rotate(0) translate(4 200)">
<title>RTX::Reservoir</title>
<polygon fill="white" stroke="white" points="-4,5 -4,-200 89,-200 89,5 -4,5"/>
<!-- Node1 -->
<g id="node1" class="node"><title>Node1</title>
<polygon fill="#bfbfbf" stroke="black" points="-0.0844727,-1 -0.0844727,-21 84.0845,-21 84.0845,-1 -0.0844727,-1"/>
<text text-anchor="middle" x="42" y="-7" font-family="Helvetica,sans-Serif" font-size="10.00">RTX::Reservoir</text>
</g>
<!-- Node2 -->
<g id="node2" class="node"><title>Node2</title>
<a xlink:href="class_r_t_x_1_1_junction.html" target="_top" xlink:title="Junction Class.">
<polygon fill="white" stroke="black" points="2.68652,-59 2.68652,-79 81.3135,-79 81.3135,-59 2.68652,-59"/>
<text text-anchor="middle" x="42" y="-65" font-family="Helvetica,sans-Serif" font-size="10.00">RTX::Junction</text>
</a>
</g>
<!-- Node2&#45;&gt;Node1 -->
<g id="edge2" class="edge"><title>Node2&#45;&gt;Node1</title>
<path fill="none" stroke="midnightblue" d="M42,-48.7065C42,-39.3384 42,-28.5262 42,-21.0752"/>
<polygon fill="midnightblue" stroke="midnightblue" points="38.5001,-48.7527 42,-58.7527 45.5001,-48.7528 38.5001,-48.7527"/>
</g>
<!-- Node3 -->
<g id="node4" class="node"><title>Node3</title>
<a xlink:href="class_r_t_x_1_1_node.html" target="_top" xlink:title="Node Class.">
<polygon fill="white" stroke="black" points="9.35645,-117 9.35645,-137 74.6436,-137 74.6436,-117 9.35645,-117"/>
<text text-anchor="middle" x="42" y="-123" font-family="Helvetica,sans-Serif" font-size="10.00">RTX::Node</text>
</a>
</g>
<!-- Node3&#45;&gt;Node2 -->
<g id="edge4" class="edge"><title>Node3&#45;&gt;Node2</title>
<path fill="none" stroke="midnightblue" d="M42,-106.707C42,-97.3384 42,-86.5262 42,-79.0752"/>
<polygon fill="midnightblue" stroke="midnightblue" points="38.5001,-106.753 42,-116.753 45.5001,-106.753 38.5001,-106.753"/>
</g>
<!-- Node4 -->
<g id="node6" class="node"><title>Node4</title>
<a xlink:href="class_r_t_x_1_1_element.html" target="_top" xlink:title="Element Base Class.">
<polygon fill="white" stroke="black" points="2.96729,-175 2.96729,-195 81.0327,-195 81.0327,-175 2.96729,-175"/>
<text text-anchor="middle" x="42" y="-181" font-family="Helvetica,sans-Serif" font-size="10.00">RTX::Element</text>
</a>
</g>
<!-- Node4&#45;&gt;Node3 -->
<g id="edge6" class="edge"><title>Node4&#45;&gt;Node3</title>
<path fill="none" stroke="midnightblue" d="M42,-164.707C42,-155.338 42,-144.526 42,-137.075"/>
<polygon fill="midnightblue" stroke="midnightblue" points="38.5001,-164.753 42,-174.753 45.5001,-164.753 38.5001,-164.753"/>
</g>
</g>
</svg>
