<?xml version="1.0" encoding="UTF-8" standalone="no"?>
<!DOCTYPE svg PUBLIC "-//W3C//DTD SVG 1.1//EN"
 "http://www.w3.org/Graphics/SVG/1.1/DTD/svg11.dtd">
<!-- Generated by graphviz version 2.28.0 (20110509.1545)
 -->
<!-- Title: RTX::BufferPointRecord Pages: 1 -->
<svg width="199pt" height="232pt"
 viewBox="0.00 0.00 199.38 232.00" xmlns="http://www.w3.org/2000/svg" xmlns:xlink="http://www.w3.org/1999/xlink">
<g id="graph1" class="graph" transform="scale(1 1) rotate(0) translate(4 228)">
<title>RTX::BufferPointRecord</title>
<polygon fill="white" stroke="white" points="-4,5 -4,-228 196.379,-228 196.379,5 -4,5"/>
<!-- Node1 -->
<g id="node1" class="node"><title>Node1</title>
<polygon fill="#bfbfbf" stroke="black" points="32.543,-1 32.543,-21 155.457,-21 155.457,-1 32.543,-1"/>
<text text-anchor="middle" x="94" y="-7" font-family="Helvetica,sans-Serif" font-size="10.00">RTX::BufferPointRecord</text>
</g>
<!-- Node2 -->
<g id="node2" class="node"><title>Node2</title>
<a xlink:href="class_r_t_x_1_1_point_record.html" target="_top" xlink:title="A Point Record Class for storing and retrieving Points.">
<polygon fill="white" stroke="black" points="45.7949,-61 45.7949,-81 142.205,-81 142.205,-61 45.7949,-61"/>
<text text-anchor="middle" x="94" y="-67" font-family="Helvetica,sans-Serif" font-size="10.00">RTX::PointRecord</text>
</a>
</g>
<!-- Node2&#45;&gt;Node1 -->
<g id="edge2" class="edge"><title>Node2&#45;&gt;Node1</title>
<path fill="none" stroke="midnightblue" d="M94,-50.7309C94,-40.7807 94,-29.1016 94,-21.1903"/>
<polygon fill="midnightblue" stroke="midnightblue" points="90.5001,-50.9375 94,-60.9375 97.5001,-50.9375 90.5001,-50.9375"/>
</g>
<!-- Node3 -->
<g id="node4" class="node"><title>Node3</title>
<a xlink:title="STL class.">
<polygon fill="white" stroke="#bfbfbf" points="17.3252,-131 17.3252,-151 76.6748,-151 76.6748,-131 17.3252,-131"/>
<text text-anchor="middle" x="47" y="-137" font-family="Helvetica,sans-Serif" font-size="10.00">std::string</text>
</a>
</g>
<!-- Node3&#45;&gt;Node2 -->
<g id="edge4" class="edge"><title>Node3&#45;&gt;Node2</title>
<path fill="none" stroke="#9a32cd" stroke-dasharray="5,2" d="M43.9679,-120.718C43.7853,-113.777 44.706,-106.149 48.2812,-100 53.1467,-91.6318 61.6044,-85.4417 69.9326,-81.041"/>
<polygon fill="#9a32cd" stroke="#9a32cd" points="40.4915,-121.131 44.9398,-130.747 47.4588,-120.456 40.4915,-121.131"/>
<text text-anchor="middle" x="84.8594" y="-102" font-family="Helvetica,sans-Serif" font-size="10.00"> _cachedPointId</text>
</g>
<!-- Node4 -->
<g id="node6" class="node"><title>Node4</title>
<a xlink:title="STL class.">
<polygon fill="white" stroke="#bfbfbf" points="-0.0478516,-191 -0.0478516,-223 94.0479,-223 94.0479,-191 -0.0478516,-191"/>
<text text-anchor="start" x="7.95215" y="-209" font-family="Helvetica,sans-Serif" font-size="10.00">std::basic_string&lt;</text>
<text text-anchor="middle" x="47" y="-197" font-family="Helvetica,sans-Serif" font-size="10.00"> char &gt;</text>
</a>
</g>
<!-- Node4&#45;&gt;Node3 -->
<g id="edge6" class="edge"><title>Node4&#45;&gt;Node3</title>
<path fill="none" stroke="midnightblue" d="M47,-180.611C47,-170.286 47,-159.001 47,-151.313"/>
<polygon fill="midnightblue" stroke="midnightblue" points="43.5001,-180.833 47,-190.833 50.5001,-180.833 43.5001,-180.833"/>
</g>
<!-- Node5 -->
<g id="node8" class="node"><title>Node5</title>
<a xlink:href="class_r_t_x_1_1_point.html" target="_top" xlink:title="A Point Class to store data tuples (date, value, quality, confidence)">
<polygon fill="white" stroke="black" points="109.913,-131 109.913,-151 174.087,-151 174.087,-131 109.913,-131"/>
<text text-anchor="middle" x="142" y="-137" font-family="Helvetica,sans-Serif" font-size="10.00">RTX::Point</text>
</a>
</g>
<!-- Node5&#45;&gt;Node2 -->
<g id="edge8" class="edge"><title>Node5&#45;&gt;Node2</title>
<path fill="none" stroke="#9a32cd" stroke-dasharray="5,2" d="M132.991,-121.4C129.316,-114.456 124.802,-106.647 120,-100 115.105,-93.2246 108.73,-86.3358 103.518,-81.0865"/>
<polygon fill="#9a32cd" stroke="#9a32cd" points="130.07,-123.381 137.709,-130.722 136.316,-120.219 130.07,-123.381"/>
<text text-anchor="middle" x="159.689" y="-102" font-family="Helvetica,sans-Serif" font-size="10.00"> _cachedPoint</text>
</g>
</g>
</svg>
