<?xml version="1.0" encoding="UTF-8" standalone="no"?>
<!DOCTYPE svg PUBLIC "-//W3C//DTD SVG 1.1//EN"
 "http://www.w3.org/Graphics/SVG/1.1/DTD/svg11.dtd">
<!-- Generated by graphviz version 2.36.0 (20140111.2315)
 -->
<!-- Title: RTX::DbPointRecord::request_t Pages: 1 -->
<svg width="116pt" height="172pt"
 viewBox="0.00 0.00 116.00 172.00" xmlns="http://www.w3.org/2000/svg" xmlns:xlink="http://www.w3.org/1999/xlink">
<g id="graph0" class="graph" transform="scale(1 1) rotate(0) translate(4 168)">
<title>RTX::DbPointRecord::request_t</title>
<polygon fill="white" stroke="none" points="-4,4 -4,-168 112,-168 112,4 -4,4"/>
<!-- Node1 -->
<g id="node1" class="node"><title>Node1</title>
<polygon fill="#bfbfbf" stroke="black" points="-0.59668,-1 -0.59668,-29 108.597,-29 108.597,-1 -0.59668,-1"/>
<text text-anchor="start" x="7.40332" y="-17" font-family="Helvetica,sans-Serif" font-size="10.00">RTX::DbPointRecord</text>
<text text-anchor="middle" x="54" y="-7" font-family="Helvetica,sans-Serif" font-size="10.00">::request_t</text>
</g>
<!-- Node2 -->
<g id="node2" class="node"><title>Node2</title>
<g id="a_node2"><a xlink:title="STL class. ">
<polygon fill="white" stroke="#bfbfbf" points="24.3252,-77 24.3252,-95 83.6748,-95 83.6748,-77 24.3252,-77"/>
<text text-anchor="middle" x="54" y="-83" font-family="Helvetica,sans-Serif" font-size="10.00">std::string</text>
</a>
</g>
</g>
<!-- Node2&#45;&gt;Node1 -->
<g id="edge1" class="edge"><title>Node2&#45;&gt;Node1</title>
<path fill="none" stroke="#9a32cd" stroke-dasharray="5,2" d="M54,-66.7354C54,-54.9039 54,-39.7724 54,-29.1243"/>
<polygon fill="#9a32cd" stroke="#9a32cd" points="50.5001,-66.8138 54,-76.8138 57.5001,-66.8139 50.5001,-66.8138"/>
<text text-anchor="middle" x="59.2808" y="-50" font-family="Helvetica,sans-Serif" font-size="10.00"> id</text>
</g>
<!-- Node3 -->
<g id="node3" class="node"><title>Node3</title>
<g id="a_node3"><a xlink:title="STL class. ">
<polygon fill="white" stroke="#bfbfbf" points="6.95215,-135 6.95215,-163 101.048,-163 101.048,-135 6.95215,-135"/>
<text text-anchor="start" x="14.9521" y="-151" font-family="Helvetica,sans-Serif" font-size="10.00">std::basic_string&lt;</text>
<text text-anchor="middle" x="54" y="-141" font-family="Helvetica,sans-Serif" font-size="10.00"> char &gt;</text>
</a>
</g>
</g>
<!-- Node3&#45;&gt;Node2 -->
<g id="edge2" class="edge"><title>Node3&#45;&gt;Node2</title>
<path fill="none" stroke="midnightblue" d="M54,-124.588C54,-114.213 54,-102.68 54,-95.1595"/>
<polygon fill="midnightblue" stroke="midnightblue" points="50.5001,-124.764 54,-134.764 57.5001,-124.764 50.5001,-124.764"/>
</g>
</g>
</svg>
