<?xml version="1.0" encoding="UTF-8" standalone="no"?>
<!DOCTYPE svg PUBLIC "-//W3C//DTD SVG 1.1//EN"
 "http://www.w3.org/Graphics/SVG/1.1/DTD/svg11.dtd">
<!-- Generated by graphviz version 2.36.0 (20140111.2315)
 -->
<!-- Title: RTX::OdbcDirectPointRecord Pages: 1 -->
<svg width="154pt" height="252pt"
 viewBox="0.00 0.00 154.00 252.00" xmlns="http://www.w3.org/2000/svg" xmlns:xlink="http://www.w3.org/1999/xlink">
<g id="graph0" class="graph" transform="scale(1 1) rotate(0) translate(4 248)">
<title>RTX::OdbcDirectPointRecord</title>
<polygon fill="white" stroke="none" points="-4,4 -4,-248 150,-248 150,4 -4,4"/>
<!-- Node1 -->
<g id="node1" class="node"><title>Node1</title>
<polygon fill="#bfbfbf" stroke="black" points="-0.212402,-1 -0.212402,-19 146.212,-19 146.212,-1 -0.212402,-1"/>
<text text-anchor="middle" x="73" y="-7" font-family="Helvetica,sans-Serif" font-size="10.00">RTX::OdbcDirectPointRecord</text>
</g>
<!-- Node2 -->
<g id="node2" class="node"><title>Node2</title>
<g id="a_node2"><a xlink:href="class_r_t_x_1_1_odbc_point_record.html" target="_top" xlink:title="A persistence class for SCADA databases. ">
<polygon fill="white" stroke="black" points="12.8442,-57 12.8442,-75 133.156,-75 133.156,-57 12.8442,-57"/>
<text text-anchor="middle" x="73" y="-63" font-family="Helvetica,sans-Serif" font-size="10.00">RTX::OdbcPointRecord</text>
</a>
</g>
</g>
<!-- Node2&#45;&gt;Node1 -->
<g id="edge1" class="edge"><title>Node2&#45;&gt;Node1</title>
<path fill="none" stroke="midnightblue" d="M73,-46.3288C73,-37.0774 73,-26.3798 73,-19.2014"/>
<polygon fill="midnightblue" stroke="midnightblue" points="69.5001,-46.5625 73,-56.5625 76.5001,-46.5625 69.5001,-46.5625"/>
</g>
<!-- Node3 -->
<g id="node3" class="node"><title>Node3</title>
<g id="a_node3"><a xlink:href="class_r_t_x_1_1_db_point_record.html" target="_top" xlink:title="A persistence layer for databases. ">
<polygon fill="white" stroke="black" points="18.4033,-113 18.4033,-131 127.597,-131 127.597,-113 18.4033,-113"/>
<text text-anchor="middle" x="73" y="-119" font-family="Helvetica,sans-Serif" font-size="10.00">RTX::DbPointRecord</text>
</a>
</g>
</g>
<!-- Node3&#45;&gt;Node2 -->
<g id="edge2" class="edge"><title>Node3&#45;&gt;Node2</title>
<path fill="none" stroke="midnightblue" d="M73,-102.329C73,-93.0774 73,-82.3798 73,-75.2014"/>
<polygon fill="midnightblue" stroke="midnightblue" points="69.5001,-102.562 73,-112.562 76.5001,-102.563 69.5001,-102.562"/>
</g>
<!-- Node4 -->
<g id="node4" class="node"><title>Node4</title>
<g id="a_node4"><a xlink:href="class_r_t_x_1_1_buffer_point_record.html" target="_top" xlink:title="RTX::BufferPointRecord">
<polygon fill="white" stroke="black" points="11.543,-169 11.543,-187 134.457,-187 134.457,-169 11.543,-169"/>
<text text-anchor="middle" x="73" y="-175" font-family="Helvetica,sans-Serif" font-size="10.00">RTX::BufferPointRecord</text>
</a>
</g>
</g>
<!-- Node4&#45;&gt;Node3 -->
<g id="edge3" class="edge"><title>Node4&#45;&gt;Node3</title>
<path fill="none" stroke="midnightblue" d="M73,-158.329C73,-149.077 73,-138.38 73,-131.201"/>
<polygon fill="midnightblue" stroke="midnightblue" points="69.5001,-158.562 73,-168.562 76.5001,-158.563 69.5001,-158.562"/>
</g>
<!-- Node5 -->
<g id="node5" class="node"><title>Node5</title>
<g id="a_node5"><a xlink:href="class_r_t_x_1_1_point_record.html" target="_top" xlink:title="A Point Record Class for storing and retrieving Points. ">
<polygon fill="white" stroke="black" points="24.7949,-225 24.7949,-243 121.205,-243 121.205,-225 24.7949,-225"/>
<text text-anchor="middle" x="73" y="-231" font-family="Helvetica,sans-Serif" font-size="10.00">RTX::PointRecord</text>
</a>
</g>
</g>
<!-- Node5&#45;&gt;Node4 -->
<g id="edge4" class="edge"><title>Node5&#45;&gt;Node4</title>
<path fill="none" stroke="midnightblue" d="M73,-214.329C73,-205.077 73,-194.38 73,-187.201"/>
<polygon fill="midnightblue" stroke="midnightblue" points="69.5001,-214.562 73,-224.562 76.5001,-214.563 69.5001,-214.562"/>
</g>
</g>
</svg>
