<?xml version="1.0" encoding="UTF-8" standalone="no"?>
<!DOCTYPE svg PUBLIC "-//W3C//DTD SVG 1.1//EN"
 "http://www.w3.org/Graphics/SVG/1.1/DTD/svg11.dtd">
<!-- Generated by graphviz version 2.36.0 (20140111.2315)
 -->
<!-- Title: RTX::EpanetMsxModel Pages: 1 -->
<svg width="126pt" height="140pt"
 viewBox="0.00 0.00 126.00 140.00" xmlns="http://www.w3.org/2000/svg" xmlns:xlink="http://www.w3.org/1999/xlink">
<g id="graph0" class="graph" transform="scale(1 1) rotate(0) translate(4 136)">
<title>RTX::EpanetMsxModel</title>
<polygon fill="white" stroke="none" points="-4,4 -4,-136 122,-136 122,4 -4,4"/>
<!-- Node1 -->
<g id="node1" class="node"><title>Node1</title>
<polygon fill="#bfbfbf" stroke="black" points="-0.320801,-1 -0.320801,-19 118.321,-19 118.321,-1 -0.320801,-1"/>
<text text-anchor="middle" x="59" y="-7" font-family="Helvetica,sans-Serif" font-size="10.00">RTX::EpanetMsxModel</text>
</g>
<!-- Node2 -->
<g id="node2" class="node"><title>Node2</title>
<g id="a_node2"><a xlink:href="class_r_t_x_1_1_epanet_model.html" target="_top" xlink:title="An Epanet&#45;based model object. ">
<polygon fill="white" stroke="black" points="8.84424,-57 8.84424,-75 109.156,-75 109.156,-57 8.84424,-57"/>
<text text-anchor="middle" x="59" y="-63" font-family="Helvetica,sans-Serif" font-size="10.00">RTX::EpanetModel</text>
</a>
</g>
</g>
<!-- Node2&#45;&gt;Node1 -->
<g id="edge1" class="edge"><title>Node2&#45;&gt;Node1</title>
<path fill="none" stroke="midnightblue" d="M59,-46.3288C59,-37.0774 59,-26.3798 59,-19.2014"/>
<polygon fill="midnightblue" stroke="midnightblue" points="55.5001,-46.5625 59,-56.5625 62.5001,-46.5625 55.5001,-46.5625"/>
</g>
<!-- Node3 -->
<g id="node3" class="node"><title>Node3</title>
<g id="a_node3"><a xlink:href="class_r_t_x_1_1_model.html" target="_top" xlink:title="A hydraulic / water quality model abstraction. ">
<polygon fill="white" stroke="black" points="24.6914,-113 24.6914,-131 93.3086,-131 93.3086,-113 24.6914,-113"/>
<text text-anchor="middle" x="59" y="-119" font-family="Helvetica,sans-Serif" font-size="10.00">RTX::Model</text>
</a>
</g>
</g>
<!-- Node3&#45;&gt;Node2 -->
<g id="edge2" class="edge"><title>Node3&#45;&gt;Node2</title>
<path fill="none" stroke="midnightblue" d="M59,-102.329C59,-93.0774 59,-82.3798 59,-75.2014"/>
<polygon fill="midnightblue" stroke="midnightblue" points="55.5001,-102.562 59,-112.562 62.5001,-102.563 55.5001,-102.562"/>
</g>
</g>
</svg>
