<?xml version="1.0" encoding="UTF-8" standalone="no"?>
<!DOCTYPE svg PUBLIC "-//W3C//DTD SVG 1.1//EN"
 "http://www.w3.org/Graphics/SVG/1.1/DTD/svg11.dtd">
<!-- Generated by graphviz version 2.28.0 (20110509.1545)
 -->
<!-- Title: RTX::TimeGapTimeSeries Pages: 1 -->
<svg width="140pt" height="216pt"
 viewBox="0.00 0.00 140.00 216.00" xmlns="http://www.w3.org/2000/svg" xmlns:xlink="http://www.w3.org/1999/xlink">
<g id="graph1" class="graph" transform="scale(1 1) rotate(0) translate(4 212)">
<title>RTX::TimeGapTimeSeries</title>
<polygon fill="white" stroke="white" points="-4,5 -4,-212 137,-212 137,5 -4,5"/>
<!-- Node1 -->
<g id="node1" class="node"><title>Node1</title>
<polygon fill="#bfbfbf" stroke="black" points="-0.168945,-1 -0.168945,-21 132.169,-21 132.169,-1 -0.168945,-1"/>
<text text-anchor="middle" x="66" y="-7" font-family="Helvetica,sans-Serif" font-size="10.00">RTX::TimeGapTimeSeries</text>
</g>
<!-- Node2 -->
<g id="node2" class="node"><title>Node2</title>
<a xlink:href="class_r_t_x_1_1_modular_time_series.html" target="_top" xlink:title="A Time Series class that allows a single upstream TimeSeries. ">
<polygon fill="white" stroke="black" points="2.14551,-59 2.14551,-79 129.854,-79 129.854,-59 2.14551,-59"/>
<text text-anchor="middle" x="66" y="-65" font-family="Helvetica,sans-Serif" font-size="10.00">RTX::ModularTimeSeries</text>
</a>
</g>
<!-- Node2&#45;&gt;Node1 -->
<g id="edge2" class="edge"><title>Node2&#45;&gt;Node1</title>
<path fill="none" stroke="midnightblue" d="M66,-48.7065C66,-39.3384 66,-28.5262 66,-21.0752"/>
<polygon fill="midnightblue" stroke="midnightblue" points="62.5001,-48.7527 66,-58.7527 69.5001,-48.7528 62.5001,-48.7527"/>
</g>
<!-- Node3 -->
<g id="node4" class="node"><title>Node3</title>
<a xlink:href="class_r_t_x_1_1_time_series.html" target="_top" xlink:title="An abstraction of Points ordered in time. ">
<polygon fill="white" stroke="black" points="20.2095,-117 20.2095,-137 111.791,-137 111.791,-117 20.2095,-117"/>
<text text-anchor="middle" x="66" y="-123" font-family="Helvetica,sans-Serif" font-size="10.00">RTX::TimeSeries</text>
</a>
</g>
<!-- Node3&#45;&gt;Node2 -->
<g id="edge4" class="edge"><title>Node3&#45;&gt;Node2</title>
<path fill="none" stroke="midnightblue" d="M66,-106.707C66,-97.3384 66,-86.5262 66,-79.0752"/>
<polygon fill="midnightblue" stroke="midnightblue" points="62.5001,-106.753 66,-116.753 69.5001,-106.753 62.5001,-106.753"/>
</g>
<!-- Node4 -->
<g id="node6" class="node"><title>Node4</title>
<polygon fill="white" stroke="#bfbfbf" points="1.02734,-175 1.02734,-207 130.973,-207 130.973,-175 1.02734,-175"/>
<text text-anchor="start" x="9.02734" y="-193" font-family="Helvetica,sans-Serif" font-size="10.00">boost::enable_shared</text>
<text text-anchor="middle" x="66" y="-181" font-family="Helvetica,sans-Serif" font-size="10.00">_from_this&lt; TimeSeries &gt;</text>
</g>
<!-- Node4&#45;&gt;Node3 -->
<g id="edge6" class="edge"><title>Node4&#45;&gt;Node3</title>
<path fill="none" stroke="midnightblue" d="M66,-164.922C66,-155.172 66,-144.61 66,-137.29"/>
<polygon fill="midnightblue" stroke="midnightblue" points="62.5001,-164.991 66,-174.992 69.5001,-164.992 62.5001,-164.991"/>
</g>
</g>
</svg>
