<?xml version="1.0" encoding="UTF-8" standalone="no"?>
<!DOCTYPE svg PUBLIC "-//W3C//DTD SVG 1.1//EN"
 "http://www.w3.org/Graphics/SVG/1.1/DTD/svg11.dtd">
<!-- Generated by graphviz version 2.28.0 (20110509.1545)
 -->
<!-- Title: RTX::FailoverTimeSeries Pages: 1 -->
<svg width="136pt" height="216pt"
 viewBox="0.00 0.00 136.00 216.00" xmlns="http://www.w3.org/2000/svg" xmlns:xlink="http://www.w3.org/1999/xlink">
<g id="graph1" class="graph" transform="scale(1 1) rotate(0) translate(4 212)">
<title>RTX::FailoverTimeSeries</title>
<polygon fill="white" stroke="white" points="-4,5 -4,-212 133,-212 133,5 -4,5"/>
<!-- Node1 -->
<g id="node1" class="node"><title>Node1</title>
<polygon fill="#bfbfbf" stroke="black" points="0.42627,-1 0.42627,-21 127.574,-21 127.574,-1 0.42627,-1"/>
<text text-anchor="middle" x="64" y="-7" font-family="Helvetica,sans-Serif" font-size="10.00">RTX::FailoverTimeSeries</text>
</g>
<!-- Node2 -->
<g id="node2" class="node"><title>Node2</title>
<a xlink:href="class_r_t_x_1_1_modular_time_series.html" target="_top" xlink:title="A Time Series class that allows a single upstream TimeSeries. ">
<polygon fill="white" stroke="black" points="0.145508,-59 0.145508,-79 127.854,-79 127.854,-59 0.145508,-59"/>
<text text-anchor="middle" x="64" y="-65" font-family="Helvetica,sans-Serif" font-size="10.00">RTX::ModularTimeSeries</text>
</a>
</g>
<!-- Node2&#45;&gt;Node1 -->
<g id="edge2" class="edge"><title>Node2&#45;&gt;Node1</title>
<path fill="none" stroke="midnightblue" d="M64,-48.7065C64,-39.3384 64,-28.5262 64,-21.0752"/>
<polygon fill="midnightblue" stroke="midnightblue" points="60.5001,-48.7527 64,-58.7527 67.5001,-48.7528 60.5001,-48.7527"/>
</g>
<!-- Node3 -->
<g id="node4" class="node"><title>Node3</title>
<a xlink:href="class_r_t_x_1_1_time_series.html" target="_top" xlink:title="An abstraction of Points ordered in time. ">
<polygon fill="white" stroke="black" points="18.2095,-117 18.2095,-137 109.791,-137 109.791,-117 18.2095,-117"/>
<text text-anchor="middle" x="64" y="-123" font-family="Helvetica,sans-Serif" font-size="10.00">RTX::TimeSeries</text>
</a>
</g>
<!-- Node3&#45;&gt;Node2 -->
<g id="edge4" class="edge"><title>Node3&#45;&gt;Node2</title>
<path fill="none" stroke="midnightblue" d="M64,-106.707C64,-97.3384 64,-86.5262 64,-79.0752"/>
<polygon fill="midnightblue" stroke="midnightblue" points="60.5001,-106.753 64,-116.753 67.5001,-106.753 60.5001,-106.753"/>
</g>
<!-- Node4 -->
<g id="node6" class="node"><title>Node4</title>
<polygon fill="white" stroke="#bfbfbf" points="-0.972656,-175 -0.972656,-207 128.973,-207 128.973,-175 -0.972656,-175"/>
<text text-anchor="start" x="7.02734" y="-193" font-family="Helvetica,sans-Serif" font-size="10.00">boost::enable_shared</text>
<text text-anchor="middle" x="64" y="-181" font-family="Helvetica,sans-Serif" font-size="10.00">_from_this&lt; TimeSeries &gt;</text>
</g>
<!-- Node4&#45;&gt;Node3 -->
<g id="edge6" class="edge"><title>Node4&#45;&gt;Node3</title>
<path fill="none" stroke="midnightblue" d="M64,-164.922C64,-155.172 64,-144.61 64,-137.29"/>
<polygon fill="midnightblue" stroke="midnightblue" points="60.5001,-164.991 64,-174.992 67.5001,-164.992 60.5001,-164.991"/>
</g>
</g>
</svg>
