<?xml version="1.0" encoding="UTF-8" standalone="no"?>
<!DOCTYPE svg PUBLIC "-//W3C//DTD SVG 1.1//EN"
 "http://www.w3.org/Graphics/SVG/1.1/DTD/svg11.dtd">
<!-- Generated by graphviz version 2.28.0 (20110509.1545)
 -->
<!-- Title: RTX::EpanetModel Pages: 1 -->
<svg width="285pt" height="146pt"
 viewBox="0.00 0.00 285.00 146.00" xmlns="http://www.w3.org/2000/svg" xmlns:xlink="http://www.w3.org/1999/xlink">
<g id="graph1" class="graph" transform="scale(1 1) rotate(0) translate(4 142)">
<title>RTX::EpanetModel</title>
<polygon fill="white" stroke="white" points="-4,5 -4,-142 282,-142 282,5 -4,5"/>
<!-- Node1 -->
<g id="node1" class="node"><title>Node1</title>
<polygon fill="#bfbfbf" stroke="black" points="82.8442,-59 82.8442,-79 183.156,-79 183.156,-59 82.8442,-59"/>
<text text-anchor="middle" x="133" y="-65" font-family="Helvetica,sans-Serif" font-size="10.00">RTX::EpanetModel</text>
</g>
<!-- Node3 -->
<g id="node5" class="node"><title>Node3</title>
<a xlink:href="class_r_t_x_1_1_epanet_msx_model.html" target="_top" xlink:title="RTX::EpanetMsxModel">
<polygon fill="white" stroke="black" points="-0.320801,-1 -0.320801,-21 118.321,-21 118.321,-1 -0.320801,-1"/>
<text text-anchor="middle" x="59" y="-7" font-family="Helvetica,sans-Serif" font-size="10.00">RTX::EpanetMsxModel</text>
</a>
</g>
<!-- Node1&#45;&gt;Node3 -->
<g id="edge4" class="edge"><title>Node1&#45;&gt;Node3</title>
<path fill="none" stroke="midnightblue" d="M112.621,-52.5778C99.2522,-42.4611 82.2295,-29.5791 70.9922,-21.0752"/>
<polygon fill="midnightblue" stroke="midnightblue" points="110.694,-55.5092 120.78,-58.7527 114.918,-49.9273 110.694,-55.5092"/>
</g>
<!-- Node4 -->
<g id="node7" class="node"><title>Node4</title>
<a xlink:href="class_r_t_x_1_1_epanet_synthetic_model.html" target="_top" xlink:title="Forward&#45;simluation model object, based on epanet engine. ">
<polygon fill="white" stroke="black" points="136.278,-1 136.278,-21 277.722,-21 277.722,-1 136.278,-1"/>
<text text-anchor="middle" x="207" y="-7" font-family="Helvetica,sans-Serif" font-size="10.00">RTX::EpanetSyntheticModel</text>
</a>
</g>
<!-- Node1&#45;&gt;Node4 -->
<g id="edge6" class="edge"><title>Node1&#45;&gt;Node4</title>
<path fill="none" stroke="midnightblue" d="M153.379,-52.5778C166.748,-42.4611 183.77,-29.5791 195.008,-21.0752"/>
<polygon fill="midnightblue" stroke="midnightblue" points="151.082,-49.9273 145.22,-58.7527 155.306,-55.5092 151.082,-49.9273"/>
</g>
<!-- Node2 -->
<g id="node2" class="node"><title>Node2</title>
<a xlink:href="class_r_t_x_1_1_model.html" target="_top" xlink:title="A hydraulic / water quality model abstraction. ">
<polygon fill="white" stroke="black" points="98.6914,-117 98.6914,-137 167.309,-137 167.309,-117 98.6914,-117"/>
<text text-anchor="middle" x="133" y="-123" font-family="Helvetica,sans-Serif" font-size="10.00">RTX::Model</text>
</a>
</g>
<!-- Node2&#45;&gt;Node1 -->
<g id="edge2" class="edge"><title>Node2&#45;&gt;Node1</title>
<path fill="none" stroke="midnightblue" d="M133,-106.707C133,-97.3384 133,-86.5262 133,-79.0752"/>
<polygon fill="midnightblue" stroke="midnightblue" points="129.5,-106.753 133,-116.753 136.5,-106.753 129.5,-106.753"/>
</g>
</g>
</svg>
