<?xml version="1.0" encoding="UTF-8" standalone="no"?>
<!DOCTYPE svg PUBLIC "-//W3C//DTD SVG 1.1//EN"
 "http://www.w3.org/Graphics/SVG/1.1/DTD/svg11.dtd">
<!-- Generated by graphviz version 2.36.0 (20140111.2315)
 -->
<!-- Title: RTX::OutlierExclusionTimeSeries Pages: 1 -->
<svg width="144pt" height="272pt"
 viewBox="0.00 0.00 144.00 272.00" xmlns="http://www.w3.org/2000/svg" xmlns:xlink="http://www.w3.org/1999/xlink">
<g id="graph0" class="graph" transform="scale(1 1) rotate(0) translate(4 268)">
<title>RTX::OutlierExclusionTimeSeries</title>
<polygon fill="white" stroke="none" points="-4,4 -4,-268 140,-268 140,4 -4,4"/>
<!-- Node1 -->
<g id="node1" class="node"><title>Node1</title>
<polygon fill="#bfbfbf" stroke="black" points="0.256348,-1 0.256348,-29 135.744,-29 135.744,-1 0.256348,-1"/>
<text text-anchor="start" x="8.25635" y="-17" font-family="Helvetica,sans-Serif" font-size="10.00">RTX::OutlierExclusionTime</text>
<text text-anchor="middle" x="68" y="-7" font-family="Helvetica,sans-Serif" font-size="10.00">Series</text>
</g>
<!-- Node2 -->
<g id="node2" class="node"><title>Node2</title>
<g id="a_node2"><a xlink:href="class_r_t_x_1_1_base_stats_time_series.html" target="_top" xlink:title="RTX::BaseStatsTimeSeries">
<polygon fill="white" stroke="black" points="-0.581055,-67 -0.581055,-85 136.581,-85 136.581,-67 -0.581055,-67"/>
<text text-anchor="middle" x="68" y="-73" font-family="Helvetica,sans-Serif" font-size="10.00">RTX::BaseStatsTimeSeries</text>
</a>
</g>
</g>
<!-- Node2&#45;&gt;Node1 -->
<g id="edge1" class="edge"><title>Node2&#45;&gt;Node1</title>
<path fill="none" stroke="midnightblue" d="M68,-56.6543C68,-47.7359 68,-37.2225 68,-29.1215"/>
<polygon fill="midnightblue" stroke="midnightblue" points="64.5001,-56.7963 68,-66.7963 71.5001,-56.7963 64.5001,-56.7963"/>
</g>
<!-- Node3 -->
<g id="node3" class="node"><title>Node3</title>
<g id="a_node3"><a xlink:href="class_r_t_x_1_1_modular_time_series.html" target="_top" xlink:title="A Time Series class that allows a single upstream TimeSeries. ">
<polygon fill="white" stroke="black" points="4.14551,-123 4.14551,-141 131.854,-141 131.854,-123 4.14551,-123"/>
<text text-anchor="middle" x="68" y="-129" font-family="Helvetica,sans-Serif" font-size="10.00">RTX::ModularTimeSeries</text>
</a>
</g>
</g>
<!-- Node3&#45;&gt;Node2 -->
<g id="edge2" class="edge"><title>Node3&#45;&gt;Node2</title>
<path fill="none" stroke="midnightblue" d="M68,-112.329C68,-103.077 68,-92.3798 68,-85.2014"/>
<polygon fill="midnightblue" stroke="midnightblue" points="64.5001,-112.562 68,-122.562 71.5001,-112.563 64.5001,-112.562"/>
</g>
<!-- Node4 -->
<g id="node4" class="node"><title>Node4</title>
<g id="a_node4"><a xlink:href="class_r_t_x_1_1_time_series.html" target="_top" xlink:title="An abstraction of Points ordered in time. ">
<polygon fill="white" stroke="black" points="22.2095,-179 22.2095,-197 113.791,-197 113.791,-179 22.2095,-179"/>
<text text-anchor="middle" x="68" y="-185" font-family="Helvetica,sans-Serif" font-size="10.00">RTX::TimeSeries</text>
</a>
</g>
</g>
<!-- Node4&#45;&gt;Node3 -->
<g id="edge3" class="edge"><title>Node4&#45;&gt;Node3</title>
<path fill="none" stroke="midnightblue" d="M68,-168.329C68,-159.077 68,-148.38 68,-141.201"/>
<polygon fill="midnightblue" stroke="midnightblue" points="64.5001,-168.562 68,-178.562 71.5001,-168.563 64.5001,-168.562"/>
</g>
<!-- Node5 -->
<g id="node5" class="node"><title>Node5</title>
<polygon fill="white" stroke="#bfbfbf" points="3.02734,-235 3.02734,-263 132.973,-263 132.973,-235 3.02734,-235"/>
<text text-anchor="start" x="11.0273" y="-251" font-family="Helvetica,sans-Serif" font-size="10.00">boost::enable_shared</text>
<text text-anchor="middle" x="68" y="-241" font-family="Helvetica,sans-Serif" font-size="10.00">_from_this&lt; TimeSeries &gt;</text>
</g>
<!-- Node5&#45;&gt;Node4 -->
<g id="edge4" class="edge"><title>Node5&#45;&gt;Node4</title>
<path fill="none" stroke="midnightblue" d="M68,-224.886C68,-215.094 68,-204.316 68,-197.153"/>
<polygon fill="midnightblue" stroke="midnightblue" points="64.5001,-224.906 68,-234.906 71.5001,-224.906 64.5001,-224.906"/>
</g>
</g>
</svg>
