<?xml version="1.0" encoding="UTF-8" standalone="no"?>
<!DOCTYPE svg PUBLIC "-//W3C//DTD SVG 1.1//EN"
 "http://www.w3.org/Graphics/SVG/1.1/DTD/svg11.dtd">
<!-- Generated by graphviz version 2.28.0 (20110509.1545)
 -->
<!-- Title: RTX::BufferPointRecord Pages: 1 -->
<svg width="784pt" height="223pt"
 viewBox="0.00 0.00 784.00 223.00" xmlns="http://www.w3.org/2000/svg" xmlns:xlink="http://www.w3.org/1999/xlink">
<g id="graph1" class="graph" transform="scale(1 1) rotate(0) translate(4 219)">
<title>RTX::BufferPointRecord</title>
<polygon fill="white" stroke="white" points="-4,5 -4,-219 781,-219 781,5 -4,5"/>
<!-- Node1 -->
<g id="node1" class="node"><title>Node1</title>
<polygon fill="#bfbfbf" stroke="black" points="132.543,-97 132.543,-117 255.457,-117 255.457,-97 132.543,-97"/>
<text text-anchor="middle" x="194" y="-103" font-family="Helvetica,sans-Serif" font-size="10.00">RTX::BufferPointRecord</text>
</g>
<!-- Node3 -->
<g id="node5" class="node"><title>Node3</title>
<a xlink:href="class_r_t_x_1_1_db_point_record.html" target="_top" xlink:title="A persistence layer for databases. ">
<polygon fill="white" stroke="black" points="292.403,-97 292.403,-117 401.597,-117 401.597,-97 292.403,-97"/>
<text text-anchor="middle" x="347" y="-103" font-family="Helvetica,sans-Serif" font-size="10.00">RTX::DbPointRecord</text>
</a>
</g>
<!-- Node1&#45;&gt;Node3 -->
<g id="edge4" class="edge"><title>Node1&#45;&gt;Node3</title>
<path fill="none" stroke="midnightblue" d="M265.602,-107C274.567,-107 283.624,-107 292.265,-107"/>
<polygon fill="midnightblue" stroke="midnightblue" points="265.547,-103.5 255.547,-107 265.547,-110.5 265.547,-103.5"/>
</g>
<!-- Node2 -->
<g id="node2" class="node"><title>Node2</title>
<a xlink:href="class_r_t_x_1_1_point_record.html" target="_top" xlink:title="A Point Record Class for storing and retrieving Points. ">
<polygon fill="white" stroke="black" points="-0.205078,-97 -0.205078,-117 96.2051,-117 96.2051,-97 -0.205078,-97"/>
<text text-anchor="middle" x="48" y="-103" font-family="Helvetica,sans-Serif" font-size="10.00">RTX::PointRecord</text>
</a>
</g>
<!-- Node2&#45;&gt;Node1 -->
<g id="edge2" class="edge"><title>Node2&#45;&gt;Node1</title>
<path fill="none" stroke="midnightblue" d="M106.698,-107C115.157,-107 123.889,-107 132.404,-107"/>
<polygon fill="midnightblue" stroke="midnightblue" points="106.55,-103.5 96.5501,-107 106.55,-110.5 106.55,-103.5"/>
</g>
<!-- Node4 -->
<g id="node7" class="node"><title>Node4</title>
<a xlink:href="class_r_t_x_1_1_influx_db_point_record.html" target="_top" xlink:title="RTX::InfluxDbPointRecord">
<polygon fill="white" stroke="black" points="441.453,-195 441.453,-215 574.547,-215 574.547,-195 441.453,-195"/>
<text text-anchor="middle" x="508" y="-201" font-family="Helvetica,sans-Serif" font-size="10.00">RTX::InfluxDbPointRecord</text>
</a>
</g>
<!-- Node3&#45;&gt;Node4 -->
<g id="edge6" class="edge"><title>Node3&#45;&gt;Node4</title>
<path fill="none" stroke="midnightblue" d="M363.809,-124.584C380.595,-142.247 408.702,-169.066 438,-185 445.341,-188.992 453.566,-192.265 461.709,-194.921"/>
<polygon fill="midnightblue" stroke="midnightblue" points="366.302,-122.125 356.929,-117.185 361.175,-126.892 366.302,-122.125"/>
</g>
<!-- Node5 -->
<g id="node9" class="node"><title>Node5</title>
<a xlink:href="class_r_t_x_1_1_mysql_point_record.html" target="_top" xlink:title="A persistence layer for MySQL databases. ">
<polygon fill="white" stroke="black" points="446.738,-156 446.738,-176 569.262,-176 569.262,-156 446.738,-156"/>
<text text-anchor="middle" x="508" y="-162" font-family="Helvetica,sans-Serif" font-size="10.00">RTX::MysqlPointRecord</text>
</a>
</g>
<!-- Node3&#45;&gt;Node5 -->
<g id="edge8" class="edge"><title>Node3&#45;&gt;Node5</title>
<path fill="none" stroke="midnightblue" d="M378.687,-121.449C395.908,-129.264 417.909,-138.768 438,-146 447.975,-149.591 458.933,-153.002 469.121,-155.957"/>
<polygon fill="midnightblue" stroke="midnightblue" points="379.7,-118.063 369.151,-117.073 376.78,-124.425 379.7,-118.063"/>
</g>
<!-- Node6 -->
<g id="node11" class="node"><title>Node6</title>
<a xlink:href="class_r_t_x_1_1_odbc_point_record.html" target="_top" xlink:title="A persistence class for SCADA databases. ">
<polygon fill="white" stroke="black" points="447.844,-117 447.844,-137 568.156,-137 568.156,-117 447.844,-117"/>
<text text-anchor="middle" x="508" y="-123" font-family="Helvetica,sans-Serif" font-size="10.00">RTX::OdbcPointRecord</text>
</a>
</g>
<!-- Node3&#45;&gt;Node6 -->
<g id="edge10" class="edge"><title>Node3&#45;&gt;Node6</title>
<path fill="none" stroke="midnightblue" d="M412.049,-115.056C423.847,-116.541 436.118,-118.084 447.766,-119.549"/>
<polygon fill="midnightblue" stroke="midnightblue" points="412.189,-111.547 401.83,-113.771 411.315,-118.492 412.189,-111.547"/>
</g>
<!-- Node9 -->
<g id="node17" class="node"><title>Node9</title>
<a xlink:href="class_r_t_x_1_1_sqlite_point_record.html" target="_top" xlink:title="RTX::SqlitePointRecord">
<polygon fill="white" stroke="black" points="447.288,-78 447.288,-98 568.712,-98 568.712,-78 447.288,-78"/>
<text text-anchor="middle" x="508" y="-84" font-family="Helvetica,sans-Serif" font-size="10.00">RTX::SqlitePointRecord</text>
</a>
</g>
<!-- Node3&#45;&gt;Node9 -->
<g id="edge16" class="edge"><title>Node3&#45;&gt;Node9</title>
<path fill="none" stroke="midnightblue" d="M411.923,-99.3614C423.574,-97.9692 435.689,-96.5214 447.215,-95.1442"/>
<polygon fill="midnightblue" stroke="midnightblue" points="411.344,-95.9056 401.83,-100.567 412.175,-102.856 411.344,-95.9056"/>
</g>
<!-- Node10 -->
<g id="node19" class="node"><title>Node10</title>
<a xlink:href="class_r_t_x_1_1_tempo_db_point_record.html" target="_top" xlink:title="RTX::TempoDbPointRecord">
<polygon fill="white" stroke="black" points="438.396,-39 438.396,-59 577.604,-59 577.604,-39 438.396,-39"/>
<text text-anchor="middle" x="508" y="-45" font-family="Helvetica,sans-Serif" font-size="10.00">RTX::TempoDbPointRecord</text>
</a>
</g>
<!-- Node3&#45;&gt;Node10 -->
<g id="edge18" class="edge"><title>Node3&#45;&gt;Node10</title>
<path fill="none" stroke="midnightblue" d="M378.65,-92.4456C395.859,-84.598 417.861,-75.0968 438,-68 447.258,-64.7376 457.373,-61.6794 466.934,-59.0099"/>
<polygon fill="midnightblue" stroke="midnightblue" points="376.734,-89.4751 369.121,-96.8444 379.668,-95.8306 376.734,-89.4751"/>
</g>
<!-- Node11 -->
<g id="node21" class="node"><title>Node11</title>
<a xlink:href="class_r_t_x_1_1_tsdb_point_record.html" target="_top" xlink:title="RTX::TsdbPointRecord">
<polygon fill="white" stroke="black" points="449.233,-0 449.233,-20 566.767,-20 566.767,-0 449.233,-0"/>
<text text-anchor="middle" x="508" y="-6" font-family="Helvetica,sans-Serif" font-size="10.00">RTX::TsdbPointRecord</text>
</a>
</g>
<!-- Node3&#45;&gt;Node11 -->
<g id="edge20" class="edge"><title>Node3&#45;&gt;Node11</title>
<path fill="none" stroke="midnightblue" d="M363.765,-89.3352C380.516,-71.6078 408.596,-44.7367 438,-29 444.682,-25.4237 452.098,-22.4729 459.518,-20.0526"/>
<polygon fill="midnightblue" stroke="midnightblue" points="361.117,-87.0438 356.902,-96.764 366.259,-91.794 361.117,-87.0438"/>
</g>
<!-- Node7 -->
<g id="node13" class="node"><title>Node7</title>
<a xlink:href="class_r_t_x_1_1_odbc_direct_point_record.html" target="_top" xlink:title="RTX::OdbcDirectPointRecord">
<polygon fill="white" stroke="black" points="621.788,-136 621.788,-156 768.212,-156 768.212,-136 621.788,-136"/>
<text text-anchor="middle" x="695" y="-142" font-family="Helvetica,sans-Serif" font-size="10.00">RTX::OdbcDirectPointRecord</text>
</a>
</g>
<!-- Node6&#45;&gt;Node7 -->
<g id="edge12" class="edge"><title>Node6&#45;&gt;Node7</title>
<path fill="none" stroke="midnightblue" d="M578.446,-134.132C592.596,-135.586 607.516,-137.118 621.761,-138.581"/>
<polygon fill="midnightblue" stroke="midnightblue" points="578.604,-130.63 568.299,-133.09 577.889,-137.594 578.604,-130.63"/>
</g>
<!-- Node8 -->
<g id="node15" class="node"><title>Node8</title>
<a xlink:href="class_r_t_x_1_1_odbc_prepared_point_record.html" target="_top" xlink:title="RTX::OdbcPreparedPointRecord">
<polygon fill="white" stroke="black" points="614.275,-97 614.275,-117 775.725,-117 775.725,-97 614.275,-97"/>
<text text-anchor="middle" x="695" y="-103" font-family="Helvetica,sans-Serif" font-size="10.00">RTX::OdbcPreparedPointRecord</text>
</a>
</g>
<!-- Node6&#45;&gt;Node8 -->
<g id="edge14" class="edge"><title>Node6&#45;&gt;Node8</title>
<path fill="none" stroke="midnightblue" d="M578.387,-119.499C590.043,-118.239 602.222,-116.922 614.118,-115.636"/>
<polygon fill="midnightblue" stroke="midnightblue" points="577.864,-116.035 568.299,-120.589 578.617,-122.994 577.864,-116.035"/>
</g>
</g>
</svg>
