<?xml version="1.0" encoding="UTF-8" standalone="no"?>
<!DOCTYPE svg PUBLIC "-//W3C//DTD SVG 1.1//EN"
 "http://www.w3.org/Graphics/SVG/1.1/DTD/svg11.dtd">
<!-- Generated by graphviz version 2.36.0 (20140111.2315)
 -->
<!-- Title: RTX::Resampler Pages: 1 -->
<svg width="136pt" height="206pt"
 viewBox="0.00 0.00 136.00 206.00" xmlns="http://www.w3.org/2000/svg" xmlns:xlink="http://www.w3.org/1999/xlink">
<g id="graph0" class="graph" transform="scale(1 1) rotate(0) translate(4 202)">
<title>RTX::Resampler</title>
<polygon fill="white" stroke="none" points="-4,4 -4,-202 132,-202 132,4 -4,4"/>
<!-- Node1 -->
<g id="node1" class="node"><title>Node1</title>
<polygon fill="#bfbfbf" stroke="black" points="19.1348,-1 19.1348,-19 108.865,-19 108.865,-1 19.1348,-1"/>
<text text-anchor="middle" x="64" y="-7" font-family="Helvetica,sans-Serif" font-size="10.00">RTX::Resampler</text>
</g>
<!-- Node2 -->
<g id="node2" class="node"><title>Node2</title>
<g id="a_node2"><a xlink:href="class_r_t_x_1_1_modular_time_series.html" target="_top" xlink:title="A Time Series class that allows a single upstream TimeSeries. ">
<polygon fill="white" stroke="black" points="0.145508,-57 0.145508,-75 127.854,-75 127.854,-57 0.145508,-57"/>
<text text-anchor="middle" x="64" y="-63" font-family="Helvetica,sans-Serif" font-size="10.00">RTX::ModularTimeSeries</text>
</a>
</g>
</g>
<!-- Node2&#45;&gt;Node1 -->
<g id="edge1" class="edge"><title>Node2&#45;&gt;Node1</title>
<path fill="none" stroke="midnightblue" d="M64,-46.3288C64,-37.0774 64,-26.3798 64,-19.2014"/>
<polygon fill="midnightblue" stroke="midnightblue" points="60.5001,-46.5625 64,-56.5625 67.5001,-46.5625 60.5001,-46.5625"/>
</g>
<!-- Node3 -->
<g id="node3" class="node"><title>Node3</title>
<g id="a_node3"><a xlink:href="class_r_t_x_1_1_time_series.html" target="_top" xlink:title="An abstraction of Points ordered in time. ">
<polygon fill="white" stroke="black" points="18.2095,-113 18.2095,-131 109.791,-131 109.791,-113 18.2095,-113"/>
<text text-anchor="middle" x="64" y="-119" font-family="Helvetica,sans-Serif" font-size="10.00">RTX::TimeSeries</text>
</a>
</g>
</g>
<!-- Node3&#45;&gt;Node2 -->
<g id="edge2" class="edge"><title>Node3&#45;&gt;Node2</title>
<path fill="none" stroke="midnightblue" d="M64,-102.329C64,-93.0774 64,-82.3798 64,-75.2014"/>
<polygon fill="midnightblue" stroke="midnightblue" points="60.5001,-102.562 64,-112.562 67.5001,-102.563 60.5001,-102.562"/>
</g>
<!-- Node4 -->
<g id="node4" class="node"><title>Node4</title>
<polygon fill="white" stroke="#bfbfbf" points="-0.972656,-169 -0.972656,-197 128.973,-197 128.973,-169 -0.972656,-169"/>
<text text-anchor="start" x="7.02734" y="-185" font-family="Helvetica,sans-Serif" font-size="10.00">boost::enable_shared</text>
<text text-anchor="middle" x="64" y="-175" font-family="Helvetica,sans-Serif" font-size="10.00">_from_this&lt; TimeSeries &gt;</text>
</g>
<!-- Node4&#45;&gt;Node3 -->
<g id="edge3" class="edge"><title>Node4&#45;&gt;Node3</title>
<path fill="none" stroke="midnightblue" d="M64,-158.886C64,-149.094 64,-138.316 64,-131.153"/>
<polygon fill="midnightblue" stroke="midnightblue" points="60.5001,-158.906 64,-168.906 67.5001,-158.906 60.5001,-158.906"/>
</g>
</g>
</svg>
