<?xml version="1.0" encoding="UTF-8" standalone="no"?>
<!DOCTYPE svg PUBLIC "-//W3C//DTD SVG 1.1//EN"
 "http://www.w3.org/Graphics/SVG/1.1/DTD/svg11.dtd">
<!-- Generated by graphviz version 2.28.0 (20110509.1545)
 -->
<!-- Title: RTX::MapPointRecord Pages: 1 -->
<svg width="309pt" height="314pt"
 viewBox="0.00 0.00 309.38 314.00" xmlns="http://www.w3.org/2000/svg" xmlns:xlink="http://www.w3.org/1999/xlink">
<g id="graph1" class="graph" transform="scale(1 1) rotate(0) translate(4 310)">
<title>RTX::MapPointRecord</title>
<polygon fill="white" stroke="white" points="-4,5 -4,-310 306.379,-310 306.379,5 -4,5"/>
<!-- Node1 -->
<g id="node1" class="node"><title>Node1</title>
<polygon fill="#bfbfbf" stroke="black" points="84.0684,-1 84.0684,-21 199.932,-21 199.932,-1 84.0684,-1"/>
<text text-anchor="middle" x="142" y="-7" font-family="Helvetica,sans-Serif" font-size="10.00">RTX::MapPointRecord</text>
</g>
<!-- Node2 -->
<g id="node2" class="node"><title>Node2</title>
<a xlink:href="class_r_t_x_1_1_point_record.html" target="_top" xlink:title="A Point Record Class for storing and retrieving Points. ">
<polygon fill="white" stroke="black" points="93.7949,-61 93.7949,-81 190.205,-81 190.205,-61 93.7949,-61"/>
<text text-anchor="middle" x="142" y="-67" font-family="Helvetica,sans-Serif" font-size="10.00">RTX::PointRecord</text>
</a>
</g>
<!-- Node2&#45;&gt;Node1 -->
<g id="edge2" class="edge"><title>Node2&#45;&gt;Node1</title>
<path fill="none" stroke="midnightblue" d="M142,-50.7309C142,-40.7807 142,-29.1016 142,-21.1903"/>
<polygon fill="midnightblue" stroke="midnightblue" points="138.5,-50.9375 142,-60.9375 145.5,-50.9375 138.5,-50.9375"/>
</g>
<!-- Node3 -->
<g id="node4" class="node"><title>Node3</title>
<polygon fill="white" stroke="#bfbfbf" points="87.4521,-131 87.4521,-163 196.548,-163 196.548,-131 87.4521,-131"/>
<text text-anchor="start" x="95.4521" y="-149" font-family="Helvetica,sans-Serif" font-size="10.00">std::map&lt; std::string,</text>
<text text-anchor="middle" x="142" y="-137" font-family="Helvetica,sans-Serif" font-size="10.00"> RTX::Point &gt;</text>
</g>
<!-- Node3&#45;&gt;Node2 -->
<g id="edge4" class="edge"><title>Node3&#45;&gt;Node2</title>
<path fill="none" stroke="#9a32cd" stroke-dasharray="5,2" d="M142,-120.43C142,-106.859 142,-91.0122 142,-81.2412"/>
<polygon fill="#9a32cd" stroke="#9a32cd" points="138.5,-120.667 142,-130.667 145.5,-120.667 138.5,-120.667"/>
<text text-anchor="middle" x="171.465" y="-102" font-family="Helvetica,sans-Serif" font-size="10.00"> _pointCache</text>
</g>
<!-- Node4 -->
<g id="node6" class="node"><title>Node4</title>
<a xlink:title="STL class. ">
<polygon fill="white" stroke="#bfbfbf" points="17.3252,-213 17.3252,-233 76.6748,-233 76.6748,-213 17.3252,-213"/>
<text text-anchor="middle" x="47" y="-219" font-family="Helvetica,sans-Serif" font-size="10.00">std::string</text>
</a>
</g>
<!-- Node4&#45;&gt;Node2 -->
<g id="edge12" class="edge"><title>Node4&#45;&gt;Node2</title>
<path fill="none" stroke="#9a32cd" stroke-dasharray="5,2" d="M30.1426,-205.542C12.7031,-186.458 -9.88499,-154.489 6.28125,-130 25.5504,-100.81 62.8564,-86.2589 93.4864,-79.0343"/>
<polygon fill="#9a32cd" stroke="#9a32cd" points="27.7256,-208.078 37.1735,-212.873 32.7776,-203.233 27.7256,-208.078"/>
<text text-anchor="middle" x="42.8594" y="-143" font-family="Helvetica,sans-Serif" font-size="10.00"> _cachedPointId</text>
</g>
<!-- Node4&#45;&gt;Node3 -->
<g id="edge6" class="edge"><title>Node4&#45;&gt;Node3</title>
<path fill="none" stroke="#9a32cd" stroke-dasharray="5,2" d="M66.9861,-206.432C83.3845,-193.658 106.46,-175.684 122.675,-163.053"/>
<polygon fill="#9a32cd" stroke="#9a32cd" points="64.3871,-204.02 58.6489,-212.926 68.6887,-209.542 64.3871,-204.02"/>
<text text-anchor="middle" x="109.67" y="-184" font-family="Helvetica,sans-Serif" font-size="10.00"> keys</text>
</g>
<!-- Node5 -->
<g id="node8" class="node"><title>Node5</title>
<a xlink:title="STL class. ">
<polygon fill="white" stroke="#bfbfbf" points="-0.0478516,-273 -0.0478516,-305 94.0479,-305 94.0479,-273 -0.0478516,-273"/>
<text text-anchor="start" x="7.95215" y="-291" font-family="Helvetica,sans-Serif" font-size="10.00">std::basic_string&lt;</text>
<text text-anchor="middle" x="47" y="-279" font-family="Helvetica,sans-Serif" font-size="10.00"> char &gt;</text>
</a>
</g>
<!-- Node5&#45;&gt;Node4 -->
<g id="edge8" class="edge"><title>Node5&#45;&gt;Node4</title>
<path fill="none" stroke="midnightblue" d="M47,-262.611C47,-252.286 47,-241.001 47,-233.313"/>
<polygon fill="midnightblue" stroke="midnightblue" points="43.5001,-262.833 47,-272.833 50.5001,-262.833 43.5001,-262.833"/>
</g>
<!-- Node6 -->
<g id="node10" class="node"><title>Node6</title>
<a xlink:href="class_r_t_x_1_1_point.html" target="_top" xlink:title="A Point Class to store data tuples (date, value, quality, confidence) ">
<polygon fill="white" stroke="black" points="142.913,-213 142.913,-233 207.087,-233 207.087,-213 142.913,-213"/>
<text text-anchor="middle" x="175" y="-219" font-family="Helvetica,sans-Serif" font-size="10.00">RTX::Point</text>
</a>
</g>
<!-- Node6&#45;&gt;Node2 -->
<g id="edge14" class="edge"><title>Node6&#45;&gt;Node2</title>
<path fill="none" stroke="#9a32cd" stroke-dasharray="5,2" d="M200.151,-206.633C204.138,-203.011 207.699,-198.787 210,-194 220.695,-171.747 268.89,-192.878 204,-100 197.912,-91.2864 188.442,-85.2388 178.72,-81.0597"/>
<polygon fill="#9a32cd" stroke="#9a32cd" points="197.917,-203.937 192.18,-212.845 202.22,-209.459 197.917,-203.937"/>
<text text-anchor="middle" x="269.689" y="-143" font-family="Helvetica,sans-Serif" font-size="10.00"> _cachedPoint</text>
</g>
<!-- Node6&#45;&gt;Node3 -->
<g id="edge10" class="edge"><title>Node6&#45;&gt;Node3</title>
<path fill="none" stroke="#9a32cd" stroke-dasharray="5,2" d="M166.755,-203.512C161.187,-191.025 153.928,-174.748 148.713,-163.053"/>
<polygon fill="#9a32cd" stroke="#9a32cd" points="163.684,-205.219 170.954,-212.926 170.077,-202.368 163.684,-205.219"/>
<text text-anchor="middle" x="184.677" y="-184" font-family="Helvetica,sans-Serif" font-size="10.00"> elements</text>
</g>
</g>
</svg>
