<?xml version="1.0" encoding="UTF-8" standalone="no"?>
<!DOCTYPE svg PUBLIC "-//W3C//DTD SVG 1.1//EN"
 "http://www.w3.org/Graphics/SVG/1.1/DTD/svg11.dtd">
<!-- Generated by graphviz version 2.28.0 (20110509.1545)
 -->
<!-- Title: RTX::DbPointRecord::RtxDbRetrievalException Pages: 1 -->
<svg width="180pt" height="244pt"
 viewBox="0.00 0.00 180.00 244.00" xmlns="http://www.w3.org/2000/svg" xmlns:xlink="http://www.w3.org/1999/xlink">
<g id="graph1" class="graph" transform="scale(1 1) rotate(0) translate(4 240)">
<title>RTX::DbPointRecord::RtxDbRetrievalException</title>
<polygon fill="white" stroke="white" points="-4,5 -4,-240 177,-240 177,5 -4,5"/>
<!-- Node1 -->
<g id="node1" class="node"><title>Node1</title>
<polygon fill="#bfbfbf" stroke="black" points="1.64307,-1 1.64307,-33 134.357,-33 134.357,-1 1.64307,-1"/>
<text text-anchor="start" x="9.64307" y="-19" font-family="Helvetica,sans-Serif" font-size="10.00">RTX::DbPointRecord</text>
<text text-anchor="middle" x="68" y="-7" font-family="Helvetica,sans-Serif" font-size="10.00">::RtxDbRetrievalException</text>
</g>
<!-- Node2 -->
<g id="node2" class="node"><title>Node2</title>
<a xlink:href="class_r_t_x_1_1_rtx_exception.html" target="_top" xlink:title="RTX::RtxException">
<polygon fill="white" stroke="black" points="17.8516,-73 17.8516,-93 118.148,-93 118.148,-73 17.8516,-73"/>
<text text-anchor="middle" x="68" y="-79" font-family="Helvetica,sans-Serif" font-size="10.00">RTX::RtxException</text>
</a>
</g>
<!-- Node2&#45;&gt;Node1 -->
<g id="edge2" class="edge"><title>Node2&#45;&gt;Node1</title>
<path fill="none" stroke="midnightblue" d="M68,-62.751C68,-53.2473 68,-41.9496 68,-33.0835"/>
<polygon fill="midnightblue" stroke="midnightblue" points="64.5001,-62.8303 68,-72.8304 71.5001,-62.8304 64.5001,-62.8303"/>
</g>
<!-- Node3 -->
<g id="node4" class="node"><title>Node3</title>
<a xlink:title="STL class. ">
<polygon fill="white" stroke="#bfbfbf" points="-0.852051,-143 -0.852051,-163 76.8521,-163 76.8521,-143 -0.852051,-143"/>
<text text-anchor="middle" x="38" y="-149" font-family="Helvetica,sans-Serif" font-size="10.00">std::exception</text>
</a>
</g>
<!-- Node3&#45;&gt;Node2 -->
<g id="edge4" class="edge"><title>Node3&#45;&gt;Node2</title>
<path fill="none" stroke="midnightblue" d="M46.2323,-133.34C52.0178,-120.226 59.5029,-103.26 64.0182,-93.0255"/>
<polygon fill="midnightblue" stroke="midnightblue" points="42.8802,-132.267 42.0459,-142.829 49.2846,-135.093 42.8802,-132.267"/>
</g>
<!-- Node4 -->
<g id="node6" class="node"><title>Node4</title>
<a xlink:title="STL class. ">
<polygon fill="white" stroke="#bfbfbf" points="95.3252,-143 95.3252,-163 154.675,-163 154.675,-143 95.3252,-143"/>
<text text-anchor="middle" x="125" y="-149" font-family="Helvetica,sans-Serif" font-size="10.00">std::string</text>
</a>
</g>
<!-- Node4&#45;&gt;Node2 -->
<g id="edge6" class="edge"><title>Node4&#45;&gt;Node2</title>
<path fill="none" stroke="#9a32cd" stroke-dasharray="5,2" d="M110.649,-134.88C99.5015,-121.581 84.4842,-103.665 75.5655,-93.0255"/>
<polygon fill="#9a32cd" stroke="#9a32cd" points="108.206,-137.414 117.313,-142.829 113.571,-132.917 108.206,-137.414"/>
<text text-anchor="middle" x="102.889" y="-114" font-family="Helvetica,sans-Serif" font-size="10.00"> s</text>
</g>
<!-- Node5 -->
<g id="node8" class="node"><title>Node5</title>
<a xlink:title="STL class. ">
<polygon fill="white" stroke="#bfbfbf" points="77.9521,-203 77.9521,-235 172.048,-235 172.048,-203 77.9521,-203"/>
<text text-anchor="start" x="85.9521" y="-221" font-family="Helvetica,sans-Serif" font-size="10.00">std::basic_string&lt;</text>
<text text-anchor="middle" x="125" y="-209" font-family="Helvetica,sans-Serif" font-size="10.00"> char &gt;</text>
</a>
</g>
<!-- Node5&#45;&gt;Node4 -->
<g id="edge8" class="edge"><title>Node5&#45;&gt;Node4</title>
<path fill="none" stroke="midnightblue" d="M125,-192.611C125,-182.286 125,-171.001 125,-163.313"/>
<polygon fill="midnightblue" stroke="midnightblue" points="121.5,-192.833 125,-202.833 128.5,-192.833 121.5,-192.833"/>
</g>
</g>
</svg>
