<?xml version="1.0" encoding="UTF-8" standalone="no"?>
<!DOCTYPE svg PUBLIC "-//W3C//DTD SVG 1.1//EN"
 "http://www.w3.org/Graphics/SVG/1.1/DTD/svg11.dtd">
<!-- Generated by graphviz version 2.28.0 (20110509.1545)
 -->
<!-- Title: RTX::DbPointRecord Pages: 1 -->
<svg width="249pt" height="324pt"
 viewBox="0.00 0.00 249.38 324.00" xmlns="http://www.w3.org/2000/svg" xmlns:xlink="http://www.w3.org/1999/xlink">
<g id="graph1" class="graph" transform="scale(1 1) rotate(0) translate(4 320)">
<title>RTX::DbPointRecord</title>
<polygon fill="white" stroke="white" points="-4,5 -4,-320 246.379,-320 246.379,5 -4,5"/>
<!-- Node1 -->
<g id="node1" class="node"><title>Node1</title>
<polygon fill="#bfbfbf" stroke="black" points="34.4033,-1 34.4033,-21 143.597,-21 143.597,-1 34.4033,-1"/>
<text text-anchor="middle" x="89" y="-7" font-family="Helvetica,sans-Serif" font-size="10.00">RTX::DbPointRecord</text>
</g>
<!-- Node2 -->
<g id="node2" class="node"><title>Node2</title>
<a xlink:href="class_r_t_x_1_1_buffer_point_record.html" target="_top" xlink:title="RTX::BufferPointRecord">
<polygon fill="white" stroke="black" points="108.543,-61 108.543,-81 231.457,-81 231.457,-61 108.543,-61"/>
<text text-anchor="middle" x="170" y="-67" font-family="Helvetica,sans-Serif" font-size="10.00">RTX::BufferPointRecord</text>
</a>
</g>
<!-- Node2&#45;&gt;Node1 -->
<g id="edge2" class="edge"><title>Node2&#45;&gt;Node1</title>
<path fill="none" stroke="midnightblue" d="M149.175,-55.0883C134.224,-44.3823 114.547,-30.2926 101.835,-21.1903"/>
<polygon fill="midnightblue" stroke="midnightblue" points="147.176,-57.9613 157.344,-60.9375 151.251,-52.2699 147.176,-57.9613"/>
</g>
<!-- Node3 -->
<g id="node4" class="node"><title>Node3</title>
<a xlink:href="class_r_t_x_1_1_point_record.html" target="_top" xlink:title="A Point Record Class for storing and retrieving Points.">
<polygon fill="white" stroke="black" points="121.795,-153 121.795,-173 218.205,-173 218.205,-153 121.795,-153"/>
<text text-anchor="middle" x="170" y="-159" font-family="Helvetica,sans-Serif" font-size="10.00">RTX::PointRecord</text>
</a>
</g>
<!-- Node3&#45;&gt;Node2 -->
<g id="edge4" class="edge"><title>Node3&#45;&gt;Node2</title>
<path fill="none" stroke="midnightblue" d="M170,-142.489C170,-123.479 170,-95.4146 170,-81.108"/>
<polygon fill="midnightblue" stroke="midnightblue" points="166.5,-142.707 170,-152.707 173.5,-142.707 166.5,-142.707"/>
</g>
<!-- Node4 -->
<g id="node6" class="node"><title>Node4</title>
<a xlink:title="STL class.">
<polygon fill="white" stroke="#bfbfbf" points="41.3252,-223 41.3252,-243 100.675,-243 100.675,-223 41.3252,-223"/>
<text text-anchor="middle" x="71" y="-229" font-family="Helvetica,sans-Serif" font-size="10.00">std::string</text>
</a>
</g>
<!-- Node4&#45;&gt;Node3 -->
<g id="edge6" class="edge"><title>Node4&#45;&gt;Node3</title>
<path fill="none" stroke="#9a32cd" stroke-dasharray="5,2" d="M80.9139,-214.237C85.9081,-206.571 92.5499,-198.005 100.281,-192 110.994,-183.679 124.51,-177.497 136.782,-173.091"/>
<polygon fill="#9a32cd" stroke="#9a32cd" points="77.851,-212.538 75.6769,-222.907 83.8429,-216.157 77.851,-212.538"/>
<text text-anchor="middle" x="136.859" y="-194" font-family="Helvetica,sans-Serif" font-size="10.00"> _cachedPointId</text>
</g>
<!-- Node7 -->
<g id="node12" class="node"><title>Node7</title>
<a xlink:href="class_r_t_x_1_1_db_point_record_1_1request__t.html" target="_top" xlink:title="RTX::DbPointRecord\l::request_t">
<polygon fill="white" stroke="black" points="-0.59668,-101 -0.59668,-133 108.597,-133 108.597,-101 -0.59668,-101"/>
<text text-anchor="start" x="7.40332" y="-119" font-family="Helvetica,sans-Serif" font-size="10.00">RTX::DbPointRecord</text>
<text text-anchor="middle" x="54" y="-107" font-family="Helvetica,sans-Serif" font-size="10.00">::request_t</text>
</a>
</g>
<!-- Node4&#45;&gt;Node7 -->
<g id="edge14" class="edge"><title>Node4&#45;&gt;Node7</title>
<path fill="none" stroke="#9a32cd" stroke-dasharray="5,2" d="M68.1132,-212.642C64.7646,-190.186 59.3138,-153.634 56.2588,-133.148"/>
<polygon fill="#9a32cd" stroke="#9a32cd" points="64.6721,-213.297 69.6088,-222.671 71.5955,-212.264 64.6721,-213.297"/>
<text text-anchor="middle" x="72.2808" y="-194" font-family="Helvetica,sans-Serif" font-size="10.00"> id</text>
</g>
<!-- Node5 -->
<g id="node8" class="node"><title>Node5</title>
<a xlink:title="STL class.">
<polygon fill="white" stroke="#bfbfbf" points="23.9521,-283 23.9521,-315 118.048,-315 118.048,-283 23.9521,-283"/>
<text text-anchor="start" x="31.9521" y="-301" font-family="Helvetica,sans-Serif" font-size="10.00">std::basic_string&lt;</text>
<text text-anchor="middle" x="71" y="-289" font-family="Helvetica,sans-Serif" font-size="10.00"> char &gt;</text>
</a>
</g>
<!-- Node5&#45;&gt;Node4 -->
<g id="edge8" class="edge"><title>Node5&#45;&gt;Node4</title>
<path fill="none" stroke="midnightblue" d="M71,-272.611C71,-262.286 71,-251.001 71,-243.313"/>
<polygon fill="midnightblue" stroke="midnightblue" points="67.5001,-272.833 71,-282.833 74.5001,-272.833 67.5001,-272.833"/>
</g>
<!-- Node6 -->
<g id="node10" class="node"><title>Node6</title>
<a xlink:href="class_r_t_x_1_1_point.html" target="_top" xlink:title="A Point Class to store data tuples (date, value, quality, confidence)">
<polygon fill="white" stroke="black" points="150.913,-223 150.913,-243 215.087,-243 215.087,-223 150.913,-223"/>
<text text-anchor="middle" x="183" y="-229" font-family="Helvetica,sans-Serif" font-size="10.00">RTX::Point</text>
</a>
</g>
<!-- Node6&#45;&gt;Node3 -->
<g id="edge10" class="edge"><title>Node6&#45;&gt;Node3</title>
<path fill="none" stroke="#9a32cd" stroke-dasharray="5,2" d="M179.358,-212.95C176.862,-199.891 173.663,-183.159 171.725,-173.025"/>
<polygon fill="#9a32cd" stroke="#9a32cd" points="175.931,-213.664 181.247,-222.829 182.807,-212.35 175.931,-213.664"/>
<text text-anchor="middle" x="209.689" y="-194" font-family="Helvetica,sans-Serif" font-size="10.00"> _cachedPoint</text>
</g>
<!-- Node7&#45;&gt;Node1 -->
<g id="edge12" class="edge"><title>Node7&#45;&gt;Node1</title>
<path fill="none" stroke="#9a32cd" stroke-dasharray="5,2" d="M56.7277,-90.9846C58.2313,-81.1554 60.5003,-69.8818 63.8672,-60 68.7211,-45.7537 77.3251,-30.5653 83.0956,-21.1774"/>
<polygon fill="#9a32cd" stroke="#9a32cd" points="53.2519,-90.5706 55.3808,-100.949 60.1888,-91.5084 53.2519,-90.5706"/>
<text text-anchor="middle" x="82.0664" y="-67" font-family="Helvetica,sans-Serif" font-size="10.00"> request</text>
</g>
</g>
</svg>
