<?xml version="1.0" encoding="UTF-8" standalone="no"?>
<!DOCTYPE svg PUBLIC "-//W3C//DTD SVG 1.1//EN"
 "http://www.w3.org/Graphics/SVG/1.1/DTD/svg11.dtd">
<!-- Generated by graphviz version 2.28.0 (20110509.1545)
 -->
<!-- Title: RTX::IncompatibleComponent Pages: 1 -->
<svg width="156pt" height="146pt"
 viewBox="0.00 0.00 156.00 146.00" xmlns="http://www.w3.org/2000/svg" xmlns:xlink="http://www.w3.org/1999/xlink">
<g id="graph1" class="graph" transform="scale(1 1) rotate(0) translate(4 142)">
<title>RTX::IncompatibleComponent</title>
<polygon fill="white" stroke="white" points="-4,5 -4,-142 153,-142 153,5 -4,5"/>
<!-- Node1 -->
<g id="node1" class="node"><title>Node1</title>
<polygon fill="#bfbfbf" stroke="black" points="-0.889648,-1 -0.889648,-21 148.89,-21 148.89,-1 -0.889648,-1"/>
<text text-anchor="middle" x="74" y="-7" font-family="Helvetica,sans-Serif" font-size="10.00">RTX::IncompatibleComponent</text>
</g>
<!-- Node2 -->
<g id="node2" class="node"><title>Node2</title>
<a xlink:href="class_r_t_x_1_1_rtx_exception.html" target="_top" xlink:title="RTX::RtxException">
<polygon fill="white" stroke="black" points="23.8516,-59 23.8516,-79 124.148,-79 124.148,-59 23.8516,-59"/>
<text text-anchor="middle" x="74" y="-65" font-family="Helvetica,sans-Serif" font-size="10.00">RTX::RtxException</text>
</a>
</g>
<!-- Node2&#45;&gt;Node1 -->
<g id="edge2" class="edge"><title>Node2&#45;&gt;Node1</title>
<path fill="none" stroke="midnightblue" d="M74,-48.7065C74,-39.3384 74,-28.5262 74,-21.0752"/>
<polygon fill="midnightblue" stroke="midnightblue" points="70.5001,-48.7527 74,-58.7527 77.5001,-48.7528 70.5001,-48.7527"/>
</g>
<!-- Node3 -->
<g id="node4" class="node"><title>Node3</title>
<a xlink:title="STL class.">
<polygon fill="white" stroke="#bfbfbf" points="35.1479,-117 35.1479,-137 112.852,-137 112.852,-117 35.1479,-117"/>
<text text-anchor="middle" x="74" y="-123" font-family="Helvetica,sans-Serif" font-size="10.00">std::exception</text>
</a>
</g>
<!-- Node3&#45;&gt;Node2 -->
<g id="edge4" class="edge"><title>Node3&#45;&gt;Node2</title>
<path fill="none" stroke="midnightblue" d="M74,-106.707C74,-97.3384 74,-86.5262 74,-79.0752"/>
<polygon fill="midnightblue" stroke="midnightblue" points="70.5001,-106.753 74,-116.753 77.5001,-106.753 70.5001,-106.753"/>
</g>
</g>
</svg>
