<?xml version="1.0" encoding="UTF-8" standalone="no"?>
<!DOCTYPE svg PUBLIC "-//W3C//DTD SVG 1.1//EN"
 "http://www.w3.org/Graphics/SVG/1.1/DTD/svg11.dtd">
<!-- Generated by graphviz version 2.28.0 (20110509.1545)
 -->
<!-- Title: RTX::PointRecord Pages: 1 -->
<svg width="476pt" height="204pt"
 viewBox="0.00 0.00 476.00 204.00" xmlns="http://www.w3.org/2000/svg" xmlns:xlink="http://www.w3.org/1999/xlink">
<g id="graph1" class="graph" transform="scale(1 1) rotate(0) translate(4 200)">
<title>RTX::PointRecord</title>
<polygon fill="white" stroke="white" points="-4,5 -4,-200 473,-200 473,5 -4,5"/>
<!-- Node1 -->
<g id="node1" class="node"><title>Node1</title>
<polygon fill="#bfbfbf" stroke="black" points="223.795,-175 223.795,-195 320.205,-195 320.205,-175 223.795,-175"/>
<text text-anchor="middle" x="272" y="-181" font-family="Helvetica,sans-Serif" font-size="10.00">RTX::PointRecord</text>
</g>
<!-- Node2 -->
<g id="node3" class="node"><title>Node2</title>
<a xlink:href="class_r_t_x_1_1_buffer_point_record.html" target="_top" xlink:title="RTX::BufferPointRecord">
<polygon fill="white" stroke="black" points="68.543,-117 68.543,-137 191.457,-137 191.457,-117 68.543,-117"/>
<text text-anchor="middle" x="130" y="-123" font-family="Helvetica,sans-Serif" font-size="10.00">RTX::BufferPointRecord</text>
</a>
</g>
<!-- Node1&#45;&gt;Node2 -->
<g id="edge2" class="edge"><title>Node1&#45;&gt;Node2</title>
<path fill="none" stroke="midnightblue" d="M239.307,-171.107C212.947,-160.711 176.532,-146.351 153.121,-137.118"/>
<polygon fill="midnightblue" stroke="midnightblue" points="238.282,-174.465 248.869,-174.878 240.851,-167.953 238.282,-174.465"/>
</g>
<!-- Node6 -->
<g id="node11" class="node"><title>Node6</title>
<a xlink:href="class_r_t_x_1_1_deque_point_record.html" target="_top" xlink:title="RTX::DequePointRecord">
<polygon fill="white" stroke="black" points="209.061,-117 209.061,-137 334.939,-137 334.939,-117 209.061,-117"/>
<text text-anchor="middle" x="272" y="-123" font-family="Helvetica,sans-Serif" font-size="10.00">RTX::DequePointRecord</text>
</a>
</g>
<!-- Node1&#45;&gt;Node6 -->
<g id="edge10" class="edge"><title>Node1&#45;&gt;Node6</title>
<path fill="none" stroke="midnightblue" d="M272,-164.707C272,-155.338 272,-144.526 272,-137.075"/>
<polygon fill="midnightblue" stroke="midnightblue" points="268.5,-164.753 272,-174.753 275.5,-164.753 268.5,-164.753"/>
</g>
<!-- Node7 -->
<g id="node13" class="node"><title>Node7</title>
<a xlink:href="class_r_t_x_1_1_map_point_record.html" target="_top" xlink:title="RTX::MapPointRecord">
<polygon fill="white" stroke="black" points="353.068,-117 353.068,-137 468.932,-137 468.932,-117 353.068,-117"/>
<text text-anchor="middle" x="411" y="-123" font-family="Helvetica,sans-Serif" font-size="10.00">RTX::MapPointRecord</text>
</a>
</g>
<!-- Node1&#45;&gt;Node7 -->
<g id="edge12" class="edge"><title>Node1&#45;&gt;Node7</title>
<path fill="none" stroke="midnightblue" d="M304.002,-171.107C329.806,-160.711 365.451,-146.351 388.368,-137.118"/>
<polygon fill="midnightblue" stroke="midnightblue" points="302.61,-167.895 294.642,-174.878 305.226,-174.387 302.61,-167.895"/>
</g>
<!-- Node3 -->
<g id="node5" class="node"><title>Node3</title>
<a xlink:href="class_r_t_x_1_1_db_point_record.html" target="_top" xlink:title="A persistence layer for databases.">
<polygon fill="white" stroke="black" points="75.4033,-59 75.4033,-79 184.597,-79 184.597,-59 75.4033,-59"/>
<text text-anchor="middle" x="130" y="-65" font-family="Helvetica,sans-Serif" font-size="10.00">RTX::DbPointRecord</text>
</a>
</g>
<!-- Node2&#45;&gt;Node3 -->
<g id="edge4" class="edge"><title>Node2&#45;&gt;Node3</title>
<path fill="none" stroke="midnightblue" d="M130,-106.707C130,-97.3384 130,-86.5262 130,-79.0752"/>
<polygon fill="midnightblue" stroke="midnightblue" points="126.5,-106.753 130,-116.753 133.5,-106.753 126.5,-106.753"/>
</g>
<!-- Node4 -->
<g id="node7" class="node"><title>Node4</title>
<a xlink:href="class_r_t_x_1_1_mysql_point_record.html" target="_top" xlink:title="A persistence layer for MySQL databases.">
<polygon fill="white" stroke="black" points="-0.261719,-1 -0.261719,-21 122.262,-21 122.262,-1 -0.261719,-1"/>
<text text-anchor="middle" x="61" y="-7" font-family="Helvetica,sans-Serif" font-size="10.00">RTX::MysqlPointRecord</text>
</a>
</g>
<!-- Node3&#45;&gt;Node4 -->
<g id="edge6" class="edge"><title>Node3&#45;&gt;Node4</title>
<path fill="none" stroke="midnightblue" d="M110.641,-52.288C98.2306,-42.2161 82.5602,-29.4981 72.1819,-21.0752"/>
<polygon fill="midnightblue" stroke="midnightblue" points="108.636,-55.1686 118.606,-58.7527 113.047,-49.7334 108.636,-55.1686"/>
</g>
<!-- Node5 -->
<g id="node9" class="node"><title>Node5</title>
<a xlink:href="class_r_t_x_1_1_odbc_point_record.html" target="_top" xlink:title="A persistence class for SCADA databases.">
<polygon fill="white" stroke="black" points="139.844,-1 139.844,-21 260.156,-21 260.156,-1 139.844,-1"/>
<text text-anchor="middle" x="200" y="-7" font-family="Helvetica,sans-Serif" font-size="10.00">RTX::OdbcPointRecord</text>
</a>
</g>
<!-- Node3&#45;&gt;Node5 -->
<g id="edge8" class="edge"><title>Node3&#45;&gt;Node5</title>
<path fill="none" stroke="midnightblue" d="M149.64,-52.288C162.23,-42.2161 178.127,-29.4981 188.656,-21.0752"/>
<polygon fill="midnightblue" stroke="midnightblue" points="147.181,-49.7727 141.559,-58.7527 151.554,-55.2388 147.181,-49.7727"/>
</g>
</g>
</svg>
