<?xml version="1.0" encoding="UTF-8" standalone="no"?>
<!DOCTYPE svg PUBLIC "-//W3C//DTD SVG 1.1//EN"
 "http://www.w3.org/Graphics/SVG/1.1/DTD/svg11.dtd">
<!-- Generated by graphviz version 2.28.0 (20110509.1545)
 -->
<!-- Title: RTX::AggregatorTimeSeries Pages: 1 -->
<svg width="148pt" height="274pt"
 viewBox="0.00 0.00 148.00 274.00" xmlns="http://www.w3.org/2000/svg" xmlns:xlink="http://www.w3.org/1999/xlink">
<g id="graph1" class="graph" transform="scale(1 1) rotate(0) translate(4 270)">
<title>RTX::AggregatorTimeSeries</title>
<polygon fill="white" stroke="white" points="-4,5 -4,-270 145,-270 145,5 -4,5"/>
<!-- Node1 -->
<g id="node1" class="node"><title>Node1</title>
<polygon fill="#bfbfbf" stroke="black" points="-0.529297,-1 -0.529297,-21 140.529,-21 140.529,-1 -0.529297,-1"/>
<text text-anchor="middle" x="70" y="-7" font-family="Helvetica,sans-Serif" font-size="10.00">RTX::AggregatorTimeSeries</text>
</g>
<!-- Node2 -->
<g id="node2" class="node"><title>Node2</title>
<a xlink:href="class_r_t_x_1_1_resampler.html" target="_top" xlink:title="RTX::Resampler">
<polygon fill="white" stroke="black" points="25.1348,-59 25.1348,-79 114.865,-79 114.865,-59 25.1348,-59"/>
<text text-anchor="middle" x="70" y="-65" font-family="Helvetica,sans-Serif" font-size="10.00">RTX::Resampler</text>
</a>
</g>
<!-- Node2&#45;&gt;Node1 -->
<g id="edge2" class="edge"><title>Node2&#45;&gt;Node1</title>
<path fill="none" stroke="midnightblue" d="M70,-48.7065C70,-39.3384 70,-28.5262 70,-21.0752"/>
<polygon fill="midnightblue" stroke="midnightblue" points="66.5001,-48.7527 70,-58.7527 73.5001,-48.7528 66.5001,-48.7527"/>
</g>
<!-- Node3 -->
<g id="node4" class="node"><title>Node3</title>
<a xlink:href="class_r_t_x_1_1_modular_time_series.html" target="_top" xlink:title="A Time Series class that allows a single upstream TimeSeries. ">
<polygon fill="white" stroke="black" points="6.14551,-117 6.14551,-137 133.854,-137 133.854,-117 6.14551,-117"/>
<text text-anchor="middle" x="70" y="-123" font-family="Helvetica,sans-Serif" font-size="10.00">RTX::ModularTimeSeries</text>
</a>
</g>
<!-- Node3&#45;&gt;Node2 -->
<g id="edge4" class="edge"><title>Node3&#45;&gt;Node2</title>
<path fill="none" stroke="midnightblue" d="M70,-106.707C70,-97.3384 70,-86.5262 70,-79.0752"/>
<polygon fill="midnightblue" stroke="midnightblue" points="66.5001,-106.753 70,-116.753 73.5001,-106.753 66.5001,-106.753"/>
</g>
<!-- Node4 -->
<g id="node6" class="node"><title>Node4</title>
<a xlink:href="class_r_t_x_1_1_time_series.html" target="_top" xlink:title="An abstraction of Points ordered in time. ">
<polygon fill="white" stroke="black" points="24.2095,-175 24.2095,-195 115.791,-195 115.791,-175 24.2095,-175"/>
<text text-anchor="middle" x="70" y="-181" font-family="Helvetica,sans-Serif" font-size="10.00">RTX::TimeSeries</text>
</a>
</g>
<!-- Node4&#45;&gt;Node3 -->
<g id="edge6" class="edge"><title>Node4&#45;&gt;Node3</title>
<path fill="none" stroke="midnightblue" d="M70,-164.707C70,-155.338 70,-144.526 70,-137.075"/>
<polygon fill="midnightblue" stroke="midnightblue" points="66.5001,-164.753 70,-174.753 73.5001,-164.753 66.5001,-164.753"/>
</g>
<!-- Node5 -->
<g id="node8" class="node"><title>Node5</title>
<polygon fill="white" stroke="#bfbfbf" points="5.02734,-233 5.02734,-265 134.973,-265 134.973,-233 5.02734,-233"/>
<text text-anchor="start" x="13.0273" y="-251" font-family="Helvetica,sans-Serif" font-size="10.00">boost::enable_shared</text>
<text text-anchor="middle" x="70" y="-239" font-family="Helvetica,sans-Serif" font-size="10.00">_from_this&lt; TimeSeries &gt;</text>
</g>
<!-- Node5&#45;&gt;Node4 -->
<g id="edge8" class="edge"><title>Node5&#45;&gt;Node4</title>
<path fill="none" stroke="midnightblue" d="M70,-222.922C70,-213.172 70,-202.61 70,-195.29"/>
<polygon fill="midnightblue" stroke="midnightblue" points="66.5001,-222.991 70,-232.992 73.5001,-222.992 66.5001,-222.991"/>
</g>
</g>
</svg>
