<?xml version="1.0" encoding="UTF-8" standalone="no"?>
<!DOCTYPE svg PUBLIC "-//W3C//DTD SVG 1.1//EN"
 "http://www.w3.org/Graphics/SVG/1.1/DTD/svg11.dtd">
<!-- Generated by graphviz version 2.28.0 (20110509.1545)
 -->
<!-- Title: RTX::MysqlPointRecord::mysql_connection_t Pages: 1 -->
<svg width="130pt" height="220pt"
 viewBox="0.00 0.00 130.00 220.00" xmlns="http://www.w3.org/2000/svg" xmlns:xlink="http://www.w3.org/1999/xlink">
<g id="graph1" class="graph" transform="scale(1 1) rotate(0) translate(4 216)">
<title>RTX::MysqlPointRecord::mysql_connection_t</title>
<polygon fill="white" stroke="white" points="-4,5 -4,-216 127,-216 127,5 -4,5"/>
<!-- Node1 -->
<g id="node1" class="node"><title>Node1</title>
<polygon fill="#bfbfbf" stroke="black" points="-0.261719,-1 -0.261719,-33 122.262,-33 122.262,-1 -0.261719,-1"/>
<text text-anchor="start" x="7.73828" y="-19" font-family="Helvetica,sans-Serif" font-size="10.00">RTX::MysqlPointRecord</text>
<text text-anchor="middle" x="61" y="-7" font-family="Helvetica,sans-Serif" font-size="10.00">::mysql_connection_t</text>
</g>
<!-- Node2 -->
<g id="node2" class="node"><title>Node2</title>
<a xlink:title="STL class. ">
<polygon fill="white" stroke="#bfbfbf" points="31.3252,-119 31.3252,-139 90.6748,-139 90.6748,-119 31.3252,-119"/>
<text text-anchor="middle" x="61" y="-125" font-family="Helvetica,sans-Serif" font-size="10.00">std::string</text>
</a>
</g>
<!-- Node2&#45;&gt;Node1 -->
<g id="edge2" class="edge"><title>Node2&#45;&gt;Node1</title>
<path fill="none" stroke="#9a32cd" stroke-dasharray="5,2" d="M61,-108.85C61,-87.4217 61,-53.1273 61,-33.3728"/>
<polygon fill="#9a32cd" stroke="#9a32cd" points="57.5001,-108.998 61,-118.998 64.5001,-108.998 57.5001,-108.998"/>
<text text-anchor="middle" x="71.5615" y="-90" font-family="Helvetica,sans-Serif" font-size="10.00"> pwd</text>
<text text-anchor="middle" x="71.5615" y="-78" font-family="Helvetica,sans-Serif" font-size="10.00">host</text>
<text text-anchor="middle" x="71.5615" y="-66" font-family="Helvetica,sans-Serif" font-size="10.00">uid</text>
<text text-anchor="middle" x="71.5615" y="-54" font-family="Helvetica,sans-Serif" font-size="10.00">db</text>
</g>
<!-- Node3 -->
<g id="node4" class="node"><title>Node3</title>
<a xlink:title="STL class. ">
<polygon fill="white" stroke="#bfbfbf" points="13.9521,-179 13.9521,-211 108.048,-211 108.048,-179 13.9521,-179"/>
<text text-anchor="start" x="21.9521" y="-197" font-family="Helvetica,sans-Serif" font-size="10.00">std::basic_string&lt;</text>
<text text-anchor="middle" x="61" y="-185" font-family="Helvetica,sans-Serif" font-size="10.00"> char &gt;</text>
</a>
</g>
<!-- Node3&#45;&gt;Node2 -->
<g id="edge4" class="edge"><title>Node3&#45;&gt;Node2</title>
<path fill="none" stroke="midnightblue" d="M61,-168.611C61,-158.286 61,-147.001 61,-139.313"/>
<polygon fill="midnightblue" stroke="midnightblue" points="57.5001,-168.833 61,-178.833 64.5001,-168.833 57.5001,-168.833"/>
</g>
</g>
</svg>
