<?xml version="1.0" encoding="UTF-8" standalone="no"?>
<!DOCTYPE svg PUBLIC "-//W3C//DTD SVG 1.1//EN"
 "http://www.w3.org/Graphics/SVG/1.1/DTD/svg11.dtd">
<!-- Generated by graphviz version 2.36.0 (20140111.2315)
 -->
<!-- Title: RTX::TimeSeries Pages: 1 -->
<!--zoomable 461 -->
<svg id="main" version="1.1" xmlns="http://www.w3.org/2000/svg" xmlns:xlink="http://www.w3.org/1999/xlink" xml:space="preserve" onload="init(evt)">
<style type="text/css"><![CDATA[
.edge:hover path { stroke: red; }
.edge:hover polygon { stroke: red; fill: red; }
]]></style>
<script type="text/javascript"><![CDATA[
var edges = document.getElementsByTagName('g');
if (edges && edges.length) {
  for (var i=0;i<edges.length;i++) {
    if (edges[i].id.substr(0,4)=='edge') {
      edges[i].setAttribute('class','edge');
    }
  }
}
]]></script>
        <defs>
                <circle id="rim" cx="0" cy="0" r="7"/>
                <circle id="rim2" cx="0" cy="0" r="3.5"/>
                <g id="zoomPlus">
                        <use xlink:href="#rim" fill="#404040">
                                <set attributeName="fill" to="#808080" begin="zoomplus.mouseover" end="zoomplus.mouseout"/>
                        </use>
                        <path d="M-4,0h8M0,-4v8" fill="none" stroke="white" stroke-width="1.5" pointer-events="none"/>
                </g>
                <g id="zoomMin">
                        <use xlink:href="#rim" fill="#404040">
                                <set attributeName="fill" to="#808080" begin="zoomminus.mouseover" end="zoomminus.mouseout"/>
                        </use>
                        <path d="M-4,0h8" fill="none" stroke="white" stroke-width="1.5" pointer-events="none"/>
                </g>
                <g id="dirArrow">
                        <path fill="none" stroke="white" stroke-width="1.5" d="M0,-3.0v7 M-2.5,-0.5L0,-3.0L2.5,-0.5"/>
                </g>
               <g id="resetDef">
                       <use xlink:href="#rim2" fill="#404040">
                               <set attributeName="fill" to="#808080" begin="reset.mouseover" end="reset.mouseout"/>
                       </use>
               </g>
        </defs>

<script type="text/javascript">
var viewWidth = 800;
var viewHeight = 461;
var sectionId = 'dynsection-0';
</script>
<script xlink:href="svgpan.js"/>
<svg id="graph" class="graph">
<g id="viewport">
<title>RTX::TimeSeries</title>
<polygon fill="white" stroke="none" points="-4,4 -4,-457 796,-457 796,4 -4,4"/>
<!-- Node1 -->
<g id="node1" class="node"><title>Node1</title>
<polygon fill="#bfbfbf" stroke="black" points="166.209,-277 166.209,-295 257.791,-295 257.791,-277 166.209,-277"/>
<text text-anchor="middle" x="212" y="-283" font-family="Helvetica,sans-Serif" font-size="10.00">RTX::TimeSeries</text>
</g>
<!-- Node3 -->
<g id="node3" class="node"><title>Node3</title>
<g id="a_node3"><a xlink:href="class_r_t_x_1_1_constant_time_series.html" target="_top" xlink:title="RTX::ConstantTimeSeries">
<polygon fill="white" stroke="black" points="294.197,-314 294.197,-332 425.803,-332 425.803,-314 294.197,-314"/>
<text text-anchor="middle" x="360" y="-320" font-family="Helvetica,sans-Serif" font-size="10.00">RTX::ConstantTimeSeries</text>
</a>
</g>
</g>
<!-- Node1&#45;&gt;Node3 -->
<g id="edge2" class="edge"><title>Node1&#45;&gt;Node3</title>
<path fill="none" stroke="midnightblue" d="M258.65,-297.569C279.532,-302.861 303.904,-309.037 323.4,-313.978"/>
<polygon fill="midnightblue" stroke="midnightblue" points="259.269,-294.115 248.716,-295.051 257.549,-300.901 259.269,-294.115"/>
</g>
<!-- Node4 -->
<g id="node4" class="node"><title>Node4</title>
<g id="a_node4"><a xlink:href="class_r_t_x_1_1_modular_time_series.html" target="_top" xlink:title="A Time Series class that allows a single upstream TimeSeries. ">
<polygon fill="white" stroke="black" points="296.146,-277 296.146,-295 423.854,-295 423.854,-277 296.146,-277"/>
<text text-anchor="middle" x="360" y="-283" font-family="Helvetica,sans-Serif" font-size="10.00">RTX::ModularTimeSeries</text>
</a>
</g>
</g>
<!-- Node1&#45;&gt;Node4 -->
<g id="edge3" class="edge"><title>Node1&#45;&gt;Node4</title>
<path fill="none" stroke="midnightblue" d="M268.058,-286C277.148,-286 286.633,-286 295.902,-286"/>
<polygon fill="midnightblue" stroke="midnightblue" points="267.996,-282.5 257.996,-286 267.996,-289.5 267.996,-282.5"/>
</g>
<!-- Node25 -->
<g id="node25" class="node"><title>Node25</title>
<g id="a_node25"><a xlink:href="class_r_t_x_1_1_sine_time_series.html" target="_top" xlink:title="RTX::SineTimeSeries">
<polygon fill="white" stroke="black" points="304.202,-240 304.202,-258 415.798,-258 415.798,-240 304.202,-240"/>
<text text-anchor="middle" x="360" y="-246" font-family="Helvetica,sans-Serif" font-size="10.00">RTX::SineTimeSeries</text>
</a>
</g>
</g>
<!-- Node1&#45;&gt;Node25 -->
<g id="edge24" class="edge"><title>Node1&#45;&gt;Node25</title>
<path fill="none" stroke="midnightblue" d="M258.65,-274.431C279.532,-269.139 303.904,-262.963 323.4,-258.022"/>
<polygon fill="midnightblue" stroke="midnightblue" points="257.549,-271.099 248.716,-276.949 259.269,-277.885 257.549,-271.099"/>
</g>
<!-- Node2 -->
<g id="node2" class="node"><title>Node2</title>
<polygon fill="white" stroke="#bfbfbf" points="0.0273438,-272 0.0273438,-300 129.973,-300 129.973,-272 0.0273438,-272"/>
<text text-anchor="start" x="8.02734" y="-288" font-family="Helvetica,sans-Serif" font-size="10.00">boost::enable_shared</text>
<text text-anchor="middle" x="65" y="-278" font-family="Helvetica,sans-Serif" font-size="10.00">_from_this&lt; TimeSeries &gt;</text>
</g>
<!-- Node2&#45;&gt;Node1 -->
<g id="edge1" class="edge"><title>Node2&#45;&gt;Node1</title>
<path fill="none" stroke="midnightblue" d="M140.022,-286C148.894,-286 157.736,-286 166.015,-286"/>
<polygon fill="midnightblue" stroke="midnightblue" points="140.021,-282.5 130.021,-286 140.021,-289.5 140.021,-282.5"/>
</g>
<!-- Node5 -->
<g id="node5" class="node"><title>Node5</title>
<g id="a_node5"><a xlink:href="class_r_t_x_1_1_base_stats_time_series.html" target="_top" xlink:title="RTX::BaseStatsTimeSeries">
<polygon fill="white" stroke="black" points="468.419,-407 468.419,-425 605.581,-425 605.581,-407 468.419,-407"/>
<text text-anchor="middle" x="537" y="-413" font-family="Helvetica,sans-Serif" font-size="10.00">RTX::BaseStatsTimeSeries</text>
</a>
</g>
</g>
<!-- Node4&#45;&gt;Node5 -->
<g id="edge4" class="edge"><title>Node4&#45;&gt;Node5</title>
<path fill="none" stroke="midnightblue" d="M419.637,-300.079C421.891,-301.56 424.027,-303.194 426,-305 458.392,-334.642 429.122,-367.897 462,-397 466.668,-401.132 472.116,-404.387 477.901,-406.948"/>
<polygon fill="midnightblue" stroke="midnightblue" points="420.912,-296.79 410.452,-295.104 417.578,-302.945 420.912,-296.79"/>
</g>
<!-- Node8 -->
<g id="node8" class="node"><title>Node8</title>
<g id="a_node8"><a xlink:href="class_r_t_x_1_1_curve_function.html" target="_top" xlink:title="A Curve Function Class to perform arbitrary mapping of values. ">
<polygon fill="white" stroke="black" points="483.795,-370 483.795,-388 590.205,-388 590.205,-370 483.795,-370"/>
<text text-anchor="middle" x="537" y="-376" font-family="Helvetica,sans-Serif" font-size="10.00">RTX::CurveFunction</text>
</a>
</g>
</g>
<!-- Node4&#45;&gt;Node8 -->
<g id="edge7" class="edge"><title>Node4&#45;&gt;Node8</title>
<path fill="none" stroke="midnightblue" d="M416.771,-299.298C420.018,-300.978 423.126,-302.87 426,-305 449.472,-322.396 438.244,-342.994 462,-360 468.471,-364.632 475.974,-368.137 483.669,-370.788"/>
<polygon fill="midnightblue" stroke="midnightblue" points="417.893,-295.966 407.333,-295.1 415.048,-302.362 417.893,-295.966"/>
</g>
<!-- Node9 -->
<g id="node9" class="node"><title>Node9</title>
<g id="a_node9"><a xlink:href="class_r_t_x_1_1_failover_time_series.html" target="_top" xlink:title="RTX::FailoverTimeSeries">
<polygon fill="white" stroke="black" points="473.426,-333 473.426,-351 600.574,-351 600.574,-333 473.426,-333"/>
<text text-anchor="middle" x="537" y="-339" font-family="Helvetica,sans-Serif" font-size="10.00">RTX::FailoverTimeSeries</text>
</a>
</g>
</g>
<!-- Node4&#45;&gt;Node9 -->
<g id="edge8" class="edge"><title>Node4&#45;&gt;Node9</title>
<path fill="none" stroke="midnightblue" d="M405.953,-297.995C412.738,-300.134 419.603,-302.489 426,-305 442.652,-311.536 445.242,-316.74 462,-323 472.313,-326.852 483.717,-330.204 494.421,-332.974"/>
<polygon fill="midnightblue" stroke="midnightblue" points="406.718,-294.57 396.133,-295.022 404.69,-301.27 406.718,-294.57"/>
</g>
<!-- Node10 -->
<g id="node10" class="node"><title>Node10</title>
<g id="a_node10"><a xlink:href="class_r_t_x_1_1_forecast_time_series.html" target="_top" xlink:title="RTX::ForecastTimeSeries">
<polygon fill="white" stroke="black" points="471.759,-296 471.759,-314 602.241,-314 602.241,-296 471.759,-296"/>
<text text-anchor="middle" x="537" y="-302" font-family="Helvetica,sans-Serif" font-size="10.00">RTX::ForecastTimeSeries</text>
</a>
</g>
</g>
<!-- Node4&#45;&gt;Node10 -->
<g id="edge9" class="edge"><title>Node4&#45;&gt;Node10</title>
<path fill="none" stroke="midnightblue" d="M434.466,-293.976C446.847,-295.321 459.613,-296.707 471.737,-298.023"/>
<polygon fill="midnightblue" stroke="midnightblue" points="434.498,-290.459 424.179,-292.859 433.743,-297.418 434.498,-290.459"/>
</g>
<!-- Node11 -->
<g id="node11" class="node"><title>Node11</title>
<g id="a_node11"><a xlink:href="class_r_t_x_1_1_resampler.html" target="_top" xlink:title="RTX::Resampler">
<polygon fill="white" stroke="black" points="492.135,-259 492.135,-277 581.865,-277 581.865,-259 492.135,-259"/>
<text text-anchor="middle" x="537" y="-265" font-family="Helvetica,sans-Serif" font-size="10.00">RTX::Resampler</text>
</a>
</g>
</g>
<!-- Node4&#45;&gt;Node11 -->
<g id="edge10" class="edge"><title>Node4&#45;&gt;Node11</title>
<path fill="none" stroke="midnightblue" d="M434.339,-278.457C453.98,-276.436 474.599,-274.316 492.094,-272.516"/>
<polygon fill="midnightblue" stroke="midnightblue" points="433.768,-274.997 424.179,-279.502 434.485,-281.96 433.768,-274.997"/>
</g>
<!-- Node15 -->
<g id="node15" class="node"><title>Node15</title>
<g id="a_node15"><a xlink:href="class_r_t_x_1_1_run_time_status_modular_time_series.html" target="_top" xlink:title="RTX::RunTimeStatusModular\lTimeSeries">
<polygon fill="white" stroke="black" points="463.971,-212 463.971,-240 610.029,-240 610.029,-212 463.971,-212"/>
<text text-anchor="start" x="471.971" y="-228" font-family="Helvetica,sans-Serif" font-size="10.00">RTX::RunTimeStatusModular</text>
<text text-anchor="middle" x="537" y="-218" font-family="Helvetica,sans-Serif" font-size="10.00">TimeSeries</text>
</a>
</g>
</g>
<!-- Node4&#45;&gt;Node15 -->
<g id="edge14" class="edge"><title>Node4&#45;&gt;Node15</title>
<path fill="none" stroke="midnightblue" d="M405.953,-274.005C412.738,-271.866 419.603,-269.511 426,-267 442.652,-260.464 445.404,-255.677 462,-249 469.863,-245.837 478.338,-242.837 486.647,-240.113"/>
<polygon fill="midnightblue" stroke="midnightblue" points="404.69,-270.73 396.133,-276.978 406.718,-277.43 404.69,-270.73"/>
</g>
<!-- Node16 -->
<g id="node16" class="node"><title>Node16</title>
<g id="a_node16"><a xlink:href="class_r_t_x_1_1_single_point_filter_modular_time_series.html" target="_top" xlink:title="RTX::SinglePointFilterModular\lTimeSeries">
<polygon fill="white" stroke="black" points="461.839,-143 461.839,-171 612.161,-171 612.161,-143 461.839,-143"/>
<text text-anchor="start" x="469.839" y="-159" font-family="Helvetica,sans-Serif" font-size="10.00">RTX::SinglePointFilterModular</text>
<text text-anchor="middle" x="537" y="-149" font-family="Helvetica,sans-Serif" font-size="10.00">TimeSeries</text>
</a>
</g>
</g>
<!-- Node4&#45;&gt;Node16 -->
<g id="edge15" class="edge"><title>Node4&#45;&gt;Node16</title>
<path fill="none" stroke="midnightblue" d="M417.563,-272.613C420.544,-270.956 423.383,-269.093 426,-267 451.788,-246.371 439.127,-225.82 462,-202 474.185,-189.311 490.689,-178.821 505.019,-171.17"/>
<polygon fill="midnightblue" stroke="midnightblue" points="415.83,-269.561 408.281,-276.995 418.818,-275.891 415.83,-269.561"/>
</g>
<!-- Node24 -->
<g id="node24" class="node"><title>Node24</title>
<g id="a_node24"><a xlink:href="class_r_t_x_1_1_warping_time_series.html" target="_top" xlink:title="RTX::WarpingTimeSeries">
<polygon fill="white" stroke="black" points="472.774,-106 472.774,-124 601.226,-124 601.226,-106 472.774,-106"/>
<text text-anchor="middle" x="537" y="-112" font-family="Helvetica,sans-Serif" font-size="10.00">RTX::WarpingTimeSeries</text>
</a>
</g>
</g>
<!-- Node4&#45;&gt;Node24 -->
<g id="edge23" class="edge"><title>Node4&#45;&gt;Node24</title>
<path fill="none" stroke="midnightblue" d="M420.706,-271.595C422.588,-270.201 424.363,-268.673 426,-267 469.125,-222.919 417.878,-176.082 462,-133 465.689,-129.398 469.972,-126.475 474.582,-124.109"/>
<polygon fill="midnightblue" stroke="midnightblue" points="418.64,-268.753 411.865,-276.899 422.241,-274.756 418.64,-268.753"/>
</g>
<!-- Node6 -->
<g id="node6" class="node"><title>Node6</title>
<g id="a_node6"><a xlink:href="class_r_t_x_1_1_outlier_exclusion_time_series.html" target="_top" xlink:title="RTX::OutlierExclusionTime\lSeries">
<polygon fill="white" stroke="black" points="652.256,-425 652.256,-453 787.744,-453 787.744,-425 652.256,-425"/>
<text text-anchor="start" x="660.256" y="-441" font-family="Helvetica,sans-Serif" font-size="10.00">RTX::OutlierExclusionTime</text>
<text text-anchor="middle" x="720" y="-431" font-family="Helvetica,sans-Serif" font-size="10.00">Series</text>
</a>
</g>
</g>
<!-- Node5&#45;&gt;Node6 -->
<g id="edge5" class="edge"><title>Node5&#45;&gt;Node6</title>
<path fill="none" stroke="midnightblue" d="M615.717,-425.876C627.806,-427.412 640.205,-428.987 652.029,-430.49"/>
<polygon fill="midnightblue" stroke="midnightblue" points="616.017,-422.386 605.655,-424.597 615.134,-429.33 616.017,-422.386"/>
</g>
<!-- Node7 -->
<g id="node7" class="node"><title>Node7</title>
<g id="a_node7"><a xlink:href="class_r_t_x_1_1_stats_time_series.html" target="_top" xlink:title="RTX::StatsTimeSeries">
<polygon fill="white" stroke="black" points="662.815,-388 662.815,-406 777.185,-406 777.185,-388 662.815,-388"/>
<text text-anchor="middle" x="720" y="-394" font-family="Helvetica,sans-Serif" font-size="10.00">RTX::StatsTimeSeries</text>
</a>
</g>
</g>
<!-- Node5&#45;&gt;Node7 -->
<g id="edge6" class="edge"><title>Node5&#45;&gt;Node7</title>
<path fill="none" stroke="midnightblue" d="M615.893,-407.823C631.616,-406.173 647.857,-404.468 662.667,-402.913"/>
<polygon fill="midnightblue" stroke="midnightblue" points="615.235,-404.373 605.655,-408.898 615.966,-411.335 615.235,-404.373"/>
</g>
<!-- Node12 -->
<g id="node12" class="node"><title>Node12</title>
<g id="a_node12"><a xlink:href="class_r_t_x_1_1_aggregator_time_series.html" target="_top" xlink:title="Aggregates (and optionally scales) arbitrary many input time series. ">
<polygon fill="white" stroke="black" points="649.471,-333 649.471,-351 790.529,-351 790.529,-333 649.471,-333"/>
<text text-anchor="middle" x="720" y="-339" font-family="Helvetica,sans-Serif" font-size="10.00">RTX::AggregatorTimeSeries</text>
</a>
</g>
</g>
<!-- Node11&#45;&gt;Node12 -->
<g id="edge11" class="edge"><title>Node11&#45;&gt;Node12</title>
<path fill="none" stroke="midnightblue" d="M591.769,-278.151C598.809,-280.521 605.742,-283.431 612,-287 631.655,-298.211 628.402,-311.689 648,-323 655.184,-327.146 663.296,-330.411 671.404,-332.976"/>
<polygon fill="midnightblue" stroke="midnightblue" points="592.74,-274.788 582.155,-275.243 590.713,-281.488 592.74,-274.788"/>
</g>
<!-- Node13 -->
<g id="node13" class="node"><title>Node13</title>
<g id="a_node13"><a xlink:href="class_r_t_x_1_1_first_derivative.html" target="_top" xlink:title="RTX::FirstDerivative">
<polygon fill="white" stroke="black" points="667.361,-296 667.361,-314 772.639,-314 772.639,-296 667.361,-296"/>
<text text-anchor="middle" x="720" y="-302" font-family="Helvetica,sans-Serif" font-size="10.00">RTX::FirstDerivative</text>
</a>
</g>
</g>
<!-- Node11&#45;&gt;Node13 -->
<g id="edge12" class="edge"><title>Node11&#45;&gt;Node13</title>
<path fill="none" stroke="midnightblue" d="M592.135,-279.066C618.552,-284.466 649.927,-290.88 674.866,-295.978"/>
<polygon fill="midnightblue" stroke="midnightblue" points="592.776,-275.625 582.278,-277.051 591.374,-282.483 592.776,-275.625"/>
</g>
<!-- Node14 -->
<g id="node14" class="node"><title>Node14</title>
<g id="a_node14"><a xlink:href="class_r_t_x_1_1_moving_average.html" target="_top" xlink:title="RTX::MovingAverage">
<polygon fill="white" stroke="black" points="664.656,-259 664.656,-277 775.344,-277 775.344,-259 664.656,-259"/>
<text text-anchor="middle" x="720" y="-265" font-family="Helvetica,sans-Serif" font-size="10.00">RTX::MovingAverage</text>
</a>
</g>
</g>
<!-- Node11&#45;&gt;Node14 -->
<g id="edge13" class="edge"><title>Node11&#45;&gt;Node14</title>
<path fill="none" stroke="midnightblue" d="M592.469,-268C615.267,-268 641.709,-268 664.509,-268"/>
<polygon fill="midnightblue" stroke="midnightblue" points="592.278,-264.5 582.278,-268 592.278,-271.5 592.278,-264.5"/>
</g>
<!-- Node17 -->
<g id="node17" class="node"><title>Node17</title>
<g id="a_node17"><a xlink:href="class_r_t_x_1_1_gain_time_series.html" target="_top" xlink:title="RTX::GainTimeSeries">
<polygon fill="white" stroke="black" points="663.648,-222 663.648,-240 776.352,-240 776.352,-222 663.648,-222"/>
<text text-anchor="middle" x="720" y="-228" font-family="Helvetica,sans-Serif" font-size="10.00">RTX::GainTimeSeries</text>
</a>
</g>
</g>
<!-- Node16&#45;&gt;Node17 -->
<g id="edge16" class="edge"><title>Node16&#45;&gt;Node17</title>
<path fill="none" stroke="midnightblue" d="M571.678,-176.069C593.051,-187.605 621.567,-201.973 648,-212 658.022,-215.802 669.111,-219.154 679.488,-221.943"/>
<polygon fill="midnightblue" stroke="midnightblue" points="573.142,-172.881 562.689,-171.157 569.786,-179.024 573.142,-172.881"/>
</g>
<!-- Node18 -->
<g id="node18" class="node"><title>Node18</title>
<g id="a_node18"><a xlink:href="class_r_t_x_1_1_inversion_time_series.html" target="_top" xlink:title="RTX::InversionTimeSeries">
<polygon fill="white" stroke="black" points="653.921,-185 653.921,-203 786.079,-203 786.079,-185 653.921,-185"/>
<text text-anchor="middle" x="720" y="-191" font-family="Helvetica,sans-Serif" font-size="10.00">RTX::InversionTimeSeries</text>
</a>
</g>
</g>
<!-- Node16&#45;&gt;Node18 -->
<g id="edge17" class="edge"><title>Node16&#45;&gt;Node18</title>
<path fill="none" stroke="midnightblue" d="M616.677,-173.083C636.557,-177.147 657.211,-181.369 674.713,-184.947"/>
<polygon fill="midnightblue" stroke="midnightblue" points="617.185,-169.615 606.686,-171.041 615.783,-176.473 617.185,-169.615"/>
</g>
<!-- Node19 -->
<g id="node19" class="node"><title>Node19</title>
<g id="a_node19"><a xlink:href="class_r_t_x_1_1_multiplier_time_series.html" target="_top" xlink:title="RTX::MultiplierTimeSeries">
<polygon fill="white" stroke="black" points="654.205,-148 654.205,-166 785.795,-166 785.795,-148 654.205,-148"/>
<text text-anchor="middle" x="720" y="-154" font-family="Helvetica,sans-Serif" font-size="10.00">RTX::MultiplierTimeSeries</text>
</a>
</g>
</g>
<!-- Node16&#45;&gt;Node19 -->
<g id="edge18" class="edge"><title>Node16&#45;&gt;Node19</title>
<path fill="none" stroke="midnightblue" d="M622.535,-157C633.158,-157 643.891,-157 654.145,-157"/>
<polygon fill="midnightblue" stroke="midnightblue" points="622.403,-153.5 612.403,-157 622.403,-160.5 622.403,-153.5"/>
</g>
<!-- Node20 -->
<g id="node20" class="node"><title>Node20</title>
<g id="a_node20"><a xlink:href="class_r_t_x_1_1_offset_time_series.html" target="_top" xlink:title="RTX::OffsetTimeSeries">
<polygon fill="white" stroke="black" points="660.96,-111 660.96,-129 779.04,-129 779.04,-111 660.96,-111"/>
<text text-anchor="middle" x="720" y="-117" font-family="Helvetica,sans-Serif" font-size="10.00">RTX::OffsetTimeSeries</text>
</a>
</g>
</g>
<!-- Node16&#45;&gt;Node20 -->
<g id="edge19" class="edge"><title>Node16&#45;&gt;Node20</title>
<path fill="none" stroke="midnightblue" d="M616.677,-140.917C636.557,-136.853 657.211,-132.631 674.713,-129.053"/>
<polygon fill="midnightblue" stroke="midnightblue" points="615.783,-137.527 606.686,-142.959 617.185,-144.385 615.783,-137.527"/>
</g>
<!-- Node21 -->
<g id="node21" class="node"><title>Node21</title>
<g id="a_node21"><a xlink:href="class_r_t_x_1_1_threshold_time_series.html" target="_top" xlink:title="A Status Class to map the input time series into binary status based on a threshold. ">
<polygon fill="white" stroke="black" points="651.976,-74 651.976,-92 788.024,-92 788.024,-74 651.976,-74"/>
<text text-anchor="middle" x="720" y="-80" font-family="Helvetica,sans-Serif" font-size="10.00">RTX::ThresholdTimeSeries</text>
</a>
</g>
</g>
<!-- Node16&#45;&gt;Node21 -->
<g id="edge20" class="edge"><title>Node16&#45;&gt;Node21</title>
<path fill="none" stroke="midnightblue" d="M599.842,-139.128C604.044,-137.252 608.138,-135.212 612,-133 630.576,-122.361 629.086,-111.027 648,-101 654.853,-97.3667 662.472,-94.4429 670.102,-92.0968"/>
<polygon fill="midnightblue" stroke="midnightblue" points="598.427,-135.926 590.518,-142.975 601.097,-142.396 598.427,-135.926"/>
</g>
<!-- Node22 -->
<g id="node22" class="node"><title>Node22</title>
<g id="a_node22"><a xlink:href="class_r_t_x_1_1_time_offset_time_series.html" target="_top" xlink:title="RTX::TimeOffsetTimeSeries">
<polygon fill="white" stroke="black" points="650.032,-37 650.032,-55 789.968,-55 789.968,-37 650.032,-37"/>
<text text-anchor="middle" x="720" y="-43" font-family="Helvetica,sans-Serif" font-size="10.00">RTX::TimeOffsetTimeSeries</text>
</a>
</g>
</g>
<!-- Node16&#45;&gt;Node22 -->
<g id="edge21" class="edge"><title>Node16&#45;&gt;Node22</title>
<path fill="none" stroke="midnightblue" d="M605.563,-137.792C607.813,-136.311 609.969,-134.717 612,-133 638.416,-110.67 620.869,-85.4553 648,-64 652.588,-60.3717 657.82,-57.4661 663.316,-55.1407"/>
<polygon fill="midnightblue" stroke="midnightblue" points="603.444,-134.971 596.485,-142.96 606.907,-141.055 603.444,-134.971"/>
</g>
<!-- Node23 -->
<g id="node23" class="node"><title>Node23</title>
<g id="a_node23"><a xlink:href="class_r_t_x_1_1_valid_range_time_series.html" target="_top" xlink:title="RTX::ValidRangeTimeSeries">
<polygon fill="white" stroke="black" points="648.726,-0 648.726,-18 791.274,-18 791.274,-0 648.726,-0"/>
<text text-anchor="middle" x="720" y="-6" font-family="Helvetica,sans-Serif" font-size="10.00">RTX::ValidRangeTimeSeries</text>
</a>
</g>
</g>
<!-- Node16&#45;&gt;Node23 -->
<g id="edge22" class="edge"><title>Node16&#45;&gt;Node23</title>
<path fill="none" stroke="midnightblue" d="M607.313,-137.114C608.954,-135.828 610.522,-134.458 612,-133 647.423,-98.0619 611.455,-60.7626 648,-27 651.923,-23.3757 656.47,-20.4562 661.33,-18.1077"/>
<polygon fill="midnightblue" stroke="midnightblue" points="604.993,-134.451 598.571,-142.878 608.847,-140.295 604.993,-134.451"/>
</g>
</g>
</svg>
        <g id="navigator" transform="translate(0 0)" fill="#404254">
                <rect fill="#f2f5e9" fill-opacity="0.5" stroke="#606060" stroke-width=".5" x="0" y="0" width="60" height="60"/>
                <use id="zoomplus" xlink:href="#zoomPlus" x="17" y="9" onmousedown="handleZoom(evt,'in')"/>
                <use id="zoomminus" xlink:href="#zoomMin" x="42" y="9" onmousedown="handleZoom(evt,'out')"/>
                <use id="reset" xlink:href="#resetDef" x="30" y="36" onmousedown="handleReset()"/>
                <g id="arrowUp" xlink:href="#dirArrow" transform="translate(30 24)" onmousedown="handlePan(0,-1)">
                  <use xlink:href="#rim" fill="#404040">
                        <set attributeName="fill" to="#808080" begin="arrowUp.mouseover" end="arrowUp.mouseout"/>
                  </use>
                  <path fill="none" stroke="white" stroke-width="1.5" d="M0,-3.0v7 M-2.5,-0.5L0,-3.0L2.5,-0.5"/>
                </g>
                <g id="arrowRight" xlink:href="#dirArrow" transform="rotate(90) translate(36 -43)" onmousedown="handlePan(1,0)">
                  <use xlink:href="#rim" fill="#404040">
                        <set attributeName="fill" to="#808080" begin="arrowRight.mouseover" end="arrowRight.mouseout"/>
                  </use>
                  <path fill="none" stroke="white" stroke-width="1.5" d="M0,-3.0v7 M-2.5,-0.5L0,-3.0L2.5,-0.5"/>
                </g>
                <g id="arrowDown" xlink:href="#dirArrow" transform="rotate(180) translate(-30 -48)" onmousedown="handlePan(0,1)">
                  <use xlink:href="#rim" fill="#404040">
                        <set attributeName="fill" to="#808080" begin="arrowDown.mouseover" end="arrowDown.mouseout"/>
                  </use>
                  <path fill="none" stroke="white" stroke-width="1.5" d="M0,-3.0v7 M-2.5,-0.5L0,-3.0L2.5,-0.5"/>
                </g>
                <g id="arrowLeft" xlink:href="#dirArrow" transform="rotate(270) translate(-36 17)" onmousedown="handlePan(-1,0)">
                  <use xlink:href="#rim" fill="#404040">
                        <set attributeName="fill" to="#808080" begin="arrowLeft.mouseover" end="arrowLeft.mouseout"/>
                  </use>
                  <path fill="none" stroke="white" stroke-width="1.5" d="M0,-3.0v7 M-2.5,-0.5L0,-3.0L2.5,-0.5"/>
                </g>
        </g>
        <svg viewBox="0 0 15 15" width="100%" height="30px" preserveAspectRatio="xMaxYMin meet">
         <g id="arrow_out" transform="scale(0.3 0.3)">
          <a xlink:href="class_r_t_x_1_1_time_series__inherit__graph_org.svg" target="_base">
           <rect id="button" ry="5" rx="5" y="6" x="6" height="38" width="38"
                fill="#f2f5e9" fill-opacity="0.5" stroke="#606060" stroke-width="1.0"/>
           <path id="arrow"
             d="M 11.500037,31.436501 C 11.940474,20.09759 22.043105,11.32322 32.158766,21.979434 L 37.068811,17.246167 C 37.068811,17.246167 37.088388,32 37.088388,32 L 22.160133,31.978069 C 22.160133,31.978069 26.997745,27.140456 26.997745,27.140456 C 18.528582,18.264221 13.291696,25.230495 11.500037,31.436501 z"
             style="fill:#404040;"/>
          </a>
         </g>
        </svg>
</svg>
