<?xml version="1.0" encoding="UTF-8" standalone="no"?>
<!DOCTYPE svg PUBLIC "-//W3C//DTD SVG 1.1//EN"
 "http://www.w3.org/Graphics/SVG/1.1/DTD/svg11.dtd">
<!-- Generated by graphviz version 2.36.0 (20140111.2315)
 -->
<!-- Title: RTX::EpanetModel Pages: 1 -->
<svg width="285pt" height="140pt"
 viewBox="0.00 0.00 285.00 140.00" xmlns="http://www.w3.org/2000/svg" xmlns:xlink="http://www.w3.org/1999/xlink">
<g id="graph0" class="graph" transform="scale(1 1) rotate(0) translate(4 136)">
<title>RTX::EpanetModel</title>
<polygon fill="white" stroke="none" points="-4,4 -4,-136 281,-136 281,4 -4,4"/>
<!-- Node1 -->
<g id="node1" class="node"><title>Node1</title>
<polygon fill="#bfbfbf" stroke="black" points="82.8442,-57 82.8442,-75 183.156,-75 183.156,-57 82.8442,-57"/>
<text text-anchor="middle" x="133" y="-63" font-family="Helvetica,sans-Serif" font-size="10.00">RTX::EpanetModel</text>
</g>
<!-- Node3 -->
<g id="node3" class="node"><title>Node3</title>
<g id="a_node3"><a xlink:href="class_r_t_x_1_1_epanet_msx_model.html" target="_top" xlink:title="RTX::EpanetMsxModel">
<polygon fill="white" stroke="black" points="-0.320801,-1 -0.320801,-19 118.321,-19 118.321,-1 -0.320801,-1"/>
<text text-anchor="middle" x="59" y="-7" font-family="Helvetica,sans-Serif" font-size="10.00">RTX::EpanetMsxModel</text>
</a>
</g>
</g>
<!-- Node1&#45;&gt;Node3 -->
<g id="edge2" class="edge"><title>Node1&#45;&gt;Node3</title>
<path fill="none" stroke="midnightblue" d="M113.441,-50.7272C99.6987,-40.6991 81.7942,-27.6336 70.3448,-19.2786"/>
<polygon fill="midnightblue" stroke="midnightblue" points="111.62,-53.7311 121.761,-56.7986 115.746,-48.0766 111.62,-53.7311"/>
</g>
<!-- Node4 -->
<g id="node4" class="node"><title>Node4</title>
<g id="a_node4"><a xlink:href="class_r_t_x_1_1_epanet_synthetic_model.html" target="_top" xlink:title="Forward&#45;simluation model object, based on epanet engine. ">
<polygon fill="white" stroke="black" points="136.278,-1 136.278,-19 277.722,-19 277.722,-1 136.278,-1"/>
<text text-anchor="middle" x="207" y="-7" font-family="Helvetica,sans-Serif" font-size="10.00">RTX::EpanetSyntheticModel</text>
</a>
</g>
</g>
<!-- Node1&#45;&gt;Node4 -->
<g id="edge3" class="edge"><title>Node1&#45;&gt;Node4</title>
<path fill="none" stroke="midnightblue" d="M152.559,-50.7272C166.301,-40.6991 184.206,-27.6336 195.655,-19.2786"/>
<polygon fill="midnightblue" stroke="midnightblue" points="150.254,-48.0766 144.239,-56.7986 154.38,-53.7311 150.254,-48.0766"/>
</g>
<!-- Node2 -->
<g id="node2" class="node"><title>Node2</title>
<g id="a_node2"><a xlink:href="class_r_t_x_1_1_model.html" target="_top" xlink:title="A hydraulic / water quality model abstraction. ">
<polygon fill="white" stroke="black" points="98.6914,-113 98.6914,-131 167.309,-131 167.309,-113 98.6914,-113"/>
<text text-anchor="middle" x="133" y="-119" font-family="Helvetica,sans-Serif" font-size="10.00">RTX::Model</text>
</a>
</g>
</g>
<!-- Node2&#45;&gt;Node1 -->
<g id="edge1" class="edge"><title>Node2&#45;&gt;Node1</title>
<path fill="none" stroke="midnightblue" d="M133,-102.329C133,-93.0774 133,-82.3798 133,-75.2014"/>
<polygon fill="midnightblue" stroke="midnightblue" points="129.5,-102.562 133,-112.562 136.5,-102.563 129.5,-102.562"/>
</g>
</g>
</svg>
