<?xml version="1.0" encoding="UTF-8" standalone="no"?>
<!DOCTYPE svg PUBLIC "-//W3C//DTD SVG 1.1//EN"
 "http://www.w3.org/Graphics/SVG/1.1/DTD/svg11.dtd">
<!-- Generated by graphviz version 2.28.0 (20110509.1545)
 -->
<!-- Title: RTX::TsdbPointRecord Pages: 1 -->
<svg width="470pt" height="466pt"
 viewBox="0.00 0.00 470.38 466.00" xmlns="http://www.w3.org/2000/svg" xmlns:xlink="http://www.w3.org/1999/xlink">
<g id="graph1" class="graph" transform="scale(1 1) rotate(0) translate(4 462)">
<title>RTX::TsdbPointRecord</title>
<polygon fill="white" stroke="white" points="-4,5 -4,-462 467.379,-462 467.379,5 -4,5"/>
<!-- Node1 -->
<g id="node1" class="node"><title>Node1</title>
<polygon fill="#bfbfbf" stroke="black" points="65.2334,-1 65.2334,-21 182.767,-21 182.767,-1 65.2334,-1"/>
<text text-anchor="middle" x="124" y="-7" font-family="Helvetica,sans-Serif" font-size="10.00">RTX::TsdbPointRecord</text>
</g>
<!-- Node2 -->
<g id="node2" class="node"><title>Node2</title>
<a xlink:href="class_r_t_x_1_1_db_point_record.html" target="_top" xlink:title="A persistence layer for databases. ">
<polygon fill="white" stroke="black" points="69.4033,-61 69.4033,-81 178.597,-81 178.597,-61 69.4033,-61"/>
<text text-anchor="middle" x="124" y="-67" font-family="Helvetica,sans-Serif" font-size="10.00">RTX::DbPointRecord</text>
</a>
</g>
<!-- Node2&#45;&gt;Node1 -->
<g id="edge2" class="edge"><title>Node2&#45;&gt;Node1</title>
<path fill="none" stroke="midnightblue" d="M124,-50.7309C124,-40.7807 124,-29.1016 124,-21.1903"/>
<polygon fill="midnightblue" stroke="midnightblue" points="120.5,-50.9375 124,-60.9375 127.5,-50.9375 120.5,-50.9375"/>
</g>
<!-- Node3 -->
<g id="node4" class="node"><title>Node3</title>
<a xlink:href="class_r_t_x_1_1_buffer_point_record.html" target="_top" xlink:title="RTX::BufferPointRecord">
<polygon fill="white" stroke="black" points="165.543,-121 165.543,-141 288.457,-141 288.457,-121 165.543,-121"/>
<text text-anchor="middle" x="227" y="-127" font-family="Helvetica,sans-Serif" font-size="10.00">RTX::BufferPointRecord</text>
</a>
</g>
<!-- Node3&#45;&gt;Node2 -->
<g id="edge4" class="edge"><title>Node3&#45;&gt;Node2</title>
<path fill="none" stroke="midnightblue" d="M202.104,-115.981C182.917,-105.176 156.938,-90.5478 140.321,-81.1903"/>
<polygon fill="midnightblue" stroke="midnightblue" points="200.475,-119.081 210.906,-120.938 203.91,-112.981 200.475,-119.081"/>
</g>
<!-- Node4 -->
<g id="node6" class="node"><title>Node4</title>
<a xlink:href="class_r_t_x_1_1_point_record.html" target="_top" xlink:title="A Point Record Class for storing and retrieving Points. ">
<polygon fill="white" stroke="black" points="221.795,-191 221.795,-211 318.205,-211 318.205,-191 221.795,-191"/>
<text text-anchor="middle" x="270" y="-197" font-family="Helvetica,sans-Serif" font-size="10.00">RTX::PointRecord</text>
</a>
</g>
<!-- Node4&#45;&gt;Node3 -->
<g id="edge6" class="edge"><title>Node4&#45;&gt;Node3</title>
<path fill="none" stroke="midnightblue" d="M258.69,-182.115C250.334,-168.901 239.307,-151.463 232.707,-141.025"/>
<polygon fill="midnightblue" stroke="midnightblue" points="255.898,-184.248 264.201,-190.829 261.814,-180.507 255.898,-184.248"/>
</g>
<!-- Node5 -->
<g id="node8" class="node"><title>Node5</title>
<polygon fill="white" stroke="#bfbfbf" points="259.452,-283 259.452,-315 368.548,-315 368.548,-283 259.452,-283"/>
<text text-anchor="start" x="267.452" y="-301" font-family="Helvetica,sans-Serif" font-size="10.00">std::map&lt; std::string,</text>
<text text-anchor="middle" x="314" y="-289" font-family="Helvetica,sans-Serif" font-size="10.00"> RTX::Point &gt;</text>
</g>
<!-- Node5&#45;&gt;Node4 -->
<g id="edge8" class="edge"><title>Node5&#45;&gt;Node4</title>
<path fill="none" stroke="#9a32cd" stroke-dasharray="5,2" d="M302.66,-273.258C293.321,-252.882 280.603,-225.133 274.139,-211.03"/>
<polygon fill="#9a32cd" stroke="#9a32cd" points="299.582,-274.944 306.931,-282.576 305.946,-272.027 299.582,-274.944"/>
<text text-anchor="middle" x="326.465" y="-243" font-family="Helvetica,sans-Serif" font-size="10.00"> _pointCache</text>
</g>
<!-- Node6 -->
<g id="node10" class="node"><title>Node6</title>
<a xlink:title="STL class. ">
<polygon fill="white" stroke="#bfbfbf" points="117.325,-365 117.325,-385 176.675,-385 176.675,-365 117.325,-365"/>
<text text-anchor="middle" x="147" y="-371" font-family="Helvetica,sans-Serif" font-size="10.00">std::string</text>
</a>
</g>
<!-- Node6&#45;&gt;Node2 -->
<g id="edge24" class="edge"><title>Node6&#45;&gt;Node2</title>
<path fill="none" stroke="#9a32cd" stroke-dasharray="5,2" d="M137.757,-355.283C131.363,-340.611 124,-319.486 124,-300 124,-300 124,-300 124,-130 124,-112.681 124,-92.452 124,-81.0417"/>
<polygon fill="#9a32cd" stroke="#9a32cd" points="134.744,-357.106 142.122,-364.709 141.096,-354.164 134.744,-357.106"/>
<text text-anchor="middle" x="156.234" y="-197" font-family="Helvetica,sans-Serif" font-size="10.00"> errorMessage</text>
</g>
<!-- Node6&#45;&gt;Node4 -->
<g id="edge16" class="edge"><title>Node6&#45;&gt;Node4</title>
<path fill="none" stroke="#9a32cd" stroke-dasharray="5,2" d="M150.392,-355.111C154.568,-335.546 163.053,-304.712 178.281,-282 199.226,-250.761 235.387,-224.287 255.478,-211.055"/>
<polygon fill="#9a32cd" stroke="#9a32cd" points="146.955,-354.453 148.457,-364.941 153.823,-355.805 146.955,-354.453"/>
<text text-anchor="middle" x="214.859" y="-295" font-family="Helvetica,sans-Serif" font-size="10.00"> _cachedPointId</text>
</g>
<!-- Node6&#45;&gt;Node5 -->
<g id="edge10" class="edge"><title>Node6&#45;&gt;Node5</title>
<path fill="none" stroke="#9a32cd" stroke-dasharray="5,2" d="M176.683,-360.847C205.651,-348.011 249.677,-328.503 280.029,-315.053"/>
<polygon fill="#9a32cd" stroke="#9a32cd" points="175.202,-357.675 167.477,-364.926 178.038,-364.075 175.202,-357.675"/>
<text text-anchor="middle" x="247.67" y="-336" font-family="Helvetica,sans-Serif" font-size="10.00"> keys</text>
</g>
<!-- Node9 -->
<g id="node18" class="node"><title>Node9</title>
<a xlink:href="class_r_t_x_1_1_db_point_record_1_1request__t.html" target="_top" xlink:title="RTX::DbPointRecord\l::request_t">
<polygon fill="white" stroke="black" points="-0.59668,-231 -0.59668,-263 108.597,-263 108.597,-231 -0.59668,-231"/>
<text text-anchor="start" x="7.40332" y="-249" font-family="Helvetica,sans-Serif" font-size="10.00">RTX::DbPointRecord</text>
<text text-anchor="middle" x="54" y="-237" font-family="Helvetica,sans-Serif" font-size="10.00">::request_t</text>
</a>
</g>
<!-- Node6&#45;&gt;Node9 -->
<g id="edge22" class="edge"><title>Node6&#45;&gt;Node9</title>
<path fill="none" stroke="#9a32cd" stroke-dasharray="5,2" d="M116.594,-359.825C110.387,-355.963 104.281,-351.342 99.4385,-346 77.1436,-321.408 63.9568,-283.974 57.9413,-263.212"/>
<polygon fill="#9a32cd" stroke="#9a32cd" points="115.199,-363.057 125.625,-364.936 118.646,-356.965 115.199,-363.057"/>
<text text-anchor="middle" x="105.281" y="-336" font-family="Helvetica,sans-Serif" font-size="10.00"> id</text>
</g>
<!-- Node7 -->
<g id="node12" class="node"><title>Node7</title>
<a xlink:title="STL class. ">
<polygon fill="white" stroke="#bfbfbf" points="99.9521,-425 99.9521,-457 194.048,-457 194.048,-425 99.9521,-425"/>
<text text-anchor="start" x="107.952" y="-443" font-family="Helvetica,sans-Serif" font-size="10.00">std::basic_string&lt;</text>
<text text-anchor="middle" x="147" y="-431" font-family="Helvetica,sans-Serif" font-size="10.00"> char &gt;</text>
</a>
</g>
<!-- Node7&#45;&gt;Node6 -->
<g id="edge12" class="edge"><title>Node7&#45;&gt;Node6</title>
<path fill="none" stroke="midnightblue" d="M147,-414.611C147,-404.286 147,-393.001 147,-385.313"/>
<polygon fill="midnightblue" stroke="midnightblue" points="143.5,-414.833 147,-424.833 150.5,-414.833 143.5,-414.833"/>
</g>
<!-- Node8 -->
<g id="node14" class="node"><title>Node8</title>
<a xlink:href="class_r_t_x_1_1_point.html" target="_top" xlink:title="A Point Class to store data tuples (date, value, quality, confidence) ">
<polygon fill="white" stroke="black" points="334.913,-365 334.913,-385 399.087,-385 399.087,-365 334.913,-365"/>
<text text-anchor="middle" x="367" y="-371" font-family="Helvetica,sans-Serif" font-size="10.00">RTX::Point</text>
</a>
</g>
<!-- Node8&#45;&gt;Node4 -->
<g id="edge18" class="edge"><title>Node8&#45;&gt;Node4</title>
<path fill="none" stroke="#9a32cd" stroke-dasharray="5,2" d="M384.659,-357.114C387.255,-353.701 389.542,-349.941 391,-346 409.555,-295.841 397.351,-267.275 359,-230 347.965,-219.275 332.864,-212.654 318.234,-208.568"/>
<polygon fill="#9a32cd" stroke="#9a32cd" points="381.872,-354.982 377.867,-364.79 387.115,-359.62 381.872,-354.982"/>
<text text-anchor="middle" x="430.689" y="-295" font-family="Helvetica,sans-Serif" font-size="10.00"> _cachedPoint</text>
</g>
<!-- Node8&#45;&gt;Node5 -->
<g id="edge14" class="edge"><title>Node8&#45;&gt;Node5</title>
<path fill="none" stroke="#9a32cd" stroke-dasharray="5,2" d="M354.556,-356.625C345.517,-344.006 333.409,-327.099 324.781,-315.053"/>
<polygon fill="#9a32cd" stroke="#9a32cd" points="351.833,-358.834 360.501,-364.926 357.524,-354.758 351.833,-358.834"/>
<text text-anchor="middle" x="367.677" y="-336" font-family="Helvetica,sans-Serif" font-size="10.00"> elements</text>
</g>
<!-- Node9&#45;&gt;Node2 -->
<g id="edge20" class="edge"><title>Node9&#45;&gt;Node2</title>
<path fill="none" stroke="#9a32cd" stroke-dasharray="5,2" d="M57.847,-220.696C60.978,-203.25 66.1557,-179.739 73.8672,-160 85.7678,-129.538 106.84,-96.8863 117.474,-81.3077"/>
<polygon fill="#9a32cd" stroke="#9a32cd" points="54.3739,-220.244 56.1576,-230.687 61.2759,-221.411 54.3739,-220.244"/>
<text text-anchor="middle" x="92.0664" y="-162" font-family="Helvetica,sans-Serif" font-size="10.00"> request</text>
</g>
</g>
</svg>
