<?xml version="1.0" encoding="UTF-8" standalone="no"?>
<!DOCTYPE svg PUBLIC "-//W3C//DTD SVG 1.1//EN"
 "http://www.w3.org/Graphics/SVG/1.1/DTD/svg11.dtd">
<!-- Generated by graphviz version 2.28.0 (20110509.1545)
 -->
<!-- Title: RTX::SinglePointFilterModularTimeSeries Pages: 1 -->
<svg width="796pt" height="262pt"
 viewBox="0.00 0.00 796.00 262.00" xmlns="http://www.w3.org/2000/svg" xmlns:xlink="http://www.w3.org/1999/xlink">
<g id="graph1" class="graph" transform="scale(1 1) rotate(0) translate(4 258)">
<title>RTX::SinglePointFilterModularTimeSeries</title>
<polygon fill="white" stroke="white" points="-4,5 -4,-258 793,-258 793,5 -4,5"/>
<!-- Node1 -->
<g id="node1" class="node"><title>Node1</title>
<polygon fill="#bfbfbf" stroke="black" points="457.839,-111 457.839,-143 608.161,-143 608.161,-111 457.839,-111"/>
<text text-anchor="start" x="465.839" y="-129" font-family="Helvetica,sans-Serif" font-size="10.00">RTX::SinglePointFilterModular</text>
<text text-anchor="middle" x="533" y="-117" font-family="Helvetica,sans-Serif" font-size="10.00">TimeSeries</text>
</g>
<!-- Node5 -->
<g id="node9" class="node"><title>Node5</title>
<a xlink:href="class_r_t_x_1_1_gain_time_series.html" target="_top" xlink:title="RTX::GainTimeSeries">
<polygon fill="white" stroke="black" points="659.648,-234 659.648,-254 772.352,-254 772.352,-234 659.648,-234"/>
<text text-anchor="middle" x="716" y="-240" font-family="Helvetica,sans-Serif" font-size="10.00">RTX::GainTimeSeries</text>
</a>
</g>
<!-- Node1&#45;&gt;Node5 -->
<g id="edge8" class="edge"><title>Node1&#45;&gt;Node5</title>
<path fill="none" stroke="midnightblue" d="M554.976,-150.828C575.58,-172.834 608.948,-204.914 644,-224 651.423,-228.042 659.738,-231.329 667.991,-233.982"/>
<polygon fill="midnightblue" stroke="midnightblue" points="557.326,-148.213 547.983,-143.219 552.173,-152.95 557.326,-148.213"/>
</g>
<!-- Node6 -->
<g id="node11" class="node"><title>Node6</title>
<a xlink:href="class_r_t_x_1_1_inversion_time_series.html" target="_top" xlink:title="RTX::InversionTimeSeries">
<polygon fill="white" stroke="black" points="649.921,-195 649.921,-215 782.079,-215 782.079,-195 649.921,-195"/>
<text text-anchor="middle" x="716" y="-201" font-family="Helvetica,sans-Serif" font-size="10.00">RTX::InversionTimeSeries</text>
</a>
</g>
<!-- Node1&#45;&gt;Node6 -->
<g id="edge10" class="edge"><title>Node1&#45;&gt;Node6</title>
<path fill="none" stroke="midnightblue" d="M569.727,-148.3C590.814,-160.241 618.326,-174.748 644,-185 653.396,-188.752 663.754,-192.092 673.585,-194.919"/>
<polygon fill="midnightblue" stroke="midnightblue" points="571.23,-145.128 560.814,-143.19 567.748,-151.2 571.23,-145.128"/>
</g>
<!-- Node7 -->
<g id="node13" class="node"><title>Node7</title>
<a xlink:href="class_r_t_x_1_1_multiplier_time_series.html" target="_top" xlink:title="RTX::MultiplierTimeSeries">
<polygon fill="white" stroke="black" points="650.205,-156 650.205,-176 781.795,-176 781.795,-156 650.205,-156"/>
<text text-anchor="middle" x="716" y="-162" font-family="Helvetica,sans-Serif" font-size="10.00">RTX::MultiplierTimeSeries</text>
</a>
</g>
<!-- Node1&#45;&gt;Node7 -->
<g id="edge12" class="edge"><title>Node1&#45;&gt;Node7</title>
<path fill="none" stroke="midnightblue" d="M618.456,-145.198C635.62,-148.896 653.075,-152.657 668.337,-155.945"/>
<polygon fill="midnightblue" stroke="midnightblue" points="618.916,-141.717 608.403,-143.032 617.442,-148.56 618.916,-141.717"/>
</g>
<!-- Node8 -->
<g id="node15" class="node"><title>Node8</title>
<a xlink:href="class_r_t_x_1_1_offset_time_series.html" target="_top" xlink:title="RTX::OffsetTimeSeries">
<polygon fill="white" stroke="black" points="656.96,-117 656.96,-137 775.04,-137 775.04,-117 656.96,-117"/>
<text text-anchor="middle" x="716" y="-123" font-family="Helvetica,sans-Serif" font-size="10.00">RTX::OffsetTimeSeries</text>
</a>
</g>
<!-- Node1&#45;&gt;Node8 -->
<g id="edge14" class="edge"><title>Node1&#45;&gt;Node8</title>
<path fill="none" stroke="midnightblue" d="M618.72,-127C631.652,-127 644.742,-127 656.928,-127"/>
<polygon fill="midnightblue" stroke="midnightblue" points="618.403,-123.5 608.403,-127 618.403,-130.5 618.403,-123.5"/>
</g>
<!-- Node9 -->
<g id="node17" class="node"><title>Node9</title>
<a xlink:href="class_r_t_x_1_1_threshold_time_series.html" target="_top" xlink:title="A Status Class to map the input time series into binary status based on a threshold. ">
<polygon fill="white" stroke="black" points="647.976,-78 647.976,-98 784.024,-98 784.024,-78 647.976,-78"/>
<text text-anchor="middle" x="716" y="-84" font-family="Helvetica,sans-Serif" font-size="10.00">RTX::ThresholdTimeSeries</text>
</a>
</g>
<!-- Node1&#45;&gt;Node9 -->
<g id="edge16" class="edge"><title>Node1&#45;&gt;Node9</title>
<path fill="none" stroke="midnightblue" d="M618.456,-108.802C635.62,-105.104 653.075,-101.343 668.337,-98.0546"/>
<polygon fill="midnightblue" stroke="midnightblue" points="617.442,-105.44 608.403,-110.968 618.916,-112.283 617.442,-105.44"/>
</g>
<!-- Node10 -->
<g id="node19" class="node"><title>Node10</title>
<a xlink:href="class_r_t_x_1_1_time_offset_time_series.html" target="_top" xlink:title="RTX::TimeOffsetTimeSeries">
<polygon fill="white" stroke="black" points="646.032,-39 646.032,-59 785.968,-59 785.968,-39 646.032,-39"/>
<text text-anchor="middle" x="716" y="-45" font-family="Helvetica,sans-Serif" font-size="10.00">RTX::TimeOffsetTimeSeries</text>
</a>
</g>
<!-- Node1&#45;&gt;Node10 -->
<g id="edge18" class="edge"><title>Node1&#45;&gt;Node10</title>
<path fill="none" stroke="midnightblue" d="M568.491,-105.833C589.687,-93.5078 617.73,-78.3982 644,-68 652.542,-64.6187 661.896,-61.6365 670.929,-59.0963"/>
<polygon fill="midnightblue" stroke="midnightblue" points="566.691,-102.831 559.851,-110.923 570.244,-108.862 566.691,-102.831"/>
</g>
<!-- Node11 -->
<g id="node21" class="node"><title>Node11</title>
<a xlink:href="class_r_t_x_1_1_valid_range_time_series.html" target="_top" xlink:title="RTX::ValidRangeTimeSeries">
<polygon fill="white" stroke="black" points="644.726,-0 644.726,-20 787.274,-20 787.274,-0 644.726,-0"/>
<text text-anchor="middle" x="716" y="-6" font-family="Helvetica,sans-Serif" font-size="10.00">RTX::ValidRangeTimeSeries</text>
</a>
</g>
<!-- Node1&#45;&gt;Node11 -->
<g id="edge20" class="edge"><title>Node1&#45;&gt;Node11</title>
<path fill="none" stroke="midnightblue" d="M554.521,-103.192C575.02,-80.8682 608.513,-48.1397 644,-29 650.626,-25.4262 657.969,-22.4905 665.347,-20.0886"/>
<polygon fill="midnightblue" stroke="midnightblue" points="551.669,-101.129 547.577,-110.902 556.87,-105.814 551.669,-101.129"/>
</g>
<!-- Node2 -->
<g id="node2" class="node"><title>Node2</title>
<a xlink:href="class_r_t_x_1_1_modular_time_series.html" target="_top" xlink:title="A Time Series class that allows a single upstream TimeSeries. ">
<polygon fill="white" stroke="black" points="294.146,-117 294.146,-137 421.854,-137 421.854,-117 294.146,-117"/>
<text text-anchor="middle" x="358" y="-123" font-family="Helvetica,sans-Serif" font-size="10.00">RTX::ModularTimeSeries</text>
</a>
</g>
<!-- Node2&#45;&gt;Node1 -->
<g id="edge2" class="edge"><title>Node2&#45;&gt;Node1</title>
<path fill="none" stroke="midnightblue" d="M432.131,-127C440.569,-127 449.182,-127 457.636,-127"/>
<polygon fill="midnightblue" stroke="midnightblue" points="431.946,-123.5 421.946,-127 431.946,-130.5 431.946,-123.5"/>
</g>
<!-- Node3 -->
<g id="node4" class="node"><title>Node3</title>
<a xlink:href="class_r_t_x_1_1_time_series.html" target="_top" xlink:title="An abstraction of Points ordered in time. ">
<polygon fill="white" stroke="black" points="166.209,-117 166.209,-137 257.791,-137 257.791,-117 166.209,-117"/>
<text text-anchor="middle" x="212" y="-123" font-family="Helvetica,sans-Serif" font-size="10.00">RTX::TimeSeries</text>
</a>
</g>
<!-- Node3&#45;&gt;Node2 -->
<g id="edge4" class="edge"><title>Node3&#45;&gt;Node2</title>
<path fill="none" stroke="midnightblue" d="M268.266,-127C276.705,-127 285.468,-127 294.057,-127"/>
<polygon fill="midnightblue" stroke="midnightblue" points="268.167,-123.5 258.167,-127 268.167,-130.5 268.167,-123.5"/>
</g>
<!-- Node4 -->
<g id="node6" class="node"><title>Node4</title>
<polygon fill="white" stroke="#bfbfbf" points="0.0273438,-111 0.0273438,-143 129.973,-143 129.973,-111 0.0273438,-111"/>
<text text-anchor="start" x="8.02734" y="-129" font-family="Helvetica,sans-Serif" font-size="10.00">boost::enable_shared</text>
<text text-anchor="middle" x="65" y="-117" font-family="Helvetica,sans-Serif" font-size="10.00">_from_this&lt; TimeSeries &gt;</text>
</g>
<!-- Node4&#45;&gt;Node3 -->
<g id="edge6" class="edge"><title>Node4&#45;&gt;Node3</title>
<path fill="none" stroke="midnightblue" d="M140.022,-127C148.894,-127 157.736,-127 166.015,-127"/>
<polygon fill="midnightblue" stroke="midnightblue" points="140.021,-123.5 130.021,-127 140.021,-130.5 140.021,-123.5"/>
</g>
</g>
</svg>
