<?xml version="1.0" encoding="UTF-8" standalone="no"?>
<!DOCTYPE svg PUBLIC "-//W3C//DTD SVG 1.1//EN"
 "http://www.w3.org/Graphics/SVG/1.1/DTD/svg11.dtd">
<!-- Generated by graphviz version 2.28.0 (20110509.1545)
 -->
<!-- Title: RTX::TimeSeries::Statistics Pages: 1 -->
<svg width="144pt" height="112pt"
 viewBox="0.00 0.00 144.00 112.00" xmlns="http://www.w3.org/2000/svg" xmlns:xlink="http://www.w3.org/1999/xlink">
<g id="graph1" class="graph" transform="scale(1 1) rotate(0) translate(4 108)">
<title>RTX::TimeSeries::Statistics</title>
<polygon fill="white" stroke="white" points="-4,5 -4,-108 141,-108 141,5 -4,5"/>
<!-- Node1 -->
<g id="node1" class="node"><title>Node1</title>
<polygon fill="#bfbfbf" stroke="black" points="-0.57373,-1 -0.57373,-21 136.574,-21 136.574,-1 -0.57373,-1"/>
<text text-anchor="middle" x="68" y="-7" font-family="Helvetica,sans-Serif" font-size="10.00">RTX::TimeSeries::Statistics</text>
</g>
<!-- Node2 -->
<g id="node2" class="node"><title>Node2</title>
<a xlink:href="struct_r_t_x_1_1_time_series_1_1_statistics_1_1quartiles__t.html" target="_top" xlink:title="RTX::TimeSeries::Statistics\l::quartiles_t">
<polygon fill="white" stroke="black" points="-0.57373,-71 -0.57373,-103 136.574,-103 136.574,-71 -0.57373,-71"/>
<text text-anchor="start" x="7.42627" y="-89" font-family="Helvetica,sans-Serif" font-size="10.00">RTX::TimeSeries::Statistics</text>
<text text-anchor="middle" x="68" y="-77" font-family="Helvetica,sans-Serif" font-size="10.00">::quartiles_t</text>
</a>
</g>
<!-- Node2&#45;&gt;Node1 -->
<g id="edge2" class="edge"><title>Node2&#45;&gt;Node1</title>
<path fill="none" stroke="#9a32cd" stroke-dasharray="5,2" d="M68,-60.4304C68,-46.8589 68,-31.0122 68,-21.2412"/>
<polygon fill="#9a32cd" stroke="#9a32cd" points="64.5001,-60.6671 68,-70.6672 71.5001,-60.6672 64.5001,-60.6671"/>
<text text-anchor="middle" x="88.2881" y="-42" font-family="Helvetica,sans-Serif" font-size="10.00"> quartiles</text>
</g>
</g>
</svg>
