<?xml version="1.0" encoding="UTF-8" standalone="no"?>
<!DOCTYPE svg PUBLIC "-//W3C//DTD SVG 1.1//EN"
 "http://www.w3.org/Graphics/SVG/1.1/DTD/svg11.dtd">
<!-- Generated by graphviz version 2.36.0 (20140111.2315)
 -->
<!-- Title: RTX::PointRecord Pages: 1 -->
<svg width="309pt" height="238pt"
 viewBox="0.00 0.00 309.38 238.00" xmlns="http://www.w3.org/2000/svg" xmlns:xlink="http://www.w3.org/1999/xlink">
<g id="graph0" class="graph" transform="scale(1 1) rotate(0) translate(4 234)">
<title>RTX::PointRecord</title>
<polygon fill="white" stroke="none" points="-4,4 -4,-234 305.379,-234 305.379,4 -4,4"/>
<!-- Node1 -->
<g id="node1" class="node"><title>Node1</title>
<polygon fill="#bfbfbf" stroke="black" points="93.7949,-1 93.7949,-19 190.205,-19 190.205,-1 93.7949,-1"/>
<text text-anchor="middle" x="142" y="-7" font-family="Helvetica,sans-Serif" font-size="10.00">RTX::PointRecord</text>
</g>
<!-- Node2 -->
<g id="node2" class="node"><title>Node2</title>
<polygon fill="white" stroke="#bfbfbf" points="87.4521,-67 87.4521,-95 196.548,-95 196.548,-67 87.4521,-67"/>
<text text-anchor="start" x="95.4521" y="-83" font-family="Helvetica,sans-Serif" font-size="10.00">std::map&lt; std::string,</text>
<text text-anchor="middle" x="142" y="-73" font-family="Helvetica,sans-Serif" font-size="10.00"> RTX::Point &gt;</text>
</g>
<!-- Node2&#45;&gt;Node1 -->
<g id="edge1" class="edge"><title>Node2&#45;&gt;Node1</title>
<path fill="none" stroke="#9a32cd" stroke-dasharray="5,2" d="M142,-56.5239C142,-43.5404 142,-28.2294 142,-19.0841"/>
<polygon fill="#9a32cd" stroke="#9a32cd" points="138.5,-56.6961 142,-66.6961 145.5,-56.6961 138.5,-56.6961"/>
<text text-anchor="middle" x="171.465" y="-40" font-family="Helvetica,sans-Serif" font-size="10.00"> _pointCache</text>
</g>
<!-- Node3 -->
<g id="node3" class="node"><title>Node3</title>
<g id="a_node3"><a xlink:title="STL class. ">
<polygon fill="white" stroke="#bfbfbf" points="17.3252,-143 17.3252,-161 76.6748,-161 76.6748,-143 17.3252,-143"/>
<text text-anchor="middle" x="47" y="-149" font-family="Helvetica,sans-Serif" font-size="10.00">std::string</text>
</a>
</g>
</g>
<!-- Node3&#45;&gt;Node1 -->
<g id="edge5" class="edge"><title>Node3&#45;&gt;Node1</title>
<path fill="none" stroke="#9a32cd" stroke-dasharray="5,2" d="M30.2342,-135.656C13.0896,-118.058 -9.02085,-88.712 6.28125,-66 25.6719,-37.2196 62.9698,-23.494 93.5657,-16.9511"/>
<polygon fill="#9a32cd" stroke="#9a32cd" points="28.0069,-138.373 37.6097,-142.849 32.8942,-133.361 28.0069,-138.373"/>
<text text-anchor="middle" x="42.8594" y="-78" font-family="Helvetica,sans-Serif" font-size="10.00"> _cachedPointId</text>
</g>
<!-- Node3&#45;&gt;Node2 -->
<g id="edge2" class="edge"><title>Node3&#45;&gt;Node2</title>
<path fill="none" stroke="#9a32cd" stroke-dasharray="5,2" d="M66.7959,-136.622C83.6322,-124.393 107.607,-106.98 123.93,-95.1243"/>
<polygon fill="#9a32cd" stroke="#9a32cd" points="64.305,-134.105 58.2708,-142.814 68.4187,-139.769 64.305,-134.105"/>
<text text-anchor="middle" x="109.67" y="-116" font-family="Helvetica,sans-Serif" font-size="10.00"> keys</text>
</g>
<!-- Node4 -->
<g id="node4" class="node"><title>Node4</title>
<g id="a_node4"><a xlink:title="STL class. ">
<polygon fill="white" stroke="#bfbfbf" points="-0.0478516,-201 -0.0478516,-229 94.0479,-229 94.0479,-201 -0.0478516,-201"/>
<text text-anchor="start" x="7.95215" y="-217" font-family="Helvetica,sans-Serif" font-size="10.00">std::basic_string&lt;</text>
<text text-anchor="middle" x="47" y="-207" font-family="Helvetica,sans-Serif" font-size="10.00"> char &gt;</text>
</a>
</g>
</g>
<!-- Node4&#45;&gt;Node3 -->
<g id="edge3" class="edge"><title>Node4&#45;&gt;Node3</title>
<path fill="none" stroke="midnightblue" d="M47,-190.588C47,-180.213 47,-168.68 47,-161.159"/>
<polygon fill="midnightblue" stroke="midnightblue" points="43.5001,-190.764 47,-200.764 50.5001,-190.764 43.5001,-190.764"/>
</g>
<!-- Node5 -->
<g id="node5" class="node"><title>Node5</title>
<g id="a_node5"><a xlink:href="class_r_t_x_1_1_point.html" target="_top" xlink:title="A Point Class to store data tuples (date, value, quality, confidence) ">
<polygon fill="white" stroke="black" points="142.913,-143 142.913,-161 207.087,-161 207.087,-143 142.913,-143"/>
<text text-anchor="middle" x="175" y="-149" font-family="Helvetica,sans-Serif" font-size="10.00">RTX::Point</text>
</a>
</g>
</g>
<!-- Node5&#45;&gt;Node1 -->
<g id="edge6" class="edge"><title>Node5&#45;&gt;Node1</title>
<path fill="none" stroke="#9a32cd" stroke-dasharray="5,2" d="M198.803,-136.766C202.928,-133.15 206.643,-128.881 209,-124 218.904,-103.488 272.476,-135.375 204,-38 197.719,-29.0688 187.82,-23.0634 177.759,-19.0367"/>
<polygon fill="#9a32cd" stroke="#9a32cd" points="196.518,-134.105 190.617,-142.904 200.717,-139.705 196.518,-134.105"/>
<text text-anchor="middle" x="269.689" y="-78" font-family="Helvetica,sans-Serif" font-size="10.00"> _cachedPoint</text>
</g>
<!-- Node5&#45;&gt;Node2 -->
<g id="edge4" class="edge"><title>Node5&#45;&gt;Node2</title>
<path fill="none" stroke="#9a32cd" stroke-dasharray="5,2" d="M166.613,-133.463C160.906,-121.53 153.474,-105.992 148.277,-95.1243"/>
<polygon fill="#9a32cd" stroke="#9a32cd" points="163.613,-135.303 171.085,-142.814 169.928,-132.282 163.613,-135.303"/>
<text text-anchor="middle" x="183.677" y="-116" font-family="Helvetica,sans-Serif" font-size="10.00"> elements</text>
</g>
</g>
</svg>
