<?xml version="1.0" encoding="UTF-8" standalone="no"?>
<!DOCTYPE svg PUBLIC "-//W3C//DTD SVG 1.1//EN"
 "http://www.w3.org/Graphics/SVG/1.1/DTD/svg11.dtd">
<!-- Generated by graphviz version 2.28.0 (20110509.1545)
 -->
<!-- Title: RTX::OdbcPointRecord::OdbcQuery Pages: 1 -->
<svg width="201pt" height="256pt"
 viewBox="0.00 0.00 201.00 256.00" xmlns="http://www.w3.org/2000/svg" xmlns:xlink="http://www.w3.org/1999/xlink">
<g id="graph1" class="graph" transform="scale(1 1) rotate(0) translate(4 252)">
<title>RTX::OdbcPointRecord::OdbcQuery</title>
<polygon fill="white" stroke="white" points="-4,5 -4,-252 198,-252 198,5 -4,5"/>
<!-- Node1 -->
<g id="node1" class="node"><title>Node1</title>
<polygon fill="#bfbfbf" stroke="black" points="35.8442,-1 35.8442,-33 156.156,-33 156.156,-1 35.8442,-1"/>
<text text-anchor="start" x="43.8442" y="-19" font-family="Helvetica,sans-Serif" font-size="10.00">RTX::OdbcPointRecord</text>
<text text-anchor="middle" x="96" y="-7" font-family="Helvetica,sans-Serif" font-size="10.00">::OdbcQuery</text>
</g>
<!-- Node2 -->
<g id="node2" class="node"><title>Node2</title>
<a xlink:title="STL class. ">
<polygon fill="white" stroke="#bfbfbf" points="17.3252,-149 17.3252,-169 76.6748,-169 76.6748,-149 17.3252,-149"/>
<text text-anchor="middle" x="47" y="-155" font-family="Helvetica,sans-Serif" font-size="10.00">std::string</text>
</a>
</g>
<!-- Node2&#45;&gt;Node1 -->
<g id="edge2" class="edge"><title>Node2&#45;&gt;Node1</title>
<path fill="none" stroke="#9a32cd" stroke-dasharray="5,2" d="M42.0746,-138.955C37.4061,-116.716 33.031,-79.4797 47.4092,-52 51.4187,-44.337 58.0286,-38.0421 65.1006,-33.0427"/>
<polygon fill="#9a32cd" stroke="#9a32cd" points="38.6963,-139.88 44.377,-148.823 45.5132,-138.289 38.6963,-139.88"/>
<text text-anchor="middle" x="83.2954" y="-114" font-family="Helvetica,sans-Serif" font-size="10.00"> singleSelect</text>
<text text-anchor="middle" x="83.2954" y="-102" font-family="Helvetica,sans-Serif" font-size="10.00">rangeSelect</text>
<text text-anchor="middle" x="83.2954" y="-90" font-family="Helvetica,sans-Serif" font-size="10.00">connectorName</text>
<text text-anchor="middle" x="83.2954" y="-78" font-family="Helvetica,sans-Serif" font-size="10.00">lowerBound</text>
<text text-anchor="middle" x="83.2954" y="-66" font-family="Helvetica,sans-Serif" font-size="10.00">upperBound</text>
<text text-anchor="middle" x="83.2954" y="-54" font-family="Helvetica,sans-Serif" font-size="10.00">timeQuery</text>
</g>
<!-- Node3 -->
<g id="node4" class="node"><title>Node3</title>
<a xlink:title="STL class. ">
<polygon fill="white" stroke="#bfbfbf" points="-0.0478516,-215 -0.0478516,-247 94.0479,-247 94.0479,-215 -0.0478516,-215"/>
<text text-anchor="start" x="7.95215" y="-233" font-family="Helvetica,sans-Serif" font-size="10.00">std::basic_string&lt;</text>
<text text-anchor="middle" x="47" y="-221" font-family="Helvetica,sans-Serif" font-size="10.00"> char &gt;</text>
</a>
</g>
<!-- Node3&#45;&gt;Node2 -->
<g id="edge4" class="edge"><title>Node3&#45;&gt;Node2</title>
<path fill="none" stroke="midnightblue" d="M47,-204.63C47,-192.351 47,-178.357 47,-169.363"/>
<polygon fill="midnightblue" stroke="midnightblue" points="43.5001,-204.811 47,-214.811 50.5001,-204.811 43.5001,-204.811"/>
</g>
<!-- Node4 -->
<g id="node6" class="node"><title>Node4</title>
<polygon fill="white" stroke="#bfbfbf" points="94.5449,-143 94.5449,-175 193.455,-175 193.455,-143 94.5449,-143"/>
<text text-anchor="start" x="102.545" y="-161" font-family="Helvetica,sans-Serif" font-size="10.00">std::map&lt; int, RTX</text>
<text text-anchor="middle" x="144" y="-149" font-family="Helvetica,sans-Serif" font-size="10.00">::Point::Qual_t &gt;</text>
</g>
<!-- Node4&#45;&gt;Node1 -->
<g id="edge6" class="edge"><title>Node4&#45;&gt;Node1</title>
<path fill="none" stroke="#9a32cd" stroke-dasharray="5,2" d="M141.951,-132.715C139.426,-110.597 133.898,-78.0293 122,-52 118.973,-45.3769 114.453,-38.842 110.027,-33.2985"/>
<polygon fill="#9a32cd" stroke="#9a32cd" points="138.498,-133.354 142.991,-142.949 145.462,-132.647 138.498,-133.354"/>
<text text-anchor="middle" x="166.569" y="-84" font-family="Helvetica,sans-Serif" font-size="10.00"> qualityMap</text>
</g>
</g>
</svg>
