<?xml version="1.0" encoding="UTF-8" standalone="no"?>
<!DOCTYPE svg PUBLIC "-//W3C//DTD SVG 1.1//EN"
 "http://www.w3.org/Graphics/SVG/1.1/DTD/svg11.dtd">
<!-- Generated by graphviz version 2.28.0 (20110509.1545)
 -->
<!-- Title: RTX::CsvPointRecord Pages: 1 -->
<svg width="122pt" height="146pt"
 viewBox="0.00 0.00 122.00 146.00" xmlns="http://www.w3.org/2000/svg" xmlns:xlink="http://www.w3.org/1999/xlink">
<g id="graph1" class="graph" transform="scale(1 1) rotate(0) translate(4 142)">
<title>RTX::CsvPointRecord</title>
<polygon fill="white" stroke="white" points="-4,5 -4,-142 119,-142 119,5 -4,5"/>
<!-- Node1 -->
<g id="node1" class="node"><title>Node1</title>
<polygon fill="#bfbfbf" stroke="black" points="0.184082,-1 0.184082,-21 113.816,-21 113.816,-1 0.184082,-1"/>
<text text-anchor="middle" x="57" y="-7" font-family="Helvetica,sans-Serif" font-size="10.00">RTX::CsvPointRecord</text>
</g>
<!-- Node2 -->
<g id="node2" class="node"><title>Node2</title>
<a xlink:href="class_r_t_x_1_1_map_point_record.html" target="_top" xlink:title="RTX::MapPointRecord">
<polygon fill="white" stroke="black" points="-0.931641,-59 -0.931641,-79 114.932,-79 114.932,-59 -0.931641,-59"/>
<text text-anchor="middle" x="57" y="-65" font-family="Helvetica,sans-Serif" font-size="10.00">RTX::MapPointRecord</text>
</a>
</g>
<!-- Node2&#45;&gt;Node1 -->
<g id="edge2" class="edge"><title>Node2&#45;&gt;Node1</title>
<path fill="none" stroke="midnightblue" d="M57,-48.7065C57,-39.3384 57,-28.5262 57,-21.0752"/>
<polygon fill="midnightblue" stroke="midnightblue" points="53.5001,-48.7527 57,-58.7527 60.5001,-48.7528 53.5001,-48.7527"/>
</g>
<!-- Node3 -->
<g id="node4" class="node"><title>Node3</title>
<a xlink:href="class_r_t_x_1_1_point_record.html" target="_top" xlink:title="A Point Record Class for storing and retrieving Points. ">
<polygon fill="white" stroke="black" points="8.79492,-117 8.79492,-137 105.205,-137 105.205,-117 8.79492,-117"/>
<text text-anchor="middle" x="57" y="-123" font-family="Helvetica,sans-Serif" font-size="10.00">RTX::PointRecord</text>
</a>
</g>
<!-- Node3&#45;&gt;Node2 -->
<g id="edge4" class="edge"><title>Node3&#45;&gt;Node2</title>
<path fill="none" stroke="midnightblue" d="M57,-106.707C57,-97.3384 57,-86.5262 57,-79.0752"/>
<polygon fill="midnightblue" stroke="midnightblue" points="53.5001,-106.753 57,-116.753 60.5001,-106.753 53.5001,-106.753"/>
</g>
</g>
</svg>
