<?xml version="1.0" encoding="UTF-8" standalone="no"?>
<!DOCTYPE svg PUBLIC "-//W3C//DTD SVG 1.1//EN"
 "http://www.w3.org/Graphics/SVG/1.1/DTD/svg11.dtd">
<!-- Generated by graphviz version 2.36.0 (20140111.2315)
 -->
<!-- Title: RTX::RtxIoException Pages: 1 -->
<svg width="116pt" height="140pt"
 viewBox="0.00 0.00 116.00 140.00" xmlns="http://www.w3.org/2000/svg" xmlns:xlink="http://www.w3.org/1999/xlink">
<g id="graph0" class="graph" transform="scale(1 1) rotate(0) translate(4 136)">
<title>RTX::RtxIoException</title>
<polygon fill="white" stroke="none" points="-4,4 -4,-136 112,-136 112,4 -4,4"/>
<!-- Node1 -->
<g id="node1" class="node"><title>Node1</title>
<polygon fill="#bfbfbf" stroke="black" points="-0.318359,-1 -0.318359,-19 108.318,-19 108.318,-1 -0.318359,-1"/>
<text text-anchor="middle" x="54" y="-7" font-family="Helvetica,sans-Serif" font-size="10.00">RTX::RtxIoException</text>
</g>
<!-- Node2 -->
<g id="node2" class="node"><title>Node2</title>
<g id="a_node2"><a xlink:href="class_r_t_x_1_1_rtx_exception.html" target="_top" xlink:title="RTX::RtxException">
<polygon fill="white" stroke="black" points="3.85156,-57 3.85156,-75 104.148,-75 104.148,-57 3.85156,-57"/>
<text text-anchor="middle" x="54" y="-63" font-family="Helvetica,sans-Serif" font-size="10.00">RTX::RtxException</text>
</a>
</g>
</g>
<!-- Node2&#45;&gt;Node1 -->
<g id="edge1" class="edge"><title>Node2&#45;&gt;Node1</title>
<path fill="none" stroke="midnightblue" d="M54,-46.3288C54,-37.0774 54,-26.3798 54,-19.2014"/>
<polygon fill="midnightblue" stroke="midnightblue" points="50.5001,-46.5625 54,-56.5625 57.5001,-46.5625 50.5001,-46.5625"/>
</g>
<!-- Node3 -->
<g id="node3" class="node"><title>Node3</title>
<g id="a_node3"><a xlink:title="STL class. ">
<polygon fill="white" stroke="#bfbfbf" points="15.1479,-113 15.1479,-131 92.8521,-131 92.8521,-113 15.1479,-113"/>
<text text-anchor="middle" x="54" y="-119" font-family="Helvetica,sans-Serif" font-size="10.00">std::exception</text>
</a>
</g>
</g>
<!-- Node3&#45;&gt;Node2 -->
<g id="edge2" class="edge"><title>Node3&#45;&gt;Node2</title>
<path fill="none" stroke="midnightblue" d="M54,-102.329C54,-93.0774 54,-82.3798 54,-75.2014"/>
<polygon fill="midnightblue" stroke="midnightblue" points="50.5001,-102.562 54,-112.562 57.5001,-102.563 50.5001,-102.562"/>
</g>
</g>
</svg>
