<?xml version="1.0" encoding="UTF-8" standalone="no"?>
<!DOCTYPE svg PUBLIC "-//W3C//DTD SVG 1.1//EN"
 "http://www.w3.org/Graphics/SVG/1.1/DTD/svg11.dtd">
<!-- Generated by graphviz version 2.28.0 (20110509.1545)
 -->
<!-- Title: RTX::SinglePointFilterModularTimeSeries Pages: 1 -->
<svg width="158pt" height="228pt"
 viewBox="0.00 0.00 158.00 228.00" xmlns="http://www.w3.org/2000/svg" xmlns:xlink="http://www.w3.org/1999/xlink">
<g id="graph1" class="graph" transform="scale(1 1) rotate(0) translate(4 224)">
<title>RTX::SinglePointFilterModularTimeSeries</title>
<polygon fill="white" stroke="white" points="-4,5 -4,-224 155,-224 155,5 -4,5"/>
<!-- Node1 -->
<g id="node1" class="node"><title>Node1</title>
<polygon fill="#bfbfbf" stroke="black" points="-0.160645,-1 -0.160645,-33 150.161,-33 150.161,-1 -0.160645,-1"/>
<text text-anchor="start" x="7.83936" y="-19" font-family="Helvetica,sans-Serif" font-size="10.00">RTX::SinglePointFilterModular</text>
<text text-anchor="middle" x="75" y="-7" font-family="Helvetica,sans-Serif" font-size="10.00">TimeSeries</text>
</g>
<!-- Node2 -->
<g id="node2" class="node"><title>Node2</title>
<a xlink:href="class_r_t_x_1_1_modular_time_series.html" target="_top" xlink:title="A Time Series class that allows a single upstream TimeSeries. ">
<polygon fill="white" stroke="black" points="11.1455,-71 11.1455,-91 138.854,-91 138.854,-71 11.1455,-71"/>
<text text-anchor="middle" x="75" y="-77" font-family="Helvetica,sans-Serif" font-size="10.00">RTX::ModularTimeSeries</text>
</a>
</g>
<!-- Node2&#45;&gt;Node1 -->
<g id="edge2" class="edge"><title>Node2&#45;&gt;Node1</title>
<path fill="none" stroke="midnightblue" d="M75,-60.7747C75,-51.9863 75,-41.715 75,-33.4404"/>
<polygon fill="midnightblue" stroke="midnightblue" points="71.5001,-60.8517 75,-70.8517 78.5001,-60.8517 71.5001,-60.8517"/>
</g>
<!-- Node3 -->
<g id="node4" class="node"><title>Node3</title>
<a xlink:href="class_r_t_x_1_1_time_series.html" target="_top" xlink:title="An abstraction of Points ordered in time. ">
<polygon fill="white" stroke="black" points="29.2095,-129 29.2095,-149 120.791,-149 120.791,-129 29.2095,-129"/>
<text text-anchor="middle" x="75" y="-135" font-family="Helvetica,sans-Serif" font-size="10.00">RTX::TimeSeries</text>
</a>
</g>
<!-- Node3&#45;&gt;Node2 -->
<g id="edge4" class="edge"><title>Node3&#45;&gt;Node2</title>
<path fill="none" stroke="midnightblue" d="M75,-118.707C75,-109.338 75,-98.5262 75,-91.0752"/>
<polygon fill="midnightblue" stroke="midnightblue" points="71.5001,-118.753 75,-128.753 78.5001,-118.753 71.5001,-118.753"/>
</g>
<!-- Node4 -->
<g id="node6" class="node"><title>Node4</title>
<polygon fill="white" stroke="#bfbfbf" points="10.0273,-187 10.0273,-219 139.973,-219 139.973,-187 10.0273,-187"/>
<text text-anchor="start" x="18.0273" y="-205" font-family="Helvetica,sans-Serif" font-size="10.00">boost::enable_shared</text>
<text text-anchor="middle" x="75" y="-193" font-family="Helvetica,sans-Serif" font-size="10.00">_from_this&lt; TimeSeries &gt;</text>
</g>
<!-- Node4&#45;&gt;Node3 -->
<g id="edge6" class="edge"><title>Node4&#45;&gt;Node3</title>
<path fill="none" stroke="midnightblue" d="M75,-176.922C75,-167.172 75,-156.61 75,-149.29"/>
<polygon fill="midnightblue" stroke="midnightblue" points="71.5001,-176.991 75,-186.992 78.5001,-176.992 71.5001,-176.991"/>
</g>
</g>
</svg>
