<?xml version="1.0" encoding="UTF-8" standalone="no"?>
<!DOCTYPE svg PUBLIC "-//W3C//DTD SVG 1.1//EN"
 "http://www.w3.org/Graphics/SVG/1.1/DTD/svg11.dtd">
<!-- Generated by graphviz version 2.28.0 (20110509.1545)
 -->
<!-- Title: RTX::StatsTimeSeries Pages: 1 -->
<svg width="144pt" height="274pt"
 viewBox="0.00 0.00 144.00 274.00" xmlns="http://www.w3.org/2000/svg" xmlns:xlink="http://www.w3.org/1999/xlink">
<g id="graph1" class="graph" transform="scale(1 1) rotate(0) translate(4 270)">
<title>RTX::StatsTimeSeries</title>
<polygon fill="white" stroke="white" points="-4,5 -4,-270 141,-270 141,5 -4,5"/>
<!-- Node1 -->
<g id="node1" class="node"><title>Node1</title>
<polygon fill="#bfbfbf" stroke="black" points="10.8154,-1 10.8154,-21 125.185,-21 125.185,-1 10.8154,-1"/>
<text text-anchor="middle" x="68" y="-7" font-family="Helvetica,sans-Serif" font-size="10.00">RTX::StatsTimeSeries</text>
</g>
<!-- Node2 -->
<g id="node2" class="node"><title>Node2</title>
<a xlink:href="class_r_t_x_1_1_base_stats_time_series.html" target="_top" xlink:title="RTX::BaseStatsTimeSeries">
<polygon fill="white" stroke="black" points="-0.581055,-59 -0.581055,-79 136.581,-79 136.581,-59 -0.581055,-59"/>
<text text-anchor="middle" x="68" y="-65" font-family="Helvetica,sans-Serif" font-size="10.00">RTX::BaseStatsTimeSeries</text>
</a>
</g>
<!-- Node2&#45;&gt;Node1 -->
<g id="edge2" class="edge"><title>Node2&#45;&gt;Node1</title>
<path fill="none" stroke="midnightblue" d="M68,-48.7065C68,-39.3384 68,-28.5262 68,-21.0752"/>
<polygon fill="midnightblue" stroke="midnightblue" points="64.5001,-48.7527 68,-58.7527 71.5001,-48.7528 64.5001,-48.7527"/>
</g>
<!-- Node3 -->
<g id="node4" class="node"><title>Node3</title>
<a xlink:href="class_r_t_x_1_1_modular_time_series.html" target="_top" xlink:title="A Time Series class that allows a single upstream TimeSeries. ">
<polygon fill="white" stroke="black" points="4.14551,-117 4.14551,-137 131.854,-137 131.854,-117 4.14551,-117"/>
<text text-anchor="middle" x="68" y="-123" font-family="Helvetica,sans-Serif" font-size="10.00">RTX::ModularTimeSeries</text>
</a>
</g>
<!-- Node3&#45;&gt;Node2 -->
<g id="edge4" class="edge"><title>Node3&#45;&gt;Node2</title>
<path fill="none" stroke="midnightblue" d="M68,-106.707C68,-97.3384 68,-86.5262 68,-79.0752"/>
<polygon fill="midnightblue" stroke="midnightblue" points="64.5001,-106.753 68,-116.753 71.5001,-106.753 64.5001,-106.753"/>
</g>
<!-- Node4 -->
<g id="node6" class="node"><title>Node4</title>
<a xlink:href="class_r_t_x_1_1_time_series.html" target="_top" xlink:title="An abstraction of Points ordered in time. ">
<polygon fill="white" stroke="black" points="22.2095,-175 22.2095,-195 113.791,-195 113.791,-175 22.2095,-175"/>
<text text-anchor="middle" x="68" y="-181" font-family="Helvetica,sans-Serif" font-size="10.00">RTX::TimeSeries</text>
</a>
</g>
<!-- Node4&#45;&gt;Node3 -->
<g id="edge6" class="edge"><title>Node4&#45;&gt;Node3</title>
<path fill="none" stroke="midnightblue" d="M68,-164.707C68,-155.338 68,-144.526 68,-137.075"/>
<polygon fill="midnightblue" stroke="midnightblue" points="64.5001,-164.753 68,-174.753 71.5001,-164.753 64.5001,-164.753"/>
</g>
<!-- Node5 -->
<g id="node8" class="node"><title>Node5</title>
<polygon fill="white" stroke="#bfbfbf" points="3.02734,-233 3.02734,-265 132.973,-265 132.973,-233 3.02734,-233"/>
<text text-anchor="start" x="11.0273" y="-251" font-family="Helvetica,sans-Serif" font-size="10.00">boost::enable_shared</text>
<text text-anchor="middle" x="68" y="-239" font-family="Helvetica,sans-Serif" font-size="10.00">_from_this&lt; TimeSeries &gt;</text>
</g>
<!-- Node5&#45;&gt;Node4 -->
<g id="edge8" class="edge"><title>Node5&#45;&gt;Node4</title>
<path fill="none" stroke="midnightblue" d="M68,-222.922C68,-213.172 68,-202.61 68,-195.29"/>
<polygon fill="midnightblue" stroke="midnightblue" points="64.5001,-222.991 68,-232.992 71.5001,-222.992 64.5001,-222.991"/>
</g>
</g>
</svg>
