<?xml version="1.0" encoding="UTF-8" standalone="no"?>
<!DOCTYPE svg PUBLIC "-//W3C//DTD SVG 1.1//EN"
 "http://www.w3.org/Graphics/SVG/1.1/DTD/svg11.dtd">
<!-- Generated by graphviz version 2.28.0 (20110509.1545)
 -->
<!-- Title: RTX::PointRecord Pages: 1 -->
<svg width="199pt" height="172pt"
 viewBox="0.00 0.00 199.38 172.00" xmlns="http://www.w3.org/2000/svg" xmlns:xlink="http://www.w3.org/1999/xlink">
<g id="graph1" class="graph" transform="scale(1 1) rotate(0) translate(4 168)">
<title>RTX::PointRecord</title>
<polygon fill="white" stroke="white" points="-4,5 -4,-168 196.379,-168 196.379,5 -4,5"/>
<!-- Node1 -->
<g id="node1" class="node"><title>Node1</title>
<polygon fill="#bfbfbf" stroke="black" points="45.7949,-1 45.7949,-21 142.205,-21 142.205,-1 45.7949,-1"/>
<text text-anchor="middle" x="94" y="-7" font-family="Helvetica,sans-Serif" font-size="10.00">RTX::PointRecord</text>
</g>
<!-- Node2 -->
<g id="node2" class="node"><title>Node2</title>
<a xlink:title="STL class.">
<polygon fill="white" stroke="#bfbfbf" points="17.3252,-71 17.3252,-91 76.6748,-91 76.6748,-71 17.3252,-71"/>
<text text-anchor="middle" x="47" y="-77" font-family="Helvetica,sans-Serif" font-size="10.00">std::string</text>
</a>
</g>
<!-- Node2&#45;&gt;Node1 -->
<g id="edge2" class="edge"><title>Node2&#45;&gt;Node1</title>
<path fill="none" stroke="#9a32cd" stroke-dasharray="5,2" d="M43.9679,-60.7176C43.7853,-53.7771 44.706,-46.1492 48.2812,-40 53.1467,-31.6318 61.6044,-25.4417 69.9326,-21.041"/>
<polygon fill="#9a32cd" stroke="#9a32cd" points="40.4915,-61.1314 44.9398,-70.7471 47.4588,-60.4561 40.4915,-61.1314"/>
<text text-anchor="middle" x="84.8594" y="-42" font-family="Helvetica,sans-Serif" font-size="10.00"> _cachedPointId</text>
</g>
<!-- Node3 -->
<g id="node4" class="node"><title>Node3</title>
<a xlink:title="STL class.">
<polygon fill="white" stroke="#bfbfbf" points="-0.0478516,-131 -0.0478516,-163 94.0479,-163 94.0479,-131 -0.0478516,-131"/>
<text text-anchor="start" x="7.95215" y="-149" font-family="Helvetica,sans-Serif" font-size="10.00">std::basic_string&lt;</text>
<text text-anchor="middle" x="47" y="-137" font-family="Helvetica,sans-Serif" font-size="10.00"> char &gt;</text>
</a>
</g>
<!-- Node3&#45;&gt;Node2 -->
<g id="edge4" class="edge"><title>Node3&#45;&gt;Node2</title>
<path fill="none" stroke="midnightblue" d="M47,-120.611C47,-110.286 47,-99.0006 47,-91.3126"/>
<polygon fill="midnightblue" stroke="midnightblue" points="43.5001,-120.833 47,-130.833 50.5001,-120.833 43.5001,-120.833"/>
</g>
<!-- Node4 -->
<g id="node6" class="node"><title>Node4</title>
<a xlink:href="class_r_t_x_1_1_point.html" target="_top" xlink:title="A Point Class to store data tuples (date, value, quality, confidence)">
<polygon fill="white" stroke="black" points="109.913,-71 109.913,-91 174.087,-91 174.087,-71 109.913,-71"/>
<text text-anchor="middle" x="142" y="-77" font-family="Helvetica,sans-Serif" font-size="10.00">RTX::Point</text>
</a>
</g>
<!-- Node4&#45;&gt;Node1 -->
<g id="edge6" class="edge"><title>Node4&#45;&gt;Node1</title>
<path fill="none" stroke="#9a32cd" stroke-dasharray="5,2" d="M132.991,-61.4004C129.316,-54.4555 124.802,-46.6473 120,-40 115.105,-33.2246 108.73,-26.3358 103.518,-21.0865"/>
<polygon fill="#9a32cd" stroke="#9a32cd" points="130.07,-63.3806 137.709,-70.7219 136.316,-60.2191 130.07,-63.3806"/>
<text text-anchor="middle" x="159.689" y="-42" font-family="Helvetica,sans-Serif" font-size="10.00"> _cachedPoint</text>
</g>
</g>
</svg>
