<?xml version="1.0" encoding="UTF-8" standalone="no"?>
<!DOCTYPE svg PUBLIC "-//W3C//DTD SVG 1.1//EN"
 "http://www.w3.org/Graphics/SVG/1.1/DTD/svg11.dtd">
<!-- Generated by graphviz version 2.36.0 (20140111.2315)
 -->
<!-- Title: RTX::Tank Pages: 1 -->
<svg width="198pt" height="220pt"
 viewBox="0.00 0.00 198.14 220.00" xmlns="http://www.w3.org/2000/svg" xmlns:xlink="http://www.w3.org/1999/xlink">
<g id="graph0" class="graph" transform="scale(1 1) rotate(0) translate(4 216)">
<title>RTX::Tank</title>
<polygon fill="white" stroke="none" points="-4,4 -4,-216 194.138,-216 194.138,4 -4,4"/>
<!-- Node1 -->
<g id="node1" class="node"><title>Node1</title>
<polygon fill="#bfbfbf" stroke="black" points="65.748,-1 65.748,-19 128.252,-19 128.252,-1 65.748,-1"/>
<text text-anchor="middle" x="97" y="-7" font-family="Helvetica,sans-Serif" font-size="10.00">RTX::Tank</text>
</g>
<!-- Node2 -->
<g id="node2" class="node"><title>Node2</title>
<g id="a_node2"><a xlink:href="class_r_t_x_1_1_junction.html" target="_top" xlink:title="Junction Class. ">
<polygon fill="white" stroke="black" points="4.68652,-67 4.68652,-85 83.3135,-85 83.3135,-67 4.68652,-67"/>
<text text-anchor="middle" x="44" y="-73" font-family="Helvetica,sans-Serif" font-size="10.00">RTX::Junction</text>
</a>
</g>
</g>
<!-- Node2&#45;&gt;Node1 -->
<g id="edge1" class="edge"><title>Node2&#45;&gt;Node1</title>
<path fill="none" stroke="midnightblue" d="M57.2448,-59.0063C67.7074,-46.3722 81.8828,-29.2547 90.1746,-19.242"/>
<polygon fill="midnightblue" stroke="midnightblue" points="54.395,-56.9601 50.7125,-66.8944 59.7863,-61.4248 54.395,-56.9601"/>
</g>
<!-- Node3 -->
<g id="node3" class="node"><title>Node3</title>
<g id="a_node3"><a xlink:href="class_r_t_x_1_1_node.html" target="_top" xlink:title="Node Class. ">
<polygon fill="white" stroke="black" points="6.35645,-130 6.35645,-148 71.6436,-148 71.6436,-130 6.35645,-130"/>
<text text-anchor="middle" x="39" y="-136" font-family="Helvetica,sans-Serif" font-size="10.00">RTX::Node</text>
</a>
</g>
</g>
<!-- Node3&#45;&gt;Node2 -->
<g id="edge2" class="edge"><title>Node3&#45;&gt;Node2</title>
<path fill="none" stroke="midnightblue" d="M40.5172,-119.49C41.4586,-108.005 42.6211,-93.8229 43.3364,-85.0964"/>
<polygon fill="midnightblue" stroke="midnightblue" points="37.003,-119.521 39.6743,-129.773 43.9796,-120.093 37.003,-119.521"/>
</g>
<!-- Node4 -->
<g id="node4" class="node"><title>Node4</title>
<g id="a_node4"><a xlink:href="class_r_t_x_1_1_element.html" target="_top" xlink:title="Element Base Class. ">
<polygon fill="white" stroke="black" points="-0.0327148,-193 -0.0327148,-211 78.0327,-211 78.0327,-193 -0.0327148,-193"/>
<text text-anchor="middle" x="39" y="-199" font-family="Helvetica,sans-Serif" font-size="10.00">RTX::Element</text>
</a>
</g>
</g>
<!-- Node4&#45;&gt;Node3 -->
<g id="edge3" class="edge"><title>Node4&#45;&gt;Node3</title>
<path fill="none" stroke="midnightblue" d="M39,-182.49C39,-171.005 39,-156.823 39,-148.096"/>
<polygon fill="midnightblue" stroke="midnightblue" points="35.5001,-182.773 39,-192.773 42.5001,-182.773 35.5001,-182.773"/>
</g>
<!-- Node5 -->
<g id="node5" class="node"><title>Node5</title>
<g id="a_node5"><a xlink:title="STL class. ">
<polygon fill="white" stroke="#bfbfbf" points="106.325,-67 106.325,-85 165.675,-85 165.675,-67 106.325,-67"/>
<text text-anchor="middle" x="136" y="-73" font-family="Helvetica,sans-Serif" font-size="10.00">std::string</text>
</a>
</g>
</g>
<!-- Node5&#45;&gt;Node1 -->
<g id="edge4" class="edge"><title>Node5&#45;&gt;Node1</title>
<path fill="none" stroke="#9a32cd" stroke-dasharray="5,2" d="M125.807,-58.2726C118.155,-45.7165 108.007,-29.0621 102.022,-19.242"/>
<polygon fill="#9a32cd" stroke="#9a32cd" points="122.868,-60.1762 131.061,-66.8944 128.846,-56.5336 122.868,-60.1762"/>
<text text-anchor="middle" x="154.569" y="-40" font-family="Helvetica,sans-Serif" font-size="10.00"> geometryName</text>
</g>
<!-- Node6 -->
<g id="node6" class="node"><title>Node6</title>
<g id="a_node6"><a xlink:title="STL class. ">
<polygon fill="white" stroke="#bfbfbf" points="89.9521,-125 89.9521,-153 184.048,-153 184.048,-125 89.9521,-125"/>
<text text-anchor="start" x="97.9521" y="-141" font-family="Helvetica,sans-Serif" font-size="10.00">std::basic_string&lt;</text>
<text text-anchor="middle" x="137" y="-131" font-family="Helvetica,sans-Serif" font-size="10.00"> char &gt;</text>
</a>
</g>
</g>
<!-- Node6&#45;&gt;Node5 -->
<g id="edge5" class="edge"><title>Node6&#45;&gt;Node5</title>
<path fill="none" stroke="midnightblue" d="M136.616,-114.588C136.446,-104.213 136.257,-92.6798 136.134,-85.1595"/>
<polygon fill="midnightblue" stroke="midnightblue" points="133.119,-114.823 136.783,-124.764 140.119,-114.708 133.119,-114.823"/>
</g>
</g>
</svg>
