<?xml version="1.0" encoding="UTF-8" standalone="no"?>
<!DOCTYPE svg PUBLIC "-//W3C//DTD SVG 1.1//EN"
 "http://www.w3.org/Graphics/SVG/1.1/DTD/svg11.dtd">
<!-- Generated by graphviz version 2.36.0 (20140111.2315)
 -->
<!-- Title: RTX::OdbcPreparedPointRecord Pages: 1 -->
<!--zoomable 477 -->
<svg id="main" version="1.1" xmlns="http://www.w3.org/2000/svg" xmlns:xlink="http://www.w3.org/1999/xlink" xml:space="preserve" onload="init(evt)">
<style type="text/css"><![CDATA[
.edge:hover path { stroke: red; }
.edge:hover polygon { stroke: red; fill: red; }
]]></style>
<script type="text/javascript"><![CDATA[
var edges = document.getElementsByTagName('g');
if (edges && edges.length) {
  for (var i=0;i<edges.length;i++) {
    if (edges[i].id.substr(0,4)=='edge') {
      edges[i].setAttribute('class','edge');
    }
  }
}
]]></script>
        <defs>
                <circle id="rim" cx="0" cy="0" r="7"/>
                <circle id="rim2" cx="0" cy="0" r="3.5"/>
                <g id="zoomPlus">
                        <use xlink:href="#rim" fill="#404040">
                                <set attributeName="fill" to="#808080" begin="zoomplus.mouseover" end="zoomplus.mouseout"/>
                        </use>
                        <path d="M-4,0h8M0,-4v8" fill="none" stroke="white" stroke-width="1.5" pointer-events="none"/>
                </g>
                <g id="zoomMin">
                        <use xlink:href="#rim" fill="#404040">
                                <set attributeName="fill" to="#808080" begin="zoomminus.mouseover" end="zoomminus.mouseout"/>
                        </use>
                        <path d="M-4,0h8" fill="none" stroke="white" stroke-width="1.5" pointer-events="none"/>
                </g>
                <g id="dirArrow">
                        <path fill="none" stroke="white" stroke-width="1.5" d="M0,-3.0v7 M-2.5,-0.5L0,-3.0L2.5,-0.5"/>
                </g>
               <g id="resetDef">
                       <use xlink:href="#rim2" fill="#404040">
                               <set attributeName="fill" to="#808080" begin="reset.mouseover" end="reset.mouseout"/>
                       </use>
               </g>
        </defs>

<script type="text/javascript">
var viewWidth = 1686;
var viewHeight = 477;
var sectionId = 'dynsection-1';
</script>
<script xlink:href="svgpan.js"/>
<svg id="graph" class="graph">
<g id="viewport">
<title>RTX::OdbcPreparedPointRecord</title>
<polygon fill="white" stroke="none" points="-4,4 -4,-473 1682,-473 1682,4 -4,4"/>
<!-- Node1 -->
<g id="node1" class="node"><title>Node1</title>
<polygon fill="#bfbfbf" stroke="black" points="1516.28,-191 1516.28,-209 1677.72,-209 1677.72,-191 1516.28,-191"/>
<text text-anchor="middle" x="1597" y="-197" font-family="Helvetica,sans-Serif" font-size="10.00">RTX::OdbcPreparedPointRecord</text>
</g>
<!-- Node2 -->
<g id="node2" class="node"><title>Node2</title>
<g id="a_node2"><a xlink:href="class_r_t_x_1_1_odbc_point_record.html" target="_top" xlink:title="A persistence class for SCADA databases. ">
<polygon fill="white" stroke="black" points="1357.84,-191 1357.84,-209 1478.16,-209 1478.16,-191 1357.84,-191"/>
<text text-anchor="middle" x="1418" y="-197" font-family="Helvetica,sans-Serif" font-size="10.00">RTX::OdbcPointRecord</text>
</a>
</g>
</g>
<!-- Node2&#45;&gt;Node1 -->
<g id="edge1" class="edge"><title>Node2&#45;&gt;Node1</title>
<path fill="none" stroke="midnightblue" d="M1488.48,-200C1497.5,-200 1506.8,-200 1515.97,-200"/>
<polygon fill="midnightblue" stroke="midnightblue" points="1488.43,-196.5 1478.43,-200 1488.43,-203.5 1488.43,-196.5"/>
</g>
<!-- Node3 -->
<g id="node3" class="node"><title>Node3</title>
<g id="a_node3"><a xlink:href="class_r_t_x_1_1_db_point_record.html" target="_top" xlink:title="A persistence layer for databases. ">
<polygon fill="white" stroke="black" points="1143.4,-132 1143.4,-150 1252.6,-150 1252.6,-132 1143.4,-132"/>
<text text-anchor="middle" x="1198" y="-138" font-family="Helvetica,sans-Serif" font-size="10.00">RTX::DbPointRecord</text>
</a>
</g>
</g>
<!-- Node3&#45;&gt;Node2 -->
<g id="edge2" class="edge"><title>Node3&#45;&gt;Node2</title>
<path fill="none" stroke="midnightblue" d="M1262.57,-148.263C1287.09,-151.985 1315.17,-157.384 1340,-165 1361.62,-171.631 1385.09,-182.95 1400.37,-190.917"/>
<polygon fill="midnightblue" stroke="midnightblue" points="1263.05,-144.797 1252.65,-146.819 1262.04,-151.724 1263.05,-144.797"/>
</g>
<!-- Node4 -->
<g id="node4" class="node"><title>Node4</title>
<g id="a_node4"><a xlink:href="class_r_t_x_1_1_buffer_point_record.html" target="_top" xlink:title="RTX::BufferPointRecord">
<polygon fill="white" stroke="black" points="858.543,-240 858.543,-258 981.457,-258 981.457,-240 858.543,-240"/>
<text text-anchor="middle" x="920" y="-246" font-family="Helvetica,sans-Serif" font-size="10.00">RTX::BufferPointRecord</text>
</a>
</g>
</g>
<!-- Node4&#45;&gt;Node3 -->
<g id="edge3" class="edge"><title>Node4&#45;&gt;Node3</title>
<path fill="none" stroke="midnightblue" d="M979.166,-237.79C1019.8,-228.734 1074.67,-214.015 1120,-193 1145.17,-181.329 1171.28,-161.868 1185.7,-150.352"/>
<polygon fill="midnightblue" stroke="midnightblue" points="978.182,-234.422 969.156,-239.97 979.672,-241.261 978.182,-234.422"/>
</g>
<!-- Node5 -->
<g id="node5" class="node"><title>Node5</title>
<g id="a_node5"><a xlink:href="class_r_t_x_1_1_point_record.html" target="_top" xlink:title="A Point Record Class for storing and retrieving Points. ">
<polygon fill="white" stroke="black" points="605.795,-271 605.795,-289 702.205,-289 702.205,-271 605.795,-271"/>
<text text-anchor="middle" x="654" y="-277" font-family="Helvetica,sans-Serif" font-size="10.00">RTX::PointRecord</text>
</a>
</g>
</g>
<!-- Node5&#45;&gt;Node4 -->
<g id="edge4" class="edge"><title>Node5&#45;&gt;Node4</title>
<path fill="none" stroke="midnightblue" d="M712.556,-273.242C755.686,-268.177 814.569,-261.263 858.414,-256.114"/>
<polygon fill="midnightblue" stroke="midnightblue" points="712.026,-269.78 702.503,-274.422 712.843,-276.732 712.026,-269.78"/>
</g>
<!-- Node6 -->
<g id="node6" class="node"><title>Node6</title>
<polygon fill="white" stroke="#bfbfbf" points="345.452,-274 345.452,-302 454.548,-302 454.548,-274 345.452,-274"/>
<text text-anchor="start" x="353.452" y="-290" font-family="Helvetica,sans-Serif" font-size="10.00">std::map&lt; std::string,</text>
<text text-anchor="middle" x="400" y="-280" font-family="Helvetica,sans-Serif" font-size="10.00"> RTX::Point &gt;</text>
</g>
<!-- Node6&#45;&gt;Node5 -->
<g id="edge5" class="edge"><title>Node6&#45;&gt;Node5</title>
<path fill="none" stroke="#9a32cd" stroke-dasharray="5,2" d="M465.017,-285.968C508.835,-284.577 565.971,-282.763 605.699,-281.502"/>
<polygon fill="#9a32cd" stroke="#9a32cd" points="464.635,-282.478 454.751,-286.294 464.857,-289.474 464.635,-282.478"/>
<text text-anchor="middle" x="533" y="-288" font-family="Helvetica,sans-Serif" font-size="10.00"> _pointCache</text>
</g>
<!-- Node7 -->
<g id="node7" class="node"><title>Node7</title>
<g id="a_node7"><a xlink:title="STL class. ">
<polygon fill="white" stroke="#bfbfbf" points="152.325,-170 152.325,-188 211.675,-188 211.675,-170 152.325,-170"/>
<text text-anchor="middle" x="182" y="-176" font-family="Helvetica,sans-Serif" font-size="10.00">std::string</text>
</a>
</g>
</g>
<!-- Node7&#45;&gt;Node3 -->
<g id="edge13" class="edge"><title>Node7&#45;&gt;Node3</title>
<path fill="none" stroke="#9a32cd" stroke-dasharray="5,2" d="M205.133,-164.037C243.065,-139.889 323.702,-95 399,-95 399,-95 399,-95 921,-95 1009.9,-95 1112.74,-118.506 1164.16,-131.912"/>
<polygon fill="#9a32cd" stroke="#9a32cd" points="202.914,-161.304 196.438,-169.69 206.73,-167.173 202.914,-161.304"/>
<text text-anchor="middle" x="654" y="-97" font-family="Helvetica,sans-Serif" font-size="10.00"> errorMessage</text>
</g>
<!-- Node7&#45;&gt;Node5 -->
<g id="edge9" class="edge"><title>Node7&#45;&gt;Node5</title>
<path fill="none" stroke="#9a32cd" stroke-dasharray="5,2" d="M221.717,-187.411C253.49,-194.308 299.654,-204.313 340,-213 436.837,-233.85 550.569,-258.147 610.72,-270.983"/>
<polygon fill="#9a32cd" stroke="#9a32cd" points="222.447,-183.989 211.932,-185.287 220.962,-190.829 222.447,-183.989"/>
<text text-anchor="middle" x="400" y="-241" font-family="Helvetica,sans-Serif" font-size="10.00"> _cachedPointId</text>
</g>
<!-- Node7&#45;&gt;Node6 -->
<g id="edge6" class="edge"><title>Node7&#45;&gt;Node6</title>
<path fill="none" stroke="#9a32cd" stroke-dasharray="5,2" d="M193.572,-197.165C205.09,-215.256 225.223,-242.379 250,-257 278.785,-273.987 315.505,-281.755 345.289,-285.268"/>
<polygon fill="#9a32cd" stroke="#9a32cd" points="196.285,-194.891 188.085,-188.181 190.311,-198.539 196.285,-194.891"/>
<text text-anchor="middle" x="286" y="-284" font-family="Helvetica,sans-Serif" font-size="10.00"> keys</text>
</g>
<!-- Node10 -->
<g id="node10" class="node"><title>Node10</title>
<g id="a_node10"><a xlink:href="class_r_t_x_1_1_db_point_record_1_1request__t.html" target="_top" xlink:title="RTX::DbPointRecord\l::request_t">
<polygon fill="white" stroke="black" points="478.403,-123 478.403,-151 587.597,-151 587.597,-123 478.403,-123"/>
<text text-anchor="start" x="486.403" y="-139" font-family="Helvetica,sans-Serif" font-size="10.00">RTX::DbPointRecord</text>
<text text-anchor="middle" x="533" y="-129" font-family="Helvetica,sans-Serif" font-size="10.00">::request_t</text>
</a>
</g>
</g>
<!-- Node7&#45;&gt;Node10 -->
<g id="edge12" class="edge"><title>Node7&#45;&gt;Node10</title>
<path fill="none" stroke="#9a32cd" stroke-dasharray="5,2" d="M213.137,-166.176C224.491,-161.888 237.647,-157.554 250,-155 328.309,-138.811 421.222,-135.941 478.395,-135.991"/>
<polygon fill="#9a32cd" stroke="#9a32cd" points="211.717,-162.973 203.688,-169.886 214.276,-169.489 211.717,-162.973"/>
<text text-anchor="middle" x="286" y="-157" font-family="Helvetica,sans-Serif" font-size="10.00"> id</text>
</g>
<!-- Node14 -->
<g id="node14" class="node"><title>Node14</title>
<g id="a_node14"><a xlink:href="class_r_t_x_1_1_odbc_point_record_1_1_odbc_connection.html" target="_top" xlink:title="RTX::OdbcPointRecord\l::OdbcConnection">
<polygon fill="white" stroke="black" points="719.844,-165 719.844,-193 840.156,-193 840.156,-165 719.844,-165"/>
<text text-anchor="start" x="727.844" y="-181" font-family="Helvetica,sans-Serif" font-size="10.00">RTX::OdbcPointRecord</text>
<text text-anchor="middle" x="780" y="-171" font-family="Helvetica,sans-Serif" font-size="10.00">::OdbcConnection</text>
</a>
</g>
</g>
<!-- Node7&#45;&gt;Node14 -->
<g id="edge18" class="edge"><title>Node7&#45;&gt;Node14</title>
<path fill="none" stroke="#9a32cd" stroke-dasharray="5,2" d="M221.877,-179C323.548,-179 597.84,-179 719.498,-179"/>
<polygon fill="#9a32cd" stroke="#9a32cd" points="221.746,-175.5 211.746,-179 221.746,-182.5 221.746,-175.5"/>
<text text-anchor="middle" x="400" y="-201" font-family="Helvetica,sans-Serif" font-size="10.00"> pwd</text>
<text text-anchor="middle" x="400" y="-191" font-family="Helvetica,sans-Serif" font-size="10.00">uid</text>
<text text-anchor="middle" x="400" y="-181" font-family="Helvetica,sans-Serif" font-size="10.00">dsn</text>
</g>
<!-- Node15 -->
<g id="node15" class="node"><title>Node15</title>
<g id="a_node15"><a xlink:href="class_r_t_x_1_1_odbc_point_record_1_1_odbc_query.html" target="_top" xlink:title="RTX::OdbcPointRecord\l::OdbcQuery">
<polygon fill="white" stroke="black" points="339.844,-368 339.844,-396 460.156,-396 460.156,-368 339.844,-368"/>
<text text-anchor="start" x="347.844" y="-384" font-family="Helvetica,sans-Serif" font-size="10.00">RTX::OdbcPointRecord</text>
<text text-anchor="middle" x="400" y="-374" font-family="Helvetica,sans-Serif" font-size="10.00">::OdbcQuery</text>
</a>
</g>
</g>
<!-- Node7&#45;&gt;Node15 -->
<g id="edge20" class="edge"><title>Node7&#45;&gt;Node15</title>
<path fill="none" stroke="#9a32cd" stroke-dasharray="5,2" d="M189.349,-197.727C201.772,-233.418 229.838,-309.294 250,-328 274.608,-350.831 309.601,-364.165 339.492,-371.869"/>
<polygon fill="#9a32cd" stroke="#9a32cd" points="192.583,-196.368 186.022,-188.049 185.963,-198.644 192.583,-196.368"/>
<text text-anchor="middle" x="286" y="-419" font-family="Helvetica,sans-Serif" font-size="10.00"> singleSelect</text>
<text text-anchor="middle" x="286" y="-409" font-family="Helvetica,sans-Serif" font-size="10.00">rangeSelect</text>
<text text-anchor="middle" x="286" y="-399" font-family="Helvetica,sans-Serif" font-size="10.00">connectorName</text>
<text text-anchor="middle" x="286" y="-389" font-family="Helvetica,sans-Serif" font-size="10.00">lowerBound</text>
<text text-anchor="middle" x="286" y="-379" font-family="Helvetica,sans-Serif" font-size="10.00">upperBound</text>
<text text-anchor="middle" x="286" y="-369" font-family="Helvetica,sans-Serif" font-size="10.00">timeQuery</text>
</g>
<!-- Node18 -->
<g id="node18" class="node"><title>Node18</title>
<g id="a_node18"><a xlink:href="class_r_t_x_1_1_odbc_point_record_1_1_odbc_table_description.html" target="_top" xlink:title="RTX::OdbcPointRecord\l::OdbcTableDescription">
<polygon fill="white" stroke="black" points="999.844,-2 999.844,-30 1120.16,-30 1120.16,-2 999.844,-2"/>
<text text-anchor="start" x="1007.84" y="-18" font-family="Helvetica,sans-Serif" font-size="10.00">RTX::OdbcPointRecord</text>
<text text-anchor="middle" x="1060" y="-8" font-family="Helvetica,sans-Serif" font-size="10.00">::OdbcTableDescription</text>
</a>
</g>
</g>
<!-- Node7&#45;&gt;Node18 -->
<g id="edge24" class="edge"><title>Node7&#45;&gt;Node18</title>
<path fill="none" stroke="#9a32cd" stroke-dasharray="5,2" d="M191.958,-160.903C203.181,-139.661 224.119,-104.373 250,-81 305.94,-30.4812 323.625,-0 399,-0 399,-0 399,-0 781,-0 856.537,-0 943.429,-5.96046 999.675,-10.6054"/>
<polygon fill="#9a32cd" stroke="#9a32cd" points="188.826,-159.34 187.376,-169.835 195.054,-162.535 188.826,-159.34"/>
<text text-anchor="middle" x="533" y="-72" font-family="Helvetica,sans-Serif" font-size="10.00"> dataNameCol</text>
<text text-anchor="middle" x="533" y="-62" font-family="Helvetica,sans-Serif" font-size="10.00">tagUnitsCol</text>
<text text-anchor="middle" x="533" y="-52" font-family="Helvetica,sans-Serif" font-size="10.00">tagTable</text>
<text text-anchor="middle" x="533" y="-42" font-family="Helvetica,sans-Serif" font-size="10.00">dataDateCol</text>
<text text-anchor="middle" x="533" y="-32" font-family="Helvetica,sans-Serif" font-size="10.00">dataTable</text>
<text text-anchor="middle" x="533" y="-22" font-family="Helvetica,sans-Serif" font-size="10.00">dataValueCol</text>
<text text-anchor="middle" x="533" y="-12" font-family="Helvetica,sans-Serif" font-size="10.00">tagNameCol</text>
<text text-anchor="middle" x="533" y="-2" font-family="Helvetica,sans-Serif" font-size="10.00">dataQualityCol</text>
</g>
<!-- Node8 -->
<g id="node8" class="node"><title>Node8</title>
<g id="a_node8"><a xlink:title="STL class. ">
<polygon fill="white" stroke="#bfbfbf" points="-0.0478516,-165 -0.0478516,-193 94.0479,-193 94.0479,-165 -0.0478516,-165"/>
<text text-anchor="start" x="7.95215" y="-181" font-family="Helvetica,sans-Serif" font-size="10.00">std::basic_string&lt;</text>
<text text-anchor="middle" x="47" y="-171" font-family="Helvetica,sans-Serif" font-size="10.00"> char &gt;</text>
</a>
</g>
</g>
<!-- Node8&#45;&gt;Node7 -->
<g id="edge7" class="edge"><title>Node8&#45;&gt;Node7</title>
<path fill="none" stroke="midnightblue" d="M104.232,-179C120.673,-179 137.971,-179 151.977,-179"/>
<polygon fill="midnightblue" stroke="midnightblue" points="104.144,-175.5 94.1437,-179 104.144,-182.5 104.144,-175.5"/>
</g>
<!-- Node9 -->
<g id="node9" class="node"><title>Node9</title>
<g id="a_node9"><a xlink:href="class_r_t_x_1_1_point.html" target="_top" xlink:title="A Point Class to store data tuples (date, value, quality, confidence) ">
<polygon fill="white" stroke="black" points="149.913,-317 149.913,-335 214.087,-335 214.087,-317 149.913,-317"/>
<text text-anchor="middle" x="182" y="-323" font-family="Helvetica,sans-Serif" font-size="10.00">RTX::Point</text>
</a>
</g>
</g>
<!-- Node9&#45;&gt;Node5 -->
<g id="edge10" class="edge"><title>Node9&#45;&gt;Node5</title>
<path fill="none" stroke="#9a32cd" stroke-dasharray="5,2" d="M224.355,-326.916C298.156,-327.761 457.089,-326.007 588,-300 601.433,-297.331 616.039,-292.975 627.996,-289.008"/>
<polygon fill="#9a32cd" stroke="#9a32cd" points="224.145,-323.412 214.098,-326.774 224.049,-330.412 224.145,-323.412"/>
<text text-anchor="middle" x="400" y="-328" font-family="Helvetica,sans-Serif" font-size="10.00"> _cachedPoint</text>
</g>
<!-- Node9&#45;&gt;Node6 -->
<g id="edge8" class="edge"><title>Node9&#45;&gt;Node6</title>
<path fill="none" stroke="#9a32cd" stroke-dasharray="5,2" d="M224.58,-318.685C258.971,-312.635 308.05,-304 345.391,-297.431"/>
<polygon fill="#9a32cd" stroke="#9a32cd" points="223.651,-315.295 214.408,-320.474 224.863,-322.189 223.651,-315.295"/>
<text text-anchor="middle" x="286" y="-316" font-family="Helvetica,sans-Serif" font-size="10.00"> elements</text>
</g>
<!-- Node10&#45;&gt;Node3 -->
<g id="edge11" class="edge"><title>Node10&#45;&gt;Node3</title>
<path fill="none" stroke="#9a32cd" stroke-dasharray="5,2" d="M597.908,-137.386C728.134,-138.171 1022.12,-139.945 1143.27,-140.676"/>
<polygon fill="#9a32cd" stroke="#9a32cd" points="597.715,-133.884 587.694,-137.324 597.673,-140.884 597.715,-133.884"/>
<text text-anchor="middle" x="780" y="-141" font-family="Helvetica,sans-Serif" font-size="10.00"> request</text>
</g>
<!-- Node11 -->
<g id="node11" class="node"><title>Node11</title>
<g id="a_node11"><a xlink:href="class_r_t_x_1_1_odbc_point_record_1_1_odbc_sql_handle.html" target="_top" xlink:title="RTX::OdbcPointRecord\l::OdbcSqlHandle">
<polygon fill="white" stroke="black" points="1137.84,-302 1137.84,-330 1258.16,-330 1258.16,-302 1137.84,-302"/>
<text text-anchor="start" x="1145.84" y="-318" font-family="Helvetica,sans-Serif" font-size="10.00">RTX::OdbcPointRecord</text>
<text text-anchor="middle" x="1198" y="-308" font-family="Helvetica,sans-Serif" font-size="10.00">::OdbcSqlHandle</text>
</a>
</g>
</g>
<!-- Node11&#45;&gt;Node2 -->
<g id="edge14" class="edge"><title>Node11&#45;&gt;Node2</title>
<path fill="none" stroke="#9a32cd" stroke-dasharray="5,2" d="M1254.6,-298.631C1281.29,-289.227 1313.21,-276.374 1340,-261 1366.33,-245.891 1393.27,-222.302 1407.24,-209.33"/>
<polygon fill="#9a32cd" stroke="#9a32cd" points="1253.33,-295.366 1245.02,-301.939 1255.62,-301.983 1253.33,-295.366"/>
<text text-anchor="middle" x="1308" y="-293" font-family="Helvetica,sans-Serif" font-size="10.00"> _handles</text>
</g>
<!-- Node12 -->
<g id="node12" class="node"><title>Node12</title>
<g id="a_node12"><a xlink:href="struct_r_t_x_1_1_odbc_point_record_1_1_scada_query.html" target="_top" xlink:title="RTX::OdbcPointRecord\l::ScadaQuery">
<polygon fill="white" stroke="black" points="1137.84,-255 1137.84,-283 1258.16,-283 1258.16,-255 1137.84,-255"/>
<text text-anchor="start" x="1145.84" y="-271" font-family="Helvetica,sans-Serif" font-size="10.00">RTX::OdbcPointRecord</text>
<text text-anchor="middle" x="1198" y="-261" font-family="Helvetica,sans-Serif" font-size="10.00">::ScadaQuery</text>
</a>
</g>
</g>
<!-- Node12&#45;&gt;Node2 -->
<g id="edge15" class="edge"><title>Node12&#45;&gt;Node2</title>
<path fill="none" stroke="#9a32cd" stroke-dasharray="5,2" d="M1260.16,-252.164C1285.04,-245.068 1314.01,-236.494 1340,-228 1357.98,-222.123 1378.06,-214.795 1393.21,-209.11"/>
<polygon fill="#9a32cd" stroke="#9a32cd" points="1259.15,-248.813 1250.48,-254.908 1261.06,-255.547 1259.15,-248.813"/>
<text text-anchor="middle" x="1308" y="-249" font-family="Helvetica,sans-Serif" font-size="10.00"> _query</text>
</g>
<!-- Node13 -->
<g id="node13" class="node"><title>Node13</title>
<g id="a_node13"><a xlink:href="class_r_t_x_1_1_odbc_point_record_1_1_scada_record.html" target="_top" xlink:title="RTX::OdbcPointRecord\l::ScadaRecord">
<polygon fill="white" stroke="black" points="1137.84,-208 1137.84,-236 1258.16,-236 1258.16,-208 1137.84,-208"/>
<text text-anchor="start" x="1145.84" y="-224" font-family="Helvetica,sans-Serif" font-size="10.00">RTX::OdbcPointRecord</text>
<text text-anchor="middle" x="1198" y="-214" font-family="Helvetica,sans-Serif" font-size="10.00">::ScadaRecord</text>
</a>
</g>
</g>
<!-- Node13&#45;&gt;Node2 -->
<g id="edge16" class="edge"><title>Node13&#45;&gt;Node2</title>
<path fill="none" stroke="#9a32cd" stroke-dasharray="5,2" d="M1268.27,-215.01C1297.04,-212.106 1330.1,-208.77 1357.73,-205.981"/>
<polygon fill="#9a32cd" stroke="#9a32cd" points="1267.88,-211.531 1258.28,-216.017 1268.58,-218.496 1267.88,-211.531"/>
<text text-anchor="middle" x="1308" y="-216" font-family="Helvetica,sans-Serif" font-size="10.00"> _tempRecord</text>
</g>
<!-- Node14&#45;&gt;Node2 -->
<g id="edge17" class="edge"><title>Node14&#45;&gt;Node2</title>
<path fill="none" stroke="#9a32cd" stroke-dasharray="5,2" d="M850.542,-181.296C976.374,-185.451 1239.71,-194.146 1357.66,-198.041"/>
<polygon fill="#9a32cd" stroke="#9a32cd" points="850.372,-177.789 840.262,-180.957 850.141,-184.785 850.372,-177.789"/>
<text text-anchor="middle" x="1060" y="-193" font-family="Helvetica,sans-Serif" font-size="10.00"> connection</text>
</g>
<!-- Node15&#45;&gt;Node2 -->
<g id="edge19" class="edge"><title>Node15&#45;&gt;Node2</title>
<path fill="none" stroke="#9a32cd" stroke-dasharray="5,2" d="M470.465,-378.185C521.062,-375.732 591.258,-373 653,-373 653,-373 653,-373 1199,-373 1268.57,-373 1286.51,-349.485 1340,-305 1374.59,-276.237 1401.93,-228.744 1412.39,-209.02"/>
<polygon fill="#9a32cd" stroke="#9a32cd" points="470.112,-374.698 460.296,-378.687 470.457,-381.69 470.112,-374.698"/>
<text text-anchor="middle" x="920" y="-375" font-family="Helvetica,sans-Serif" font-size="10.00"> _querySyntax</text>
</g>
<!-- Node16 -->
<g id="node16" class="node"><title>Node16</title>
<polygon fill="white" stroke="#bfbfbf" points="132.545,-441 132.545,-469 231.455,-469 231.455,-441 132.545,-441"/>
<text text-anchor="start" x="140.545" y="-457" font-family="Helvetica,sans-Serif" font-size="10.00">std::map&lt; int, RTX</text>
<text text-anchor="middle" x="182" y="-447" font-family="Helvetica,sans-Serif" font-size="10.00">::Point::Qual_t &gt;</text>
</g>
<!-- Node16&#45;&gt;Node15 -->
<g id="edge21" class="edge"><title>Node16&#45;&gt;Node15</title>
<path fill="none" stroke="#9a32cd" stroke-dasharray="5,2" d="M241.814,-451.299C267.139,-448.292 296.684,-442.848 322,-433 344.714,-424.164 367.601,-407.841 382.447,-396.037"/>
<polygon fill="#9a32cd" stroke="#9a32cd" points="241.172,-447.848 231.609,-452.408 241.929,-454.807 241.172,-447.848"/>
<text text-anchor="middle" x="286" y="-452" font-family="Helvetica,sans-Serif" font-size="10.00"> qualityMap</text>
</g>
<!-- Node17 -->
<g id="node17" class="node"><title>Node17</title>
<polygon fill="white" stroke="#bfbfbf" points="1176.38,-95 1176.38,-113 1219.62,-113 1219.62,-95 1176.38,-95"/>
<text text-anchor="middle" x="1198" y="-101" font-family="Helvetica,sans-Serif" font-size="10.00">mutex</text>
</g>
<!-- Node17&#45;&gt;Node2 -->
<g id="edge22" class="edge"><title>Node17&#45;&gt;Node2</title>
<path fill="none" stroke="#9a32cd" stroke-dasharray="5,2" d="M1230.21,-107.18C1259.73,-111.122 1304.65,-119.582 1340,-137 1368.2,-150.894 1395.22,-176.875 1408.49,-190.734"/>
<polygon fill="#9a32cd" stroke="#9a32cd" points="1230.43,-103.681 1220.07,-105.924 1229.57,-110.628 1230.43,-103.681"/>
<text text-anchor="middle" x="1308" y="-139" font-family="Helvetica,sans-Serif" font-size="10.00"> _odbcMutex</text>
</g>
<!-- Node18&#45;&gt;Node2 -->
<g id="edge23" class="edge"><title>Node18&#45;&gt;Node2</title>
<path fill="none" stroke="#9a32cd" stroke-dasharray="5,2" d="M1130.52,-27.6512C1190.6,-40.4174 1277.37,-65.5721 1340,-112 1371.47,-135.333 1399.26,-173.501 1411.02,-190.874"/>
<polygon fill="#9a32cd" stroke="#9a32cd" points="1130.88,-24.1504 1120.38,-25.5583 1129.46,-31.0061 1130.88,-24.1504"/>
<text text-anchor="middle" x="1198" y="-68" font-family="Helvetica,sans-Serif" font-size="10.00"> tableDescription</text>
</g>
</g>
</svg>
        <g id="navigator" transform="translate(0 0)" fill="#404254">
                <rect fill="#f2f5e9" fill-opacity="0.5" stroke="#606060" stroke-width=".5" x="0" y="0" width="60" height="60"/>
                <use id="zoomplus" xlink:href="#zoomPlus" x="17" y="9" onmousedown="handleZoom(evt,'in')"/>
                <use id="zoomminus" xlink:href="#zoomMin" x="42" y="9" onmousedown="handleZoom(evt,'out')"/>
                <use id="reset" xlink:href="#resetDef" x="30" y="36" onmousedown="handleReset()"/>
                <g id="arrowUp" xlink:href="#dirArrow" transform="translate(30 24)" onmousedown="handlePan(0,-1)">
                  <use xlink:href="#rim" fill="#404040">
                        <set attributeName="fill" to="#808080" begin="arrowUp.mouseover" end="arrowUp.mouseout"/>
                  </use>
                  <path fill="none" stroke="white" stroke-width="1.5" d="M0,-3.0v7 M-2.5,-0.5L0,-3.0L2.5,-0.5"/>
                </g>
                <g id="arrowRight" xlink:href="#dirArrow" transform="rotate(90) translate(36 -43)" onmousedown="handlePan(1,0)">
                  <use xlink:href="#rim" fill="#404040">
                        <set attributeName="fill" to="#808080" begin="arrowRight.mouseover" end="arrowRight.mouseout"/>
                  </use>
                  <path fill="none" stroke="white" stroke-width="1.5" d="M0,-3.0v7 M-2.5,-0.5L0,-3.0L2.5,-0.5"/>
                </g>
                <g id="arrowDown" xlink:href="#dirArrow" transform="rotate(180) translate(-30 -48)" onmousedown="handlePan(0,1)">
                  <use xlink:href="#rim" fill="#404040">
                        <set attributeName="fill" to="#808080" begin="arrowDown.mouseover" end="arrowDown.mouseout"/>
                  </use>
                  <path fill="none" stroke="white" stroke-width="1.5" d="M0,-3.0v7 M-2.5,-0.5L0,-3.0L2.5,-0.5"/>
                </g>
                <g id="arrowLeft" xlink:href="#dirArrow" transform="rotate(270) translate(-36 17)" onmousedown="handlePan(-1,0)">
                  <use xlink:href="#rim" fill="#404040">
                        <set attributeName="fill" to="#808080" begin="arrowLeft.mouseover" end="arrowLeft.mouseout"/>
                  </use>
                  <path fill="none" stroke="white" stroke-width="1.5" d="M0,-3.0v7 M-2.5,-0.5L0,-3.0L2.5,-0.5"/>
                </g>
        </g>
        <svg viewBox="0 0 15 15" width="100%" height="30px" preserveAspectRatio="xMaxYMin meet">
         <g id="arrow_out" transform="scale(0.3 0.3)">
          <a xlink:href="class_r_t_x_1_1_odbc_prepared_point_record__coll__graph_org.svg" target="_base">
           <rect id="button" ry="5" rx="5" y="6" x="6" height="38" width="38"
                fill="#f2f5e9" fill-opacity="0.5" stroke="#606060" stroke-width="1.0"/>
           <path id="arrow"
             d="M 11.500037,31.436501 C 11.940474,20.09759 22.043105,11.32322 32.158766,21.979434 L 37.068811,17.246167 C 37.068811,17.246167 37.088388,32 37.088388,32 L 22.160133,31.978069 C 22.160133,31.978069 26.997745,27.140456 26.997745,27.140456 C 18.528582,18.264221 13.291696,25.230495 11.500037,31.436501 z"
             style="fill:#404040;"/>
          </a>
         </g>
        </svg>
</svg>
