<?xml version="1.0" encoding="UTF-8" standalone="no"?>
<!DOCTYPE svg PUBLIC "-//W3C//DTD SVG 1.1//EN"
 "http://www.w3.org/Graphics/SVG/1.1/DTD/svg11.dtd">
<!-- Generated by graphviz version 2.36.0 (20140111.2315)
 -->
<!-- Title: RTX::RunTimeStatusModularTimeSeries Pages: 1 -->
<svg width="154pt" height="216pt"
 viewBox="0.00 0.00 154.00 216.00" xmlns="http://www.w3.org/2000/svg" xmlns:xlink="http://www.w3.org/1999/xlink">
<g id="graph0" class="graph" transform="scale(1 1) rotate(0) translate(4 212)">
<title>RTX::RunTimeStatusModularTimeSeries</title>
<polygon fill="white" stroke="none" points="-4,4 -4,-212 150,-212 150,4 -4,4"/>
<!-- Node1 -->
<g id="node1" class="node"><title>Node1</title>
<polygon fill="#bfbfbf" stroke="black" points="-0.0292969,-1 -0.0292969,-29 146.029,-29 146.029,-1 -0.0292969,-1"/>
<text text-anchor="start" x="7.9707" y="-17" font-family="Helvetica,sans-Serif" font-size="10.00">RTX::RunTimeStatusModular</text>
<text text-anchor="middle" x="73" y="-7" font-family="Helvetica,sans-Serif" font-size="10.00">TimeSeries</text>
</g>
<!-- Node2 -->
<g id="node2" class="node"><title>Node2</title>
<g id="a_node2"><a xlink:href="class_r_t_x_1_1_modular_time_series.html" target="_top" xlink:title="A Time Series class that allows a single upstream TimeSeries. ">
<polygon fill="white" stroke="black" points="9.14551,-67 9.14551,-85 136.854,-85 136.854,-67 9.14551,-67"/>
<text text-anchor="middle" x="73" y="-73" font-family="Helvetica,sans-Serif" font-size="10.00">RTX::ModularTimeSeries</text>
</a>
</g>
</g>
<!-- Node2&#45;&gt;Node1 -->
<g id="edge1" class="edge"><title>Node2&#45;&gt;Node1</title>
<path fill="none" stroke="midnightblue" d="M73,-56.6543C73,-47.7359 73,-37.2225 73,-29.1215"/>
<polygon fill="midnightblue" stroke="midnightblue" points="69.5001,-56.7963 73,-66.7963 76.5001,-56.7963 69.5001,-56.7963"/>
</g>
<!-- Node3 -->
<g id="node3" class="node"><title>Node3</title>
<g id="a_node3"><a xlink:href="class_r_t_x_1_1_time_series.html" target="_top" xlink:title="An abstraction of Points ordered in time. ">
<polygon fill="white" stroke="black" points="27.2095,-123 27.2095,-141 118.791,-141 118.791,-123 27.2095,-123"/>
<text text-anchor="middle" x="73" y="-129" font-family="Helvetica,sans-Serif" font-size="10.00">RTX::TimeSeries</text>
</a>
</g>
</g>
<!-- Node3&#45;&gt;Node2 -->
<g id="edge2" class="edge"><title>Node3&#45;&gt;Node2</title>
<path fill="none" stroke="midnightblue" d="M73,-112.329C73,-103.077 73,-92.3798 73,-85.2014"/>
<polygon fill="midnightblue" stroke="midnightblue" points="69.5001,-112.562 73,-122.562 76.5001,-112.563 69.5001,-112.562"/>
</g>
<!-- Node4 -->
<g id="node4" class="node"><title>Node4</title>
<polygon fill="white" stroke="#bfbfbf" points="8.02734,-179 8.02734,-207 137.973,-207 137.973,-179 8.02734,-179"/>
<text text-anchor="start" x="16.0273" y="-195" font-family="Helvetica,sans-Serif" font-size="10.00">boost::enable_shared</text>
<text text-anchor="middle" x="73" y="-185" font-family="Helvetica,sans-Serif" font-size="10.00">_from_this&lt; TimeSeries &gt;</text>
</g>
<!-- Node4&#45;&gt;Node3 -->
<g id="edge3" class="edge"><title>Node4&#45;&gt;Node3</title>
<path fill="none" stroke="midnightblue" d="M73,-168.886C73,-159.094 73,-148.316 73,-141.153"/>
<polygon fill="midnightblue" stroke="midnightblue" points="69.5001,-168.906 73,-178.906 76.5001,-168.906 69.5001,-168.906"/>
</g>
</g>
</svg>
