<?xml version="1.0" encoding="UTF-8" standalone="no"?>
<!DOCTYPE svg PUBLIC "-//W3C//DTD SVG 1.1//EN"
 "http://www.w3.org/Graphics/SVG/1.1/DTD/svg11.dtd">
<!-- Generated by graphviz version 2.28.0 (20110509.1545)
 -->
<!-- Title: RTX::Resampler Pages: 1 -->
<svg width="400pt" height="274pt"
 viewBox="0.00 0.00 400.00 274.00" xmlns="http://www.w3.org/2000/svg" xmlns:xlink="http://www.w3.org/1999/xlink">
<g id="graph1" class="graph" transform="scale(1 1) rotate(0) translate(4 270)">
<title>RTX::Resampler</title>
<polygon fill="white" stroke="white" points="-4,5 -4,-270 397,-270 397,5 -4,5"/>
<!-- Node1 -->
<g id="node1" class="node"><title>Node1</title>
<polygon fill="#bfbfbf" stroke="black" points="166.135,-59 166.135,-79 255.865,-79 255.865,-59 166.135,-59"/>
<text text-anchor="middle" x="211" y="-65" font-family="Helvetica,sans-Serif" font-size="10.00">RTX::Resampler</text>
</g>
<!-- Node5 -->
<g id="node9" class="node"><title>Node5</title>
<a xlink:href="class_r_t_x_1_1_aggregator_time_series.html" target="_top" xlink:title="Aggregates (and optionally scales) arbitrary many input time series. ">
<polygon fill="white" stroke="black" points="-0.529297,-1 -0.529297,-21 140.529,-21 140.529,-1 -0.529297,-1"/>
<text text-anchor="middle" x="70" y="-7" font-family="Helvetica,sans-Serif" font-size="10.00">RTX::AggregatorTimeSeries</text>
</a>
</g>
<!-- Node1&#45;&gt;Node5 -->
<g id="edge8" class="edge"><title>Node1&#45;&gt;Node5</title>
<path fill="none" stroke="midnightblue" d="M178.537,-55.1069C152.363,-44.7114 116.204,-30.3505 92.9581,-21.1181"/>
<polygon fill="midnightblue" stroke="midnightblue" points="177.446,-58.4396 188.032,-58.878 180.03,-51.9339 177.446,-58.4396"/>
</g>
<!-- Node6 -->
<g id="node11" class="node"><title>Node6</title>
<a xlink:href="class_r_t_x_1_1_first_derivative.html" target="_top" xlink:title="RTX::FirstDerivative">
<polygon fill="white" stroke="black" points="158.361,-1 158.361,-21 263.639,-21 263.639,-1 158.361,-1"/>
<text text-anchor="middle" x="211" y="-7" font-family="Helvetica,sans-Serif" font-size="10.00">RTX::FirstDerivative</text>
</a>
</g>
<!-- Node1&#45;&gt;Node6 -->
<g id="edge10" class="edge"><title>Node1&#45;&gt;Node6</title>
<path fill="none" stroke="midnightblue" d="M211,-48.7065C211,-39.3384 211,-28.5262 211,-21.0752"/>
<polygon fill="midnightblue" stroke="midnightblue" points="207.5,-48.7527 211,-58.7527 214.5,-48.7528 207.5,-48.7527"/>
</g>
<!-- Node7 -->
<g id="node13" class="node"><title>Node7</title>
<a xlink:href="class_r_t_x_1_1_moving_average.html" target="_top" xlink:title="RTX::MovingAverage">
<polygon fill="white" stroke="black" points="281.656,-1 281.656,-21 392.344,-21 392.344,-1 281.656,-1"/>
<text text-anchor="middle" x="337" y="-7" font-family="Helvetica,sans-Serif" font-size="10.00">RTX::MovingAverage</text>
</a>
</g>
<!-- Node1&#45;&gt;Node7 -->
<g id="edge12" class="edge"><title>Node1&#45;&gt;Node7</title>
<path fill="none" stroke="midnightblue" d="M240.941,-54.6927C264.251,-44.3328 295.986,-30.2285 316.484,-21.1181"/>
<polygon fill="midnightblue" stroke="midnightblue" points="239.241,-51.6182 231.525,-58.878 242.084,-58.0149 239.241,-51.6182"/>
</g>
<!-- Node2 -->
<g id="node2" class="node"><title>Node2</title>
<a xlink:href="class_r_t_x_1_1_modular_time_series.html" target="_top" xlink:title="A Time Series class that allows a single upstream TimeSeries. ">
<polygon fill="white" stroke="black" points="147.146,-117 147.146,-137 274.854,-137 274.854,-117 147.146,-117"/>
<text text-anchor="middle" x="211" y="-123" font-family="Helvetica,sans-Serif" font-size="10.00">RTX::ModularTimeSeries</text>
</a>
</g>
<!-- Node2&#45;&gt;Node1 -->
<g id="edge2" class="edge"><title>Node2&#45;&gt;Node1</title>
<path fill="none" stroke="midnightblue" d="M211,-106.707C211,-97.3384 211,-86.5262 211,-79.0752"/>
<polygon fill="midnightblue" stroke="midnightblue" points="207.5,-106.753 211,-116.753 214.5,-106.753 207.5,-106.753"/>
</g>
<!-- Node3 -->
<g id="node4" class="node"><title>Node3</title>
<a xlink:href="class_r_t_x_1_1_time_series.html" target="_top" xlink:title="An abstraction of Points ordered in time. ">
<polygon fill="white" stroke="black" points="165.209,-175 165.209,-195 256.791,-195 256.791,-175 165.209,-175"/>
<text text-anchor="middle" x="211" y="-181" font-family="Helvetica,sans-Serif" font-size="10.00">RTX::TimeSeries</text>
</a>
</g>
<!-- Node3&#45;&gt;Node2 -->
<g id="edge4" class="edge"><title>Node3&#45;&gt;Node2</title>
<path fill="none" stroke="midnightblue" d="M211,-164.707C211,-155.338 211,-144.526 211,-137.075"/>
<polygon fill="midnightblue" stroke="midnightblue" points="207.5,-164.753 211,-174.753 214.5,-164.753 207.5,-164.753"/>
</g>
<!-- Node4 -->
<g id="node6" class="node"><title>Node4</title>
<polygon fill="white" stroke="#bfbfbf" points="146.027,-233 146.027,-265 275.973,-265 275.973,-233 146.027,-233"/>
<text text-anchor="start" x="154.027" y="-251" font-family="Helvetica,sans-Serif" font-size="10.00">boost::enable_shared</text>
<text text-anchor="middle" x="211" y="-239" font-family="Helvetica,sans-Serif" font-size="10.00">_from_this&lt; TimeSeries &gt;</text>
</g>
<!-- Node4&#45;&gt;Node3 -->
<g id="edge6" class="edge"><title>Node4&#45;&gt;Node3</title>
<path fill="none" stroke="midnightblue" d="M211,-222.922C211,-213.172 211,-202.61 211,-195.29"/>
<polygon fill="midnightblue" stroke="midnightblue" points="207.5,-222.991 211,-232.992 214.5,-222.992 207.5,-222.991"/>
</g>
</g>
</svg>
