<?xml version="1.0" encoding="UTF-8" standalone="no"?>
<!DOCTYPE svg PUBLIC "-//W3C//DTD SVG 1.1//EN"
 "http://www.w3.org/Graphics/SVG/1.1/DTD/svg11.dtd">
<!-- Generated by graphviz version 2.36.0 (20140111.2315)
 -->
<!-- Title: RTX::ConstantTimeSeries Pages: 1 -->
<svg width="138pt" height="150pt"
 viewBox="0.00 0.00 138.00 150.00" xmlns="http://www.w3.org/2000/svg" xmlns:xlink="http://www.w3.org/1999/xlink">
<g id="graph0" class="graph" transform="scale(1 1) rotate(0) translate(4 146)">
<title>RTX::ConstantTimeSeries</title>
<polygon fill="white" stroke="none" points="-4,4 -4,-146 134,-146 134,4 -4,4"/>
<!-- Node1 -->
<g id="node1" class="node"><title>Node1</title>
<polygon fill="#bfbfbf" stroke="black" points="-0.802734,-1 -0.802734,-19 130.803,-19 130.803,-1 -0.802734,-1"/>
<text text-anchor="middle" x="65" y="-7" font-family="Helvetica,sans-Serif" font-size="10.00">RTX::ConstantTimeSeries</text>
</g>
<!-- Node2 -->
<g id="node2" class="node"><title>Node2</title>
<g id="a_node2"><a xlink:href="class_r_t_x_1_1_time_series.html" target="_top" xlink:title="An abstraction of Points ordered in time. ">
<polygon fill="white" stroke="black" points="19.2095,-57 19.2095,-75 110.791,-75 110.791,-57 19.2095,-57"/>
<text text-anchor="middle" x="65" y="-63" font-family="Helvetica,sans-Serif" font-size="10.00">RTX::TimeSeries</text>
</a>
</g>
</g>
<!-- Node2&#45;&gt;Node1 -->
<g id="edge1" class="edge"><title>Node2&#45;&gt;Node1</title>
<path fill="none" stroke="midnightblue" d="M65,-46.3288C65,-37.0774 65,-26.3798 65,-19.2014"/>
<polygon fill="midnightblue" stroke="midnightblue" points="61.5001,-46.5625 65,-56.5625 68.5001,-46.5625 61.5001,-46.5625"/>
</g>
<!-- Node3 -->
<g id="node3" class="node"><title>Node3</title>
<polygon fill="white" stroke="#bfbfbf" points="0.0273438,-113 0.0273438,-141 129.973,-141 129.973,-113 0.0273438,-113"/>
<text text-anchor="start" x="8.02734" y="-129" font-family="Helvetica,sans-Serif" font-size="10.00">boost::enable_shared</text>
<text text-anchor="middle" x="65" y="-119" font-family="Helvetica,sans-Serif" font-size="10.00">_from_this&lt; TimeSeries &gt;</text>
</g>
<!-- Node3&#45;&gt;Node2 -->
<g id="edge2" class="edge"><title>Node3&#45;&gt;Node2</title>
<path fill="none" stroke="midnightblue" d="M65,-102.886C65,-93.0939 65,-82.3163 65,-75.1534"/>
<polygon fill="midnightblue" stroke="midnightblue" points="61.5001,-102.906 65,-112.906 68.5001,-102.906 61.5001,-102.906"/>
</g>
</g>
</svg>
