<?xml version="1.0" encoding="UTF-8" standalone="no"?>
<!DOCTYPE svg PUBLIC "-//W3C//DTD SVG 1.1//EN"
 "http://www.w3.org/Graphics/SVG/1.1/DTD/svg11.dtd">
<!-- Generated by graphviz version 2.28.0 (20110509.1545)
 -->
<!-- Title: RTX::EpanetMsxModel Pages: 1 -->
<svg width="126pt" height="146pt"
 viewBox="0.00 0.00 126.00 146.00" xmlns="http://www.w3.org/2000/svg" xmlns:xlink="http://www.w3.org/1999/xlink">
<g id="graph1" class="graph" transform="scale(1 1) rotate(0) translate(4 142)">
<title>RTX::EpanetMsxModel</title>
<polygon fill="white" stroke="white" points="-4,5 -4,-142 123,-142 123,5 -4,5"/>
<!-- Node1 -->
<g id="node1" class="node"><title>Node1</title>
<polygon fill="#bfbfbf" stroke="black" points="-0.320801,-1 -0.320801,-21 118.321,-21 118.321,-1 -0.320801,-1"/>
<text text-anchor="middle" x="59" y="-7" font-family="Helvetica,sans-Serif" font-size="10.00">RTX::EpanetMsxModel</text>
</g>
<!-- Node2 -->
<g id="node2" class="node"><title>Node2</title>
<a xlink:href="class_r_t_x_1_1_epanet_model.html" target="_top" xlink:title="An Epanet&#45;based model object. ">
<polygon fill="white" stroke="black" points="8.84424,-59 8.84424,-79 109.156,-79 109.156,-59 8.84424,-59"/>
<text text-anchor="middle" x="59" y="-65" font-family="Helvetica,sans-Serif" font-size="10.00">RTX::EpanetModel</text>
</a>
</g>
<!-- Node2&#45;&gt;Node1 -->
<g id="edge2" class="edge"><title>Node2&#45;&gt;Node1</title>
<path fill="none" stroke="midnightblue" d="M59,-48.7065C59,-39.3384 59,-28.5262 59,-21.0752"/>
<polygon fill="midnightblue" stroke="midnightblue" points="55.5001,-48.7527 59,-58.7527 62.5001,-48.7528 55.5001,-48.7527"/>
</g>
<!-- Node3 -->
<g id="node4" class="node"><title>Node3</title>
<a xlink:href="class_r_t_x_1_1_model.html" target="_top" xlink:title="A hydraulic / water quality model abstraction. ">
<polygon fill="white" stroke="black" points="24.6914,-117 24.6914,-137 93.3086,-137 93.3086,-117 24.6914,-117"/>
<text text-anchor="middle" x="59" y="-123" font-family="Helvetica,sans-Serif" font-size="10.00">RTX::Model</text>
</a>
</g>
<!-- Node3&#45;&gt;Node2 -->
<g id="edge4" class="edge"><title>Node3&#45;&gt;Node2</title>
<path fill="none" stroke="midnightblue" d="M59,-106.707C59,-97.3384 59,-86.5262 59,-79.0752"/>
<polygon fill="midnightblue" stroke="midnightblue" points="55.5001,-106.753 59,-116.753 62.5001,-106.753 55.5001,-106.753"/>
</g>
</g>
</svg>
