<?xml version="1.0" encoding="UTF-8" standalone="no"?>
<!DOCTYPE svg PUBLIC "-//W3C//DTD SVG 1.1//EN"
 "http://www.w3.org/Graphics/SVG/1.1/DTD/svg11.dtd">
<!-- Generated by graphviz version 2.36.0 (20140111.2315)
 -->
<!-- Title: RTX::IncompatibleComponent Pages: 1 -->
<svg width="156pt" height="140pt"
 viewBox="0.00 0.00 156.00 140.00" xmlns="http://www.w3.org/2000/svg" xmlns:xlink="http://www.w3.org/1999/xlink">
<g id="graph0" class="graph" transform="scale(1 1) rotate(0) translate(4 136)">
<title>RTX::IncompatibleComponent</title>
<polygon fill="white" stroke="none" points="-4,4 -4,-136 152,-136 152,4 -4,4"/>
<!-- Node1 -->
<g id="node1" class="node"><title>Node1</title>
<polygon fill="#bfbfbf" stroke="black" points="-0.889648,-1 -0.889648,-19 148.89,-19 148.89,-1 -0.889648,-1"/>
<text text-anchor="middle" x="74" y="-7" font-family="Helvetica,sans-Serif" font-size="10.00">RTX::IncompatibleComponent</text>
</g>
<!-- Node2 -->
<g id="node2" class="node"><title>Node2</title>
<g id="a_node2"><a xlink:href="class_r_t_x_1_1_rtx_exception.html" target="_top" xlink:title="RTX::RtxException">
<polygon fill="white" stroke="black" points="23.8516,-57 23.8516,-75 124.148,-75 124.148,-57 23.8516,-57"/>
<text text-anchor="middle" x="74" y="-63" font-family="Helvetica,sans-Serif" font-size="10.00">RTX::RtxException</text>
</a>
</g>
</g>
<!-- Node2&#45;&gt;Node1 -->
<g id="edge1" class="edge"><title>Node2&#45;&gt;Node1</title>
<path fill="none" stroke="midnightblue" d="M74,-46.3288C74,-37.0774 74,-26.3798 74,-19.2014"/>
<polygon fill="midnightblue" stroke="midnightblue" points="70.5001,-46.5625 74,-56.5625 77.5001,-46.5625 70.5001,-46.5625"/>
</g>
<!-- Node3 -->
<g id="node3" class="node"><title>Node3</title>
<g id="a_node3"><a xlink:title="STL class. ">
<polygon fill="white" stroke="#bfbfbf" points="35.1479,-113 35.1479,-131 112.852,-131 112.852,-113 35.1479,-113"/>
<text text-anchor="middle" x="74" y="-119" font-family="Helvetica,sans-Serif" font-size="10.00">std::exception</text>
</a>
</g>
</g>
<!-- Node3&#45;&gt;Node2 -->
<g id="edge2" class="edge"><title>Node3&#45;&gt;Node2</title>
<path fill="none" stroke="midnightblue" d="M74,-102.329C74,-93.0774 74,-82.3798 74,-75.2014"/>
<polygon fill="midnightblue" stroke="midnightblue" points="70.5001,-102.562 74,-112.562 77.5001,-102.563 70.5001,-102.562"/>
</g>
</g>
</svg>
