<?xml version="1.0" encoding="UTF-8" standalone="no"?>
<!DOCTYPE svg PUBLIC "-//W3C//DTD SVG 1.1//EN"
 "http://www.w3.org/Graphics/SVG/1.1/DTD/svg11.dtd">
<!-- Generated by graphviz version 2.36.0 (20140111.2315)
 -->
<!-- Title: RTX::MovingAverage Pages: 1 -->
<svg width="136pt" height="262pt"
 viewBox="0.00 0.00 136.00 262.00" xmlns="http://www.w3.org/2000/svg" xmlns:xlink="http://www.w3.org/1999/xlink">
<g id="graph0" class="graph" transform="scale(1 1) rotate(0) translate(4 258)">
<title>RTX::MovingAverage</title>
<polygon fill="white" stroke="none" points="-4,4 -4,-258 132,-258 132,4 -4,4"/>
<!-- Node1 -->
<g id="node1" class="node"><title>Node1</title>
<polygon fill="#bfbfbf" stroke="black" points="8.65625,-1 8.65625,-19 119.344,-19 119.344,-1 8.65625,-1"/>
<text text-anchor="middle" x="64" y="-7" font-family="Helvetica,sans-Serif" font-size="10.00">RTX::MovingAverage</text>
</g>
<!-- Node2 -->
<g id="node2" class="node"><title>Node2</title>
<g id="a_node2"><a xlink:href="class_r_t_x_1_1_resampler.html" target="_top" xlink:title="RTX::Resampler">
<polygon fill="white" stroke="black" points="19.1348,-57 19.1348,-75 108.865,-75 108.865,-57 19.1348,-57"/>
<text text-anchor="middle" x="64" y="-63" font-family="Helvetica,sans-Serif" font-size="10.00">RTX::Resampler</text>
</a>
</g>
</g>
<!-- Node2&#45;&gt;Node1 -->
<g id="edge1" class="edge"><title>Node2&#45;&gt;Node1</title>
<path fill="none" stroke="midnightblue" d="M64,-46.3288C64,-37.0774 64,-26.3798 64,-19.2014"/>
<polygon fill="midnightblue" stroke="midnightblue" points="60.5001,-46.5625 64,-56.5625 67.5001,-46.5625 60.5001,-46.5625"/>
</g>
<!-- Node3 -->
<g id="node3" class="node"><title>Node3</title>
<g id="a_node3"><a xlink:href="class_r_t_x_1_1_modular_time_series.html" target="_top" xlink:title="A Time Series class that allows a single upstream TimeSeries. ">
<polygon fill="white" stroke="black" points="0.145508,-113 0.145508,-131 127.854,-131 127.854,-113 0.145508,-113"/>
<text text-anchor="middle" x="64" y="-119" font-family="Helvetica,sans-Serif" font-size="10.00">RTX::ModularTimeSeries</text>
</a>
</g>
</g>
<!-- Node3&#45;&gt;Node2 -->
<g id="edge2" class="edge"><title>Node3&#45;&gt;Node2</title>
<path fill="none" stroke="midnightblue" d="M64,-102.329C64,-93.0774 64,-82.3798 64,-75.2014"/>
<polygon fill="midnightblue" stroke="midnightblue" points="60.5001,-102.562 64,-112.562 67.5001,-102.563 60.5001,-102.562"/>
</g>
<!-- Node4 -->
<g id="node4" class="node"><title>Node4</title>
<g id="a_node4"><a xlink:href="class_r_t_x_1_1_time_series.html" target="_top" xlink:title="An abstraction of Points ordered in time. ">
<polygon fill="white" stroke="black" points="18.2095,-169 18.2095,-187 109.791,-187 109.791,-169 18.2095,-169"/>
<text text-anchor="middle" x="64" y="-175" font-family="Helvetica,sans-Serif" font-size="10.00">RTX::TimeSeries</text>
</a>
</g>
</g>
<!-- Node4&#45;&gt;Node3 -->
<g id="edge3" class="edge"><title>Node4&#45;&gt;Node3</title>
<path fill="none" stroke="midnightblue" d="M64,-158.329C64,-149.077 64,-138.38 64,-131.201"/>
<polygon fill="midnightblue" stroke="midnightblue" points="60.5001,-158.562 64,-168.562 67.5001,-158.563 60.5001,-158.562"/>
</g>
<!-- Node5 -->
<g id="node5" class="node"><title>Node5</title>
<polygon fill="white" stroke="#bfbfbf" points="-0.972656,-225 -0.972656,-253 128.973,-253 128.973,-225 -0.972656,-225"/>
<text text-anchor="start" x="7.02734" y="-241" font-family="Helvetica,sans-Serif" font-size="10.00">boost::enable_shared</text>
<text text-anchor="middle" x="64" y="-231" font-family="Helvetica,sans-Serif" font-size="10.00">_from_this&lt; TimeSeries &gt;</text>
</g>
<!-- Node5&#45;&gt;Node4 -->
<g id="edge4" class="edge"><title>Node5&#45;&gt;Node4</title>
<path fill="none" stroke="midnightblue" d="M64,-214.886C64,-205.094 64,-194.316 64,-187.153"/>
<polygon fill="midnightblue" stroke="midnightblue" points="60.5001,-214.906 64,-224.906 67.5001,-214.906 60.5001,-214.906"/>
</g>
</g>
</svg>
