<?xml version="1.0" encoding="UTF-8" standalone="no"?>
<!DOCTYPE svg PUBLIC "-//W3C//DTD SVG 1.1//EN"
 "http://www.w3.org/Graphics/SVG/1.1/DTD/svg11.dtd">
<!-- Generated by graphviz version 2.36.0 (20140111.2315)
 -->
<!-- Title: RTX::AggregatorTimeSeries Pages: 1 -->
<svg width="148pt" height="262pt"
 viewBox="0.00 0.00 148.00 262.00" xmlns="http://www.w3.org/2000/svg" xmlns:xlink="http://www.w3.org/1999/xlink">
<g id="graph0" class="graph" transform="scale(1 1) rotate(0) translate(4 258)">
<title>RTX::AggregatorTimeSeries</title>
<polygon fill="white" stroke="none" points="-4,4 -4,-258 144,-258 144,4 -4,4"/>
<!-- Node1 -->
<g id="node1" class="node"><title>Node1</title>
<polygon fill="#bfbfbf" stroke="black" points="-0.529297,-1 -0.529297,-19 140.529,-19 140.529,-1 -0.529297,-1"/>
<text text-anchor="middle" x="70" y="-7" font-family="Helvetica,sans-Serif" font-size="10.00">RTX::AggregatorTimeSeries</text>
</g>
<!-- Node2 -->
<g id="node2" class="node"><title>Node2</title>
<g id="a_node2"><a xlink:href="class_r_t_x_1_1_resampler.html" target="_top" xlink:title="RTX::Resampler">
<polygon fill="white" stroke="black" points="25.1348,-57 25.1348,-75 114.865,-75 114.865,-57 25.1348,-57"/>
<text text-anchor="middle" x="70" y="-63" font-family="Helvetica,sans-Serif" font-size="10.00">RTX::Resampler</text>
</a>
</g>
</g>
<!-- Node2&#45;&gt;Node1 -->
<g id="edge1" class="edge"><title>Node2&#45;&gt;Node1</title>
<path fill="none" stroke="midnightblue" d="M70,-46.3288C70,-37.0774 70,-26.3798 70,-19.2014"/>
<polygon fill="midnightblue" stroke="midnightblue" points="66.5001,-46.5625 70,-56.5625 73.5001,-46.5625 66.5001,-46.5625"/>
</g>
<!-- Node3 -->
<g id="node3" class="node"><title>Node3</title>
<g id="a_node3"><a xlink:href="class_r_t_x_1_1_modular_time_series.html" target="_top" xlink:title="A Time Series class that allows a single upstream TimeSeries. ">
<polygon fill="white" stroke="black" points="6.14551,-113 6.14551,-131 133.854,-131 133.854,-113 6.14551,-113"/>
<text text-anchor="middle" x="70" y="-119" font-family="Helvetica,sans-Serif" font-size="10.00">RTX::ModularTimeSeries</text>
</a>
</g>
</g>
<!-- Node3&#45;&gt;Node2 -->
<g id="edge2" class="edge"><title>Node3&#45;&gt;Node2</title>
<path fill="none" stroke="midnightblue" d="M70,-102.329C70,-93.0774 70,-82.3798 70,-75.2014"/>
<polygon fill="midnightblue" stroke="midnightblue" points="66.5001,-102.562 70,-112.562 73.5001,-102.563 66.5001,-102.562"/>
</g>
<!-- Node4 -->
<g id="node4" class="node"><title>Node4</title>
<g id="a_node4"><a xlink:href="class_r_t_x_1_1_time_series.html" target="_top" xlink:title="An abstraction of Points ordered in time. ">
<polygon fill="white" stroke="black" points="24.2095,-169 24.2095,-187 115.791,-187 115.791,-169 24.2095,-169"/>
<text text-anchor="middle" x="70" y="-175" font-family="Helvetica,sans-Serif" font-size="10.00">RTX::TimeSeries</text>
</a>
</g>
</g>
<!-- Node4&#45;&gt;Node3 -->
<g id="edge3" class="edge"><title>Node4&#45;&gt;Node3</title>
<path fill="none" stroke="midnightblue" d="M70,-158.329C70,-149.077 70,-138.38 70,-131.201"/>
<polygon fill="midnightblue" stroke="midnightblue" points="66.5001,-158.562 70,-168.562 73.5001,-158.563 66.5001,-158.562"/>
</g>
<!-- Node5 -->
<g id="node5" class="node"><title>Node5</title>
<polygon fill="white" stroke="#bfbfbf" points="5.02734,-225 5.02734,-253 134.973,-253 134.973,-225 5.02734,-225"/>
<text text-anchor="start" x="13.0273" y="-241" font-family="Helvetica,sans-Serif" font-size="10.00">boost::enable_shared</text>
<text text-anchor="middle" x="70" y="-231" font-family="Helvetica,sans-Serif" font-size="10.00">_from_this&lt; TimeSeries &gt;</text>
</g>
<!-- Node5&#45;&gt;Node4 -->
<g id="edge4" class="edge"><title>Node5&#45;&gt;Node4</title>
<path fill="none" stroke="midnightblue" d="M70,-214.886C70,-205.094 70,-194.316 70,-187.153"/>
<polygon fill="midnightblue" stroke="midnightblue" points="66.5001,-214.906 70,-224.906 73.5001,-214.906 66.5001,-214.906"/>
</g>
</g>
</svg>
