<?xml version="1.0" encoding="UTF-8" standalone="no"?>
<!DOCTYPE svg PUBLIC "-//W3C//DTD SVG 1.1//EN"
 "http://www.w3.org/Graphics/SVG/1.1/DTD/svg11.dtd">
<!-- Generated by graphviz version 2.28.0 (20110509.1545)
 -->
<!-- Title: RTX::TempoDbPointRecord Pages: 1 -->
<svg width="522pt" height="514pt"
 viewBox="0.00 0.00 522.46 514.00" xmlns="http://www.w3.org/2000/svg" xmlns:xlink="http://www.w3.org/1999/xlink">
<g id="graph1" class="graph" transform="scale(1 1) rotate(0) translate(4 510)">
<title>RTX::TempoDbPointRecord</title>
<polygon fill="white" stroke="white" points="-4,5 -4,-510 519.458,-510 519.458,5 -4,5"/>
<!-- Node1 -->
<g id="node1" class="node"><title>Node1</title>
<polygon fill="#bfbfbf" stroke="black" points="364.396,-1 364.396,-21 503.604,-21 503.604,-1 364.396,-1"/>
<text text-anchor="middle" x="434" y="-7" font-family="Helvetica,sans-Serif" font-size="10.00">RTX::TempoDbPointRecord</text>
</g>
<!-- Node2 -->
<g id="node2" class="node"><title>Node2</title>
<a xlink:href="class_r_t_x_1_1_db_point_record.html" target="_top" xlink:title="A persistence layer for databases. ">
<polygon fill="white" stroke="black" points="299.403,-61 299.403,-81 408.597,-81 408.597,-61 299.403,-61"/>
<text text-anchor="middle" x="354" y="-67" font-family="Helvetica,sans-Serif" font-size="10.00">RTX::DbPointRecord</text>
</a>
</g>
<!-- Node2&#45;&gt;Node1 -->
<g id="edge2" class="edge"><title>Node2&#45;&gt;Node1</title>
<path fill="none" stroke="midnightblue" d="M374.983,-54.7872C389.697,-44.1194 408.886,-30.2075 421.324,-21.1903"/>
<polygon fill="midnightblue" stroke="midnightblue" points="372.542,-52.2341 366.5,-60.9375 376.651,-57.9014 372.542,-52.2341"/>
</g>
<!-- Node3 -->
<g id="node4" class="node"><title>Node3</title>
<a xlink:href="class_r_t_x_1_1_buffer_point_record.html" target="_top" xlink:title="RTX::BufferPointRecord">
<polygon fill="white" stroke="black" points="217.543,-121 217.543,-141 340.457,-141 340.457,-121 217.543,-121"/>
<text text-anchor="middle" x="279" y="-127" font-family="Helvetica,sans-Serif" font-size="10.00">RTX::BufferPointRecord</text>
</a>
</g>
<!-- Node3&#45;&gt;Node2 -->
<g id="edge4" class="edge"><title>Node3&#45;&gt;Node2</title>
<path fill="none" stroke="midnightblue" d="M298.672,-114.787C312.466,-104.119 330.456,-90.2075 342.116,-81.1903"/>
<polygon fill="midnightblue" stroke="midnightblue" points="296.488,-112.051 290.719,-120.938 300.77,-117.589 296.488,-112.051"/>
</g>
<!-- Node4 -->
<g id="node6" class="node"><title>Node4</title>
<a xlink:href="class_r_t_x_1_1_point_record.html" target="_top" xlink:title="A Point Record Class for storing and retrieving Points. ">
<polygon fill="white" stroke="black" points="178.795,-239 178.795,-259 275.205,-259 275.205,-239 178.795,-239"/>
<text text-anchor="middle" x="227" y="-245" font-family="Helvetica,sans-Serif" font-size="10.00">RTX::PointRecord</text>
</a>
</g>
<!-- Node4&#45;&gt;Node3 -->
<g id="edge6" class="edge"><title>Node4&#45;&gt;Node3</title>
<path fill="none" stroke="midnightblue" d="M235.207,-229.693C246.503,-204.493 266.412,-160.081 274.939,-141.06"/>
<polygon fill="midnightblue" stroke="midnightblue" points="231.977,-228.341 231.08,-238.898 238.365,-231.204 231.977,-228.341"/>
</g>
<!-- Node5 -->
<g id="node8" class="node"><title>Node5</title>
<polygon fill="white" stroke="#bfbfbf" points="142.452,-331 142.452,-363 251.548,-363 251.548,-331 142.452,-331"/>
<text text-anchor="start" x="150.452" y="-349" font-family="Helvetica,sans-Serif" font-size="10.00">std::map&lt; std::string,</text>
<text text-anchor="middle" x="197" y="-337" font-family="Helvetica,sans-Serif" font-size="10.00"> RTX::Point &gt;</text>
</g>
<!-- Node5&#45;&gt;Node4 -->
<g id="edge8" class="edge"><title>Node5&#45;&gt;Node4</title>
<path fill="none" stroke="#9a32cd" stroke-dasharray="5,2" d="M202.757,-320.904C205.956,-307.957 210.258,-291.988 215.069,-278 217.269,-271.604 220.252,-264.604 222.684,-259.203"/>
<polygon fill="#9a32cd" stroke="#9a32cd" points="199.275,-320.418 200.343,-330.959 206.081,-322.052 199.275,-320.418"/>
<text text-anchor="middle" x="245.465" y="-291" font-family="Helvetica,sans-Serif" font-size="10.00"> _pointCache</text>
</g>
<!-- Node6 -->
<g id="node10" class="node"><title>Node6</title>
<a xlink:title="STL class. ">
<polygon fill="white" stroke="#bfbfbf" points="258.325,-413 258.325,-433 317.675,-433 317.675,-413 258.325,-413"/>
<text text-anchor="middle" x="288" y="-419" font-family="Helvetica,sans-Serif" font-size="10.00">std::string</text>
</a>
</g>
<!-- Node6&#45;&gt;Node1 -->
<g id="edge26" class="edge"><title>Node6&#45;&gt;Node1</title>
<path fill="none" stroke="#9a32cd" stroke-dasharray="5,2" d="M328.016,-414.946C384.285,-403.87 480,-380.285 480,-348 480,-348 480,-348 480,-70 480,-49.1799 461.579,-31.484 448.051,-21.2958"/>
<polygon fill="#9a32cd" stroke="#9a32cd" points="327.161,-411.546 318,-416.868 328.48,-418.421 327.161,-411.546"/>
<text text-anchor="middle" x="497.229" y="-210" font-family="Helvetica,sans-Serif" font-size="10.00"> pass</text>
<text text-anchor="middle" x="497.229" y="-198" font-family="Helvetica,sans-Serif" font-size="10.00">host</text>
<text text-anchor="middle" x="497.229" y="-186" font-family="Helvetica,sans-Serif" font-size="10.00">baseUrl</text>
<text text-anchor="middle" x="497.229" y="-174" font-family="Helvetica,sans-Serif" font-size="10.00">user</text>
<text text-anchor="middle" x="497.229" y="-162" font-family="Helvetica,sans-Serif" font-size="10.00">db</text>
</g>
<!-- Node6&#45;&gt;Node2 -->
<g id="edge24" class="edge"><title>Node6&#45;&gt;Node2</title>
<path fill="none" stroke="#9a32cd" stroke-dasharray="5,2" d="M327.376,-410.277C355.36,-399.236 388,-379.588 388,-348 388,-348 388,-348 388,-130 388,-110.624 373.704,-91.9892 363.652,-81.2811"/>
<polygon fill="#9a32cd" stroke="#9a32cd" points="325.907,-407.088 317.733,-413.829 328.326,-413.657 325.907,-407.088"/>
<text text-anchor="middle" x="420.234" y="-245" font-family="Helvetica,sans-Serif" font-size="10.00"> errorMessage</text>
</g>
<!-- Node6&#45;&gt;Node4 -->
<g id="edge16" class="edge"><title>Node6&#45;&gt;Node4</title>
<path fill="none" stroke="#9a32cd" stroke-dasharray="5,2" d="M291.314,-402.468C295.236,-373.013 298.466,-316.575 274,-278 268.709,-269.658 259.961,-263.473 251.437,-259.069"/>
<polygon fill="#9a32cd" stroke="#9a32cd" points="287.806,-402.257 289.778,-412.667 294.728,-403.299 287.806,-402.257"/>
<text text-anchor="middle" x="329.859" y="-343" font-family="Helvetica,sans-Serif" font-size="10.00"> _cachedPointId</text>
</g>
<!-- Node6&#45;&gt;Node5 -->
<g id="edge10" class="edge"><title>Node6&#45;&gt;Node5</title>
<path fill="none" stroke="#9a32cd" stroke-dasharray="5,2" d="M267.273,-406.833C261.815,-402.737 255.969,-398.259 250.66,-394 238.217,-384.019 224.574,-372.313 214.158,-363.207"/>
<polygon fill="#9a32cd" stroke="#9a32cd" points="265.283,-409.715 275.398,-412.867 269.456,-404.095 265.283,-409.715"/>
<text text-anchor="middle" x="262.67" y="-384" font-family="Helvetica,sans-Serif" font-size="10.00"> keys</text>
</g>
<!-- Node9 -->
<g id="node18" class="node"><title>Node9</title>
<a xlink:href="class_r_t_x_1_1_db_point_record_1_1request__t.html" target="_top" xlink:title="RTX::DbPointRecord\l::request_t">
<polygon fill="white" stroke="black" points="66.4033,-279 66.4033,-311 175.597,-311 175.597,-279 66.4033,-279"/>
<text text-anchor="start" x="74.4033" y="-297" font-family="Helvetica,sans-Serif" font-size="10.00">RTX::DbPointRecord</text>
<text text-anchor="middle" x="121" y="-285" font-family="Helvetica,sans-Serif" font-size="10.00">::request_t</text>
</a>
</g>
<!-- Node6&#45;&gt;Node9 -->
<g id="edge22" class="edge"><title>Node6&#45;&gt;Node9</title>
<path fill="none" stroke="#9a32cd" stroke-dasharray="5,2" d="M248.08,-418.05C212.409,-412.314 161.508,-398.282 133,-364 120.659,-349.16 119.095,-326.09 119.633,-311.012"/>
<polygon fill="#9a32cd" stroke="#9a32cd" points="247.762,-421.54 258.162,-419.517 248.77,-414.613 247.762,-421.54"/>
<text text-anchor="middle" x="175.281" y="-384" font-family="Helvetica,sans-Serif" font-size="10.00"> id</text>
</g>
<!-- Node7 -->
<g id="node12" class="node"><title>Node7</title>
<a xlink:title="STL class. ">
<polygon fill="white" stroke="#bfbfbf" points="240.952,-473 240.952,-505 335.048,-505 335.048,-473 240.952,-473"/>
<text text-anchor="start" x="248.952" y="-491" font-family="Helvetica,sans-Serif" font-size="10.00">std::basic_string&lt;</text>
<text text-anchor="middle" x="288" y="-479" font-family="Helvetica,sans-Serif" font-size="10.00"> char &gt;</text>
</a>
</g>
<!-- Node7&#45;&gt;Node6 -->
<g id="edge12" class="edge"><title>Node7&#45;&gt;Node6</title>
<path fill="none" stroke="midnightblue" d="M288,-462.611C288,-452.286 288,-441.001 288,-433.313"/>
<polygon fill="midnightblue" stroke="midnightblue" points="284.5,-462.833 288,-472.833 291.5,-462.833 284.5,-462.833"/>
</g>
<!-- Node8 -->
<g id="node14" class="node"><title>Node8</title>
<a xlink:href="class_r_t_x_1_1_point.html" target="_top" xlink:title="A Point Class to store data tuples (date, value, quality, confidence) ">
<polygon fill="white" stroke="black" points="-0.0869141,-413 -0.0869141,-433 64.0869,-433 64.0869,-413 -0.0869141,-413"/>
<text text-anchor="middle" x="32" y="-419" font-family="Helvetica,sans-Serif" font-size="10.00">RTX::Point</text>
</a>
</g>
<!-- Node8&#45;&gt;Node4 -->
<g id="edge18" class="edge"><title>Node8&#45;&gt;Node4</title>
<path fill="none" stroke="#9a32cd" stroke-dasharray="5,2" d="M29.0088,-403.043C25.313,-372.114 23.1588,-310.948 57,-278 73.931,-261.516 134.719,-254.714 178.779,-251.921"/>
<polygon fill="#9a32cd" stroke="#9a32cd" points="25.5432,-403.534 30.3763,-412.962 32.4776,-402.577 25.5432,-403.534"/>
<text text-anchor="middle" x="62.6895" y="-343" font-family="Helvetica,sans-Serif" font-size="10.00"> _cachedPoint</text>
</g>
<!-- Node8&#45;&gt;Node5 -->
<g id="edge14" class="edge"><title>Node8&#45;&gt;Node5</title>
<path fill="none" stroke="#9a32cd" stroke-dasharray="5,2" d="M35.8891,-403.038C38.3515,-395.487 42.3156,-387.341 48.6455,-382 62.8326,-370.029 106.133,-360.957 142.318,-355.207"/>
<polygon fill="#9a32cd" stroke="#9a32cd" points="32.4385,-402.401 33.3178,-412.96 39.2146,-404.158 32.4385,-402.401"/>
<text text-anchor="middle" x="70.6772" y="-384" font-family="Helvetica,sans-Serif" font-size="10.00"> elements</text>
</g>
<!-- Node9&#45;&gt;Node2 -->
<g id="edge20" class="edge"><title>Node9&#45;&gt;Node2</title>
<path fill="none" stroke="#9a32cd" stroke-dasharray="5,2" d="M127.18,-268.605C137.652,-230.862 162.431,-160.119 209,-120 234.314,-98.1929 269.835,-86.2242 299.384,-79.692"/>
<polygon fill="#9a32cd" stroke="#9a32cd" points="123.669,-268.193 124.49,-278.756 130.435,-269.986 123.669,-268.193"/>
<text text-anchor="middle" x="192.066" y="-186" font-family="Helvetica,sans-Serif" font-size="10.00"> request</text>
</g>
</g>
</svg>
