<?xml version="1.0" encoding="UTF-8" standalone="no"?>
<!DOCTYPE svg PUBLIC "-//W3C//DTD SVG 1.1//EN"
 "http://www.w3.org/Graphics/SVG/1.1/DTD/svg11.dtd">
<!-- Generated by graphviz version 2.28.0 (20110509.1545)
 -->
<!-- Title: RTX::InfluxDbPointRecord Pages: 1 -->
<svg width="140pt" height="204pt"
 viewBox="0.00 0.00 140.00 204.00" xmlns="http://www.w3.org/2000/svg" xmlns:xlink="http://www.w3.org/1999/xlink">
<g id="graph1" class="graph" transform="scale(1 1) rotate(0) translate(4 200)">
<title>RTX::InfluxDbPointRecord</title>
<polygon fill="white" stroke="white" points="-4,5 -4,-200 137,-200 137,5 -4,5"/>
<!-- Node1 -->
<g id="node1" class="node"><title>Node1</title>
<polygon fill="#bfbfbf" stroke="black" points="-0.547363,-1 -0.547363,-21 132.547,-21 132.547,-1 -0.547363,-1"/>
<text text-anchor="middle" x="66" y="-7" font-family="Helvetica,sans-Serif" font-size="10.00">RTX::InfluxDbPointRecord</text>
</g>
<!-- Node2 -->
<g id="node2" class="node"><title>Node2</title>
<a xlink:href="class_r_t_x_1_1_db_point_record.html" target="_top" xlink:title="A persistence layer for databases. ">
<polygon fill="white" stroke="black" points="11.4033,-59 11.4033,-79 120.597,-79 120.597,-59 11.4033,-59"/>
<text text-anchor="middle" x="66" y="-65" font-family="Helvetica,sans-Serif" font-size="10.00">RTX::DbPointRecord</text>
</a>
</g>
<!-- Node2&#45;&gt;Node1 -->
<g id="edge2" class="edge"><title>Node2&#45;&gt;Node1</title>
<path fill="none" stroke="midnightblue" d="M66,-48.7065C66,-39.3384 66,-28.5262 66,-21.0752"/>
<polygon fill="midnightblue" stroke="midnightblue" points="62.5001,-48.7527 66,-58.7527 69.5001,-48.7528 62.5001,-48.7527"/>
</g>
<!-- Node3 -->
<g id="node4" class="node"><title>Node3</title>
<a xlink:href="class_r_t_x_1_1_buffer_point_record.html" target="_top" xlink:title="RTX::BufferPointRecord">
<polygon fill="white" stroke="black" points="4.54297,-117 4.54297,-137 127.457,-137 127.457,-117 4.54297,-117"/>
<text text-anchor="middle" x="66" y="-123" font-family="Helvetica,sans-Serif" font-size="10.00">RTX::BufferPointRecord</text>
</a>
</g>
<!-- Node3&#45;&gt;Node2 -->
<g id="edge4" class="edge"><title>Node3&#45;&gt;Node2</title>
<path fill="none" stroke="midnightblue" d="M66,-106.707C66,-97.3384 66,-86.5262 66,-79.0752"/>
<polygon fill="midnightblue" stroke="midnightblue" points="62.5001,-106.753 66,-116.753 69.5001,-106.753 62.5001,-106.753"/>
</g>
<!-- Node4 -->
<g id="node6" class="node"><title>Node4</title>
<a xlink:href="class_r_t_x_1_1_point_record.html" target="_top" xlink:title="A Point Record Class for storing and retrieving Points. ">
<polygon fill="white" stroke="black" points="17.7949,-175 17.7949,-195 114.205,-195 114.205,-175 17.7949,-175"/>
<text text-anchor="middle" x="66" y="-181" font-family="Helvetica,sans-Serif" font-size="10.00">RTX::PointRecord</text>
</a>
</g>
<!-- Node4&#45;&gt;Node3 -->
<g id="edge6" class="edge"><title>Node4&#45;&gt;Node3</title>
<path fill="none" stroke="midnightblue" d="M66,-164.707C66,-155.338 66,-144.526 66,-137.075"/>
<polygon fill="midnightblue" stroke="midnightblue" points="62.5001,-164.753 66,-174.753 69.5001,-164.753 62.5001,-164.753"/>
</g>
</g>
</svg>
