<?xml version="1.0" encoding="UTF-8" standalone="no"?>
<!DOCTYPE svg PUBLIC "-//W3C//DTD SVG 1.1//EN"
 "http://www.w3.org/Graphics/SVG/1.1/DTD/svg11.dtd">
<!-- Generated by graphviz version 2.36.0 (20140111.2315)
 -->
<!-- Title: RTX::EpanetSyntheticModel Pages: 1 -->
<svg width="148pt" height="140pt"
 viewBox="0.00 0.00 148.00 140.00" xmlns="http://www.w3.org/2000/svg" xmlns:xlink="http://www.w3.org/1999/xlink">
<g id="graph0" class="graph" transform="scale(1 1) rotate(0) translate(4 136)">
<title>RTX::EpanetSyntheticModel</title>
<polygon fill="white" stroke="none" points="-4,4 -4,-136 144,-136 144,4 -4,4"/>
<!-- Node1 -->
<g id="node1" class="node"><title>Node1</title>
<polygon fill="#bfbfbf" stroke="black" points="-0.722168,-1 -0.722168,-19 140.722,-19 140.722,-1 -0.722168,-1"/>
<text text-anchor="middle" x="70" y="-7" font-family="Helvetica,sans-Serif" font-size="10.00">RTX::EpanetSyntheticModel</text>
</g>
<!-- Node2 -->
<g id="node2" class="node"><title>Node2</title>
<g id="a_node2"><a xlink:href="class_r_t_x_1_1_epanet_model.html" target="_top" xlink:title="An Epanet&#45;based model object. ">
<polygon fill="white" stroke="black" points="19.8442,-57 19.8442,-75 120.156,-75 120.156,-57 19.8442,-57"/>
<text text-anchor="middle" x="70" y="-63" font-family="Helvetica,sans-Serif" font-size="10.00">RTX::EpanetModel</text>
</a>
</g>
</g>
<!-- Node2&#45;&gt;Node1 -->
<g id="edge1" class="edge"><title>Node2&#45;&gt;Node1</title>
<path fill="none" stroke="midnightblue" d="M70,-46.3288C70,-37.0774 70,-26.3798 70,-19.2014"/>
<polygon fill="midnightblue" stroke="midnightblue" points="66.5001,-46.5625 70,-56.5625 73.5001,-46.5625 66.5001,-46.5625"/>
</g>
<!-- Node3 -->
<g id="node3" class="node"><title>Node3</title>
<g id="a_node3"><a xlink:href="class_r_t_x_1_1_model.html" target="_top" xlink:title="A hydraulic / water quality model abstraction. ">
<polygon fill="white" stroke="black" points="35.6914,-113 35.6914,-131 104.309,-131 104.309,-113 35.6914,-113"/>
<text text-anchor="middle" x="70" y="-119" font-family="Helvetica,sans-Serif" font-size="10.00">RTX::Model</text>
</a>
</g>
</g>
<!-- Node3&#45;&gt;Node2 -->
<g id="edge2" class="edge"><title>Node3&#45;&gt;Node2</title>
<path fill="none" stroke="midnightblue" d="M70,-102.329C70,-93.0774 70,-82.3798 70,-75.2014"/>
<polygon fill="midnightblue" stroke="midnightblue" points="66.5001,-102.562 70,-112.562 73.5001,-102.563 66.5001,-102.562"/>
</g>
</g>
</svg>
