<?xml version="1.0" encoding="UTF-8" standalone="no"?>
<!DOCTYPE svg PUBLIC "-//W3C//DTD SVG 1.1//EN"
 "http://www.w3.org/Graphics/SVG/1.1/DTD/svg11.dtd">
<!-- Generated by graphviz version 2.28.0 (20110509.1545)
 -->
<!-- Title: RTX::RtxException Pages: 1 -->
<svg width="408pt" height="208pt"
 viewBox="0.00 0.00 408.00 208.00" xmlns="http://www.w3.org/2000/svg" xmlns:xlink="http://www.w3.org/1999/xlink">
<g id="graph1" class="graph" transform="scale(1 1) rotate(0) translate(4 204)">
<title>RTX::RtxException</title>
<polygon fill="white" stroke="white" points="-4,5 -4,-204 405,-204 405,5 -4,5"/>
<!-- Node1 -->
<g id="node1" class="node"><title>Node1</title>
<polygon fill="#bfbfbf" stroke="black" points="113.852,-78 113.852,-98 214.148,-98 214.148,-78 113.852,-78"/>
<text text-anchor="middle" x="164" y="-84" font-family="Helvetica,sans-Serif" font-size="10.00">RTX::RtxException</text>
</g>
<!-- Node3 -->
<g id="node5" class="node"><title>Node3</title>
<a xlink:href="class_r_t_x_1_1_db_point_record_1_1_rtx_db_connect_exception.html" target="_top" xlink:title="RTX::DbPointRecord\l::RtxDbConnectException">
<polygon fill="white" stroke="black" points="259.749,-168 259.749,-200 390.251,-200 390.251,-168 259.749,-168"/>
<text text-anchor="start" x="267.749" y="-186" font-family="Helvetica,sans-Serif" font-size="10.00">RTX::DbPointRecord</text>
<text text-anchor="middle" x="325" y="-174" font-family="Helvetica,sans-Serif" font-size="10.00">::RtxDbConnectException</text>
</a>
</g>
<!-- Node1&#45;&gt;Node3 -->
<g id="edge4" class="edge"><title>Node1&#45;&gt;Node3</title>
<path fill="none" stroke="midnightblue" d="M182.298,-105.388C198.577,-120.946 224.241,-143.476 250,-158 256.524,-161.678 263.66,-164.976 270.845,-167.887"/>
<polygon fill="midnightblue" stroke="midnightblue" points="184.706,-102.848 175.101,-98.3766 179.821,-107.862 184.706,-102.848"/>
</g>
<!-- Node4 -->
<g id="node7" class="node"><title>Node4</title>
<a xlink:href="class_r_t_x_1_1_db_point_record_1_1_rtx_db_retrieval_exception.html" target="_top" xlink:title="RTX::DbPointRecord\l::RtxDbRetrievalException">
<polygon fill="white" stroke="black" points="258.643,-117 258.643,-149 391.357,-149 391.357,-117 258.643,-117"/>
<text text-anchor="start" x="266.643" y="-135" font-family="Helvetica,sans-Serif" font-size="10.00">RTX::DbPointRecord</text>
<text text-anchor="middle" x="325" y="-123" font-family="Helvetica,sans-Serif" font-size="10.00">::RtxDbRetrievalException</text>
</a>
</g>
<!-- Node1&#45;&gt;Node4 -->
<g id="edge6" class="edge"><title>Node1&#45;&gt;Node4</title>
<path fill="none" stroke="midnightblue" d="M210.709,-100.937C228.331,-105.924 248.674,-111.681 267.216,-116.929"/>
<polygon fill="midnightblue" stroke="midnightblue" points="211.258,-97.4545 200.683,-98.0989 209.352,-104.19 211.258,-97.4545"/>
</g>
<!-- Node5 -->
<g id="node9" class="node"><title>Node5</title>
<a xlink:href="class_r_t_x_1_1_incompatible_component.html" target="_top" xlink:title="RTX::IncompatibleComponent">
<polygon fill="white" stroke="black" points="250.11,-78 250.11,-98 399.89,-98 399.89,-78 250.11,-78"/>
<text text-anchor="middle" x="325" y="-84" font-family="Helvetica,sans-Serif" font-size="10.00">RTX::IncompatibleComponent</text>
</a>
</g>
<!-- Node1&#45;&gt;Node5 -->
<g id="edge8" class="edge"><title>Node1&#45;&gt;Node5</title>
<path fill="none" stroke="midnightblue" d="M224.451,-88C232.812,-88 241.489,-88 250.078,-88"/>
<polygon fill="midnightblue" stroke="midnightblue" points="224.437,-84.5001 214.437,-88 224.437,-91.5001 224.437,-84.5001"/>
</g>
<!-- Node6 -->
<g id="node11" class="node"><title>Node6</title>
<a xlink:href="class_r_t_x_1_1_rtx_io_exception.html" target="_top" xlink:title="RTX::RtxIoException">
<polygon fill="white" stroke="black" points="270.682,-39 270.682,-59 379.318,-59 379.318,-39 270.682,-39"/>
<text text-anchor="middle" x="325" y="-45" font-family="Helvetica,sans-Serif" font-size="10.00">RTX::RtxIoException</text>
</a>
</g>
<!-- Node1&#45;&gt;Node6 -->
<g id="edge10" class="edge"><title>Node1&#45;&gt;Node6</title>
<path fill="none" stroke="midnightblue" d="M215.697,-75.5649C237.492,-70.219 262.626,-64.0539 283.192,-59.0094"/>
<polygon fill="midnightblue" stroke="midnightblue" points="214.825,-72.175 205.946,-77.9565 216.492,-78.9735 214.825,-72.175"/>
</g>
<!-- Node7 -->
<g id="node13" class="node"><title>Node7</title>
<a xlink:href="class_r_t_x_1_1_rtx_method_not_valid.html" target="_top" xlink:title="RTX::RtxMethodNotValid">
<polygon fill="white" stroke="black" points="261.602,-0 261.602,-20 388.398,-20 388.398,-0 261.602,-0"/>
<text text-anchor="middle" x="325" y="-6" font-family="Helvetica,sans-Serif" font-size="10.00">RTX::RtxMethodNotValid</text>
</a>
</g>
<!-- Node1&#45;&gt;Node7 -->
<g id="edge12" class="edge"><title>Node1&#45;&gt;Node7</title>
<path fill="none" stroke="midnightblue" d="M184.371,-71.5365C200.851,-58.3004 225.657,-40.1364 250,-29 257.72,-25.4686 266.204,-22.5154 274.589,-20.072"/>
<polygon fill="midnightblue" stroke="midnightblue" points="182.07,-68.8971 176.558,-77.9455 186.509,-74.3092 182.07,-68.8971"/>
</g>
<!-- Node2 -->
<g id="node2" class="node"><title>Node2</title>
<a xlink:title="STL class.">
<polygon fill="white" stroke="#bfbfbf" points="0.147949,-78 0.147949,-98 77.8521,-98 77.8521,-78 0.147949,-78"/>
<text text-anchor="middle" x="39" y="-84" font-family="Helvetica,sans-Serif" font-size="10.00">std::exception</text>
</a>
</g>
<!-- Node2&#45;&gt;Node1 -->
<g id="edge2" class="edge"><title>Node2&#45;&gt;Node1</title>
<path fill="none" stroke="midnightblue" d="M87.9697,-88C96.4012,-88 105.19,-88 113.658,-88"/>
<polygon fill="midnightblue" stroke="midnightblue" points="87.9077,-84.5001 77.9077,-88 87.9077,-91.5001 87.9077,-84.5001"/>
</g>
</g>
</svg>
