<?xml version="1.0" encoding="UTF-8" standalone="no"?>
<!DOCTYPE svg PUBLIC "-//W3C//DTD SVG 1.1//EN"
 "http://www.w3.org/Graphics/SVG/1.1/DTD/svg11.dtd">
<!-- Generated by graphviz version 2.28.0 (20110509.1545)
 -->
<!-- Title: RTX::RunTimeStatusModularTimeSeries Pages: 1 -->
<svg width="154pt" height="228pt"
 viewBox="0.00 0.00 154.00 228.00" xmlns="http://www.w3.org/2000/svg" xmlns:xlink="http://www.w3.org/1999/xlink">
<g id="graph1" class="graph" transform="scale(1 1) rotate(0) translate(4 224)">
<title>RTX::RunTimeStatusModularTimeSeries</title>
<polygon fill="white" stroke="white" points="-4,5 -4,-224 151,-224 151,5 -4,5"/>
<!-- Node1 -->
<g id="node1" class="node"><title>Node1</title>
<polygon fill="#bfbfbf" stroke="black" points="-0.0292969,-1 -0.0292969,-33 146.029,-33 146.029,-1 -0.0292969,-1"/>
<text text-anchor="start" x="7.9707" y="-19" font-family="Helvetica,sans-Serif" font-size="10.00">RTX::RunTimeStatusModular</text>
<text text-anchor="middle" x="73" y="-7" font-family="Helvetica,sans-Serif" font-size="10.00">TimeSeries</text>
</g>
<!-- Node2 -->
<g id="node2" class="node"><title>Node2</title>
<a xlink:href="class_r_t_x_1_1_modular_time_series.html" target="_top" xlink:title="A Time Series class that allows a single upstream TimeSeries. ">
<polygon fill="white" stroke="black" points="9.14551,-71 9.14551,-91 136.854,-91 136.854,-71 9.14551,-71"/>
<text text-anchor="middle" x="73" y="-77" font-family="Helvetica,sans-Serif" font-size="10.00">RTX::ModularTimeSeries</text>
</a>
</g>
<!-- Node2&#45;&gt;Node1 -->
<g id="edge2" class="edge"><title>Node2&#45;&gt;Node1</title>
<path fill="none" stroke="midnightblue" d="M73,-60.7747C73,-51.9863 73,-41.715 73,-33.4404"/>
<polygon fill="midnightblue" stroke="midnightblue" points="69.5001,-60.8517 73,-70.8517 76.5001,-60.8517 69.5001,-60.8517"/>
</g>
<!-- Node3 -->
<g id="node4" class="node"><title>Node3</title>
<a xlink:href="class_r_t_x_1_1_time_series.html" target="_top" xlink:title="An abstraction of Points ordered in time. ">
<polygon fill="white" stroke="black" points="27.2095,-129 27.2095,-149 118.791,-149 118.791,-129 27.2095,-129"/>
<text text-anchor="middle" x="73" y="-135" font-family="Helvetica,sans-Serif" font-size="10.00">RTX::TimeSeries</text>
</a>
</g>
<!-- Node3&#45;&gt;Node2 -->
<g id="edge4" class="edge"><title>Node3&#45;&gt;Node2</title>
<path fill="none" stroke="midnightblue" d="M73,-118.707C73,-109.338 73,-98.5262 73,-91.0752"/>
<polygon fill="midnightblue" stroke="midnightblue" points="69.5001,-118.753 73,-128.753 76.5001,-118.753 69.5001,-118.753"/>
</g>
<!-- Node4 -->
<g id="node6" class="node"><title>Node4</title>
<polygon fill="white" stroke="#bfbfbf" points="8.02734,-187 8.02734,-219 137.973,-219 137.973,-187 8.02734,-187"/>
<text text-anchor="start" x="16.0273" y="-205" font-family="Helvetica,sans-Serif" font-size="10.00">boost::enable_shared</text>
<text text-anchor="middle" x="73" y="-193" font-family="Helvetica,sans-Serif" font-size="10.00">_from_this&lt; TimeSeries &gt;</text>
</g>
<!-- Node4&#45;&gt;Node3 -->
<g id="edge6" class="edge"><title>Node4&#45;&gt;Node3</title>
<path fill="none" stroke="midnightblue" d="M73,-176.922C73,-167.172 73,-156.61 73,-149.29"/>
<polygon fill="midnightblue" stroke="midnightblue" points="69.5001,-176.991 73,-186.992 76.5001,-176.992 69.5001,-176.991"/>
</g>
</g>
</svg>
