<?xml version="1.0" encoding="UTF-8" standalone="no"?>
<!DOCTYPE svg PUBLIC "-//W3C//DTD SVG 1.1//EN"
 "http://www.w3.org/Graphics/SVG/1.1/DTD/svg11.dtd">
<!-- Generated by graphviz version 2.28.0 (20110509.1545)
 -->
<!-- Title: RTX::TempoDbPointRecord Pages: 1 -->
<svg width="146pt" height="204pt"
 viewBox="0.00 0.00 146.00 204.00" xmlns="http://www.w3.org/2000/svg" xmlns:xlink="http://www.w3.org/1999/xlink">
<g id="graph1" class="graph" transform="scale(1 1) rotate(0) translate(4 200)">
<title>RTX::TempoDbPointRecord</title>
<polygon fill="white" stroke="white" points="-4,5 -4,-200 143,-200 143,5 -4,5"/>
<!-- Node1 -->
<g id="node1" class="node"><title>Node1</title>
<polygon fill="#bfbfbf" stroke="black" points="-0.604004,-1 -0.604004,-21 138.604,-21 138.604,-1 -0.604004,-1"/>
<text text-anchor="middle" x="69" y="-7" font-family="Helvetica,sans-Serif" font-size="10.00">RTX::TempoDbPointRecord</text>
</g>
<!-- Node2 -->
<g id="node2" class="node"><title>Node2</title>
<a xlink:href="class_r_t_x_1_1_db_point_record.html" target="_top" xlink:title="A persistence layer for databases. ">
<polygon fill="white" stroke="black" points="14.4033,-59 14.4033,-79 123.597,-79 123.597,-59 14.4033,-59"/>
<text text-anchor="middle" x="69" y="-65" font-family="Helvetica,sans-Serif" font-size="10.00">RTX::DbPointRecord</text>
</a>
</g>
<!-- Node2&#45;&gt;Node1 -->
<g id="edge2" class="edge"><title>Node2&#45;&gt;Node1</title>
<path fill="none" stroke="midnightblue" d="M69,-48.7065C69,-39.3384 69,-28.5262 69,-21.0752"/>
<polygon fill="midnightblue" stroke="midnightblue" points="65.5001,-48.7527 69,-58.7527 72.5001,-48.7528 65.5001,-48.7527"/>
</g>
<!-- Node3 -->
<g id="node4" class="node"><title>Node3</title>
<a xlink:href="class_r_t_x_1_1_buffer_point_record.html" target="_top" xlink:title="RTX::BufferPointRecord">
<polygon fill="white" stroke="black" points="7.54297,-117 7.54297,-137 130.457,-137 130.457,-117 7.54297,-117"/>
<text text-anchor="middle" x="69" y="-123" font-family="Helvetica,sans-Serif" font-size="10.00">RTX::BufferPointRecord</text>
</a>
</g>
<!-- Node3&#45;&gt;Node2 -->
<g id="edge4" class="edge"><title>Node3&#45;&gt;Node2</title>
<path fill="none" stroke="midnightblue" d="M69,-106.707C69,-97.3384 69,-86.5262 69,-79.0752"/>
<polygon fill="midnightblue" stroke="midnightblue" points="65.5001,-106.753 69,-116.753 72.5001,-106.753 65.5001,-106.753"/>
</g>
<!-- Node4 -->
<g id="node6" class="node"><title>Node4</title>
<a xlink:href="class_r_t_x_1_1_point_record.html" target="_top" xlink:title="A Point Record Class for storing and retrieving Points. ">
<polygon fill="white" stroke="black" points="20.7949,-175 20.7949,-195 117.205,-195 117.205,-175 20.7949,-175"/>
<text text-anchor="middle" x="69" y="-181" font-family="Helvetica,sans-Serif" font-size="10.00">RTX::PointRecord</text>
</a>
</g>
<!-- Node4&#45;&gt;Node3 -->
<g id="edge6" class="edge"><title>Node4&#45;&gt;Node3</title>
<path fill="none" stroke="midnightblue" d="M69,-164.707C69,-155.338 69,-144.526 69,-137.075"/>
<polygon fill="midnightblue" stroke="midnightblue" points="65.5001,-164.753 69,-174.753 72.5001,-164.753 65.5001,-164.753"/>
</g>
</g>
</svg>
