<?xml version="1.0" encoding="UTF-8" standalone="no"?>
<!DOCTYPE svg PUBLIC "-//W3C//DTD SVG 1.1//EN"
 "http://www.w3.org/Graphics/SVG/1.1/DTD/svg11.dtd">
<!-- Generated by graphviz version 2.28.0 (20110509.1545)
 -->
<!-- Title: RTX::DbPointRecord Pages: 1 -->
<svg width="268pt" height="204pt"
 viewBox="0.00 0.00 268.00 204.00" xmlns="http://www.w3.org/2000/svg" xmlns:xlink="http://www.w3.org/1999/xlink">
<g id="graph1" class="graph" transform="scale(1 1) rotate(0) translate(4 200)">
<title>RTX::DbPointRecord</title>
<polygon fill="white" stroke="white" points="-4,5 -4,-200 265,-200 265,5 -4,5"/>
<!-- Node1 -->
<g id="node1" class="node"><title>Node1</title>
<polygon fill="#bfbfbf" stroke="black" points="75.4033,-59 75.4033,-79 184.597,-79 184.597,-59 75.4033,-59"/>
<text text-anchor="middle" x="130" y="-65" font-family="Helvetica,sans-Serif" font-size="10.00">RTX::DbPointRecord</text>
</g>
<!-- Node4 -->
<g id="node7" class="node"><title>Node4</title>
<a xlink:href="class_r_t_x_1_1_mysql_point_record.html" target="_top" xlink:title="A persistence layer for MySQL databases.">
<polygon fill="white" stroke="black" points="-0.261719,-1 -0.261719,-21 122.262,-21 122.262,-1 -0.261719,-1"/>
<text text-anchor="middle" x="61" y="-7" font-family="Helvetica,sans-Serif" font-size="10.00">RTX::MysqlPointRecord</text>
</a>
</g>
<!-- Node1&#45;&gt;Node4 -->
<g id="edge6" class="edge"><title>Node1&#45;&gt;Node4</title>
<path fill="none" stroke="midnightblue" d="M110.641,-52.288C98.2306,-42.2161 82.5602,-29.4981 72.1819,-21.0752"/>
<polygon fill="midnightblue" stroke="midnightblue" points="108.636,-55.1686 118.606,-58.7527 113.047,-49.7334 108.636,-55.1686"/>
</g>
<!-- Node5 -->
<g id="node9" class="node"><title>Node5</title>
<a xlink:href="class_r_t_x_1_1_odbc_point_record.html" target="_top" xlink:title="A persistence class for SCADA databases.">
<polygon fill="white" stroke="black" points="139.844,-1 139.844,-21 260.156,-21 260.156,-1 139.844,-1"/>
<text text-anchor="middle" x="200" y="-7" font-family="Helvetica,sans-Serif" font-size="10.00">RTX::OdbcPointRecord</text>
</a>
</g>
<!-- Node1&#45;&gt;Node5 -->
<g id="edge8" class="edge"><title>Node1&#45;&gt;Node5</title>
<path fill="none" stroke="midnightblue" d="M149.64,-52.288C162.23,-42.2161 178.127,-29.4981 188.656,-21.0752"/>
<polygon fill="midnightblue" stroke="midnightblue" points="147.181,-49.7727 141.559,-58.7527 151.554,-55.2388 147.181,-49.7727"/>
</g>
<!-- Node2 -->
<g id="node2" class="node"><title>Node2</title>
<a xlink:href="class_r_t_x_1_1_buffer_point_record.html" target="_top" xlink:title="RTX::BufferPointRecord">
<polygon fill="white" stroke="black" points="68.543,-117 68.543,-137 191.457,-137 191.457,-117 68.543,-117"/>
<text text-anchor="middle" x="130" y="-123" font-family="Helvetica,sans-Serif" font-size="10.00">RTX::BufferPointRecord</text>
</a>
</g>
<!-- Node2&#45;&gt;Node1 -->
<g id="edge2" class="edge"><title>Node2&#45;&gt;Node1</title>
<path fill="none" stroke="midnightblue" d="M130,-106.707C130,-97.3384 130,-86.5262 130,-79.0752"/>
<polygon fill="midnightblue" stroke="midnightblue" points="126.5,-106.753 130,-116.753 133.5,-106.753 126.5,-106.753"/>
</g>
<!-- Node3 -->
<g id="node4" class="node"><title>Node3</title>
<a xlink:href="class_r_t_x_1_1_point_record.html" target="_top" xlink:title="A Point Record Class for storing and retrieving Points.">
<polygon fill="white" stroke="black" points="81.7949,-175 81.7949,-195 178.205,-195 178.205,-175 81.7949,-175"/>
<text text-anchor="middle" x="130" y="-181" font-family="Helvetica,sans-Serif" font-size="10.00">RTX::PointRecord</text>
</a>
</g>
<!-- Node3&#45;&gt;Node2 -->
<g id="edge4" class="edge"><title>Node3&#45;&gt;Node2</title>
<path fill="none" stroke="midnightblue" d="M130,-164.707C130,-155.338 130,-144.526 130,-137.075"/>
<polygon fill="midnightblue" stroke="midnightblue" points="126.5,-164.753 130,-174.753 133.5,-164.753 126.5,-164.753"/>
</g>
</g>
</svg>
