<?xml version="1.0" encoding="UTF-8" standalone="no"?>
<!DOCTYPE svg PUBLIC "-//W3C//DTD SVG 1.1//EN"
 "http://www.w3.org/Graphics/SVG/1.1/DTD/svg11.dtd">
<!-- Generated by graphviz version 2.36.0 (20140111.2315)
 -->
<!-- Title: RTX::TimeSeries::Summary Pages: 1 -->
<svg width="292pt" height="190pt"
 viewBox="0.00 0.00 292.00 190.00" xmlns="http://www.w3.org/2000/svg" xmlns:xlink="http://www.w3.org/1999/xlink">
<g id="graph0" class="graph" transform="scale(1 1) rotate(0) translate(4 186)">
<title>RTX::TimeSeries::Summary</title>
<polygon fill="white" stroke="none" points="-4,4 -4,-186 288,-186 288,4 -4,4"/>
<!-- Node1 -->
<g id="node1" class="node"><title>Node1</title>
<polygon fill="#bfbfbf" stroke="black" points="87.0396,-1 87.0396,-19 226.96,-19 226.96,-1 87.0396,-1"/>
<text text-anchor="middle" x="157" y="-7" font-family="Helvetica,sans-Serif" font-size="10.00">RTX::TimeSeries::Summary</text>
</g>
<!-- Node2 -->
<g id="node2" class="node"><title>Node2</title>
<g id="a_node2"><a xlink:href="class_r_t_x_1_1_time_series_1_1_summary_1_1_stats.html" target="_top" xlink:title="RTX::TimeSeries::Summary\l::Stats">
<polygon fill="white" stroke="black" points="-0.960449,-77 -0.960449,-105 138.96,-105 138.96,-77 -0.960449,-77"/>
<text text-anchor="start" x="7.03955" y="-93" font-family="Helvetica,sans-Serif" font-size="10.00">RTX::TimeSeries::Summary</text>
<text text-anchor="middle" x="69" y="-83" font-family="Helvetica,sans-Serif" font-size="10.00">::Stats</text>
</a>
</g>
</g>
<!-- Node2&#45;&gt;Node1 -->
<g id="edge1" class="edge"><title>Node2&#45;&gt;Node1</title>
<path fill="none" stroke="#9a32cd" stroke-dasharray="5,2" d="M91.4482,-69.8477C109.847,-53.3309 134.921,-30.8207 148.088,-19.0005"/>
<polygon fill="#9a32cd" stroke="#9a32cd" points="88.6347,-67.6699 83.5314,-76.9548 93.3109,-72.8789 88.6347,-67.6699"/>
<text text-anchor="middle" x="138.948" y="-45" font-family="Helvetica,sans-Serif" font-size="10.00"> stats</text>
</g>
<!-- Node3 -->
<g id="node3" class="node"><title>Node3</title>
<g id="a_node3"><a xlink:href="struct_r_t_x_1_1_time_series_1_1_summary_1_1_stats_1_1quartiles__t.html" target="_top" xlink:title="RTX::TimeSeries::Summary\l::Stats::quartiles_t">
<polygon fill="white" stroke="black" points="-0.960449,-153 -0.960449,-181 138.96,-181 138.96,-153 -0.960449,-153"/>
<text text-anchor="start" x="7.03955" y="-169" font-family="Helvetica,sans-Serif" font-size="10.00">RTX::TimeSeries::Summary</text>
<text text-anchor="middle" x="69" y="-159" font-family="Helvetica,sans-Serif" font-size="10.00">::Stats::quartiles_t</text>
</a>
</g>
</g>
<!-- Node3&#45;&gt;Node2 -->
<g id="edge2" class="edge"><title>Node3&#45;&gt;Node2</title>
<path fill="none" stroke="#9a32cd" stroke-dasharray="5,2" d="M69,-142.663C69,-130.271 69,-115.501 69,-105.115"/>
<polygon fill="#9a32cd" stroke="#9a32cd" points="65.5001,-142.77 69,-152.77 72.5001,-142.77 65.5001,-142.77"/>
<text text-anchor="middle" x="89.2881" y="-126" font-family="Helvetica,sans-Serif" font-size="10.00"> quartiles</text>
</g>
<!-- Node4 -->
<g id="node4" class="node"><title>Node4</title>
<polygon fill="white" stroke="#bfbfbf" points="157.231,-82 157.231,-100 284.769,-100 284.769,-82 157.231,-82"/>
<text text-anchor="middle" x="221" y="-88" font-family="Helvetica,sans-Serif" font-size="10.00">std::vector&lt; RTX::Point &gt;</text>
</g>
<!-- Node4&#45;&gt;Node1 -->
<g id="edge3" class="edge"><title>Node4&#45;&gt;Node1</title>
<path fill="none" stroke="#9a32cd" stroke-dasharray="5,2" d="M207.732,-73.6222C194.294,-57.0345 174.054,-32.0507 163.668,-19.2308"/>
<polygon fill="#9a32cd" stroke="#9a32cd" points="205.378,-76.2762 214.392,-81.8432 210.817,-71.8698 205.378,-76.2762"/>
<text text-anchor="middle" x="209.731" y="-50" font-family="Helvetica,sans-Serif" font-size="10.00"> points</text>
<text text-anchor="middle" x="209.731" y="-40" font-family="Helvetica,sans-Serif" font-size="10.00">gaps</text>
</g>
<!-- Node5 -->
<g id="node5" class="node"><title>Node5</title>
<g id="a_node5"><a xlink:href="class_r_t_x_1_1_point.html" target="_top" xlink:title="A Point Class to store data tuples (date, value, quality, confidence) ">
<polygon fill="white" stroke="black" points="188.913,-158 188.913,-176 253.087,-176 253.087,-158 188.913,-158"/>
<text text-anchor="middle" x="221" y="-164" font-family="Helvetica,sans-Serif" font-size="10.00">RTX::Point</text>
</a>
</g>
</g>
<!-- Node5&#45;&gt;Node4 -->
<g id="edge4" class="edge"><title>Node5&#45;&gt;Node4</title>
<path fill="none" stroke="#9a32cd" stroke-dasharray="5,2" d="M221,-147.478C221,-132.213 221,-111.303 221,-100.014"/>
<polygon fill="#9a32cd" stroke="#9a32cd" points="217.5,-147.798 221,-157.798 224.5,-147.798 217.5,-147.798"/>
<text text-anchor="middle" x="242.677" y="-126" font-family="Helvetica,sans-Serif" font-size="10.00"> elements</text>
</g>
</g>
</svg>
