<?xml version="1.0" encoding="UTF-8" standalone="no"?>
<!DOCTYPE svg PUBLIC "-//W3C//DTD SVG 1.1//EN"
 "http://www.w3.org/Graphics/SVG/1.1/DTD/svg11.dtd">
<!-- Generated by graphviz version 2.28.0 (20110509.1545)
 -->
<!-- Title: RTX::DbPointRecord Pages: 1 -->
<svg width="470pt" height="406pt"
 viewBox="0.00 0.00 470.38 406.00" xmlns="http://www.w3.org/2000/svg" xmlns:xlink="http://www.w3.org/1999/xlink">
<g id="graph1" class="graph" transform="scale(1 1) rotate(0) translate(4 402)">
<title>RTX::DbPointRecord</title>
<polygon fill="white" stroke="white" points="-4,5 -4,-402 467.379,-402 467.379,5 -4,5"/>
<!-- Node1 -->
<g id="node1" class="node"><title>Node1</title>
<polygon fill="#bfbfbf" stroke="black" points="69.4033,-1 69.4033,-21 178.597,-21 178.597,-1 69.4033,-1"/>
<text text-anchor="middle" x="124" y="-7" font-family="Helvetica,sans-Serif" font-size="10.00">RTX::DbPointRecord</text>
</g>
<!-- Node2 -->
<g id="node2" class="node"><title>Node2</title>
<a xlink:href="class_r_t_x_1_1_buffer_point_record.html" target="_top" xlink:title="RTX::BufferPointRecord">
<polygon fill="white" stroke="black" points="165.543,-61 165.543,-81 288.457,-81 288.457,-61 165.543,-61"/>
<text text-anchor="middle" x="227" y="-67" font-family="Helvetica,sans-Serif" font-size="10.00">RTX::BufferPointRecord</text>
</a>
</g>
<!-- Node2&#45;&gt;Node1 -->
<g id="edge2" class="edge"><title>Node2&#45;&gt;Node1</title>
<path fill="none" stroke="midnightblue" d="M202.104,-55.9806C182.917,-45.1763 156.938,-30.5478 140.321,-21.1903"/>
<polygon fill="midnightblue" stroke="midnightblue" points="200.475,-59.0805 210.906,-60.9375 203.91,-52.9811 200.475,-59.0805"/>
</g>
<!-- Node3 -->
<g id="node4" class="node"><title>Node3</title>
<a xlink:href="class_r_t_x_1_1_point_record.html" target="_top" xlink:title="A Point Record Class for storing and retrieving Points. ">
<polygon fill="white" stroke="black" points="221.795,-131 221.795,-151 318.205,-151 318.205,-131 221.795,-131"/>
<text text-anchor="middle" x="270" y="-137" font-family="Helvetica,sans-Serif" font-size="10.00">RTX::PointRecord</text>
</a>
</g>
<!-- Node3&#45;&gt;Node2 -->
<g id="edge4" class="edge"><title>Node3&#45;&gt;Node2</title>
<path fill="none" stroke="midnightblue" d="M258.69,-122.115C250.334,-108.901 239.307,-91.4627 232.707,-81.0255"/>
<polygon fill="midnightblue" stroke="midnightblue" points="255.898,-124.248 264.201,-130.829 261.814,-120.507 255.898,-124.248"/>
</g>
<!-- Node4 -->
<g id="node6" class="node"><title>Node4</title>
<polygon fill="white" stroke="#bfbfbf" points="259.452,-223 259.452,-255 368.548,-255 368.548,-223 259.452,-223"/>
<text text-anchor="start" x="267.452" y="-241" font-family="Helvetica,sans-Serif" font-size="10.00">std::map&lt; std::string,</text>
<text text-anchor="middle" x="314" y="-229" font-family="Helvetica,sans-Serif" font-size="10.00"> RTX::Point &gt;</text>
</g>
<!-- Node4&#45;&gt;Node3 -->
<g id="edge6" class="edge"><title>Node4&#45;&gt;Node3</title>
<path fill="none" stroke="#9a32cd" stroke-dasharray="5,2" d="M302.66,-213.258C293.321,-192.882 280.603,-165.133 274.139,-151.03"/>
<polygon fill="#9a32cd" stroke="#9a32cd" points="299.582,-214.944 306.931,-222.576 305.946,-212.027 299.582,-214.944"/>
<text text-anchor="middle" x="326.465" y="-183" font-family="Helvetica,sans-Serif" font-size="10.00"> _pointCache</text>
</g>
<!-- Node5 -->
<g id="node8" class="node"><title>Node5</title>
<a xlink:title="STL class. ">
<polygon fill="white" stroke="#bfbfbf" points="117.325,-305 117.325,-325 176.675,-325 176.675,-305 117.325,-305"/>
<text text-anchor="middle" x="147" y="-311" font-family="Helvetica,sans-Serif" font-size="10.00">std::string</text>
</a>
</g>
<!-- Node5&#45;&gt;Node1 -->
<g id="edge22" class="edge"><title>Node5&#45;&gt;Node1</title>
<path fill="none" stroke="#9a32cd" stroke-dasharray="5,2" d="M137.757,-295.283C131.363,-280.611 124,-259.486 124,-240 124,-240 124,-240 124,-70 124,-52.6806 124,-32.452 124,-21.0417"/>
<polygon fill="#9a32cd" stroke="#9a32cd" points="134.744,-297.106 142.122,-304.709 141.096,-294.164 134.744,-297.106"/>
<text text-anchor="middle" x="156.234" y="-137" font-family="Helvetica,sans-Serif" font-size="10.00"> errorMessage</text>
</g>
<!-- Node5&#45;&gt;Node3 -->
<g id="edge14" class="edge"><title>Node5&#45;&gt;Node3</title>
<path fill="none" stroke="#9a32cd" stroke-dasharray="5,2" d="M150.392,-295.111C154.568,-275.546 163.053,-244.712 178.281,-222 199.226,-190.761 235.387,-164.287 255.478,-151.055"/>
<polygon fill="#9a32cd" stroke="#9a32cd" points="146.955,-294.453 148.457,-304.941 153.823,-295.805 146.955,-294.453"/>
<text text-anchor="middle" x="214.859" y="-235" font-family="Helvetica,sans-Serif" font-size="10.00"> _cachedPointId</text>
</g>
<!-- Node5&#45;&gt;Node4 -->
<g id="edge8" class="edge"><title>Node5&#45;&gt;Node4</title>
<path fill="none" stroke="#9a32cd" stroke-dasharray="5,2" d="M176.683,-300.847C205.651,-288.011 249.677,-268.503 280.029,-255.053"/>
<polygon fill="#9a32cd" stroke="#9a32cd" points="175.202,-297.675 167.477,-304.926 178.038,-304.075 175.202,-297.675"/>
<text text-anchor="middle" x="247.67" y="-276" font-family="Helvetica,sans-Serif" font-size="10.00"> keys</text>
</g>
<!-- Node8 -->
<g id="node16" class="node"><title>Node8</title>
<a xlink:href="class_r_t_x_1_1_db_point_record_1_1request__t.html" target="_top" xlink:title="RTX::DbPointRecord\l::request_t">
<polygon fill="white" stroke="black" points="-0.59668,-171 -0.59668,-203 108.597,-203 108.597,-171 -0.59668,-171"/>
<text text-anchor="start" x="7.40332" y="-189" font-family="Helvetica,sans-Serif" font-size="10.00">RTX::DbPointRecord</text>
<text text-anchor="middle" x="54" y="-177" font-family="Helvetica,sans-Serif" font-size="10.00">::request_t</text>
</a>
</g>
<!-- Node5&#45;&gt;Node8 -->
<g id="edge20" class="edge"><title>Node5&#45;&gt;Node8</title>
<path fill="none" stroke="#9a32cd" stroke-dasharray="5,2" d="M116.594,-299.825C110.387,-295.963 104.281,-291.342 99.4385,-286 77.1436,-261.408 63.9568,-223.974 57.9413,-203.212"/>
<polygon fill="#9a32cd" stroke="#9a32cd" points="115.199,-303.057 125.625,-304.936 118.646,-296.965 115.199,-303.057"/>
<text text-anchor="middle" x="105.281" y="-276" font-family="Helvetica,sans-Serif" font-size="10.00"> id</text>
</g>
<!-- Node6 -->
<g id="node10" class="node"><title>Node6</title>
<a xlink:title="STL class. ">
<polygon fill="white" stroke="#bfbfbf" points="99.9521,-365 99.9521,-397 194.048,-397 194.048,-365 99.9521,-365"/>
<text text-anchor="start" x="107.952" y="-383" font-family="Helvetica,sans-Serif" font-size="10.00">std::basic_string&lt;</text>
<text text-anchor="middle" x="147" y="-371" font-family="Helvetica,sans-Serif" font-size="10.00"> char &gt;</text>
</a>
</g>
<!-- Node6&#45;&gt;Node5 -->
<g id="edge10" class="edge"><title>Node6&#45;&gt;Node5</title>
<path fill="none" stroke="midnightblue" d="M147,-354.611C147,-344.286 147,-333.001 147,-325.313"/>
<polygon fill="midnightblue" stroke="midnightblue" points="143.5,-354.833 147,-364.833 150.5,-354.833 143.5,-354.833"/>
</g>
<!-- Node7 -->
<g id="node12" class="node"><title>Node7</title>
<a xlink:href="class_r_t_x_1_1_point.html" target="_top" xlink:title="A Point Class to store data tuples (date, value, quality, confidence) ">
<polygon fill="white" stroke="black" points="334.913,-305 334.913,-325 399.087,-325 399.087,-305 334.913,-305"/>
<text text-anchor="middle" x="367" y="-311" font-family="Helvetica,sans-Serif" font-size="10.00">RTX::Point</text>
</a>
</g>
<!-- Node7&#45;&gt;Node3 -->
<g id="edge16" class="edge"><title>Node7&#45;&gt;Node3</title>
<path fill="none" stroke="#9a32cd" stroke-dasharray="5,2" d="M384.659,-297.114C387.255,-293.701 389.542,-289.941 391,-286 409.555,-235.841 397.351,-207.275 359,-170 347.965,-159.275 332.864,-152.654 318.234,-148.568"/>
<polygon fill="#9a32cd" stroke="#9a32cd" points="381.872,-294.982 377.867,-304.79 387.115,-299.62 381.872,-294.982"/>
<text text-anchor="middle" x="430.689" y="-235" font-family="Helvetica,sans-Serif" font-size="10.00"> _cachedPoint</text>
</g>
<!-- Node7&#45;&gt;Node4 -->
<g id="edge12" class="edge"><title>Node7&#45;&gt;Node4</title>
<path fill="none" stroke="#9a32cd" stroke-dasharray="5,2" d="M354.556,-296.625C345.517,-284.006 333.409,-267.099 324.781,-255.053"/>
<polygon fill="#9a32cd" stroke="#9a32cd" points="351.833,-298.834 360.501,-304.926 357.524,-294.758 351.833,-298.834"/>
<text text-anchor="middle" x="367.677" y="-276" font-family="Helvetica,sans-Serif" font-size="10.00"> elements</text>
</g>
<!-- Node8&#45;&gt;Node1 -->
<g id="edge18" class="edge"><title>Node8&#45;&gt;Node1</title>
<path fill="none" stroke="#9a32cd" stroke-dasharray="5,2" d="M57.847,-160.696C60.978,-143.25 66.1557,-119.739 73.8672,-100 85.7678,-69.5376 106.84,-36.8863 117.474,-21.3077"/>
<polygon fill="#9a32cd" stroke="#9a32cd" points="54.3739,-160.244 56.1576,-170.687 61.2759,-161.411 54.3739,-160.244"/>
<text text-anchor="middle" x="92.0664" y="-102" font-family="Helvetica,sans-Serif" font-size="10.00"> request</text>
</g>
</g>
</svg>
