<?xml version="1.0" encoding="UTF-8" standalone="no"?>
<!DOCTYPE svg PUBLIC "-//W3C//DTD SVG 1.1//EN"
 "http://www.w3.org/Graphics/SVG/1.1/DTD/svg11.dtd">
<!-- Generated by graphviz version 2.36.0 (20140111.2315)
 -->
<!-- Title: RTX::CsvPointRecord Pages: 1 -->
<svg width="309pt" height="354pt"
 viewBox="0.00 0.00 309.38 354.00" xmlns="http://www.w3.org/2000/svg" xmlns:xlink="http://www.w3.org/1999/xlink">
<g id="graph0" class="graph" transform="scale(1 1) rotate(0) translate(4 350)">
<title>RTX::CsvPointRecord</title>
<polygon fill="white" stroke="none" points="-4,4 -4,-350 305.379,-350 305.379,4 -4,4"/>
<!-- Node1 -->
<g id="node1" class="node"><title>Node1</title>
<polygon fill="#bfbfbf" stroke="black" points="85.1841,-1 85.1841,-19 198.816,-19 198.816,-1 85.1841,-1"/>
<text text-anchor="middle" x="142" y="-7" font-family="Helvetica,sans-Serif" font-size="10.00">RTX::CsvPointRecord</text>
</g>
<!-- Node2 -->
<g id="node2" class="node"><title>Node2</title>
<g id="a_node2"><a xlink:href="class_r_t_x_1_1_map_point_record.html" target="_top" xlink:title="RTX::MapPointRecord">
<polygon fill="white" stroke="black" points="84.0684,-59 84.0684,-77 199.932,-77 199.932,-59 84.0684,-59"/>
<text text-anchor="middle" x="142" y="-65" font-family="Helvetica,sans-Serif" font-size="10.00">RTX::MapPointRecord</text>
</a>
</g>
</g>
<!-- Node2&#45;&gt;Node1 -->
<g id="edge1" class="edge"><title>Node2&#45;&gt;Node1</title>
<path fill="none" stroke="midnightblue" d="M142,-48.6464C142,-38.7413 142,-27.0014 142,-19.2969"/>
<polygon fill="midnightblue" stroke="midnightblue" points="138.5,-48.737 142,-58.737 145.5,-48.737 138.5,-48.737"/>
</g>
<!-- Node3 -->
<g id="node3" class="node"><title>Node3</title>
<g id="a_node3"><a xlink:href="class_r_t_x_1_1_point_record.html" target="_top" xlink:title="A Point Record Class for storing and retrieving Points. ">
<polygon fill="white" stroke="black" points="93.7949,-117 93.7949,-135 190.205,-135 190.205,-117 93.7949,-117"/>
<text text-anchor="middle" x="142" y="-123" font-family="Helvetica,sans-Serif" font-size="10.00">RTX::PointRecord</text>
</a>
</g>
</g>
<!-- Node3&#45;&gt;Node2 -->
<g id="edge2" class="edge"><title>Node3&#45;&gt;Node2</title>
<path fill="none" stroke="midnightblue" d="M142,-106.646C142,-96.7413 142,-85.0014 142,-77.2969"/>
<polygon fill="midnightblue" stroke="midnightblue" points="138.5,-106.737 142,-116.737 145.5,-106.737 138.5,-106.737"/>
</g>
<!-- Node4 -->
<g id="node4" class="node"><title>Node4</title>
<polygon fill="white" stroke="#bfbfbf" points="87.4521,-183 87.4521,-211 196.548,-211 196.548,-183 87.4521,-183"/>
<text text-anchor="start" x="95.4521" y="-199" font-family="Helvetica,sans-Serif" font-size="10.00">std::map&lt; std::string,</text>
<text text-anchor="middle" x="142" y="-189" font-family="Helvetica,sans-Serif" font-size="10.00"> RTX::Point &gt;</text>
</g>
<!-- Node4&#45;&gt;Node3 -->
<g id="edge3" class="edge"><title>Node4&#45;&gt;Node3</title>
<path fill="none" stroke="#9a32cd" stroke-dasharray="5,2" d="M142,-172.524C142,-159.54 142,-144.229 142,-135.084"/>
<polygon fill="#9a32cd" stroke="#9a32cd" points="138.5,-172.696 142,-182.696 145.5,-172.696 138.5,-172.696"/>
<text text-anchor="middle" x="171.465" y="-156" font-family="Helvetica,sans-Serif" font-size="10.00"> _pointCache</text>
</g>
<!-- Node5 -->
<g id="node5" class="node"><title>Node5</title>
<g id="a_node5"><a xlink:title="STL class. ">
<polygon fill="white" stroke="#bfbfbf" points="17.3252,-259 17.3252,-277 76.6748,-277 76.6748,-259 17.3252,-259"/>
<text text-anchor="middle" x="47" y="-265" font-family="Helvetica,sans-Serif" font-size="10.00">std::string</text>
</a>
</g>
</g>
<!-- Node5&#45;&gt;Node3 -->
<g id="edge7" class="edge"><title>Node5&#45;&gt;Node3</title>
<path fill="none" stroke="#9a32cd" stroke-dasharray="5,2" d="M30.2342,-251.656C13.0896,-234.058 -9.02085,-204.712 6.28125,-182 25.6719,-153.22 62.9698,-139.494 93.5657,-132.951"/>
<polygon fill="#9a32cd" stroke="#9a32cd" points="28.0069,-254.373 37.6097,-258.849 32.8942,-249.361 28.0069,-254.373"/>
<text text-anchor="middle" x="42.8594" y="-194" font-family="Helvetica,sans-Serif" font-size="10.00"> _cachedPointId</text>
</g>
<!-- Node5&#45;&gt;Node4 -->
<g id="edge4" class="edge"><title>Node5&#45;&gt;Node4</title>
<path fill="none" stroke="#9a32cd" stroke-dasharray="5,2" d="M66.7959,-252.622C83.6322,-240.393 107.607,-222.98 123.93,-211.124"/>
<polygon fill="#9a32cd" stroke="#9a32cd" points="64.305,-250.105 58.2708,-258.814 68.4187,-255.769 64.305,-250.105"/>
<text text-anchor="middle" x="109.67" y="-232" font-family="Helvetica,sans-Serif" font-size="10.00"> keys</text>
</g>
<!-- Node6 -->
<g id="node6" class="node"><title>Node6</title>
<g id="a_node6"><a xlink:title="STL class. ">
<polygon fill="white" stroke="#bfbfbf" points="-0.0478516,-317 -0.0478516,-345 94.0479,-345 94.0479,-317 -0.0478516,-317"/>
<text text-anchor="start" x="7.95215" y="-333" font-family="Helvetica,sans-Serif" font-size="10.00">std::basic_string&lt;</text>
<text text-anchor="middle" x="47" y="-323" font-family="Helvetica,sans-Serif" font-size="10.00"> char &gt;</text>
</a>
</g>
</g>
<!-- Node6&#45;&gt;Node5 -->
<g id="edge5" class="edge"><title>Node6&#45;&gt;Node5</title>
<path fill="none" stroke="midnightblue" d="M47,-306.588C47,-296.213 47,-284.68 47,-277.159"/>
<polygon fill="midnightblue" stroke="midnightblue" points="43.5001,-306.764 47,-316.764 50.5001,-306.764 43.5001,-306.764"/>
</g>
<!-- Node7 -->
<g id="node7" class="node"><title>Node7</title>
<g id="a_node7"><a xlink:href="class_r_t_x_1_1_point.html" target="_top" xlink:title="A Point Class to store data tuples (date, value, quality, confidence) ">
<polygon fill="white" stroke="black" points="142.913,-259 142.913,-277 207.087,-277 207.087,-259 142.913,-259"/>
<text text-anchor="middle" x="175" y="-265" font-family="Helvetica,sans-Serif" font-size="10.00">RTX::Point</text>
</a>
</g>
</g>
<!-- Node7&#45;&gt;Node3 -->
<g id="edge8" class="edge"><title>Node7&#45;&gt;Node3</title>
<path fill="none" stroke="#9a32cd" stroke-dasharray="5,2" d="M198.803,-252.766C202.928,-249.15 206.643,-244.881 209,-240 218.904,-219.488 272.476,-251.375 204,-154 197.719,-145.069 187.82,-139.063 177.759,-135.037"/>
<polygon fill="#9a32cd" stroke="#9a32cd" points="196.518,-250.105 190.617,-258.904 200.717,-255.705 196.518,-250.105"/>
<text text-anchor="middle" x="269.689" y="-194" font-family="Helvetica,sans-Serif" font-size="10.00"> _cachedPoint</text>
</g>
<!-- Node7&#45;&gt;Node4 -->
<g id="edge6" class="edge"><title>Node7&#45;&gt;Node4</title>
<path fill="none" stroke="#9a32cd" stroke-dasharray="5,2" d="M166.613,-249.463C160.906,-237.53 153.474,-221.992 148.277,-211.124"/>
<polygon fill="#9a32cd" stroke="#9a32cd" points="163.613,-251.303 171.085,-258.814 169.928,-248.282 163.613,-251.303"/>
<text text-anchor="middle" x="183.677" y="-232" font-family="Helvetica,sans-Serif" font-size="10.00"> elements</text>
</g>
</g>
</svg>
