<?xml version="1.0" encoding="UTF-8" standalone="no"?>
<!DOCTYPE svg PUBLIC "-//W3C//DTD SVG 1.1//EN"
 "http://www.w3.org/Graphics/SVG/1.1/DTD/svg11.dtd">
<!-- Generated by graphviz version 2.28.0 (20110509.1545)
 -->
<!-- Title: RTX::OutlierExclusionTimeSeries Pages: 1 -->
<svg width="144pt" height="286pt"
 viewBox="0.00 0.00 144.00 286.00" xmlns="http://www.w3.org/2000/svg" xmlns:xlink="http://www.w3.org/1999/xlink">
<g id="graph1" class="graph" transform="scale(1 1) rotate(0) translate(4 282)">
<title>RTX::OutlierExclusionTimeSeries</title>
<polygon fill="white" stroke="white" points="-4,5 -4,-282 141,-282 141,5 -4,5"/>
<!-- Node1 -->
<g id="node1" class="node"><title>Node1</title>
<polygon fill="#bfbfbf" stroke="black" points="0.256348,-1 0.256348,-33 135.744,-33 135.744,-1 0.256348,-1"/>
<text text-anchor="start" x="8.25635" y="-19" font-family="Helvetica,sans-Serif" font-size="10.00">RTX::OutlierExclusionTime</text>
<text text-anchor="middle" x="68" y="-7" font-family="Helvetica,sans-Serif" font-size="10.00">Series</text>
</g>
<!-- Node2 -->
<g id="node2" class="node"><title>Node2</title>
<a xlink:href="class_r_t_x_1_1_base_stats_time_series.html" target="_top" xlink:title="An abstract timeseries class for computing statistical data from point values. ">
<polygon fill="white" stroke="black" points="-0.581055,-71 -0.581055,-91 136.581,-91 136.581,-71 -0.581055,-71"/>
<text text-anchor="middle" x="68" y="-77" font-family="Helvetica,sans-Serif" font-size="10.00">RTX::BaseStatsTimeSeries</text>
</a>
</g>
<!-- Node2&#45;&gt;Node1 -->
<g id="edge2" class="edge"><title>Node2&#45;&gt;Node1</title>
<path fill="none" stroke="midnightblue" d="M68,-60.7747C68,-51.9863 68,-41.715 68,-33.4404"/>
<polygon fill="midnightblue" stroke="midnightblue" points="64.5001,-60.8517 68,-70.8517 71.5001,-60.8517 64.5001,-60.8517"/>
</g>
<!-- Node3 -->
<g id="node4" class="node"><title>Node3</title>
<a xlink:href="class_r_t_x_1_1_modular_time_series.html" target="_top" xlink:title="A Time Series class that allows a single upstream TimeSeries. ">
<polygon fill="white" stroke="black" points="4.14551,-129 4.14551,-149 131.854,-149 131.854,-129 4.14551,-129"/>
<text text-anchor="middle" x="68" y="-135" font-family="Helvetica,sans-Serif" font-size="10.00">RTX::ModularTimeSeries</text>
</a>
</g>
<!-- Node3&#45;&gt;Node2 -->
<g id="edge4" class="edge"><title>Node3&#45;&gt;Node2</title>
<path fill="none" stroke="midnightblue" d="M68,-118.707C68,-109.338 68,-98.5262 68,-91.0752"/>
<polygon fill="midnightblue" stroke="midnightblue" points="64.5001,-118.753 68,-128.753 71.5001,-118.753 64.5001,-118.753"/>
</g>
<!-- Node4 -->
<g id="node6" class="node"><title>Node4</title>
<a xlink:href="class_r_t_x_1_1_time_series.html" target="_top" xlink:title="An abstraction of Points ordered in time. ">
<polygon fill="white" stroke="black" points="22.2095,-187 22.2095,-207 113.791,-207 113.791,-187 22.2095,-187"/>
<text text-anchor="middle" x="68" y="-193" font-family="Helvetica,sans-Serif" font-size="10.00">RTX::TimeSeries</text>
</a>
</g>
<!-- Node4&#45;&gt;Node3 -->
<g id="edge6" class="edge"><title>Node4&#45;&gt;Node3</title>
<path fill="none" stroke="midnightblue" d="M68,-176.707C68,-167.338 68,-156.526 68,-149.075"/>
<polygon fill="midnightblue" stroke="midnightblue" points="64.5001,-176.753 68,-186.753 71.5001,-176.753 64.5001,-176.753"/>
</g>
<!-- Node5 -->
<g id="node8" class="node"><title>Node5</title>
<polygon fill="white" stroke="#bfbfbf" points="3.02734,-245 3.02734,-277 132.973,-277 132.973,-245 3.02734,-245"/>
<text text-anchor="start" x="11.0273" y="-263" font-family="Helvetica,sans-Serif" font-size="10.00">boost::enable_shared</text>
<text text-anchor="middle" x="68" y="-251" font-family="Helvetica,sans-Serif" font-size="10.00">_from_this&lt; TimeSeries &gt;</text>
</g>
<!-- Node5&#45;&gt;Node4 -->
<g id="edge8" class="edge"><title>Node5&#45;&gt;Node4</title>
<path fill="none" stroke="midnightblue" d="M68,-234.922C68,-225.172 68,-214.61 68,-207.29"/>
<polygon fill="midnightblue" stroke="midnightblue" points="64.5001,-234.991 68,-244.992 71.5001,-234.992 64.5001,-234.991"/>
</g>
</g>
</svg>
