<?xml version="1.0" encoding="UTF-8" standalone="no"?>
<!DOCTYPE svg PUBLIC "-//W3C//DTD SVG 1.1//EN"
 "http://www.w3.org/Graphics/SVG/1.1/DTD/svg11.dtd">
<!-- Generated by graphviz version 2.28.0 (20110509.1545)
 -->
<!-- Title: RTX::Tank Pages: 1 -->
<svg width="198pt" height="232pt"
 viewBox="0.00 0.00 198.14 232.00" xmlns="http://www.w3.org/2000/svg" xmlns:xlink="http://www.w3.org/1999/xlink">
<g id="graph1" class="graph" transform="scale(1 1) rotate(0) translate(4 228)">
<title>RTX::Tank</title>
<polygon fill="white" stroke="white" points="-4,5 -4,-228 195.138,-228 195.138,5 -4,5"/>
<!-- Node1 -->
<g id="node1" class="node"><title>Node1</title>
<polygon fill="#bfbfbf" stroke="black" points="65.748,-1 65.748,-21 128.252,-21 128.252,-1 65.748,-1"/>
<text text-anchor="middle" x="97" y="-7" font-family="Helvetica,sans-Serif" font-size="10.00">RTX::Tank</text>
</g>
<!-- Node2 -->
<g id="node2" class="node"><title>Node2</title>
<a xlink:href="class_r_t_x_1_1_junction.html" target="_top" xlink:title="Junction Class. ">
<polygon fill="white" stroke="black" points="4.68652,-71 4.68652,-91 83.3135,-91 83.3135,-71 4.68652,-71"/>
<text text-anchor="middle" x="44" y="-77" font-family="Helvetica,sans-Serif" font-size="10.00">RTX::Junction</text>
</a>
</g>
<!-- Node2&#45;&gt;Node1 -->
<g id="edge2" class="edge"><title>Node2&#45;&gt;Node1</title>
<path fill="none" stroke="midnightblue" d="M57.3439,-62.8795C67.7091,-49.5807 81.6726,-31.6654 89.9654,-21.0255"/>
<polygon fill="midnightblue" stroke="midnightblue" points="54.5347,-60.7903 51.1478,-70.8292 60.0558,-65.0935 54.5347,-60.7903"/>
</g>
<!-- Node3 -->
<g id="node4" class="node"><title>Node3</title>
<a xlink:href="class_r_t_x_1_1_node.html" target="_top" xlink:title="Node Class. ">
<polygon fill="white" stroke="black" points="6.35645,-137 6.35645,-157 71.6436,-157 71.6436,-137 6.35645,-137"/>
<text text-anchor="middle" x="39" y="-143" font-family="Helvetica,sans-Serif" font-size="10.00">RTX::Node</text>
</a>
</g>
<!-- Node3&#45;&gt;Node2 -->
<g id="edge4" class="edge"><title>Node3&#45;&gt;Node2</title>
<path fill="none" stroke="midnightblue" d="M40.5129,-126.635C41.4328,-114.86 42.5652,-100.366 43.285,-91.1526"/>
<polygon fill="midnightblue" stroke="midnightblue" points="37.006,-126.588 39.7164,-136.83 43.9847,-127.133 37.006,-126.588"/>
</g>
<!-- Node4 -->
<g id="node6" class="node"><title>Node4</title>
<a xlink:href="class_r_t_x_1_1_element.html" target="_top" xlink:title="Element Base Class. ">
<polygon fill="white" stroke="black" points="-0.0327148,-203 -0.0327148,-223 78.0327,-223 78.0327,-203 -0.0327148,-203"/>
<text text-anchor="middle" x="39" y="-209" font-family="Helvetica,sans-Serif" font-size="10.00">RTX::Element</text>
</a>
</g>
<!-- Node4&#45;&gt;Node3 -->
<g id="edge6" class="edge"><title>Node4&#45;&gt;Node3</title>
<path fill="none" stroke="midnightblue" d="M39,-192.635C39,-180.86 39,-166.366 39,-157.153"/>
<polygon fill="midnightblue" stroke="midnightblue" points="35.5001,-192.83 39,-202.83 42.5001,-192.83 35.5001,-192.83"/>
</g>
<!-- Node5 -->
<g id="node8" class="node"><title>Node5</title>
<a xlink:title="STL class. ">
<polygon fill="white" stroke="#bfbfbf" points="106.325,-71 106.325,-91 165.675,-91 165.675,-71 106.325,-71"/>
<text text-anchor="middle" x="136" y="-77" font-family="Helvetica,sans-Serif" font-size="10.00">std::string</text>
</a>
</g>
<!-- Node5&#45;&gt;Node1 -->
<g id="edge8" class="edge"><title>Node5&#45;&gt;Node1</title>
<path fill="none" stroke="#9a32cd" stroke-dasharray="5,2" d="M125.742,-62.1147C118.164,-48.9009 108.162,-31.4627 102.176,-21.0255"/>
<polygon fill="#9a32cd" stroke="#9a32cd" points="122.729,-63.8959 130.74,-70.8292 128.801,-60.4133 122.729,-63.8959"/>
<text text-anchor="middle" x="154.569" y="-42" font-family="Helvetica,sans-Serif" font-size="10.00"> geometryName</text>
</g>
<!-- Node6 -->
<g id="node10" class="node"><title>Node6</title>
<a xlink:title="STL class. ">
<polygon fill="white" stroke="#bfbfbf" points="89.9521,-131 89.9521,-163 184.048,-163 184.048,-131 89.9521,-131"/>
<text text-anchor="start" x="97.9521" y="-149" font-family="Helvetica,sans-Serif" font-size="10.00">std::basic_string&lt;</text>
<text text-anchor="middle" x="137" y="-137" font-family="Helvetica,sans-Serif" font-size="10.00"> char &gt;</text>
</a>
</g>
<!-- Node6&#45;&gt;Node5 -->
<g id="edge10" class="edge"><title>Node6&#45;&gt;Node5</title>
<path fill="none" stroke="midnightblue" d="M136.603,-120.611C136.442,-110.286 136.266,-99.0006 136.146,-91.3126"/>
<polygon fill="midnightblue" stroke="midnightblue" points="133.107,-120.889 136.763,-130.833 140.106,-120.779 133.107,-120.889"/>
</g>
</g>
</svg>
