<?xml version="1.0" encoding="UTF-8" standalone="no"?>
<!DOCTYPE svg PUBLIC "-//W3C//DTD SVG 1.1//EN"
 "http://www.w3.org/Graphics/SVG/1.1/DTD/svg11.dtd">
<!-- Generated by graphviz version 2.28.0 (20110509.1545)
 -->
<!-- Title: RTX::CsvPointRecord Pages: 1 -->
<svg width="309pt" height="374pt"
 viewBox="0.00 0.00 309.38 374.00" xmlns="http://www.w3.org/2000/svg" xmlns:xlink="http://www.w3.org/1999/xlink">
<g id="graph1" class="graph" transform="scale(1 1) rotate(0) translate(4 370)">
<title>RTX::CsvPointRecord</title>
<polygon fill="white" stroke="white" points="-4,5 -4,-370 306.379,-370 306.379,5 -4,5"/>
<!-- Node1 -->
<g id="node1" class="node"><title>Node1</title>
<polygon fill="#bfbfbf" stroke="black" points="85.1841,-1 85.1841,-21 198.816,-21 198.816,-1 85.1841,-1"/>
<text text-anchor="middle" x="142" y="-7" font-family="Helvetica,sans-Serif" font-size="10.00">RTX::CsvPointRecord</text>
</g>
<!-- Node2 -->
<g id="node2" class="node"><title>Node2</title>
<a xlink:href="class_r_t_x_1_1_map_point_record.html" target="_top" xlink:title="RTX::MapPointRecord">
<polygon fill="white" stroke="black" points="84.0684,-61 84.0684,-81 199.932,-81 199.932,-61 84.0684,-61"/>
<text text-anchor="middle" x="142" y="-67" font-family="Helvetica,sans-Serif" font-size="10.00">RTX::MapPointRecord</text>
</a>
</g>
<!-- Node2&#45;&gt;Node1 -->
<g id="edge2" class="edge"><title>Node2&#45;&gt;Node1</title>
<path fill="none" stroke="midnightblue" d="M142,-50.7309C142,-40.7807 142,-29.1016 142,-21.1903"/>
<polygon fill="midnightblue" stroke="midnightblue" points="138.5,-50.9375 142,-60.9375 145.5,-50.9375 138.5,-50.9375"/>
</g>
<!-- Node3 -->
<g id="node4" class="node"><title>Node3</title>
<a xlink:href="class_r_t_x_1_1_point_record.html" target="_top" xlink:title="A Point Record Class for storing and retrieving Points. ">
<polygon fill="white" stroke="black" points="93.7949,-121 93.7949,-141 190.205,-141 190.205,-121 93.7949,-121"/>
<text text-anchor="middle" x="142" y="-127" font-family="Helvetica,sans-Serif" font-size="10.00">RTX::PointRecord</text>
</a>
</g>
<!-- Node3&#45;&gt;Node2 -->
<g id="edge4" class="edge"><title>Node3&#45;&gt;Node2</title>
<path fill="none" stroke="midnightblue" d="M142,-110.731C142,-100.781 142,-89.1016 142,-81.1903"/>
<polygon fill="midnightblue" stroke="midnightblue" points="138.5,-110.937 142,-120.938 145.5,-110.938 138.5,-110.937"/>
</g>
<!-- Node4 -->
<g id="node6" class="node"><title>Node4</title>
<polygon fill="white" stroke="#bfbfbf" points="87.4521,-191 87.4521,-223 196.548,-223 196.548,-191 87.4521,-191"/>
<text text-anchor="start" x="95.4521" y="-209" font-family="Helvetica,sans-Serif" font-size="10.00">std::map&lt; std::string,</text>
<text text-anchor="middle" x="142" y="-197" font-family="Helvetica,sans-Serif" font-size="10.00"> RTX::Point &gt;</text>
</g>
<!-- Node4&#45;&gt;Node3 -->
<g id="edge6" class="edge"><title>Node4&#45;&gt;Node3</title>
<path fill="none" stroke="#9a32cd" stroke-dasharray="5,2" d="M142,-180.43C142,-166.859 142,-151.012 142,-141.241"/>
<polygon fill="#9a32cd" stroke="#9a32cd" points="138.5,-180.667 142,-190.667 145.5,-180.667 138.5,-180.667"/>
<text text-anchor="middle" x="171.465" y="-162" font-family="Helvetica,sans-Serif" font-size="10.00"> _pointCache</text>
</g>
<!-- Node5 -->
<g id="node8" class="node"><title>Node5</title>
<a xlink:title="STL class. ">
<polygon fill="white" stroke="#bfbfbf" points="17.3252,-273 17.3252,-293 76.6748,-293 76.6748,-273 17.3252,-273"/>
<text text-anchor="middle" x="47" y="-279" font-family="Helvetica,sans-Serif" font-size="10.00">std::string</text>
</a>
</g>
<!-- Node5&#45;&gt;Node3 -->
<g id="edge14" class="edge"><title>Node5&#45;&gt;Node3</title>
<path fill="none" stroke="#9a32cd" stroke-dasharray="5,2" d="M30.1426,-265.542C12.7031,-246.458 -9.88499,-214.489 6.28125,-190 25.5504,-160.81 62.8564,-146.259 93.4864,-139.034"/>
<polygon fill="#9a32cd" stroke="#9a32cd" points="27.7256,-268.078 37.1735,-272.873 32.7776,-263.233 27.7256,-268.078"/>
<text text-anchor="middle" x="42.8594" y="-203" font-family="Helvetica,sans-Serif" font-size="10.00"> _cachedPointId</text>
</g>
<!-- Node5&#45;&gt;Node4 -->
<g id="edge8" class="edge"><title>Node5&#45;&gt;Node4</title>
<path fill="none" stroke="#9a32cd" stroke-dasharray="5,2" d="M66.9861,-266.432C83.3845,-253.658 106.46,-235.684 122.675,-223.053"/>
<polygon fill="#9a32cd" stroke="#9a32cd" points="64.3871,-264.02 58.6489,-272.926 68.6887,-269.542 64.3871,-264.02"/>
<text text-anchor="middle" x="109.67" y="-244" font-family="Helvetica,sans-Serif" font-size="10.00"> keys</text>
</g>
<!-- Node6 -->
<g id="node10" class="node"><title>Node6</title>
<a xlink:title="STL class. ">
<polygon fill="white" stroke="#bfbfbf" points="-0.0478516,-333 -0.0478516,-365 94.0479,-365 94.0479,-333 -0.0478516,-333"/>
<text text-anchor="start" x="7.95215" y="-351" font-family="Helvetica,sans-Serif" font-size="10.00">std::basic_string&lt;</text>
<text text-anchor="middle" x="47" y="-339" font-family="Helvetica,sans-Serif" font-size="10.00"> char &gt;</text>
</a>
</g>
<!-- Node6&#45;&gt;Node5 -->
<g id="edge10" class="edge"><title>Node6&#45;&gt;Node5</title>
<path fill="none" stroke="midnightblue" d="M47,-322.611C47,-312.286 47,-301.001 47,-293.313"/>
<polygon fill="midnightblue" stroke="midnightblue" points="43.5001,-322.833 47,-332.833 50.5001,-322.833 43.5001,-322.833"/>
</g>
<!-- Node7 -->
<g id="node12" class="node"><title>Node7</title>
<a xlink:href="class_r_t_x_1_1_point.html" target="_top" xlink:title="A Point Class to store data tuples (date, value, quality, confidence) ">
<polygon fill="white" stroke="black" points="142.913,-273 142.913,-293 207.087,-293 207.087,-273 142.913,-273"/>
<text text-anchor="middle" x="175" y="-279" font-family="Helvetica,sans-Serif" font-size="10.00">RTX::Point</text>
</a>
</g>
<!-- Node7&#45;&gt;Node3 -->
<g id="edge16" class="edge"><title>Node7&#45;&gt;Node3</title>
<path fill="none" stroke="#9a32cd" stroke-dasharray="5,2" d="M200.151,-266.633C204.138,-263.011 207.699,-258.787 210,-254 220.695,-231.747 268.89,-252.878 204,-160 197.912,-151.286 188.442,-145.239 178.72,-141.06"/>
<polygon fill="#9a32cd" stroke="#9a32cd" points="197.917,-263.937 192.18,-272.845 202.22,-269.459 197.917,-263.937"/>
<text text-anchor="middle" x="269.689" y="-203" font-family="Helvetica,sans-Serif" font-size="10.00"> _cachedPoint</text>
</g>
<!-- Node7&#45;&gt;Node4 -->
<g id="edge12" class="edge"><title>Node7&#45;&gt;Node4</title>
<path fill="none" stroke="#9a32cd" stroke-dasharray="5,2" d="M166.755,-263.512C161.187,-251.025 153.928,-234.748 148.713,-223.053"/>
<polygon fill="#9a32cd" stroke="#9a32cd" points="163.684,-265.219 170.954,-272.926 170.077,-262.368 163.684,-265.219"/>
<text text-anchor="middle" x="184.677" y="-244" font-family="Helvetica,sans-Serif" font-size="10.00"> elements</text>
</g>
</g>
</svg>
