<?xml version="1.0" encoding="UTF-8" standalone="no"?>
<!DOCTYPE svg PUBLIC "-//W3C//DTD SVG 1.1//EN"
 "http://www.w3.org/Graphics/SVG/1.1/DTD/svg11.dtd">
<!-- Generated by graphviz version 2.28.0 (20110509.1545)
 -->
<!-- Title: RTX::ModularTimeSeries Pages: 1 -->
<svg width="796pt" height="518pt"
 viewBox="0.00 0.00 796.00 518.00" xmlns="http://www.w3.org/2000/svg" xmlns:xlink="http://www.w3.org/1999/xlink">
<g id="graph1" class="graph" transform="scale(1 1) rotate(0) translate(4 514)">
<title>RTX::ModularTimeSeries</title>
<polygon fill="white" stroke="white" points="-4,5 -4,-514 793,-514 793,5 -4,5"/>
<!-- Node1 -->
<g id="node1" class="node"><title>Node1</title>
<polygon fill="#bfbfbf" stroke="black" points="294.146,-286 294.146,-306 421.854,-306 421.854,-286 294.146,-286"/>
<text text-anchor="middle" x="358" y="-292" font-family="Helvetica,sans-Serif" font-size="10.00">RTX::ModularTimeSeries</text>
</g>
<!-- Node4 -->
<g id="node7" class="node"><title>Node4</title>
<a xlink:href="class_r_t_x_1_1_base_stats_time_series.html" target="_top" xlink:title="An abstract timeseries class for computing statistical data from point values. ">
<polygon fill="white" stroke="black" points="464.419,-462 464.419,-482 601.581,-482 601.581,-462 464.419,-462"/>
<text text-anchor="middle" x="533" y="-468" font-family="Helvetica,sans-Serif" font-size="10.00">RTX::BaseStatsTimeSeries</text>
</a>
</g>
<!-- Node1&#45;&gt;Node4 -->
<g id="edge6" class="edge"><title>Node1&#45;&gt;Node4</title>
<path fill="none" stroke="midnightblue" d="M366.03,-315.771C378.912,-349.098 409.519,-416.306 458,-452 463.573,-456.103 469.935,-459.364 476.536,-461.957"/>
<polygon fill="midnightblue" stroke="midnightblue" points="369.243,-314.371 362.47,-306.224 362.684,-316.817 369.243,-314.371"/>
</g>
<!-- Node7 -->
<g id="node13" class="node"><title>Node7</title>
<a xlink:href="class_r_t_x_1_1_correlator_time_series.html" target="_top" xlink:title="RTX::CorrelatorTimeSeries">
<polygon fill="white" stroke="black" points="464.98,-423 464.98,-443 601.02,-443 601.02,-423 464.98,-423"/>
<text text-anchor="middle" x="533" y="-429" font-family="Helvetica,sans-Serif" font-size="10.00">RTX::CorrelatorTimeSeries</text>
</a>
</g>
<!-- Node1&#45;&gt;Node7 -->
<g id="edge12" class="edge"><title>Node1&#45;&gt;Node7</title>
<path fill="none" stroke="midnightblue" d="M370.016,-315.179C386.018,-341.295 418.177,-387.685 458,-413 464.402,-417.069 471.621,-420.318 478.977,-422.91"/>
<polygon fill="midnightblue" stroke="midnightblue" points="372.819,-313.045 364.692,-306.248 366.807,-316.63 372.819,-313.045"/>
</g>
<!-- Node8 -->
<g id="node15" class="node"><title>Node8</title>
<a xlink:href="class_r_t_x_1_1_curve_function.html" target="_top" xlink:title="A Curve Function Class to perform arbitrary mapping of values. ">
<polygon fill="white" stroke="black" points="479.795,-384 479.795,-404 586.205,-404 586.205,-384 479.795,-384"/>
<text text-anchor="middle" x="533" y="-390" font-family="Helvetica,sans-Serif" font-size="10.00">RTX::CurveFunction</text>
</a>
</g>
<!-- Node1&#45;&gt;Node8 -->
<g id="edge14" class="edge"><title>Node1&#45;&gt;Node8</title>
<path fill="none" stroke="midnightblue" d="M376.422,-313.381C395.086,-331.069 426.322,-358.082 458,-374 465.967,-378.003 474.833,-381.281 483.581,-383.939"/>
<polygon fill="midnightblue" stroke="midnightblue" points="378.623,-310.642 369.001,-306.208 373.758,-315.674 378.623,-310.642"/>
</g>
<!-- Node9 -->
<g id="node17" class="node"><title>Node9</title>
<a xlink:href="class_r_t_x_1_1_failover_time_series.html" target="_top" xlink:title="RTX::FailoverTimeSeries">
<polygon fill="white" stroke="black" points="469.426,-345 469.426,-365 596.574,-365 596.574,-345 469.426,-345"/>
<text text-anchor="middle" x="533" y="-351" font-family="Helvetica,sans-Serif" font-size="10.00">RTX::FailoverTimeSeries</text>
</a>
</g>
<!-- Node1&#45;&gt;Node9 -->
<g id="edge16" class="edge"><title>Node1&#45;&gt;Node9</title>
<path fill="none" stroke="midnightblue" d="M391.783,-309.977C410.905,-317.861 435.599,-327.586 458,-335 468.739,-338.554 480.505,-341.953 491.432,-344.908"/>
<polygon fill="midnightblue" stroke="midnightblue" points="392.911,-306.655 382.333,-306.044 390.221,-313.118 392.911,-306.655"/>
</g>
<!-- Node10 -->
<g id="node19" class="node"><title>Node10</title>
<a xlink:href="class_r_t_x_1_1_forecast_time_series.html" target="_top" xlink:title="An arima &#45; based time series predictor/forecaster. ">
<polygon fill="white" stroke="black" points="467.759,-306 467.759,-326 598.241,-326 598.241,-306 467.759,-306"/>
<text text-anchor="middle" x="533" y="-312" font-family="Helvetica,sans-Serif" font-size="10.00">RTX::ForecastTimeSeries</text>
</a>
</g>
<!-- Node1&#45;&gt;Node10 -->
<g id="edge18" class="edge"><title>Node1&#45;&gt;Node10</title>
<path fill="none" stroke="midnightblue" d="M432.191,-304.461C443.974,-305.824 456.094,-307.225 467.648,-308.561"/>
<polygon fill="midnightblue" stroke="midnightblue" points="432.282,-300.949 421.946,-303.277 431.478,-307.902 432.282,-300.949"/>
</g>
<!-- Node11 -->
<g id="node21" class="node"><title>Node11</title>
<a xlink:href="class_r_t_x_1_1_resampler.html" target="_top" xlink:title="RTX::Resampler">
<polygon fill="white" stroke="black" points="488.135,-267 488.135,-287 577.865,-287 577.865,-267 488.135,-267"/>
<text text-anchor="middle" x="533" y="-273" font-family="Helvetica,sans-Serif" font-size="10.00">RTX::Resampler</text>
</a>
</g>
<!-- Node1&#45;&gt;Node11 -->
<g id="edge20" class="edge"><title>Node1&#45;&gt;Node11</title>
<path fill="none" stroke="midnightblue" d="M432.1,-287.972C451.131,-285.882 471.05,-283.694 488.049,-281.827"/>
<polygon fill="midnightblue" stroke="midnightblue" points="431.504,-284.516 421.946,-289.087 432.269,-291.474 431.504,-284.516"/>
</g>
<!-- Node15 -->
<g id="node29" class="node"><title>Node15</title>
<a xlink:href="class_r_t_x_1_1_run_time_status_modular_time_series.html" target="_top" xlink:title="RTX::RunTimeStatusModular\lTimeSeries">
<polygon fill="white" stroke="black" points="459.971,-216 459.971,-248 606.029,-248 606.029,-216 459.971,-216"/>
<text text-anchor="start" x="467.971" y="-234" font-family="Helvetica,sans-Serif" font-size="10.00">RTX::RunTimeStatusModular</text>
<text text-anchor="middle" x="533" y="-222" font-family="Helvetica,sans-Serif" font-size="10.00">TimeSeries</text>
</a>
</g>
<!-- Node1&#45;&gt;Node15 -->
<g id="edge28" class="edge"><title>Node1&#45;&gt;Node15</title>
<path fill="none" stroke="midnightblue" d="M393.121,-282.077C412.132,-274.441 436.282,-264.941 458,-257 466.151,-254.02 474.852,-250.967 483.317,-248.065"/>
<polygon fill="midnightblue" stroke="midnightblue" points="391.653,-278.895 383.689,-285.882 394.272,-285.387 391.653,-278.895"/>
</g>
<!-- Node16 -->
<g id="node31" class="node"><title>Node16</title>
<a xlink:href="class_r_t_x_1_1_single_point_filter_modular_time_series.html" target="_top" xlink:title="RTX::SinglePointFilterModular\lTimeSeries">
<polygon fill="white" stroke="black" points="457.839,-155 457.839,-187 608.161,-187 608.161,-155 457.839,-155"/>
<text text-anchor="start" x="465.839" y="-173" font-family="Helvetica,sans-Serif" font-size="10.00">RTX::SinglePointFilterModular</text>
<text text-anchor="middle" x="533" y="-161" font-family="Helvetica,sans-Serif" font-size="10.00">TimeSeries</text>
</a>
</g>
<!-- Node1&#45;&gt;Node16 -->
<g id="edge30" class="edge"><title>Node1&#45;&gt;Node16</title>
<path fill="none" stroke="midnightblue" d="M375.185,-278.442C393.798,-258.965 425.934,-227.461 458,-206 468.63,-198.886 480.931,-192.448 492.416,-187.09"/>
<polygon fill="midnightblue" stroke="midnightblue" points="372.609,-276.073 368.297,-285.75 377.703,-280.874 372.609,-276.073"/>
</g>
<!-- Node24 -->
<g id="node47" class="node"><title>Node24</title>
<a xlink:href="class_r_t_x_1_1_time_gap_time_series.html" target="_top" xlink:title="A Class to map the input time series into a series whos values are the time gaps between successive p...">
<polygon fill="white" stroke="black" points="466.831,-116 466.831,-136 599.169,-136 599.169,-116 466.831,-116"/>
<text text-anchor="middle" x="533" y="-122" font-family="Helvetica,sans-Serif" font-size="10.00">RTX::TimeGapTimeSeries</text>
</a>
</g>
<!-- Node1&#45;&gt;Node24 -->
<g id="edge46" class="edge"><title>Node1&#45;&gt;Node24</title>
<path fill="none" stroke="midnightblue" d="M366.354,-276.325C379.544,-243.806 410.376,-179.064 458,-145 463.07,-141.373 468.773,-138.438 474.706,-136.062"/>
<polygon fill="midnightblue" stroke="midnightblue" points="363.081,-275.083 362.692,-285.671 369.599,-277.637 363.081,-275.083"/>
</g>
<!-- Node25 -->
<g id="node49" class="node"><title>Node25</title>
<a xlink:href="class_r_t_x_1_1_warping_time_series.html" target="_top" xlink:title="RTX::WarpingTimeSeries">
<polygon fill="white" stroke="black" points="468.774,-77 468.774,-97 597.226,-97 597.226,-77 468.774,-77"/>
<text text-anchor="middle" x="533" y="-83" font-family="Helvetica,sans-Serif" font-size="10.00">RTX::WarpingTimeSeries</text>
</a>
</g>
<!-- Node1&#45;&gt;Node25 -->
<g id="edge48" class="edge"><title>Node1&#45;&gt;Node25</title>
<path fill="none" stroke="midnightblue" d="M363.619,-276.027C373.69,-237.09 401.399,-150.925 458,-106 462.571,-102.372 467.757,-99.4295 473.211,-97.0445"/>
<polygon fill="midnightblue" stroke="midnightblue" points="360.183,-275.341 361.189,-285.888 366.98,-277.016 360.183,-275.341"/>
</g>
<!-- Node2 -->
<g id="node2" class="node"><title>Node2</title>
<a xlink:href="class_r_t_x_1_1_time_series.html" target="_top" xlink:title="An abstraction of Points ordered in time. ">
<polygon fill="white" stroke="black" points="166.209,-286 166.209,-306 257.791,-306 257.791,-286 166.209,-286"/>
<text text-anchor="middle" x="212" y="-292" font-family="Helvetica,sans-Serif" font-size="10.00">RTX::TimeSeries</text>
</a>
</g>
<!-- Node2&#45;&gt;Node1 -->
<g id="edge2" class="edge"><title>Node2&#45;&gt;Node1</title>
<path fill="none" stroke="midnightblue" d="M268.266,-296C276.705,-296 285.468,-296 294.057,-296"/>
<polygon fill="midnightblue" stroke="midnightblue" points="268.167,-292.5 258.167,-296 268.167,-299.5 268.167,-292.5"/>
</g>
<!-- Node3 -->
<g id="node4" class="node"><title>Node3</title>
<polygon fill="white" stroke="#bfbfbf" points="0.0273438,-280 0.0273438,-312 129.973,-312 129.973,-280 0.0273438,-280"/>
<text text-anchor="start" x="8.02734" y="-298" font-family="Helvetica,sans-Serif" font-size="10.00">boost::enable_shared</text>
<text text-anchor="middle" x="65" y="-286" font-family="Helvetica,sans-Serif" font-size="10.00">_from_this&lt; TimeSeries &gt;</text>
</g>
<!-- Node3&#45;&gt;Node2 -->
<g id="edge4" class="edge"><title>Node3&#45;&gt;Node2</title>
<path fill="none" stroke="midnightblue" d="M140.022,-296C148.894,-296 157.736,-296 166.015,-296"/>
<polygon fill="midnightblue" stroke="midnightblue" points="140.021,-292.5 130.021,-296 140.021,-299.5 140.021,-292.5"/>
</g>
<!-- Node5 -->
<g id="node9" class="node"><title>Node5</title>
<a xlink:href="class_r_t_x_1_1_outlier_exclusion_time_series.html" target="_top" xlink:title="RTX::OutlierExclusionTime\lSeries">
<polygon fill="white" stroke="black" points="648.256,-478 648.256,-510 783.744,-510 783.744,-478 648.256,-478"/>
<text text-anchor="start" x="656.256" y="-496" font-family="Helvetica,sans-Serif" font-size="10.00">RTX::OutlierExclusionTime</text>
<text text-anchor="middle" x="716" y="-484" font-family="Helvetica,sans-Serif" font-size="10.00">Series</text>
</a>
</g>
<!-- Node4&#45;&gt;Node5 -->
<g id="edge8" class="edge"><title>Node4&#45;&gt;Node5</title>
<path fill="none" stroke="midnightblue" d="M611.717,-481.446C623.806,-482.916 636.205,-484.423 648.029,-485.86"/>
<polygon fill="midnightblue" stroke="midnightblue" points="612.004,-477.956 601.655,-480.223 611.16,-484.904 612.004,-477.956"/>
</g>
<!-- Node6 -->
<g id="node11" class="node"><title>Node6</title>
<a xlink:href="class_r_t_x_1_1_stats_time_series.html" target="_top" xlink:title="A modular timeseries class for delivering statistical information. ">
<polygon fill="white" stroke="black" points="658.815,-439 658.815,-459 773.185,-459 773.185,-439 658.815,-439"/>
<text text-anchor="middle" x="716" y="-445" font-family="Helvetica,sans-Serif" font-size="10.00">RTX::StatsTimeSeries</text>
</a>
</g>
<!-- Node4&#45;&gt;Node6 -->
<g id="edge10" class="edge"><title>Node4&#45;&gt;Node6</title>
<path fill="none" stroke="midnightblue" d="M611.893,-462.102C627.616,-460.104 643.857,-458.04 658.667,-456.158"/>
<polygon fill="midnightblue" stroke="midnightblue" points="611.134,-458.67 601.655,-463.403 612.017,-465.614 611.134,-458.67"/>
</g>
<!-- Node12 -->
<g id="node23" class="node"><title>Node12</title>
<a xlink:href="class_r_t_x_1_1_aggregator_time_series.html" target="_top" xlink:title="Aggregates (and optionally scales) arbitrary many input time series. ">
<polygon fill="white" stroke="black" points="645.471,-351 645.471,-371 786.529,-371 786.529,-351 645.471,-351"/>
<text text-anchor="middle" x="716" y="-357" font-family="Helvetica,sans-Serif" font-size="10.00">RTX::AggregatorTimeSeries</text>
</a>
</g>
<!-- Node11&#45;&gt;Node12 -->
<g id="edge22" class="edge"><title>Node11&#45;&gt;Node12</title>
<path fill="none" stroke="midnightblue" d="M587.889,-286.423C594.963,-288.906 601.873,-292.041 608,-296 629.512,-309.901 622.651,-326.85 644,-341 650.191,-345.103 657.221,-348.374 664.393,-350.979"/>
<polygon fill="midnightblue" stroke="midnightblue" points="588.787,-283.038 578.199,-283.427 586.719,-289.725 588.787,-283.038"/>
</g>
<!-- Node13 -->
<g id="node25" class="node"><title>Node13</title>
<a xlink:href="class_r_t_x_1_1_first_derivative.html" target="_top" xlink:title="RTX::FirstDerivative">
<polygon fill="white" stroke="black" points="663.361,-312 663.361,-332 768.639,-332 768.639,-312 663.361,-312"/>
<text text-anchor="middle" x="716" y="-318" font-family="Helvetica,sans-Serif" font-size="10.00">RTX::FirstDerivative</text>
</a>
</g>
<!-- Node11&#45;&gt;Node13 -->
<g id="edge24" class="edge"><title>Node11&#45;&gt;Node13</title>
<path fill="none" stroke="midnightblue" d="M584.377,-289.525C612.815,-296.595 647.879,-305.312 674.516,-311.935"/>
<polygon fill="midnightblue" stroke="midnightblue" points="585.169,-286.115 574.62,-287.099 583.48,-292.908 585.169,-286.115"/>
</g>
<!-- Node14 -->
<g id="node27" class="node"><title>Node14</title>
<a xlink:href="class_r_t_x_1_1_moving_average.html" target="_top" xlink:title="RTX::MovingAverage">
<polygon fill="white" stroke="black" points="660.656,-273 660.656,-293 771.344,-293 771.344,-273 660.656,-273"/>
<text text-anchor="middle" x="716" y="-279" font-family="Helvetica,sans-Serif" font-size="10.00">RTX::MovingAverage</text>
</a>
</g>
<!-- Node11&#45;&gt;Node14 -->
<g id="edge26" class="edge"><title>Node11&#45;&gt;Node14</title>
<path fill="none" stroke="midnightblue" d="M588.469,-278.806C611.267,-279.561 637.709,-280.438 660.509,-281.194"/>
<polygon fill="midnightblue" stroke="midnightblue" points="588.388,-275.301 578.278,-278.468 588.156,-282.297 588.388,-275.301"/>
</g>
<!-- Node17 -->
<g id="node33" class="node"><title>Node17</title>
<a xlink:href="class_r_t_x_1_1_gain_time_series.html" target="_top" xlink:title="RTX::GainTimeSeries">
<polygon fill="white" stroke="black" points="659.648,-234 659.648,-254 772.352,-254 772.352,-234 659.648,-234"/>
<text text-anchor="middle" x="716" y="-240" font-family="Helvetica,sans-Serif" font-size="10.00">RTX::GainTimeSeries</text>
</a>
</g>
<!-- Node16&#45;&gt;Node17 -->
<g id="edge32" class="edge"><title>Node16&#45;&gt;Node17</title>
<path fill="none" stroke="midnightblue" d="M577.381,-191.324C587.453,-196.097 598.117,-201.193 608,-206 624.086,-213.825 627.316,-217.546 644,-224 653.674,-227.742 664.335,-231.119 674.388,-233.986"/>
<polygon fill="midnightblue" stroke="midnightblue" points="578.874,-188.159 568.338,-187.05 575.883,-194.487 578.874,-188.159"/>
</g>
<!-- Node18 -->
<g id="node35" class="node"><title>Node18</title>
<a xlink:href="class_r_t_x_1_1_inversion_time_series.html" target="_top" xlink:title="RTX::InversionTimeSeries">
<polygon fill="white" stroke="black" points="649.921,-195 649.921,-215 782.079,-215 782.079,-195 649.921,-195"/>
<text text-anchor="middle" x="716" y="-201" font-family="Helvetica,sans-Serif" font-size="10.00">RTX::InversionTimeSeries</text>
</a>
</g>
<!-- Node16&#45;&gt;Node18 -->
<g id="edge34" class="edge"><title>Node16&#45;&gt;Node18</title>
<path fill="none" stroke="midnightblue" d="M618.512,-186.875C633.19,-189.632 648.078,-192.429 661.625,-194.974"/>
<polygon fill="midnightblue" stroke="midnightblue" points="618.877,-183.383 608.403,-184.976 617.585,-190.262 618.877,-183.383"/>
</g>
<!-- Node19 -->
<g id="node37" class="node"><title>Node19</title>
<a xlink:href="class_r_t_x_1_1_multiplier_time_series.html" target="_top" xlink:title="RTX::MultiplierTimeSeries">
<polygon fill="white" stroke="black" points="650.205,-156 650.205,-176 781.795,-176 781.795,-156 650.205,-156"/>
<text text-anchor="middle" x="716" y="-162" font-family="Helvetica,sans-Serif" font-size="10.00">RTX::MultiplierTimeSeries</text>
</a>
</g>
<!-- Node16&#45;&gt;Node19 -->
<g id="edge36" class="edge"><title>Node16&#45;&gt;Node19</title>
<path fill="none" stroke="midnightblue" d="M618.535,-168.665C629.158,-168.371 639.891,-168.075 650.145,-167.792"/>
<polygon fill="midnightblue" stroke="midnightblue" points="618.303,-165.17 608.403,-168.945 618.496,-172.167 618.303,-165.17"/>
</g>
<!-- Node20 -->
<g id="node39" class="node"><title>Node20</title>
<a xlink:href="class_r_t_x_1_1_offset_time_series.html" target="_top" xlink:title="RTX::OffsetTimeSeries">
<polygon fill="white" stroke="black" points="656.96,-117 656.96,-137 775.04,-137 775.04,-117 656.96,-117"/>
<text text-anchor="middle" x="716" y="-123" font-family="Helvetica,sans-Serif" font-size="10.00">RTX::OffsetTimeSeries</text>
</a>
</g>
<!-- Node16&#45;&gt;Node20 -->
<g id="edge38" class="edge"><title>Node16&#45;&gt;Node20</title>
<path fill="none" stroke="midnightblue" d="M609.805,-152.572C631.677,-147.255 654.726,-141.652 673.656,-137.051"/>
<polygon fill="midnightblue" stroke="midnightblue" points="608.747,-149.227 599.857,-154.991 610.401,-156.029 608.747,-149.227"/>
</g>
<!-- Node21 -->
<g id="node41" class="node"><title>Node21</title>
<a xlink:href="class_r_t_x_1_1_threshold_time_series.html" target="_top" xlink:title="A Status Class to map the input time series into binary status based on a threshold. ">
<polygon fill="white" stroke="black" points="647.976,-78 647.976,-98 784.024,-98 784.024,-78 647.976,-78"/>
<text text-anchor="middle" x="716" y="-84" font-family="Helvetica,sans-Serif" font-size="10.00">RTX::ThresholdTimeSeries</text>
</a>
</g>
<!-- Node16&#45;&gt;Node21 -->
<g id="edge40" class="edge"><title>Node16&#45;&gt;Node21</title>
<path fill="none" stroke="midnightblue" d="M598.263,-150.626C601.635,-148.88 604.904,-147.007 608,-145 627.521,-132.345 624.009,-118.9 644,-107 650.03,-103.41 656.747,-100.486 663.576,-98.1067"/>
<polygon fill="midnightblue" stroke="midnightblue" points="596.682,-147.502 589.149,-154.952 599.684,-153.826 596.682,-147.502"/>
</g>
<!-- Node22 -->
<g id="node43" class="node"><title>Node22</title>
<a xlink:href="class_r_t_x_1_1_time_offset_time_series.html" target="_top" xlink:title="RTX::TimeOffsetTimeSeries">
<polygon fill="white" stroke="black" points="646.032,-39 646.032,-59 785.968,-59 785.968,-39 646.032,-39"/>
<text text-anchor="middle" x="716" y="-45" font-family="Helvetica,sans-Serif" font-size="10.00">RTX::TimeOffsetTimeSeries</text>
</a>
</g>
<!-- Node16&#45;&gt;Node22 -->
<g id="edge42" class="edge"><title>Node16&#45;&gt;Node22</title>
<path fill="none" stroke="midnightblue" d="M602.556,-149.406C604.456,-148.026 606.277,-146.559 608,-145 636.008,-119.648 615.044,-92.2639 644,-68 648.303,-64.394 653.225,-61.4662 658.425,-59.0901"/>
<polygon fill="midnightblue" stroke="midnightblue" points="600.393,-146.631 593.789,-154.916 604.118,-152.558 600.393,-146.631"/>
</g>
<!-- Node23 -->
<g id="node45" class="node"><title>Node23</title>
<a xlink:href="class_r_t_x_1_1_valid_range_time_series.html" target="_top" xlink:title="RTX::ValidRangeTimeSeries">
<polygon fill="white" stroke="black" points="644.726,-0 644.726,-20 787.274,-20 787.274,-0 644.726,-0"/>
<text text-anchor="middle" x="716" y="-6" font-family="Helvetica,sans-Serif" font-size="10.00">RTX::ValidRangeTimeSeries</text>
</a>
</g>
<!-- Node16&#45;&gt;Node23 -->
<g id="edge44" class="edge"><title>Node16&#45;&gt;Node23</title>
<path fill="none" stroke="midnightblue" d="M603.617,-149.069C605.152,-147.789 606.618,-146.434 608,-145 645.459,-106.131 605.084,-66.4104 644,-29 647.772,-25.3743 652.156,-22.4227 656.861,-20.0221"/>
<polygon fill="midnightblue" stroke="midnightblue" points="601.565,-146.234 595.427,-154.869 605.611,-151.946 601.565,-146.234"/>
</g>
</g>
</svg>
