<?xml version="1.0" encoding="UTF-8" standalone="no"?>
<!DOCTYPE svg PUBLIC "-//W3C//DTD SVG 1.1//EN"
 "http://www.w3.org/Graphics/SVG/1.1/DTD/svg11.dtd">
<!-- Generated by graphviz version 2.36.0 (20140111.2315)
 -->
<!-- Title: RTX::DbPointRecord::RtxDbConnectException Pages: 1 -->
<svg width="138pt" height="150pt"
 viewBox="0.00 0.00 138.00 150.00" xmlns="http://www.w3.org/2000/svg" xmlns:xlink="http://www.w3.org/1999/xlink">
<g id="graph0" class="graph" transform="scale(1 1) rotate(0) translate(4 146)">
<title>RTX::DbPointRecord::RtxDbConnectException</title>
<polygon fill="white" stroke="none" points="-4,4 -4,-146 134,-146 134,4 -4,4"/>
<!-- Node1 -->
<g id="node1" class="node"><title>Node1</title>
<polygon fill="#bfbfbf" stroke="black" points="-0.250977,-1 -0.250977,-29 130.251,-29 130.251,-1 -0.250977,-1"/>
<text text-anchor="start" x="7.74902" y="-17" font-family="Helvetica,sans-Serif" font-size="10.00">RTX::DbPointRecord</text>
<text text-anchor="middle" x="65" y="-7" font-family="Helvetica,sans-Serif" font-size="10.00">::RtxDbConnectException</text>
</g>
<!-- Node2 -->
<g id="node2" class="node"><title>Node2</title>
<g id="a_node2"><a xlink:href="class_r_t_x_1_1_rtx_exception.html" target="_top" xlink:title="RTX::RtxException">
<polygon fill="white" stroke="black" points="14.8516,-67 14.8516,-85 115.148,-85 115.148,-67 14.8516,-67"/>
<text text-anchor="middle" x="65" y="-73" font-family="Helvetica,sans-Serif" font-size="10.00">RTX::RtxException</text>
</a>
</g>
</g>
<!-- Node2&#45;&gt;Node1 -->
<g id="edge1" class="edge"><title>Node2&#45;&gt;Node1</title>
<path fill="none" stroke="midnightblue" d="M65,-56.6543C65,-47.7359 65,-37.2225 65,-29.1215"/>
<polygon fill="midnightblue" stroke="midnightblue" points="61.5001,-56.7963 65,-66.7963 68.5001,-56.7963 61.5001,-56.7963"/>
</g>
<!-- Node3 -->
<g id="node3" class="node"><title>Node3</title>
<g id="a_node3"><a xlink:title="STL class. ">
<polygon fill="white" stroke="#bfbfbf" points="26.1479,-123 26.1479,-141 103.852,-141 103.852,-123 26.1479,-123"/>
<text text-anchor="middle" x="65" y="-129" font-family="Helvetica,sans-Serif" font-size="10.00">std::exception</text>
</a>
</g>
</g>
<!-- Node3&#45;&gt;Node2 -->
<g id="edge2" class="edge"><title>Node3&#45;&gt;Node2</title>
<path fill="none" stroke="midnightblue" d="M65,-112.329C65,-103.077 65,-92.3798 65,-85.2014"/>
<polygon fill="midnightblue" stroke="midnightblue" points="61.5001,-112.562 65,-122.562 68.5001,-112.563 61.5001,-112.562"/>
</g>
</g>
</svg>
