<?xml version="1.0" encoding="UTF-8" standalone="no"?>
<!DOCTYPE svg PUBLIC "-//W3C//DTD SVG 1.1//EN"
 "http://www.w3.org/Graphics/SVG/1.1/DTD/svg11.dtd">
<!-- Generated by graphviz version 2.28.0 (20110509.1545)
 -->
<!-- Title: RTX::OdbcPointRecord Pages: 1 -->
<svg width="249pt" height="384pt"
 viewBox="0.00 0.00 249.38 384.00" xmlns="http://www.w3.org/2000/svg" xmlns:xlink="http://www.w3.org/1999/xlink">
<g id="graph1" class="graph" transform="scale(1 1) rotate(0) translate(4 380)">
<title>RTX::OdbcPointRecord</title>
<polygon fill="white" stroke="white" points="-4,5 -4,-380 246.379,-380 246.379,5 -4,5"/>
<!-- Node1 -->
<g id="node1" class="node"><title>Node1</title>
<polygon fill="#bfbfbf" stroke="black" points="28.8442,-1 28.8442,-21 149.156,-21 149.156,-1 28.8442,-1"/>
<text text-anchor="middle" x="89" y="-7" font-family="Helvetica,sans-Serif" font-size="10.00">RTX::OdbcPointRecord</text>
</g>
<!-- Node2 -->
<g id="node2" class="node"><title>Node2</title>
<a xlink:href="class_r_t_x_1_1_db_point_record.html" target="_top" xlink:title="A persistence layer for databases.">
<polygon fill="white" stroke="black" points="34.4033,-61 34.4033,-81 143.597,-81 143.597,-61 34.4033,-61"/>
<text text-anchor="middle" x="89" y="-67" font-family="Helvetica,sans-Serif" font-size="10.00">RTX::DbPointRecord</text>
</a>
</g>
<!-- Node2&#45;&gt;Node1 -->
<g id="edge2" class="edge"><title>Node2&#45;&gt;Node1</title>
<path fill="none" stroke="midnightblue" d="M89,-50.7309C89,-40.7807 89,-29.1016 89,-21.1903"/>
<polygon fill="midnightblue" stroke="midnightblue" points="85.5001,-50.9375 89,-60.9375 92.5001,-50.9375 85.5001,-50.9375"/>
</g>
<!-- Node3 -->
<g id="node4" class="node"><title>Node3</title>
<a xlink:href="class_r_t_x_1_1_buffer_point_record.html" target="_top" xlink:title="RTX::BufferPointRecord">
<polygon fill="white" stroke="black" points="108.543,-121 108.543,-141 231.457,-141 231.457,-121 108.543,-121"/>
<text text-anchor="middle" x="170" y="-127" font-family="Helvetica,sans-Serif" font-size="10.00">RTX::BufferPointRecord</text>
</a>
</g>
<!-- Node3&#45;&gt;Node2 -->
<g id="edge4" class="edge"><title>Node3&#45;&gt;Node2</title>
<path fill="none" stroke="midnightblue" d="M149.175,-115.088C134.224,-104.382 114.547,-90.2926 101.835,-81.1903"/>
<polygon fill="midnightblue" stroke="midnightblue" points="147.176,-117.961 157.344,-120.938 151.251,-112.27 147.176,-117.961"/>
</g>
<!-- Node4 -->
<g id="node6" class="node"><title>Node4</title>
<a xlink:href="class_r_t_x_1_1_point_record.html" target="_top" xlink:title="A Point Record Class for storing and retrieving Points.">
<polygon fill="white" stroke="black" points="121.795,-213 121.795,-233 218.205,-233 218.205,-213 121.795,-213"/>
<text text-anchor="middle" x="170" y="-219" font-family="Helvetica,sans-Serif" font-size="10.00">RTX::PointRecord</text>
</a>
</g>
<!-- Node4&#45;&gt;Node3 -->
<g id="edge6" class="edge"><title>Node4&#45;&gt;Node3</title>
<path fill="none" stroke="midnightblue" d="M170,-202.489C170,-183.479 170,-155.415 170,-141.108"/>
<polygon fill="midnightblue" stroke="midnightblue" points="166.5,-202.707 170,-212.707 173.5,-202.707 166.5,-202.707"/>
</g>
<!-- Node5 -->
<g id="node8" class="node"><title>Node5</title>
<a xlink:title="STL class.">
<polygon fill="white" stroke="#bfbfbf" points="41.3252,-283 41.3252,-303 100.675,-303 100.675,-283 41.3252,-283"/>
<text text-anchor="middle" x="71" y="-289" font-family="Helvetica,sans-Serif" font-size="10.00">std::string</text>
</a>
</g>
<!-- Node5&#45;&gt;Node4 -->
<g id="edge8" class="edge"><title>Node5&#45;&gt;Node4</title>
<path fill="none" stroke="#9a32cd" stroke-dasharray="5,2" d="M80.9139,-274.237C85.9081,-266.571 92.5499,-258.005 100.281,-252 110.994,-243.679 124.51,-237.497 136.782,-233.091"/>
<polygon fill="#9a32cd" stroke="#9a32cd" points="77.851,-272.538 75.6769,-282.907 83.8429,-276.157 77.851,-272.538"/>
<text text-anchor="middle" x="136.859" y="-254" font-family="Helvetica,sans-Serif" font-size="10.00"> _cachedPointId</text>
</g>
<!-- Node8 -->
<g id="node14" class="node"><title>Node8</title>
<a xlink:href="class_r_t_x_1_1_db_point_record_1_1request__t.html" target="_top" xlink:title="RTX::DbPointRecord\l::request_t">
<polygon fill="white" stroke="black" points="-0.59668,-161 -0.59668,-193 108.597,-193 108.597,-161 -0.59668,-161"/>
<text text-anchor="start" x="7.40332" y="-179" font-family="Helvetica,sans-Serif" font-size="10.00">RTX::DbPointRecord</text>
<text text-anchor="middle" x="54" y="-167" font-family="Helvetica,sans-Serif" font-size="10.00">::request_t</text>
</a>
</g>
<!-- Node5&#45;&gt;Node8 -->
<g id="edge16" class="edge"><title>Node5&#45;&gt;Node8</title>
<path fill="none" stroke="#9a32cd" stroke-dasharray="5,2" d="M68.1132,-272.642C64.7646,-250.186 59.3138,-213.634 56.2588,-193.148"/>
<polygon fill="#9a32cd" stroke="#9a32cd" points="64.6721,-273.297 69.6088,-282.671 71.5955,-272.264 64.6721,-273.297"/>
<text text-anchor="middle" x="72.2808" y="-254" font-family="Helvetica,sans-Serif" font-size="10.00"> id</text>
</g>
<!-- Node6 -->
<g id="node10" class="node"><title>Node6</title>
<a xlink:title="STL class.">
<polygon fill="white" stroke="#bfbfbf" points="23.9521,-343 23.9521,-375 118.048,-375 118.048,-343 23.9521,-343"/>
<text text-anchor="start" x="31.9521" y="-361" font-family="Helvetica,sans-Serif" font-size="10.00">std::basic_string&lt;</text>
<text text-anchor="middle" x="71" y="-349" font-family="Helvetica,sans-Serif" font-size="10.00"> char &gt;</text>
</a>
</g>
<!-- Node6&#45;&gt;Node5 -->
<g id="edge10" class="edge"><title>Node6&#45;&gt;Node5</title>
<path fill="none" stroke="midnightblue" d="M71,-332.611C71,-322.286 71,-311.001 71,-303.313"/>
<polygon fill="midnightblue" stroke="midnightblue" points="67.5001,-332.833 71,-342.833 74.5001,-332.833 67.5001,-332.833"/>
</g>
<!-- Node7 -->
<g id="node12" class="node"><title>Node7</title>
<a xlink:href="class_r_t_x_1_1_point.html" target="_top" xlink:title="A Point Class to store data tuples (date, value, quality, confidence)">
<polygon fill="white" stroke="black" points="150.913,-283 150.913,-303 215.087,-303 215.087,-283 150.913,-283"/>
<text text-anchor="middle" x="183" y="-289" font-family="Helvetica,sans-Serif" font-size="10.00">RTX::Point</text>
</a>
</g>
<!-- Node7&#45;&gt;Node4 -->
<g id="edge12" class="edge"><title>Node7&#45;&gt;Node4</title>
<path fill="none" stroke="#9a32cd" stroke-dasharray="5,2" d="M179.358,-272.95C176.862,-259.891 173.663,-243.159 171.725,-233.025"/>
<polygon fill="#9a32cd" stroke="#9a32cd" points="175.931,-273.664 181.247,-282.829 182.807,-272.35 175.931,-273.664"/>
<text text-anchor="middle" x="209.689" y="-254" font-family="Helvetica,sans-Serif" font-size="10.00"> _cachedPoint</text>
</g>
<!-- Node8&#45;&gt;Node2 -->
<g id="edge14" class="edge"><title>Node8&#45;&gt;Node2</title>
<path fill="none" stroke="#9a32cd" stroke-dasharray="5,2" d="M56.7277,-150.985C58.2313,-141.155 60.5003,-129.882 63.8672,-120 68.7211,-105.754 77.3251,-90.5653 83.0956,-81.1774"/>
<polygon fill="#9a32cd" stroke="#9a32cd" points="53.2519,-150.571 55.3808,-160.949 60.1888,-151.508 53.2519,-150.571"/>
<text text-anchor="middle" x="82.0664" y="-127" font-family="Helvetica,sans-Serif" font-size="10.00"> request</text>
</g>
</g>
</svg>
