<?xml version="1.0" encoding="UTF-8" standalone="no"?>
<!DOCTYPE svg PUBLIC "-//W3C//DTD SVG 1.1//EN"
 "http://www.w3.org/Graphics/SVG/1.1/DTD/svg11.dtd">
<!-- Generated by graphviz version 2.36.0 (20140111.2315)
 -->
<!-- Title: RTX::MysqlPointRecord Pages: 1 -->
<svg width="130pt" height="196pt"
 viewBox="0.00 0.00 130.00 196.00" xmlns="http://www.w3.org/2000/svg" xmlns:xlink="http://www.w3.org/1999/xlink">
<g id="graph0" class="graph" transform="scale(1 1) rotate(0) translate(4 192)">
<title>RTX::MysqlPointRecord</title>
<polygon fill="white" stroke="none" points="-4,4 -4,-192 126,-192 126,4 -4,4"/>
<!-- Node1 -->
<g id="node1" class="node"><title>Node1</title>
<polygon fill="#bfbfbf" stroke="black" points="-0.261719,-1 -0.261719,-19 122.262,-19 122.262,-1 -0.261719,-1"/>
<text text-anchor="middle" x="61" y="-7" font-family="Helvetica,sans-Serif" font-size="10.00">RTX::MysqlPointRecord</text>
</g>
<!-- Node2 -->
<g id="node2" class="node"><title>Node2</title>
<g id="a_node2"><a xlink:href="class_r_t_x_1_1_db_point_record.html" target="_top" xlink:title="A persistence layer for databases. ">
<polygon fill="white" stroke="black" points="6.40332,-57 6.40332,-75 115.597,-75 115.597,-57 6.40332,-57"/>
<text text-anchor="middle" x="61" y="-63" font-family="Helvetica,sans-Serif" font-size="10.00">RTX::DbPointRecord</text>
</a>
</g>
</g>
<!-- Node2&#45;&gt;Node1 -->
<g id="edge1" class="edge"><title>Node2&#45;&gt;Node1</title>
<path fill="none" stroke="midnightblue" d="M61,-46.3288C61,-37.0774 61,-26.3798 61,-19.2014"/>
<polygon fill="midnightblue" stroke="midnightblue" points="57.5001,-46.5625 61,-56.5625 64.5001,-46.5625 57.5001,-46.5625"/>
</g>
<!-- Node3 -->
<g id="node3" class="node"><title>Node3</title>
<g id="a_node3"><a xlink:href="class_r_t_x_1_1_buffer_point_record.html" target="_top" xlink:title="RTX::BufferPointRecord">
<polygon fill="white" stroke="black" points="-0.457031,-113 -0.457031,-131 122.457,-131 122.457,-113 -0.457031,-113"/>
<text text-anchor="middle" x="61" y="-119" font-family="Helvetica,sans-Serif" font-size="10.00">RTX::BufferPointRecord</text>
</a>
</g>
</g>
<!-- Node3&#45;&gt;Node2 -->
<g id="edge2" class="edge"><title>Node3&#45;&gt;Node2</title>
<path fill="none" stroke="midnightblue" d="M61,-102.329C61,-93.0774 61,-82.3798 61,-75.2014"/>
<polygon fill="midnightblue" stroke="midnightblue" points="57.5001,-102.562 61,-112.562 64.5001,-102.563 57.5001,-102.562"/>
</g>
<!-- Node4 -->
<g id="node4" class="node"><title>Node4</title>
<g id="a_node4"><a xlink:href="class_r_t_x_1_1_point_record.html" target="_top" xlink:title="A Point Record Class for storing and retrieving Points. ">
<polygon fill="white" stroke="black" points="12.7949,-169 12.7949,-187 109.205,-187 109.205,-169 12.7949,-169"/>
<text text-anchor="middle" x="61" y="-175" font-family="Helvetica,sans-Serif" font-size="10.00">RTX::PointRecord</text>
</a>
</g>
</g>
<!-- Node4&#45;&gt;Node3 -->
<g id="edge3" class="edge"><title>Node4&#45;&gt;Node3</title>
<path fill="none" stroke="midnightblue" d="M61,-158.329C61,-149.077 61,-138.38 61,-131.201"/>
<polygon fill="midnightblue" stroke="midnightblue" points="57.5001,-158.562 61,-168.562 64.5001,-158.563 57.5001,-158.562"/>
</g>
</g>
</svg>
