<?xml version="1.0" encoding="UTF-8" standalone="no"?>
<!DOCTYPE svg PUBLIC "-//W3C//DTD SVG 1.1//EN"
 "http://www.w3.org/Graphics/SVG/1.1/DTD/svg11.dtd">
<!-- Generated by graphviz version 2.28.0 (20110509.1545)
 -->
<!-- Title: RTX::EpanetModel Pages: 1 -->
<svg width="148pt" height="146pt"
 viewBox="0.00 0.00 148.00 146.00" xmlns="http://www.w3.org/2000/svg" xmlns:xlink="http://www.w3.org/1999/xlink">
<g id="graph1" class="graph" transform="scale(1 1) rotate(0) translate(4 142)">
<title>RTX::EpanetModel</title>
<polygon fill="white" stroke="white" points="-4,5 -4,-142 145,-142 145,5 -4,5"/>
<!-- Node1 -->
<g id="node1" class="node"><title>Node1</title>
<polygon fill="#bfbfbf" stroke="black" points="19.8442,-59 19.8442,-79 120.156,-79 120.156,-59 19.8442,-59"/>
<text text-anchor="middle" x="70" y="-65" font-family="Helvetica,sans-Serif" font-size="10.00">RTX::EpanetModel</text>
</g>
<!-- Node3 -->
<g id="node5" class="node"><title>Node3</title>
<a xlink:href="class_r_t_x_1_1_epanet_synthetic_model.html" target="_top" xlink:title="Forward&#45;simluation model object, based on epanet engine.">
<polygon fill="white" stroke="black" points="-0.722168,-1 -0.722168,-21 140.722,-21 140.722,-1 -0.722168,-1"/>
<text text-anchor="middle" x="70" y="-7" font-family="Helvetica,sans-Serif" font-size="10.00">RTX::EpanetSyntheticModel</text>
</a>
</g>
<!-- Node1&#45;&gt;Node3 -->
<g id="edge4" class="edge"><title>Node1&#45;&gt;Node3</title>
<path fill="none" stroke="midnightblue" d="M70,-48.7065C70,-39.3384 70,-28.5262 70,-21.0752"/>
<polygon fill="midnightblue" stroke="midnightblue" points="66.5001,-48.7527 70,-58.7527 73.5001,-48.7528 66.5001,-48.7527"/>
</g>
<!-- Node2 -->
<g id="node2" class="node"><title>Node2</title>
<a xlink:href="class_r_t_x_1_1_model.html" target="_top" xlink:title="A hydraulic / water quality model abstraction.">
<polygon fill="white" stroke="black" points="35.6914,-117 35.6914,-137 104.309,-137 104.309,-117 35.6914,-117"/>
<text text-anchor="middle" x="70" y="-123" font-family="Helvetica,sans-Serif" font-size="10.00">RTX::Model</text>
</a>
</g>
<!-- Node2&#45;&gt;Node1 -->
<g id="edge2" class="edge"><title>Node2&#45;&gt;Node1</title>
<path fill="none" stroke="midnightblue" d="M70,-106.707C70,-97.3384 70,-86.5262 70,-79.0752"/>
<polygon fill="midnightblue" stroke="midnightblue" points="66.5001,-106.753 70,-116.753 73.5001,-106.753 66.5001,-106.753"/>
</g>
</g>
</svg>
