<?xml version="1.0" encoding="UTF-8" standalone="no"?>
<!DOCTYPE svg PUBLIC "-//W3C//DTD SVG 1.1//EN"
 "http://www.w3.org/Graphics/SVG/1.1/DTD/svg11.dtd">
<!-- Generated by graphviz version 2.36.0 (20140111.2315)
 -->
<!-- Title: RTX::RtxException Pages: 1 -->
<svg width="180pt" height="162pt"
 viewBox="0.00 0.00 180.00 162.00" xmlns="http://www.w3.org/2000/svg" xmlns:xlink="http://www.w3.org/1999/xlink">
<g id="graph0" class="graph" transform="scale(1 1) rotate(0) translate(4 158)">
<title>RTX::RtxException</title>
<polygon fill="white" stroke="none" points="-4,4 -4,-158 176,-158 176,4 -4,4"/>
<!-- Node1 -->
<g id="node1" class="node"><title>Node1</title>
<polygon fill="#bfbfbf" stroke="black" points="17.8516,-1 17.8516,-19 118.148,-19 118.148,-1 17.8516,-1"/>
<text text-anchor="middle" x="68" y="-7" font-family="Helvetica,sans-Serif" font-size="10.00">RTX::RtxException</text>
</g>
<!-- Node2 -->
<g id="node2" class="node"><title>Node2</title>
<g id="a_node2"><a xlink:title="STL class. ">
<polygon fill="white" stroke="#bfbfbf" points="-0.852051,-67 -0.852051,-85 76.8521,-85 76.8521,-67 -0.852051,-67"/>
<text text-anchor="middle" x="38" y="-73" font-family="Helvetica,sans-Serif" font-size="10.00">std::exception</text>
</a>
</g>
</g>
<!-- Node2&#45;&gt;Node1 -->
<g id="edge1" class="edge"><title>Node2&#45;&gt;Node1</title>
<path fill="none" stroke="midnightblue" d="M46.1894,-57.5293C52.0316,-45.066 59.6236,-28.8696 64.1366,-19.242"/>
<polygon fill="midnightblue" stroke="midnightblue" points="42.8748,-56.3542 41.7995,-66.8944 49.213,-59.3253 42.8748,-56.3542"/>
</g>
<!-- Node3 -->
<g id="node3" class="node"><title>Node3</title>
<g id="a_node3"><a xlink:title="STL class. ">
<polygon fill="white" stroke="#bfbfbf" points="95.3252,-67 95.3252,-85 154.675,-85 154.675,-67 95.3252,-67"/>
<text text-anchor="middle" x="125" y="-73" font-family="Helvetica,sans-Serif" font-size="10.00">std::string</text>
</a>
</g>
</g>
<!-- Node3&#45;&gt;Node1 -->
<g id="edge2" class="edge"><title>Node3&#45;&gt;Node1</title>
<path fill="none" stroke="#9a32cd" stroke-dasharray="5,2" d="M111.079,-59.3695C99.7971,-46.702 84.3438,-29.351 75.3405,-19.242"/>
<polygon fill="#9a32cd" stroke="#9a32cd" points="108.516,-61.7545 117.781,-66.8944 113.744,-57.0989 108.516,-61.7545"/>
<text text-anchor="middle" x="102.889" y="-40" font-family="Helvetica,sans-Serif" font-size="10.00"> s</text>
</g>
<!-- Node4 -->
<g id="node4" class="node"><title>Node4</title>
<g id="a_node4"><a xlink:title="STL class. ">
<polygon fill="white" stroke="#bfbfbf" points="77.9521,-125 77.9521,-153 172.048,-153 172.048,-125 77.9521,-125"/>
<text text-anchor="start" x="85.9521" y="-141" font-family="Helvetica,sans-Serif" font-size="10.00">std::basic_string&lt;</text>
<text text-anchor="middle" x="125" y="-131" font-family="Helvetica,sans-Serif" font-size="10.00"> char &gt;</text>
</a>
</g>
</g>
<!-- Node4&#45;&gt;Node3 -->
<g id="edge3" class="edge"><title>Node4&#45;&gt;Node3</title>
<path fill="none" stroke="midnightblue" d="M125,-114.588C125,-104.213 125,-92.6798 125,-85.1595"/>
<polygon fill="midnightblue" stroke="midnightblue" points="121.5,-114.764 125,-124.764 128.5,-114.764 121.5,-114.764"/>
</g>
</g>
</svg>
