<?xml version="1.0" encoding="UTF-8" standalone="no"?>
<!DOCTYPE svg PUBLIC "-//W3C//DTD SVG 1.1//EN"
 "http://www.w3.org/Graphics/SVG/1.1/DTD/svg11.dtd">
<!-- Generated by graphviz version 2.36.0 (20140111.2315)
 -->
<!-- Title: RTX::MysqlPointRecord::mysql_connection_t Pages: 1 -->
<svg width="130pt" height="202pt"
 viewBox="0.00 0.00 130.00 202.00" xmlns="http://www.w3.org/2000/svg" xmlns:xlink="http://www.w3.org/1999/xlink">
<g id="graph0" class="graph" transform="scale(1 1) rotate(0) translate(4 198)">
<title>RTX::MysqlPointRecord::mysql_connection_t</title>
<polygon fill="white" stroke="none" points="-4,4 -4,-198 126,-198 126,4 -4,4"/>
<!-- Node1 -->
<g id="node1" class="node"><title>Node1</title>
<polygon fill="#bfbfbf" stroke="black" points="-0.261719,-1 -0.261719,-29 122.262,-29 122.262,-1 -0.261719,-1"/>
<text text-anchor="start" x="7.73828" y="-17" font-family="Helvetica,sans-Serif" font-size="10.00">RTX::MysqlPointRecord</text>
<text text-anchor="middle" x="61" y="-7" font-family="Helvetica,sans-Serif" font-size="10.00">::mysql_connection_t</text>
</g>
<!-- Node2 -->
<g id="node2" class="node"><title>Node2</title>
<g id="a_node2"><a xlink:title="STL class. ">
<polygon fill="white" stroke="#bfbfbf" points="31.3252,-107 31.3252,-125 90.6748,-125 90.6748,-107 31.3252,-107"/>
<text text-anchor="middle" x="61" y="-113" font-family="Helvetica,sans-Serif" font-size="10.00">std::string</text>
</a>
</g>
</g>
<!-- Node2&#45;&gt;Node1 -->
<g id="edge1" class="edge"><title>Node2&#45;&gt;Node1</title>
<path fill="none" stroke="#9a32cd" stroke-dasharray="5,2" d="M61,-96.8343C61,-77.2456 61,-46.5388 61,-29.1544"/>
<polygon fill="#9a32cd" stroke="#9a32cd" points="57.5001,-96.8984 61,-106.898 64.5001,-96.8984 57.5001,-96.8984"/>
<text text-anchor="middle" x="71.5615" y="-80" font-family="Helvetica,sans-Serif" font-size="10.00"> pwd</text>
<text text-anchor="middle" x="71.5615" y="-70" font-family="Helvetica,sans-Serif" font-size="10.00">host</text>
<text text-anchor="middle" x="71.5615" y="-60" font-family="Helvetica,sans-Serif" font-size="10.00">uid</text>
<text text-anchor="middle" x="71.5615" y="-50" font-family="Helvetica,sans-Serif" font-size="10.00">db</text>
</g>
<!-- Node3 -->
<g id="node3" class="node"><title>Node3</title>
<g id="a_node3"><a xlink:title="STL class. ">
<polygon fill="white" stroke="#bfbfbf" points="13.9521,-165 13.9521,-193 108.048,-193 108.048,-165 13.9521,-165"/>
<text text-anchor="start" x="21.9521" y="-181" font-family="Helvetica,sans-Serif" font-size="10.00">std::basic_string&lt;</text>
<text text-anchor="middle" x="61" y="-171" font-family="Helvetica,sans-Serif" font-size="10.00"> char &gt;</text>
</a>
</g>
</g>
<!-- Node3&#45;&gt;Node2 -->
<g id="edge2" class="edge"><title>Node3&#45;&gt;Node2</title>
<path fill="none" stroke="midnightblue" d="M61,-154.588C61,-144.213 61,-132.68 61,-125.159"/>
<polygon fill="midnightblue" stroke="midnightblue" points="57.5001,-154.764 61,-164.764 64.5001,-154.764 57.5001,-154.764"/>
</g>
</g>
</svg>
