<?xml version="1.0" encoding="UTF-8" standalone="no"?>
<!DOCTYPE svg PUBLIC "-//W3C//DTD SVG 1.1//EN"
 "http://www.w3.org/Graphics/SVG/1.1/DTD/svg11.dtd">
<!-- Generated by graphviz version 2.36.0 (20140111.2315)
 -->
<!-- Title: RTX::MysqlPointRecord Pages: 1 -->
<svg width="469pt" height="440pt"
 viewBox="0.00 0.00 469.38 440.00" xmlns="http://www.w3.org/2000/svg" xmlns:xlink="http://www.w3.org/1999/xlink">
<g id="graph0" class="graph" transform="scale(1 1) rotate(0) translate(4 436)">
<title>RTX::MysqlPointRecord</title>
<polygon fill="white" stroke="none" points="-4,4 -4,-436 465.379,-436 465.379,4 -4,4"/>
<!-- Node1 -->
<g id="node1" class="node"><title>Node1</title>
<polygon fill="#bfbfbf" stroke="black" points="62.7383,-1 62.7383,-19 185.262,-19 185.262,-1 62.7383,-1"/>
<text text-anchor="middle" x="124" y="-7" font-family="Helvetica,sans-Serif" font-size="10.00">RTX::MysqlPointRecord</text>
</g>
<!-- Node2 -->
<g id="node2" class="node"><title>Node2</title>
<g id="a_node2"><a xlink:href="class_r_t_x_1_1_db_point_record.html" target="_top" xlink:title="A persistence layer for databases. ">
<polygon fill="white" stroke="black" points="69.4033,-59 69.4033,-77 178.597,-77 178.597,-59 69.4033,-59"/>
<text text-anchor="middle" x="124" y="-65" font-family="Helvetica,sans-Serif" font-size="10.00">RTX::DbPointRecord</text>
</a>
</g>
</g>
<!-- Node2&#45;&gt;Node1 -->
<g id="edge1" class="edge"><title>Node2&#45;&gt;Node1</title>
<path fill="none" stroke="midnightblue" d="M124,-48.6464C124,-38.7413 124,-27.0014 124,-19.2969"/>
<polygon fill="midnightblue" stroke="midnightblue" points="120.5,-48.737 124,-58.737 127.5,-48.737 120.5,-48.737"/>
</g>
<!-- Node3 -->
<g id="node3" class="node"><title>Node3</title>
<g id="a_node3"><a xlink:href="class_r_t_x_1_1_buffer_point_record.html" target="_top" xlink:title="RTX::BufferPointRecord">
<polygon fill="white" stroke="black" points="165.543,-117 165.543,-135 288.457,-135 288.457,-117 165.543,-117"/>
<text text-anchor="middle" x="227" y="-123" font-family="Helvetica,sans-Serif" font-size="10.00">RTX::BufferPointRecord</text>
</a>
</g>
</g>
<!-- Node3&#45;&gt;Node2 -->
<g id="edge2" class="edge"><title>Node3&#45;&gt;Node2</title>
<path fill="none" stroke="midnightblue" d="M203.187,-112.053C183.29,-101.235 155.545,-86.1507 138.73,-77.0086"/>
<polygon fill="midnightblue" stroke="midnightblue" points="201.785,-115.275 212.243,-116.977 205.129,-109.125 201.785,-115.275"/>
</g>
<!-- Node4 -->
<g id="node4" class="node"><title>Node4</title>
<g id="a_node4"><a xlink:href="class_r_t_x_1_1_point_record.html" target="_top" xlink:title="A Point Record Class for storing and retrieving Points. ">
<polygon fill="white" stroke="black" points="221.795,-183 221.795,-201 318.205,-201 318.205,-183 221.795,-183"/>
<text text-anchor="middle" x="270" y="-189" font-family="Helvetica,sans-Serif" font-size="10.00">RTX::PointRecord</text>
</a>
</g>
</g>
<!-- Node4&#45;&gt;Node3 -->
<g id="edge3" class="edge"><title>Node4&#45;&gt;Node3</title>
<path fill="none" stroke="midnightblue" d="M258.761,-174.273C250.325,-161.716 239.136,-145.062 232.538,-135.242"/>
<polygon fill="midnightblue" stroke="midnightblue" points="256.072,-176.546 264.554,-182.894 261.882,-172.642 256.072,-176.546"/>
</g>
<!-- Node5 -->
<g id="node5" class="node"><title>Node5</title>
<polygon fill="white" stroke="#bfbfbf" points="259.452,-269 259.452,-297 368.548,-297 368.548,-269 259.452,-269"/>
<text text-anchor="start" x="267.452" y="-285" font-family="Helvetica,sans-Serif" font-size="10.00">std::map&lt; std::string,</text>
<text text-anchor="middle" x="314" y="-275" font-family="Helvetica,sans-Serif" font-size="10.00"> RTX::Point &gt;</text>
</g>
<!-- Node5&#45;&gt;Node4 -->
<g id="edge4" class="edge"><title>Node5&#45;&gt;Node4</title>
<path fill="none" stroke="#9a32cd" stroke-dasharray="5,2" d="M302.988,-259.726C293.622,-240.78 280.68,-214.602 274.139,-201.373"/>
<polygon fill="#9a32cd" stroke="#9a32cd" points="299.938,-261.455 307.508,-268.868 306.213,-258.352 299.938,-261.455"/>
<text text-anchor="middle" x="326.465" y="-232" font-family="Helvetica,sans-Serif" font-size="10.00"> _pointCache</text>
</g>
<!-- Node6 -->
<g id="node6" class="node"><title>Node6</title>
<g id="a_node6"><a xlink:title="STL class. ">
<polygon fill="white" stroke="#bfbfbf" points="117.325,-345 117.325,-363 176.675,-363 176.675,-345 117.325,-345"/>
<text text-anchor="middle" x="147" y="-351" font-family="Helvetica,sans-Serif" font-size="10.00">std::string</text>
</a>
</g>
</g>
<!-- Node6&#45;&gt;Node2 -->
<g id="edge12" class="edge"><title>Node6&#45;&gt;Node2</title>
<path fill="none" stroke="#9a32cd" stroke-dasharray="5,2" d="M137.782,-335.668C131.382,-322.022 124,-302.313 124,-284 124,-284 124,-284 124,-125 124,-108.083 124,-88.2922 124,-77.3491"/>
<polygon fill="#9a32cd" stroke="#9a32cd" points="134.743,-337.418 142.346,-344.798 141.005,-334.288 134.743,-337.418"/>
<text text-anchor="middle" x="156.234" y="-189" font-family="Helvetica,sans-Serif" font-size="10.00"> errorMessage</text>
</g>
<!-- Node6&#45;&gt;Node4 -->
<g id="edge8" class="edge"><title>Node6&#45;&gt;Node4</title>
<path fill="none" stroke="#9a32cd" stroke-dasharray="5,2" d="M150.686,-334.973C155.044,-316.802 163.624,-288.575 178.281,-268 199.644,-238.012 235.974,-213.292 255.896,-201.135"/>
<polygon fill="#9a32cd" stroke="#9a32cd" points="147.248,-334.309 148.501,-344.83 154.082,-335.824 147.248,-334.309"/>
<text text-anchor="middle" x="214.859" y="-280" font-family="Helvetica,sans-Serif" font-size="10.00"> _cachedPointId</text>
</g>
<!-- Node6&#45;&gt;Node5 -->
<g id="edge5" class="edge"><title>Node6&#45;&gt;Node5</title>
<path fill="none" stroke="#9a32cd" stroke-dasharray="5,2" d="M175.883,-341.066C205.594,-328.791 251.739,-309.724 282.405,-297.054"/>
<polygon fill="#9a32cd" stroke="#9a32cd" points="174.39,-337.896 166.484,-344.95 177.063,-344.366 174.39,-337.896"/>
<text text-anchor="middle" x="247.67" y="-318" font-family="Helvetica,sans-Serif" font-size="10.00"> keys</text>
</g>
<!-- Node9 -->
<g id="node9" class="node"><title>Node9</title>
<g id="a_node9"><a xlink:href="class_r_t_x_1_1_db_point_record_1_1request__t.html" target="_top" xlink:title="RTX::DbPointRecord\l::request_t">
<polygon fill="white" stroke="black" points="-0.59668,-221 -0.59668,-249 108.597,-249 108.597,-221 -0.59668,-221"/>
<text text-anchor="start" x="7.40332" y="-237" font-family="Helvetica,sans-Serif" font-size="10.00">RTX::DbPointRecord</text>
<text text-anchor="middle" x="54" y="-227" font-family="Helvetica,sans-Serif" font-size="10.00">::request_t</text>
</a>
</g>
</g>
<!-- Node6&#45;&gt;Node9 -->
<g id="edge11" class="edge"><title>Node6&#45;&gt;Node9</title>
<path fill="none" stroke="#9a32cd" stroke-dasharray="5,2" d="M118.177,-340.224C111.472,-336.332 104.751,-331.578 99.4385,-326 77.7102,-303.185 64.0732,-267.959 57.8913,-249.054"/>
<polygon fill="#9a32cd" stroke="#9a32cd" points="116.7,-343.403 127.174,-344.994 119.978,-337.218 116.7,-343.403"/>
<text text-anchor="middle" x="105.281" y="-318" font-family="Helvetica,sans-Serif" font-size="10.00"> id</text>
</g>
<!-- Node7 -->
<g id="node7" class="node"><title>Node7</title>
<g id="a_node7"><a xlink:title="STL class. ">
<polygon fill="white" stroke="#bfbfbf" points="99.9521,-403 99.9521,-431 194.048,-431 194.048,-403 99.9521,-403"/>
<text text-anchor="start" x="107.952" y="-419" font-family="Helvetica,sans-Serif" font-size="10.00">std::basic_string&lt;</text>
<text text-anchor="middle" x="147" y="-409" font-family="Helvetica,sans-Serif" font-size="10.00"> char &gt;</text>
</a>
</g>
</g>
<!-- Node7&#45;&gt;Node6 -->
<g id="edge6" class="edge"><title>Node7&#45;&gt;Node6</title>
<path fill="none" stroke="midnightblue" d="M147,-392.588C147,-382.213 147,-370.68 147,-363.159"/>
<polygon fill="midnightblue" stroke="midnightblue" points="143.5,-392.764 147,-402.764 150.5,-392.764 143.5,-392.764"/>
</g>
<!-- Node8 -->
<g id="node8" class="node"><title>Node8</title>
<g id="a_node8"><a xlink:href="class_r_t_x_1_1_point.html" target="_top" xlink:title="A Point Class to store data tuples (date, value, quality, confidence) ">
<polygon fill="white" stroke="black" points="334.913,-345 334.913,-363 399.087,-363 399.087,-345 334.913,-345"/>
<text text-anchor="middle" x="367" y="-351" font-family="Helvetica,sans-Serif" font-size="10.00">RTX::Point</text>
</a>
</g>
</g>
<!-- Node8&#45;&gt;Node4 -->
<g id="edge9" class="edge"><title>Node8&#45;&gt;Node4</title>
<path fill="none" stroke="#9a32cd" stroke-dasharray="5,2" d="M384.022,-337.581C386.876,-334.079 389.42,-330.155 391,-326 408.489,-280.001 394.897,-253.662 359,-220 347.929,-209.618 332.988,-203.22 318.513,-199.28"/>
<polygon fill="#9a32cd" stroke="#9a32cd" points="381.432,-335.225 377.109,-344.898 386.52,-340.033 381.432,-335.225"/>
<text text-anchor="middle" x="429.689" y="-280" font-family="Helvetica,sans-Serif" font-size="10.00"> _cachedPoint</text>
</g>
<!-- Node8&#45;&gt;Node5 -->
<g id="edge7" class="edge"><title>Node8&#45;&gt;Node5</title>
<path fill="none" stroke="#9a32cd" stroke-dasharray="5,2" d="M354.355,-336.538C345.09,-324.476 332.682,-308.321 324.081,-297.124"/>
<polygon fill="#9a32cd" stroke="#9a32cd" points="351.845,-339.015 360.712,-344.814 357.396,-334.751 351.845,-339.015"/>
<text text-anchor="middle" x="366.677" y="-318" font-family="Helvetica,sans-Serif" font-size="10.00"> elements</text>
</g>
<!-- Node9&#45;&gt;Node2 -->
<g id="edge10" class="edge"><title>Node9&#45;&gt;Node2</title>
<path fill="none" stroke="#9a32cd" stroke-dasharray="5,2" d="M57.9429,-210.659C61.1331,-194.395 66.3419,-172.404 73.8672,-154 86.1872,-123.87 107.835,-91.6426 118.178,-77.028"/>
<polygon fill="#9a32cd" stroke="#9a32cd" points="54.4279,-210.42 56.0531,-220.889 61.3115,-211.692 54.4279,-210.42"/>
<text text-anchor="middle" x="92.0664" y="-156" font-family="Helvetica,sans-Serif" font-size="10.00"> request</text>
</g>
</g>
</svg>
