<?xml version="1.0" encoding="UTF-8" standalone="no"?>
<!DOCTYPE svg PUBLIC "-//W3C//DTD SVG 1.1//EN"
 "http://www.w3.org/Graphics/SVG/1.1/DTD/svg11.dtd">
<!-- Generated by graphviz version 2.36.0 (20140111.2315)
 -->
<!-- Title: RTX::SinglePointFilterModularTimeSeries Pages: 1 -->
<svg width="158pt" height="216pt"
 viewBox="0.00 0.00 158.00 216.00" xmlns="http://www.w3.org/2000/svg" xmlns:xlink="http://www.w3.org/1999/xlink">
<g id="graph0" class="graph" transform="scale(1 1) rotate(0) translate(4 212)">
<title>RTX::SinglePointFilterModularTimeSeries</title>
<polygon fill="white" stroke="none" points="-4,4 -4,-212 154,-212 154,4 -4,4"/>
<!-- Node1 -->
<g id="node1" class="node"><title>Node1</title>
<polygon fill="#bfbfbf" stroke="black" points="-0.160645,-1 -0.160645,-29 150.161,-29 150.161,-1 -0.160645,-1"/>
<text text-anchor="start" x="7.83936" y="-17" font-family="Helvetica,sans-Serif" font-size="10.00">RTX::SinglePointFilterModular</text>
<text text-anchor="middle" x="75" y="-7" font-family="Helvetica,sans-Serif" font-size="10.00">TimeSeries</text>
</g>
<!-- Node2 -->
<g id="node2" class="node"><title>Node2</title>
<g id="a_node2"><a xlink:href="class_r_t_x_1_1_modular_time_series.html" target="_top" xlink:title="A Time Series class that allows a single upstream TimeSeries. ">
<polygon fill="white" stroke="black" points="11.1455,-67 11.1455,-85 138.854,-85 138.854,-67 11.1455,-67"/>
<text text-anchor="middle" x="75" y="-73" font-family="Helvetica,sans-Serif" font-size="10.00">RTX::ModularTimeSeries</text>
</a>
</g>
</g>
<!-- Node2&#45;&gt;Node1 -->
<g id="edge1" class="edge"><title>Node2&#45;&gt;Node1</title>
<path fill="none" stroke="midnightblue" d="M75,-56.6543C75,-47.7359 75,-37.2225 75,-29.1215"/>
<polygon fill="midnightblue" stroke="midnightblue" points="71.5001,-56.7963 75,-66.7963 78.5001,-56.7963 71.5001,-56.7963"/>
</g>
<!-- Node3 -->
<g id="node3" class="node"><title>Node3</title>
<g id="a_node3"><a xlink:href="class_r_t_x_1_1_time_series.html" target="_top" xlink:title="An abstraction of Points ordered in time. ">
<polygon fill="white" stroke="black" points="29.2095,-123 29.2095,-141 120.791,-141 120.791,-123 29.2095,-123"/>
<text text-anchor="middle" x="75" y="-129" font-family="Helvetica,sans-Serif" font-size="10.00">RTX::TimeSeries</text>
</a>
</g>
</g>
<!-- Node3&#45;&gt;Node2 -->
<g id="edge2" class="edge"><title>Node3&#45;&gt;Node2</title>
<path fill="none" stroke="midnightblue" d="M75,-112.329C75,-103.077 75,-92.3798 75,-85.2014"/>
<polygon fill="midnightblue" stroke="midnightblue" points="71.5001,-112.562 75,-122.562 78.5001,-112.563 71.5001,-112.562"/>
</g>
<!-- Node4 -->
<g id="node4" class="node"><title>Node4</title>
<polygon fill="white" stroke="#bfbfbf" points="10.0273,-179 10.0273,-207 139.973,-207 139.973,-179 10.0273,-179"/>
<text text-anchor="start" x="18.0273" y="-195" font-family="Helvetica,sans-Serif" font-size="10.00">boost::enable_shared</text>
<text text-anchor="middle" x="75" y="-185" font-family="Helvetica,sans-Serif" font-size="10.00">_from_this&lt; TimeSeries &gt;</text>
</g>
<!-- Node4&#45;&gt;Node3 -->
<g id="edge3" class="edge"><title>Node4&#45;&gt;Node3</title>
<path fill="none" stroke="midnightblue" d="M75,-168.886C75,-159.094 75,-148.316 75,-141.153"/>
<polygon fill="midnightblue" stroke="midnightblue" points="71.5001,-168.906 75,-178.906 78.5001,-168.906 71.5001,-168.906"/>
</g>
</g>
</svg>
