<?xml version="1.0" encoding="UTF-8" standalone="no"?>
<!DOCTYPE svg PUBLIC "-//W3C//DTD SVG 1.1//EN"
 "http://www.w3.org/Graphics/SVG/1.1/DTD/svg11.dtd">
<!-- Generated by graphviz version 2.28.0 (20110509.1545)
 -->
<!-- Title: RTX::OdbcPointRecord::odbc_query_t Pages: 1 -->
<svg width="139pt" height="244pt"
 viewBox="0.00 0.00 138.59 244.00" xmlns="http://www.w3.org/2000/svg" xmlns:xlink="http://www.w3.org/1999/xlink">
<g id="graph1" class="graph" transform="scale(1 1) rotate(0) translate(4 240)">
<title>RTX::OdbcPointRecord::odbc_query_t</title>
<polygon fill="white" stroke="white" points="-4,5 -4,-240 135.591,-240 135.591,5 -4,5"/>
<!-- Node1 -->
<g id="node1" class="node"><title>Node1</title>
<polygon fill="#bfbfbf" stroke="black" points="-0.155762,-1 -0.155762,-33 120.156,-33 120.156,-1 -0.155762,-1"/>
<text text-anchor="start" x="7.84424" y="-19" font-family="Helvetica,sans-Serif" font-size="10.00">RTX::OdbcPointRecord</text>
<text text-anchor="middle" x="60" y="-7" font-family="Helvetica,sans-Serif" font-size="10.00">::odbc_query_t</text>
</g>
<!-- Node2 -->
<g id="node2" class="node"><title>Node2</title>
<a xlink:title="STL class.">
<polygon fill="white" stroke="#bfbfbf" points="30.3252,-143 30.3252,-163 89.6748,-163 89.6748,-143 30.3252,-143"/>
<text text-anchor="middle" x="60" y="-149" font-family="Helvetica,sans-Serif" font-size="10.00">std::string</text>
</a>
</g>
<!-- Node2&#45;&gt;Node1 -->
<g id="edge2" class="edge"><title>Node2&#45;&gt;Node1</title>
<path fill="none" stroke="#9a32cd" stroke-dasharray="5,2" d="M60,-132.712C60,-105.855 60,-57.7424 60,-33.241"/>
<polygon fill="#9a32cd" stroke="#9a32cd" points="56.5001,-132.79 60,-142.79 63.5001,-132.79 56.5001,-132.79"/>
<text text-anchor="middle" x="95.2954" y="-114" font-family="Helvetica,sans-Serif" font-size="10.00"> singleSelect</text>
<text text-anchor="middle" x="95.2954" y="-102" font-family="Helvetica,sans-Serif" font-size="10.00">rangeSelect</text>
<text text-anchor="middle" x="95.2954" y="-90" font-family="Helvetica,sans-Serif" font-size="10.00">connectorName</text>
<text text-anchor="middle" x="95.2954" y="-78" font-family="Helvetica,sans-Serif" font-size="10.00">lowerBound</text>
<text text-anchor="middle" x="95.2954" y="-66" font-family="Helvetica,sans-Serif" font-size="10.00">upperBound</text>
<text text-anchor="middle" x="95.2954" y="-54" font-family="Helvetica,sans-Serif" font-size="10.00">timeQuery</text>
</g>
<!-- Node3 -->
<g id="node4" class="node"><title>Node3</title>
<a xlink:title="STL class.">
<polygon fill="white" stroke="#bfbfbf" points="12.9521,-203 12.9521,-235 107.048,-235 107.048,-203 12.9521,-203"/>
<text text-anchor="start" x="20.9521" y="-221" font-family="Helvetica,sans-Serif" font-size="10.00">std::basic_string&lt;</text>
<text text-anchor="middle" x="60" y="-209" font-family="Helvetica,sans-Serif" font-size="10.00"> char &gt;</text>
</a>
</g>
<!-- Node3&#45;&gt;Node2 -->
<g id="edge4" class="edge"><title>Node3&#45;&gt;Node2</title>
<path fill="none" stroke="midnightblue" d="M60,-192.611C60,-182.286 60,-171.001 60,-163.313"/>
<polygon fill="midnightblue" stroke="midnightblue" points="56.5001,-192.833 60,-202.833 63.5001,-192.833 56.5001,-192.833"/>
</g>
</g>
</svg>
