<?xml version="1.0" encoding="UTF-8" standalone="no"?>
<!DOCTYPE svg PUBLIC "-//W3C//DTD SVG 1.1//EN"
 "http://www.w3.org/Graphics/SVG/1.1/DTD/svg11.dtd">
<!-- Generated by graphviz version 2.36.0 (20140111.2315)
 -->
<!-- Title: RTX::BufferPointRecord Pages: 1 -->
<svg width="407pt" height="252pt"
 viewBox="0.00 0.00 407.00 252.00" xmlns="http://www.w3.org/2000/svg" xmlns:xlink="http://www.w3.org/1999/xlink">
<g id="graph0" class="graph" transform="scale(1 1) rotate(0) translate(4 248)">
<title>RTX::BufferPointRecord</title>
<polygon fill="white" stroke="none" points="-4,4 -4,-248 403,-248 403,4 -4,4"/>
<!-- Node1 -->
<g id="node1" class="node"><title>Node1</title>
<polygon fill="#bfbfbf" stroke="black" points="138.543,-169 138.543,-187 261.457,-187 261.457,-169 138.543,-169"/>
<text text-anchor="middle" x="200" y="-175" font-family="Helvetica,sans-Serif" font-size="10.00">RTX::BufferPointRecord</text>
</g>
<!-- Node3 -->
<g id="node3" class="node"><title>Node3</title>
<g id="a_node3"><a xlink:href="class_r_t_x_1_1_db_point_record.html" target="_top" xlink:title="A persistence layer for databases. ">
<polygon fill="white" stroke="black" points="145.403,-113 145.403,-131 254.597,-131 254.597,-113 145.403,-113"/>
<text text-anchor="middle" x="200" y="-119" font-family="Helvetica,sans-Serif" font-size="10.00">RTX::DbPointRecord</text>
</a>
</g>
</g>
<!-- Node1&#45;&gt;Node3 -->
<g id="edge2" class="edge"><title>Node1&#45;&gt;Node3</title>
<path fill="none" stroke="midnightblue" d="M200,-158.329C200,-149.077 200,-138.38 200,-131.201"/>
<polygon fill="midnightblue" stroke="midnightblue" points="196.5,-158.562 200,-168.562 203.5,-158.563 196.5,-158.562"/>
</g>
<!-- Node2 -->
<g id="node2" class="node"><title>Node2</title>
<g id="a_node2"><a xlink:href="class_r_t_x_1_1_point_record.html" target="_top" xlink:title="A Point Record Class for storing and retrieving Points. ">
<polygon fill="white" stroke="black" points="151.795,-225 151.795,-243 248.205,-243 248.205,-225 151.795,-225"/>
<text text-anchor="middle" x="200" y="-231" font-family="Helvetica,sans-Serif" font-size="10.00">RTX::PointRecord</text>
</a>
</g>
</g>
<!-- Node2&#45;&gt;Node1 -->
<g id="edge1" class="edge"><title>Node2&#45;&gt;Node1</title>
<path fill="none" stroke="midnightblue" d="M200,-214.329C200,-205.077 200,-194.38 200,-187.201"/>
<polygon fill="midnightblue" stroke="midnightblue" points="196.5,-214.562 200,-224.562 203.5,-214.563 196.5,-214.562"/>
</g>
<!-- Node4 -->
<g id="node4" class="node"><title>Node4</title>
<g id="a_node4"><a xlink:href="class_r_t_x_1_1_mysql_point_record.html" target="_top" xlink:title="A persistence layer for MySQL databases. ">
<polygon fill="white" stroke="black" points="-0.261719,-57 -0.261719,-75 122.262,-75 122.262,-57 -0.261719,-57"/>
<text text-anchor="middle" x="61" y="-63" font-family="Helvetica,sans-Serif" font-size="10.00">RTX::MysqlPointRecord</text>
</a>
</g>
</g>
<!-- Node3&#45;&gt;Node4 -->
<g id="edge3" class="edge"><title>Node3&#45;&gt;Node4</title>
<path fill="none" stroke="midnightblue" d="M169.624,-109.199C143.082,-98.8879 105.247,-84.1896 81.952,-75.1396"/>
<polygon fill="midnightblue" stroke="midnightblue" points="168.602,-112.557 179.19,-112.916 171.136,-106.032 168.602,-112.557"/>
</g>
<!-- Node5 -->
<g id="node5" class="node"><title>Node5</title>
<g id="a_node5"><a xlink:href="class_r_t_x_1_1_odbc_point_record.html" target="_top" xlink:title="A persistence class for SCADA databases. ">
<polygon fill="white" stroke="black" points="139.844,-57 139.844,-75 260.156,-75 260.156,-57 139.844,-57"/>
<text text-anchor="middle" x="200" y="-63" font-family="Helvetica,sans-Serif" font-size="10.00">RTX::OdbcPointRecord</text>
</a>
</g>
</g>
<!-- Node3&#45;&gt;Node5 -->
<g id="edge4" class="edge"><title>Node3&#45;&gt;Node5</title>
<path fill="none" stroke="midnightblue" d="M200,-102.329C200,-93.0774 200,-82.3798 200,-75.2014"/>
<polygon fill="midnightblue" stroke="midnightblue" points="196.5,-102.562 200,-112.562 203.5,-102.563 196.5,-102.562"/>
</g>
<!-- Node8 -->
<g id="node8" class="node"><title>Node8</title>
<g id="a_node8"><a xlink:href="class_r_t_x_1_1_sqlite_point_record.html" target="_top" xlink:title="RTX::SqlitePointRecord">
<polygon fill="white" stroke="black" points="278.288,-57 278.288,-75 399.712,-75 399.712,-57 278.288,-57"/>
<text text-anchor="middle" x="339" y="-63" font-family="Helvetica,sans-Serif" font-size="10.00">RTX::SqlitePointRecord</text>
</a>
</g>
</g>
<!-- Node3&#45;&gt;Node8 -->
<g id="edge7" class="edge"><title>Node3&#45;&gt;Node8</title>
<path fill="none" stroke="midnightblue" d="M230.376,-109.199C256.918,-98.8879 294.753,-84.1896 318.048,-75.1396"/>
<polygon fill="midnightblue" stroke="midnightblue" points="228.864,-106.032 220.81,-112.916 231.398,-112.557 228.864,-106.032"/>
</g>
<!-- Node6 -->
<g id="node6" class="node"><title>Node6</title>
<g id="a_node6"><a xlink:href="class_r_t_x_1_1_odbc_direct_point_record.html" target="_top" xlink:title="RTX::OdbcDirectPointRecord">
<polygon fill="white" stroke="black" points="40.7876,-1 40.7876,-19 187.212,-19 187.212,-1 40.7876,-1"/>
<text text-anchor="middle" x="114" y="-7" font-family="Helvetica,sans-Serif" font-size="10.00">RTX::OdbcDirectPointRecord</text>
</a>
</g>
</g>
<!-- Node5&#45;&gt;Node6 -->
<g id="edge5" class="edge"><title>Node5&#45;&gt;Node6</title>
<path fill="none" stroke="midnightblue" d="M178.122,-51.2623C161.933,-41.0976 140.431,-27.5964 126.903,-19.1017"/>
<polygon fill="midnightblue" stroke="midnightblue" points="176.608,-54.445 186.938,-56.7986 180.331,-48.5167 176.608,-54.445"/>
</g>
<!-- Node7 -->
<g id="node7" class="node"><title>Node7</title>
<g id="a_node7"><a xlink:href="class_r_t_x_1_1_odbc_prepared_point_record.html" target="_top" xlink:title="RTX::OdbcPreparedPointRecord">
<polygon fill="white" stroke="black" points="205.275,-1 205.275,-19 366.725,-19 366.725,-1 205.275,-1"/>
<text text-anchor="middle" x="286" y="-7" font-family="Helvetica,sans-Serif" font-size="10.00">RTX::OdbcPreparedPointRecord</text>
</a>
</g>
</g>
<!-- Node5&#45;&gt;Node7 -->
<g id="edge6" class="edge"><title>Node5&#45;&gt;Node7</title>
<path fill="none" stroke="midnightblue" d="M221.878,-51.2623C238.067,-41.0976 259.569,-27.5964 273.097,-19.1017"/>
<polygon fill="midnightblue" stroke="midnightblue" points="219.669,-48.5167 213.062,-56.7986 223.392,-54.445 219.669,-48.5167"/>
</g>
</g>
</svg>
