<?xml version="1.0" encoding="UTF-8" standalone="no"?>
<!DOCTYPE svg PUBLIC "-//W3C//DTD SVG 1.1//EN"
 "http://www.w3.org/Graphics/SVG/1.1/DTD/svg11.dtd">
<!-- Generated by graphviz version 2.28.0 (20110509.1545)
 -->
<!-- Title: RTX::OdbcPointRecord Pages: 1 -->
<svg width="333pt" height="262pt"
 viewBox="0.00 0.00 333.00 262.00" xmlns="http://www.w3.org/2000/svg" xmlns:xlink="http://www.w3.org/1999/xlink">
<g id="graph1" class="graph" transform="scale(1 1) rotate(0) translate(4 258)">
<title>RTX::OdbcPointRecord</title>
<polygon fill="white" stroke="white" points="-4,5 -4,-258 330,-258 330,5 -4,5"/>
<!-- Node1 -->
<g id="node1" class="node"><title>Node1</title>
<polygon fill="#bfbfbf" stroke="black" points="98.8442,-59 98.8442,-79 219.156,-79 219.156,-59 98.8442,-59"/>
<text text-anchor="middle" x="159" y="-65" font-family="Helvetica,sans-Serif" font-size="10.00">RTX::OdbcPointRecord</text>
</g>
<!-- Node5 -->
<g id="node9" class="node"><title>Node5</title>
<a xlink:href="class_r_t_x_1_1_odbc_direct_point_record.html" target="_top" xlink:title="RTX::OdbcDirectPointRecord">
<polygon fill="white" stroke="black" points="-0.212402,-1 -0.212402,-21 146.212,-21 146.212,-1 -0.212402,-1"/>
<text text-anchor="middle" x="73" y="-7" font-family="Helvetica,sans-Serif" font-size="10.00">RTX::OdbcDirectPointRecord</text>
</a>
</g>
<!-- Node1&#45;&gt;Node5 -->
<g id="edge8" class="edge"><title>Node1&#45;&gt;Node5</title>
<path fill="none" stroke="midnightblue" d="M136.199,-53.1528C120.536,-42.9534 100.245,-29.7411 86.9369,-21.0752"/>
<polygon fill="midnightblue" stroke="midnightblue" points="134.509,-56.229 144.799,-58.7527 138.329,-50.363 134.509,-56.229"/>
</g>
<!-- Node6 -->
<g id="node11" class="node"><title>Node6</title>
<a xlink:href="class_r_t_x_1_1_odbc_prepared_point_record.html" target="_top" xlink:title="RTX::OdbcPreparedPointRecord">
<polygon fill="white" stroke="black" points="164.275,-1 164.275,-21 325.725,-21 325.725,-1 164.275,-1"/>
<text text-anchor="middle" x="245" y="-7" font-family="Helvetica,sans-Serif" font-size="10.00">RTX::OdbcPreparedPointRecord</text>
</a>
</g>
<!-- Node1&#45;&gt;Node6 -->
<g id="edge10" class="edge"><title>Node1&#45;&gt;Node6</title>
<path fill="none" stroke="midnightblue" d="M181.801,-53.1528C197.464,-42.9534 217.755,-29.7411 231.063,-21.0752"/>
<polygon fill="midnightblue" stroke="midnightblue" points="179.671,-50.363 173.201,-58.7527 183.491,-56.229 179.671,-50.363"/>
</g>
<!-- Node2 -->
<g id="node2" class="node"><title>Node2</title>
<a xlink:href="class_r_t_x_1_1_db_point_record.html" target="_top" xlink:title="A persistence layer for databases. ">
<polygon fill="white" stroke="black" points="104.403,-117 104.403,-137 213.597,-137 213.597,-117 104.403,-117"/>
<text text-anchor="middle" x="159" y="-123" font-family="Helvetica,sans-Serif" font-size="10.00">RTX::DbPointRecord</text>
</a>
</g>
<!-- Node2&#45;&gt;Node1 -->
<g id="edge2" class="edge"><title>Node2&#45;&gt;Node1</title>
<path fill="none" stroke="midnightblue" d="M159,-106.707C159,-97.3384 159,-86.5262 159,-79.0752"/>
<polygon fill="midnightblue" stroke="midnightblue" points="155.5,-106.753 159,-116.753 162.5,-106.753 155.5,-106.753"/>
</g>
<!-- Node3 -->
<g id="node4" class="node"><title>Node3</title>
<a xlink:href="class_r_t_x_1_1_buffer_point_record.html" target="_top" xlink:title="RTX::BufferPointRecord">
<polygon fill="white" stroke="black" points="97.543,-175 97.543,-195 220.457,-195 220.457,-175 97.543,-175"/>
<text text-anchor="middle" x="159" y="-181" font-family="Helvetica,sans-Serif" font-size="10.00">RTX::BufferPointRecord</text>
</a>
</g>
<!-- Node3&#45;&gt;Node2 -->
<g id="edge4" class="edge"><title>Node3&#45;&gt;Node2</title>
<path fill="none" stroke="midnightblue" d="M159,-164.707C159,-155.338 159,-144.526 159,-137.075"/>
<polygon fill="midnightblue" stroke="midnightblue" points="155.5,-164.753 159,-174.753 162.5,-164.753 155.5,-164.753"/>
</g>
<!-- Node4 -->
<g id="node6" class="node"><title>Node4</title>
<a xlink:href="class_r_t_x_1_1_point_record.html" target="_top" xlink:title="A Point Record Class for storing and retrieving Points. ">
<polygon fill="white" stroke="black" points="110.795,-233 110.795,-253 207.205,-253 207.205,-233 110.795,-233"/>
<text text-anchor="middle" x="159" y="-239" font-family="Helvetica,sans-Serif" font-size="10.00">RTX::PointRecord</text>
</a>
</g>
<!-- Node4&#45;&gt;Node3 -->
<g id="edge6" class="edge"><title>Node4&#45;&gt;Node3</title>
<path fill="none" stroke="midnightblue" d="M159,-222.707C159,-213.338 159,-202.526 159,-195.075"/>
<polygon fill="midnightblue" stroke="midnightblue" points="155.5,-222.753 159,-232.753 162.5,-222.753 155.5,-222.753"/>
</g>
</g>
</svg>
