<?xml version="1.0" encoding="UTF-8" standalone="no"?>
<!DOCTYPE svg PUBLIC "-//W3C//DTD SVG 1.1//EN"
 "http://www.w3.org/Graphics/SVG/1.1/DTD/svg11.dtd">
<!-- Generated by graphviz version 2.28.0 (20110509.1545)
 -->
<!-- Title: RTX::OdbcPointRecord Pages: 1 -->
<svg width="1486pt" height="519pt"
 viewBox="0.00 0.00 1486.00 519.00" xmlns="http://www.w3.org/2000/svg" xmlns:xlink="http://www.w3.org/1999/xlink">
<g id="graph1" class="graph" transform="scale(1 1) rotate(0) translate(4 515)">
<title>RTX::OdbcPointRecord</title>
<polygon fill="white" stroke="white" points="-4,5 -4,-515 1483,-515 1483,5 -4,5"/>
<!-- Node1 -->
<g id="node1" class="node"><title>Node1</title>
<polygon fill="#bfbfbf" stroke="black" points="1357.84,-204 1357.84,-224 1478.16,-224 1478.16,-204 1357.84,-204"/>
<text text-anchor="middle" x="1418" y="-210" font-family="Helvetica,sans-Serif" font-size="10.00">RTX::OdbcPointRecord</text>
</g>
<!-- Node2 -->
<g id="node2" class="node"><title>Node2</title>
<a xlink:href="class_r_t_x_1_1_db_point_record.html" target="_top" xlink:title="A persistence layer for databases. ">
<polygon fill="white" stroke="black" points="1143.4,-143 1143.4,-163 1252.6,-163 1252.6,-143 1143.4,-143"/>
<text text-anchor="middle" x="1198" y="-149" font-family="Helvetica,sans-Serif" font-size="10.00">RTX::DbPointRecord</text>
</a>
</g>
<!-- Node2&#45;&gt;Node1 -->
<g id="edge2" class="edge"><title>Node2&#45;&gt;Node1</title>
<path fill="none" stroke="midnightblue" d="M1262.61,-160.66C1287.14,-164.549 1315.21,-170.157 1340,-178 1360.96,-184.632 1383.61,-195.74 1398.88,-203.866"/>
<polygon fill="midnightblue" stroke="midnightblue" points="1263.1,-157.195 1252.69,-159.149 1262.05,-164.115 1263.1,-157.195"/>
</g>
<!-- Node3 -->
<g id="node4" class="node"><title>Node3</title>
<a xlink:href="class_r_t_x_1_1_buffer_point_record.html" target="_top" xlink:title="RTX::BufferPointRecord">
<polygon fill="white" stroke="black" points="858.543,-260 858.543,-280 981.457,-280 981.457,-260 858.543,-260"/>
<text text-anchor="middle" x="920" y="-266" font-family="Helvetica,sans-Serif" font-size="10.00">RTX::BufferPointRecord</text>
</a>
</g>
<!-- Node3&#45;&gt;Node2 -->
<g id="edge4" class="edge"><title>Node3&#45;&gt;Node2</title>
<path fill="none" stroke="midnightblue" d="M977.431,-257.526C1018.31,-247.287 1074.19,-230.759 1120,-208 1145.16,-195.5 1171.06,-175.159 1185.49,-163.03"/>
<polygon fill="midnightblue" stroke="midnightblue" points="976.518,-254.147 967.641,-259.931 978.187,-260.945 976.518,-254.147"/>
</g>
<!-- Node4 -->
<g id="node6" class="node"><title>Node4</title>
<a xlink:href="class_r_t_x_1_1_point_record.html" target="_top" xlink:title="A Point Record Class for storing and retrieving Points. ">
<polygon fill="white" stroke="black" points="605.795,-296 605.795,-316 702.205,-316 702.205,-296 605.795,-296"/>
<text text-anchor="middle" x="654" y="-302" font-family="Helvetica,sans-Serif" font-size="10.00">RTX::PointRecord</text>
</a>
</g>
<!-- Node4&#45;&gt;Node3 -->
<g id="edge6" class="edge"><title>Node4&#45;&gt;Node3</title>
<path fill="none" stroke="midnightblue" d="M712.556,-298.151C755.686,-292.27 814.569,-284.241 858.414,-278.262"/>
<polygon fill="midnightblue" stroke="midnightblue" points="711.938,-294.703 702.503,-299.522 712.884,-301.639 711.938,-294.703"/>
</g>
<!-- Node5 -->
<g id="node8" class="node"><title>Node5</title>
<polygon fill="white" stroke="#bfbfbf" points="345.452,-298 345.452,-330 454.548,-330 454.548,-298 345.452,-298"/>
<text text-anchor="start" x="353.452" y="-316" font-family="Helvetica,sans-Serif" font-size="10.00">std::map&lt; std::string,</text>
<text text-anchor="middle" x="400" y="-304" font-family="Helvetica,sans-Serif" font-size="10.00"> RTX::Point &gt;</text>
</g>
<!-- Node5&#45;&gt;Node4 -->
<g id="edge8" class="edge"><title>Node5&#45;&gt;Node4</title>
<path fill="none" stroke="#9a32cd" stroke-dasharray="5,2" d="M465.017,-311.968C508.835,-310.577 565.971,-308.763 605.699,-307.502"/>
<polygon fill="#9a32cd" stroke="#9a32cd" points="464.635,-308.478 454.751,-312.294 464.857,-315.474 464.635,-308.478"/>
<text text-anchor="middle" x="533" y="-314" font-family="Helvetica,sans-Serif" font-size="10.00"> _pointCache</text>
</g>
<!-- Node6 -->
<g id="node10" class="node"><title>Node6</title>
<a xlink:title="STL class. ">
<polygon fill="white" stroke="#bfbfbf" points="152.325,-185 152.325,-205 211.675,-205 211.675,-185 152.325,-185"/>
<text text-anchor="middle" x="182" y="-191" font-family="Helvetica,sans-Serif" font-size="10.00">std::string</text>
</a>
</g>
<!-- Node6&#45;&gt;Node2 -->
<g id="edge24" class="edge"><title>Node6&#45;&gt;Node2</title>
<path fill="none" stroke="#9a32cd" stroke-dasharray="5,2" d="M205.506,-179.124C218.133,-170.767 234.435,-160.859 250,-154 313.073,-126.207 330.075,-111 399,-111 399,-111 399,-111 921,-111 1005.58,-111 1103.09,-130.515 1156.61,-142.94"/>
<polygon fill="#9a32cd" stroke="#9a32cd" points="203.341,-176.364 197.025,-184.87 207.267,-182.159 203.341,-176.364"/>
<text text-anchor="middle" x="654" y="-113" font-family="Helvetica,sans-Serif" font-size="10.00"> errorMessage</text>
</g>
<!-- Node6&#45;&gt;Node4 -->
<g id="edge16" class="edge"><title>Node6&#45;&gt;Node4</title>
<path fill="none" stroke="#9a32cd" stroke-dasharray="5,2" d="M221.652,-205.15C253.387,-213.412 299.532,-225.257 340,-235 434.667,-257.792 545.939,-282.551 607.034,-295.972"/>
<polygon fill="#9a32cd" stroke="#9a32cd" points="222.439,-201.739 211.88,-202.601 220.672,-208.512 222.439,-201.739"/>
<text text-anchor="middle" x="400" y="-265" font-family="Helvetica,sans-Serif" font-size="10.00"> _cachedPointId</text>
</g>
<!-- Node6&#45;&gt;Node5 -->
<g id="edge10" class="edge"><title>Node6&#45;&gt;Node5</title>
<path fill="none" stroke="#9a32cd" stroke-dasharray="5,2" d="M192.948,-214.189C204.142,-233.817 224.186,-263.678 250,-280 278.481,-298.008 315.374,-306.516 345.323,-310.519"/>
<polygon fill="#9a32cd" stroke="#9a32cd" points="195.917,-212.324 188.047,-205.232 189.776,-215.684 195.917,-212.324"/>
<text text-anchor="middle" x="286" y="-309" font-family="Helvetica,sans-Serif" font-size="10.00"> keys</text>
</g>
<!-- Node9 -->
<g id="node18" class="node"><title>Node9</title>
<a xlink:href="class_r_t_x_1_1_db_point_record_1_1request__t.html" target="_top" xlink:title="RTX::DbPointRecord\l::request_t">
<polygon fill="white" stroke="black" points="478.403,-134 478.403,-166 587.597,-166 587.597,-134 478.403,-134"/>
<text text-anchor="start" x="486.403" y="-152" font-family="Helvetica,sans-Serif" font-size="10.00">RTX::DbPointRecord</text>
<text text-anchor="middle" x="533" y="-140" font-family="Helvetica,sans-Serif" font-size="10.00">::request_t</text>
</a>
</g>
<!-- Node6&#45;&gt;Node9 -->
<g id="edge22" class="edge"><title>Node6&#45;&gt;Node9</title>
<path fill="none" stroke="#9a32cd" stroke-dasharray="5,2" d="M213.306,-180.999C224.592,-176.388 237.659,-171.743 250,-169 328.077,-151.645 421.054,-148.688 478.303,-148.829"/>
<polygon fill="#9a32cd" stroke="#9a32cd" points="211.743,-177.86 203.91,-184.994 214.482,-184.302 211.743,-177.86"/>
<text text-anchor="middle" x="286" y="-171" font-family="Helvetica,sans-Serif" font-size="10.00"> id</text>
</g>
<!-- Node13 -->
<g id="node28" class="node"><title>Node13</title>
<a xlink:href="class_r_t_x_1_1_odbc_point_record_1_1_odbc_connection.html" target="_top" xlink:title="RTX::OdbcPointRecord\l::OdbcConnection">
<polygon fill="white" stroke="black" points="719.844,-178 719.844,-210 840.156,-210 840.156,-178 719.844,-178"/>
<text text-anchor="start" x="727.844" y="-196" font-family="Helvetica,sans-Serif" font-size="10.00">RTX::OdbcPointRecord</text>
<text text-anchor="middle" x="780" y="-184" font-family="Helvetica,sans-Serif" font-size="10.00">::OdbcConnection</text>
</a>
</g>
<!-- Node6&#45;&gt;Node13 -->
<g id="edge34" class="edge"><title>Node6&#45;&gt;Node13</title>
<path fill="none" stroke="#9a32cd" stroke-dasharray="5,2" d="M221.877,-194.935C323.548,-194.764 597.84,-194.304 719.498,-194.1"/>
<polygon fill="#9a32cd" stroke="#9a32cd" points="221.74,-191.435 211.746,-194.952 221.752,-198.435 221.74,-191.435"/>
<text text-anchor="middle" x="400" y="-221" font-family="Helvetica,sans-Serif" font-size="10.00"> pwd</text>
<text text-anchor="middle" x="400" y="-209" font-family="Helvetica,sans-Serif" font-size="10.00">uid</text>
<text text-anchor="middle" x="400" y="-197" font-family="Helvetica,sans-Serif" font-size="10.00">dsn</text>
</g>
<!-- Node14 -->
<g id="node31" class="node"><title>Node14</title>
<a xlink:href="class_r_t_x_1_1_odbc_point_record_1_1_odbc_query.html" target="_top" xlink:title="RTX::OdbcPointRecord\l::OdbcQuery">
<polygon fill="white" stroke="black" points="339.844,-398 339.844,-430 460.156,-430 460.156,-398 339.844,-398"/>
<text text-anchor="start" x="347.844" y="-416" font-family="Helvetica,sans-Serif" font-size="10.00">RTX::OdbcPointRecord</text>
<text text-anchor="middle" x="400" y="-404" font-family="Helvetica,sans-Serif" font-size="10.00">::OdbcQuery</text>
</a>
</g>
<!-- Node6&#45;&gt;Node14 -->
<g id="edge38" class="edge"><title>Node6&#45;&gt;Node14</title>
<path fill="none" stroke="#9a32cd" stroke-dasharray="5,2" d="M189.034,-214.865C201.079,-253.4 228.771,-336.332 250,-357 263.941,-370.572 307.46,-386.416 343.892,-397.95"/>
<polygon fill="#9a32cd" stroke="#9a32cd" points="192.364,-213.785 186.07,-205.263 185.675,-215.85 192.364,-213.785"/>
<text text-anchor="middle" x="286" y="-453" font-family="Helvetica,sans-Serif" font-size="10.00"> singleSelect</text>
<text text-anchor="middle" x="286" y="-441" font-family="Helvetica,sans-Serif" font-size="10.00">rangeSelect</text>
<text text-anchor="middle" x="286" y="-429" font-family="Helvetica,sans-Serif" font-size="10.00">connectorName</text>
<text text-anchor="middle" x="286" y="-417" font-family="Helvetica,sans-Serif" font-size="10.00">lowerBound</text>
<text text-anchor="middle" x="286" y="-405" font-family="Helvetica,sans-Serif" font-size="10.00">upperBound</text>
<text text-anchor="middle" x="286" y="-393" font-family="Helvetica,sans-Serif" font-size="10.00">timeQuery</text>
</g>
<!-- Node17 -->
<g id="node38" class="node"><title>Node17</title>
<a xlink:href="class_r_t_x_1_1_odbc_point_record_1_1_odbc_table_description.html" target="_top" xlink:title="RTX::OdbcPointRecord\l::OdbcTableDescription">
<polygon fill="white" stroke="black" points="999.844,-2 999.844,-34 1120.16,-34 1120.16,-2 999.844,-2"/>
<text text-anchor="start" x="1007.84" y="-20" font-family="Helvetica,sans-Serif" font-size="10.00">RTX::OdbcPointRecord</text>
<text text-anchor="middle" x="1060" y="-8" font-family="Helvetica,sans-Serif" font-size="10.00">::OdbcTableDescription</text>
</a>
</g>
<!-- Node6&#45;&gt;Node17 -->
<g id="edge46" class="edge"><title>Node6&#45;&gt;Node17</title>
<path fill="none" stroke="#9a32cd" stroke-dasharray="5,2" d="M192.482,-175.796C218.268,-126.62 294.782,-0 399,-0 399,-0 399,-0 781,-0 856.57,-0 943.455,-6.70552 999.69,-11.9311"/>
<polygon fill="#9a32cd" stroke="#9a32cd" points="189.319,-174.294 187.882,-184.791 195.552,-177.481 189.319,-174.294"/>
<text text-anchor="middle" x="533" y="-86" font-family="Helvetica,sans-Serif" font-size="10.00"> dataNameCol</text>
<text text-anchor="middle" x="533" y="-74" font-family="Helvetica,sans-Serif" font-size="10.00">tagUnitsCol</text>
<text text-anchor="middle" x="533" y="-62" font-family="Helvetica,sans-Serif" font-size="10.00">tagTable</text>
<text text-anchor="middle" x="533" y="-50" font-family="Helvetica,sans-Serif" font-size="10.00">dataDateCol</text>
<text text-anchor="middle" x="533" y="-38" font-family="Helvetica,sans-Serif" font-size="10.00">dataTable</text>
<text text-anchor="middle" x="533" y="-26" font-family="Helvetica,sans-Serif" font-size="10.00">dataValueCol</text>
<text text-anchor="middle" x="533" y="-14" font-family="Helvetica,sans-Serif" font-size="10.00">tagNameCol</text>
<text text-anchor="middle" x="533" y="-2" font-family="Helvetica,sans-Serif" font-size="10.00">dataQualityCol</text>
</g>
<!-- Node7 -->
<g id="node12" class="node"><title>Node7</title>
<a xlink:title="STL class. ">
<polygon fill="white" stroke="#bfbfbf" points="-0.0478516,-179 -0.0478516,-211 94.0479,-211 94.0479,-179 -0.0478516,-179"/>
<text text-anchor="start" x="7.95215" y="-197" font-family="Helvetica,sans-Serif" font-size="10.00">std::basic_string&lt;</text>
<text text-anchor="middle" x="47" y="-185" font-family="Helvetica,sans-Serif" font-size="10.00"> char &gt;</text>
</a>
</g>
<!-- Node7&#45;&gt;Node6 -->
<g id="edge12" class="edge"><title>Node7&#45;&gt;Node6</title>
<path fill="none" stroke="midnightblue" d="M104.232,-195C120.673,-195 137.971,-195 151.977,-195"/>
<polygon fill="midnightblue" stroke="midnightblue" points="104.144,-191.5 94.1437,-195 104.144,-198.5 104.144,-191.5"/>
</g>
<!-- Node8 -->
<g id="node14" class="node"><title>Node8</title>
<a xlink:href="class_r_t_x_1_1_point.html" target="_top" xlink:title="A Point Class to store data tuples (date, value, quality, confidence) ">
<polygon fill="white" stroke="black" points="149.913,-343 149.913,-363 214.087,-363 214.087,-343 149.913,-343"/>
<text text-anchor="middle" x="182" y="-349" font-family="Helvetica,sans-Serif" font-size="10.00">RTX::Point</text>
</a>
</g>
<!-- Node8&#45;&gt;Node4 -->
<g id="edge18" class="edge"><title>Node8&#45;&gt;Node4</title>
<path fill="none" stroke="#9a32cd" stroke-dasharray="5,2" d="M224.435,-354.452C298.362,-356.159 457.484,-355.823 588,-328 601.4,-325.144 615.877,-320.414 627.76,-316.07"/>
<polygon fill="#9a32cd" stroke="#9a32cd" points="224.246,-350.946 214.16,-354.188 224.067,-357.944 224.246,-350.946"/>
<text text-anchor="middle" x="400" y="-357" font-family="Helvetica,sans-Serif" font-size="10.00"> _cachedPoint</text>
</g>
<!-- Node8&#45;&gt;Node5 -->
<g id="edge14" class="edge"><title>Node8&#45;&gt;Node5</title>
<path fill="none" stroke="#9a32cd" stroke-dasharray="5,2" d="M224.58,-345.492C258.971,-339.283 308.05,-330.421 345.391,-323.679"/>
<polygon fill="#9a32cd" stroke="#9a32cd" points="223.627,-342.108 214.408,-347.329 224.871,-348.996 223.627,-342.108"/>
<text text-anchor="middle" x="286" y="-343" font-family="Helvetica,sans-Serif" font-size="10.00"> elements</text>
</g>
<!-- Node9&#45;&gt;Node2 -->
<g id="edge20" class="edge"><title>Node9&#45;&gt;Node2</title>
<path fill="none" stroke="#9a32cd" stroke-dasharray="5,2" d="M597.908,-150.289C728.134,-150.878 1022.12,-152.209 1143.27,-152.757"/>
<polygon fill="#9a32cd" stroke="#9a32cd" points="597.71,-146.788 587.694,-150.243 597.678,-153.788 597.71,-146.788"/>
<text text-anchor="middle" x="780" y="-154" font-family="Helvetica,sans-Serif" font-size="10.00"> request</text>
</g>
<!-- Node10 -->
<g id="node22" class="node"><title>Node10</title>
<a xlink:href="class_r_t_x_1_1_odbc_point_record_1_1_odbc_sql_handle.html" target="_top" xlink:title="RTX::OdbcPointRecord\l::OdbcSqlHandle">
<polygon fill="white" stroke="black" points="1137.84,-323 1137.84,-355 1258.16,-355 1258.16,-323 1137.84,-323"/>
<text text-anchor="start" x="1145.84" y="-341" font-family="Helvetica,sans-Serif" font-size="10.00">RTX::OdbcPointRecord</text>
<text text-anchor="middle" x="1198" y="-329" font-family="Helvetica,sans-Serif" font-size="10.00">::OdbcSqlHandle</text>
</a>
</g>
<!-- Node10&#45;&gt;Node1 -->
<g id="edge26" class="edge"><title>Node10&#45;&gt;Node1</title>
<path fill="none" stroke="#9a32cd" stroke-dasharray="5,2" d="M1260.2,-319.42C1285.82,-309.936 1315.31,-297.268 1340,-282 1367,-265.304 1393.68,-238.951 1407.43,-224.442"/>
<polygon fill="#9a32cd" stroke="#9a32cd" points="1258.8,-316.204 1250.59,-322.898 1261.19,-322.786 1258.8,-316.204"/>
<text text-anchor="middle" x="1308" y="-316" font-family="Helvetica,sans-Serif" font-size="10.00"> _handles</text>
</g>
<!-- Node11 -->
<g id="node24" class="node"><title>Node11</title>
<a xlink:href="struct_r_t_x_1_1_odbc_point_record_1_1_scada_query.html" target="_top" xlink:title="RTX::OdbcPointRecord\l::ScadaQuery">
<polygon fill="white" stroke="black" points="1137.84,-272 1137.84,-304 1258.16,-304 1258.16,-272 1137.84,-272"/>
<text text-anchor="start" x="1145.84" y="-290" font-family="Helvetica,sans-Serif" font-size="10.00">RTX::OdbcPointRecord</text>
<text text-anchor="middle" x="1198" y="-278" font-family="Helvetica,sans-Serif" font-size="10.00">::ScadaQuery</text>
</a>
</g>
<!-- Node11&#45;&gt;Node1 -->
<g id="edge28" class="edge"><title>Node11&#45;&gt;Node1</title>
<path fill="none" stroke="#9a32cd" stroke-dasharray="5,2" d="M1265.24,-269.09C1288.97,-261.977 1315.82,-253.536 1340,-245 1358.21,-238.572 1378.45,-230.379 1393.61,-224.031"/>
<polygon fill="#9a32cd" stroke="#9a32cd" points="1264.21,-265.745 1255.63,-271.952 1266.21,-272.454 1264.21,-265.745"/>
<text text-anchor="middle" x="1308" y="-268" font-family="Helvetica,sans-Serif" font-size="10.00"> _query</text>
</g>
<!-- Node12 -->
<g id="node26" class="node"><title>Node12</title>
<a xlink:href="class_r_t_x_1_1_odbc_point_record_1_1_scada_record.html" target="_top" xlink:title="RTX::OdbcPointRecord\l::ScadaRecord">
<polygon fill="white" stroke="black" points="1137.84,-221 1137.84,-253 1258.16,-253 1258.16,-221 1137.84,-221"/>
<text text-anchor="start" x="1145.84" y="-239" font-family="Helvetica,sans-Serif" font-size="10.00">RTX::OdbcPointRecord</text>
<text text-anchor="middle" x="1198" y="-227" font-family="Helvetica,sans-Serif" font-size="10.00">::ScadaRecord</text>
</a>
</g>
<!-- Node12&#45;&gt;Node1 -->
<g id="edge30" class="edge"><title>Node12&#45;&gt;Node1</title>
<path fill="none" stroke="#9a32cd" stroke-dasharray="5,2" d="M1268.27,-229.692C1297.04,-226.656 1330.1,-223.168 1357.73,-220.253"/>
<polygon fill="#9a32cd" stroke="#9a32cd" points="1267.86,-226.216 1258.28,-230.746 1268.59,-233.177 1267.86,-226.216"/>
<text text-anchor="middle" x="1308" y="-231" font-family="Helvetica,sans-Serif" font-size="10.00"> _tempRecord</text>
</g>
<!-- Node13&#45;&gt;Node1 -->
<g id="edge32" class="edge"><title>Node13&#45;&gt;Node1</title>
<path fill="none" stroke="#9a32cd" stroke-dasharray="5,2" d="M850.542,-196.187C976.374,-200.144 1239.71,-208.425 1357.66,-212.134"/>
<polygon fill="#9a32cd" stroke="#9a32cd" points="850.367,-192.68 840.262,-195.864 850.147,-199.676 850.367,-192.68"/>
<text text-anchor="middle" x="1060" y="-207" font-family="Helvetica,sans-Serif" font-size="10.00"> connection</text>
</g>
<!-- Node14&#45;&gt;Node1 -->
<g id="edge36" class="edge"><title>Node14&#45;&gt;Node1</title>
<path fill="none" stroke="#9a32cd" stroke-dasharray="5,2" d="M470.454,-409.337C521.045,-406.339 591.239,-403 653,-403 653,-403 653,-403 1199,-403 1269.57,-403 1287.47,-377.125 1340,-330 1375.62,-298.039 1402.2,-246.126 1412.42,-224.243"/>
<polygon fill="#9a32cd" stroke="#9a32cd" points="470.057,-405.855 460.286,-409.951 470.479,-412.842 470.057,-405.855"/>
<text text-anchor="middle" x="920" y="-405" font-family="Helvetica,sans-Serif" font-size="10.00"> _querySyntax</text>
</g>
<!-- Node15 -->
<g id="node34" class="node"><title>Node15</title>
<polygon fill="white" stroke="#bfbfbf" points="132.545,-479 132.545,-511 231.455,-511 231.455,-479 132.545,-479"/>
<text text-anchor="start" x="140.545" y="-497" font-family="Helvetica,sans-Serif" font-size="10.00">std::map&lt; int, RTX</text>
<text text-anchor="middle" x="182" y="-485" font-family="Helvetica,sans-Serif" font-size="10.00">::Point::Qual_t &gt;</text>
</g>
<!-- Node15&#45;&gt;Node14 -->
<g id="edge40" class="edge"><title>Node15&#45;&gt;Node14</title>
<path fill="none" stroke="#9a32cd" stroke-dasharray="5,2" d="M241.853,-492.163C267.306,-489.314 296.939,-483.755 322,-473 345.679,-462.838 368.558,-443.748 383.135,-430.032"/>
<polygon fill="#9a32cd" stroke="#9a32cd" points="241.194,-488.712 231.593,-493.193 241.893,-495.677 241.194,-488.712"/>
<text text-anchor="middle" x="286" y="-492" font-family="Helvetica,sans-Serif" font-size="10.00"> qualityMap</text>
</g>
<!-- Node16 -->
<g id="node36" class="node"><title>Node16</title>
<polygon fill="white" stroke="#bfbfbf" points="1176.38,-104 1176.38,-124 1219.62,-124 1219.62,-104 1176.38,-104"/>
<text text-anchor="middle" x="1198" y="-110" font-family="Helvetica,sans-Serif" font-size="10.00">mutex</text>
</g>
<!-- Node16&#45;&gt;Node1 -->
<g id="edge42" class="edge"><title>Node16&#45;&gt;Node1</title>
<path fill="none" stroke="#9a32cd" stroke-dasharray="5,2" d="M1229.8,-117.198C1259.38,-121.222 1304.66,-129.93 1340,-148 1368.22,-162.427 1394.82,-189.195 1408.13,-203.818"/>
<polygon fill="#9a32cd" stroke="#9a32cd" points="1230.02,-113.698 1219.66,-115.919 1229.14,-120.643 1230.02,-113.698"/>
<text text-anchor="middle" x="1308" y="-150" font-family="Helvetica,sans-Serif" font-size="10.00"> _odbcMutex</text>
</g>
<!-- Node17&#45;&gt;Node1 -->
<g id="edge44" class="edge"><title>Node17&#45;&gt;Node1</title>
<path fill="none" stroke="#9a32cd" stroke-dasharray="5,2" d="M1130.2,-31.3634C1190.51,-45.7278 1277.81,-73.3466 1340,-122 1371.33,-146.513 1398.77,-185.66 1410.69,-203.96"/>
<polygon fill="#9a32cd" stroke="#9a32cd" points="1130.92,-27.9376 1120.39,-29.0863 1129.34,-34.7564 1130.92,-27.9376"/>
<text text-anchor="middle" x="1198" y="-75" font-family="Helvetica,sans-Serif" font-size="10.00"> tableDescription</text>
</g>
</g>
</svg>
