<?xml version="1.0" encoding="UTF-8" standalone="no"?>
<!DOCTYPE svg PUBLIC "-//W3C//DTD SVG 1.1//EN"
 "http://www.w3.org/Graphics/SVG/1.1/DTD/svg11.dtd">
<!-- Generated by graphviz version 2.28.0 (20110509.1545)
 -->
<!-- Title: RTX::ModularTimeSeries Pages: 1 -->
<svg width="796pt" height="485pt"
 viewBox="0.00 0.00 796.00 485.00" xmlns="http://www.w3.org/2000/svg" xmlns:xlink="http://www.w3.org/1999/xlink">
<g id="graph1" class="graph" transform="scale(1 1) rotate(0) translate(4 481)">
<title>RTX::ModularTimeSeries</title>
<polygon fill="white" stroke="white" points="-4,5 -4,-481 793,-481 793,5 -4,5"/>
<!-- Node1 -->
<g id="node1" class="node"><title>Node1</title>
<polygon fill="#bfbfbf" stroke="black" points="294.146,-267 294.146,-287 421.854,-287 421.854,-267 294.146,-267"/>
<text text-anchor="middle" x="358" y="-273" font-family="Helvetica,sans-Serif" font-size="10.00">RTX::ModularTimeSeries</text>
</g>
<!-- Node4 -->
<g id="node7" class="node"><title>Node4</title>
<a xlink:href="class_r_t_x_1_1_base_stats_time_series.html" target="_top" xlink:title="RTX::BaseStatsTimeSeries">
<polygon fill="white" stroke="black" points="464.419,-423 464.419,-443 601.581,-443 601.581,-423 464.419,-423"/>
<text text-anchor="middle" x="533" y="-429" font-family="Helvetica,sans-Serif" font-size="10.00">RTX::BaseStatsTimeSeries</text>
</a>
</g>
<!-- Node1&#45;&gt;Node4 -->
<g id="edge6" class="edge"><title>Node1&#45;&gt;Node4</title>
<path fill="none" stroke="midnightblue" d="M367.73,-296.294C382.171,-325.99 413.883,-382.639 458,-413 463.92,-417.074 470.635,-420.319 477.546,-422.904"/>
<polygon fill="midnightblue" stroke="midnightblue" points="370.779,-294.554 363.35,-287.001 364.447,-297.539 370.779,-294.554"/>
</g>
<!-- Node7 -->
<g id="node13" class="node"><title>Node7</title>
<a xlink:href="class_r_t_x_1_1_curve_function.html" target="_top" xlink:title="A Curve Function Class to perform arbitrary mapping of values. ">
<polygon fill="white" stroke="black" points="479.795,-384 479.795,-404 586.205,-404 586.205,-384 479.795,-384"/>
<text text-anchor="middle" x="533" y="-390" font-family="Helvetica,sans-Serif" font-size="10.00">RTX::CurveFunction</text>
</a>
</g>
<!-- Node1&#45;&gt;Node7 -->
<g id="edge12" class="edge"><title>Node1&#45;&gt;Node7</title>
<path fill="none" stroke="midnightblue" d="M372.833,-295.413C390.295,-317.363 422.386,-353.629 458,-374 465.047,-378.031 472.937,-381.276 480.868,-383.882"/>
<polygon fill="midnightblue" stroke="midnightblue" points="375.377,-292.983 366.478,-287.234 369.85,-297.278 375.377,-292.983"/>
</g>
<!-- Node8 -->
<g id="node15" class="node"><title>Node8</title>
<a xlink:href="class_r_t_x_1_1_failover_time_series.html" target="_top" xlink:title="RTX::FailoverTimeSeries">
<polygon fill="white" stroke="black" points="469.426,-345 469.426,-365 596.574,-365 596.574,-345 469.426,-345"/>
<text text-anchor="middle" x="533" y="-351" font-family="Helvetica,sans-Serif" font-size="10.00">RTX::FailoverTimeSeries</text>
</a>
</g>
<!-- Node1&#45;&gt;Node8 -->
<g id="edge14" class="edge"><title>Node1&#45;&gt;Node8</title>
<path fill="none" stroke="midnightblue" d="M381.945,-292.823C401.445,-305.677 430.563,-323.498 458,-335 467.205,-338.859 477.368,-342.173 487.137,-344.931"/>
<polygon fill="midnightblue" stroke="midnightblue" points="383.706,-289.79 373.449,-287.136 379.812,-295.607 383.706,-289.79"/>
</g>
<!-- Node9 -->
<g id="node17" class="node"><title>Node9</title>
<a xlink:href="class_r_t_x_1_1_forecast_time_series.html" target="_top" xlink:title="An arima &#45; based time series predictor/forecaster. ">
<polygon fill="white" stroke="black" points="467.759,-306 467.759,-326 598.241,-326 598.241,-306 467.759,-306"/>
<text text-anchor="middle" x="533" y="-312" font-family="Helvetica,sans-Serif" font-size="10.00">RTX::ForecastTimeSeries</text>
</a>
</g>
<!-- Node1&#45;&gt;Node9 -->
<g id="edge16" class="edge"><title>Node1&#45;&gt;Node9</title>
<path fill="none" stroke="midnightblue" d="M413.521,-289.291C437.382,-294.67 465.021,-300.901 487.599,-305.991"/>
<polygon fill="midnightblue" stroke="midnightblue" points="414.077,-285.828 403.552,-287.043 412.537,-292.657 414.077,-285.828"/>
</g>
<!-- Node10 -->
<g id="node19" class="node"><title>Node10</title>
<a xlink:href="class_r_t_x_1_1_resampler.html" target="_top" xlink:title="RTX::Resampler">
<polygon fill="white" stroke="black" points="488.135,-267 488.135,-287 577.865,-287 577.865,-267 488.135,-267"/>
<text text-anchor="middle" x="533" y="-273" font-family="Helvetica,sans-Serif" font-size="10.00">RTX::Resampler</text>
</a>
</g>
<!-- Node1&#45;&gt;Node10 -->
<g id="edge18" class="edge"><title>Node1&#45;&gt;Node10</title>
<path fill="none" stroke="midnightblue" d="M432.1,-277C451.131,-277 471.05,-277 488.049,-277"/>
<polygon fill="midnightblue" stroke="midnightblue" points="431.946,-273.5 421.946,-277 431.946,-280.5 431.946,-273.5"/>
</g>
<!-- Node14 -->
<g id="node27" class="node"><title>Node14</title>
<a xlink:href="class_r_t_x_1_1_run_time_status_modular_time_series.html" target="_top" xlink:title="RTX::RunTimeStatusModular\lTimeSeries">
<polygon fill="white" stroke="black" points="459.971,-216 459.971,-248 606.029,-248 606.029,-216 459.971,-216"/>
<text text-anchor="start" x="467.971" y="-234" font-family="Helvetica,sans-Serif" font-size="10.00">RTX::RunTimeStatusModular</text>
<text text-anchor="middle" x="533" y="-222" font-family="Helvetica,sans-Serif" font-size="10.00">TimeSeries</text>
</a>
</g>
<!-- Node1&#45;&gt;Node14 -->
<g id="edge26" class="edge"><title>Node1&#45;&gt;Node14</title>
<path fill="none" stroke="midnightblue" d="M407.662,-264.342C427.079,-259.292 449.664,-253.417 470.217,-248.071"/>
<polygon fill="midnightblue" stroke="midnightblue" points="406.621,-260.996 397.825,-266.901 408.384,-267.771 406.621,-260.996"/>
</g>
<!-- Node15 -->
<g id="node29" class="node"><title>Node15</title>
<a xlink:href="class_r_t_x_1_1_single_point_filter_modular_time_series.html" target="_top" xlink:title="RTX::SinglePointFilterModular\lTimeSeries">
<polygon fill="white" stroke="black" points="457.839,-155 457.839,-187 608.161,-187 608.161,-155 457.839,-155"/>
<text text-anchor="start" x="465.839" y="-173" font-family="Helvetica,sans-Serif" font-size="10.00">RTX::SinglePointFilterModular</text>
<text text-anchor="middle" x="533" y="-161" font-family="Helvetica,sans-Serif" font-size="10.00">TimeSeries</text>
</a>
</g>
<!-- Node1&#45;&gt;Node15 -->
<g id="edge28" class="edge"><title>Node1&#45;&gt;Node15</title>
<path fill="none" stroke="midnightblue" d="M379.528,-260.602C399.052,-245.419 429.578,-222.728 458,-206 469.513,-199.224 482.548,-192.705 494.436,-187.168"/>
<polygon fill="midnightblue" stroke="midnightblue" points="377.33,-257.878 371.626,-266.806 381.653,-263.384 377.33,-257.878"/>
</g>
<!-- Node23 -->
<g id="node45" class="node"><title>Node23</title>
<a xlink:href="class_r_t_x_1_1_time_gap_time_series.html" target="_top" xlink:title="A Class to map the input time series into a series whos values are the time gaps between successive p...">
<polygon fill="white" stroke="black" points="466.831,-116 466.831,-136 599.169,-136 599.169,-116 466.831,-116"/>
<text text-anchor="middle" x="533" y="-122" font-family="Helvetica,sans-Serif" font-size="10.00">RTX::TimeGapTimeSeries</text>
</a>
</g>
<!-- Node1&#45;&gt;Node23 -->
<g id="edge44" class="edge"><title>Node1&#45;&gt;Node23</title>
<path fill="none" stroke="midnightblue" d="M368.052,-257.783C382.737,-228.759 414.543,-174.053 458,-145 463.403,-141.388 469.449,-138.462 475.693,-136.093"/>
<polygon fill="midnightblue" stroke="midnightblue" points="364.845,-256.375 363.581,-266.894 371.129,-259.458 364.845,-256.375"/>
</g>
<!-- Node24 -->
<g id="node47" class="node"><title>Node24</title>
<a xlink:href="class_r_t_x_1_1_warping_time_series.html" target="_top" xlink:title="RTX::WarpingTimeSeries">
<polygon fill="white" stroke="black" points="468.774,-77 468.774,-97 597.226,-97 597.226,-77 468.774,-77"/>
<text text-anchor="middle" x="533" y="-83" font-family="Helvetica,sans-Serif" font-size="10.00">RTX::WarpingTimeSeries</text>
</a>
</g>
<!-- Node1&#45;&gt;Node24 -->
<g id="edge46" class="edge"><title>Node1&#45;&gt;Node24</title>
<path fill="none" stroke="midnightblue" d="M364.933,-256.792C376.589,-220.744 405.975,-145.44 458,-106 462.756,-102.394 468.127,-99.4689 473.749,-97.0964"/>
<polygon fill="midnightblue" stroke="midnightblue" points="361.5,-256.048 361.88,-266.636 368.186,-258.122 361.5,-256.048"/>
</g>
<!-- Node2 -->
<g id="node2" class="node"><title>Node2</title>
<a xlink:href="class_r_t_x_1_1_time_series.html" target="_top" xlink:title="An abstraction of Points ordered in time. ">
<polygon fill="white" stroke="black" points="166.209,-267 166.209,-287 257.791,-287 257.791,-267 166.209,-267"/>
<text text-anchor="middle" x="212" y="-273" font-family="Helvetica,sans-Serif" font-size="10.00">RTX::TimeSeries</text>
</a>
</g>
<!-- Node2&#45;&gt;Node1 -->
<g id="edge2" class="edge"><title>Node2&#45;&gt;Node1</title>
<path fill="none" stroke="midnightblue" d="M268.266,-277C276.705,-277 285.468,-277 294.057,-277"/>
<polygon fill="midnightblue" stroke="midnightblue" points="268.167,-273.5 258.167,-277 268.167,-280.5 268.167,-273.5"/>
</g>
<!-- Node3 -->
<g id="node4" class="node"><title>Node3</title>
<polygon fill="white" stroke="#bfbfbf" points="0.0273438,-261 0.0273438,-293 129.973,-293 129.973,-261 0.0273438,-261"/>
<text text-anchor="start" x="8.02734" y="-279" font-family="Helvetica,sans-Serif" font-size="10.00">boost::enable_shared</text>
<text text-anchor="middle" x="65" y="-267" font-family="Helvetica,sans-Serif" font-size="10.00">_from_this&lt; TimeSeries &gt;</text>
</g>
<!-- Node3&#45;&gt;Node2 -->
<g id="edge4" class="edge"><title>Node3&#45;&gt;Node2</title>
<path fill="none" stroke="midnightblue" d="M140.022,-277C148.894,-277 157.736,-277 166.015,-277"/>
<polygon fill="midnightblue" stroke="midnightblue" points="140.021,-273.5 130.021,-277 140.021,-280.5 140.021,-273.5"/>
</g>
<!-- Node5 -->
<g id="node9" class="node"><title>Node5</title>
<a xlink:href="class_r_t_x_1_1_outlier_exclusion_time_series.html" target="_top" xlink:title="RTX::OutlierExclusionTime\lSeries">
<polygon fill="white" stroke="black" points="648.256,-445 648.256,-477 783.744,-477 783.744,-445 648.256,-445"/>
<text text-anchor="start" x="656.256" y="-463" font-family="Helvetica,sans-Serif" font-size="10.00">RTX::OutlierExclusionTime</text>
<text text-anchor="middle" x="716" y="-451" font-family="Helvetica,sans-Serif" font-size="10.00">Series</text>
</a>
</g>
<!-- Node4&#45;&gt;Node5 -->
<g id="edge8" class="edge"><title>Node4&#45;&gt;Node5</title>
<path fill="none" stroke="midnightblue" d="M608.727,-444.56C621.803,-446.583 635.333,-448.676 648.179,-450.663"/>
<polygon fill="midnightblue" stroke="midnightblue" points="609.251,-441.1 598.834,-443.03 608.181,-448.017 609.251,-441.1"/>
</g>
<!-- Node6 -->
<g id="node11" class="node"><title>Node6</title>
<a xlink:href="class_r_t_x_1_1_stats_time_series.html" target="_top" xlink:title="A modular timeseries class for delivering statistical information. ">
<polygon fill="white" stroke="black" points="658.815,-406 658.815,-426 773.185,-426 773.185,-406 658.815,-406"/>
<text text-anchor="middle" x="716" y="-412" font-family="Helvetica,sans-Serif" font-size="10.00">RTX::StatsTimeSeries</text>
</a>
</g>
<!-- Node4&#45;&gt;Node6 -->
<g id="edge10" class="edge"><title>Node4&#45;&gt;Node6</title>
<path fill="none" stroke="midnightblue" d="M611.893,-425.684C627.616,-424.207 643.857,-422.682 658.667,-421.291"/>
<polygon fill="midnightblue" stroke="midnightblue" points="611.284,-422.226 601.655,-426.646 611.939,-429.195 611.284,-422.226"/>
</g>
<!-- Node11 -->
<g id="node21" class="node"><title>Node11</title>
<a xlink:href="class_r_t_x_1_1_aggregator_time_series.html" target="_top" xlink:title="Aggregates (and optionally scales) arbitrary many input time series. ">
<polygon fill="white" stroke="black" points="645.471,-351 645.471,-371 786.529,-371 786.529,-351 645.471,-351"/>
<text text-anchor="middle" x="716" y="-357" font-family="Helvetica,sans-Serif" font-size="10.00">RTX::AggregatorTimeSeries</text>
</a>
</g>
<!-- Node10&#45;&gt;Node11 -->
<g id="edge20" class="edge"><title>Node10&#45;&gt;Node11</title>
<path fill="none" stroke="midnightblue" d="M587.857,-287.271C594.936,-289.831 601.856,-293.022 608,-297 629.211,-310.731 622.863,-327.157 644,-341 650.214,-345.069 657.256,-348.321 664.433,-350.918"/>
<polygon fill="midnightblue" stroke="midnightblue" points="588.755,-283.883 578.164,-284.157 586.615,-290.548 588.755,-283.883"/>
</g>
<!-- Node12 -->
<g id="node23" class="node"><title>Node12</title>
<a xlink:href="class_r_t_x_1_1_first_derivative.html" target="_top" xlink:title="RTX::FirstDerivative">
<polygon fill="white" stroke="black" points="663.361,-312 663.361,-332 768.639,-332 768.639,-312 663.361,-312"/>
<text text-anchor="middle" x="716" y="-318" font-family="Helvetica,sans-Serif" font-size="10.00">RTX::FirstDerivative</text>
</a>
</g>
<!-- Node10&#45;&gt;Node12 -->
<g id="edge22" class="edge"><title>Node10&#45;&gt;Node12</title>
<path fill="none" stroke="midnightblue" d="M584.377,-289.525C612.815,-296.595 647.879,-305.312 674.516,-311.935"/>
<polygon fill="midnightblue" stroke="midnightblue" points="585.169,-286.115 574.62,-287.099 583.48,-292.908 585.169,-286.115"/>
</g>
<!-- Node13 -->
<g id="node25" class="node"><title>Node13</title>
<a xlink:href="class_r_t_x_1_1_moving_average.html" target="_top" xlink:title="RTX::MovingAverage">
<polygon fill="white" stroke="black" points="660.656,-273 660.656,-293 771.344,-293 771.344,-273 660.656,-273"/>
<text text-anchor="middle" x="716" y="-279" font-family="Helvetica,sans-Serif" font-size="10.00">RTX::MovingAverage</text>
</a>
</g>
<!-- Node10&#45;&gt;Node13 -->
<g id="edge24" class="edge"><title>Node10&#45;&gt;Node13</title>
<path fill="none" stroke="midnightblue" d="M588.469,-278.806C611.267,-279.561 637.709,-280.438 660.509,-281.194"/>
<polygon fill="midnightblue" stroke="midnightblue" points="588.388,-275.301 578.278,-278.468 588.156,-282.297 588.388,-275.301"/>
</g>
<!-- Node16 -->
<g id="node31" class="node"><title>Node16</title>
<a xlink:href="class_r_t_x_1_1_gain_time_series.html" target="_top" xlink:title="RTX::GainTimeSeries">
<polygon fill="white" stroke="black" points="659.648,-234 659.648,-254 772.352,-254 772.352,-234 659.648,-234"/>
<text text-anchor="middle" x="716" y="-240" font-family="Helvetica,sans-Serif" font-size="10.00">RTX::GainTimeSeries</text>
</a>
</g>
<!-- Node15&#45;&gt;Node16 -->
<g id="edge30" class="edge"><title>Node15&#45;&gt;Node16</title>
<path fill="none" stroke="midnightblue" d="M577.381,-191.324C587.453,-196.097 598.117,-201.193 608,-206 624.086,-213.825 627.316,-217.546 644,-224 653.674,-227.742 664.335,-231.119 674.388,-233.986"/>
<polygon fill="midnightblue" stroke="midnightblue" points="578.874,-188.159 568.338,-187.05 575.883,-194.487 578.874,-188.159"/>
</g>
<!-- Node17 -->
<g id="node33" class="node"><title>Node17</title>
<a xlink:href="class_r_t_x_1_1_inversion_time_series.html" target="_top" xlink:title="RTX::InversionTimeSeries">
<polygon fill="white" stroke="black" points="649.921,-195 649.921,-215 782.079,-215 782.079,-195 649.921,-195"/>
<text text-anchor="middle" x="716" y="-201" font-family="Helvetica,sans-Serif" font-size="10.00">RTX::InversionTimeSeries</text>
</a>
</g>
<!-- Node15&#45;&gt;Node17 -->
<g id="edge32" class="edge"><title>Node15&#45;&gt;Node17</title>
<path fill="none" stroke="midnightblue" d="M618.512,-186.875C633.19,-189.632 648.078,-192.429 661.625,-194.974"/>
<polygon fill="midnightblue" stroke="midnightblue" points="618.877,-183.383 608.403,-184.976 617.585,-190.262 618.877,-183.383"/>
</g>
<!-- Node18 -->
<g id="node35" class="node"><title>Node18</title>
<a xlink:href="class_r_t_x_1_1_multiplier_time_series.html" target="_top" xlink:title="RTX::MultiplierTimeSeries">
<polygon fill="white" stroke="black" points="650.205,-156 650.205,-176 781.795,-176 781.795,-156 650.205,-156"/>
<text text-anchor="middle" x="716" y="-162" font-family="Helvetica,sans-Serif" font-size="10.00">RTX::MultiplierTimeSeries</text>
</a>
</g>
<!-- Node15&#45;&gt;Node18 -->
<g id="edge34" class="edge"><title>Node15&#45;&gt;Node18</title>
<path fill="none" stroke="midnightblue" d="M618.535,-168.665C629.158,-168.371 639.891,-168.075 650.145,-167.792"/>
<polygon fill="midnightblue" stroke="midnightblue" points="618.303,-165.17 608.403,-168.945 618.496,-172.167 618.303,-165.17"/>
</g>
<!-- Node19 -->
<g id="node37" class="node"><title>Node19</title>
<a xlink:href="class_r_t_x_1_1_offset_time_series.html" target="_top" xlink:title="RTX::OffsetTimeSeries">
<polygon fill="white" stroke="black" points="656.96,-117 656.96,-137 775.04,-137 775.04,-117 656.96,-117"/>
<text text-anchor="middle" x="716" y="-123" font-family="Helvetica,sans-Serif" font-size="10.00">RTX::OffsetTimeSeries</text>
</a>
</g>
<!-- Node15&#45;&gt;Node19 -->
<g id="edge36" class="edge"><title>Node15&#45;&gt;Node19</title>
<path fill="none" stroke="midnightblue" d="M609.805,-152.572C631.677,-147.255 654.726,-141.652 673.656,-137.051"/>
<polygon fill="midnightblue" stroke="midnightblue" points="608.747,-149.227 599.857,-154.991 610.401,-156.029 608.747,-149.227"/>
</g>
<!-- Node20 -->
<g id="node39" class="node"><title>Node20</title>
<a xlink:href="class_r_t_x_1_1_threshold_time_series.html" target="_top" xlink:title="A Status Class to map the input time series into binary status based on a threshold. ">
<polygon fill="white" stroke="black" points="647.976,-78 647.976,-98 784.024,-98 784.024,-78 647.976,-78"/>
<text text-anchor="middle" x="716" y="-84" font-family="Helvetica,sans-Serif" font-size="10.00">RTX::ThresholdTimeSeries</text>
</a>
</g>
<!-- Node15&#45;&gt;Node20 -->
<g id="edge38" class="edge"><title>Node15&#45;&gt;Node20</title>
<path fill="none" stroke="midnightblue" d="M598.263,-150.626C601.635,-148.88 604.904,-147.007 608,-145 627.521,-132.345 624.009,-118.9 644,-107 650.03,-103.41 656.747,-100.486 663.576,-98.1067"/>
<polygon fill="midnightblue" stroke="midnightblue" points="596.682,-147.502 589.149,-154.952 599.684,-153.826 596.682,-147.502"/>
</g>
<!-- Node21 -->
<g id="node41" class="node"><title>Node21</title>
<a xlink:href="class_r_t_x_1_1_time_offset_time_series.html" target="_top" xlink:title="RTX::TimeOffsetTimeSeries">
<polygon fill="white" stroke="black" points="646.032,-39 646.032,-59 785.968,-59 785.968,-39 646.032,-39"/>
<text text-anchor="middle" x="716" y="-45" font-family="Helvetica,sans-Serif" font-size="10.00">RTX::TimeOffsetTimeSeries</text>
</a>
</g>
<!-- Node15&#45;&gt;Node21 -->
<g id="edge40" class="edge"><title>Node15&#45;&gt;Node21</title>
<path fill="none" stroke="midnightblue" d="M602.556,-149.406C604.456,-148.026 606.277,-146.559 608,-145 636.008,-119.648 615.044,-92.2639 644,-68 648.303,-64.394 653.225,-61.4662 658.425,-59.0901"/>
<polygon fill="midnightblue" stroke="midnightblue" points="600.393,-146.631 593.789,-154.916 604.118,-152.558 600.393,-146.631"/>
</g>
<!-- Node22 -->
<g id="node43" class="node"><title>Node22</title>
<a xlink:href="class_r_t_x_1_1_valid_range_time_series.html" target="_top" xlink:title="RTX::ValidRangeTimeSeries">
<polygon fill="white" stroke="black" points="644.726,-0 644.726,-20 787.274,-20 787.274,-0 644.726,-0"/>
<text text-anchor="middle" x="716" y="-6" font-family="Helvetica,sans-Serif" font-size="10.00">RTX::ValidRangeTimeSeries</text>
</a>
</g>
<!-- Node15&#45;&gt;Node22 -->
<g id="edge42" class="edge"><title>Node15&#45;&gt;Node22</title>
<path fill="none" stroke="midnightblue" d="M603.617,-149.069C605.152,-147.789 606.618,-146.434 608,-145 645.459,-106.131 605.084,-66.4104 644,-29 647.772,-25.3743 652.156,-22.4227 656.861,-20.0221"/>
<polygon fill="midnightblue" stroke="midnightblue" points="601.565,-146.234 595.427,-154.869 605.611,-151.946 601.565,-146.234"/>
</g>
</g>
</svg>
