<?xml version="1.0" encoding="UTF-8" standalone="no"?>
<!DOCTYPE svg PUBLIC "-//W3C//DTD SVG 1.1//EN"
 "http://www.w3.org/Graphics/SVG/1.1/DTD/svg11.dtd">
<!-- Generated by graphviz version 2.28.0 (20110509.1545)
 -->
<!-- Title: RTX::MultiplierTimeSeries Pages: 1 -->
<svg width="158pt" height="286pt"
 viewBox="0.00 0.00 158.00 286.00" xmlns="http://www.w3.org/2000/svg" xmlns:xlink="http://www.w3.org/1999/xlink">
<g id="graph1" class="graph" transform="scale(1 1) rotate(0) translate(4 282)">
<title>RTX::MultiplierTimeSeries</title>
<polygon fill="white" stroke="white" points="-4,5 -4,-282 155,-282 155,5 -4,5"/>
<!-- Node1 -->
<g id="node1" class="node"><title>Node1</title>
<polygon fill="#bfbfbf" stroke="black" points="9.20459,-1 9.20459,-21 140.795,-21 140.795,-1 9.20459,-1"/>
<text text-anchor="middle" x="75" y="-7" font-family="Helvetica,sans-Serif" font-size="10.00">RTX::MultiplierTimeSeries</text>
</g>
<!-- Node2 -->
<g id="node2" class="node"><title>Node2</title>
<a xlink:href="class_r_t_x_1_1_single_point_filter_modular_time_series.html" target="_top" xlink:title="RTX::SinglePointFilterModular\lTimeSeries">
<polygon fill="white" stroke="black" points="-0.160645,-59 -0.160645,-91 150.161,-91 150.161,-59 -0.160645,-59"/>
<text text-anchor="start" x="7.83936" y="-77" font-family="Helvetica,sans-Serif" font-size="10.00">RTX::SinglePointFilterModular</text>
<text text-anchor="middle" x="75" y="-65" font-family="Helvetica,sans-Serif" font-size="10.00">TimeSeries</text>
</a>
</g>
<!-- Node2&#45;&gt;Node1 -->
<g id="edge2" class="edge"><title>Node2&#45;&gt;Node1</title>
<path fill="none" stroke="midnightblue" d="M75,-48.922C75,-39.1719 75,-28.6099 75,-21.2904"/>
<polygon fill="midnightblue" stroke="midnightblue" points="71.5001,-48.9915 75,-58.9915 78.5001,-48.9916 71.5001,-48.9915"/>
</g>
<!-- Node3 -->
<g id="node4" class="node"><title>Node3</title>
<a xlink:href="class_r_t_x_1_1_modular_time_series.html" target="_top" xlink:title="A Time Series class that allows a single upstream TimeSeries. ">
<polygon fill="white" stroke="black" points="11.1455,-129 11.1455,-149 138.854,-149 138.854,-129 11.1455,-129"/>
<text text-anchor="middle" x="75" y="-135" font-family="Helvetica,sans-Serif" font-size="10.00">RTX::ModularTimeSeries</text>
</a>
</g>
<!-- Node3&#45;&gt;Node2 -->
<g id="edge4" class="edge"><title>Node3&#45;&gt;Node2</title>
<path fill="none" stroke="midnightblue" d="M75,-118.775C75,-109.986 75,-99.715 75,-91.4404"/>
<polygon fill="midnightblue" stroke="midnightblue" points="71.5001,-118.852 75,-128.852 78.5001,-118.852 71.5001,-118.852"/>
</g>
<!-- Node4 -->
<g id="node6" class="node"><title>Node4</title>
<a xlink:href="class_r_t_x_1_1_time_series.html" target="_top" xlink:title="An abstraction of Points ordered in time. ">
<polygon fill="white" stroke="black" points="29.2095,-187 29.2095,-207 120.791,-207 120.791,-187 29.2095,-187"/>
<text text-anchor="middle" x="75" y="-193" font-family="Helvetica,sans-Serif" font-size="10.00">RTX::TimeSeries</text>
</a>
</g>
<!-- Node4&#45;&gt;Node3 -->
<g id="edge6" class="edge"><title>Node4&#45;&gt;Node3</title>
<path fill="none" stroke="midnightblue" d="M75,-176.707C75,-167.338 75,-156.526 75,-149.075"/>
<polygon fill="midnightblue" stroke="midnightblue" points="71.5001,-176.753 75,-186.753 78.5001,-176.753 71.5001,-176.753"/>
</g>
<!-- Node5 -->
<g id="node8" class="node"><title>Node5</title>
<polygon fill="white" stroke="#bfbfbf" points="10.0273,-245 10.0273,-277 139.973,-277 139.973,-245 10.0273,-245"/>
<text text-anchor="start" x="18.0273" y="-263" font-family="Helvetica,sans-Serif" font-size="10.00">boost::enable_shared</text>
<text text-anchor="middle" x="75" y="-251" font-family="Helvetica,sans-Serif" font-size="10.00">_from_this&lt; TimeSeries &gt;</text>
</g>
<!-- Node5&#45;&gt;Node4 -->
<g id="edge8" class="edge"><title>Node5&#45;&gt;Node4</title>
<path fill="none" stroke="midnightblue" d="M75,-234.922C75,-225.172 75,-214.61 75,-207.29"/>
<polygon fill="midnightblue" stroke="midnightblue" points="71.5001,-234.991 75,-244.992 78.5001,-234.992 71.5001,-234.991"/>
</g>
</g>
</svg>
