<?xml version="1.0" encoding="UTF-8" standalone="no"?>
<!DOCTYPE svg PUBLIC "-//W3C//DTD SVG 1.1//EN"
 "http://www.w3.org/Graphics/SVG/1.1/DTD/svg11.dtd">
<!-- Generated by graphviz version 2.36.0 (20140111.2315)
 -->
<!-- Title: RTX::ModularTimeSeries Pages: 1 -->
<svg width="796pt" height="461pt"
 viewBox="0.00 0.00 796.00 461.00" xmlns="http://www.w3.org/2000/svg" xmlns:xlink="http://www.w3.org/1999/xlink">
<g id="graph0" class="graph" transform="scale(1 1) rotate(0) translate(4 457)">
<title>RTX::ModularTimeSeries</title>
<polygon fill="white" stroke="none" points="-4,4 -4,-457 792,-457 792,4 -4,4"/>
<!-- Node1 -->
<g id="node1" class="node"><title>Node1</title>
<polygon fill="#bfbfbf" stroke="black" points="294.146,-277 294.146,-295 421.854,-295 421.854,-277 294.146,-277"/>
<text text-anchor="middle" x="358" y="-283" font-family="Helvetica,sans-Serif" font-size="10.00">RTX::ModularTimeSeries</text>
</g>
<!-- Node4 -->
<g id="node4" class="node"><title>Node4</title>
<g id="a_node4"><a xlink:href="class_r_t_x_1_1_base_stats_time_series.html" target="_top" xlink:title="RTX::BaseStatsTimeSeries">
<polygon fill="white" stroke="black" points="464.419,-407 464.419,-425 601.581,-425 601.581,-407 464.419,-407"/>
<text text-anchor="middle" x="533" y="-413" font-family="Helvetica,sans-Serif" font-size="10.00">RTX::BaseStatsTimeSeries</text>
</a>
</g>
</g>
<!-- Node1&#45;&gt;Node4 -->
<g id="edge3" class="edge"><title>Node1&#45;&gt;Node4</title>
<path fill="none" stroke="midnightblue" d="M369.948,-303.841C386.094,-328.607 418.669,-373.053 458,-397 464.798,-401.139 472.474,-404.381 480.243,-406.92"/>
<polygon fill="midnightblue" stroke="midnightblue" points="372.723,-301.68 364.41,-295.112 366.812,-305.431 372.723,-301.68"/>
</g>
<!-- Node7 -->
<g id="node7" class="node"><title>Node7</title>
<g id="a_node7"><a xlink:href="class_r_t_x_1_1_curve_function.html" target="_top" xlink:title="A Curve Function Class to perform arbitrary mapping of values. ">
<polygon fill="white" stroke="black" points="479.795,-370 479.795,-388 586.205,-388 586.205,-370 479.795,-370"/>
<text text-anchor="middle" x="533" y="-376" font-family="Helvetica,sans-Serif" font-size="10.00">RTX::CurveFunction</text>
</a>
</g>
</g>
<!-- Node1&#45;&gt;Node7 -->
<g id="edge6" class="edge"><title>Node1&#45;&gt;Node7</title>
<path fill="none" stroke="midnightblue" d="M375.95,-301.985C394.648,-318.78 426.305,-344.822 458,-360 466.494,-364.067 475.968,-367.34 485.226,-369.946"/>
<polygon fill="midnightblue" stroke="midnightblue" points="378.282,-299.374 368.543,-295.202 373.554,-304.537 378.282,-299.374"/>
</g>
<!-- Node8 -->
<g id="node8" class="node"><title>Node8</title>
<g id="a_node8"><a xlink:href="class_r_t_x_1_1_failover_time_series.html" target="_top" xlink:title="RTX::FailoverTimeSeries">
<polygon fill="white" stroke="black" points="469.426,-333 469.426,-351 596.574,-351 596.574,-333 469.426,-333"/>
<text text-anchor="middle" x="533" y="-339" font-family="Helvetica,sans-Serif" font-size="10.00">RTX::FailoverTimeSeries</text>
</a>
</g>
</g>
<!-- Node1&#45;&gt;Node8 -->
<g id="edge7" class="edge"><title>Node1&#45;&gt;Node8</title>
<path fill="none" stroke="midnightblue" d="M390.674,-298.819C409.958,-306.377 435.193,-315.833 458,-323 469.388,-326.579 481.915,-329.99 493.373,-332.908"/>
<polygon fill="midnightblue" stroke="midnightblue" points="391.762,-295.486 381.176,-295.061 389.187,-301.995 391.762,-295.486"/>
</g>
<!-- Node9 -->
<g id="node9" class="node"><title>Node9</title>
<g id="a_node9"><a xlink:href="class_r_t_x_1_1_forecast_time_series.html" target="_top" xlink:title="RTX::ForecastTimeSeries">
<polygon fill="white" stroke="black" points="467.759,-296 467.759,-314 598.241,-314 598.241,-296 467.759,-296"/>
<text text-anchor="middle" x="533" y="-302" font-family="Helvetica,sans-Serif" font-size="10.00">RTX::ForecastTimeSeries</text>
</a>
</g>
</g>
<!-- Node1&#45;&gt;Node9 -->
<g id="edge8" class="edge"><title>Node1&#45;&gt;Node9</title>
<path fill="none" stroke="midnightblue" d="M432.191,-294.038C443.974,-295.332 456.094,-296.663 467.648,-297.932"/>
<polygon fill="midnightblue" stroke="midnightblue" points="432.269,-290.526 421.946,-292.913 431.504,-297.484 432.269,-290.526"/>
</g>
<!-- Node10 -->
<g id="node10" class="node"><title>Node10</title>
<g id="a_node10"><a xlink:href="class_r_t_x_1_1_resampler.html" target="_top" xlink:title="RTX::Resampler">
<polygon fill="white" stroke="black" points="488.135,-259 488.135,-277 577.865,-277 577.865,-259 488.135,-259"/>
<text text-anchor="middle" x="533" y="-265" font-family="Helvetica,sans-Serif" font-size="10.00">RTX::Resampler</text>
</a>
</g>
</g>
<!-- Node1&#45;&gt;Node10 -->
<g id="edge9" class="edge"><title>Node1&#45;&gt;Node10</title>
<path fill="none" stroke="midnightblue" d="M432.1,-278.394C451.131,-276.414 471.05,-274.342 488.049,-272.573"/>
<polygon fill="midnightblue" stroke="midnightblue" points="431.53,-274.934 421.946,-279.451 432.255,-281.897 431.53,-274.934"/>
</g>
<!-- Node14 -->
<g id="node14" class="node"><title>Node14</title>
<g id="a_node14"><a xlink:href="class_r_t_x_1_1_run_time_status_modular_time_series.html" target="_top" xlink:title="RTX::RunTimeStatusModular\lTimeSeries">
<polygon fill="white" stroke="black" points="459.971,-212 459.971,-240 606.029,-240 606.029,-212 459.971,-212"/>
<text text-anchor="start" x="467.971" y="-228" font-family="Helvetica,sans-Serif" font-size="10.00">RTX::RunTimeStatusModular</text>
<text text-anchor="middle" x="533" y="-218" font-family="Helvetica,sans-Serif" font-size="10.00">TimeSeries</text>
</a>
</g>
</g>
<!-- Node1&#45;&gt;Node14 -->
<g id="edge13" class="edge"><title>Node1&#45;&gt;Node14</title>
<path fill="none" stroke="midnightblue" d="M391.57,-273.3C410.801,-265.934 435.675,-256.634 458,-249 466.783,-245.996 476.208,-242.941 485.29,-240.08"/>
<polygon fill="midnightblue" stroke="midnightblue" points="390.146,-270.098 382.071,-276.957 392.661,-276.631 390.146,-270.098"/>
</g>
<!-- Node15 -->
<g id="node15" class="node"><title>Node15</title>
<g id="a_node15"><a xlink:href="class_r_t_x_1_1_single_point_filter_modular_time_series.html" target="_top" xlink:title="RTX::SinglePointFilterModular\lTimeSeries">
<polygon fill="white" stroke="black" points="457.839,-143 457.839,-171 608.161,-171 608.161,-143 457.839,-143"/>
<text text-anchor="start" x="465.839" y="-159" font-family="Helvetica,sans-Serif" font-size="10.00">RTX::SinglePointFilterModular</text>
<text text-anchor="middle" x="533" y="-149" font-family="Helvetica,sans-Serif" font-size="10.00">TimeSeries</text>
</a>
</g>
</g>
<!-- Node1&#45;&gt;Node15 -->
<g id="edge14" class="edge"><title>Node1&#45;&gt;Node15</title>
<path fill="none" stroke="midnightblue" d="M376.07,-270.072C395.283,-252.496 427.77,-223.81 458,-202 473.608,-190.739 492.108,-179.489 506.706,-171.054"/>
<polygon fill="midnightblue" stroke="midnightblue" points="373.674,-267.521 368.695,-276.873 378.419,-272.667 373.674,-267.521"/>
</g>
<!-- Node23 -->
<g id="node23" class="node"><title>Node23</title>
<g id="a_node23"><a xlink:href="class_r_t_x_1_1_warping_time_series.html" target="_top" xlink:title="RTX::WarpingTimeSeries">
<polygon fill="white" stroke="black" points="468.774,-106 468.774,-124 597.226,-124 597.226,-106 468.774,-106"/>
<text text-anchor="middle" x="533" y="-112" font-family="Helvetica,sans-Serif" font-size="10.00">RTX::WarpingTimeSeries</text>
</a>
</g>
</g>
<!-- Node1&#45;&gt;Node23 -->
<g id="edge22" class="edge"><title>Node1&#45;&gt;Node23</title>
<path fill="none" stroke="midnightblue" d="M365.843,-266.99C378.627,-234.286 409.333,-167.564 458,-133 463.174,-129.325 469.01,-126.396 475.077,-124.061"/>
<polygon fill="midnightblue" stroke="midnightblue" points="362.442,-266.09 362.194,-276.682 368.993,-268.556 362.442,-266.09"/>
</g>
<!-- Node2 -->
<g id="node2" class="node"><title>Node2</title>
<g id="a_node2"><a xlink:href="class_r_t_x_1_1_time_series.html" target="_top" xlink:title="An abstraction of Points ordered in time. ">
<polygon fill="white" stroke="black" points="166.209,-277 166.209,-295 257.791,-295 257.791,-277 166.209,-277"/>
<text text-anchor="middle" x="212" y="-283" font-family="Helvetica,sans-Serif" font-size="10.00">RTX::TimeSeries</text>
</a>
</g>
</g>
<!-- Node2&#45;&gt;Node1 -->
<g id="edge1" class="edge"><title>Node2&#45;&gt;Node1</title>
<path fill="none" stroke="midnightblue" d="M268.266,-286C276.705,-286 285.468,-286 294.057,-286"/>
<polygon fill="midnightblue" stroke="midnightblue" points="268.167,-282.5 258.167,-286 268.167,-289.5 268.167,-282.5"/>
</g>
<!-- Node3 -->
<g id="node3" class="node"><title>Node3</title>
<polygon fill="white" stroke="#bfbfbf" points="0.0273438,-272 0.0273438,-300 129.973,-300 129.973,-272 0.0273438,-272"/>
<text text-anchor="start" x="8.02734" y="-288" font-family="Helvetica,sans-Serif" font-size="10.00">boost::enable_shared</text>
<text text-anchor="middle" x="65" y="-278" font-family="Helvetica,sans-Serif" font-size="10.00">_from_this&lt; TimeSeries &gt;</text>
</g>
<!-- Node3&#45;&gt;Node2 -->
<g id="edge2" class="edge"><title>Node3&#45;&gt;Node2</title>
<path fill="none" stroke="midnightblue" d="M140.022,-286C148.894,-286 157.736,-286 166.015,-286"/>
<polygon fill="midnightblue" stroke="midnightblue" points="140.021,-282.5 130.021,-286 140.021,-289.5 140.021,-282.5"/>
</g>
<!-- Node5 -->
<g id="node5" class="node"><title>Node5</title>
<g id="a_node5"><a xlink:href="class_r_t_x_1_1_outlier_exclusion_time_series.html" target="_top" xlink:title="RTX::OutlierExclusionTime\lSeries">
<polygon fill="white" stroke="black" points="648.256,-425 648.256,-453 783.744,-453 783.744,-425 648.256,-425"/>
<text text-anchor="start" x="656.256" y="-441" font-family="Helvetica,sans-Serif" font-size="10.00">RTX::OutlierExclusionTime</text>
<text text-anchor="middle" x="716" y="-431" font-family="Helvetica,sans-Serif" font-size="10.00">Series</text>
</a>
</g>
</g>
<!-- Node4&#45;&gt;Node5 -->
<g id="edge4" class="edge"><title>Node4&#45;&gt;Node5</title>
<path fill="none" stroke="midnightblue" d="M611.717,-425.876C623.806,-427.412 636.205,-428.987 648.029,-430.49"/>
<polygon fill="midnightblue" stroke="midnightblue" points="612.017,-422.386 601.655,-424.597 611.134,-429.33 612.017,-422.386"/>
</g>
<!-- Node6 -->
<g id="node6" class="node"><title>Node6</title>
<g id="a_node6"><a xlink:href="class_r_t_x_1_1_stats_time_series.html" target="_top" xlink:title="RTX::StatsTimeSeries">
<polygon fill="white" stroke="black" points="658.815,-388 658.815,-406 773.185,-406 773.185,-388 658.815,-388"/>
<text text-anchor="middle" x="716" y="-394" font-family="Helvetica,sans-Serif" font-size="10.00">RTX::StatsTimeSeries</text>
</a>
</g>
</g>
<!-- Node4&#45;&gt;Node6 -->
<g id="edge5" class="edge"><title>Node4&#45;&gt;Node6</title>
<path fill="none" stroke="midnightblue" d="M611.893,-407.823C627.616,-406.173 643.857,-404.468 658.667,-402.913"/>
<polygon fill="midnightblue" stroke="midnightblue" points="611.235,-404.373 601.655,-408.898 611.966,-411.335 611.235,-404.373"/>
</g>
<!-- Node11 -->
<g id="node11" class="node"><title>Node11</title>
<g id="a_node11"><a xlink:href="class_r_t_x_1_1_aggregator_time_series.html" target="_top" xlink:title="Aggregates (and optionally scales) arbitrary many input time series. ">
<polygon fill="white" stroke="black" points="645.471,-333 645.471,-351 786.529,-351 786.529,-333 645.471,-333"/>
<text text-anchor="middle" x="716" y="-339" font-family="Helvetica,sans-Serif" font-size="10.00">RTX::AggregatorTimeSeries</text>
</a>
</g>
</g>
<!-- Node10&#45;&gt;Node11 -->
<g id="edge10" class="edge"><title>Node10&#45;&gt;Node11</title>
<path fill="none" stroke="midnightblue" d="M587.809,-277.282C594.843,-279.579 601.764,-282.439 608,-286 627.924,-297.377 624.207,-311.395 644,-323 651.045,-327.13 659.005,-330.383 666.982,-332.939"/>
<polygon fill="midnightblue" stroke="midnightblue" points="588.78,-273.92 578.2,-274.487 586.824,-280.641 588.78,-273.92"/>
</g>
<!-- Node12 -->
<g id="node12" class="node"><title>Node12</title>
<g id="a_node12"><a xlink:href="class_r_t_x_1_1_first_derivative.html" target="_top" xlink:title="RTX::FirstDerivative">
<polygon fill="white" stroke="black" points="663.361,-296 663.361,-314 768.639,-314 768.639,-296 663.361,-296"/>
<text text-anchor="middle" x="716" y="-302" font-family="Helvetica,sans-Serif" font-size="10.00">RTX::FirstDerivative</text>
</a>
</g>
</g>
<!-- Node10&#45;&gt;Node12 -->
<g id="edge11" class="edge"><title>Node10&#45;&gt;Node12</title>
<path fill="none" stroke="midnightblue" d="M588.135,-279.066C614.552,-284.466 645.927,-290.88 670.866,-295.978"/>
<polygon fill="midnightblue" stroke="midnightblue" points="588.776,-275.625 578.278,-277.051 587.374,-282.483 588.776,-275.625"/>
</g>
<!-- Node13 -->
<g id="node13" class="node"><title>Node13</title>
<g id="a_node13"><a xlink:href="class_r_t_x_1_1_moving_average.html" target="_top" xlink:title="RTX::MovingAverage">
<polygon fill="white" stroke="black" points="660.656,-259 660.656,-277 771.344,-277 771.344,-259 660.656,-259"/>
<text text-anchor="middle" x="716" y="-265" font-family="Helvetica,sans-Serif" font-size="10.00">RTX::MovingAverage</text>
</a>
</g>
</g>
<!-- Node10&#45;&gt;Node13 -->
<g id="edge12" class="edge"><title>Node10&#45;&gt;Node13</title>
<path fill="none" stroke="midnightblue" d="M588.469,-268C611.267,-268 637.709,-268 660.509,-268"/>
<polygon fill="midnightblue" stroke="midnightblue" points="588.278,-264.5 578.278,-268 588.278,-271.5 588.278,-264.5"/>
</g>
<!-- Node16 -->
<g id="node16" class="node"><title>Node16</title>
<g id="a_node16"><a xlink:href="class_r_t_x_1_1_gain_time_series.html" target="_top" xlink:title="RTX::GainTimeSeries">
<polygon fill="white" stroke="black" points="659.648,-222 659.648,-240 772.352,-240 772.352,-222 659.648,-222"/>
<text text-anchor="middle" x="716" y="-228" font-family="Helvetica,sans-Serif" font-size="10.00">RTX::GainTimeSeries</text>
</a>
</g>
</g>
<!-- Node15&#45;&gt;Node16 -->
<g id="edge15" class="edge"><title>Node15&#45;&gt;Node16</title>
<path fill="none" stroke="midnightblue" d="M567.678,-176.069C589.051,-187.605 617.567,-201.973 644,-212 654.022,-215.802 665.111,-219.154 675.488,-221.943"/>
<polygon fill="midnightblue" stroke="midnightblue" points="569.142,-172.881 558.689,-171.157 565.786,-179.024 569.142,-172.881"/>
</g>
<!-- Node17 -->
<g id="node17" class="node"><title>Node17</title>
<g id="a_node17"><a xlink:href="class_r_t_x_1_1_inversion_time_series.html" target="_top" xlink:title="RTX::InversionTimeSeries">
<polygon fill="white" stroke="black" points="649.921,-185 649.921,-203 782.079,-203 782.079,-185 649.921,-185"/>
<text text-anchor="middle" x="716" y="-191" font-family="Helvetica,sans-Serif" font-size="10.00">RTX::InversionTimeSeries</text>
</a>
</g>
</g>
<!-- Node15&#45;&gt;Node17 -->
<g id="edge16" class="edge"><title>Node15&#45;&gt;Node17</title>
<path fill="none" stroke="midnightblue" d="M612.677,-173.083C632.557,-177.147 653.211,-181.369 670.713,-184.947"/>
<polygon fill="midnightblue" stroke="midnightblue" points="613.185,-169.615 602.686,-171.041 611.783,-176.473 613.185,-169.615"/>
</g>
<!-- Node18 -->
<g id="node18" class="node"><title>Node18</title>
<g id="a_node18"><a xlink:href="class_r_t_x_1_1_multiplier_time_series.html" target="_top" xlink:title="RTX::MultiplierTimeSeries">
<polygon fill="white" stroke="black" points="650.205,-148 650.205,-166 781.795,-166 781.795,-148 650.205,-148"/>
<text text-anchor="middle" x="716" y="-154" font-family="Helvetica,sans-Serif" font-size="10.00">RTX::MultiplierTimeSeries</text>
</a>
</g>
</g>
<!-- Node15&#45;&gt;Node18 -->
<g id="edge17" class="edge"><title>Node15&#45;&gt;Node18</title>
<path fill="none" stroke="midnightblue" d="M618.535,-157C629.158,-157 639.891,-157 650.145,-157"/>
<polygon fill="midnightblue" stroke="midnightblue" points="618.403,-153.5 608.403,-157 618.403,-160.5 618.403,-153.5"/>
</g>
<!-- Node19 -->
<g id="node19" class="node"><title>Node19</title>
<g id="a_node19"><a xlink:href="class_r_t_x_1_1_offset_time_series.html" target="_top" xlink:title="RTX::OffsetTimeSeries">
<polygon fill="white" stroke="black" points="656.96,-111 656.96,-129 775.04,-129 775.04,-111 656.96,-111"/>
<text text-anchor="middle" x="716" y="-117" font-family="Helvetica,sans-Serif" font-size="10.00">RTX::OffsetTimeSeries</text>
</a>
</g>
</g>
<!-- Node15&#45;&gt;Node19 -->
<g id="edge18" class="edge"><title>Node15&#45;&gt;Node19</title>
<path fill="none" stroke="midnightblue" d="M612.677,-140.917C632.557,-136.853 653.211,-132.631 670.713,-129.053"/>
<polygon fill="midnightblue" stroke="midnightblue" points="611.783,-137.527 602.686,-142.959 613.185,-144.385 611.783,-137.527"/>
</g>
<!-- Node20 -->
<g id="node20" class="node"><title>Node20</title>
<g id="a_node20"><a xlink:href="class_r_t_x_1_1_threshold_time_series.html" target="_top" xlink:title="A Status Class to map the input time series into binary status based on a threshold. ">
<polygon fill="white" stroke="black" points="647.976,-74 647.976,-92 784.024,-92 784.024,-74 647.976,-74"/>
<text text-anchor="middle" x="716" y="-80" font-family="Helvetica,sans-Serif" font-size="10.00">RTX::ThresholdTimeSeries</text>
</a>
</g>
</g>
<!-- Node15&#45;&gt;Node20 -->
<g id="edge19" class="edge"><title>Node15&#45;&gt;Node20</title>
<path fill="none" stroke="midnightblue" d="M595.842,-139.128C600.044,-137.252 604.138,-135.212 608,-133 626.576,-122.361 625.086,-111.027 644,-101 650.853,-97.3667 658.472,-94.4429 666.102,-92.0968"/>
<polygon fill="midnightblue" stroke="midnightblue" points="594.427,-135.926 586.518,-142.975 597.097,-142.396 594.427,-135.926"/>
</g>
<!-- Node21 -->
<g id="node21" class="node"><title>Node21</title>
<g id="a_node21"><a xlink:href="class_r_t_x_1_1_time_offset_time_series.html" target="_top" xlink:title="RTX::TimeOffsetTimeSeries">
<polygon fill="white" stroke="black" points="646.032,-37 646.032,-55 785.968,-55 785.968,-37 646.032,-37"/>
<text text-anchor="middle" x="716" y="-43" font-family="Helvetica,sans-Serif" font-size="10.00">RTX::TimeOffsetTimeSeries</text>
</a>
</g>
</g>
<!-- Node15&#45;&gt;Node21 -->
<g id="edge20" class="edge"><title>Node15&#45;&gt;Node21</title>
<path fill="none" stroke="midnightblue" d="M601.563,-137.792C603.813,-136.311 605.969,-134.717 608,-133 634.416,-110.67 616.869,-85.4553 644,-64 648.588,-60.3717 653.82,-57.4661 659.316,-55.1407"/>
<polygon fill="midnightblue" stroke="midnightblue" points="599.444,-134.971 592.485,-142.96 602.907,-141.055 599.444,-134.971"/>
</g>
<!-- Node22 -->
<g id="node22" class="node"><title>Node22</title>
<g id="a_node22"><a xlink:href="class_r_t_x_1_1_valid_range_time_series.html" target="_top" xlink:title="RTX::ValidRangeTimeSeries">
<polygon fill="white" stroke="black" points="644.726,-0 644.726,-18 787.274,-18 787.274,-0 644.726,-0"/>
<text text-anchor="middle" x="716" y="-6" font-family="Helvetica,sans-Serif" font-size="10.00">RTX::ValidRangeTimeSeries</text>
</a>
</g>
</g>
<!-- Node15&#45;&gt;Node22 -->
<g id="edge21" class="edge"><title>Node15&#45;&gt;Node22</title>
<path fill="none" stroke="midnightblue" d="M603.313,-137.114C604.954,-135.828 606.522,-134.458 608,-133 643.423,-98.0619 607.455,-60.7626 644,-27 647.923,-23.3757 652.47,-20.4562 657.33,-18.1077"/>
<polygon fill="midnightblue" stroke="midnightblue" points="600.993,-134.451 594.571,-142.878 604.847,-140.295 600.993,-134.451"/>
</g>
</g>
</svg>
