<?xml version="1.0" encoding="UTF-8" standalone="no"?>
<!DOCTYPE svg PUBLIC "-//W3C//DTD SVG 1.1//EN"
 "http://www.w3.org/Graphics/SVG/1.1/DTD/svg11.dtd">
<!-- Generated by graphviz version 2.36.0 (20140111.2315)
 -->
<!-- Title: RTX::Junction Pages: 1 -->
<svg width="86pt" height="140pt"
 viewBox="0.00 0.00 86.00 140.00" xmlns="http://www.w3.org/2000/svg" xmlns:xlink="http://www.w3.org/1999/xlink">
<g id="graph0" class="graph" transform="scale(1 1) rotate(0) translate(4 136)">
<title>RTX::Junction</title>
<polygon fill="white" stroke="none" points="-4,4 -4,-136 82,-136 82,4 -4,4"/>
<!-- Node1 -->
<g id="node1" class="node"><title>Node1</title>
<polygon fill="#bfbfbf" stroke="black" points="-0.313477,-1 -0.313477,-19 78.3135,-19 78.3135,-1 -0.313477,-1"/>
<text text-anchor="middle" x="39" y="-7" font-family="Helvetica,sans-Serif" font-size="10.00">RTX::Junction</text>
</g>
<!-- Node2 -->
<g id="node2" class="node"><title>Node2</title>
<g id="a_node2"><a xlink:href="class_r_t_x_1_1_node.html" target="_top" xlink:title="Node Class. ">
<polygon fill="white" stroke="black" points="6.35645,-57 6.35645,-75 71.6436,-75 71.6436,-57 6.35645,-57"/>
<text text-anchor="middle" x="39" y="-63" font-family="Helvetica,sans-Serif" font-size="10.00">RTX::Node</text>
</a>
</g>
</g>
<!-- Node2&#45;&gt;Node1 -->
<g id="edge1" class="edge"><title>Node2&#45;&gt;Node1</title>
<path fill="none" stroke="midnightblue" d="M39,-46.3288C39,-37.0774 39,-26.3798 39,-19.2014"/>
<polygon fill="midnightblue" stroke="midnightblue" points="35.5001,-46.5625 39,-56.5625 42.5001,-46.5625 35.5001,-46.5625"/>
</g>
<!-- Node3 -->
<g id="node3" class="node"><title>Node3</title>
<g id="a_node3"><a xlink:href="class_r_t_x_1_1_element.html" target="_top" xlink:title="Element Base Class. ">
<polygon fill="white" stroke="black" points="-0.0327148,-113 -0.0327148,-131 78.0327,-131 78.0327,-113 -0.0327148,-113"/>
<text text-anchor="middle" x="39" y="-119" font-family="Helvetica,sans-Serif" font-size="10.00">RTX::Element</text>
</a>
</g>
</g>
<!-- Node3&#45;&gt;Node2 -->
<g id="edge2" class="edge"><title>Node3&#45;&gt;Node2</title>
<path fill="none" stroke="midnightblue" d="M39,-102.329C39,-93.0774 39,-82.3798 39,-75.2014"/>
<polygon fill="midnightblue" stroke="midnightblue" points="35.5001,-102.562 39,-112.562 42.5001,-102.563 35.5001,-102.562"/>
</g>
</g>
</svg>
