<?xml version="1.0" encoding="UTF-8" standalone="no"?>
<!DOCTYPE svg PUBLIC "-//W3C//DTD SVG 1.1//EN"
 "http://www.w3.org/Graphics/SVG/1.1/DTD/svg11.dtd">
<!-- Generated by graphviz version 2.36.0 (20140111.2315)
 -->
<!-- Title: RTX::SinglePointFilterModularTimeSeries Pages: 1 -->
<svg width="796pt" height="248pt"
 viewBox="0.00 0.00 796.00 248.00" xmlns="http://www.w3.org/2000/svg" xmlns:xlink="http://www.w3.org/1999/xlink">
<g id="graph0" class="graph" transform="scale(1 1) rotate(0) translate(4 244)">
<title>RTX::SinglePointFilterModularTimeSeries</title>
<polygon fill="white" stroke="none" points="-4,4 -4,-244 792,-244 792,4 -4,4"/>
<!-- Node1 -->
<g id="node1" class="node"><title>Node1</title>
<polygon fill="#bfbfbf" stroke="black" points="457.839,-106 457.839,-134 608.161,-134 608.161,-106 457.839,-106"/>
<text text-anchor="start" x="465.839" y="-122" font-family="Helvetica,sans-Serif" font-size="10.00">RTX::SinglePointFilterModular</text>
<text text-anchor="middle" x="533" y="-112" font-family="Helvetica,sans-Serif" font-size="10.00">TimeSeries</text>
</g>
<!-- Node5 -->
<g id="node5" class="node"><title>Node5</title>
<g id="a_node5"><a xlink:href="class_r_t_x_1_1_gain_time_series.html" target="_top" xlink:title="RTX::GainTimeSeries">
<polygon fill="white" stroke="black" points="659.648,-222 659.648,-240 772.352,-240 772.352,-222 659.648,-222"/>
<text text-anchor="middle" x="716" y="-228" font-family="Helvetica,sans-Serif" font-size="10.00">RTX::GainTimeSeries</text>
</a>
</g>
</g>
<!-- Node1&#45;&gt;Node5 -->
<g id="edge4" class="edge"><title>Node1&#45;&gt;Node5</title>
<path fill="none" stroke="midnightblue" d="M553.77,-141.242C574.385,-162.171 608.58,-193.605 644,-212 651.814,-216.058 660.573,-219.309 669.201,-221.893"/>
<polygon fill="midnightblue" stroke="midnightblue" points="556.282,-138.803 546.813,-134.05 551.25,-143.671 556.282,-138.803"/>
</g>
<!-- Node6 -->
<g id="node6" class="node"><title>Node6</title>
<g id="a_node6"><a xlink:href="class_r_t_x_1_1_inversion_time_series.html" target="_top" xlink:title="RTX::InversionTimeSeries">
<polygon fill="white" stroke="black" points="649.921,-185 649.921,-203 782.079,-203 782.079,-185 649.921,-185"/>
<text text-anchor="middle" x="716" y="-191" font-family="Helvetica,sans-Serif" font-size="10.00">RTX::InversionTimeSeries</text>
</a>
</g>
</g>
<!-- Node1&#45;&gt;Node6 -->
<g id="edge5" class="edge"><title>Node1&#45;&gt;Node6</title>
<path fill="none" stroke="midnightblue" d="M567.678,-139.069C589.051,-150.605 617.567,-164.973 644,-175 654.022,-178.802 665.111,-182.154 675.488,-184.943"/>
<polygon fill="midnightblue" stroke="midnightblue" points="569.142,-135.881 558.689,-134.157 565.786,-142.024 569.142,-135.881"/>
</g>
<!-- Node7 -->
<g id="node7" class="node"><title>Node7</title>
<g id="a_node7"><a xlink:href="class_r_t_x_1_1_multiplier_time_series.html" target="_top" xlink:title="RTX::MultiplierTimeSeries">
<polygon fill="white" stroke="black" points="650.205,-148 650.205,-166 781.795,-166 781.795,-148 650.205,-148"/>
<text text-anchor="middle" x="716" y="-154" font-family="Helvetica,sans-Serif" font-size="10.00">RTX::MultiplierTimeSeries</text>
</a>
</g>
</g>
<!-- Node1&#45;&gt;Node7 -->
<g id="edge6" class="edge"><title>Node1&#45;&gt;Node7</title>
<path fill="none" stroke="midnightblue" d="M612.677,-136.083C632.557,-140.147 653.211,-144.369 670.713,-147.947"/>
<polygon fill="midnightblue" stroke="midnightblue" points="613.185,-132.615 602.686,-134.041 611.783,-139.473 613.185,-132.615"/>
</g>
<!-- Node8 -->
<g id="node8" class="node"><title>Node8</title>
<g id="a_node8"><a xlink:href="class_r_t_x_1_1_offset_time_series.html" target="_top" xlink:title="RTX::OffsetTimeSeries">
<polygon fill="white" stroke="black" points="656.96,-111 656.96,-129 775.04,-129 775.04,-111 656.96,-111"/>
<text text-anchor="middle" x="716" y="-117" font-family="Helvetica,sans-Serif" font-size="10.00">RTX::OffsetTimeSeries</text>
</a>
</g>
</g>
<!-- Node1&#45;&gt;Node8 -->
<g id="edge7" class="edge"><title>Node1&#45;&gt;Node8</title>
<path fill="none" stroke="midnightblue" d="M618.72,-120C631.652,-120 644.742,-120 656.928,-120"/>
<polygon fill="midnightblue" stroke="midnightblue" points="618.403,-116.5 608.403,-120 618.403,-123.5 618.403,-116.5"/>
</g>
<!-- Node9 -->
<g id="node9" class="node"><title>Node9</title>
<g id="a_node9"><a xlink:href="class_r_t_x_1_1_threshold_time_series.html" target="_top" xlink:title="A Status Class to map the input time series into binary status based on a threshold. ">
<polygon fill="white" stroke="black" points="647.976,-74 647.976,-92 784.024,-92 784.024,-74 647.976,-74"/>
<text text-anchor="middle" x="716" y="-80" font-family="Helvetica,sans-Serif" font-size="10.00">RTX::ThresholdTimeSeries</text>
</a>
</g>
</g>
<!-- Node1&#45;&gt;Node9 -->
<g id="edge8" class="edge"><title>Node1&#45;&gt;Node9</title>
<path fill="none" stroke="midnightblue" d="M612.677,-103.917C632.557,-99.853 653.211,-95.6309 670.713,-92.0531"/>
<polygon fill="midnightblue" stroke="midnightblue" points="611.783,-100.527 602.686,-105.959 613.185,-107.385 611.783,-100.527"/>
</g>
<!-- Node10 -->
<g id="node10" class="node"><title>Node10</title>
<g id="a_node10"><a xlink:href="class_r_t_x_1_1_time_offset_time_series.html" target="_top" xlink:title="RTX::TimeOffsetTimeSeries">
<polygon fill="white" stroke="black" points="646.032,-37 646.032,-55 785.968,-55 785.968,-37 646.032,-37"/>
<text text-anchor="middle" x="716" y="-43" font-family="Helvetica,sans-Serif" font-size="10.00">RTX::TimeOffsetTimeSeries</text>
</a>
</g>
</g>
<!-- Node1&#45;&gt;Node10 -->
<g id="edge9" class="edge"><title>Node1&#45;&gt;Node10</title>
<path fill="none" stroke="midnightblue" d="M566.751,-100.892C588.178,-89.0073 617.091,-74.116 644,-64 653.165,-60.5544 663.24,-57.5531 672.849,-55.0406"/>
<polygon fill="midnightblue" stroke="midnightblue" points="564.763,-97.9938 557.761,-105.945 568.193,-104.096 564.763,-97.9938"/>
</g>
<!-- Node11 -->
<g id="node11" class="node"><title>Node11</title>
<g id="a_node11"><a xlink:href="class_r_t_x_1_1_valid_range_time_series.html" target="_top" xlink:title="RTX::ValidRangeTimeSeries">
<polygon fill="white" stroke="black" points="644.726,-0 644.726,-18 787.274,-18 787.274,-0 644.726,-0"/>
<text text-anchor="middle" x="716" y="-6" font-family="Helvetica,sans-Serif" font-size="10.00">RTX::ValidRangeTimeSeries</text>
</a>
</g>
</g>
<!-- Node1&#45;&gt;Node11 -->
<g id="edge10" class="edge"><title>Node1&#45;&gt;Node11</title>
<path fill="none" stroke="midnightblue" d="M553.673,-98.4196C574.212,-77.1785 608.349,-45.3375 644,-27 651.124,-23.3356 659.042,-20.3847 666.931,-18.018"/>
<polygon fill="midnightblue" stroke="midnightblue" points="551.089,-96.0581 546.744,-105.721 556.167,-100.877 551.089,-96.0581"/>
</g>
<!-- Node2 -->
<g id="node2" class="node"><title>Node2</title>
<g id="a_node2"><a xlink:href="class_r_t_x_1_1_modular_time_series.html" target="_top" xlink:title="A Time Series class that allows a single upstream TimeSeries. ">
<polygon fill="white" stroke="black" points="294.146,-111 294.146,-129 421.854,-129 421.854,-111 294.146,-111"/>
<text text-anchor="middle" x="358" y="-117" font-family="Helvetica,sans-Serif" font-size="10.00">RTX::ModularTimeSeries</text>
</a>
</g>
</g>
<!-- Node2&#45;&gt;Node1 -->
<g id="edge1" class="edge"><title>Node2&#45;&gt;Node1</title>
<path fill="none" stroke="midnightblue" d="M432.131,-120C440.569,-120 449.182,-120 457.636,-120"/>
<polygon fill="midnightblue" stroke="midnightblue" points="431.946,-116.5 421.946,-120 431.946,-123.5 431.946,-116.5"/>
</g>
<!-- Node3 -->
<g id="node3" class="node"><title>Node3</title>
<g id="a_node3"><a xlink:href="class_r_t_x_1_1_time_series.html" target="_top" xlink:title="An abstraction of Points ordered in time. ">
<polygon fill="white" stroke="black" points="166.209,-111 166.209,-129 257.791,-129 257.791,-111 166.209,-111"/>
<text text-anchor="middle" x="212" y="-117" font-family="Helvetica,sans-Serif" font-size="10.00">RTX::TimeSeries</text>
</a>
</g>
</g>
<!-- Node3&#45;&gt;Node2 -->
<g id="edge2" class="edge"><title>Node3&#45;&gt;Node2</title>
<path fill="none" stroke="midnightblue" d="M268.266,-120C276.705,-120 285.468,-120 294.057,-120"/>
<polygon fill="midnightblue" stroke="midnightblue" points="268.167,-116.5 258.167,-120 268.167,-123.5 268.167,-116.5"/>
</g>
<!-- Node4 -->
<g id="node4" class="node"><title>Node4</title>
<polygon fill="white" stroke="#bfbfbf" points="0.0273438,-106 0.0273438,-134 129.973,-134 129.973,-106 0.0273438,-106"/>
<text text-anchor="start" x="8.02734" y="-122" font-family="Helvetica,sans-Serif" font-size="10.00">boost::enable_shared</text>
<text text-anchor="middle" x="65" y="-112" font-family="Helvetica,sans-Serif" font-size="10.00">_from_this&lt; TimeSeries &gt;</text>
</g>
<!-- Node4&#45;&gt;Node3 -->
<g id="edge3" class="edge"><title>Node4&#45;&gt;Node3</title>
<path fill="none" stroke="midnightblue" d="M140.022,-120C148.894,-120 157.736,-120 166.015,-120"/>
<polygon fill="midnightblue" stroke="midnightblue" points="140.021,-116.5 130.021,-120 140.021,-123.5 140.021,-116.5"/>
</g>
</g>
</svg>
