<?xml version="1.0" encoding="UTF-8" standalone="no"?>
<!DOCTYPE svg PUBLIC "-//W3C//DTD SVG 1.1//EN"
 "http://www.w3.org/Graphics/SVG/1.1/DTD/svg11.dtd">
<!-- Generated by graphviz version 2.28.0 (20110509.1545)
 -->
<!-- Title: RTX::TimeSeries Pages: 1 -->
<svg width="800pt" height="485pt"
 viewBox="0.00 0.00 800.00 485.00" xmlns="http://www.w3.org/2000/svg" xmlns:xlink="http://www.w3.org/1999/xlink">
<g id="graph1" class="graph" transform="scale(1 1) rotate(0) translate(4 481)">
<title>RTX::TimeSeries</title>
<polygon fill="white" stroke="white" points="-4,5 -4,-481 797,-481 797,5 -4,5"/>
<!-- Node1 -->
<g id="node1" class="node"><title>Node1</title>
<polygon fill="#bfbfbf" stroke="black" points="166.209,-267 166.209,-287 257.791,-287 257.791,-267 166.209,-267"/>
<text text-anchor="middle" x="212" y="-273" font-family="Helvetica,sans-Serif" font-size="10.00">RTX::TimeSeries</text>
</g>
<!-- Node3 -->
<g id="node5" class="node"><title>Node3</title>
<a xlink:href="class_r_t_x_1_1_constant_time_series.html" target="_top" xlink:title="RTX::ConstantTimeSeries">
<polygon fill="white" stroke="black" points="294.197,-306 294.197,-326 425.803,-326 425.803,-306 294.197,-306"/>
<text text-anchor="middle" x="360" y="-312" font-family="Helvetica,sans-Serif" font-size="10.00">RTX::ConstantTimeSeries</text>
</a>
</g>
<!-- Node1&#45;&gt;Node3 -->
<g id="edge4" class="edge"><title>Node1&#45;&gt;Node3</title>
<path fill="none" stroke="midnightblue" d="M260.365,-289.652C280.188,-294.947 302.9,-301.014 321.529,-305.991"/>
<polygon fill="midnightblue" stroke="midnightblue" points="261.163,-286.243 250.599,-287.043 259.357,-293.006 261.163,-286.243"/>
</g>
<!-- Node4 -->
<g id="node7" class="node"><title>Node4</title>
<a xlink:href="class_r_t_x_1_1_modular_time_series.html" target="_top" xlink:title="A Time Series class that allows a single upstream TimeSeries. ">
<polygon fill="white" stroke="black" points="296.146,-267 296.146,-287 423.854,-287 423.854,-267 296.146,-267"/>
<text text-anchor="middle" x="360" y="-273" font-family="Helvetica,sans-Serif" font-size="10.00">RTX::ModularTimeSeries</text>
</a>
</g>
<!-- Node1&#45;&gt;Node4 -->
<g id="edge6" class="edge"><title>Node1&#45;&gt;Node4</title>
<path fill="none" stroke="midnightblue" d="M268.058,-277C277.148,-277 286.633,-277 295.902,-277"/>
<polygon fill="midnightblue" stroke="midnightblue" points="267.996,-273.5 257.996,-277 267.996,-280.5 267.996,-273.5"/>
</g>
<!-- Node26 -->
<g id="node51" class="node"><title>Node26</title>
<a xlink:href="class_r_t_x_1_1_sine_time_series.html" target="_top" xlink:title="RTX::SineTimeSeries">
<polygon fill="white" stroke="black" points="304.202,-228 304.202,-248 415.798,-248 415.798,-228 304.202,-228"/>
<text text-anchor="middle" x="360" y="-234" font-family="Helvetica,sans-Serif" font-size="10.00">RTX::SineTimeSeries</text>
</a>
</g>
<!-- Node1&#45;&gt;Node26 -->
<g id="edge50" class="edge"><title>Node1&#45;&gt;Node26</title>
<path fill="none" stroke="midnightblue" d="M260.365,-264.348C280.188,-259.053 302.9,-252.986 321.529,-248.009"/>
<polygon fill="midnightblue" stroke="midnightblue" points="259.357,-260.994 250.599,-266.957 261.163,-267.757 259.357,-260.994"/>
</g>
<!-- Node2 -->
<g id="node2" class="node"><title>Node2</title>
<polygon fill="white" stroke="#bfbfbf" points="0.0273438,-261 0.0273438,-293 129.973,-293 129.973,-261 0.0273438,-261"/>
<text text-anchor="start" x="8.02734" y="-279" font-family="Helvetica,sans-Serif" font-size="10.00">boost::enable_shared</text>
<text text-anchor="middle" x="65" y="-267" font-family="Helvetica,sans-Serif" font-size="10.00">_from_this&lt; TimeSeries &gt;</text>
</g>
<!-- Node2&#45;&gt;Node1 -->
<g id="edge2" class="edge"><title>Node2&#45;&gt;Node1</title>
<path fill="none" stroke="midnightblue" d="M140.022,-277C148.894,-277 157.736,-277 166.015,-277"/>
<polygon fill="midnightblue" stroke="midnightblue" points="140.021,-273.5 130.021,-277 140.021,-280.5 140.021,-273.5"/>
</g>
<!-- Node5 -->
<g id="node9" class="node"><title>Node5</title>
<a xlink:href="class_r_t_x_1_1_base_stats_time_series.html" target="_top" xlink:title="RTX::BaseStatsTimeSeries">
<polygon fill="white" stroke="black" points="468.419,-423 468.419,-443 605.581,-443 605.581,-423 468.419,-423"/>
<text text-anchor="middle" x="537" y="-429" font-family="Helvetica,sans-Serif" font-size="10.00">RTX::BaseStatsTimeSeries</text>
</a>
</g>
<!-- Node4&#45;&gt;Node5 -->
<g id="edge8" class="edge"><title>Node4&#45;&gt;Node5</title>
<path fill="none" stroke="midnightblue" d="M420.636,-292.421C422.538,-293.817 424.336,-295.34 426,-297 464.217,-335.124 423.131,-375.541 462,-413 466.216,-417.063 471.169,-420.321 476.481,-422.929"/>
<polygon fill="midnightblue" stroke="midnightblue" points="422.107,-289.221 411.734,-287.068 418.5,-295.22 422.107,-289.221"/>
</g>
<!-- Node8 -->
<g id="node15" class="node"><title>Node8</title>
<a xlink:href="class_r_t_x_1_1_curve_function.html" target="_top" xlink:title="A Curve Function Class to perform arbitrary mapping of values. ">
<polygon fill="white" stroke="black" points="483.795,-384 483.795,-404 590.205,-404 590.205,-384 483.795,-384"/>
<text text-anchor="middle" x="537" y="-390" font-family="Helvetica,sans-Serif" font-size="10.00">RTX::CurveFunction</text>
</a>
</g>
<!-- Node4&#45;&gt;Node8 -->
<g id="edge14" class="edge"><title>Node4&#45;&gt;Node8</title>
<path fill="none" stroke="midnightblue" d="M418.869,-291.762C421.391,-293.335 423.787,-295.075 426,-297 454.501,-321.796 433.075,-349.7 462,-374 468.216,-379.222 475.671,-383.091 483.422,-385.955"/>
<polygon fill="midnightblue" stroke="midnightblue" points="420.369,-288.596 409.89,-287.035 417.108,-294.791 420.369,-288.596"/>
</g>
<!-- Node9 -->
<g id="node17" class="node"><title>Node9</title>
<a xlink:href="class_r_t_x_1_1_failover_time_series.html" target="_top" xlink:title="RTX::FailoverTimeSeries">
<polygon fill="white" stroke="black" points="473.426,-345 473.426,-365 600.574,-365 600.574,-345 473.426,-345"/>
<text text-anchor="middle" x="537" y="-351" font-family="Helvetica,sans-Serif" font-size="10.00">RTX::FailoverTimeSeries</text>
</a>
</g>
<!-- Node4&#45;&gt;Node9 -->
<g id="edge16" class="edge"><title>Node4&#45;&gt;Node9</title>
<path fill="none" stroke="midnightblue" d="M413.977,-290.724C418.167,-292.577 422.23,-294.66 426,-297 445.767,-309.268 442.024,-323.075 462,-335 468.856,-339.093 476.563,-342.366 484.346,-344.979"/>
<polygon fill="midnightblue" stroke="midnightblue" points="415.253,-287.465 404.667,-287.028 412.67,-293.971 415.253,-287.465"/>
</g>
<!-- Node10 -->
<g id="node19" class="node"><title>Node10</title>
<a xlink:href="class_r_t_x_1_1_forecast_time_series.html" target="_top" xlink:title="An arima &#45; based time series predictor/forecaster. ">
<polygon fill="white" stroke="black" points="471.759,-306 471.759,-326 602.241,-326 602.241,-306 471.759,-306"/>
<text text-anchor="middle" x="537" y="-312" font-family="Helvetica,sans-Serif" font-size="10.00">RTX::ForecastTimeSeries</text>
</a>
</g>
<!-- Node4&#45;&gt;Node10 -->
<g id="edge18" class="edge"><title>Node4&#45;&gt;Node10</title>
<path fill="none" stroke="midnightblue" d="M415.828,-289.219C440.038,-294.614 468.145,-300.878 491.086,-305.991"/>
<polygon fill="midnightblue" stroke="midnightblue" points="416.589,-285.803 406.067,-287.043 415.066,-292.635 416.589,-285.803"/>
</g>
<!-- Node11 -->
<g id="node21" class="node"><title>Node11</title>
<a xlink:href="class_r_t_x_1_1_resampler.html" target="_top" xlink:title="RTX::Resampler">
<polygon fill="white" stroke="black" points="492.135,-267 492.135,-287 581.865,-287 581.865,-267 492.135,-267"/>
<text text-anchor="middle" x="537" y="-273" font-family="Helvetica,sans-Serif" font-size="10.00">RTX::Resampler</text>
</a>
</g>
<!-- Node4&#45;&gt;Node11 -->
<g id="edge20" class="edge"><title>Node4&#45;&gt;Node11</title>
<path fill="none" stroke="midnightblue" d="M434.339,-277C453.98,-277 474.599,-277 492.094,-277"/>
<polygon fill="midnightblue" stroke="midnightblue" points="434.179,-273.5 424.179,-277 434.179,-280.5 434.179,-273.5"/>
</g>
<!-- Node15 -->
<g id="node29" class="node"><title>Node15</title>
<a xlink:href="class_r_t_x_1_1_run_time_status_modular_time_series.html" target="_top" xlink:title="RTX::RunTimeStatusModular\lTimeSeries">
<polygon fill="white" stroke="black" points="463.971,-216 463.971,-248 610.029,-248 610.029,-216 463.971,-216"/>
<text text-anchor="start" x="471.971" y="-234" font-family="Helvetica,sans-Serif" font-size="10.00">RTX::RunTimeStatusModular</text>
<text text-anchor="middle" x="537" y="-222" font-family="Helvetica,sans-Serif" font-size="10.00">TimeSeries</text>
</a>
</g>
<!-- Node4&#45;&gt;Node15 -->
<g id="edge28" class="edge"><title>Node4&#45;&gt;Node15</title>
<path fill="none" stroke="midnightblue" d="M410.225,-264.342C429.866,-259.292 452.712,-253.417 473.502,-248.071"/>
<polygon fill="midnightblue" stroke="midnightblue" points="409.087,-261.021 400.273,-266.901 410.83,-267.8 409.087,-261.021"/>
</g>
<!-- Node16 -->
<g id="node31" class="node"><title>Node16</title>
<a xlink:href="class_r_t_x_1_1_single_point_filter_modular_time_series.html" target="_top" xlink:title="RTX::SinglePointFilterModular\lTimeSeries">
<polygon fill="white" stroke="black" points="461.839,-155 461.839,-187 612.161,-187 612.161,-155 461.839,-155"/>
<text text-anchor="start" x="469.839" y="-173" font-family="Helvetica,sans-Serif" font-size="10.00">RTX::SinglePointFilterModular</text>
<text text-anchor="middle" x="537" y="-161" font-family="Helvetica,sans-Serif" font-size="10.00">TimeSeries</text>
</a>
</g>
<!-- Node4&#45;&gt;Node16 -->
<g id="edge30" class="edge"><title>Node4&#45;&gt;Node16</title>
<path fill="none" stroke="midnightblue" d="M416.393,-262.845C419.767,-261.112 423.004,-259.172 426,-257 448.462,-240.714 440.761,-223.852 462,-206 470.921,-198.502 481.719,-192.216 492.277,-187.135"/>
<polygon fill="midnightblue" stroke="midnightblue" points="414.907,-259.675 407.215,-266.961 417.771,-266.062 414.907,-259.675"/>
</g>
<!-- Node24 -->
<g id="node47" class="node"><title>Node24</title>
<a xlink:href="class_r_t_x_1_1_time_gap_time_series.html" target="_top" xlink:title="A Class to map the input time series into a series whos values are the time gaps between successive p...">
<polygon fill="white" stroke="black" points="470.831,-116 470.831,-136 603.169,-136 603.169,-116 470.831,-116"/>
<text text-anchor="middle" x="537" y="-122" font-family="Helvetica,sans-Serif" font-size="10.00">RTX::TimeGapTimeSeries</text>
</a>
</g>
<!-- Node4&#45;&gt;Node24 -->
<g id="edge46" class="edge"><title>Node4&#45;&gt;Node24</title>
<path fill="none" stroke="midnightblue" d="M420.615,-261.558C422.523,-260.167 424.328,-258.651 426,-257 463.202,-220.26 423.942,-180.852 462,-145 465.765,-141.453 470.101,-138.546 474.745,-136.166"/>
<polygon fill="midnightblue" stroke="midnightblue" points="418.481,-258.756 411.693,-266.891 422.073,-264.764 418.481,-258.756"/>
</g>
<!-- Node25 -->
<g id="node49" class="node"><title>Node25</title>
<a xlink:href="class_r_t_x_1_1_warping_time_series.html" target="_top" xlink:title="RTX::WarpingTimeSeries">
<polygon fill="white" stroke="black" points="472.774,-77 472.774,-97 601.226,-97 601.226,-77 472.774,-77"/>
<text text-anchor="middle" x="537" y="-83" font-family="Helvetica,sans-Serif" font-size="10.00">RTX::WarpingTimeSeries</text>
</a>
</g>
<!-- Node4&#45;&gt;Node25 -->
<g id="edge48" class="edge"><title>Node4&#45;&gt;Node25</title>
<path fill="none" stroke="midnightblue" d="M421.416,-261.22C423.041,-259.922 424.577,-258.518 426,-257 473.187,-206.669 413.639,-155.205 462,-106 465.533,-102.405 469.648,-99.4591 474.094,-97.0482"/>
<polygon fill="midnightblue" stroke="midnightblue" points="419.155,-258.513 412.643,-266.87 422.945,-264.398 419.155,-258.513"/>
</g>
<!-- Node6 -->
<g id="node11" class="node"><title>Node6</title>
<a xlink:href="class_r_t_x_1_1_outlier_exclusion_time_series.html" target="_top" xlink:title="RTX::OutlierExclusionTime\lSeries">
<polygon fill="white" stroke="black" points="652.256,-445 652.256,-477 787.744,-477 787.744,-445 652.256,-445"/>
<text text-anchor="start" x="660.256" y="-463" font-family="Helvetica,sans-Serif" font-size="10.00">RTX::OutlierExclusionTime</text>
<text text-anchor="middle" x="720" y="-451" font-family="Helvetica,sans-Serif" font-size="10.00">Series</text>
</a>
</g>
<!-- Node5&#45;&gt;Node6 -->
<g id="edge10" class="edge"><title>Node5&#45;&gt;Node6</title>
<path fill="none" stroke="midnightblue" d="M612.727,-444.56C625.803,-446.583 639.333,-448.676 652.179,-450.663"/>
<polygon fill="midnightblue" stroke="midnightblue" points="613.251,-441.1 602.834,-443.03 612.181,-448.017 613.251,-441.1"/>
</g>
<!-- Node7 -->
<g id="node13" class="node"><title>Node7</title>
<a xlink:href="class_r_t_x_1_1_stats_time_series.html" target="_top" xlink:title="A modular timeseries class for delivering statistical information. ">
<polygon fill="white" stroke="black" points="662.815,-406 662.815,-426 777.185,-426 777.185,-406 662.815,-406"/>
<text text-anchor="middle" x="720" y="-412" font-family="Helvetica,sans-Serif" font-size="10.00">RTX::StatsTimeSeries</text>
</a>
</g>
<!-- Node5&#45;&gt;Node7 -->
<g id="edge12" class="edge"><title>Node5&#45;&gt;Node7</title>
<path fill="none" stroke="midnightblue" d="M615.893,-425.684C631.616,-424.207 647.857,-422.682 662.667,-421.291"/>
<polygon fill="midnightblue" stroke="midnightblue" points="615.284,-422.226 605.655,-426.646 615.939,-429.195 615.284,-422.226"/>
</g>
<!-- Node12 -->
<g id="node23" class="node"><title>Node12</title>
<a xlink:href="class_r_t_x_1_1_aggregator_time_series.html" target="_top" xlink:title="Aggregates (and optionally scales) arbitrary many input time series. ">
<polygon fill="white" stroke="black" points="649.471,-351 649.471,-371 790.529,-371 790.529,-351 649.471,-351"/>
<text text-anchor="middle" x="720" y="-357" font-family="Helvetica,sans-Serif" font-size="10.00">RTX::AggregatorTimeSeries</text>
</a>
</g>
<!-- Node11&#45;&gt;Node12 -->
<g id="edge22" class="edge"><title>Node11&#45;&gt;Node12</title>
<path fill="none" stroke="midnightblue" d="M591.857,-287.271C598.936,-289.831 605.856,-293.022 612,-297 633.211,-310.731 626.863,-327.157 648,-341 654.214,-345.069 661.256,-348.321 668.433,-350.918"/>
<polygon fill="midnightblue" stroke="midnightblue" points="592.755,-283.883 582.164,-284.157 590.615,-290.548 592.755,-283.883"/>
</g>
<!-- Node13 -->
<g id="node25" class="node"><title>Node13</title>
<a xlink:href="class_r_t_x_1_1_first_derivative.html" target="_top" xlink:title="RTX::FirstDerivative">
<polygon fill="white" stroke="black" points="667.361,-312 667.361,-332 772.639,-332 772.639,-312 667.361,-312"/>
<text text-anchor="middle" x="720" y="-318" font-family="Helvetica,sans-Serif" font-size="10.00">RTX::FirstDerivative</text>
</a>
</g>
<!-- Node11&#45;&gt;Node13 -->
<g id="edge24" class="edge"><title>Node11&#45;&gt;Node13</title>
<path fill="none" stroke="midnightblue" d="M588.377,-289.525C616.815,-296.595 651.879,-305.312 678.516,-311.935"/>
<polygon fill="midnightblue" stroke="midnightblue" points="589.169,-286.115 578.62,-287.099 587.48,-292.908 589.169,-286.115"/>
</g>
<!-- Node14 -->
<g id="node27" class="node"><title>Node14</title>
<a xlink:href="class_r_t_x_1_1_moving_average.html" target="_top" xlink:title="RTX::MovingAverage">
<polygon fill="white" stroke="black" points="664.656,-273 664.656,-293 775.344,-293 775.344,-273 664.656,-273"/>
<text text-anchor="middle" x="720" y="-279" font-family="Helvetica,sans-Serif" font-size="10.00">RTX::MovingAverage</text>
</a>
</g>
<!-- Node11&#45;&gt;Node14 -->
<g id="edge26" class="edge"><title>Node11&#45;&gt;Node14</title>
<path fill="none" stroke="midnightblue" d="M592.469,-278.806C615.267,-279.561 641.709,-280.438 664.509,-281.194"/>
<polygon fill="midnightblue" stroke="midnightblue" points="592.388,-275.301 582.278,-278.468 592.156,-282.297 592.388,-275.301"/>
</g>
<!-- Node17 -->
<g id="node33" class="node"><title>Node17</title>
<a xlink:href="class_r_t_x_1_1_gain_time_series.html" target="_top" xlink:title="RTX::GainTimeSeries">
<polygon fill="white" stroke="black" points="663.648,-234 663.648,-254 776.352,-254 776.352,-234 663.648,-234"/>
<text text-anchor="middle" x="720" y="-240" font-family="Helvetica,sans-Serif" font-size="10.00">RTX::GainTimeSeries</text>
</a>
</g>
<!-- Node16&#45;&gt;Node17 -->
<g id="edge32" class="edge"><title>Node16&#45;&gt;Node17</title>
<path fill="none" stroke="midnightblue" d="M581.381,-191.324C591.453,-196.097 602.117,-201.193 612,-206 628.086,-213.825 631.316,-217.546 648,-224 657.674,-227.742 668.335,-231.119 678.388,-233.986"/>
<polygon fill="midnightblue" stroke="midnightblue" points="582.874,-188.159 572.338,-187.05 579.883,-194.487 582.874,-188.159"/>
</g>
<!-- Node18 -->
<g id="node35" class="node"><title>Node18</title>
<a xlink:href="class_r_t_x_1_1_inversion_time_series.html" target="_top" xlink:title="RTX::InversionTimeSeries">
<polygon fill="white" stroke="black" points="653.921,-195 653.921,-215 786.079,-215 786.079,-195 653.921,-195"/>
<text text-anchor="middle" x="720" y="-201" font-family="Helvetica,sans-Serif" font-size="10.00">RTX::InversionTimeSeries</text>
</a>
</g>
<!-- Node16&#45;&gt;Node18 -->
<g id="edge34" class="edge"><title>Node16&#45;&gt;Node18</title>
<path fill="none" stroke="midnightblue" d="M622.512,-186.875C637.19,-189.632 652.078,-192.429 665.625,-194.974"/>
<polygon fill="midnightblue" stroke="midnightblue" points="622.877,-183.383 612.403,-184.976 621.585,-190.262 622.877,-183.383"/>
</g>
<!-- Node19 -->
<g id="node37" class="node"><title>Node19</title>
<a xlink:href="class_r_t_x_1_1_multiplier_time_series.html" target="_top" xlink:title="RTX::MultiplierTimeSeries">
<polygon fill="white" stroke="black" points="654.205,-156 654.205,-176 785.795,-176 785.795,-156 654.205,-156"/>
<text text-anchor="middle" x="720" y="-162" font-family="Helvetica,sans-Serif" font-size="10.00">RTX::MultiplierTimeSeries</text>
</a>
</g>
<!-- Node16&#45;&gt;Node19 -->
<g id="edge36" class="edge"><title>Node16&#45;&gt;Node19</title>
<path fill="none" stroke="midnightblue" d="M622.535,-168.665C633.158,-168.371 643.891,-168.075 654.145,-167.792"/>
<polygon fill="midnightblue" stroke="midnightblue" points="622.303,-165.17 612.403,-168.945 622.496,-172.167 622.303,-165.17"/>
</g>
<!-- Node20 -->
<g id="node39" class="node"><title>Node20</title>
<a xlink:href="class_r_t_x_1_1_offset_time_series.html" target="_top" xlink:title="RTX::OffsetTimeSeries">
<polygon fill="white" stroke="black" points="660.96,-117 660.96,-137 779.04,-137 779.04,-117 660.96,-117"/>
<text text-anchor="middle" x="720" y="-123" font-family="Helvetica,sans-Serif" font-size="10.00">RTX::OffsetTimeSeries</text>
</a>
</g>
<!-- Node16&#45;&gt;Node20 -->
<g id="edge38" class="edge"><title>Node16&#45;&gt;Node20</title>
<path fill="none" stroke="midnightblue" d="M613.805,-152.572C635.677,-147.255 658.726,-141.652 677.656,-137.051"/>
<polygon fill="midnightblue" stroke="midnightblue" points="612.747,-149.227 603.857,-154.991 614.401,-156.029 612.747,-149.227"/>
</g>
<!-- Node21 -->
<g id="node41" class="node"><title>Node21</title>
<a xlink:href="class_r_t_x_1_1_threshold_time_series.html" target="_top" xlink:title="A Status Class to map the input time series into binary status based on a threshold. ">
<polygon fill="white" stroke="black" points="651.976,-78 651.976,-98 788.024,-98 788.024,-78 651.976,-78"/>
<text text-anchor="middle" x="720" y="-84" font-family="Helvetica,sans-Serif" font-size="10.00">RTX::ThresholdTimeSeries</text>
</a>
</g>
<!-- Node16&#45;&gt;Node21 -->
<g id="edge40" class="edge"><title>Node16&#45;&gt;Node21</title>
<path fill="none" stroke="midnightblue" d="M602.263,-150.626C605.635,-148.88 608.904,-147.007 612,-145 631.521,-132.345 628.009,-118.9 648,-107 654.03,-103.41 660.747,-100.486 667.576,-98.1067"/>
<polygon fill="midnightblue" stroke="midnightblue" points="600.682,-147.502 593.149,-154.952 603.684,-153.826 600.682,-147.502"/>
</g>
<!-- Node22 -->
<g id="node43" class="node"><title>Node22</title>
<a xlink:href="class_r_t_x_1_1_time_offset_time_series.html" target="_top" xlink:title="RTX::TimeOffsetTimeSeries">
<polygon fill="white" stroke="black" points="650.032,-39 650.032,-59 789.968,-59 789.968,-39 650.032,-39"/>
<text text-anchor="middle" x="720" y="-45" font-family="Helvetica,sans-Serif" font-size="10.00">RTX::TimeOffsetTimeSeries</text>
</a>
</g>
<!-- Node16&#45;&gt;Node22 -->
<g id="edge42" class="edge"><title>Node16&#45;&gt;Node22</title>
<path fill="none" stroke="midnightblue" d="M606.556,-149.406C608.456,-148.026 610.277,-146.559 612,-145 640.008,-119.648 619.044,-92.2639 648,-68 652.303,-64.394 657.225,-61.4662 662.425,-59.0901"/>
<polygon fill="midnightblue" stroke="midnightblue" points="604.393,-146.631 597.789,-154.916 608.118,-152.558 604.393,-146.631"/>
</g>
<!-- Node23 -->
<g id="node45" class="node"><title>Node23</title>
<a xlink:href="class_r_t_x_1_1_valid_range_time_series.html" target="_top" xlink:title="RTX::ValidRangeTimeSeries">
<polygon fill="white" stroke="black" points="648.726,-0 648.726,-20 791.274,-20 791.274,-0 648.726,-0"/>
<text text-anchor="middle" x="720" y="-6" font-family="Helvetica,sans-Serif" font-size="10.00">RTX::ValidRangeTimeSeries</text>
</a>
</g>
<!-- Node16&#45;&gt;Node23 -->
<g id="edge44" class="edge"><title>Node16&#45;&gt;Node23</title>
<path fill="none" stroke="midnightblue" d="M607.617,-149.069C609.152,-147.789 610.618,-146.434 612,-145 649.459,-106.131 609.084,-66.4104 648,-29 651.772,-25.3743 656.156,-22.4227 660.861,-20.0221"/>
<polygon fill="midnightblue" stroke="midnightblue" points="605.565,-146.234 599.427,-154.869 609.611,-151.946 605.565,-146.234"/>
</g>
</g>
</svg>
