<?xml version="1.0" encoding="UTF-8" standalone="no"?>
<!DOCTYPE svg PUBLIC "-//W3C//DTD SVG 1.1//EN"
 "http://www.w3.org/Graphics/SVG/1.1/DTD/svg11.dtd">
<!-- Generated by graphviz version 2.28.0 (20110509.1545)
 -->
<!-- Title: RTX::DbPointRecord Pages: 1 -->
<!--zoomable 223 -->
<svg id="main" version="1.1" xmlns="http://www.w3.org/2000/svg" xmlns:xlink="http://www.w3.org/1999/xlink" xml:space="preserve" onload="init(evt)">
<style type="text/css"><![CDATA[
.edge:hover path { stroke: red; }
.edge:hover polygon { stroke: red; fill: red; }
]]></style>
<script type="text/javascript"><![CDATA[
var edges = document.getElementsByTagName('g');
if (edges && edges.length) {
  for (var i=0;i<edges.length;i++) {
    if (edges[i].id.substr(0,4)=='edge') {
      edges[i].setAttribute('class','edge');
    }
  }
}
]]></script>
        <defs>
                <circle id="rim" cx="0" cy="0" r="7"/>
                <circle id="rim2" cx="0" cy="0" r="3.5"/>
                <g id="zoomPlus">
                        <use xlink:href="#rim" fill="#404040">
                                <set attributeName="fill" to="#808080" begin="zoomplus.mouseover" end="zoomplus.mouseout"/>
                        </use>
                        <path d="M-4,0h8M0,-4v8" fill="none" stroke="white" stroke-width="1.5" pointer-events="none"/>
                </g>
                <g id="zoomMin">
                        <use xlink:href="#rim" fill="#404040">
                                <set attributeName="fill" to="#808080" begin="zoomminus.mouseover" end="zoomminus.mouseout"/>
                        </use>
                        <path d="M-4,0h8" fill="none" stroke="white" stroke-width="1.5" pointer-events="none"/>
                </g>
                <g id="dirArrow">
                        <path fill="none" stroke="white" stroke-width="1.5" d="M0,-3.0v7 M-2.5,-0.5L0,-3.0L2.5,-0.5"/>
                </g>
               <g id="resetDef">
                       <use xlink:href="#rim2" fill="#404040">
                               <set attributeName="fill" to="#808080" begin="reset.mouseover" end="reset.mouseout"/>
                       </use>
               </g>
        </defs>

<script type="text/javascript">
var viewWidth = 784;
var viewHeight = 223;
var sectionId = 'dynsection-0';
</script>
<script xlink:href="svgpan.js"/>
<svg id="graph" class="graph">
<g id="viewport">
<title>RTX::DbPointRecord</title>
<polygon fill="white" stroke="white" points="-4,5 -4,-219 781,-219 781,5 -4,5"/>
<!-- Node1 -->
<g id="node1" class="node"><title>Node1</title>
<polygon fill="#bfbfbf" stroke="black" points="292.403,-97 292.403,-117 401.597,-117 401.597,-97 292.403,-97"/>
<text text-anchor="middle" x="347" y="-103" font-family="Helvetica,sans-Serif" font-size="10.00">RTX::DbPointRecord</text>
</g>
<!-- Node4 -->
<g id="node7" class="node"><title>Node4</title>
<a xlink:href="class_r_t_x_1_1_influx_db_point_record.html" target="_top" xlink:title="RTX::InfluxDbPointRecord">
<polygon fill="white" stroke="black" points="441.453,-195 441.453,-215 574.547,-215 574.547,-195 441.453,-195"/>
<text text-anchor="middle" x="508" y="-201" font-family="Helvetica,sans-Serif" font-size="10.00">RTX::InfluxDbPointRecord</text>
</a>
</g>
<!-- Node1&#45;&gt;Node4 -->
<g id="edge6" class="edge"><title>Node1&#45;&gt;Node4</title>
<path fill="none" stroke="midnightblue" d="M363.809,-124.584C380.595,-142.247 408.702,-169.066 438,-185 445.341,-188.992 453.566,-192.265 461.709,-194.921"/>
<polygon fill="midnightblue" stroke="midnightblue" points="366.302,-122.125 356.929,-117.185 361.175,-126.892 366.302,-122.125"/>
</g>
<!-- Node5 -->
<g id="node9" class="node"><title>Node5</title>
<a xlink:href="class_r_t_x_1_1_mysql_point_record.html" target="_top" xlink:title="A persistence layer for MySQL databases. ">
<polygon fill="white" stroke="black" points="446.738,-156 446.738,-176 569.262,-176 569.262,-156 446.738,-156"/>
<text text-anchor="middle" x="508" y="-162" font-family="Helvetica,sans-Serif" font-size="10.00">RTX::MysqlPointRecord</text>
</a>
</g>
<!-- Node1&#45;&gt;Node5 -->
<g id="edge8" class="edge"><title>Node1&#45;&gt;Node5</title>
<path fill="none" stroke="midnightblue" d="M378.687,-121.449C395.908,-129.264 417.909,-138.768 438,-146 447.975,-149.591 458.933,-153.002 469.121,-155.957"/>
<polygon fill="midnightblue" stroke="midnightblue" points="379.7,-118.063 369.151,-117.073 376.78,-124.425 379.7,-118.063"/>
</g>
<!-- Node6 -->
<g id="node11" class="node"><title>Node6</title>
<a xlink:href="class_r_t_x_1_1_odbc_point_record.html" target="_top" xlink:title="A persistence class for SCADA databases. ">
<polygon fill="white" stroke="black" points="447.844,-117 447.844,-137 568.156,-137 568.156,-117 447.844,-117"/>
<text text-anchor="middle" x="508" y="-123" font-family="Helvetica,sans-Serif" font-size="10.00">RTX::OdbcPointRecord</text>
</a>
</g>
<!-- Node1&#45;&gt;Node6 -->
<g id="edge10" class="edge"><title>Node1&#45;&gt;Node6</title>
<path fill="none" stroke="midnightblue" d="M412.049,-115.056C423.847,-116.541 436.118,-118.084 447.766,-119.549"/>
<polygon fill="midnightblue" stroke="midnightblue" points="412.189,-111.547 401.83,-113.771 411.315,-118.492 412.189,-111.547"/>
</g>
<!-- Node9 -->
<g id="node17" class="node"><title>Node9</title>
<a xlink:href="class_r_t_x_1_1_sqlite_point_record.html" target="_top" xlink:title="RTX::SqlitePointRecord">
<polygon fill="white" stroke="black" points="447.288,-78 447.288,-98 568.712,-98 568.712,-78 447.288,-78"/>
<text text-anchor="middle" x="508" y="-84" font-family="Helvetica,sans-Serif" font-size="10.00">RTX::SqlitePointRecord</text>
</a>
</g>
<!-- Node1&#45;&gt;Node9 -->
<g id="edge16" class="edge"><title>Node1&#45;&gt;Node9</title>
<path fill="none" stroke="midnightblue" d="M411.923,-99.3614C423.574,-97.9692 435.689,-96.5214 447.215,-95.1442"/>
<polygon fill="midnightblue" stroke="midnightblue" points="411.344,-95.9056 401.83,-100.567 412.175,-102.856 411.344,-95.9056"/>
</g>
<!-- Node10 -->
<g id="node19" class="node"><title>Node10</title>
<a xlink:href="class_r_t_x_1_1_tempo_db_point_record.html" target="_top" xlink:title="RTX::TempoDbPointRecord">
<polygon fill="white" stroke="black" points="438.396,-39 438.396,-59 577.604,-59 577.604,-39 438.396,-39"/>
<text text-anchor="middle" x="508" y="-45" font-family="Helvetica,sans-Serif" font-size="10.00">RTX::TempoDbPointRecord</text>
</a>
</g>
<!-- Node1&#45;&gt;Node10 -->
<g id="edge18" class="edge"><title>Node1&#45;&gt;Node10</title>
<path fill="none" stroke="midnightblue" d="M378.65,-92.4456C395.859,-84.598 417.861,-75.0968 438,-68 447.258,-64.7376 457.373,-61.6794 466.934,-59.0099"/>
<polygon fill="midnightblue" stroke="midnightblue" points="376.734,-89.4751 369.121,-96.8444 379.668,-95.8306 376.734,-89.4751"/>
</g>
<!-- Node11 -->
<g id="node21" class="node"><title>Node11</title>
<a xlink:href="class_r_t_x_1_1_tsdb_point_record.html" target="_top" xlink:title="RTX::TsdbPointRecord">
<polygon fill="white" stroke="black" points="449.233,-0 449.233,-20 566.767,-20 566.767,-0 449.233,-0"/>
<text text-anchor="middle" x="508" y="-6" font-family="Helvetica,sans-Serif" font-size="10.00">RTX::TsdbPointRecord</text>
</a>
</g>
<!-- Node1&#45;&gt;Node11 -->
<g id="edge20" class="edge"><title>Node1&#45;&gt;Node11</title>
<path fill="none" stroke="midnightblue" d="M363.765,-89.3352C380.516,-71.6078 408.596,-44.7367 438,-29 444.682,-25.4237 452.098,-22.4729 459.518,-20.0526"/>
<polygon fill="midnightblue" stroke="midnightblue" points="361.117,-87.0438 356.902,-96.764 366.259,-91.794 361.117,-87.0438"/>
</g>
<!-- Node2 -->
<g id="node2" class="node"><title>Node2</title>
<a xlink:href="class_r_t_x_1_1_buffer_point_record.html" target="_top" xlink:title="RTX::BufferPointRecord">
<polygon fill="white" stroke="black" points="132.543,-97 132.543,-117 255.457,-117 255.457,-97 132.543,-97"/>
<text text-anchor="middle" x="194" y="-103" font-family="Helvetica,sans-Serif" font-size="10.00">RTX::BufferPointRecord</text>
</a>
</g>
<!-- Node2&#45;&gt;Node1 -->
<g id="edge2" class="edge"><title>Node2&#45;&gt;Node1</title>
<path fill="none" stroke="midnightblue" d="M265.602,-107C274.567,-107 283.624,-107 292.265,-107"/>
<polygon fill="midnightblue" stroke="midnightblue" points="265.547,-103.5 255.547,-107 265.547,-110.5 265.547,-103.5"/>
</g>
<!-- Node3 -->
<g id="node4" class="node"><title>Node3</title>
<a xlink:href="class_r_t_x_1_1_point_record.html" target="_top" xlink:title="A Point Record Class for storing and retrieving Points. ">
<polygon fill="white" stroke="black" points="-0.205078,-97 -0.205078,-117 96.2051,-117 96.2051,-97 -0.205078,-97"/>
<text text-anchor="middle" x="48" y="-103" font-family="Helvetica,sans-Serif" font-size="10.00">RTX::PointRecord</text>
</a>
</g>
<!-- Node3&#45;&gt;Node2 -->
<g id="edge4" class="edge"><title>Node3&#45;&gt;Node2</title>
<path fill="none" stroke="midnightblue" d="M106.698,-107C115.157,-107 123.889,-107 132.404,-107"/>
<polygon fill="midnightblue" stroke="midnightblue" points="106.55,-103.5 96.5501,-107 106.55,-110.5 106.55,-103.5"/>
</g>
<!-- Node7 -->
<g id="node13" class="node"><title>Node7</title>
<a xlink:href="class_r_t_x_1_1_odbc_direct_point_record.html" target="_top" xlink:title="RTX::OdbcDirectPointRecord">
<polygon fill="white" stroke="black" points="621.788,-136 621.788,-156 768.212,-156 768.212,-136 621.788,-136"/>
<text text-anchor="middle" x="695" y="-142" font-family="Helvetica,sans-Serif" font-size="10.00">RTX::OdbcDirectPointRecord</text>
</a>
</g>
<!-- Node6&#45;&gt;Node7 -->
<g id="edge12" class="edge"><title>Node6&#45;&gt;Node7</title>
<path fill="none" stroke="midnightblue" d="M578.446,-134.132C592.596,-135.586 607.516,-137.118 621.761,-138.581"/>
<polygon fill="midnightblue" stroke="midnightblue" points="578.604,-130.63 568.299,-133.09 577.889,-137.594 578.604,-130.63"/>
</g>
<!-- Node8 -->
<g id="node15" class="node"><title>Node8</title>
<a xlink:href="class_r_t_x_1_1_odbc_prepared_point_record.html" target="_top" xlink:title="RTX::OdbcPreparedPointRecord">
<polygon fill="white" stroke="black" points="614.275,-97 614.275,-117 775.725,-117 775.725,-97 614.275,-97"/>
<text text-anchor="middle" x="695" y="-103" font-family="Helvetica,sans-Serif" font-size="10.00">RTX::OdbcPreparedPointRecord</text>
</a>
</g>
<!-- Node6&#45;&gt;Node8 -->
<g id="edge14" class="edge"><title>Node6&#45;&gt;Node8</title>
<path fill="none" stroke="midnightblue" d="M578.387,-119.499C590.043,-118.239 602.222,-116.922 614.118,-115.636"/>
<polygon fill="midnightblue" stroke="midnightblue" points="577.864,-116.035 568.299,-120.589 578.617,-122.994 577.864,-116.035"/>
</g>
</g>
</svg>
        <g id="navigator" transform="translate(0 0)" fill="#404254">
                <rect fill="#f2f5e9" fill-opacity="0.5" stroke="#606060" stroke-width=".5" x="0" y="0" width="60" height="60"/>
                <use id="zoomplus" xlink:href="#zoomPlus" x="17" y="9" onmousedown="handleZoom(evt,'in')"/>
                <use id="zoomminus" xlink:href="#zoomMin" x="42" y="9" onmousedown="handleZoom(evt,'out')"/>
                <use id="reset" xlink:href="#resetDef" x="30" y="36" onmousedown="handleReset()"/>
                <g id="arrowUp" xlink:href="#dirArrow" transform="translate(30 24)" onmousedown="handlePan(0,-1)">
                  <use xlink:href="#rim" fill="#404040">
                        <set attributeName="fill" to="#808080" begin="arrowUp.mouseover" end="arrowUp.mouseout"/>
                  </use>
                  <path fill="none" stroke="white" stroke-width="1.5" d="M0,-3.0v7 M-2.5,-0.5L0,-3.0L2.5,-0.5"/>
                </g>
                <g id="arrowRight" xlink:href="#dirArrow" transform="rotate(90) translate(36 -43)" onmousedown="handlePan(1,0)">
                  <use xlink:href="#rim" fill="#404040">
                        <set attributeName="fill" to="#808080" begin="arrowRight.mouseover" end="arrowRight.mouseout"/>
                  </use>
                  <path fill="none" stroke="white" stroke-width="1.5" d="M0,-3.0v7 M-2.5,-0.5L0,-3.0L2.5,-0.5"/>
                </g>
                <g id="arrowDown" xlink:href="#dirArrow" transform="rotate(180) translate(-30 -48)" onmousedown="handlePan(0,1)">
                  <use xlink:href="#rim" fill="#404040">
                        <set attributeName="fill" to="#808080" begin="arrowDown.mouseover" end="arrowDown.mouseout"/>
                  </use>
                  <path fill="none" stroke="white" stroke-width="1.5" d="M0,-3.0v7 M-2.5,-0.5L0,-3.0L2.5,-0.5"/>
                </g>
                <g id="arrowLeft" xlink:href="#dirArrow" transform="rotate(270) translate(-36 17)" onmousedown="handlePan(-1,0)">
                  <use xlink:href="#rim" fill="#404040">
                        <set attributeName="fill" to="#808080" begin="arrowLeft.mouseover" end="arrowLeft.mouseout"/>
                  </use>
                  <path fill="none" stroke="white" stroke-width="1.5" d="M0,-3.0v7 M-2.5,-0.5L0,-3.0L2.5,-0.5"/>
                </g>
        </g>
        <svg viewBox="0 0 15 15" width="100%" height="30px" preserveAspectRatio="xMaxYMin meet">
         <g id="arrow_out" transform="scale(0.3 0.3)">
          <a xlink:href="class_r_t_x_1_1_db_point_record__inherit__graph_org.svg" target="_base">
           <rect id="button" ry="5" rx="5" y="6" x="6" height="38" width="38"
                fill="#f2f5e9" fill-opacity="0.5" stroke="#606060" stroke-width="1.0"/>
           <path id="arrow"
             d="M 11.500037,31.436501 C 11.940474,20.09759 22.043105,11.32322 32.158766,21.979434 L 37.068811,17.246167 C 37.068811,17.246167 37.088388,32 37.088388,32 L 22.160133,31.978069 C 22.160133,31.978069 26.997745,27.140456 26.997745,27.140456 C 18.528582,18.264221 13.291696,25.230495 11.500037,31.436501 z"
             style="fill:#404040;"/>
          </a>
         </g>
        </svg>
</svg>
