<?xml version="1.0" encoding="UTF-8" standalone="no"?>
<!DOCTYPE svg PUBLIC "-//W3C//DTD SVG 1.1//EN"
 "http://www.w3.org/Graphics/SVG/1.1/DTD/svg11.dtd">
<!-- Generated by graphviz version 2.28.0 (20110509.1545)
 -->
<!-- Title: RTX::MysqlPointRecord Pages: 1 -->
<svg width="130pt" height="204pt"
 viewBox="0.00 0.00 130.00 204.00" xmlns="http://www.w3.org/2000/svg" xmlns:xlink="http://www.w3.org/1999/xlink">
<g id="graph1" class="graph" transform="scale(1 1) rotate(0) translate(4 200)">
<title>RTX::MysqlPointRecord</title>
<polygon fill="white" stroke="white" points="-4,5 -4,-200 127,-200 127,5 -4,5"/>
<!-- Node1 -->
<g id="node1" class="node"><title>Node1</title>
<polygon fill="#bfbfbf" stroke="black" points="-0.261719,-1 -0.261719,-21 122.262,-21 122.262,-1 -0.261719,-1"/>
<text text-anchor="middle" x="61" y="-7" font-family="Helvetica,sans-Serif" font-size="10.00">RTX::MysqlPointRecord</text>
</g>
<!-- Node2 -->
<g id="node2" class="node"><title>Node2</title>
<a xlink:href="class_r_t_x_1_1_db_point_record.html" target="_top" xlink:title="A persistence layer for databases.">
<polygon fill="white" stroke="black" points="6.40332,-59 6.40332,-79 115.597,-79 115.597,-59 6.40332,-59"/>
<text text-anchor="middle" x="61" y="-65" font-family="Helvetica,sans-Serif" font-size="10.00">RTX::DbPointRecord</text>
</a>
</g>
<!-- Node2&#45;&gt;Node1 -->
<g id="edge2" class="edge"><title>Node2&#45;&gt;Node1</title>
<path fill="none" stroke="midnightblue" d="M61,-48.7065C61,-39.3384 61,-28.5262 61,-21.0752"/>
<polygon fill="midnightblue" stroke="midnightblue" points="57.5001,-48.7527 61,-58.7527 64.5001,-48.7528 57.5001,-48.7527"/>
</g>
<!-- Node3 -->
<g id="node4" class="node"><title>Node3</title>
<a xlink:href="class_r_t_x_1_1_buffer_point_record.html" target="_top" xlink:title="RTX::BufferPointRecord">
<polygon fill="white" stroke="black" points="-0.457031,-117 -0.457031,-137 122.457,-137 122.457,-117 -0.457031,-117"/>
<text text-anchor="middle" x="61" y="-123" font-family="Helvetica,sans-Serif" font-size="10.00">RTX::BufferPointRecord</text>
</a>
</g>
<!-- Node3&#45;&gt;Node2 -->
<g id="edge4" class="edge"><title>Node3&#45;&gt;Node2</title>
<path fill="none" stroke="midnightblue" d="M61,-106.707C61,-97.3384 61,-86.5262 61,-79.0752"/>
<polygon fill="midnightblue" stroke="midnightblue" points="57.5001,-106.753 61,-116.753 64.5001,-106.753 57.5001,-106.753"/>
</g>
<!-- Node4 -->
<g id="node6" class="node"><title>Node4</title>
<a xlink:href="class_r_t_x_1_1_point_record.html" target="_top" xlink:title="A Point Record Class for storing and retrieving Points.">
<polygon fill="white" stroke="black" points="12.7949,-175 12.7949,-195 109.205,-195 109.205,-175 12.7949,-175"/>
<text text-anchor="middle" x="61" y="-181" font-family="Helvetica,sans-Serif" font-size="10.00">RTX::PointRecord</text>
</a>
</g>
<!-- Node4&#45;&gt;Node3 -->
<g id="edge6" class="edge"><title>Node4&#45;&gt;Node3</title>
<path fill="none" stroke="midnightblue" d="M61,-164.707C61,-155.338 61,-144.526 61,-137.075"/>
<polygon fill="midnightblue" stroke="midnightblue" points="57.5001,-164.753 61,-174.753 64.5001,-164.753 57.5001,-164.753"/>
</g>
</g>
</svg>
