<?xml version="1.0" encoding="UTF-8" standalone="no"?>
<!DOCTYPE svg PUBLIC "-//W3C//DTD SVG 1.1//EN"
 "http://www.w3.org/Graphics/SVG/1.1/DTD/svg11.dtd">
<!-- Generated by graphviz version 2.28.0 (20110509.1545)
 -->
<!-- Title: RTX::OdbcDirectPointRecord Pages: 1 -->
<svg width="154pt" height="262pt"
 viewBox="0.00 0.00 154.00 262.00" xmlns="http://www.w3.org/2000/svg" xmlns:xlink="http://www.w3.org/1999/xlink">
<g id="graph1" class="graph" transform="scale(1 1) rotate(0) translate(4 258)">
<title>RTX::OdbcDirectPointRecord</title>
<polygon fill="white" stroke="white" points="-4,5 -4,-258 151,-258 151,5 -4,5"/>
<!-- Node1 -->
<g id="node1" class="node"><title>Node1</title>
<polygon fill="#bfbfbf" stroke="black" points="-0.212402,-1 -0.212402,-21 146.212,-21 146.212,-1 -0.212402,-1"/>
<text text-anchor="middle" x="73" y="-7" font-family="Helvetica,sans-Serif" font-size="10.00">RTX::OdbcDirectPointRecord</text>
</g>
<!-- Node2 -->
<g id="node2" class="node"><title>Node2</title>
<a xlink:href="class_r_t_x_1_1_odbc_point_record.html" target="_top" xlink:title="A persistence class for SCADA databases. ">
<polygon fill="white" stroke="black" points="12.8442,-59 12.8442,-79 133.156,-79 133.156,-59 12.8442,-59"/>
<text text-anchor="middle" x="73" y="-65" font-family="Helvetica,sans-Serif" font-size="10.00">RTX::OdbcPointRecord</text>
</a>
</g>
<!-- Node2&#45;&gt;Node1 -->
<g id="edge2" class="edge"><title>Node2&#45;&gt;Node1</title>
<path fill="none" stroke="midnightblue" d="M73,-48.7065C73,-39.3384 73,-28.5262 73,-21.0752"/>
<polygon fill="midnightblue" stroke="midnightblue" points="69.5001,-48.7527 73,-58.7527 76.5001,-48.7528 69.5001,-48.7527"/>
</g>
<!-- Node3 -->
<g id="node4" class="node"><title>Node3</title>
<a xlink:href="class_r_t_x_1_1_db_point_record.html" target="_top" xlink:title="A persistence layer for databases. ">
<polygon fill="white" stroke="black" points="18.4033,-117 18.4033,-137 127.597,-137 127.597,-117 18.4033,-117"/>
<text text-anchor="middle" x="73" y="-123" font-family="Helvetica,sans-Serif" font-size="10.00">RTX::DbPointRecord</text>
</a>
</g>
<!-- Node3&#45;&gt;Node2 -->
<g id="edge4" class="edge"><title>Node3&#45;&gt;Node2</title>
<path fill="none" stroke="midnightblue" d="M73,-106.707C73,-97.3384 73,-86.5262 73,-79.0752"/>
<polygon fill="midnightblue" stroke="midnightblue" points="69.5001,-106.753 73,-116.753 76.5001,-106.753 69.5001,-106.753"/>
</g>
<!-- Node4 -->
<g id="node6" class="node"><title>Node4</title>
<a xlink:href="class_r_t_x_1_1_buffer_point_record.html" target="_top" xlink:title="RTX::BufferPointRecord">
<polygon fill="white" stroke="black" points="11.543,-175 11.543,-195 134.457,-195 134.457,-175 11.543,-175"/>
<text text-anchor="middle" x="73" y="-181" font-family="Helvetica,sans-Serif" font-size="10.00">RTX::BufferPointRecord</text>
</a>
</g>
<!-- Node4&#45;&gt;Node3 -->
<g id="edge6" class="edge"><title>Node4&#45;&gt;Node3</title>
<path fill="none" stroke="midnightblue" d="M73,-164.707C73,-155.338 73,-144.526 73,-137.075"/>
<polygon fill="midnightblue" stroke="midnightblue" points="69.5001,-164.753 73,-174.753 76.5001,-164.753 69.5001,-164.753"/>
</g>
<!-- Node5 -->
<g id="node8" class="node"><title>Node5</title>
<a xlink:href="class_r_t_x_1_1_point_record.html" target="_top" xlink:title="A Point Record Class for storing and retrieving Points. ">
<polygon fill="white" stroke="black" points="24.7949,-233 24.7949,-253 121.205,-253 121.205,-233 24.7949,-233"/>
<text text-anchor="middle" x="73" y="-239" font-family="Helvetica,sans-Serif" font-size="10.00">RTX::PointRecord</text>
</a>
</g>
<!-- Node5&#45;&gt;Node4 -->
<g id="edge8" class="edge"><title>Node5&#45;&gt;Node4</title>
<path fill="none" stroke="midnightblue" d="M73,-222.707C73,-213.338 73,-202.526 73,-195.075"/>
<polygon fill="midnightblue" stroke="midnightblue" points="69.5001,-222.753 73,-232.753 76.5001,-222.753 69.5001,-222.753"/>
</g>
</g>
</svg>
