<?xml version="1.0" encoding="UTF-8" standalone="no"?>
<!DOCTYPE svg PUBLIC "-//W3C//DTD SVG 1.1//EN"
 "http://www.w3.org/Graphics/SVG/1.1/DTD/svg11.dtd">
<!-- Generated by graphviz version 2.28.0 (20110509.1545)
 -->
<!-- Title: RTX::ModularTimeSeries Pages: 1 -->
<svg width="418pt" height="184pt"
 viewBox="0.00 0.00 418.00 184.00" xmlns="http://www.w3.org/2000/svg" xmlns:xlink="http://www.w3.org/1999/xlink">
<g id="graph1" class="graph" transform="scale(1 1) rotate(0) translate(4 180)">
<title>RTX::ModularTimeSeries</title>
<polygon fill="white" stroke="white" points="-4,5 -4,-180 415,-180 415,5 -4,5"/>
<!-- Node1 -->
<g id="node1" class="node"><title>Node1</title>
<polygon fill="#bfbfbf" stroke="black" points="128.146,-78 128.146,-98 255.854,-98 255.854,-78 128.146,-78"/>
<text text-anchor="middle" x="192" y="-84" font-family="Helvetica,sans-Serif" font-size="10.00">RTX::ModularTimeSeries</text>
</g>
<!-- Node3 -->
<g id="node5" class="node"><title>Node3</title>
<a xlink:href="class_r_t_x_1_1_curve_function.html" target="_top" xlink:title="A Curve Function Class to perform arbitrary mapping of values.">
<polygon fill="white" stroke="black" points="297.795,-156 297.795,-176 404.205,-176 404.205,-156 297.795,-156"/>
<text text-anchor="middle" x="351" y="-162" font-family="Helvetica,sans-Serif" font-size="10.00">RTX::CurveFunction</text>
</a>
</g>
<!-- Node1&#45;&gt;Node3 -->
<g id="edge4" class="edge"><title>Node1&#45;&gt;Node3</title>
<path fill="none" stroke="midnightblue" d="M216.499,-103.559C236.122,-116.108 265.127,-133.643 292,-146 299.935,-149.649 308.738,-153.012 317.038,-155.899"/>
<polygon fill="midnightblue" stroke="midnightblue" points="218.224,-100.507 207.927,-98.0123 214.421,-106.384 218.224,-100.507"/>
</g>
<!-- Node4 -->
<g id="node7" class="node"><title>Node4</title>
<a xlink:href="class_r_t_x_1_1_first_derivative.html" target="_top" xlink:title="RTX::FirstDerivative">
<polygon fill="white" stroke="black" points="298.361,-117 298.361,-137 403.639,-137 403.639,-117 298.361,-117"/>
<text text-anchor="middle" x="351" y="-123" font-family="Helvetica,sans-Serif" font-size="10.00">RTX::FirstDerivative</text>
</a>
</g>
<!-- Node1&#45;&gt;Node4 -->
<g id="edge6" class="edge"><title>Node1&#45;&gt;Node4</title>
<path fill="none" stroke="midnightblue" d="M243.35,-100.507C264.803,-105.837 289.49,-111.969 309.706,-116.991"/>
<polygon fill="midnightblue" stroke="midnightblue" points="243.98,-97.0576 233.431,-98.0435 242.293,-103.851 243.98,-97.0576"/>
</g>
<!-- Node5 -->
<g id="node9" class="node"><title>Node5</title>
<a xlink:href="class_r_t_x_1_1_moving_average.html" target="_top" xlink:title="RTX::MovingAverage">
<polygon fill="white" stroke="black" points="295.656,-78 295.656,-98 406.344,-98 406.344,-78 295.656,-78"/>
<text text-anchor="middle" x="351" y="-84" font-family="Helvetica,sans-Serif" font-size="10.00">RTX::MovingAverage</text>
</a>
</g>
<!-- Node1&#45;&gt;Node5 -->
<g id="edge8" class="edge"><title>Node1&#45;&gt;Node5</title>
<path fill="none" stroke="midnightblue" d="M266.209,-88C276.114,-88 286.133,-88 295.629,-88"/>
<polygon fill="midnightblue" stroke="midnightblue" points="265.953,-84.5001 255.953,-88 265.953,-91.5001 265.953,-84.5001"/>
</g>
<!-- Node6 -->
<g id="node11" class="node"><title>Node6</title>
<a xlink:href="class_r_t_x_1_1_offset_time_series.html" target="_top" xlink:title="RTX::OffsetTimeSeries">
<polygon fill="white" stroke="black" points="291.96,-39 291.96,-59 410.04,-59 410.04,-39 291.96,-39"/>
<text text-anchor="middle" x="351" y="-45" font-family="Helvetica,sans-Serif" font-size="10.00">RTX::OffsetTimeSeries</text>
</a>
</g>
<!-- Node1&#45;&gt;Node6 -->
<g id="edge10" class="edge"><title>Node1&#45;&gt;Node6</title>
<path fill="none" stroke="midnightblue" d="M243.35,-75.4926C264.803,-70.1635 289.49,-64.0312 309.706,-59.0094"/>
<polygon fill="midnightblue" stroke="midnightblue" points="242.293,-72.1489 233.431,-77.9565 243.98,-78.9424 242.293,-72.1489"/>
</g>
<!-- Node7 -->
<g id="node13" class="node"><title>Node7</title>
<a xlink:href="class_r_t_x_1_1_resampler.html" target="_top" xlink:title="RTX::Resampler">
<polygon fill="white" stroke="black" points="306.135,-0 306.135,-20 395.865,-20 395.865,-0 306.135,-0"/>
<text text-anchor="middle" x="351" y="-6" font-family="Helvetica,sans-Serif" font-size="10.00">RTX::Resampler</text>
</a>
</g>
<!-- Node1&#45;&gt;Node7 -->
<g id="edge12" class="edge"><title>Node1&#45;&gt;Node7</title>
<path fill="none" stroke="midnightblue" d="M216.069,-72.2554C235.643,-59.3918 264.801,-41.3755 292,-29 299.33,-25.6649 307.419,-22.6354 315.172,-20.0241"/>
<polygon fill="midnightblue" stroke="midnightblue" points="213.921,-69.4811 207.536,-77.9365 217.8,-75.3079 213.921,-69.4811"/>
</g>
<!-- Node2 -->
<g id="node2" class="node"><title>Node2</title>
<a xlink:href="class_r_t_x_1_1_time_series.html" target="_top" xlink:title="An abstraction of Points ordered in time.">
<polygon fill="white" stroke="black" points="0.209473,-78 0.209473,-98 91.7905,-98 91.7905,-78 0.209473,-78"/>
<text text-anchor="middle" x="46" y="-84" font-family="Helvetica,sans-Serif" font-size="10.00">RTX::TimeSeries</text>
</a>
</g>
<!-- Node2&#45;&gt;Node1 -->
<g id="edge2" class="edge"><title>Node2&#45;&gt;Node1</title>
<path fill="none" stroke="midnightblue" d="M102.266,-88C110.705,-88 119.468,-88 128.057,-88"/>
<polygon fill="midnightblue" stroke="midnightblue" points="102.167,-84.5001 92.1674,-88 102.167,-91.5001 102.167,-84.5001"/>
</g>
</g>
</svg>
