<?xml version="1.0" encoding="UTF-8" standalone="no"?>
<!DOCTYPE svg PUBLIC "-//W3C//DTD SVG 1.1//EN"
 "http://www.w3.org/Graphics/SVG/1.1/DTD/svg11.dtd">
<!-- Generated by graphviz version 2.28.0 (20110509.1545)
 -->
<!-- Title: RTX::DbPointRecord::RtxDbRetrievalException Pages: 1 -->
<svg width="140pt" height="158pt"
 viewBox="0.00 0.00 140.00 158.00" xmlns="http://www.w3.org/2000/svg" xmlns:xlink="http://www.w3.org/1999/xlink">
<g id="graph1" class="graph" transform="scale(1 1) rotate(0) translate(4 154)">
<title>RTX::DbPointRecord::RtxDbRetrievalException</title>
<polygon fill="white" stroke="white" points="-4,5 -4,-154 137,-154 137,5 -4,5"/>
<!-- Node1 -->
<g id="node1" class="node"><title>Node1</title>
<polygon fill="#bfbfbf" stroke="black" points="-0.356934,-1 -0.356934,-33 132.357,-33 132.357,-1 -0.356934,-1"/>
<text text-anchor="start" x="7.64307" y="-19" font-family="Helvetica,sans-Serif" font-size="10.00">RTX::DbPointRecord</text>
<text text-anchor="middle" x="66" y="-7" font-family="Helvetica,sans-Serif" font-size="10.00">::RtxDbRetrievalException</text>
</g>
<!-- Node2 -->
<g id="node2" class="node"><title>Node2</title>
<a xlink:href="class_r_t_x_1_1_rtx_exception.html" target="_top" xlink:title="RTX::RtxException">
<polygon fill="white" stroke="black" points="15.8516,-71 15.8516,-91 116.148,-91 116.148,-71 15.8516,-71"/>
<text text-anchor="middle" x="66" y="-77" font-family="Helvetica,sans-Serif" font-size="10.00">RTX::RtxException</text>
</a>
</g>
<!-- Node2&#45;&gt;Node1 -->
<g id="edge2" class="edge"><title>Node2&#45;&gt;Node1</title>
<path fill="none" stroke="midnightblue" d="M66,-60.7747C66,-51.9863 66,-41.715 66,-33.4404"/>
<polygon fill="midnightblue" stroke="midnightblue" points="62.5001,-60.8517 66,-70.8517 69.5001,-60.8517 62.5001,-60.8517"/>
</g>
<!-- Node3 -->
<g id="node4" class="node"><title>Node3</title>
<a xlink:title="STL class.">
<polygon fill="white" stroke="#bfbfbf" points="27.1479,-129 27.1479,-149 104.852,-149 104.852,-129 27.1479,-129"/>
<text text-anchor="middle" x="66" y="-135" font-family="Helvetica,sans-Serif" font-size="10.00">std::exception</text>
</a>
</g>
<!-- Node3&#45;&gt;Node2 -->
<g id="edge4" class="edge"><title>Node3&#45;&gt;Node2</title>
<path fill="none" stroke="midnightblue" d="M66,-118.707C66,-109.338 66,-98.5262 66,-91.0752"/>
<polygon fill="midnightblue" stroke="midnightblue" points="62.5001,-118.753 66,-128.753 69.5001,-118.753 62.5001,-118.753"/>
</g>
</g>
</svg>
