<?xml version="1.0" encoding="UTF-8" standalone="no"?>
<!DOCTYPE svg PUBLIC "-//W3C//DTD SVG 1.1//EN"
 "http://www.w3.org/Graphics/SVG/1.1/DTD/svg11.dtd">
<!-- Generated by graphviz version 2.28.0 (20110509.1545)
 -->
<!-- Title: RTX::PointRecord Pages: 1 -->
<svg width="309pt" height="254pt"
 viewBox="0.00 0.00 309.38 254.00" xmlns="http://www.w3.org/2000/svg" xmlns:xlink="http://www.w3.org/1999/xlink">
<g id="graph1" class="graph" transform="scale(1 1) rotate(0) translate(4 250)">
<title>RTX::PointRecord</title>
<polygon fill="white" stroke="white" points="-4,5 -4,-250 306.379,-250 306.379,5 -4,5"/>
<!-- Node1 -->
<g id="node1" class="node"><title>Node1</title>
<polygon fill="#bfbfbf" stroke="black" points="93.7949,-1 93.7949,-21 190.205,-21 190.205,-1 93.7949,-1"/>
<text text-anchor="middle" x="142" y="-7" font-family="Helvetica,sans-Serif" font-size="10.00">RTX::PointRecord</text>
</g>
<!-- Node2 -->
<g id="node2" class="node"><title>Node2</title>
<polygon fill="white" stroke="#bfbfbf" points="87.4521,-71 87.4521,-103 196.548,-103 196.548,-71 87.4521,-71"/>
<text text-anchor="start" x="95.4521" y="-89" font-family="Helvetica,sans-Serif" font-size="10.00">std::map&lt; std::string,</text>
<text text-anchor="middle" x="142" y="-77" font-family="Helvetica,sans-Serif" font-size="10.00"> RTX::Point &gt;</text>
</g>
<!-- Node2&#45;&gt;Node1 -->
<g id="edge2" class="edge"><title>Node2&#45;&gt;Node1</title>
<path fill="none" stroke="#9a32cd" stroke-dasharray="5,2" d="M142,-60.4304C142,-46.8589 142,-31.0122 142,-21.2412"/>
<polygon fill="#9a32cd" stroke="#9a32cd" points="138.5,-60.6671 142,-70.6672 145.5,-60.6672 138.5,-60.6671"/>
<text text-anchor="middle" x="171.465" y="-42" font-family="Helvetica,sans-Serif" font-size="10.00"> _pointCache</text>
</g>
<!-- Node3 -->
<g id="node4" class="node"><title>Node3</title>
<a xlink:title="STL class. ">
<polygon fill="white" stroke="#bfbfbf" points="17.3252,-153 17.3252,-173 76.6748,-173 76.6748,-153 17.3252,-153"/>
<text text-anchor="middle" x="47" y="-159" font-family="Helvetica,sans-Serif" font-size="10.00">std::string</text>
</a>
</g>
<!-- Node3&#45;&gt;Node1 -->
<g id="edge10" class="edge"><title>Node3&#45;&gt;Node1</title>
<path fill="none" stroke="#9a32cd" stroke-dasharray="5,2" d="M30.1426,-145.542C12.7031,-126.458 -9.88499,-94.4893 6.28125,-70 25.5504,-40.8102 62.8564,-26.2589 93.4864,-19.0343"/>
<polygon fill="#9a32cd" stroke="#9a32cd" points="27.7256,-148.078 37.1735,-152.873 32.7776,-143.233 27.7256,-148.078"/>
<text text-anchor="middle" x="42.8594" y="-83" font-family="Helvetica,sans-Serif" font-size="10.00"> _cachedPointId</text>
</g>
<!-- Node3&#45;&gt;Node2 -->
<g id="edge4" class="edge"><title>Node3&#45;&gt;Node2</title>
<path fill="none" stroke="#9a32cd" stroke-dasharray="5,2" d="M66.9861,-146.432C83.3845,-133.658 106.46,-115.684 122.675,-103.053"/>
<polygon fill="#9a32cd" stroke="#9a32cd" points="64.3871,-144.02 58.6489,-152.926 68.6887,-149.542 64.3871,-144.02"/>
<text text-anchor="middle" x="109.67" y="-124" font-family="Helvetica,sans-Serif" font-size="10.00"> keys</text>
</g>
<!-- Node4 -->
<g id="node6" class="node"><title>Node4</title>
<a xlink:title="STL class. ">
<polygon fill="white" stroke="#bfbfbf" points="-0.0478516,-213 -0.0478516,-245 94.0479,-245 94.0479,-213 -0.0478516,-213"/>
<text text-anchor="start" x="7.95215" y="-231" font-family="Helvetica,sans-Serif" font-size="10.00">std::basic_string&lt;</text>
<text text-anchor="middle" x="47" y="-219" font-family="Helvetica,sans-Serif" font-size="10.00"> char &gt;</text>
</a>
</g>
<!-- Node4&#45;&gt;Node3 -->
<g id="edge6" class="edge"><title>Node4&#45;&gt;Node3</title>
<path fill="none" stroke="midnightblue" d="M47,-202.611C47,-192.286 47,-181.001 47,-173.313"/>
<polygon fill="midnightblue" stroke="midnightblue" points="43.5001,-202.833 47,-212.833 50.5001,-202.833 43.5001,-202.833"/>
</g>
<!-- Node5 -->
<g id="node8" class="node"><title>Node5</title>
<a xlink:href="class_r_t_x_1_1_point.html" target="_top" xlink:title="A Point Class to store data tuples (date, value, quality, confidence) ">
<polygon fill="white" stroke="black" points="142.913,-153 142.913,-173 207.087,-173 207.087,-153 142.913,-153"/>
<text text-anchor="middle" x="175" y="-159" font-family="Helvetica,sans-Serif" font-size="10.00">RTX::Point</text>
</a>
</g>
<!-- Node5&#45;&gt;Node1 -->
<g id="edge12" class="edge"><title>Node5&#45;&gt;Node1</title>
<path fill="none" stroke="#9a32cd" stroke-dasharray="5,2" d="M200.151,-146.633C204.138,-143.011 207.699,-138.787 210,-134 220.695,-111.747 268.89,-132.878 204,-40 197.912,-31.2864 188.442,-25.2388 178.72,-21.0597"/>
<polygon fill="#9a32cd" stroke="#9a32cd" points="197.917,-143.937 192.18,-152.845 202.22,-149.459 197.917,-143.937"/>
<text text-anchor="middle" x="269.689" y="-83" font-family="Helvetica,sans-Serif" font-size="10.00"> _cachedPoint</text>
</g>
<!-- Node5&#45;&gt;Node2 -->
<g id="edge8" class="edge"><title>Node5&#45;&gt;Node2</title>
<path fill="none" stroke="#9a32cd" stroke-dasharray="5,2" d="M166.755,-143.512C161.187,-131.025 153.928,-114.748 148.713,-103.053"/>
<polygon fill="#9a32cd" stroke="#9a32cd" points="163.684,-145.219 170.954,-152.926 170.077,-142.368 163.684,-145.219"/>
<text text-anchor="middle" x="184.677" y="-124" font-family="Helvetica,sans-Serif" font-size="10.00"> elements</text>
</g>
</g>
</svg>
