<?xml version="1.0" encoding="UTF-8" standalone="no"?>
<!DOCTYPE svg PUBLIC "-//W3C//DTD SVG 1.1//EN"
 "http://www.w3.org/Graphics/SVG/1.1/DTD/svg11.dtd">
<!-- Generated by graphviz version 2.36.0 (20140111.2315)
 -->
<!-- Title: RTX::Reservoir Pages: 1 -->
<svg width="92pt" height="196pt"
 viewBox="0.00 0.00 92.00 196.00" xmlns="http://www.w3.org/2000/svg" xmlns:xlink="http://www.w3.org/1999/xlink">
<g id="graph0" class="graph" transform="scale(1 1) rotate(0) translate(4 192)">
<title>RTX::Reservoir</title>
<polygon fill="white" stroke="none" points="-4,4 -4,-192 88,-192 88,4 -4,4"/>
<!-- Node1 -->
<g id="node1" class="node"><title>Node1</title>
<polygon fill="#bfbfbf" stroke="black" points="-0.0844727,-1 -0.0844727,-19 84.0845,-19 84.0845,-1 -0.0844727,-1"/>
<text text-anchor="middle" x="42" y="-7" font-family="Helvetica,sans-Serif" font-size="10.00">RTX::Reservoir</text>
</g>
<!-- Node2 -->
<g id="node2" class="node"><title>Node2</title>
<g id="a_node2"><a xlink:href="class_r_t_x_1_1_junction.html" target="_top" xlink:title="Junction Class. ">
<polygon fill="white" stroke="black" points="2.68652,-57 2.68652,-75 81.3135,-75 81.3135,-57 2.68652,-57"/>
<text text-anchor="middle" x="42" y="-63" font-family="Helvetica,sans-Serif" font-size="10.00">RTX::Junction</text>
</a>
</g>
</g>
<!-- Node2&#45;&gt;Node1 -->
<g id="edge1" class="edge"><title>Node2&#45;&gt;Node1</title>
<path fill="none" stroke="midnightblue" d="M42,-46.3288C42,-37.0774 42,-26.3798 42,-19.2014"/>
<polygon fill="midnightblue" stroke="midnightblue" points="38.5001,-46.5625 42,-56.5625 45.5001,-46.5625 38.5001,-46.5625"/>
</g>
<!-- Node3 -->
<g id="node3" class="node"><title>Node3</title>
<g id="a_node3"><a xlink:href="class_r_t_x_1_1_node.html" target="_top" xlink:title="Node Class. ">
<polygon fill="white" stroke="black" points="9.35645,-113 9.35645,-131 74.6436,-131 74.6436,-113 9.35645,-113"/>
<text text-anchor="middle" x="42" y="-119" font-family="Helvetica,sans-Serif" font-size="10.00">RTX::Node</text>
</a>
</g>
</g>
<!-- Node3&#45;&gt;Node2 -->
<g id="edge2" class="edge"><title>Node3&#45;&gt;Node2</title>
<path fill="none" stroke="midnightblue" d="M42,-102.329C42,-93.0774 42,-82.3798 42,-75.2014"/>
<polygon fill="midnightblue" stroke="midnightblue" points="38.5001,-102.562 42,-112.562 45.5001,-102.563 38.5001,-102.562"/>
</g>
<!-- Node4 -->
<g id="node4" class="node"><title>Node4</title>
<g id="a_node4"><a xlink:href="class_r_t_x_1_1_element.html" target="_top" xlink:title="Element Base Class. ">
<polygon fill="white" stroke="black" points="2.96729,-169 2.96729,-187 81.0327,-187 81.0327,-169 2.96729,-169"/>
<text text-anchor="middle" x="42" y="-175" font-family="Helvetica,sans-Serif" font-size="10.00">RTX::Element</text>
</a>
</g>
</g>
<!-- Node4&#45;&gt;Node3 -->
<g id="edge3" class="edge"><title>Node4&#45;&gt;Node3</title>
<path fill="none" stroke="midnightblue" d="M42,-158.329C42,-149.077 42,-138.38 42,-131.201"/>
<polygon fill="midnightblue" stroke="midnightblue" points="38.5001,-158.562 42,-168.562 45.5001,-158.563 38.5001,-158.562"/>
</g>
</g>
</svg>
