<?xml version="1.0" encoding="UTF-8" standalone="no"?>
<!DOCTYPE svg PUBLIC "-//W3C//DTD SVG 1.1//EN"
 "http://www.w3.org/Graphics/SVG/1.1/DTD/svg11.dtd">
<!-- Generated by graphviz version 2.36.0 (20140111.2315)
 -->
<!-- Title: RTX::DbPointRecord::RtxDbRetrievalException Pages: 1 -->
<svg width="140pt" height="150pt"
 viewBox="0.00 0.00 140.00 150.00" xmlns="http://www.w3.org/2000/svg" xmlns:xlink="http://www.w3.org/1999/xlink">
<g id="graph0" class="graph" transform="scale(1 1) rotate(0) translate(4 146)">
<title>RTX::DbPointRecord::RtxDbRetrievalException</title>
<polygon fill="white" stroke="none" points="-4,4 -4,-146 136,-146 136,4 -4,4"/>
<!-- Node1 -->
<g id="node1" class="node"><title>Node1</title>
<polygon fill="#bfbfbf" stroke="black" points="-0.356934,-1 -0.356934,-29 132.357,-29 132.357,-1 -0.356934,-1"/>
<text text-anchor="start" x="7.64307" y="-17" font-family="Helvetica,sans-Serif" font-size="10.00">RTX::DbPointRecord</text>
<text text-anchor="middle" x="66" y="-7" font-family="Helvetica,sans-Serif" font-size="10.00">::RtxDbRetrievalException</text>
</g>
<!-- Node2 -->
<g id="node2" class="node"><title>Node2</title>
<g id="a_node2"><a xlink:href="class_r_t_x_1_1_rtx_exception.html" target="_top" xlink:title="RTX::RtxException">
<polygon fill="white" stroke="black" points="15.8516,-67 15.8516,-85 116.148,-85 116.148,-67 15.8516,-67"/>
<text text-anchor="middle" x="66" y="-73" font-family="Helvetica,sans-Serif" font-size="10.00">RTX::RtxException</text>
</a>
</g>
</g>
<!-- Node2&#45;&gt;Node1 -->
<g id="edge1" class="edge"><title>Node2&#45;&gt;Node1</title>
<path fill="none" stroke="midnightblue" d="M66,-56.6543C66,-47.7359 66,-37.2225 66,-29.1215"/>
<polygon fill="midnightblue" stroke="midnightblue" points="62.5001,-56.7963 66,-66.7963 69.5001,-56.7963 62.5001,-56.7963"/>
</g>
<!-- Node3 -->
<g id="node3" class="node"><title>Node3</title>
<g id="a_node3"><a xlink:title="STL class. ">
<polygon fill="white" stroke="#bfbfbf" points="27.1479,-123 27.1479,-141 104.852,-141 104.852,-123 27.1479,-123"/>
<text text-anchor="middle" x="66" y="-129" font-family="Helvetica,sans-Serif" font-size="10.00">std::exception</text>
</a>
</g>
</g>
<!-- Node3&#45;&gt;Node2 -->
<g id="edge2" class="edge"><title>Node3&#45;&gt;Node2</title>
<path fill="none" stroke="midnightblue" d="M66,-112.329C66,-103.077 66,-92.3798 66,-85.2014"/>
<polygon fill="midnightblue" stroke="midnightblue" points="62.5001,-112.562 66,-122.562 69.5001,-112.563 62.5001,-112.562"/>
</g>
</g>
</svg>
