<?xml version="1.0" encoding="UTF-8" standalone="no"?>
<!DOCTYPE svg PUBLIC "-//W3C//DTD SVG 1.1//EN"
 "http://www.w3.org/Graphics/SVG/1.1/DTD/svg11.dtd">
<!-- Generated by graphviz version 2.28.0 (20110509.1545)
 -->
<!-- Title: RTX::RtxIoException Pages: 1 -->
<svg width="180pt" height="232pt"
 viewBox="0.00 0.00 180.00 232.00" xmlns="http://www.w3.org/2000/svg" xmlns:xlink="http://www.w3.org/1999/xlink">
<g id="graph1" class="graph" transform="scale(1 1) rotate(0) translate(4 228)">
<title>RTX::RtxIoException</title>
<polygon fill="white" stroke="white" points="-4,5 -4,-228 177,-228 177,5 -4,5"/>
<!-- Node1 -->
<g id="node1" class="node"><title>Node1</title>
<polygon fill="#bfbfbf" stroke="black" points="13.6816,-1 13.6816,-21 122.318,-21 122.318,-1 13.6816,-1"/>
<text text-anchor="middle" x="68" y="-7" font-family="Helvetica,sans-Serif" font-size="10.00">RTX::RtxIoException</text>
</g>
<!-- Node2 -->
<g id="node2" class="node"><title>Node2</title>
<a xlink:href="class_r_t_x_1_1_rtx_exception.html" target="_top" xlink:title="RTX::RtxException">
<polygon fill="white" stroke="black" points="17.8516,-61 17.8516,-81 118.148,-81 118.148,-61 17.8516,-61"/>
<text text-anchor="middle" x="68" y="-67" font-family="Helvetica,sans-Serif" font-size="10.00">RTX::RtxException</text>
</a>
</g>
<!-- Node2&#45;&gt;Node1 -->
<g id="edge2" class="edge"><title>Node2&#45;&gt;Node1</title>
<path fill="none" stroke="midnightblue" d="M68,-50.7309C68,-40.7807 68,-29.1016 68,-21.1903"/>
<polygon fill="midnightblue" stroke="midnightblue" points="64.5001,-50.9375 68,-60.9375 71.5001,-50.9375 64.5001,-50.9375"/>
</g>
<!-- Node3 -->
<g id="node4" class="node"><title>Node3</title>
<a xlink:title="STL class.">
<polygon fill="white" stroke="#bfbfbf" points="-0.852051,-131 -0.852051,-151 76.8521,-151 76.8521,-131 -0.852051,-131"/>
<text text-anchor="middle" x="38" y="-137" font-family="Helvetica,sans-Serif" font-size="10.00">std::exception</text>
</a>
</g>
<!-- Node3&#45;&gt;Node2 -->
<g id="edge4" class="edge"><title>Node3&#45;&gt;Node2</title>
<path fill="none" stroke="midnightblue" d="M46.2323,-121.34C52.0178,-108.226 59.5029,-91.2601 64.0182,-81.0255"/>
<polygon fill="midnightblue" stroke="midnightblue" points="42.8802,-120.267 42.0459,-130.829 49.2846,-123.093 42.8802,-120.267"/>
</g>
<!-- Node4 -->
<g id="node6" class="node"><title>Node4</title>
<a xlink:title="STL class.">
<polygon fill="white" stroke="#bfbfbf" points="95.3252,-131 95.3252,-151 154.675,-151 154.675,-131 95.3252,-131"/>
<text text-anchor="middle" x="125" y="-137" font-family="Helvetica,sans-Serif" font-size="10.00">std::string</text>
</a>
</g>
<!-- Node4&#45;&gt;Node2 -->
<g id="edge6" class="edge"><title>Node4&#45;&gt;Node2</title>
<path fill="none" stroke="#9a32cd" stroke-dasharray="5,2" d="M110.649,-122.88C99.5015,-109.581 84.4842,-91.6654 75.5655,-81.0255"/>
<polygon fill="#9a32cd" stroke="#9a32cd" points="108.206,-125.414 117.313,-130.829 113.571,-120.917 108.206,-125.414"/>
<text text-anchor="middle" x="102.889" y="-102" font-family="Helvetica,sans-Serif" font-size="10.00"> s</text>
</g>
<!-- Node5 -->
<g id="node8" class="node"><title>Node5</title>
<a xlink:title="STL class.">
<polygon fill="white" stroke="#bfbfbf" points="77.9521,-191 77.9521,-223 172.048,-223 172.048,-191 77.9521,-191"/>
<text text-anchor="start" x="85.9521" y="-209" font-family="Helvetica,sans-Serif" font-size="10.00">std::basic_string&lt;</text>
<text text-anchor="middle" x="125" y="-197" font-family="Helvetica,sans-Serif" font-size="10.00"> char &gt;</text>
</a>
</g>
<!-- Node5&#45;&gt;Node4 -->
<g id="edge8" class="edge"><title>Node5&#45;&gt;Node4</title>
<path fill="none" stroke="midnightblue" d="M125,-180.611C125,-170.286 125,-159.001 125,-151.313"/>
<polygon fill="midnightblue" stroke="midnightblue" points="121.5,-180.833 125,-190.833 128.5,-180.833 121.5,-180.833"/>
</g>
</g>
</svg>
