<?xml version="1.0" encoding="UTF-8" standalone="no"?>
<!DOCTYPE svg PUBLIC "-//W3C//DTD SVG 1.1//EN"
 "http://www.w3.org/Graphics/SVG/1.1/DTD/svg11.dtd">
<!-- Generated by graphviz version 2.36.0 (20140111.2315)
 -->
<!-- Title: RTX::BaseStatsTimeSeries Pages: 1 -->
<svg width="275pt" height="272pt"
 viewBox="0.00 0.00 275.00 272.00" xmlns="http://www.w3.org/2000/svg" xmlns:xlink="http://www.w3.org/1999/xlink">
<g id="graph0" class="graph" transform="scale(1 1) rotate(0) translate(4 268)">
<title>RTX::BaseStatsTimeSeries</title>
<polygon fill="white" stroke="none" points="-4,4 -4,-268 271,-268 271,4 -4,4"/>
<!-- Node1 -->
<g id="node1" class="node"><title>Node1</title>
<polygon fill="#bfbfbf" stroke="black" points="69.4189,-67 69.4189,-85 206.581,-85 206.581,-67 69.4189,-67"/>
<text text-anchor="middle" x="138" y="-73" font-family="Helvetica,sans-Serif" font-size="10.00">RTX::BaseStatsTimeSeries</text>
</g>
<!-- Node5 -->
<g id="node5" class="node"><title>Node5</title>
<g id="a_node5"><a xlink:href="class_r_t_x_1_1_outlier_exclusion_time_series.html" target="_top" xlink:title="RTX::OutlierExclusionTime\lSeries">
<polygon fill="white" stroke="black" points="-0.743652,-1 -0.743652,-29 134.744,-29 134.744,-1 -0.743652,-1"/>
<text text-anchor="start" x="7.25635" y="-17" font-family="Helvetica,sans-Serif" font-size="10.00">RTX::OutlierExclusionTime</text>
<text text-anchor="middle" x="67" y="-7" font-family="Helvetica,sans-Serif" font-size="10.00">Series</text>
</a>
</g>
</g>
<!-- Node1&#45;&gt;Node5 -->
<g id="edge4" class="edge"><title>Node1&#45;&gt;Node5</title>
<path fill="none" stroke="midnightblue" d="M120.102,-60.1271C108.616,-50.5824 93.8388,-38.3026 82.7903,-29.1215"/>
<polygon fill="midnightblue" stroke="midnightblue" points="118.2,-63.097 128.128,-66.7963 122.674,-57.7132 118.2,-63.097"/>
</g>
<!-- Node6 -->
<g id="node6" class="node"><title>Node6</title>
<g id="a_node6"><a xlink:href="class_r_t_x_1_1_stats_time_series.html" target="_top" xlink:title="RTX::StatsTimeSeries">
<polygon fill="white" stroke="black" points="152.815,-6 152.815,-24 267.185,-24 267.185,-6 152.815,-6"/>
<text text-anchor="middle" x="210" y="-12" font-family="Helvetica,sans-Serif" font-size="10.00">RTX::StatsTimeSeries</text>
</a>
</g>
</g>
<!-- Node1&#45;&gt;Node6 -->
<g id="edge5" class="edge"><title>Node1&#45;&gt;Node6</title>
<path fill="none" stroke="midnightblue" d="M155.954,-60.2873C169.9,-48.8595 188.719,-33.4383 200.074,-24.134"/>
<polygon fill="midnightblue" stroke="midnightblue" points="153.528,-57.7509 148.011,-66.7963 157.964,-63.1652 153.528,-57.7509"/>
</g>
<!-- Node2 -->
<g id="node2" class="node"><title>Node2</title>
<g id="a_node2"><a xlink:href="class_r_t_x_1_1_modular_time_series.html" target="_top" xlink:title="A Time Series class that allows a single upstream TimeSeries. ">
<polygon fill="white" stroke="black" points="74.1455,-123 74.1455,-141 201.854,-141 201.854,-123 74.1455,-123"/>
<text text-anchor="middle" x="138" y="-129" font-family="Helvetica,sans-Serif" font-size="10.00">RTX::ModularTimeSeries</text>
</a>
</g>
</g>
<!-- Node2&#45;&gt;Node1 -->
<g id="edge1" class="edge"><title>Node2&#45;&gt;Node1</title>
<path fill="none" stroke="midnightblue" d="M138,-112.329C138,-103.077 138,-92.3798 138,-85.2014"/>
<polygon fill="midnightblue" stroke="midnightblue" points="134.5,-112.562 138,-122.562 141.5,-112.563 134.5,-112.562"/>
</g>
<!-- Node3 -->
<g id="node3" class="node"><title>Node3</title>
<g id="a_node3"><a xlink:href="class_r_t_x_1_1_time_series.html" target="_top" xlink:title="An abstraction of Points ordered in time. ">
<polygon fill="white" stroke="black" points="92.2095,-179 92.2095,-197 183.791,-197 183.791,-179 92.2095,-179"/>
<text text-anchor="middle" x="138" y="-185" font-family="Helvetica,sans-Serif" font-size="10.00">RTX::TimeSeries</text>
</a>
</g>
</g>
<!-- Node3&#45;&gt;Node2 -->
<g id="edge2" class="edge"><title>Node3&#45;&gt;Node2</title>
<path fill="none" stroke="midnightblue" d="M138,-168.329C138,-159.077 138,-148.38 138,-141.201"/>
<polygon fill="midnightblue" stroke="midnightblue" points="134.5,-168.562 138,-178.562 141.5,-168.563 134.5,-168.562"/>
</g>
<!-- Node4 -->
<g id="node4" class="node"><title>Node4</title>
<polygon fill="white" stroke="#bfbfbf" points="73.0273,-235 73.0273,-263 202.973,-263 202.973,-235 73.0273,-235"/>
<text text-anchor="start" x="81.0273" y="-251" font-family="Helvetica,sans-Serif" font-size="10.00">boost::enable_shared</text>
<text text-anchor="middle" x="138" y="-241" font-family="Helvetica,sans-Serif" font-size="10.00">_from_this&lt; TimeSeries &gt;</text>
</g>
<!-- Node4&#45;&gt;Node3 -->
<g id="edge3" class="edge"><title>Node4&#45;&gt;Node3</title>
<path fill="none" stroke="midnightblue" d="M138,-224.886C138,-215.094 138,-204.316 138,-197.153"/>
<polygon fill="midnightblue" stroke="midnightblue" points="134.5,-224.906 138,-234.906 141.5,-224.906 134.5,-224.906"/>
</g>
</g>
</svg>
