<?xml version="1.0" encoding="UTF-8" standalone="no"?>
<!DOCTYPE svg PUBLIC "-//W3C//DTD SVG 1.1//EN"
 "http://www.w3.org/Graphics/SVG/1.1/DTD/svg11.dtd">
<!-- Generated by graphviz version 2.36.0 (20140111.2315)
 -->
<!-- Title: RTX::MapPointRecord Pages: 1 -->
<svg width="122pt" height="140pt"
 viewBox="0.00 0.00 122.00 140.00" xmlns="http://www.w3.org/2000/svg" xmlns:xlink="http://www.w3.org/1999/xlink">
<g id="graph0" class="graph" transform="scale(1 1) rotate(0) translate(4 136)">
<title>RTX::MapPointRecord</title>
<polygon fill="white" stroke="none" points="-4,4 -4,-136 118,-136 118,4 -4,4"/>
<!-- Node1 -->
<g id="node1" class="node"><title>Node1</title>
<polygon fill="#bfbfbf" stroke="black" points="-0.931641,-57 -0.931641,-75 114.932,-75 114.932,-57 -0.931641,-57"/>
<text text-anchor="middle" x="57" y="-63" font-family="Helvetica,sans-Serif" font-size="10.00">RTX::MapPointRecord</text>
</g>
<!-- Node3 -->
<g id="node3" class="node"><title>Node3</title>
<g id="a_node3"><a xlink:href="class_r_t_x_1_1_csv_point_record.html" target="_top" xlink:title="RTX::CsvPointRecord">
<polygon fill="white" stroke="black" points="0.184082,-1 0.184082,-19 113.816,-19 113.816,-1 0.184082,-1"/>
<text text-anchor="middle" x="57" y="-7" font-family="Helvetica,sans-Serif" font-size="10.00">RTX::CsvPointRecord</text>
</a>
</g>
</g>
<!-- Node1&#45;&gt;Node3 -->
<g id="edge2" class="edge"><title>Node1&#45;&gt;Node3</title>
<path fill="none" stroke="midnightblue" d="M57,-46.3288C57,-37.0774 57,-26.3798 57,-19.2014"/>
<polygon fill="midnightblue" stroke="midnightblue" points="53.5001,-46.5625 57,-56.5625 60.5001,-46.5625 53.5001,-46.5625"/>
</g>
<!-- Node2 -->
<g id="node2" class="node"><title>Node2</title>
<g id="a_node2"><a xlink:href="class_r_t_x_1_1_point_record.html" target="_top" xlink:title="A Point Record Class for storing and retrieving Points. ">
<polygon fill="white" stroke="black" points="8.79492,-113 8.79492,-131 105.205,-131 105.205,-113 8.79492,-113"/>
<text text-anchor="middle" x="57" y="-119" font-family="Helvetica,sans-Serif" font-size="10.00">RTX::PointRecord</text>
</a>
</g>
</g>
<!-- Node2&#45;&gt;Node1 -->
<g id="edge1" class="edge"><title>Node2&#45;&gt;Node1</title>
<path fill="none" stroke="midnightblue" d="M57,-102.329C57,-93.0774 57,-82.3798 57,-75.2014"/>
<polygon fill="midnightblue" stroke="midnightblue" points="53.5001,-102.562 57,-112.562 60.5001,-102.563 53.5001,-102.562"/>
</g>
</g>
</svg>
