<?xml version="1.0" encoding="UTF-8" standalone="no"?>
<!DOCTYPE svg PUBLIC "-//W3C//DTD SVG 1.1//EN"
 "http://www.w3.org/Graphics/SVG/1.1/DTD/svg11.dtd">
<!-- Generated by graphviz version 2.36.0 (20140111.2315)
 -->
<!-- Title: RTX::Element Pages: 1 -->
<svg width="341pt" height="196pt"
 viewBox="0.00 0.00 341.00 196.00" xmlns="http://www.w3.org/2000/svg" xmlns:xlink="http://www.w3.org/1999/xlink">
<g id="graph0" class="graph" transform="scale(1 1) rotate(0) translate(4 192)">
<title>RTX::Element</title>
<polygon fill="white" stroke="none" points="-4,4 -4,-192 337,-192 337,4 -4,4"/>
<!-- Node1 -->
<g id="node1" class="node"><title>Node1</title>
<polygon fill="#bfbfbf" stroke="black" points="84.9673,-169 84.9673,-187 163.033,-187 163.033,-169 84.9673,-169"/>
<text text-anchor="middle" x="124" y="-175" font-family="Helvetica,sans-Serif" font-size="10.00">RTX::Element</text>
</g>
<!-- Node2 -->
<g id="node2" class="node"><title>Node2</title>
<g id="a_node2"><a xlink:href="class_r_t_x_1_1_dma.html" target="_top" xlink:title="Dma represents a collection of junctions that can be considered together in a control volume...">
<polygon fill="white" stroke="black" points="13.7529,-113 13.7529,-131 76.2471,-131 76.2471,-113 13.7529,-113"/>
<text text-anchor="middle" x="45" y="-119" font-family="Helvetica,sans-Serif" font-size="10.00">RTX::Dma</text>
</a>
</g>
</g>
<!-- Node1&#45;&gt;Node2 -->
<g id="edge1" class="edge"><title>Node1&#45;&gt;Node2</title>
<path fill="none" stroke="midnightblue" d="M103.484,-162.976C88.6632,-152.846 69.1638,-139.517 56.8525,-131.102"/>
<polygon fill="midnightblue" stroke="midnightblue" points="101.771,-166.045 112.002,-168.799 105.721,-160.266 101.771,-166.045"/>
</g>
<!-- Node3 -->
<g id="node3" class="node"><title>Node3</title>
<g id="a_node3"><a xlink:href="class_r_t_x_1_1_link.html" target="_top" xlink:title="Link Class. ">
<polygon fill="white" stroke="black" points="94.1372,-113 94.1372,-131 153.863,-131 153.863,-113 94.1372,-113"/>
<text text-anchor="middle" x="124" y="-119" font-family="Helvetica,sans-Serif" font-size="10.00">RTX::Link</text>
</a>
</g>
</g>
<!-- Node1&#45;&gt;Node3 -->
<g id="edge2" class="edge"><title>Node1&#45;&gt;Node3</title>
<path fill="none" stroke="midnightblue" d="M124,-158.329C124,-149.077 124,-138.38 124,-131.201"/>
<polygon fill="midnightblue" stroke="midnightblue" points="120.5,-158.562 124,-168.562 127.5,-158.563 120.5,-158.562"/>
</g>
<!-- Node7 -->
<g id="node7" class="node"><title>Node7</title>
<g id="a_node7"><a xlink:href="class_r_t_x_1_1_node.html" target="_top" xlink:title="Node Class. ">
<polygon fill="white" stroke="black" points="175.356,-113 175.356,-131 240.644,-131 240.644,-113 175.356,-113"/>
<text text-anchor="middle" x="208" y="-119" font-family="Helvetica,sans-Serif" font-size="10.00">RTX::Node</text>
</a>
</g>
</g>
<!-- Node1&#45;&gt;Node7 -->
<g id="edge6" class="edge"><title>Node1&#45;&gt;Node7</title>
<path fill="none" stroke="midnightblue" d="M145.37,-163.262C161.181,-153.098 182.183,-139.596 195.397,-131.102"/>
<polygon fill="midnightblue" stroke="midnightblue" points="143.277,-160.447 136.758,-168.799 147.062,-166.335 143.277,-160.447"/>
</g>
<!-- Node4 -->
<g id="node4" class="node"><title>Node4</title>
<g id="a_node4"><a xlink:href="class_r_t_x_1_1_pipe.html" target="_top" xlink:title="Pipe Class. ">
<polygon fill="white" stroke="black" points="87.3022,-57 87.3022,-75 148.698,-75 148.698,-57 87.3022,-57"/>
<text text-anchor="middle" x="118" y="-63" font-family="Helvetica,sans-Serif" font-size="10.00">RTX::Pipe</text>
</a>
</g>
</g>
<!-- Node3&#45;&gt;Node4 -->
<g id="edge3" class="edge"><title>Node3&#45;&gt;Node4</title>
<path fill="none" stroke="midnightblue" d="M121.925,-102.329C120.897,-93.0774 119.709,-82.3798 118.911,-75.2014"/>
<polygon fill="midnightblue" stroke="midnightblue" points="118.48,-103.01 123.062,-112.562 125.437,-102.237 118.48,-103.01"/>
</g>
<!-- Node5 -->
<g id="node5" class="node"><title>Node5</title>
<g id="a_node5"><a xlink:href="class_r_t_x_1_1_pump.html" target="_top" xlink:title="RTX::Pump">
<polygon fill="white" stroke="black" points="-0.751953,-1 -0.751953,-19 66.752,-19 66.752,-1 -0.751953,-1"/>
<text text-anchor="middle" x="33" y="-7" font-family="Helvetica,sans-Serif" font-size="10.00">RTX::Pump</text>
</a>
</g>
</g>
<!-- Node4&#45;&gt;Node5 -->
<g id="edge4" class="edge"><title>Node4&#45;&gt;Node5</title>
<path fill="none" stroke="midnightblue" d="M96.3759,-51.2623C80.3759,-41.0976 59.124,-27.5964 45.7527,-19.1017"/>
<polygon fill="midnightblue" stroke="midnightblue" points="94.7728,-54.3904 105.09,-56.7986 98.5264,-48.4819 94.7728,-54.3904"/>
</g>
<!-- Node6 -->
<g id="node6" class="node"><title>Node6</title>
<g id="a_node6"><a xlink:href="class_r_t_x_1_1_valve.html" target="_top" xlink:title="RTX::Valve">
<polygon fill="white" stroke="black" points="85.1709,-1 85.1709,-19 150.829,-19 150.829,-1 85.1709,-1"/>
<text text-anchor="middle" x="118" y="-7" font-family="Helvetica,sans-Serif" font-size="10.00">RTX::Valve</text>
</a>
</g>
</g>
<!-- Node4&#45;&gt;Node6 -->
<g id="edge5" class="edge"><title>Node4&#45;&gt;Node6</title>
<path fill="none" stroke="midnightblue" d="M118,-46.3288C118,-37.0774 118,-26.3798 118,-19.2014"/>
<polygon fill="midnightblue" stroke="midnightblue" points="114.5,-46.5625 118,-56.5625 121.5,-46.5625 114.5,-46.5625"/>
</g>
<!-- Node8 -->
<g id="node8" class="node"><title>Node8</title>
<g id="a_node8"><a xlink:href="class_r_t_x_1_1_junction.html" target="_top" xlink:title="Junction Class. ">
<polygon fill="white" stroke="black" points="171.687,-57 171.687,-75 250.313,-75 250.313,-57 171.687,-57"/>
<text text-anchor="middle" x="211" y="-63" font-family="Helvetica,sans-Serif" font-size="10.00">RTX::Junction</text>
</a>
</g>
</g>
<!-- Node7&#45;&gt;Node8 -->
<g id="edge7" class="edge"><title>Node7&#45;&gt;Node8</title>
<path fill="none" stroke="midnightblue" d="M209.037,-102.329C209.551,-93.0774 210.146,-82.3798 210.544,-75.2014"/>
<polygon fill="midnightblue" stroke="midnightblue" points="205.529,-102.384 208.469,-112.562 212.518,-102.772 205.529,-102.384"/>
</g>
<!-- Node9 -->
<g id="node9" class="node"><title>Node9</title>
<g id="a_node9"><a xlink:href="class_r_t_x_1_1_reservoir.html" target="_top" xlink:title="RTX::Reservoir">
<polygon fill="white" stroke="black" points="168.916,-1 168.916,-19 253.084,-19 253.084,-1 168.916,-1"/>
<text text-anchor="middle" x="211" y="-7" font-family="Helvetica,sans-Serif" font-size="10.00">RTX::Reservoir</text>
</a>
</g>
</g>
<!-- Node8&#45;&gt;Node9 -->
<g id="edge8" class="edge"><title>Node8&#45;&gt;Node9</title>
<path fill="none" stroke="midnightblue" d="M211,-46.3288C211,-37.0774 211,-26.3798 211,-19.2014"/>
<polygon fill="midnightblue" stroke="midnightblue" points="207.5,-46.5625 211,-56.5625 214.5,-46.5625 207.5,-46.5625"/>
</g>
<!-- Node10 -->
<g id="node10" class="node"><title>Node10</title>
<g id="a_node10"><a xlink:href="class_r_t_x_1_1_tank.html" target="_top" xlink:title="RTX::Tank">
<polygon fill="white" stroke="black" points="270.748,-1 270.748,-19 333.252,-19 333.252,-1 270.748,-1"/>
<text text-anchor="middle" x="302" y="-7" font-family="Helvetica,sans-Serif" font-size="10.00">RTX::Tank</text>
</a>
</g>
</g>
<!-- Node8&#45;&gt;Node10 -->
<g id="edge9" class="edge"><title>Node8&#45;&gt;Node10</title>
<path fill="none" stroke="midnightblue" d="M233.672,-51.5465C250.854,-41.3504 273.898,-27.6758 288.347,-19.1017"/>
<polygon fill="midnightblue" stroke="midnightblue" points="231.635,-48.6854 224.821,-56.7986 235.207,-54.7053 231.635,-48.6854"/>
</g>
</g>
</svg>
