<?xml version="1.0" encoding="UTF-8" standalone="no"?>
<!DOCTYPE svg PUBLIC "-//W3C//DTD SVG 1.1//EN"
 "http://www.w3.org/Graphics/SVG/1.1/DTD/svg11.dtd">
<!-- Generated by graphviz version 2.36.0 (20140111.2315)
 -->
<!-- Title: RTX::DbPointRecord::RtxDbRetrievalException Pages: 1 -->
<svg width="180pt" height="230pt"
 viewBox="0.00 0.00 180.00 230.00" xmlns="http://www.w3.org/2000/svg" xmlns:xlink="http://www.w3.org/1999/xlink">
<g id="graph0" class="graph" transform="scale(1 1) rotate(0) translate(4 226)">
<title>RTX::DbPointRecord::RtxDbRetrievalException</title>
<polygon fill="white" stroke="none" points="-4,4 -4,-226 176,-226 176,4 -4,4"/>
<!-- Node1 -->
<g id="node1" class="node"><title>Node1</title>
<polygon fill="#bfbfbf" stroke="black" points="1.64307,-1 1.64307,-29 134.357,-29 134.357,-1 1.64307,-1"/>
<text text-anchor="start" x="9.64307" y="-17" font-family="Helvetica,sans-Serif" font-size="10.00">RTX::DbPointRecord</text>
<text text-anchor="middle" x="68" y="-7" font-family="Helvetica,sans-Serif" font-size="10.00">::RtxDbRetrievalException</text>
</g>
<!-- Node2 -->
<g id="node2" class="node"><title>Node2</title>
<g id="a_node2"><a xlink:href="class_r_t_x_1_1_rtx_exception.html" target="_top" xlink:title="RTX::RtxException">
<polygon fill="white" stroke="black" points="17.8516,-69 17.8516,-87 118.148,-87 118.148,-69 17.8516,-69"/>
<text text-anchor="middle" x="68" y="-75" font-family="Helvetica,sans-Serif" font-size="10.00">RTX::RtxException</text>
</a>
</g>
</g>
<!-- Node2&#45;&gt;Node1 -->
<g id="edge1" class="edge"><title>Node2&#45;&gt;Node1</title>
<path fill="none" stroke="midnightblue" d="M68,-58.4658C68,-49.0277 68,-37.773 68,-29.222"/>
<polygon fill="midnightblue" stroke="midnightblue" points="64.5001,-58.7732 68,-68.7733 71.5001,-58.7733 64.5001,-58.7732"/>
</g>
<!-- Node3 -->
<g id="node3" class="node"><title>Node3</title>
<g id="a_node3"><a xlink:title="STL class. ">
<polygon fill="white" stroke="#bfbfbf" points="-0.852051,-135 -0.852051,-153 76.8521,-153 76.8521,-135 -0.852051,-135"/>
<text text-anchor="middle" x="38" y="-141" font-family="Helvetica,sans-Serif" font-size="10.00">std::exception</text>
</a>
</g>
</g>
<!-- Node3&#45;&gt;Node2 -->
<g id="edge2" class="edge"><title>Node3&#45;&gt;Node2</title>
<path fill="none" stroke="midnightblue" d="M46.1894,-125.529C52.0316,-113.066 59.6236,-96.8696 64.1366,-87.242"/>
<polygon fill="midnightblue" stroke="midnightblue" points="42.8748,-124.354 41.7995,-134.894 49.213,-127.325 42.8748,-124.354"/>
</g>
<!-- Node4 -->
<g id="node4" class="node"><title>Node4</title>
<g id="a_node4"><a xlink:title="STL class. ">
<polygon fill="white" stroke="#bfbfbf" points="95.3252,-135 95.3252,-153 154.675,-153 154.675,-135 95.3252,-135"/>
<text text-anchor="middle" x="125" y="-141" font-family="Helvetica,sans-Serif" font-size="10.00">std::string</text>
</a>
</g>
</g>
<!-- Node4&#45;&gt;Node2 -->
<g id="edge3" class="edge"><title>Node4&#45;&gt;Node2</title>
<path fill="none" stroke="#9a32cd" stroke-dasharray="5,2" d="M111.079,-127.37C99.7971,-114.702 84.3438,-97.351 75.3405,-87.242"/>
<polygon fill="#9a32cd" stroke="#9a32cd" points="108.516,-129.754 117.781,-134.894 113.744,-125.099 108.516,-129.754"/>
<text text-anchor="middle" x="102.889" y="-108" font-family="Helvetica,sans-Serif" font-size="10.00"> s</text>
</g>
<!-- Node5 -->
<g id="node5" class="node"><title>Node5</title>
<g id="a_node5"><a xlink:title="STL class. ">
<polygon fill="white" stroke="#bfbfbf" points="77.9521,-193 77.9521,-221 172.048,-221 172.048,-193 77.9521,-193"/>
<text text-anchor="start" x="85.9521" y="-209" font-family="Helvetica,sans-Serif" font-size="10.00">std::basic_string&lt;</text>
<text text-anchor="middle" x="125" y="-199" font-family="Helvetica,sans-Serif" font-size="10.00"> char &gt;</text>
</a>
</g>
</g>
<!-- Node5&#45;&gt;Node4 -->
<g id="edge4" class="edge"><title>Node5&#45;&gt;Node4</title>
<path fill="none" stroke="midnightblue" d="M125,-182.588C125,-172.213 125,-160.68 125,-153.159"/>
<polygon fill="midnightblue" stroke="midnightblue" points="121.5,-182.764 125,-192.764 128.5,-182.764 121.5,-182.764"/>
</g>
</g>
</svg>
