<?xml version="1.0" encoding="UTF-8" standalone="no"?>
<!DOCTYPE svg PUBLIC "-//W3C//DTD SVG 1.1//EN"
 "http://www.w3.org/Graphics/SVG/1.1/DTD/svg11.dtd">
<!-- Generated by graphviz version 2.28.0 (20110509.1545)
 -->
<!-- Title: RTX::InfluxDbPointRecord Pages: 1 -->
<svg width="512pt" height="502pt"
 viewBox="0.00 0.00 511.90 502.00" xmlns="http://www.w3.org/2000/svg" xmlns:xlink="http://www.w3.org/1999/xlink">
<g id="graph1" class="graph" transform="scale(1 1) rotate(0) translate(4 498)">
<title>RTX::InfluxDbPointRecord</title>
<polygon fill="white" stroke="white" points="-4,5 -4,-498 508.901,-498 508.901,5 -4,5"/>
<!-- Node1 -->
<g id="node1" class="node"><title>Node1</title>
<polygon fill="#bfbfbf" stroke="black" points="367.453,-1 367.453,-21 500.547,-21 500.547,-1 367.453,-1"/>
<text text-anchor="middle" x="434" y="-7" font-family="Helvetica,sans-Serif" font-size="10.00">RTX::InfluxDbPointRecord</text>
</g>
<!-- Node2 -->
<g id="node2" class="node"><title>Node2</title>
<a xlink:href="class_r_t_x_1_1_db_point_record.html" target="_top" xlink:title="A persistence layer for databases. ">
<polygon fill="white" stroke="black" points="299.403,-61 299.403,-81 408.597,-81 408.597,-61 299.403,-61"/>
<text text-anchor="middle" x="354" y="-67" font-family="Helvetica,sans-Serif" font-size="10.00">RTX::DbPointRecord</text>
</a>
</g>
<!-- Node2&#45;&gt;Node1 -->
<g id="edge2" class="edge"><title>Node2&#45;&gt;Node1</title>
<path fill="none" stroke="midnightblue" d="M374.983,-54.7872C389.697,-44.1194 408.886,-30.2075 421.324,-21.1903"/>
<polygon fill="midnightblue" stroke="midnightblue" points="372.542,-52.2341 366.5,-60.9375 376.651,-57.9014 372.542,-52.2341"/>
</g>
<!-- Node3 -->
<g id="node4" class="node"><title>Node3</title>
<a xlink:href="class_r_t_x_1_1_buffer_point_record.html" target="_top" xlink:title="RTX::BufferPointRecord">
<polygon fill="white" stroke="black" points="217.543,-121 217.543,-141 340.457,-141 340.457,-121 217.543,-121"/>
<text text-anchor="middle" x="279" y="-127" font-family="Helvetica,sans-Serif" font-size="10.00">RTX::BufferPointRecord</text>
</a>
</g>
<!-- Node3&#45;&gt;Node2 -->
<g id="edge4" class="edge"><title>Node3&#45;&gt;Node2</title>
<path fill="none" stroke="midnightblue" d="M298.672,-114.787C312.466,-104.119 330.456,-90.2075 342.116,-81.1903"/>
<polygon fill="midnightblue" stroke="midnightblue" points="296.488,-112.051 290.719,-120.938 300.77,-117.589 296.488,-112.051"/>
</g>
<!-- Node4 -->
<g id="node6" class="node"><title>Node4</title>
<a xlink:href="class_r_t_x_1_1_point_record.html" target="_top" xlink:title="A Point Record Class for storing and retrieving Points. ">
<polygon fill="white" stroke="black" points="178.795,-227 178.795,-247 275.205,-247 275.205,-227 178.795,-227"/>
<text text-anchor="middle" x="227" y="-233" font-family="Helvetica,sans-Serif" font-size="10.00">RTX::PointRecord</text>
</a>
</g>
<!-- Node4&#45;&gt;Node3 -->
<g id="edge6" class="edge"><title>Node4&#45;&gt;Node3</title>
<path fill="none" stroke="midnightblue" d="M236.195,-217.609C247.42,-195.159 265.957,-158.086 274.47,-141.06"/>
<polygon fill="midnightblue" stroke="midnightblue" points="232.956,-216.261 231.615,-226.771 239.217,-219.392 232.956,-216.261"/>
</g>
<!-- Node5 -->
<g id="node8" class="node"><title>Node5</title>
<polygon fill="white" stroke="#bfbfbf" points="142.452,-319 142.452,-351 251.548,-351 251.548,-319 142.452,-319"/>
<text text-anchor="start" x="150.452" y="-337" font-family="Helvetica,sans-Serif" font-size="10.00">std::map&lt; std::string,</text>
<text text-anchor="middle" x="197" y="-325" font-family="Helvetica,sans-Serif" font-size="10.00"> RTX::Point &gt;</text>
</g>
<!-- Node5&#45;&gt;Node4 -->
<g id="edge8" class="edge"><title>Node5&#45;&gt;Node4</title>
<path fill="none" stroke="#9a32cd" stroke-dasharray="5,2" d="M202.757,-308.904C205.956,-295.957 210.258,-279.988 215.069,-266 217.269,-259.604 220.252,-252.604 222.684,-247.203"/>
<polygon fill="#9a32cd" stroke="#9a32cd" points="199.275,-308.418 200.343,-318.959 206.081,-310.052 199.275,-308.418"/>
<text text-anchor="middle" x="245.465" y="-279" font-family="Helvetica,sans-Serif" font-size="10.00"> _pointCache</text>
</g>
<!-- Node6 -->
<g id="node10" class="node"><title>Node6</title>
<a xlink:title="STL class. ">
<polygon fill="white" stroke="#bfbfbf" points="258.325,-401 258.325,-421 317.675,-421 317.675,-401 258.325,-401"/>
<text text-anchor="middle" x="288" y="-407" font-family="Helvetica,sans-Serif" font-size="10.00">std::string</text>
</a>
</g>
<!-- Node6&#45;&gt;Node1 -->
<g id="edge26" class="edge"><title>Node6&#45;&gt;Node1</title>
<path fill="none" stroke="#9a32cd" stroke-dasharray="5,2" d="M328.016,-402.946C384.285,-391.87 480,-368.285 480,-336 480,-336 480,-336 480,-70 480,-49.1799 461.579,-31.484 448.051,-21.2958"/>
<polygon fill="#9a32cd" stroke="#9a32cd" points="327.161,-399.546 318,-404.868 328.48,-406.421 327.161,-399.546"/>
<text text-anchor="middle" x="491.951" y="-198" font-family="Helvetica,sans-Serif" font-size="10.00"> pass</text>
<text text-anchor="middle" x="491.951" y="-186" font-family="Helvetica,sans-Serif" font-size="10.00">host</text>
<text text-anchor="middle" x="491.951" y="-174" font-family="Helvetica,sans-Serif" font-size="10.00">user</text>
<text text-anchor="middle" x="491.951" y="-162" font-family="Helvetica,sans-Serif" font-size="10.00">db</text>
</g>
<!-- Node6&#45;&gt;Node2 -->
<g id="edge24" class="edge"><title>Node6&#45;&gt;Node2</title>
<path fill="none" stroke="#9a32cd" stroke-dasharray="5,2" d="M327.376,-398.277C355.36,-387.236 388,-367.588 388,-336 388,-336 388,-336 388,-130 388,-110.624 373.704,-91.9892 363.652,-81.2811"/>
<polygon fill="#9a32cd" stroke="#9a32cd" points="325.907,-395.088 317.733,-401.829 328.326,-401.657 325.907,-395.088"/>
<text text-anchor="middle" x="420.234" y="-233" font-family="Helvetica,sans-Serif" font-size="10.00"> errorMessage</text>
</g>
<!-- Node6&#45;&gt;Node4 -->
<g id="edge16" class="edge"><title>Node6&#45;&gt;Node4</title>
<path fill="none" stroke="#9a32cd" stroke-dasharray="5,2" d="M291.314,-390.468C295.236,-361.013 298.466,-304.575 274,-266 268.709,-257.658 259.961,-251.473 251.437,-247.069"/>
<polygon fill="#9a32cd" stroke="#9a32cd" points="287.806,-390.257 289.778,-400.667 294.728,-391.299 287.806,-390.257"/>
<text text-anchor="middle" x="329.859" y="-331" font-family="Helvetica,sans-Serif" font-size="10.00"> _cachedPointId</text>
</g>
<!-- Node6&#45;&gt;Node5 -->
<g id="edge10" class="edge"><title>Node6&#45;&gt;Node5</title>
<path fill="none" stroke="#9a32cd" stroke-dasharray="5,2" d="M267.273,-394.833C261.815,-390.737 255.969,-386.259 250.66,-382 238.217,-372.019 224.574,-360.313 214.158,-351.207"/>
<polygon fill="#9a32cd" stroke="#9a32cd" points="265.283,-397.715 275.398,-400.867 269.456,-392.095 265.283,-397.715"/>
<text text-anchor="middle" x="262.67" y="-372" font-family="Helvetica,sans-Serif" font-size="10.00"> keys</text>
</g>
<!-- Node9 -->
<g id="node18" class="node"><title>Node9</title>
<a xlink:href="class_r_t_x_1_1_db_point_record_1_1request__t.html" target="_top" xlink:title="RTX::DbPointRecord\l::request_t">
<polygon fill="white" stroke="black" points="66.4033,-267 66.4033,-299 175.597,-299 175.597,-267 66.4033,-267"/>
<text text-anchor="start" x="74.4033" y="-285" font-family="Helvetica,sans-Serif" font-size="10.00">RTX::DbPointRecord</text>
<text text-anchor="middle" x="121" y="-273" font-family="Helvetica,sans-Serif" font-size="10.00">::request_t</text>
</a>
</g>
<!-- Node6&#45;&gt;Node9 -->
<g id="edge22" class="edge"><title>Node6&#45;&gt;Node9</title>
<path fill="none" stroke="#9a32cd" stroke-dasharray="5,2" d="M248.08,-406.05C212.409,-400.314 161.508,-386.282 133,-352 120.659,-337.16 119.095,-314.09 119.633,-299.012"/>
<polygon fill="#9a32cd" stroke="#9a32cd" points="247.762,-409.54 258.162,-407.517 248.77,-402.613 247.762,-409.54"/>
<text text-anchor="middle" x="175.281" y="-372" font-family="Helvetica,sans-Serif" font-size="10.00"> id</text>
</g>
<!-- Node7 -->
<g id="node12" class="node"><title>Node7</title>
<a xlink:title="STL class. ">
<polygon fill="white" stroke="#bfbfbf" points="240.952,-461 240.952,-493 335.048,-493 335.048,-461 240.952,-461"/>
<text text-anchor="start" x="248.952" y="-479" font-family="Helvetica,sans-Serif" font-size="10.00">std::basic_string&lt;</text>
<text text-anchor="middle" x="288" y="-467" font-family="Helvetica,sans-Serif" font-size="10.00"> char &gt;</text>
</a>
</g>
<!-- Node7&#45;&gt;Node6 -->
<g id="edge12" class="edge"><title>Node7&#45;&gt;Node6</title>
<path fill="none" stroke="midnightblue" d="M288,-450.611C288,-440.286 288,-429.001 288,-421.313"/>
<polygon fill="midnightblue" stroke="midnightblue" points="284.5,-450.833 288,-460.833 291.5,-450.833 284.5,-450.833"/>
</g>
<!-- Node8 -->
<g id="node14" class="node"><title>Node8</title>
<a xlink:href="class_r_t_x_1_1_point.html" target="_top" xlink:title="A Point Class to store data tuples (date, value, quality, confidence) ">
<polygon fill="white" stroke="black" points="-0.0869141,-401 -0.0869141,-421 64.0869,-421 64.0869,-401 -0.0869141,-401"/>
<text text-anchor="middle" x="32" y="-407" font-family="Helvetica,sans-Serif" font-size="10.00">RTX::Point</text>
</a>
</g>
<!-- Node8&#45;&gt;Node4 -->
<g id="edge18" class="edge"><title>Node8&#45;&gt;Node4</title>
<path fill="none" stroke="#9a32cd" stroke-dasharray="5,2" d="M29.0088,-391.043C25.313,-360.114 23.1588,-298.948 57,-266 73.931,-249.516 134.719,-242.714 178.779,-239.921"/>
<polygon fill="#9a32cd" stroke="#9a32cd" points="25.5432,-391.534 30.3763,-400.962 32.4776,-390.577 25.5432,-391.534"/>
<text text-anchor="middle" x="62.6895" y="-331" font-family="Helvetica,sans-Serif" font-size="10.00"> _cachedPoint</text>
</g>
<!-- Node8&#45;&gt;Node5 -->
<g id="edge14" class="edge"><title>Node8&#45;&gt;Node5</title>
<path fill="none" stroke="#9a32cd" stroke-dasharray="5,2" d="M35.8891,-391.038C38.3515,-383.487 42.3156,-375.341 48.6455,-370 62.8326,-358.029 106.133,-348.957 142.318,-343.207"/>
<polygon fill="#9a32cd" stroke="#9a32cd" points="32.4385,-390.401 33.3178,-400.96 39.2146,-392.158 32.4385,-390.401"/>
<text text-anchor="middle" x="70.6772" y="-372" font-family="Helvetica,sans-Serif" font-size="10.00"> elements</text>
</g>
<!-- Node9&#45;&gt;Node2 -->
<g id="edge20" class="edge"><title>Node9&#45;&gt;Node2</title>
<path fill="none" stroke="#9a32cd" stroke-dasharray="5,2" d="M128.109,-257.002C139.451,-221.528 164.975,-156.814 209,-120 234.529,-98.6521 269.876,-86.6993 299.279,-80.0606"/>
<polygon fill="#9a32cd" stroke="#9a32cd" points="124.752,-256.01 125.16,-266.597 131.443,-258.066 124.752,-256.01"/>
<text text-anchor="middle" x="192.066" y="-180" font-family="Helvetica,sans-Serif" font-size="10.00"> request</text>
</g>
</g>
</svg>
