<?xml version="1.0" encoding="UTF-8" standalone="no"?>
<!DOCTYPE svg PUBLIC "-//W3C//DTD SVG 1.1//EN"
 "http://www.w3.org/Graphics/SVG/1.1/DTD/svg11.dtd">
<!-- Generated by graphviz version 2.36.0 (20140111.2315)
 -->
<!-- Title: RTX::OdbcPointRecord::OdbcQuery Pages: 1 -->
<svg width="201pt" height="232pt"
 viewBox="0.00 0.00 201.00 232.00" xmlns="http://www.w3.org/2000/svg" xmlns:xlink="http://www.w3.org/1999/xlink">
<g id="graph0" class="graph" transform="scale(1 1) rotate(0) translate(4 228)">
<title>RTX::OdbcPointRecord::OdbcQuery</title>
<polygon fill="white" stroke="none" points="-4,4 -4,-228 197,-228 197,4 -4,4"/>
<!-- Node1 -->
<g id="node1" class="node"><title>Node1</title>
<polygon fill="#bfbfbf" stroke="black" points="35.8442,-1 35.8442,-29 156.156,-29 156.156,-1 35.8442,-1"/>
<text text-anchor="start" x="43.8442" y="-17" font-family="Helvetica,sans-Serif" font-size="10.00">RTX::OdbcPointRecord</text>
<text text-anchor="middle" x="96" y="-7" font-family="Helvetica,sans-Serif" font-size="10.00">::OdbcQuery</text>
</g>
<!-- Node2 -->
<g id="node2" class="node"><title>Node2</title>
<g id="a_node2"><a xlink:title="STL class. ">
<polygon fill="white" stroke="#bfbfbf" points="17.3252,-132 17.3252,-150 76.6748,-150 76.6748,-132 17.3252,-132"/>
<text text-anchor="middle" x="47" y="-138" font-family="Helvetica,sans-Serif" font-size="10.00">std::string</text>
</a>
</g>
</g>
<!-- Node2&#45;&gt;Node1 -->
<g id="edge1" class="edge"><title>Node2&#45;&gt;Node1</title>
<path fill="none" stroke="#9a32cd" stroke-dasharray="5,2" d="M42.2751,-121.763C38.2675,-102.252 34.9446,-71.0107 47.4092,-48 51.6429,-40.1842 58.7076,-33.9605 66.1567,-29.1579"/>
<polygon fill="#9a32cd" stroke="#9a32cd" points="38.9226,-122.799 44.5997,-131.744 45.7401,-121.211 38.9226,-122.799"/>
<text text-anchor="middle" x="83.2954" y="-100" font-family="Helvetica,sans-Serif" font-size="10.00"> singleSelect</text>
<text text-anchor="middle" x="83.2954" y="-90" font-family="Helvetica,sans-Serif" font-size="10.00">rangeSelect</text>
<text text-anchor="middle" x="83.2954" y="-80" font-family="Helvetica,sans-Serif" font-size="10.00">connectorName</text>
<text text-anchor="middle" x="83.2954" y="-70" font-family="Helvetica,sans-Serif" font-size="10.00">lowerBound</text>
<text text-anchor="middle" x="83.2954" y="-60" font-family="Helvetica,sans-Serif" font-size="10.00">upperBound</text>
<text text-anchor="middle" x="83.2954" y="-50" font-family="Helvetica,sans-Serif" font-size="10.00">timeQuery</text>
</g>
<!-- Node3 -->
<g id="node3" class="node"><title>Node3</title>
<g id="a_node3"><a xlink:title="STL class. ">
<polygon fill="white" stroke="#bfbfbf" points="-0.0478516,-195 -0.0478516,-223 94.0479,-223 94.0479,-195 -0.0478516,-195"/>
<text text-anchor="start" x="7.95215" y="-211" font-family="Helvetica,sans-Serif" font-size="10.00">std::basic_string&lt;</text>
<text text-anchor="middle" x="47" y="-201" font-family="Helvetica,sans-Serif" font-size="10.00"> char &gt;</text>
</a>
</g>
</g>
<!-- Node3&#45;&gt;Node2 -->
<g id="edge2" class="edge"><title>Node3&#45;&gt;Node2</title>
<path fill="none" stroke="midnightblue" d="M47,-184.611C47,-172.539 47,-158.587 47,-150.029"/>
<polygon fill="midnightblue" stroke="midnightblue" points="43.5001,-184.96 47,-194.961 50.5001,-184.961 43.5001,-184.96"/>
</g>
<!-- Node4 -->
<g id="node4" class="node"><title>Node4</title>
<polygon fill="white" stroke="#bfbfbf" points="94.5449,-127 94.5449,-155 193.455,-155 193.455,-127 94.5449,-127"/>
<text text-anchor="start" x="102.545" y="-143" font-family="Helvetica,sans-Serif" font-size="10.00">std::map&lt; int, RTX</text>
<text text-anchor="middle" x="144" y="-133" font-family="Helvetica,sans-Serif" font-size="10.00">::Point::Qual_t &gt;</text>
</g>
<!-- Node4&#45;&gt;Node1 -->
<g id="edge3" class="edge"><title>Node4&#45;&gt;Node1</title>
<path fill="none" stroke="#9a32cd" stroke-dasharray="5,2" d="M141.387,-116.909C138.544,-97.6904 132.867,-70.0146 122,-48 118.642,-41.1961 113.607,-34.5403 108.859,-29.0766"/>
<polygon fill="#9a32cd" stroke="#9a32cd" points="137.926,-117.435 142.721,-126.883 144.865,-116.507 137.926,-117.435"/>
<text text-anchor="middle" x="165.569" y="-75" font-family="Helvetica,sans-Serif" font-size="10.00"> qualityMap</text>
</g>
</g>
</svg>
