<?xml version="1.0" encoding="UTF-8" standalone="no"?>
<!DOCTYPE svg PUBLIC "-//W3C//DTD SVG 1.1//EN"
 "http://www.w3.org/Graphics/SVG/1.1/DTD/svg11.dtd">
<!-- Generated by graphviz version 2.36.0 (20140111.2315)
 -->
<!-- Title: RTX::DbPointRecord Pages: 1 -->
<svg width="469pt" height="382pt"
 viewBox="0.00 0.00 469.38 382.00" xmlns="http://www.w3.org/2000/svg" xmlns:xlink="http://www.w3.org/1999/xlink">
<g id="graph0" class="graph" transform="scale(1 1) rotate(0) translate(4 378)">
<title>RTX::DbPointRecord</title>
<polygon fill="white" stroke="none" points="-4,4 -4,-378 465.379,-378 465.379,4 -4,4"/>
<!-- Node1 -->
<g id="node1" class="node"><title>Node1</title>
<polygon fill="#bfbfbf" stroke="black" points="69.4033,-1 69.4033,-19 178.597,-19 178.597,-1 69.4033,-1"/>
<text text-anchor="middle" x="124" y="-7" font-family="Helvetica,sans-Serif" font-size="10.00">RTX::DbPointRecord</text>
</g>
<!-- Node2 -->
<g id="node2" class="node"><title>Node2</title>
<g id="a_node2"><a xlink:href="class_r_t_x_1_1_buffer_point_record.html" target="_top" xlink:title="RTX::BufferPointRecord">
<polygon fill="white" stroke="black" points="165.543,-59 165.543,-77 288.457,-77 288.457,-59 165.543,-59"/>
<text text-anchor="middle" x="227" y="-65" font-family="Helvetica,sans-Serif" font-size="10.00">RTX::BufferPointRecord</text>
</a>
</g>
</g>
<!-- Node2&#45;&gt;Node1 -->
<g id="edge1" class="edge"><title>Node2&#45;&gt;Node1</title>
<path fill="none" stroke="midnightblue" d="M203.187,-54.0533C183.29,-43.2351 155.545,-28.1507 138.73,-19.0086"/>
<polygon fill="midnightblue" stroke="midnightblue" points="201.785,-57.2749 212.243,-58.9766 205.129,-51.125 201.785,-57.2749"/>
</g>
<!-- Node3 -->
<g id="node3" class="node"><title>Node3</title>
<g id="a_node3"><a xlink:href="class_r_t_x_1_1_point_record.html" target="_top" xlink:title="A Point Record Class for storing and retrieving Points. ">
<polygon fill="white" stroke="black" points="221.795,-125 221.795,-143 318.205,-143 318.205,-125 221.795,-125"/>
<text text-anchor="middle" x="270" y="-131" font-family="Helvetica,sans-Serif" font-size="10.00">RTX::PointRecord</text>
</a>
</g>
</g>
<!-- Node3&#45;&gt;Node2 -->
<g id="edge2" class="edge"><title>Node3&#45;&gt;Node2</title>
<path fill="none" stroke="midnightblue" d="M258.761,-116.273C250.325,-103.716 239.136,-87.0621 232.538,-77.242"/>
<polygon fill="midnightblue" stroke="midnightblue" points="256.072,-118.546 264.554,-124.894 261.882,-114.642 256.072,-118.546"/>
</g>
<!-- Node4 -->
<g id="node4" class="node"><title>Node4</title>
<polygon fill="white" stroke="#bfbfbf" points="259.452,-211 259.452,-239 368.548,-239 368.548,-211 259.452,-211"/>
<text text-anchor="start" x="267.452" y="-227" font-family="Helvetica,sans-Serif" font-size="10.00">std::map&lt; std::string,</text>
<text text-anchor="middle" x="314" y="-217" font-family="Helvetica,sans-Serif" font-size="10.00"> RTX::Point &gt;</text>
</g>
<!-- Node4&#45;&gt;Node3 -->
<g id="edge3" class="edge"><title>Node4&#45;&gt;Node3</title>
<path fill="none" stroke="#9a32cd" stroke-dasharray="5,2" d="M302.988,-201.726C293.622,-182.78 280.68,-156.602 274.139,-143.373"/>
<polygon fill="#9a32cd" stroke="#9a32cd" points="299.938,-203.455 307.508,-210.868 306.213,-200.352 299.938,-203.455"/>
<text text-anchor="middle" x="326.465" y="-174" font-family="Helvetica,sans-Serif" font-size="10.00"> _pointCache</text>
</g>
<!-- Node5 -->
<g id="node5" class="node"><title>Node5</title>
<g id="a_node5"><a xlink:title="STL class. ">
<polygon fill="white" stroke="#bfbfbf" points="117.325,-287 117.325,-305 176.675,-305 176.675,-287 117.325,-287"/>
<text text-anchor="middle" x="147" y="-293" font-family="Helvetica,sans-Serif" font-size="10.00">std::string</text>
</a>
</g>
</g>
<!-- Node5&#45;&gt;Node1 -->
<g id="edge11" class="edge"><title>Node5&#45;&gt;Node1</title>
<path fill="none" stroke="#9a32cd" stroke-dasharray="5,2" d="M137.782,-277.668C131.382,-264.022 124,-244.313 124,-226 124,-226 124,-226 124,-67 124,-50.0833 124,-30.2922 124,-19.3491"/>
<polygon fill="#9a32cd" stroke="#9a32cd" points="134.743,-279.418 142.346,-286.798 141.005,-276.288 134.743,-279.418"/>
<text text-anchor="middle" x="156.234" y="-131" font-family="Helvetica,sans-Serif" font-size="10.00"> errorMessage</text>
</g>
<!-- Node5&#45;&gt;Node3 -->
<g id="edge7" class="edge"><title>Node5&#45;&gt;Node3</title>
<path fill="none" stroke="#9a32cd" stroke-dasharray="5,2" d="M150.686,-276.973C155.044,-258.802 163.624,-230.575 178.281,-210 199.644,-180.012 235.974,-155.292 255.896,-143.135"/>
<polygon fill="#9a32cd" stroke="#9a32cd" points="147.248,-276.309 148.501,-286.83 154.082,-277.824 147.248,-276.309"/>
<text text-anchor="middle" x="214.859" y="-222" font-family="Helvetica,sans-Serif" font-size="10.00"> _cachedPointId</text>
</g>
<!-- Node5&#45;&gt;Node4 -->
<g id="edge4" class="edge"><title>Node5&#45;&gt;Node4</title>
<path fill="none" stroke="#9a32cd" stroke-dasharray="5,2" d="M175.883,-283.066C205.594,-270.791 251.739,-251.724 282.405,-239.054"/>
<polygon fill="#9a32cd" stroke="#9a32cd" points="174.39,-279.896 166.484,-286.95 177.063,-286.366 174.39,-279.896"/>
<text text-anchor="middle" x="247.67" y="-260" font-family="Helvetica,sans-Serif" font-size="10.00"> keys</text>
</g>
<!-- Node8 -->
<g id="node8" class="node"><title>Node8</title>
<g id="a_node8"><a xlink:href="class_r_t_x_1_1_db_point_record_1_1request__t.html" target="_top" xlink:title="RTX::DbPointRecord\l::request_t">
<polygon fill="white" stroke="black" points="-0.59668,-163 -0.59668,-191 108.597,-191 108.597,-163 -0.59668,-163"/>
<text text-anchor="start" x="7.40332" y="-179" font-family="Helvetica,sans-Serif" font-size="10.00">RTX::DbPointRecord</text>
<text text-anchor="middle" x="54" y="-169" font-family="Helvetica,sans-Serif" font-size="10.00">::request_t</text>
</a>
</g>
</g>
<!-- Node5&#45;&gt;Node8 -->
<g id="edge10" class="edge"><title>Node5&#45;&gt;Node8</title>
<path fill="none" stroke="#9a32cd" stroke-dasharray="5,2" d="M118.177,-282.224C111.472,-278.332 104.751,-273.578 99.4385,-268 77.7102,-245.185 64.0732,-209.959 57.8913,-191.054"/>
<polygon fill="#9a32cd" stroke="#9a32cd" points="116.7,-285.403 127.174,-286.994 119.978,-279.218 116.7,-285.403"/>
<text text-anchor="middle" x="105.281" y="-260" font-family="Helvetica,sans-Serif" font-size="10.00"> id</text>
</g>
<!-- Node6 -->
<g id="node6" class="node"><title>Node6</title>
<g id="a_node6"><a xlink:title="STL class. ">
<polygon fill="white" stroke="#bfbfbf" points="99.9521,-345 99.9521,-373 194.048,-373 194.048,-345 99.9521,-345"/>
<text text-anchor="start" x="107.952" y="-361" font-family="Helvetica,sans-Serif" font-size="10.00">std::basic_string&lt;</text>
<text text-anchor="middle" x="147" y="-351" font-family="Helvetica,sans-Serif" font-size="10.00"> char &gt;</text>
</a>
</g>
</g>
<!-- Node6&#45;&gt;Node5 -->
<g id="edge5" class="edge"><title>Node6&#45;&gt;Node5</title>
<path fill="none" stroke="midnightblue" d="M147,-334.588C147,-324.213 147,-312.68 147,-305.159"/>
<polygon fill="midnightblue" stroke="midnightblue" points="143.5,-334.764 147,-344.764 150.5,-334.764 143.5,-334.764"/>
</g>
<!-- Node7 -->
<g id="node7" class="node"><title>Node7</title>
<g id="a_node7"><a xlink:href="class_r_t_x_1_1_point.html" target="_top" xlink:title="A Point Class to store data tuples (date, value, quality, confidence) ">
<polygon fill="white" stroke="black" points="334.913,-287 334.913,-305 399.087,-305 399.087,-287 334.913,-287"/>
<text text-anchor="middle" x="367" y="-293" font-family="Helvetica,sans-Serif" font-size="10.00">RTX::Point</text>
</a>
</g>
</g>
<!-- Node7&#45;&gt;Node3 -->
<g id="edge8" class="edge"><title>Node7&#45;&gt;Node3</title>
<path fill="none" stroke="#9a32cd" stroke-dasharray="5,2" d="M384.022,-279.581C386.876,-276.079 389.42,-272.155 391,-268 408.489,-222.001 394.897,-195.662 359,-162 347.929,-151.618 332.988,-145.22 318.513,-141.28"/>
<polygon fill="#9a32cd" stroke="#9a32cd" points="381.432,-277.225 377.109,-286.898 386.52,-282.033 381.432,-277.225"/>
<text text-anchor="middle" x="429.689" y="-222" font-family="Helvetica,sans-Serif" font-size="10.00"> _cachedPoint</text>
</g>
<!-- Node7&#45;&gt;Node4 -->
<g id="edge6" class="edge"><title>Node7&#45;&gt;Node4</title>
<path fill="none" stroke="#9a32cd" stroke-dasharray="5,2" d="M354.355,-278.538C345.09,-266.476 332.682,-250.321 324.081,-239.124"/>
<polygon fill="#9a32cd" stroke="#9a32cd" points="351.845,-281.015 360.712,-286.814 357.396,-276.751 351.845,-281.015"/>
<text text-anchor="middle" x="366.677" y="-260" font-family="Helvetica,sans-Serif" font-size="10.00"> elements</text>
</g>
<!-- Node8&#45;&gt;Node1 -->
<g id="edge9" class="edge"><title>Node8&#45;&gt;Node1</title>
<path fill="none" stroke="#9a32cd" stroke-dasharray="5,2" d="M57.9429,-152.659C61.1331,-136.395 66.3419,-114.404 73.8672,-96 86.1872,-65.8699 107.835,-33.6426 118.178,-19.028"/>
<polygon fill="#9a32cd" stroke="#9a32cd" points="54.4279,-152.42 56.0531,-162.889 61.3115,-153.692 54.4279,-152.42"/>
<text text-anchor="middle" x="92.0664" y="-98" font-family="Helvetica,sans-Serif" font-size="10.00"> request</text>
</g>
</g>
</svg>
