<?xml version="1.0" encoding="UTF-8" standalone="no"?>
<!DOCTYPE svg PUBLIC "-//W3C//DTD SVG 1.1//EN"
 "http://www.w3.org/Graphics/SVG/1.1/DTD/svg11.dtd">
<!-- Generated by graphviz version 2.28.0 (20110509.1545)
 -->
<!-- Title: RTX::IncompatibleComponent Pages: 1 -->
<svg width="186pt" height="232pt"
 viewBox="0.00 0.00 186.00 232.00" xmlns="http://www.w3.org/2000/svg" xmlns:xlink="http://www.w3.org/1999/xlink">
<g id="graph1" class="graph" transform="scale(1 1) rotate(0) translate(4 228)">
<title>RTX::IncompatibleComponent</title>
<polygon fill="white" stroke="white" points="-4,5 -4,-228 183,-228 183,5 -4,5"/>
<!-- Node1 -->
<g id="node1" class="node"><title>Node1</title>
<polygon fill="#bfbfbf" stroke="black" points="-0.889648,-1 -0.889648,-21 148.89,-21 148.89,-1 -0.889648,-1"/>
<text text-anchor="middle" x="74" y="-7" font-family="Helvetica,sans-Serif" font-size="10.00">RTX::IncompatibleComponent</text>
</g>
<!-- Node2 -->
<g id="node2" class="node"><title>Node2</title>
<a xlink:href="class_r_t_x_1_1_rtx_exception.html" target="_top" xlink:title="RTX::RtxException">
<polygon fill="white" stroke="black" points="23.8516,-61 23.8516,-81 124.148,-81 124.148,-61 23.8516,-61"/>
<text text-anchor="middle" x="74" y="-67" font-family="Helvetica,sans-Serif" font-size="10.00">RTX::RtxException</text>
</a>
</g>
<!-- Node2&#45;&gt;Node1 -->
<g id="edge2" class="edge"><title>Node2&#45;&gt;Node1</title>
<path fill="none" stroke="midnightblue" d="M74,-50.7309C74,-40.7807 74,-29.1016 74,-21.1903"/>
<polygon fill="midnightblue" stroke="midnightblue" points="70.5001,-50.9375 74,-60.9375 77.5001,-50.9375 70.5001,-50.9375"/>
</g>
<!-- Node3 -->
<g id="node4" class="node"><title>Node3</title>
<a xlink:title="STL class. ">
<polygon fill="white" stroke="#bfbfbf" points="5.14795,-131 5.14795,-151 82.8521,-151 82.8521,-131 5.14795,-131"/>
<text text-anchor="middle" x="44" y="-137" font-family="Helvetica,sans-Serif" font-size="10.00">std::exception</text>
</a>
</g>
<!-- Node3&#45;&gt;Node2 -->
<g id="edge4" class="edge"><title>Node3&#45;&gt;Node2</title>
<path fill="none" stroke="midnightblue" d="M52.2323,-121.34C58.0178,-108.226 65.5029,-91.2601 70.0182,-81.0255"/>
<polygon fill="midnightblue" stroke="midnightblue" points="48.8802,-120.267 48.0459,-130.829 55.2846,-123.093 48.8802,-120.267"/>
</g>
<!-- Node4 -->
<g id="node6" class="node"><title>Node4</title>
<a xlink:title="STL class. ">
<polygon fill="white" stroke="#bfbfbf" points="101.325,-131 101.325,-151 160.675,-151 160.675,-131 101.325,-131"/>
<text text-anchor="middle" x="131" y="-137" font-family="Helvetica,sans-Serif" font-size="10.00">std::string</text>
</a>
</g>
<!-- Node4&#45;&gt;Node2 -->
<g id="edge6" class="edge"><title>Node4&#45;&gt;Node2</title>
<path fill="none" stroke="#9a32cd" stroke-dasharray="5,2" d="M116.649,-122.88C105.502,-109.581 90.4842,-91.6654 81.5655,-81.0255"/>
<polygon fill="#9a32cd" stroke="#9a32cd" points="114.206,-125.414 123.313,-130.829 119.571,-120.917 114.206,-125.414"/>
<text text-anchor="middle" x="108.889" y="-102" font-family="Helvetica,sans-Serif" font-size="10.00"> s</text>
</g>
<!-- Node5 -->
<g id="node8" class="node"><title>Node5</title>
<a xlink:title="STL class. ">
<polygon fill="white" stroke="#bfbfbf" points="83.9521,-191 83.9521,-223 178.048,-223 178.048,-191 83.9521,-191"/>
<text text-anchor="start" x="91.9521" y="-209" font-family="Helvetica,sans-Serif" font-size="10.00">std::basic_string&lt;</text>
<text text-anchor="middle" x="131" y="-197" font-family="Helvetica,sans-Serif" font-size="10.00"> char &gt;</text>
</a>
</g>
<!-- Node5&#45;&gt;Node4 -->
<g id="edge8" class="edge"><title>Node5&#45;&gt;Node4</title>
<path fill="none" stroke="midnightblue" d="M131,-180.611C131,-170.286 131,-159.001 131,-151.313"/>
<polygon fill="midnightblue" stroke="midnightblue" points="127.5,-180.833 131,-190.833 134.5,-180.833 127.5,-180.833"/>
</g>
</g>
</svg>
