<?xml version="1.0" encoding="UTF-8" standalone="no"?>
<!DOCTYPE svg PUBLIC "-//W3C//DTD SVG 1.1//EN"
 "http://www.w3.org/Graphics/SVG/1.1/DTD/svg11.dtd">
<!-- Generated by graphviz version 2.28.0 (20110509.1545)
 -->
<!-- Title: RTX::DbPointRecord::request_t Pages: 1 -->
<svg width="116pt" height="184pt"
 viewBox="0.00 0.00 116.00 184.00" xmlns="http://www.w3.org/2000/svg" xmlns:xlink="http://www.w3.org/1999/xlink">
<g id="graph1" class="graph" transform="scale(1 1) rotate(0) translate(4 180)">
<title>RTX::DbPointRecord::request_t</title>
<polygon fill="white" stroke="white" points="-4,5 -4,-180 113,-180 113,5 -4,5"/>
<!-- Node1 -->
<g id="node1" class="node"><title>Node1</title>
<polygon fill="#bfbfbf" stroke="black" points="-0.59668,-1 -0.59668,-33 108.597,-33 108.597,-1 -0.59668,-1"/>
<text text-anchor="start" x="7.40332" y="-19" font-family="Helvetica,sans-Serif" font-size="10.00">RTX::DbPointRecord</text>
<text text-anchor="middle" x="54" y="-7" font-family="Helvetica,sans-Serif" font-size="10.00">::request_t</text>
</g>
<!-- Node2 -->
<g id="node2" class="node"><title>Node2</title>
<a xlink:title="STL class. ">
<polygon fill="white" stroke="#bfbfbf" points="24.3252,-83 24.3252,-103 83.6748,-103 83.6748,-83 24.3252,-83"/>
<text text-anchor="middle" x="54" y="-89" font-family="Helvetica,sans-Serif" font-size="10.00">std::string</text>
</a>
</g>
<!-- Node2&#45;&gt;Node1 -->
<g id="edge2" class="edge"><title>Node2&#45;&gt;Node1</title>
<path fill="none" stroke="#9a32cd" stroke-dasharray="5,2" d="M54,-72.7583C54,-60.3756 54,-44.5144 54,-33.053"/>
<polygon fill="#9a32cd" stroke="#9a32cd" points="50.5001,-72.9261 54,-82.9261 57.5001,-72.9262 50.5001,-72.9261"/>
<text text-anchor="middle" x="59.2808" y="-54" font-family="Helvetica,sans-Serif" font-size="10.00"> id</text>
</g>
<!-- Node3 -->
<g id="node4" class="node"><title>Node3</title>
<a xlink:title="STL class. ">
<polygon fill="white" stroke="#bfbfbf" points="6.95215,-143 6.95215,-175 101.048,-175 101.048,-143 6.95215,-143"/>
<text text-anchor="start" x="14.9521" y="-161" font-family="Helvetica,sans-Serif" font-size="10.00">std::basic_string&lt;</text>
<text text-anchor="middle" x="54" y="-149" font-family="Helvetica,sans-Serif" font-size="10.00"> char &gt;</text>
</a>
</g>
<!-- Node3&#45;&gt;Node2 -->
<g id="edge4" class="edge"><title>Node3&#45;&gt;Node2</title>
<path fill="none" stroke="midnightblue" d="M54,-132.611C54,-122.286 54,-111.001 54,-103.313"/>
<polygon fill="midnightblue" stroke="midnightblue" points="50.5001,-132.833 54,-142.833 57.5001,-132.833 50.5001,-132.833"/>
</g>
</g>
</svg>
