<?xml version="1.0" encoding="UTF-8" standalone="no"?>
<!DOCTYPE svg PUBLIC "-//W3C//DTD SVG 1.1//EN"
 "http://www.w3.org/Graphics/SVG/1.1/DTD/svg11.dtd">
<!-- Generated by graphviz version 2.28.0 (20110509.1545)
 -->
<!-- Title: RTX::OdbcPointRecord::OdbcConnection Pages: 1 -->
<svg width="128pt" height="208pt"
 viewBox="0.00 0.00 128.00 208.00" xmlns="http://www.w3.org/2000/svg" xmlns:xlink="http://www.w3.org/1999/xlink">
<g id="graph1" class="graph" transform="scale(1 1) rotate(0) translate(4 204)">
<title>RTX::OdbcPointRecord::OdbcConnection</title>
<polygon fill="white" stroke="white" points="-4,5 -4,-204 125,-204 125,5 -4,5"/>
<!-- Node1 -->
<g id="node1" class="node"><title>Node1</title>
<polygon fill="#bfbfbf" stroke="black" points="-0.155762,-1 -0.155762,-33 120.156,-33 120.156,-1 -0.155762,-1"/>
<text text-anchor="start" x="7.84424" y="-19" font-family="Helvetica,sans-Serif" font-size="10.00">RTX::OdbcPointRecord</text>
<text text-anchor="middle" x="60" y="-7" font-family="Helvetica,sans-Serif" font-size="10.00">::OdbcConnection</text>
</g>
<!-- Node2 -->
<g id="node2" class="node"><title>Node2</title>
<a xlink:title="STL class. ">
<polygon fill="white" stroke="#bfbfbf" points="30.3252,-107 30.3252,-127 89.6748,-127 89.6748,-107 30.3252,-107"/>
<text text-anchor="middle" x="60" y="-113" font-family="Helvetica,sans-Serif" font-size="10.00">std::string</text>
</a>
</g>
<!-- Node2&#45;&gt;Node1 -->
<g id="edge2" class="edge"><title>Node2&#45;&gt;Node1</title>
<path fill="none" stroke="#9a32cd" stroke-dasharray="5,2" d="M60,-96.7051C60,-78.0353 60,-50.1249 60,-33.0442"/>
<polygon fill="#9a32cd" stroke="#9a32cd" points="56.5001,-96.956 60,-106.956 63.5001,-96.9561 56.5001,-96.956"/>
<text text-anchor="middle" x="70.5615" y="-78" font-family="Helvetica,sans-Serif" font-size="10.00"> pwd</text>
<text text-anchor="middle" x="70.5615" y="-66" font-family="Helvetica,sans-Serif" font-size="10.00">uid</text>
<text text-anchor="middle" x="70.5615" y="-54" font-family="Helvetica,sans-Serif" font-size="10.00">dsn</text>
</g>
<!-- Node3 -->
<g id="node4" class="node"><title>Node3</title>
<a xlink:title="STL class. ">
<polygon fill="white" stroke="#bfbfbf" points="12.9521,-167 12.9521,-199 107.048,-199 107.048,-167 12.9521,-167"/>
<text text-anchor="start" x="20.9521" y="-185" font-family="Helvetica,sans-Serif" font-size="10.00">std::basic_string&lt;</text>
<text text-anchor="middle" x="60" y="-173" font-family="Helvetica,sans-Serif" font-size="10.00"> char &gt;</text>
</a>
</g>
<!-- Node3&#45;&gt;Node2 -->
<g id="edge4" class="edge"><title>Node3&#45;&gt;Node2</title>
<path fill="none" stroke="midnightblue" d="M60,-156.611C60,-146.286 60,-135.001 60,-127.313"/>
<polygon fill="midnightblue" stroke="midnightblue" points="56.5001,-156.833 60,-166.833 63.5001,-156.833 56.5001,-156.833"/>
</g>
</g>
</svg>
