<?xml version="1.0" encoding="UTF-8" standalone="no"?>
<!DOCTYPE svg PUBLIC "-//W3C//DTD SVG 1.1//EN"
 "http://www.w3.org/Graphics/SVG/1.1/DTD/svg11.dtd">
<!-- Generated by graphviz version 2.36.0 (20140111.2315)
 -->
<!-- Title: RTX::TimeSeries::Summary::Stats Pages: 1 -->
<svg width="146pt" height="114pt"
 viewBox="0.00 0.00 146.00 114.00" xmlns="http://www.w3.org/2000/svg" xmlns:xlink="http://www.w3.org/1999/xlink">
<g id="graph0" class="graph" transform="scale(1 1) rotate(0) translate(4 110)">
<title>RTX::TimeSeries::Summary::Stats</title>
<polygon fill="white" stroke="none" points="-4,4 -4,-110 142,-110 142,4 -4,4"/>
<!-- Node1 -->
<g id="node1" class="node"><title>Node1</title>
<polygon fill="#bfbfbf" stroke="black" points="-0.960449,-1 -0.960449,-29 138.96,-29 138.96,-1 -0.960449,-1"/>
<text text-anchor="start" x="7.03955" y="-17" font-family="Helvetica,sans-Serif" font-size="10.00">RTX::TimeSeries::Summary</text>
<text text-anchor="middle" x="69" y="-7" font-family="Helvetica,sans-Serif" font-size="10.00">::Stats</text>
</g>
<!-- Node2 -->
<g id="node2" class="node"><title>Node2</title>
<g id="a_node2"><a xlink:href="struct_r_t_x_1_1_time_series_1_1_summary_1_1_stats_1_1quartiles__t.html" target="_top" xlink:title="RTX::TimeSeries::Summary\l::Stats::quartiles_t">
<polygon fill="white" stroke="black" points="-0.960449,-77 -0.960449,-105 138.96,-105 138.96,-77 -0.960449,-77"/>
<text text-anchor="start" x="7.03955" y="-93" font-family="Helvetica,sans-Serif" font-size="10.00">RTX::TimeSeries::Summary</text>
<text text-anchor="middle" x="69" y="-83" font-family="Helvetica,sans-Serif" font-size="10.00">::Stats::quartiles_t</text>
</a>
</g>
</g>
<!-- Node2&#45;&gt;Node1 -->
<g id="edge1" class="edge"><title>Node2&#45;&gt;Node1</title>
<path fill="none" stroke="#9a32cd" stroke-dasharray="5,2" d="M69,-66.6629C69,-54.2712 69,-39.5008 69,-29.1152"/>
<polygon fill="#9a32cd" stroke="#9a32cd" points="65.5001,-66.7702 69,-76.7703 72.5001,-66.7703 65.5001,-66.7702"/>
<text text-anchor="middle" x="89.2881" y="-50" font-family="Helvetica,sans-Serif" font-size="10.00"> quartiles</text>
</g>
</g>
</svg>
