<?xml version="1.0" encoding="UTF-8" standalone="no"?>
<!DOCTYPE svg PUBLIC "-//W3C//DTD SVG 1.1//EN"
 "http://www.w3.org/Graphics/SVG/1.1/DTD/svg11.dtd">
<!-- Generated by graphviz version 2.36.0 (20140111.2315)
 -->
<!-- Title: RTX::Node Pages: 1 -->
<svg width="172pt" height="196pt"
 viewBox="0.00 0.00 172.00 196.00" xmlns="http://www.w3.org/2000/svg" xmlns:xlink="http://www.w3.org/1999/xlink">
<g id="graph0" class="graph" transform="scale(1 1) rotate(0) translate(4 192)">
<title>RTX::Node</title>
<polygon fill="white" stroke="none" points="-4,4 -4,-192 168,-192 168,4 -4,4"/>
<!-- Node1 -->
<g id="node1" class="node"><title>Node1</title>
<polygon fill="#bfbfbf" stroke="black" points="54.3564,-113 54.3564,-131 119.644,-131 119.644,-113 54.3564,-113"/>
<text text-anchor="middle" x="87" y="-119" font-family="Helvetica,sans-Serif" font-size="10.00">RTX::Node</text>
</g>
<!-- Node3 -->
<g id="node3" class="node"><title>Node3</title>
<g id="a_node3"><a xlink:href="class_r_t_x_1_1_junction.html" target="_top" xlink:title="Junction Class. ">
<polygon fill="white" stroke="black" points="47.6865,-57 47.6865,-75 126.313,-75 126.313,-57 47.6865,-57"/>
<text text-anchor="middle" x="87" y="-63" font-family="Helvetica,sans-Serif" font-size="10.00">RTX::Junction</text>
</a>
</g>
</g>
<!-- Node1&#45;&gt;Node3 -->
<g id="edge2" class="edge"><title>Node1&#45;&gt;Node3</title>
<path fill="none" stroke="midnightblue" d="M87,-102.329C87,-93.0774 87,-82.3798 87,-75.2014"/>
<polygon fill="midnightblue" stroke="midnightblue" points="83.5001,-102.562 87,-112.562 90.5001,-102.563 83.5001,-102.562"/>
</g>
<!-- Node2 -->
<g id="node2" class="node"><title>Node2</title>
<g id="a_node2"><a xlink:href="class_r_t_x_1_1_element.html" target="_top" xlink:title="Element Base Class. ">
<polygon fill="white" stroke="black" points="47.9673,-169 47.9673,-187 126.033,-187 126.033,-169 47.9673,-169"/>
<text text-anchor="middle" x="87" y="-175" font-family="Helvetica,sans-Serif" font-size="10.00">RTX::Element</text>
</a>
</g>
</g>
<!-- Node2&#45;&gt;Node1 -->
<g id="edge1" class="edge"><title>Node2&#45;&gt;Node1</title>
<path fill="none" stroke="midnightblue" d="M87,-158.329C87,-149.077 87,-138.38 87,-131.201"/>
<polygon fill="midnightblue" stroke="midnightblue" points="83.5001,-158.562 87,-168.562 90.5001,-158.563 83.5001,-158.562"/>
</g>
<!-- Node4 -->
<g id="node4" class="node"><title>Node4</title>
<g id="a_node4"><a xlink:href="class_r_t_x_1_1_reservoir.html" target="_top" xlink:title="RTX::Reservoir">
<polygon fill="white" stroke="black" points="-0.0844727,-1 -0.0844727,-19 84.0845,-19 84.0845,-1 -0.0844727,-1"/>
<text text-anchor="middle" x="42" y="-7" font-family="Helvetica,sans-Serif" font-size="10.00">RTX::Reservoir</text>
</a>
</g>
</g>
<!-- Node3&#45;&gt;Node4 -->
<g id="edge3" class="edge"><title>Node3&#45;&gt;Node4</title>
<path fill="none" stroke="midnightblue" d="M73.4432,-48.7319C65.3213,-38.9855 55.3423,-27.0108 48.8345,-19.2014"/>
<polygon fill="midnightblue" stroke="midnightblue" points="70.8781,-51.1209 79.9688,-56.5625 76.2557,-46.6396 70.8781,-51.1209"/>
</g>
<!-- Node5 -->
<g id="node5" class="node"><title>Node5</title>
<g id="a_node5"><a xlink:href="class_r_t_x_1_1_tank.html" target="_top" xlink:title="RTX::Tank">
<polygon fill="white" stroke="black" points="101.748,-1 101.748,-19 164.252,-19 164.252,-1 101.748,-1"/>
<text text-anchor="middle" x="133" y="-7" font-family="Helvetica,sans-Serif" font-size="10.00">RTX::Tank</text>
</a>
</g>
</g>
<!-- Node3&#45;&gt;Node5 -->
<g id="edge4" class="edge"><title>Node3&#45;&gt;Node5</title>
<path fill="none" stroke="midnightblue" d="M100.858,-48.7319C109.16,-38.9855 119.361,-27.0108 126.014,-19.2014"/>
<polygon fill="midnightblue" stroke="midnightblue" points="98.0078,-46.6804 94.1875,-56.5625 103.337,-51.2197 98.0078,-46.6804"/>
</g>
</g>
</svg>
