<?xml version="1.0" encoding="UTF-8" standalone="no"?>
<!DOCTYPE svg PUBLIC "-//W3C//DTD SVG 1.1//EN"
 "http://www.w3.org/Graphics/SVG/1.1/DTD/svg11.dtd">
<!-- Generated by graphviz version 2.36.0 (20140111.2315)
 -->
<!-- Title: RTX::Resampler Pages: 1 -->
<svg width="400pt" height="262pt"
 viewBox="0.00 0.00 400.00 262.00" xmlns="http://www.w3.org/2000/svg" xmlns:xlink="http://www.w3.org/1999/xlink">
<g id="graph0" class="graph" transform="scale(1 1) rotate(0) translate(4 258)">
<title>RTX::Resampler</title>
<polygon fill="white" stroke="none" points="-4,4 -4,-258 396,-258 396,4 -4,4"/>
<!-- Node1 -->
<g id="node1" class="node"><title>Node1</title>
<polygon fill="#bfbfbf" stroke="black" points="166.135,-57 166.135,-75 255.865,-75 255.865,-57 166.135,-57"/>
<text text-anchor="middle" x="211" y="-63" font-family="Helvetica,sans-Serif" font-size="10.00">RTX::Resampler</text>
</g>
<!-- Node5 -->
<g id="node5" class="node"><title>Node5</title>
<g id="a_node5"><a xlink:href="class_r_t_x_1_1_aggregator_time_series.html" target="_top" xlink:title="Aggregates (and optionally scales) arbitrary many input time series. ">
<polygon fill="white" stroke="black" points="-0.529297,-1 -0.529297,-19 140.529,-19 140.529,-1 -0.529297,-1"/>
<text text-anchor="middle" x="70" y="-7" font-family="Helvetica,sans-Serif" font-size="10.00">RTX::AggregatorTimeSeries</text>
</a>
</g>
</g>
<!-- Node1&#45;&gt;Node5 -->
<g id="edge4" class="edge"><title>Node1&#45;&gt;Node5</title>
<path fill="none" stroke="midnightblue" d="M180.542,-53.3354C153.601,-43.0175 114.988,-28.2294 91.2534,-19.1396"/>
<polygon fill="midnightblue" stroke="midnightblue" points="179.301,-56.6076 189.891,-56.9157 181.804,-50.0706 179.301,-56.6076"/>
</g>
<!-- Node6 -->
<g id="node6" class="node"><title>Node6</title>
<g id="a_node6"><a xlink:href="class_r_t_x_1_1_first_derivative.html" target="_top" xlink:title="RTX::FirstDerivative">
<polygon fill="white" stroke="black" points="158.361,-1 158.361,-19 263.639,-19 263.639,-1 158.361,-1"/>
<text text-anchor="middle" x="211" y="-7" font-family="Helvetica,sans-Serif" font-size="10.00">RTX::FirstDerivative</text>
</a>
</g>
</g>
<!-- Node1&#45;&gt;Node6 -->
<g id="edge5" class="edge"><title>Node1&#45;&gt;Node6</title>
<path fill="none" stroke="midnightblue" d="M211,-46.3288C211,-37.0774 211,-26.3798 211,-19.2014"/>
<polygon fill="midnightblue" stroke="midnightblue" points="207.5,-46.5625 211,-56.5625 214.5,-46.5625 207.5,-46.5625"/>
</g>
<!-- Node7 -->
<g id="node7" class="node"><title>Node7</title>
<g id="a_node7"><a xlink:href="class_r_t_x_1_1_moving_average.html" target="_top" xlink:title="RTX::MovingAverage">
<polygon fill="white" stroke="black" points="281.656,-1 281.656,-19 392.344,-19 392.344,-1 281.656,-1"/>
<text text-anchor="middle" x="337" y="-7" font-family="Helvetica,sans-Serif" font-size="10.00">RTX::MovingAverage</text>
</a>
</g>
</g>
<!-- Node1&#45;&gt;Node7 -->
<g id="edge6" class="edge"><title>Node1&#45;&gt;Node7</title>
<path fill="none" stroke="midnightblue" d="M239.173,-52.9258C263.198,-42.6293 297.077,-28.1098 318.008,-19.1396"/>
<polygon fill="midnightblue" stroke="midnightblue" points="237.676,-49.7594 229.863,-56.9157 240.434,-56.1934 237.676,-49.7594"/>
</g>
<!-- Node2 -->
<g id="node2" class="node"><title>Node2</title>
<g id="a_node2"><a xlink:href="class_r_t_x_1_1_modular_time_series.html" target="_top" xlink:title="A Time Series class that allows a single upstream TimeSeries. ">
<polygon fill="white" stroke="black" points="147.146,-113 147.146,-131 274.854,-131 274.854,-113 147.146,-113"/>
<text text-anchor="middle" x="211" y="-119" font-family="Helvetica,sans-Serif" font-size="10.00">RTX::ModularTimeSeries</text>
</a>
</g>
</g>
<!-- Node2&#45;&gt;Node1 -->
<g id="edge1" class="edge"><title>Node2&#45;&gt;Node1</title>
<path fill="none" stroke="midnightblue" d="M211,-102.329C211,-93.0774 211,-82.3798 211,-75.2014"/>
<polygon fill="midnightblue" stroke="midnightblue" points="207.5,-102.562 211,-112.562 214.5,-102.563 207.5,-102.562"/>
</g>
<!-- Node3 -->
<g id="node3" class="node"><title>Node3</title>
<g id="a_node3"><a xlink:href="class_r_t_x_1_1_time_series.html" target="_top" xlink:title="An abstraction of Points ordered in time. ">
<polygon fill="white" stroke="black" points="165.209,-169 165.209,-187 256.791,-187 256.791,-169 165.209,-169"/>
<text text-anchor="middle" x="211" y="-175" font-family="Helvetica,sans-Serif" font-size="10.00">RTX::TimeSeries</text>
</a>
</g>
</g>
<!-- Node3&#45;&gt;Node2 -->
<g id="edge2" class="edge"><title>Node3&#45;&gt;Node2</title>
<path fill="none" stroke="midnightblue" d="M211,-158.329C211,-149.077 211,-138.38 211,-131.201"/>
<polygon fill="midnightblue" stroke="midnightblue" points="207.5,-158.562 211,-168.562 214.5,-158.563 207.5,-158.562"/>
</g>
<!-- Node4 -->
<g id="node4" class="node"><title>Node4</title>
<polygon fill="white" stroke="#bfbfbf" points="146.027,-225 146.027,-253 275.973,-253 275.973,-225 146.027,-225"/>
<text text-anchor="start" x="154.027" y="-241" font-family="Helvetica,sans-Serif" font-size="10.00">boost::enable_shared</text>
<text text-anchor="middle" x="211" y="-231" font-family="Helvetica,sans-Serif" font-size="10.00">_from_this&lt; TimeSeries &gt;</text>
</g>
<!-- Node4&#45;&gt;Node3 -->
<g id="edge3" class="edge"><title>Node4&#45;&gt;Node3</title>
<path fill="none" stroke="midnightblue" d="M211,-214.886C211,-205.094 211,-194.316 211,-187.153"/>
<polygon fill="midnightblue" stroke="midnightblue" points="207.5,-214.906 211,-224.906 214.5,-214.906 207.5,-214.906"/>
</g>
</g>
</svg>
