<?xml version="1.0" encoding="UTF-8" standalone="no"?>
<!DOCTYPE svg PUBLIC "-//W3C//DTD SVG 1.1//EN"
 "http://www.w3.org/Graphics/SVG/1.1/DTD/svg11.dtd">
<!-- Generated by graphviz version 2.28.0 (20110509.1545)
 -->
<!-- Title: RTX::Valve Pages: 1 -->
<svg width="86pt" height="204pt"
 viewBox="0.00 0.00 86.00 204.00" xmlns="http://www.w3.org/2000/svg" xmlns:xlink="http://www.w3.org/1999/xlink">
<g id="graph1" class="graph" transform="scale(1 1) rotate(0) translate(4 200)">
<title>RTX::Valve</title>
<polygon fill="white" stroke="white" points="-4,5 -4,-200 83,-200 83,5 -4,5"/>
<!-- Node1 -->
<g id="node1" class="node"><title>Node1</title>
<polygon fill="#bfbfbf" stroke="black" points="6.1709,-1 6.1709,-21 71.8291,-21 71.8291,-1 6.1709,-1"/>
<text text-anchor="middle" x="39" y="-7" font-family="Helvetica,sans-Serif" font-size="10.00">RTX::Valve</text>
</g>
<!-- Node2 -->
<g id="node2" class="node"><title>Node2</title>
<a xlink:href="class_r_t_x_1_1_pipe.html" target="_top" xlink:title="Pipe Class.">
<polygon fill="white" stroke="black" points="8.30225,-59 8.30225,-79 69.6978,-79 69.6978,-59 8.30225,-59"/>
<text text-anchor="middle" x="39" y="-65" font-family="Helvetica,sans-Serif" font-size="10.00">RTX::Pipe</text>
</a>
</g>
<!-- Node2&#45;&gt;Node1 -->
<g id="edge2" class="edge"><title>Node2&#45;&gt;Node1</title>
<path fill="none" stroke="midnightblue" d="M39,-48.7065C39,-39.3384 39,-28.5262 39,-21.0752"/>
<polygon fill="midnightblue" stroke="midnightblue" points="35.5001,-48.7527 39,-58.7527 42.5001,-48.7528 35.5001,-48.7527"/>
</g>
<!-- Node3 -->
<g id="node4" class="node"><title>Node3</title>
<a xlink:href="class_r_t_x_1_1_link.html" target="_top" xlink:title="Link Class.">
<polygon fill="white" stroke="black" points="9.13721,-117 9.13721,-137 68.8628,-137 68.8628,-117 9.13721,-117"/>
<text text-anchor="middle" x="39" y="-123" font-family="Helvetica,sans-Serif" font-size="10.00">RTX::Link</text>
</a>
</g>
<!-- Node3&#45;&gt;Node2 -->
<g id="edge4" class="edge"><title>Node3&#45;&gt;Node2</title>
<path fill="none" stroke="midnightblue" d="M39,-106.707C39,-97.3384 39,-86.5262 39,-79.0752"/>
<polygon fill="midnightblue" stroke="midnightblue" points="35.5001,-106.753 39,-116.753 42.5001,-106.753 35.5001,-106.753"/>
</g>
<!-- Node4 -->
<g id="node6" class="node"><title>Node4</title>
<a xlink:href="class_r_t_x_1_1_element.html" target="_top" xlink:title="Element Base Class.">
<polygon fill="white" stroke="black" points="-0.0327148,-175 -0.0327148,-195 78.0327,-195 78.0327,-175 -0.0327148,-175"/>
<text text-anchor="middle" x="39" y="-181" font-family="Helvetica,sans-Serif" font-size="10.00">RTX::Element</text>
</a>
</g>
<!-- Node4&#45;&gt;Node3 -->
<g id="edge6" class="edge"><title>Node4&#45;&gt;Node3</title>
<path fill="none" stroke="midnightblue" d="M39,-164.707C39,-155.338 39,-144.526 39,-137.075"/>
<polygon fill="midnightblue" stroke="midnightblue" points="35.5001,-164.753 39,-174.753 42.5001,-164.753 35.5001,-164.753"/>
</g>
</g>
</svg>
