<?xml version="1.0" encoding="UTF-8" standalone="no"?>
<!DOCTYPE svg PUBLIC "-//W3C//DTD SVG 1.1//EN"
 "http://www.w3.org/Graphics/SVG/1.1/DTD/svg11.dtd">
<!-- Generated by graphviz version 2.28.0 (20110509.1545)
 -->
<!-- Title: RTX::TimeSeries Pages: 1 -->
<svg width="800pt" height="518pt"
 viewBox="0.00 0.00 800.00 518.00" xmlns="http://www.w3.org/2000/svg" xmlns:xlink="http://www.w3.org/1999/xlink">
<g id="graph1" class="graph" transform="scale(1 1) rotate(0) translate(4 514)">
<title>RTX::TimeSeries</title>
<polygon fill="white" stroke="white" points="-4,5 -4,-514 797,-514 797,5 -4,5"/>
<!-- Node1 -->
<g id="node1" class="node"><title>Node1</title>
<polygon fill="#bfbfbf" stroke="black" points="166.209,-286 166.209,-306 257.791,-306 257.791,-286 166.209,-286"/>
<text text-anchor="middle" x="212" y="-292" font-family="Helvetica,sans-Serif" font-size="10.00">RTX::TimeSeries</text>
</g>
<!-- Node3 -->
<g id="node5" class="node"><title>Node3</title>
<a xlink:href="class_r_t_x_1_1_constant_time_series.html" target="_top" xlink:title="RTX::ConstantTimeSeries">
<polygon fill="white" stroke="black" points="294.197,-325 294.197,-345 425.803,-345 425.803,-325 294.197,-325"/>
<text text-anchor="middle" x="360" y="-331" font-family="Helvetica,sans-Serif" font-size="10.00">RTX::ConstantTimeSeries</text>
</a>
</g>
<!-- Node1&#45;&gt;Node3 -->
<g id="edge4" class="edge"><title>Node1&#45;&gt;Node3</title>
<path fill="none" stroke="midnightblue" d="M260.365,-308.652C280.188,-313.947 302.9,-320.014 321.529,-324.991"/>
<polygon fill="midnightblue" stroke="midnightblue" points="261.163,-305.243 250.599,-306.043 259.357,-312.006 261.163,-305.243"/>
</g>
<!-- Node4 -->
<g id="node7" class="node"><title>Node4</title>
<a xlink:href="class_r_t_x_1_1_modular_time_series.html" target="_top" xlink:title="A Time Series class that allows a single upstream TimeSeries. ">
<polygon fill="white" stroke="black" points="296.146,-286 296.146,-306 423.854,-306 423.854,-286 296.146,-286"/>
<text text-anchor="middle" x="360" y="-292" font-family="Helvetica,sans-Serif" font-size="10.00">RTX::ModularTimeSeries</text>
</a>
</g>
<!-- Node1&#45;&gt;Node4 -->
<g id="edge6" class="edge"><title>Node1&#45;&gt;Node4</title>
<path fill="none" stroke="midnightblue" d="M268.058,-296C277.148,-296 286.633,-296 295.902,-296"/>
<polygon fill="midnightblue" stroke="midnightblue" points="267.996,-292.5 257.996,-296 267.996,-299.5 267.996,-292.5"/>
</g>
<!-- Node27 -->
<g id="node53" class="node"><title>Node27</title>
<a xlink:href="class_r_t_x_1_1_sine_time_series.html" target="_top" xlink:title="RTX::SineTimeSeries">
<polygon fill="white" stroke="black" points="304.202,-247 304.202,-267 415.798,-267 415.798,-247 304.202,-247"/>
<text text-anchor="middle" x="360" y="-253" font-family="Helvetica,sans-Serif" font-size="10.00">RTX::SineTimeSeries</text>
</a>
</g>
<!-- Node1&#45;&gt;Node27 -->
<g id="edge52" class="edge"><title>Node1&#45;&gt;Node27</title>
<path fill="none" stroke="midnightblue" d="M260.365,-283.348C280.188,-278.053 302.9,-271.986 321.529,-267.009"/>
<polygon fill="midnightblue" stroke="midnightblue" points="259.357,-279.994 250.599,-285.957 261.163,-286.757 259.357,-279.994"/>
</g>
<!-- Node2 -->
<g id="node2" class="node"><title>Node2</title>
<polygon fill="white" stroke="#bfbfbf" points="0.0273438,-280 0.0273438,-312 129.973,-312 129.973,-280 0.0273438,-280"/>
<text text-anchor="start" x="8.02734" y="-298" font-family="Helvetica,sans-Serif" font-size="10.00">boost::enable_shared</text>
<text text-anchor="middle" x="65" y="-286" font-family="Helvetica,sans-Serif" font-size="10.00">_from_this&lt; TimeSeries &gt;</text>
</g>
<!-- Node2&#45;&gt;Node1 -->
<g id="edge2" class="edge"><title>Node2&#45;&gt;Node1</title>
<path fill="none" stroke="midnightblue" d="M140.022,-296C148.894,-296 157.736,-296 166.015,-296"/>
<polygon fill="midnightblue" stroke="midnightblue" points="140.021,-292.5 130.021,-296 140.021,-299.5 140.021,-292.5"/>
</g>
<!-- Node5 -->
<g id="node9" class="node"><title>Node5</title>
<a xlink:href="class_r_t_x_1_1_base_stats_time_series.html" target="_top" xlink:title="An abstract timeseries class for computing statistical data from point values. ">
<polygon fill="white" stroke="black" points="468.419,-462 468.419,-482 605.581,-482 605.581,-462 468.419,-462"/>
<text text-anchor="middle" x="537" y="-468" font-family="Helvetica,sans-Serif" font-size="10.00">RTX::BaseStatsTimeSeries</text>
</a>
</g>
<!-- Node4&#45;&gt;Node5 -->
<g id="edge8" class="edge"><title>Node4&#45;&gt;Node5</title>
<path fill="none" stroke="midnightblue" d="M420.841,-311.419C422.675,-312.817 424.405,-314.34 426,-316 469.326,-361.082 417.902,-407.673 462,-452 466.036,-456.057 470.804,-459.315 475.944,-461.929"/>
<polygon fill="midnightblue" stroke="midnightblue" points="422.565,-308.369 412.224,-306.062 418.869,-314.314 422.565,-308.369"/>
</g>
<!-- Node8 -->
<g id="node15" class="node"><title>Node8</title>
<a xlink:href="class_r_t_x_1_1_correlator_time_series.html" target="_top" xlink:title="RTX::CorrelatorTimeSeries">
<polygon fill="white" stroke="black" points="468.98,-423 468.98,-443 605.02,-443 605.02,-423 468.98,-423"/>
<text text-anchor="middle" x="537" y="-429" font-family="Helvetica,sans-Serif" font-size="10.00">RTX::CorrelatorTimeSeries</text>
</a>
</g>
<!-- Node4&#45;&gt;Node8 -->
<g id="edge14" class="edge"><title>Node4&#45;&gt;Node8</title>
<path fill="none" stroke="midnightblue" d="M419.946,-311.137C422.091,-312.61 424.123,-314.226 426,-316 459.427,-347.578 428.032,-382.004 462,-413 466.424,-417.037 471.579,-420.272 477.071,-422.864"/>
<polygon fill="midnightblue" stroke="midnightblue" points="421.612,-308.057 411.194,-306.134 418.139,-314.135 421.612,-308.057"/>
</g>
<!-- Node9 -->
<g id="node17" class="node"><title>Node9</title>
<a xlink:href="class_r_t_x_1_1_curve_function.html" target="_top" xlink:title="A Curve Function Class to perform arbitrary mapping of values. ">
<polygon fill="white" stroke="black" points="483.795,-384 483.795,-404 590.205,-404 590.205,-384 483.795,-384"/>
<text text-anchor="middle" x="537" y="-390" font-family="Helvetica,sans-Serif" font-size="10.00">RTX::CurveFunction</text>
</a>
</g>
<!-- Node4&#45;&gt;Node9 -->
<g id="edge16" class="edge"><title>Node4&#45;&gt;Node9</title>
<path fill="none" stroke="midnightblue" d="M417.167,-310.288C420.278,-311.985 423.252,-313.881 426,-316 450.026,-334.527 437.658,-355.89 462,-374 468.406,-378.766 475.875,-382.397 483.555,-385.162"/>
<polygon fill="midnightblue" stroke="midnightblue" points="418.644,-307.116 408.107,-306.017 415.659,-313.447 418.644,-307.116"/>
</g>
<!-- Node10 -->
<g id="node19" class="node"><title>Node10</title>
<a xlink:href="class_r_t_x_1_1_failover_time_series.html" target="_top" xlink:title="RTX::FailoverTimeSeries">
<polygon fill="white" stroke="black" points="473.426,-345 473.426,-365 600.574,-365 600.574,-345 473.426,-345"/>
<text text-anchor="middle" x="537" y="-351" font-family="Helvetica,sans-Serif" font-size="10.00">RTX::FailoverTimeSeries</text>
</a>
</g>
<!-- Node4&#45;&gt;Node10 -->
<g id="edge18" class="edge"><title>Node4&#45;&gt;Node10</title>
<path fill="none" stroke="midnightblue" d="M407.604,-309.177C413.853,-311.282 420.129,-313.572 426,-316 442.719,-322.913 445.164,-328.377 462,-335 471.66,-338.8 482.303,-342.141 492.433,-344.95"/>
<polygon fill="midnightblue" stroke="midnightblue" points="408.457,-305.775 397.865,-306.032 406.305,-312.436 408.457,-305.775"/>
</g>
<!-- Node11 -->
<g id="node21" class="node"><title>Node11</title>
<a xlink:href="class_r_t_x_1_1_forecast_time_series.html" target="_top" xlink:title="An arima &#45; based time series predictor/forecaster. ">
<polygon fill="white" stroke="black" points="471.759,-306 471.759,-326 602.241,-326 602.241,-306 471.759,-306"/>
<text text-anchor="middle" x="537" y="-312" font-family="Helvetica,sans-Serif" font-size="10.00">RTX::ForecastTimeSeries</text>
</a>
</g>
<!-- Node4&#45;&gt;Node11 -->
<g id="edge20" class="edge"><title>Node4&#45;&gt;Node11</title>
<path fill="none" stroke="midnightblue" d="M434.466,-304.396C446.847,-305.811 459.613,-307.27 471.737,-308.656"/>
<polygon fill="midnightblue" stroke="midnightblue" points="434.512,-300.879 424.179,-303.22 433.717,-307.833 434.512,-300.879"/>
</g>
<!-- Node12 -->
<g id="node23" class="node"><title>Node12</title>
<a xlink:href="class_r_t_x_1_1_resampler.html" target="_top" xlink:title="RTX::Resampler">
<polygon fill="white" stroke="black" points="492.135,-267 492.135,-287 581.865,-287 581.865,-267 492.135,-267"/>
<text text-anchor="middle" x="537" y="-273" font-family="Helvetica,sans-Serif" font-size="10.00">RTX::Resampler</text>
</a>
</g>
<!-- Node4&#45;&gt;Node12 -->
<g id="edge22" class="edge"><title>Node4&#45;&gt;Node12</title>
<path fill="none" stroke="midnightblue" d="M434.339,-288.037C453.98,-285.905 474.599,-283.666 492.094,-281.767"/>
<polygon fill="midnightblue" stroke="midnightblue" points="433.743,-284.582 424.179,-289.141 434.498,-291.541 433.743,-284.582"/>
</g>
<!-- Node16 -->
<g id="node31" class="node"><title>Node16</title>
<a xlink:href="class_r_t_x_1_1_run_time_status_modular_time_series.html" target="_top" xlink:title="RTX::RunTimeStatusModular\lTimeSeries">
<polygon fill="white" stroke="black" points="463.971,-216 463.971,-248 610.029,-248 610.029,-216 463.971,-216"/>
<text text-anchor="start" x="471.971" y="-234" font-family="Helvetica,sans-Serif" font-size="10.00">RTX::RunTimeStatusModular</text>
<text text-anchor="middle" x="537" y="-222" font-family="Helvetica,sans-Serif" font-size="10.00">TimeSeries</text>
</a>
</g>
<!-- Node4&#45;&gt;Node16 -->
<g id="edge30" class="edge"><title>Node4&#45;&gt;Node16</title>
<path fill="none" stroke="midnightblue" d="M407.604,-282.823C413.853,-280.718 420.129,-278.428 426,-276 442.719,-269.087 445.377,-264.14 462,-257 469.351,-253.842 477.245,-250.812 485.04,-248.019"/>
<polygon fill="midnightblue" stroke="midnightblue" points="406.305,-279.564 397.865,-285.968 408.457,-286.225 406.305,-279.564"/>
</g>
<!-- Node17 -->
<g id="node33" class="node"><title>Node17</title>
<a xlink:href="class_r_t_x_1_1_single_point_filter_modular_time_series.html" target="_top" xlink:title="RTX::SinglePointFilterModular\lTimeSeries">
<polygon fill="white" stroke="black" points="461.839,-155 461.839,-187 612.161,-187 612.161,-155 461.839,-155"/>
<text text-anchor="start" x="469.839" y="-173" font-family="Helvetica,sans-Serif" font-size="10.00">RTX::SinglePointFilterModular</text>
<text text-anchor="middle" x="537" y="-161" font-family="Helvetica,sans-Serif" font-size="10.00">TimeSeries</text>
</a>
</g>
<!-- Node4&#45;&gt;Node17 -->
<g id="edge32" class="edge"><title>Node4&#45;&gt;Node17</title>
<path fill="none" stroke="midnightblue" d="M418.377,-281.378C421.07,-279.769 423.632,-277.983 426,-276 452.822,-253.539 436.855,-230.323 462,-206 469.967,-198.293 479.95,-192.033 489.979,-187.054"/>
<polygon fill="midnightblue" stroke="midnightblue" points="416.738,-278.285 409.413,-285.94 419.913,-284.524 416.738,-278.285"/>
</g>
<!-- Node25 -->
<g id="node49" class="node"><title>Node25</title>
<a xlink:href="class_r_t_x_1_1_time_gap_time_series.html" target="_top" xlink:title="A Class to map the input time series into a series whos values are the time gaps between successive p...">
<polygon fill="white" stroke="black" points="470.831,-116 470.831,-136 603.169,-136 603.169,-116 470.831,-116"/>
<text text-anchor="middle" x="537" y="-122" font-family="Helvetica,sans-Serif" font-size="10.00">RTX::TimeGapTimeSeries</text>
</a>
</g>
<!-- Node4&#45;&gt;Node25 -->
<g id="edge48" class="edge"><title>Node4&#45;&gt;Node25</title>
<path fill="none" stroke="midnightblue" d="M420.821,-280.561C422.661,-279.169 424.397,-277.652 426,-276 468.044,-232.662 418.946,-187.334 462,-145 465.594,-141.466 469.751,-138.563 474.226,-136.181"/>
<polygon fill="midnightblue" stroke="midnightblue" points="418.85,-277.665 412.186,-285.902 422.532,-283.619 418.85,-277.665"/>
</g>
<!-- Node26 -->
<g id="node51" class="node"><title>Node26</title>
<a xlink:href="class_r_t_x_1_1_warping_time_series.html" target="_top" xlink:title="RTX::WarpingTimeSeries">
<polygon fill="white" stroke="black" points="472.774,-77 472.774,-97 601.226,-97 601.226,-77 472.774,-77"/>
<text text-anchor="middle" x="537" y="-83" font-family="Helvetica,sans-Serif" font-size="10.00">RTX::WarpingTimeSeries</text>
</a>
</g>
<!-- Node4&#45;&gt;Node26 -->
<g id="edge50" class="edge"><title>Node4&#45;&gt;Node26</title>
<path fill="none" stroke="midnightblue" d="M421.466,-280.267C423.077,-278.955 424.596,-277.536 426,-276 478.104,-218.993 408.566,-161.763 462,-106 465.395,-102.457 469.355,-99.5405 473.645,-97.1445"/>
<polygon fill="midnightblue" stroke="midnightblue" points="419.202,-277.565 412.746,-285.965 423.032,-283.425 419.202,-277.565"/>
</g>
<!-- Node6 -->
<g id="node11" class="node"><title>Node6</title>
<a xlink:href="class_r_t_x_1_1_outlier_exclusion_time_series.html" target="_top" xlink:title="RTX::OutlierExclusionTime\lSeries">
<polygon fill="white" stroke="black" points="652.256,-478 652.256,-510 787.744,-510 787.744,-478 652.256,-478"/>
<text text-anchor="start" x="660.256" y="-496" font-family="Helvetica,sans-Serif" font-size="10.00">RTX::OutlierExclusionTime</text>
<text text-anchor="middle" x="720" y="-484" font-family="Helvetica,sans-Serif" font-size="10.00">Series</text>
</a>
</g>
<!-- Node5&#45;&gt;Node6 -->
<g id="edge10" class="edge"><title>Node5&#45;&gt;Node6</title>
<path fill="none" stroke="midnightblue" d="M615.717,-481.446C627.806,-482.916 640.205,-484.423 652.029,-485.86"/>
<polygon fill="midnightblue" stroke="midnightblue" points="616.004,-477.956 605.655,-480.223 615.16,-484.904 616.004,-477.956"/>
</g>
<!-- Node7 -->
<g id="node13" class="node"><title>Node7</title>
<a xlink:href="class_r_t_x_1_1_stats_time_series.html" target="_top" xlink:title="A modular timeseries class for delivering statistical information. ">
<polygon fill="white" stroke="black" points="662.815,-439 662.815,-459 777.185,-459 777.185,-439 662.815,-439"/>
<text text-anchor="middle" x="720" y="-445" font-family="Helvetica,sans-Serif" font-size="10.00">RTX::StatsTimeSeries</text>
</a>
</g>
<!-- Node5&#45;&gt;Node7 -->
<g id="edge12" class="edge"><title>Node5&#45;&gt;Node7</title>
<path fill="none" stroke="midnightblue" d="M615.893,-462.102C631.616,-460.104 647.857,-458.04 662.667,-456.158"/>
<polygon fill="midnightblue" stroke="midnightblue" points="615.134,-458.67 605.655,-463.403 616.017,-465.614 615.134,-458.67"/>
</g>
<!-- Node13 -->
<g id="node25" class="node"><title>Node13</title>
<a xlink:href="class_r_t_x_1_1_aggregator_time_series.html" target="_top" xlink:title="Aggregates (and optionally scales) arbitrary many input time series. ">
<polygon fill="white" stroke="black" points="649.471,-351 649.471,-371 790.529,-371 790.529,-351 649.471,-351"/>
<text text-anchor="middle" x="720" y="-357" font-family="Helvetica,sans-Serif" font-size="10.00">RTX::AggregatorTimeSeries</text>
</a>
</g>
<!-- Node12&#45;&gt;Node13 -->
<g id="edge24" class="edge"><title>Node12&#45;&gt;Node13</title>
<path fill="none" stroke="midnightblue" d="M591.889,-286.423C598.963,-288.906 605.873,-292.041 612,-296 633.512,-309.901 626.651,-326.85 648,-341 654.191,-345.103 661.221,-348.374 668.393,-350.979"/>
<polygon fill="midnightblue" stroke="midnightblue" points="592.787,-283.038 582.199,-283.427 590.719,-289.725 592.787,-283.038"/>
</g>
<!-- Node14 -->
<g id="node27" class="node"><title>Node14</title>
<a xlink:href="class_r_t_x_1_1_first_derivative.html" target="_top" xlink:title="RTX::FirstDerivative">
<polygon fill="white" stroke="black" points="667.361,-312 667.361,-332 772.639,-332 772.639,-312 667.361,-312"/>
<text text-anchor="middle" x="720" y="-318" font-family="Helvetica,sans-Serif" font-size="10.00">RTX::FirstDerivative</text>
</a>
</g>
<!-- Node12&#45;&gt;Node14 -->
<g id="edge26" class="edge"><title>Node12&#45;&gt;Node14</title>
<path fill="none" stroke="midnightblue" d="M588.377,-289.525C616.815,-296.595 651.879,-305.312 678.516,-311.935"/>
<polygon fill="midnightblue" stroke="midnightblue" points="589.169,-286.115 578.62,-287.099 587.48,-292.908 589.169,-286.115"/>
</g>
<!-- Node15 -->
<g id="node29" class="node"><title>Node15</title>
<a xlink:href="class_r_t_x_1_1_moving_average.html" target="_top" xlink:title="RTX::MovingAverage">
<polygon fill="white" stroke="black" points="664.656,-273 664.656,-293 775.344,-293 775.344,-273 664.656,-273"/>
<text text-anchor="middle" x="720" y="-279" font-family="Helvetica,sans-Serif" font-size="10.00">RTX::MovingAverage</text>
</a>
</g>
<!-- Node12&#45;&gt;Node15 -->
<g id="edge28" class="edge"><title>Node12&#45;&gt;Node15</title>
<path fill="none" stroke="midnightblue" d="M592.469,-278.806C615.267,-279.561 641.709,-280.438 664.509,-281.194"/>
<polygon fill="midnightblue" stroke="midnightblue" points="592.388,-275.301 582.278,-278.468 592.156,-282.297 592.388,-275.301"/>
</g>
<!-- Node18 -->
<g id="node35" class="node"><title>Node18</title>
<a xlink:href="class_r_t_x_1_1_gain_time_series.html" target="_top" xlink:title="RTX::GainTimeSeries">
<polygon fill="white" stroke="black" points="663.648,-234 663.648,-254 776.352,-254 776.352,-234 663.648,-234"/>
<text text-anchor="middle" x="720" y="-240" font-family="Helvetica,sans-Serif" font-size="10.00">RTX::GainTimeSeries</text>
</a>
</g>
<!-- Node17&#45;&gt;Node18 -->
<g id="edge34" class="edge"><title>Node17&#45;&gt;Node18</title>
<path fill="none" stroke="midnightblue" d="M581.381,-191.324C591.453,-196.097 602.117,-201.193 612,-206 628.086,-213.825 631.316,-217.546 648,-224 657.674,-227.742 668.335,-231.119 678.388,-233.986"/>
<polygon fill="midnightblue" stroke="midnightblue" points="582.874,-188.159 572.338,-187.05 579.883,-194.487 582.874,-188.159"/>
</g>
<!-- Node19 -->
<g id="node37" class="node"><title>Node19</title>
<a xlink:href="class_r_t_x_1_1_inversion_time_series.html" target="_top" xlink:title="RTX::InversionTimeSeries">
<polygon fill="white" stroke="black" points="653.921,-195 653.921,-215 786.079,-215 786.079,-195 653.921,-195"/>
<text text-anchor="middle" x="720" y="-201" font-family="Helvetica,sans-Serif" font-size="10.00">RTX::InversionTimeSeries</text>
</a>
</g>
<!-- Node17&#45;&gt;Node19 -->
<g id="edge36" class="edge"><title>Node17&#45;&gt;Node19</title>
<path fill="none" stroke="midnightblue" d="M622.512,-186.875C637.19,-189.632 652.078,-192.429 665.625,-194.974"/>
<polygon fill="midnightblue" stroke="midnightblue" points="622.877,-183.383 612.403,-184.976 621.585,-190.262 622.877,-183.383"/>
</g>
<!-- Node20 -->
<g id="node39" class="node"><title>Node20</title>
<a xlink:href="class_r_t_x_1_1_multiplier_time_series.html" target="_top" xlink:title="RTX::MultiplierTimeSeries">
<polygon fill="white" stroke="black" points="654.205,-156 654.205,-176 785.795,-176 785.795,-156 654.205,-156"/>
<text text-anchor="middle" x="720" y="-162" font-family="Helvetica,sans-Serif" font-size="10.00">RTX::MultiplierTimeSeries</text>
</a>
</g>
<!-- Node17&#45;&gt;Node20 -->
<g id="edge38" class="edge"><title>Node17&#45;&gt;Node20</title>
<path fill="none" stroke="midnightblue" d="M622.535,-168.665C633.158,-168.371 643.891,-168.075 654.145,-167.792"/>
<polygon fill="midnightblue" stroke="midnightblue" points="622.303,-165.17 612.403,-168.945 622.496,-172.167 622.303,-165.17"/>
</g>
<!-- Node21 -->
<g id="node41" class="node"><title>Node21</title>
<a xlink:href="class_r_t_x_1_1_offset_time_series.html" target="_top" xlink:title="RTX::OffsetTimeSeries">
<polygon fill="white" stroke="black" points="660.96,-117 660.96,-137 779.04,-137 779.04,-117 660.96,-117"/>
<text text-anchor="middle" x="720" y="-123" font-family="Helvetica,sans-Serif" font-size="10.00">RTX::OffsetTimeSeries</text>
</a>
</g>
<!-- Node17&#45;&gt;Node21 -->
<g id="edge40" class="edge"><title>Node17&#45;&gt;Node21</title>
<path fill="none" stroke="midnightblue" d="M613.805,-152.572C635.677,-147.255 658.726,-141.652 677.656,-137.051"/>
<polygon fill="midnightblue" stroke="midnightblue" points="612.747,-149.227 603.857,-154.991 614.401,-156.029 612.747,-149.227"/>
</g>
<!-- Node22 -->
<g id="node43" class="node"><title>Node22</title>
<a xlink:href="class_r_t_x_1_1_threshold_time_series.html" target="_top" xlink:title="A Status Class to map the input time series into binary status based on a threshold. ">
<polygon fill="white" stroke="black" points="651.976,-78 651.976,-98 788.024,-98 788.024,-78 651.976,-78"/>
<text text-anchor="middle" x="720" y="-84" font-family="Helvetica,sans-Serif" font-size="10.00">RTX::ThresholdTimeSeries</text>
</a>
</g>
<!-- Node17&#45;&gt;Node22 -->
<g id="edge42" class="edge"><title>Node17&#45;&gt;Node22</title>
<path fill="none" stroke="midnightblue" d="M602.263,-150.626C605.635,-148.88 608.904,-147.007 612,-145 631.521,-132.345 628.009,-118.9 648,-107 654.03,-103.41 660.747,-100.486 667.576,-98.1067"/>
<polygon fill="midnightblue" stroke="midnightblue" points="600.682,-147.502 593.149,-154.952 603.684,-153.826 600.682,-147.502"/>
</g>
<!-- Node23 -->
<g id="node45" class="node"><title>Node23</title>
<a xlink:href="class_r_t_x_1_1_time_offset_time_series.html" target="_top" xlink:title="RTX::TimeOffsetTimeSeries">
<polygon fill="white" stroke="black" points="650.032,-39 650.032,-59 789.968,-59 789.968,-39 650.032,-39"/>
<text text-anchor="middle" x="720" y="-45" font-family="Helvetica,sans-Serif" font-size="10.00">RTX::TimeOffsetTimeSeries</text>
</a>
</g>
<!-- Node17&#45;&gt;Node23 -->
<g id="edge44" class="edge"><title>Node17&#45;&gt;Node23</title>
<path fill="none" stroke="midnightblue" d="M606.556,-149.406C608.456,-148.026 610.277,-146.559 612,-145 640.008,-119.648 619.044,-92.2639 648,-68 652.303,-64.394 657.225,-61.4662 662.425,-59.0901"/>
<polygon fill="midnightblue" stroke="midnightblue" points="604.393,-146.631 597.789,-154.916 608.118,-152.558 604.393,-146.631"/>
</g>
<!-- Node24 -->
<g id="node47" class="node"><title>Node24</title>
<a xlink:href="class_r_t_x_1_1_valid_range_time_series.html" target="_top" xlink:title="RTX::ValidRangeTimeSeries">
<polygon fill="white" stroke="black" points="648.726,-0 648.726,-20 791.274,-20 791.274,-0 648.726,-0"/>
<text text-anchor="middle" x="720" y="-6" font-family="Helvetica,sans-Serif" font-size="10.00">RTX::ValidRangeTimeSeries</text>
</a>
</g>
<!-- Node17&#45;&gt;Node24 -->
<g id="edge46" class="edge"><title>Node17&#45;&gt;Node24</title>
<path fill="none" stroke="midnightblue" d="M607.617,-149.069C609.152,-147.789 610.618,-146.434 612,-145 649.459,-106.131 609.084,-66.4104 648,-29 651.772,-25.3743 656.156,-22.4227 660.861,-20.0221"/>
<polygon fill="midnightblue" stroke="midnightblue" points="605.565,-146.234 599.427,-154.869 609.611,-151.946 605.565,-146.234"/>
</g>
</g>
</svg>
