<?xml version="1.0" encoding="UTF-8" standalone="no"?>
<!DOCTYPE svg PUBLIC "-//W3C//DTD SVG 1.1//EN"
 "http://www.w3.org/Graphics/SVG/1.1/DTD/svg11.dtd">
<!-- Generated by graphviz version 2.36.0 (20140111.2315)
 -->
<!-- Title: RTX::OdbcPointRecord Pages: 1 -->
<svg width="333pt" height="252pt"
 viewBox="0.00 0.00 333.00 252.00" xmlns="http://www.w3.org/2000/svg" xmlns:xlink="http://www.w3.org/1999/xlink">
<g id="graph0" class="graph" transform="scale(1 1) rotate(0) translate(4 248)">
<title>RTX::OdbcPointRecord</title>
<polygon fill="white" stroke="none" points="-4,4 -4,-248 329,-248 329,4 -4,4"/>
<!-- Node1 -->
<g id="node1" class="node"><title>Node1</title>
<polygon fill="#bfbfbf" stroke="black" points="98.8442,-57 98.8442,-75 219.156,-75 219.156,-57 98.8442,-57"/>
<text text-anchor="middle" x="159" y="-63" font-family="Helvetica,sans-Serif" font-size="10.00">RTX::OdbcPointRecord</text>
</g>
<!-- Node5 -->
<g id="node5" class="node"><title>Node5</title>
<g id="a_node5"><a xlink:href="class_r_t_x_1_1_odbc_direct_point_record.html" target="_top" xlink:title="RTX::OdbcDirectPointRecord">
<polygon fill="white" stroke="black" points="-0.212402,-1 -0.212402,-19 146.212,-19 146.212,-1 -0.212402,-1"/>
<text text-anchor="middle" x="73" y="-7" font-family="Helvetica,sans-Serif" font-size="10.00">RTX::OdbcDirectPointRecord</text>
</a>
</g>
</g>
<!-- Node1&#45;&gt;Node5 -->
<g id="edge4" class="edge"><title>Node1&#45;&gt;Node5</title>
<path fill="none" stroke="midnightblue" d="M137.122,-51.2623C120.933,-41.0976 99.4314,-27.5964 85.9027,-19.1017"/>
<polygon fill="midnightblue" stroke="midnightblue" points="135.608,-54.445 145.938,-56.7986 139.331,-48.5167 135.608,-54.445"/>
</g>
<!-- Node6 -->
<g id="node6" class="node"><title>Node6</title>
<g id="a_node6"><a xlink:href="class_r_t_x_1_1_odbc_prepared_point_record.html" target="_top" xlink:title="RTX::OdbcPreparedPointRecord">
<polygon fill="white" stroke="black" points="164.275,-1 164.275,-19 325.725,-19 325.725,-1 164.275,-1"/>
<text text-anchor="middle" x="245" y="-7" font-family="Helvetica,sans-Serif" font-size="10.00">RTX::OdbcPreparedPointRecord</text>
</a>
</g>
</g>
<!-- Node1&#45;&gt;Node6 -->
<g id="edge5" class="edge"><title>Node1&#45;&gt;Node6</title>
<path fill="none" stroke="midnightblue" d="M180.878,-51.2623C197.067,-41.0976 218.569,-27.5964 232.097,-19.1017"/>
<polygon fill="midnightblue" stroke="midnightblue" points="178.669,-48.5167 172.062,-56.7986 182.392,-54.445 178.669,-48.5167"/>
</g>
<!-- Node2 -->
<g id="node2" class="node"><title>Node2</title>
<g id="a_node2"><a xlink:href="class_r_t_x_1_1_db_point_record.html" target="_top" xlink:title="A persistence layer for databases. ">
<polygon fill="white" stroke="black" points="104.403,-113 104.403,-131 213.597,-131 213.597,-113 104.403,-113"/>
<text text-anchor="middle" x="159" y="-119" font-family="Helvetica,sans-Serif" font-size="10.00">RTX::DbPointRecord</text>
</a>
</g>
</g>
<!-- Node2&#45;&gt;Node1 -->
<g id="edge1" class="edge"><title>Node2&#45;&gt;Node1</title>
<path fill="none" stroke="midnightblue" d="M159,-102.329C159,-93.0774 159,-82.3798 159,-75.2014"/>
<polygon fill="midnightblue" stroke="midnightblue" points="155.5,-102.562 159,-112.562 162.5,-102.563 155.5,-102.562"/>
</g>
<!-- Node3 -->
<g id="node3" class="node"><title>Node3</title>
<g id="a_node3"><a xlink:href="class_r_t_x_1_1_buffer_point_record.html" target="_top" xlink:title="RTX::BufferPointRecord">
<polygon fill="white" stroke="black" points="97.543,-169 97.543,-187 220.457,-187 220.457,-169 97.543,-169"/>
<text text-anchor="middle" x="159" y="-175" font-family="Helvetica,sans-Serif" font-size="10.00">RTX::BufferPointRecord</text>
</a>
</g>
</g>
<!-- Node3&#45;&gt;Node2 -->
<g id="edge2" class="edge"><title>Node3&#45;&gt;Node2</title>
<path fill="none" stroke="midnightblue" d="M159,-158.329C159,-149.077 159,-138.38 159,-131.201"/>
<polygon fill="midnightblue" stroke="midnightblue" points="155.5,-158.562 159,-168.562 162.5,-158.563 155.5,-158.562"/>
</g>
<!-- Node4 -->
<g id="node4" class="node"><title>Node4</title>
<g id="a_node4"><a xlink:href="class_r_t_x_1_1_point_record.html" target="_top" xlink:title="A Point Record Class for storing and retrieving Points. ">
<polygon fill="white" stroke="black" points="110.795,-225 110.795,-243 207.205,-243 207.205,-225 110.795,-225"/>
<text text-anchor="middle" x="159" y="-231" font-family="Helvetica,sans-Serif" font-size="10.00">RTX::PointRecord</text>
</a>
</g>
</g>
<!-- Node4&#45;&gt;Node3 -->
<g id="edge3" class="edge"><title>Node4&#45;&gt;Node3</title>
<path fill="none" stroke="midnightblue" d="M159,-214.329C159,-205.077 159,-194.38 159,-187.201"/>
<polygon fill="midnightblue" stroke="midnightblue" points="155.5,-214.562 159,-224.562 162.5,-214.563 155.5,-214.562"/>
</g>
</g>
</svg>
