<?xml version="1.0" encoding="UTF-8" standalone="no"?>
<!DOCTYPE svg PUBLIC "-//W3C//DTD SVG 1.1//EN"
 "http://www.w3.org/Graphics/SVG/1.1/DTD/svg11.dtd">
<!-- Generated by graphviz version 2.28.0 (20110509.1545)
 -->
<!-- Title: RTX::BaseStatsTimeSeries Pages: 1 -->
<svg width="275pt" height="286pt"
 viewBox="0.00 0.00 275.00 286.00" xmlns="http://www.w3.org/2000/svg" xmlns:xlink="http://www.w3.org/1999/xlink">
<g id="graph1" class="graph" transform="scale(1 1) rotate(0) translate(4 282)">
<title>RTX::BaseStatsTimeSeries</title>
<polygon fill="white" stroke="white" points="-4,5 -4,-282 272,-282 272,5 -4,5"/>
<!-- Node1 -->
<g id="node1" class="node"><title>Node1</title>
<polygon fill="#bfbfbf" stroke="black" points="69.4189,-71 69.4189,-91 206.581,-91 206.581,-71 69.4189,-71"/>
<text text-anchor="middle" x="138" y="-77" font-family="Helvetica,sans-Serif" font-size="10.00">RTX::BaseStatsTimeSeries</text>
</g>
<!-- Node5 -->
<g id="node9" class="node"><title>Node5</title>
<a xlink:href="class_r_t_x_1_1_outlier_exclusion_time_series.html" target="_top" xlink:title="RTX::OutlierExclusionTime\lSeries">
<polygon fill="white" stroke="black" points="-0.743652,-1 -0.743652,-33 134.744,-33 134.744,-1 -0.743652,-1"/>
<text text-anchor="start" x="7.25635" y="-19" font-family="Helvetica,sans-Serif" font-size="10.00">RTX::OutlierExclusionTime</text>
<text text-anchor="middle" x="67" y="-7" font-family="Helvetica,sans-Serif" font-size="10.00">Series</text>
</a>
</g>
<!-- Node1&#45;&gt;Node5 -->
<g id="edge8" class="edge"><title>Node1&#45;&gt;Node5</title>
<path fill="none" stroke="midnightblue" d="M119.853,-64.1533C108.956,-54.6379 95.1669,-42.5965 84.4055,-33.1992"/>
<polygon fill="midnightblue" stroke="midnightblue" points="117.689,-66.9104 127.524,-70.8517 122.293,-61.6378 117.689,-66.9104"/>
</g>
<!-- Node6 -->
<g id="node11" class="node"><title>Node6</title>
<a xlink:href="class_r_t_x_1_1_stats_time_series.html" target="_top" xlink:title="A modular timeseries class for delivering statistical information. ">
<polygon fill="white" stroke="black" points="152.815,-7 152.815,-27 267.185,-27 267.185,-7 152.815,-7"/>
<text text-anchor="middle" x="210" y="-13" font-family="Helvetica,sans-Serif" font-size="10.00">RTX::StatsTimeSeries</text>
</a>
</g>
<!-- Node1&#45;&gt;Node6 -->
<g id="edge10" class="edge"><title>Node1&#45;&gt;Node6</title>
<path fill="none" stroke="midnightblue" d="M156.416,-64.1419C170.011,-52.4346 188.042,-36.9082 199.333,-27.1858"/>
<polygon fill="midnightblue" stroke="midnightblue" points="153.918,-61.6742 148.624,-70.8517 158.485,-66.9786 153.918,-61.6742"/>
</g>
<!-- Node2 -->
<g id="node2" class="node"><title>Node2</title>
<a xlink:href="class_r_t_x_1_1_modular_time_series.html" target="_top" xlink:title="A Time Series class that allows a single upstream TimeSeries. ">
<polygon fill="white" stroke="black" points="74.1455,-129 74.1455,-149 201.854,-149 201.854,-129 74.1455,-129"/>
<text text-anchor="middle" x="138" y="-135" font-family="Helvetica,sans-Serif" font-size="10.00">RTX::ModularTimeSeries</text>
</a>
</g>
<!-- Node2&#45;&gt;Node1 -->
<g id="edge2" class="edge"><title>Node2&#45;&gt;Node1</title>
<path fill="none" stroke="midnightblue" d="M138,-118.707C138,-109.338 138,-98.5262 138,-91.0752"/>
<polygon fill="midnightblue" stroke="midnightblue" points="134.5,-118.753 138,-128.753 141.5,-118.753 134.5,-118.753"/>
</g>
<!-- Node3 -->
<g id="node4" class="node"><title>Node3</title>
<a xlink:href="class_r_t_x_1_1_time_series.html" target="_top" xlink:title="An abstraction of Points ordered in time. ">
<polygon fill="white" stroke="black" points="92.2095,-187 92.2095,-207 183.791,-207 183.791,-187 92.2095,-187"/>
<text text-anchor="middle" x="138" y="-193" font-family="Helvetica,sans-Serif" font-size="10.00">RTX::TimeSeries</text>
</a>
</g>
<!-- Node3&#45;&gt;Node2 -->
<g id="edge4" class="edge"><title>Node3&#45;&gt;Node2</title>
<path fill="none" stroke="midnightblue" d="M138,-176.707C138,-167.338 138,-156.526 138,-149.075"/>
<polygon fill="midnightblue" stroke="midnightblue" points="134.5,-176.753 138,-186.753 141.5,-176.753 134.5,-176.753"/>
</g>
<!-- Node4 -->
<g id="node6" class="node"><title>Node4</title>
<polygon fill="white" stroke="#bfbfbf" points="73.0273,-245 73.0273,-277 202.973,-277 202.973,-245 73.0273,-245"/>
<text text-anchor="start" x="81.0273" y="-263" font-family="Helvetica,sans-Serif" font-size="10.00">boost::enable_shared</text>
<text text-anchor="middle" x="138" y="-251" font-family="Helvetica,sans-Serif" font-size="10.00">_from_this&lt; TimeSeries &gt;</text>
</g>
<!-- Node4&#45;&gt;Node3 -->
<g id="edge6" class="edge"><title>Node4&#45;&gt;Node3</title>
<path fill="none" stroke="midnightblue" d="M138,-234.922C138,-225.172 138,-214.61 138,-207.29"/>
<polygon fill="midnightblue" stroke="midnightblue" points="134.5,-234.991 138,-244.992 141.5,-234.992 134.5,-234.991"/>
</g>
</g>
</svg>
