<?xml version="1.0" encoding="UTF-8" standalone="no"?>
<!DOCTYPE svg PUBLIC "-//W3C//DTD SVG 1.1//EN"
 "http://www.w3.org/Graphics/SVG/1.1/DTD/svg11.dtd">
<!-- Generated by graphviz version 2.28.0 (20110509.1545)
 -->
<!-- Title: RTX::Element Pages: 1 -->
<svg width="341pt" height="204pt"
 viewBox="0.00 0.00 341.00 204.00" xmlns="http://www.w3.org/2000/svg" xmlns:xlink="http://www.w3.org/1999/xlink">
<g id="graph1" class="graph" transform="scale(1 1) rotate(0) translate(4 200)">
<title>RTX::Element</title>
<polygon fill="white" stroke="white" points="-4,5 -4,-200 338,-200 338,5 -4,5"/>
<!-- Node1 -->
<g id="node1" class="node"><title>Node1</title>
<polygon fill="#bfbfbf" stroke="black" points="168.967,-175 168.967,-195 247.033,-195 247.033,-175 168.967,-175"/>
<text text-anchor="middle" x="208" y="-181" font-family="Helvetica,sans-Serif" font-size="10.00">RTX::Element</text>
</g>
<!-- Node2 -->
<g id="node3" class="node"><title>Node2</title>
<a xlink:href="class_r_t_x_1_1_link.html" target="_top" xlink:title="Link Class.">
<polygon fill="white" stroke="black" points="94.1372,-117 94.1372,-137 153.863,-137 153.863,-117 94.1372,-117"/>
<text text-anchor="middle" x="124" y="-123" font-family="Helvetica,sans-Serif" font-size="10.00">RTX::Link</text>
</a>
</g>
<!-- Node1&#45;&gt;Node2 -->
<g id="edge2" class="edge"><title>Node1&#45;&gt;Node2</title>
<path fill="none" stroke="midnightblue" d="M185.729,-169.153C170.43,-158.953 150.612,-145.741 137.613,-137.075"/>
<polygon fill="midnightblue" stroke="midnightblue" points="183.867,-172.118 194.129,-174.753 187.75,-166.294 183.867,-172.118"/>
</g>
<!-- Node6 -->
<g id="node11" class="node"><title>Node6</title>
<a xlink:href="class_r_t_x_1_1_node.html" target="_top" xlink:title="Node Class.">
<polygon fill="white" stroke="black" points="175.356,-117 175.356,-137 240.644,-137 240.644,-117 175.356,-117"/>
<text text-anchor="middle" x="208" y="-123" font-family="Helvetica,sans-Serif" font-size="10.00">RTX::Node</text>
</a>
</g>
<!-- Node1&#45;&gt;Node6 -->
<g id="edge10" class="edge"><title>Node1&#45;&gt;Node6</title>
<path fill="none" stroke="midnightblue" d="M208,-164.707C208,-155.338 208,-144.526 208,-137.075"/>
<polygon fill="midnightblue" stroke="midnightblue" points="204.5,-164.753 208,-174.753 211.5,-164.753 204.5,-164.753"/>
</g>
<!-- Node10 -->
<g id="node19" class="node"><title>Node10</title>
<a xlink:href="class_r_t_x_1_1_zone.html" target="_top" xlink:title="Zone represents a collection of junctions that can be considered together in a control volume...">
<polygon fill="white" stroke="black" points="258.913,-117 258.913,-137 323.087,-137 323.087,-117 258.913,-117"/>
<text text-anchor="middle" x="291" y="-123" font-family="Helvetica,sans-Serif" font-size="10.00">RTX::Zone</text>
</a>
</g>
<!-- Node1&#45;&gt;Node10 -->
<g id="edge18" class="edge"><title>Node1&#45;&gt;Node10</title>
<path fill="none" stroke="midnightblue" d="M230.006,-169.153C245.123,-158.953 264.705,-145.741 277.549,-137.075"/>
<polygon fill="midnightblue" stroke="midnightblue" points="228.038,-166.258 221.706,-174.753 231.953,-172.061 228.038,-166.258"/>
</g>
<!-- Node3 -->
<g id="node5" class="node"><title>Node3</title>
<a xlink:href="class_r_t_x_1_1_pipe.html" target="_top" xlink:title="Pipe Class.">
<polygon fill="white" stroke="black" points="87.3022,-59 87.3022,-79 148.698,-79 148.698,-59 87.3022,-59"/>
<text text-anchor="middle" x="118" y="-65" font-family="Helvetica,sans-Serif" font-size="10.00">RTX::Pipe</text>
</a>
</g>
<!-- Node2&#45;&gt;Node3 -->
<g id="edge4" class="edge"><title>Node2&#45;&gt;Node3</title>
<path fill="none" stroke="midnightblue" d="M121.933,-106.707C120.929,-97.3384 119.771,-86.5262 118.972,-79.0752"/>
<polygon fill="midnightblue" stroke="midnightblue" points="118.464,-107.183 123.009,-116.753 125.424,-106.437 118.464,-107.183"/>
</g>
<!-- Node4 -->
<g id="node7" class="node"><title>Node4</title>
<a xlink:href="class_r_t_x_1_1_pump.html" target="_top" xlink:title="RTX::Pump">
<polygon fill="white" stroke="black" points="-0.751953,-1 -0.751953,-21 66.752,-21 66.752,-1 -0.751953,-1"/>
<text text-anchor="middle" x="33" y="-7" font-family="Helvetica,sans-Serif" font-size="10.00">RTX::Pump</text>
</a>
</g>
<!-- Node3&#45;&gt;Node4 -->
<g id="edge6" class="edge"><title>Node3&#45;&gt;Node4</title>
<path fill="none" stroke="midnightblue" d="M95.4641,-53.1528C79.9829,-42.9534 59.9284,-29.7411 46.7748,-21.0752"/>
<polygon fill="midnightblue" stroke="midnightblue" points="93.6878,-56.1738 103.964,-58.7527 97.5389,-50.3284 93.6878,-56.1738"/>
</g>
<!-- Node5 -->
<g id="node9" class="node"><title>Node5</title>
<a xlink:href="class_r_t_x_1_1_valve.html" target="_top" xlink:title="RTX::Valve">
<polygon fill="white" stroke="black" points="85.1709,-1 85.1709,-21 150.829,-21 150.829,-1 85.1709,-1"/>
<text text-anchor="middle" x="118" y="-7" font-family="Helvetica,sans-Serif" font-size="10.00">RTX::Valve</text>
</a>
</g>
<!-- Node3&#45;&gt;Node5 -->
<g id="edge8" class="edge"><title>Node3&#45;&gt;Node5</title>
<path fill="none" stroke="midnightblue" d="M118,-48.7065C118,-39.3384 118,-28.5262 118,-21.0752"/>
<polygon fill="midnightblue" stroke="midnightblue" points="114.5,-48.7527 118,-58.7527 121.5,-48.7528 114.5,-48.7527"/>
</g>
<!-- Node7 -->
<g id="node13" class="node"><title>Node7</title>
<a xlink:href="class_r_t_x_1_1_junction.html" target="_top" xlink:title="Junction Class.">
<polygon fill="white" stroke="black" points="171.687,-59 171.687,-79 250.313,-79 250.313,-59 171.687,-59"/>
<text text-anchor="middle" x="211" y="-65" font-family="Helvetica,sans-Serif" font-size="10.00">RTX::Junction</text>
</a>
</g>
<!-- Node6&#45;&gt;Node7 -->
<g id="edge12" class="edge"><title>Node6&#45;&gt;Node7</title>
<path fill="none" stroke="midnightblue" d="M209.034,-106.707C209.535,-97.3384 210.115,-86.5262 210.514,-79.0752"/>
<polygon fill="midnightblue" stroke="midnightblue" points="205.535,-106.58 208.495,-116.753 212.525,-106.954 205.535,-106.58"/>
</g>
<!-- Node8 -->
<g id="node15" class="node"><title>Node8</title>
<a xlink:href="class_r_t_x_1_1_reservoir.html" target="_top" xlink:title="RTX::Reservoir">
<polygon fill="white" stroke="black" points="168.916,-1 168.916,-21 253.084,-21 253.084,-1 168.916,-1"/>
<text text-anchor="middle" x="211" y="-7" font-family="Helvetica,sans-Serif" font-size="10.00">RTX::Reservoir</text>
</a>
</g>
<!-- Node7&#45;&gt;Node8 -->
<g id="edge14" class="edge"><title>Node7&#45;&gt;Node8</title>
<path fill="none" stroke="midnightblue" d="M211,-48.7065C211,-39.3384 211,-28.5262 211,-21.0752"/>
<polygon fill="midnightblue" stroke="midnightblue" points="207.5,-48.7527 211,-58.7527 214.5,-48.7528 207.5,-48.7527"/>
</g>
<!-- Node9 -->
<g id="node17" class="node"><title>Node9</title>
<a xlink:href="class_r_t_x_1_1_tank.html" target="_top" xlink:title="RTX::Tank">
<polygon fill="white" stroke="black" points="270.748,-1 270.748,-21 333.252,-21 333.252,-1 270.748,-1"/>
<text text-anchor="middle" x="302" y="-7" font-family="Helvetica,sans-Serif" font-size="10.00">RTX::Tank</text>
</a>
</g>
<!-- Node7&#45;&gt;Node9 -->
<g id="edge16" class="edge"><title>Node7&#45;&gt;Node9</title>
<path fill="none" stroke="midnightblue" d="M234.663,-53.438C251.299,-43.2008 273.039,-29.8221 287.253,-21.0752"/>
<polygon fill="midnightblue" stroke="midnightblue" points="232.709,-50.5309 226.027,-58.7527 236.378,-56.4925 232.709,-50.5309"/>
</g>
</g>
</svg>
