<?xml version="1.0" encoding="UTF-8" standalone="no"?>
<!DOCTYPE svg PUBLIC "-//W3C//DTD SVG 1.1//EN"
 "http://www.w3.org/Graphics/SVG/1.1/DTD/svg11.dtd">
<!-- Generated by graphviz version 2.36.0 (20140111.2315)
 -->
<!-- Title: RTX::OdbcPointRecord::OdbcConnection Pages: 1 -->
<svg width="128pt" height="192pt"
 viewBox="0.00 0.00 128.00 192.00" xmlns="http://www.w3.org/2000/svg" xmlns:xlink="http://www.w3.org/1999/xlink">
<g id="graph0" class="graph" transform="scale(1 1) rotate(0) translate(4 188)">
<title>RTX::OdbcPointRecord::OdbcConnection</title>
<polygon fill="white" stroke="none" points="-4,4 -4,-188 124,-188 124,4 -4,4"/>
<!-- Node1 -->
<g id="node1" class="node"><title>Node1</title>
<polygon fill="#bfbfbf" stroke="black" points="-0.155762,-1 -0.155762,-29 120.156,-29 120.156,-1 -0.155762,-1"/>
<text text-anchor="start" x="7.84424" y="-17" font-family="Helvetica,sans-Serif" font-size="10.00">RTX::OdbcPointRecord</text>
<text text-anchor="middle" x="60" y="-7" font-family="Helvetica,sans-Serif" font-size="10.00">::OdbcConnection</text>
</g>
<!-- Node2 -->
<g id="node2" class="node"><title>Node2</title>
<g id="a_node2"><a xlink:title="STL class. ">
<polygon fill="white" stroke="#bfbfbf" points="30.3252,-97 30.3252,-115 89.6748,-115 89.6748,-97 30.3252,-97"/>
<text text-anchor="middle" x="60" y="-103" font-family="Helvetica,sans-Serif" font-size="10.00">std::string</text>
</a>
</g>
</g>
<!-- Node2&#45;&gt;Node1 -->
<g id="edge1" class="edge"><title>Node2&#45;&gt;Node1</title>
<path fill="none" stroke="#9a32cd" stroke-dasharray="5,2" d="M60,-86.3766C60,-69.2061 60,-44.159 60,-29.0367"/>
<polygon fill="#9a32cd" stroke="#9a32cd" points="56.5001,-86.7866 60,-96.7866 63.5001,-86.7867 56.5001,-86.7866"/>
<text text-anchor="middle" x="70.5615" y="-70" font-family="Helvetica,sans-Serif" font-size="10.00"> pwd</text>
<text text-anchor="middle" x="70.5615" y="-60" font-family="Helvetica,sans-Serif" font-size="10.00">uid</text>
<text text-anchor="middle" x="70.5615" y="-50" font-family="Helvetica,sans-Serif" font-size="10.00">dsn</text>
</g>
<!-- Node3 -->
<g id="node3" class="node"><title>Node3</title>
<g id="a_node3"><a xlink:title="STL class. ">
<polygon fill="white" stroke="#bfbfbf" points="12.9521,-155 12.9521,-183 107.048,-183 107.048,-155 12.9521,-155"/>
<text text-anchor="start" x="20.9521" y="-171" font-family="Helvetica,sans-Serif" font-size="10.00">std::basic_string&lt;</text>
<text text-anchor="middle" x="60" y="-161" font-family="Helvetica,sans-Serif" font-size="10.00"> char &gt;</text>
</a>
</g>
</g>
<!-- Node3&#45;&gt;Node2 -->
<g id="edge2" class="edge"><title>Node3&#45;&gt;Node2</title>
<path fill="none" stroke="midnightblue" d="M60,-144.588C60,-134.213 60,-122.68 60,-115.159"/>
<polygon fill="midnightblue" stroke="midnightblue" points="56.5001,-144.764 60,-154.764 63.5001,-144.764 56.5001,-144.764"/>
</g>
</g>
</svg>
