<?xml version="1.0" encoding="UTF-8" standalone="no"?>
<!DOCTYPE svg PUBLIC "-//W3C//DTD SVG 1.1//EN"
 "http://www.w3.org/Graphics/SVG/1.1/DTD/svg11.dtd">
<!-- Generated by graphviz version 2.36.0 (20140111.2315)
 -->
<!-- Title: Graphical Class Hierarchy Pages: 1 -->
<svg width="424pt" height="137pt"
 viewBox="0.00 0.00 424.00 137.00" xmlns="http://www.w3.org/2000/svg" xmlns:xlink="http://www.w3.org/1999/xlink">
<g id="graph0" class="graph" transform="scale(1 1) rotate(0) translate(4 133)">
<title>Graphical Class Hierarchy</title>
<polygon fill="white" stroke="none" points="-4,4 -4,-133 420,-133 420,4 -4,4"/>
<!-- Node1 -->
<g id="node1" class="node"><title>Node1</title>
<g id="a_node1"><a xlink:href="class_r_t_x_1_1_element.html" target="_top" xlink:title="Element Base Class. ">
<polygon fill="white" stroke="black" points="-0.0327148,-74 -0.0327148,-92 78.0327,-92 78.0327,-74 -0.0327148,-74"/>
<text text-anchor="middle" x="39" y="-80" font-family="Helvetica,sans-Serif" font-size="10.00">RTX::Element</text>
</a>
</g>
</g>
<!-- Node2 -->
<g id="node2" class="node"><title>Node2</title>
<g id="a_node2"><a xlink:href="class_r_t_x_1_1_dma.html" target="_top" xlink:title="Dma represents a collection of junctions that can be considered together in a control volume...">
<polygon fill="white" stroke="black" points="115.753,-111 115.753,-129 178.247,-129 178.247,-111 115.753,-111"/>
<text text-anchor="middle" x="147" y="-117" font-family="Helvetica,sans-Serif" font-size="10.00">RTX::Dma</text>
</a>
</g>
</g>
<!-- Node1&#45;&gt;Node2 -->
<g id="edge1" class="edge"><title>Node1&#45;&gt;Node2</title>
<path fill="none" stroke="midnightblue" d="M75.6079,-95.4292C90.1286,-100.498 106.608,-106.25 119.97,-110.914"/>
<polygon fill="midnightblue" stroke="midnightblue" points="76.5254,-92.0424 65.9305,-92.0512 74.2184,-98.6513 76.5254,-92.0424"/>
</g>
<!-- Node3 -->
<g id="node3" class="node"><title>Node3</title>
<g id="a_node3"><a xlink:href="class_r_t_x_1_1_link.html" target="_top" xlink:title="Link Class. ">
<polygon fill="white" stroke="black" points="117.137,-74 117.137,-92 176.863,-92 176.863,-74 117.137,-74"/>
<text text-anchor="middle" x="147" y="-80" font-family="Helvetica,sans-Serif" font-size="10.00">RTX::Link</text>
</a>
</g>
</g>
<!-- Node1&#45;&gt;Node3 -->
<g id="edge2" class="edge"><title>Node1&#45;&gt;Node3</title>
<path fill="none" stroke="midnightblue" d="M88.3671,-83C98.1867,-83 108.22,-83 117.105,-83"/>
<polygon fill="midnightblue" stroke="midnightblue" points="88.2685,-79.5001 78.2684,-83 88.2684,-86.5001 88.2685,-79.5001"/>
</g>
<!-- Node7 -->
<g id="node7" class="node"><title>Node7</title>
<g id="a_node7"><a xlink:href="class_r_t_x_1_1_node.html" target="_top" xlink:title="Node Class. ">
<polygon fill="white" stroke="black" points="114.356,-37 114.356,-55 179.644,-55 179.644,-37 114.356,-37"/>
<text text-anchor="middle" x="147" y="-43" font-family="Helvetica,sans-Serif" font-size="10.00">RTX::Node</text>
</a>
</g>
</g>
<!-- Node1&#45;&gt;Node7 -->
<g id="edge6" class="edge"><title>Node1&#45;&gt;Node7</title>
<path fill="none" stroke="midnightblue" d="M75.6079,-70.5708C90.1286,-65.5023 106.608,-59.75 119.97,-55.086"/>
<polygon fill="midnightblue" stroke="midnightblue" points="74.2184,-67.3487 65.9305,-73.9488 76.5254,-73.9576 74.2184,-67.3487"/>
</g>
<!-- Node4 -->
<g id="node4" class="node"><title>Node4</title>
<g id="a_node4"><a xlink:href="class_r_t_x_1_1_pipe.html" target="_top" xlink:title="Pipe Class. ">
<polygon fill="white" stroke="black" points="225.302,-74 225.302,-92 286.698,-92 286.698,-74 225.302,-74"/>
<text text-anchor="middle" x="256" y="-80" font-family="Helvetica,sans-Serif" font-size="10.00">RTX::Pipe</text>
</a>
</g>
</g>
<!-- Node3&#45;&gt;Node4 -->
<g id="edge3" class="edge"><title>Node3&#45;&gt;Node4</title>
<path fill="none" stroke="midnightblue" d="M187.188,-83C199.768,-83 213.488,-83 225.276,-83"/>
<polygon fill="midnightblue" stroke="midnightblue" points="186.956,-79.5001 176.956,-83 186.956,-86.5001 186.956,-79.5001"/>
</g>
<!-- Node5 -->
<g id="node5" class="node"><title>Node5</title>
<g id="a_node5"><a xlink:href="class_r_t_x_1_1_pump.html" target="_top" xlink:title="RTX::Pump">
<polygon fill="white" stroke="black" points="340.248,-111 340.248,-129 407.752,-129 407.752,-111 340.248,-111"/>
<text text-anchor="middle" x="374" y="-117" font-family="Helvetica,sans-Serif" font-size="10.00">RTX::Pump</text>
</a>
</g>
</g>
<!-- Node4&#45;&gt;Node5 -->
<g id="edge4" class="edge"><title>Node4&#45;&gt;Node5</title>
<path fill="none" stroke="midnightblue" d="M295.053,-95.1375C311.163,-100.276 329.611,-106.16 344.514,-110.914"/>
<polygon fill="midnightblue" stroke="midnightblue" points="295.968,-91.7556 285.377,-92.0512 293.84,-98.4246 295.968,-91.7556"/>
</g>
<!-- Node6 -->
<g id="node6" class="node"><title>Node6</title>
<g id="a_node6"><a xlink:href="class_r_t_x_1_1_valve.html" target="_top" xlink:title="RTX::Valve">
<polygon fill="white" stroke="black" points="341.171,-74 341.171,-92 406.829,-92 406.829,-74 341.171,-74"/>
<text text-anchor="middle" x="374" y="-80" font-family="Helvetica,sans-Serif" font-size="10.00">RTX::Valve</text>
</a>
</g>
</g>
<!-- Node4&#45;&gt;Node6 -->
<g id="edge5" class="edge"><title>Node4&#45;&gt;Node6</title>
<path fill="none" stroke="midnightblue" d="M296.951,-83C311.266,-83 327.209,-83 340.786,-83"/>
<polygon fill="midnightblue" stroke="midnightblue" points="296.873,-79.5001 286.873,-83 296.873,-86.5001 296.873,-79.5001"/>
</g>
<!-- Node8 -->
<g id="node8" class="node"><title>Node8</title>
<g id="a_node8"><a xlink:href="class_r_t_x_1_1_junction.html" target="_top" xlink:title="Junction Class. ">
<polygon fill="white" stroke="black" points="216.687,-37 216.687,-55 295.313,-55 295.313,-37 216.687,-37"/>
<text text-anchor="middle" x="256" y="-43" font-family="Helvetica,sans-Serif" font-size="10.00">RTX::Junction</text>
</a>
</g>
</g>
<!-- Node7&#45;&gt;Node8 -->
<g id="edge7" class="edge"><title>Node7&#45;&gt;Node8</title>
<path fill="none" stroke="midnightblue" d="M190.086,-46C198.73,-46 207.791,-46 216.308,-46"/>
<polygon fill="midnightblue" stroke="midnightblue" points="189.814,-42.5001 179.814,-46 189.814,-49.5001 189.814,-42.5001"/>
</g>
<!-- Node9 -->
<g id="node9" class="node"><title>Node9</title>
<g id="a_node9"><a xlink:href="class_r_t_x_1_1_reservoir.html" target="_top" xlink:title="RTX::Reservoir">
<polygon fill="white" stroke="black" points="331.916,-37 331.916,-55 416.084,-55 416.084,-37 331.916,-37"/>
<text text-anchor="middle" x="374" y="-43" font-family="Helvetica,sans-Serif" font-size="10.00">RTX::Reservoir</text>
</a>
</g>
</g>
<!-- Node8&#45;&gt;Node9 -->
<g id="edge8" class="edge"><title>Node8&#45;&gt;Node9</title>
<path fill="none" stroke="midnightblue" d="M305.642,-46C314.328,-46 323.302,-46 331.756,-46"/>
<polygon fill="midnightblue" stroke="midnightblue" points="305.626,-42.5001 295.626,-46 305.626,-49.5001 305.626,-42.5001"/>
</g>
<!-- Node10 -->
<g id="node10" class="node"><title>Node10</title>
<g id="a_node10"><a xlink:href="class_r_t_x_1_1_tank.html" target="_top" xlink:title="RTX::Tank">
<polygon fill="white" stroke="black" points="342.748,-0 342.748,-18 405.252,-18 405.252,-0 342.748,-0"/>
<text text-anchor="middle" x="374" y="-6" font-family="Helvetica,sans-Serif" font-size="10.00">RTX::Tank</text>
</a>
</g>
</g>
<!-- Node8&#45;&gt;Node10 -->
<g id="edge9" class="edge"><title>Node8&#45;&gt;Node10</title>
<path fill="none" stroke="midnightblue" d="M295.053,-33.8625C311.163,-28.7239 329.611,-22.8397 344.514,-18.086"/>
<polygon fill="midnightblue" stroke="midnightblue" points="293.84,-30.5754 285.377,-36.9488 295.968,-37.2444 293.84,-30.5754"/>
</g>
</g>
</svg>
