<?xml version="1.0" encoding="UTF-8" standalone="no"?>
<!DOCTYPE svg PUBLIC "-//W3C//DTD SVG 1.1//EN"
 "http://www.w3.org/Graphics/SVG/1.1/DTD/svg11.dtd">
<!-- Generated by graphviz version 2.28.0 (20110509.1545)
 -->
<!-- Title: Graphical Class Hierarchy Pages: 1 -->
<svg width="392pt" height="67pt"
 viewBox="0.00 0.00 392.00 67.00" xmlns="http://www.w3.org/2000/svg" xmlns:xlink="http://www.w3.org/1999/xlink">
<g id="graph1" class="graph" transform="scale(1 1) rotate(0) translate(4 63)">
<title>Graphical Class Hierarchy</title>
<polygon fill="white" stroke="white" points="-4,5 -4,-63 389,-63 389,5 -4,5"/>
<!-- Node1 -->
<g id="node1" class="node"><title>Node1</title>
<a xlink:href="class_r_t_x_1_1_model.html" target="_top" xlink:title="A hydraulic / water quality model abstraction. ">
<polygon fill="white" stroke="black" points="0.691406,-19 0.691406,-39 69.3086,-39 69.3086,-19 0.691406,-19"/>
<text text-anchor="middle" x="35" y="-25" font-family="Helvetica,sans-Serif" font-size="10.00">RTX::Model</text>
</a>
</g>
<!-- Node2 -->
<g id="node3" class="node"><title>Node2</title>
<a xlink:href="class_r_t_x_1_1_epanet_model.html" target="_top" xlink:title="An Epanet&#45;based model object. ">
<polygon fill="white" stroke="black" points="105.844,-19 105.844,-39 206.156,-39 206.156,-19 105.844,-19"/>
<text text-anchor="middle" x="156" y="-25" font-family="Helvetica,sans-Serif" font-size="10.00">RTX::EpanetModel</text>
</a>
</g>
<!-- Node1&#45;&gt;Node2 -->
<g id="edge2" class="edge"><title>Node1&#45;&gt;Node2</title>
<path fill="none" stroke="midnightblue" d="M79.579,-29C88.1049,-29 97.1015,-29 105.796,-29"/>
<polygon fill="midnightblue" stroke="midnightblue" points="79.4648,-25.5001 69.4648,-29 79.4648,-32.5001 79.4648,-25.5001"/>
</g>
<!-- Node3 -->
<g id="node5" class="node"><title>Node3</title>
<a xlink:href="class_r_t_x_1_1_epanet_msx_model.html" target="_top" xlink:title="RTX::EpanetMsxModel">
<polygon fill="white" stroke="black" points="253.679,-39 253.679,-59 372.321,-59 372.321,-39 253.679,-39"/>
<text text-anchor="middle" x="313" y="-45" font-family="Helvetica,sans-Serif" font-size="10.00">RTX::EpanetMsxModel</text>
</a>
</g>
<!-- Node2&#45;&gt;Node3 -->
<g id="edge4" class="edge"><title>Node2&#45;&gt;Node3</title>
<path fill="none" stroke="midnightblue" d="M216.498,-36.6772C228.647,-38.2447 241.42,-39.8929 253.531,-41.4557"/>
<polygon fill="midnightblue" stroke="midnightblue" points="216.835,-33.1917 206.469,-35.3831 215.939,-40.1341 216.835,-33.1917"/>
</g>
<!-- Node4 -->
<g id="node7" class="node"><title>Node4</title>
<a xlink:href="class_r_t_x_1_1_epanet_synthetic_model.html" target="_top" xlink:title="Forward&#45;simluation model object, based on epanet engine. ">
<polygon fill="white" stroke="black" points="242.278,-0 242.278,-20 383.722,-20 383.722,-0 242.278,-0"/>
<text text-anchor="middle" x="313" y="-6" font-family="Helvetica,sans-Serif" font-size="10.00">RTX::EpanetSyntheticModel</text>
</a>
</g>
<!-- Node2&#45;&gt;Node4 -->
<g id="edge6" class="edge"><title>Node2&#45;&gt;Node4</title>
<path fill="none" stroke="midnightblue" d="M216.507,-21.7056C224.88,-20.6792 233.55,-19.6165 242.095,-18.569"/>
<polygon fill="midnightblue" stroke="midnightblue" points="215.969,-18.2453 206.469,-22.936 216.821,-25.1933 215.969,-18.2453"/>
</g>
</g>
</svg>
