<?xml version="1.0" encoding="UTF-8" standalone="no"?>
<!DOCTYPE svg PUBLIC "-//W3C//DTD SVG 1.1//EN"
 "http://www.w3.org/Graphics/SVG/1.1/DTD/svg11.dtd">
<!-- Generated by graphviz version 2.36.0 (20140111.2315)
 -->
<!-- Title: Graphical Class Hierarchy Pages: 1 -->
<svg width="408pt" height="194pt"
 viewBox="0.00 0.00 408.00 194.00" xmlns="http://www.w3.org/2000/svg" xmlns:xlink="http://www.w3.org/1999/xlink">
<g id="graph0" class="graph" transform="scale(1 1) rotate(0) translate(4 190)">
<title>Graphical Class Hierarchy</title>
<polygon fill="white" stroke="none" points="-4,4 -4,-190 404,-190 404,4 -4,4"/>
<!-- Node1 -->
<g id="node1" class="node"><title>Node1</title>
<g id="a_node1"><a xlink:title="STL class. ">
<polygon fill="white" stroke="#bfbfbf" points="0.147949,-74 0.147949,-92 77.8521,-92 77.8521,-74 0.147949,-74"/>
<text text-anchor="middle" x="39" y="-80" font-family="Helvetica,sans-Serif" font-size="10.00">std::exception</text>
</a>
</g>
</g>
<!-- Node2 -->
<g id="node2" class="node"><title>Node2</title>
<g id="a_node2"><a xlink:href="class_r_t_x_1_1_rtx_exception.html" target="_top" xlink:title="RTX::RtxException">
<polygon fill="white" stroke="black" points="113.852,-74 113.852,-92 214.148,-92 214.148,-74 113.852,-74"/>
<text text-anchor="middle" x="164" y="-80" font-family="Helvetica,sans-Serif" font-size="10.00">RTX::RtxException</text>
</a>
</g>
</g>
<!-- Node1&#45;&gt;Node2 -->
<g id="edge1" class="edge"><title>Node1&#45;&gt;Node2</title>
<path fill="none" stroke="midnightblue" d="M87.9697,-83C96.4012,-83 105.19,-83 113.658,-83"/>
<polygon fill="midnightblue" stroke="midnightblue" points="87.9077,-79.5001 77.9077,-83 87.9077,-86.5001 87.9077,-79.5001"/>
</g>
<!-- Node3 -->
<g id="node3" class="node"><title>Node3</title>
<g id="a_node3"><a xlink:href="class_r_t_x_1_1_db_point_record_1_1_rtx_db_connect_exception.html" target="_top" xlink:title="RTX::DbPointRecord\l::RtxDbConnectException">
<polygon fill="white" stroke="black" points="259.749,-158 259.749,-186 390.251,-186 390.251,-158 259.749,-158"/>
<text text-anchor="start" x="267.749" y="-174" font-family="Helvetica,sans-Serif" font-size="10.00">RTX::DbPointRecord</text>
<text text-anchor="middle" x="325" y="-164" font-family="Helvetica,sans-Serif" font-size="10.00">::RtxDbConnectException</text>
</a>
</g>
</g>
<!-- Node2&#45;&gt;Node3 -->
<g id="edge2" class="edge"><title>Node2&#45;&gt;Node3</title>
<path fill="none" stroke="midnightblue" d="M182.351,-99.126C198.726,-113.619 224.505,-134.622 250,-148 257.176,-151.765 265.053,-155.084 272.908,-157.959"/>
<polygon fill="midnightblue" stroke="midnightblue" points="184.464,-96.3188 174.696,-92.2157 179.773,-101.515 184.464,-96.3188"/>
</g>
<!-- Node4 -->
<g id="node4" class="node"><title>Node4</title>
<g id="a_node4"><a xlink:href="class_r_t_x_1_1_db_point_record_1_1_rtx_db_retrieval_exception.html" target="_top" xlink:title="RTX::DbPointRecord\l::RtxDbRetrievalException">
<polygon fill="white" stroke="black" points="258.643,-111 258.643,-139 391.357,-139 391.357,-111 258.643,-111"/>
<text text-anchor="start" x="266.643" y="-127" font-family="Helvetica,sans-Serif" font-size="10.00">RTX::DbPointRecord</text>
<text text-anchor="middle" x="325" y="-117" font-family="Helvetica,sans-Serif" font-size="10.00">::RtxDbRetrievalException</text>
</a>
</g>
</g>
<!-- Node2&#45;&gt;Node4 -->
<g id="edge3" class="edge"><title>Node2&#45;&gt;Node4</title>
<path fill="none" stroke="midnightblue" d="M208.799,-94.5694C227.999,-99.6413 250.707,-105.64 270.864,-110.964"/>
<polygon fill="midnightblue" stroke="midnightblue" points="209.672,-91.1801 199.109,-92.0101 207.884,-97.948 209.672,-91.1801"/>
</g>
<!-- Node5 -->
<g id="node5" class="node"><title>Node5</title>
<g id="a_node5"><a xlink:href="class_r_t_x_1_1_incompatible_component.html" target="_top" xlink:title="RTX::IncompatibleComponent">
<polygon fill="white" stroke="black" points="250.11,-74 250.11,-92 399.89,-92 399.89,-74 250.11,-74"/>
<text text-anchor="middle" x="325" y="-80" font-family="Helvetica,sans-Serif" font-size="10.00">RTX::IncompatibleComponent</text>
</a>
</g>
</g>
<!-- Node2&#45;&gt;Node5 -->
<g id="edge4" class="edge"><title>Node2&#45;&gt;Node5</title>
<path fill="none" stroke="midnightblue" d="M224.451,-83C232.812,-83 241.489,-83 250.078,-83"/>
<polygon fill="midnightblue" stroke="midnightblue" points="224.437,-79.5001 214.437,-83 224.437,-86.5001 224.437,-79.5001"/>
</g>
<!-- Node6 -->
<g id="node6" class="node"><title>Node6</title>
<g id="a_node6"><a xlink:href="class_r_t_x_1_1_rtx_io_exception.html" target="_top" xlink:title="RTX::RtxIoException">
<polygon fill="white" stroke="black" points="270.682,-37 270.682,-55 379.318,-55 379.318,-37 270.682,-37"/>
<text text-anchor="middle" x="325" y="-43" font-family="Helvetica,sans-Serif" font-size="10.00">RTX::RtxIoException</text>
</a>
</g>
</g>
<!-- Node2&#45;&gt;Node6 -->
<g id="edge5" class="edge"><title>Node2&#45;&gt;Node6</title>
<path fill="none" stroke="midnightblue" d="M213.786,-71.6472C236.731,-66.3079 263.709,-60.03 285.231,-55.0218"/>
<polygon fill="midnightblue" stroke="midnightblue" points="212.842,-68.2733 203.896,-73.9488 214.429,-75.0911 212.842,-68.2733"/>
</g>
<!-- Node7 -->
<g id="node7" class="node"><title>Node7</title>
<g id="a_node7"><a xlink:href="class_r_t_x_1_1_rtx_method_not_valid.html" target="_top" xlink:title="RTX::RtxMethodNotValid">
<polygon fill="white" stroke="black" points="261.602,-0 261.602,-18 388.398,-18 388.398,-0 261.602,-0"/>
<text text-anchor="middle" x="325" y="-6" font-family="Helvetica,sans-Serif" font-size="10.00">RTX::RtxMethodNotValid</text>
</a>
</g>
</g>
<!-- Node2&#45;&gt;Node7 -->
<g id="edge6" class="edge"><title>Node2&#45;&gt;Node7</title>
<path fill="none" stroke="midnightblue" d="M184.729,-67.5895C201.319,-55.3016 226.091,-38.4717 250,-28 259.112,-24.009 269.237,-20.7257 278.998,-18.0779"/>
<polygon fill="midnightblue" stroke="midnightblue" points="182.277,-65.0559 176.413,-73.8797 186.5,-70.6389 182.277,-65.0559"/>
</g>
</g>
</svg>
