<?xml version="1.0" encoding="UTF-8" standalone="no"?>
<!DOCTYPE svg PUBLIC "-//W3C//DTD SVG 1.1//EN"
 "http://www.w3.org/Graphics/SVG/1.1/DTD/svg11.dtd">
<!-- Generated by graphviz version 2.36.0 (20140111.2315)
 -->
<!-- Title: Graphical Class Hierarchy Pages: 1 -->
<svg width="392pt" height="63pt"
 viewBox="0.00 0.00 392.00 63.00" xmlns="http://www.w3.org/2000/svg" xmlns:xlink="http://www.w3.org/1999/xlink">
<g id="graph0" class="graph" transform="scale(1 1) rotate(0) translate(4 59)">
<title>Graphical Class Hierarchy</title>
<polygon fill="white" stroke="none" points="-4,4 -4,-59 388,-59 388,4 -4,4"/>
<!-- Node1 -->
<g id="node1" class="node"><title>Node1</title>
<g id="a_node1"><a xlink:href="class_r_t_x_1_1_model.html" target="_top" xlink:title="A hydraulic / water quality model abstraction. ">
<polygon fill="white" stroke="black" points="0.691406,-18 0.691406,-36 69.3086,-36 69.3086,-18 0.691406,-18"/>
<text text-anchor="middle" x="35" y="-24" font-family="Helvetica,sans-Serif" font-size="10.00">RTX::Model</text>
</a>
</g>
</g>
<!-- Node2 -->
<g id="node2" class="node"><title>Node2</title>
<g id="a_node2"><a xlink:href="class_r_t_x_1_1_epanet_model.html" target="_top" xlink:title="An Epanet&#45;based model object. ">
<polygon fill="white" stroke="black" points="105.844,-18 105.844,-36 206.156,-36 206.156,-18 105.844,-18"/>
<text text-anchor="middle" x="156" y="-24" font-family="Helvetica,sans-Serif" font-size="10.00">RTX::EpanetModel</text>
</a>
</g>
</g>
<!-- Node1&#45;&gt;Node2 -->
<g id="edge1" class="edge"><title>Node1&#45;&gt;Node2</title>
<path fill="none" stroke="midnightblue" d="M79.579,-27C88.1049,-27 97.1015,-27 105.796,-27"/>
<polygon fill="midnightblue" stroke="midnightblue" points="79.4648,-23.5001 69.4648,-27 79.4648,-30.5001 79.4648,-23.5001"/>
</g>
<!-- Node3 -->
<g id="node3" class="node"><title>Node3</title>
<g id="a_node3"><a xlink:href="class_r_t_x_1_1_epanet_msx_model.html" target="_top" xlink:title="RTX::EpanetMsxModel">
<polygon fill="white" stroke="black" points="253.679,-37 253.679,-55 372.321,-55 372.321,-37 253.679,-37"/>
<text text-anchor="middle" x="313" y="-43" font-family="Helvetica,sans-Serif" font-size="10.00">RTX::EpanetMsxModel</text>
</a>
</g>
</g>
<!-- Node2&#45;&gt;Node3 -->
<g id="edge2" class="edge"><title>Node2&#45;&gt;Node3</title>
<path fill="none" stroke="midnightblue" d="M216.498,-34.2934C228.647,-35.7825 241.42,-37.3482 253.531,-38.8329"/>
<polygon fill="midnightblue" stroke="midnightblue" points="216.821,-30.8067 206.469,-33.064 215.969,-37.7547 216.821,-30.8067"/>
</g>
<!-- Node4 -->
<g id="node4" class="node"><title>Node4</title>
<g id="a_node4"><a xlink:href="class_r_t_x_1_1_epanet_synthetic_model.html" target="_top" xlink:title="Forward&#45;simluation model object, based on epanet engine. ">
<polygon fill="white" stroke="black" points="242.278,-0 242.278,-18 383.722,-18 383.722,-0 242.278,-0"/>
<text text-anchor="middle" x="313" y="-6" font-family="Helvetica,sans-Serif" font-size="10.00">RTX::EpanetSyntheticModel</text>
</a>
</g>
</g>
<!-- Node2&#45;&gt;Node4 -->
<g id="edge3" class="edge"><title>Node2&#45;&gt;Node4</title>
<path fill="none" stroke="midnightblue" d="M216.507,-20.0895C224.88,-19.1171 233.55,-18.1103 242.095,-17.118"/>
<polygon fill="midnightblue" stroke="midnightblue" points="215.999,-16.6249 206.469,-21.2552 216.806,-23.5782 215.999,-16.6249"/>
</g>
</g>
</svg>
