<?xml version="1.0" encoding="UTF-8" standalone="no"?>
<!DOCTYPE svg PUBLIC "-//W3C//DTD SVG 1.1//EN"
 "http://www.w3.org/Graphics/SVG/1.1/DTD/svg11.dtd">
<!-- Generated by graphviz version 2.28.0 (20110509.1545)
 -->
<!-- Title: Graphical Class Hierarchy Pages: 1 -->
<svg width="392pt" height="28pt"
 viewBox="0.00 0.00 392.00 28.00" xmlns="http://www.w3.org/2000/svg" xmlns:xlink="http://www.w3.org/1999/xlink">
<g id="graph1" class="graph" transform="scale(1 1) rotate(0) translate(4 24)">
<title>Graphical Class Hierarchy</title>
<polygon fill="white" stroke="white" points="-4,5 -4,-24 389,-24 389,5 -4,5"/>
<!-- Node1 -->
<g id="node1" class="node"><title>Node1</title>
<a xlink:href="class_r_t_x_1_1_model.html" target="_top" xlink:title="A hydraulic / water quality model abstraction.">
<polygon fill="white" stroke="black" points="0.691406,-0 0.691406,-20 69.3086,-20 69.3086,-0 0.691406,-0"/>
<text text-anchor="middle" x="35" y="-6" font-family="Helvetica,sans-Serif" font-size="10.00">RTX::Model</text>
</a>
</g>
<!-- Node2 -->
<g id="node3" class="node"><title>Node2</title>
<a xlink:href="class_r_t_x_1_1_epanet_model.html" target="_top" xlink:title="An Epanet&#45;based model object.">
<polygon fill="white" stroke="black" points="105.844,-0 105.844,-20 206.156,-20 206.156,-0 105.844,-0"/>
<text text-anchor="middle" x="156" y="-6" font-family="Helvetica,sans-Serif" font-size="10.00">RTX::EpanetModel</text>
</a>
</g>
<!-- Node1&#45;&gt;Node2 -->
<g id="edge2" class="edge"><title>Node1&#45;&gt;Node2</title>
<path fill="none" stroke="midnightblue" d="M79.579,-10C88.1049,-10 97.1015,-10 105.796,-10"/>
<polygon fill="midnightblue" stroke="midnightblue" points="79.4648,-6.5001 69.4648,-10 79.4648,-13.5001 79.4648,-6.5001"/>
</g>
<!-- Node3 -->
<g id="node5" class="node"><title>Node3</title>
<a xlink:href="class_r_t_x_1_1_epanet_synthetic_model.html" target="_top" xlink:title="Forward&#45;simluation model object, based on epanet engine.">
<polygon fill="white" stroke="black" points="242.278,-0 242.278,-20 383.722,-20 383.722,-0 242.278,-0"/>
<text text-anchor="middle" x="313" y="-6" font-family="Helvetica,sans-Serif" font-size="10.00">RTX::EpanetSyntheticModel</text>
</a>
</g>
<!-- Node2&#45;&gt;Node3 -->
<g id="edge4" class="edge"><title>Node2&#45;&gt;Node3</title>
<path fill="none" stroke="midnightblue" d="M216.507,-10C224.88,-10 233.55,-10 242.095,-10"/>
<polygon fill="midnightblue" stroke="midnightblue" points="216.469,-6.5001 206.469,-10 216.469,-13.5001 216.469,-6.5001"/>
</g>
</g>
</svg>
