<?xml version="1.0" encoding="UTF-8" standalone="no"?>
<!DOCTYPE svg PUBLIC "-//W3C//DTD SVG 1.1//EN"
 "http://www.w3.org/Graphics/SVG/1.1/DTD/svg11.dtd">
<!-- Generated by graphviz version 2.28.0 (20110509.1545)
 -->
<!-- Title: Graphical Class Hierarchy Pages: 1 -->
<svg width="790pt" height="223pt"
 viewBox="0.00 0.00 790.00 223.00" xmlns="http://www.w3.org/2000/svg" xmlns:xlink="http://www.w3.org/1999/xlink">
<g id="graph1" class="graph" transform="scale(1 1) rotate(0) translate(4 219)">
<title>Graphical Class Hierarchy</title>
<polygon fill="white" stroke="white" points="-4,5 -4,-219 787,-219 787,5 -4,5"/>
<!-- Node1 -->
<g id="node1" class="node"><title>Node1</title>
<a xlink:href="class_r_t_x_1_1_point_record.html" target="_top" xlink:title="A Point Record Class for storing and retrieving Points. ">
<polygon fill="white" stroke="black" points="-0.205078,-58 -0.205078,-78 96.2051,-78 96.2051,-58 -0.205078,-58"/>
<text text-anchor="middle" x="48" y="-64" font-family="Helvetica,sans-Serif" font-size="10.00">RTX::PointRecord</text>
</a>
</g>
<!-- Node2 -->
<g id="node3" class="node"><title>Node2</title>
<a xlink:href="class_r_t_x_1_1_buffer_point_record.html" target="_top" xlink:title="RTX::BufferPointRecord">
<polygon fill="white" stroke="black" points="133.543,-97 133.543,-117 256.457,-117 256.457,-97 133.543,-97"/>
<text text-anchor="middle" x="195" y="-103" font-family="Helvetica,sans-Serif" font-size="10.00">RTX::BufferPointRecord</text>
</a>
</g>
<!-- Node1&#45;&gt;Node2 -->
<g id="edge2" class="edge"><title>Node1&#45;&gt;Node2</title>
<path fill="none" stroke="midnightblue" d="M96.0405,-80.6523C115.728,-85.9474 138.284,-92.0143 156.785,-96.9906"/>
<polygon fill="midnightblue" stroke="midnightblue" points="96.907,-77.261 86.3411,-78.0435 95.0888,-84.0208 96.907,-77.261"/>
</g>
<!-- Node12 -->
<g id="node23" class="node"><title>Node12</title>
<a xlink:href="class_r_t_x_1_1_deque_point_record.html" target="_top" xlink:title="RTX::DequePointRecord">
<polygon fill="white" stroke="black" points="132.061,-58 132.061,-78 257.939,-78 257.939,-58 132.061,-58"/>
<text text-anchor="middle" x="195" y="-64" font-family="Helvetica,sans-Serif" font-size="10.00">RTX::DequePointRecord</text>
</a>
</g>
<!-- Node1&#45;&gt;Node12 -->
<g id="edge22" class="edge"><title>Node1&#45;&gt;Node12</title>
<path fill="none" stroke="midnightblue" d="M106.492,-68C114.84,-68 123.465,-68 131.899,-68"/>
<polygon fill="midnightblue" stroke="midnightblue" points="106.478,-64.5001 96.4784,-68 106.478,-71.5001 106.478,-64.5001"/>
</g>
<!-- Node13 -->
<g id="node25" class="node"><title>Node13</title>
<a xlink:href="class_r_t_x_1_1_map_point_record.html" target="_top" xlink:title="RTX::MapPointRecord">
<polygon fill="white" stroke="black" points="137.068,-19 137.068,-39 252.932,-39 252.932,-19 137.068,-19"/>
<text text-anchor="middle" x="195" y="-25" font-family="Helvetica,sans-Serif" font-size="10.00">RTX::MapPointRecord</text>
</a>
</g>
<!-- Node1&#45;&gt;Node13 -->
<g id="edge24" class="edge"><title>Node1&#45;&gt;Node13</title>
<path fill="none" stroke="midnightblue" d="M96.0405,-55.3477C115.728,-50.0526 138.284,-43.9857 156.785,-39.0094"/>
<polygon fill="midnightblue" stroke="midnightblue" points="95.0888,-51.9792 86.3411,-57.9565 96.907,-58.739 95.0888,-51.9792"/>
</g>
<!-- Node3 -->
<g id="node5" class="node"><title>Node3</title>
<a xlink:href="class_r_t_x_1_1_db_point_record.html" target="_top" xlink:title="A persistence layer for databases. ">
<polygon fill="white" stroke="black" points="296.403,-97 296.403,-117 405.597,-117 405.597,-97 296.403,-97"/>
<text text-anchor="middle" x="351" y="-103" font-family="Helvetica,sans-Serif" font-size="10.00">RTX::DbPointRecord</text>
</a>
</g>
<!-- Node2&#45;&gt;Node3 -->
<g id="edge4" class="edge"><title>Node2&#45;&gt;Node3</title>
<path fill="none" stroke="midnightblue" d="M266.979,-107C276.756,-107 286.663,-107 296.064,-107"/>
<polygon fill="midnightblue" stroke="midnightblue" points="266.865,-103.5 256.865,-107 266.865,-110.5 266.865,-103.5"/>
</g>
<!-- Node4 -->
<g id="node7" class="node"><title>Node4</title>
<a xlink:href="class_r_t_x_1_1_influx_db_point_record.html" target="_top" xlink:title="RTX::InfluxDbPointRecord">
<polygon fill="white" stroke="black" points="447.453,-195 447.453,-215 580.547,-215 580.547,-195 447.453,-195"/>
<text text-anchor="middle" x="514" y="-201" font-family="Helvetica,sans-Serif" font-size="10.00">RTX::InfluxDbPointRecord</text>
</a>
</g>
<!-- Node3&#45;&gt;Node4 -->
<g id="edge6" class="edge"><title>Node3&#45;&gt;Node4</title>
<path fill="none" stroke="midnightblue" d="M368.238,-124.567C385.46,-142.216 414.241,-169.025 444,-185 451.472,-189.011 459.844,-192.303 468.109,-194.974"/>
<polygon fill="midnightblue" stroke="midnightblue" points="370.615,-121.988 361.177,-117.174 365.553,-126.823 370.615,-121.988"/>
</g>
<!-- Node5 -->
<g id="node9" class="node"><title>Node5</title>
<a xlink:href="class_r_t_x_1_1_mysql_point_record.html" target="_top" xlink:title="A persistence layer for MySQL databases. ">
<polygon fill="white" stroke="black" points="452.738,-156 452.738,-176 575.262,-176 575.262,-156 452.738,-156"/>
<text text-anchor="middle" x="514" y="-162" font-family="Helvetica,sans-Serif" font-size="10.00">RTX::MysqlPointRecord</text>
</a>
</g>
<!-- Node3&#45;&gt;Node5 -->
<g id="edge8" class="edge"><title>Node3&#45;&gt;Node5</title>
<path fill="none" stroke="midnightblue" d="M382.908,-121.188C400.593,-129.031 423.312,-138.646 444,-146 453.989,-149.551 464.952,-152.949 475.14,-155.903"/>
<polygon fill="midnightblue" stroke="midnightblue" points="384.203,-117.933 373.646,-117.039 381.341,-124.322 384.203,-117.933"/>
</g>
<!-- Node6 -->
<g id="node11" class="node"><title>Node6</title>
<a xlink:href="class_r_t_x_1_1_odbc_point_record.html" target="_top" xlink:title="A persistence class for SCADA databases. ">
<polygon fill="white" stroke="black" points="453.844,-117 453.844,-137 574.156,-137 574.156,-117 453.844,-117"/>
<text text-anchor="middle" x="514" y="-123" font-family="Helvetica,sans-Serif" font-size="10.00">RTX::OdbcPointRecord</text>
</a>
</g>
<!-- Node3&#45;&gt;Node6 -->
<g id="edge10" class="edge"><title>Node3&#45;&gt;Node6</title>
<path fill="none" stroke="midnightblue" d="M415.568,-114.897C428.17,-116.462 441.352,-118.1 453.801,-119.646"/>
<polygon fill="midnightblue" stroke="midnightblue" points="415.966,-111.419 405.611,-113.66 415.103,-118.366 415.966,-111.419"/>
</g>
<!-- Node9 -->
<g id="node17" class="node"><title>Node9</title>
<a xlink:href="class_r_t_x_1_1_sqlite_point_record.html" target="_top" xlink:title="RTX::SqlitePointRecord">
<polygon fill="white" stroke="black" points="453.288,-78 453.288,-98 574.712,-98 574.712,-78 453.288,-78"/>
<text text-anchor="middle" x="514" y="-84" font-family="Helvetica,sans-Serif" font-size="10.00">RTX::SqlitePointRecord</text>
</a>
</g>
<!-- Node3&#45;&gt;Node9 -->
<g id="edge16" class="edge"><title>Node3&#45;&gt;Node9</title>
<path fill="none" stroke="midnightblue" d="M415.818,-99.4687C428.155,-98.0127 441.039,-96.4923 453.241,-95.0523"/>
<polygon fill="midnightblue" stroke="midnightblue" points="415.132,-96.0253 405.611,-100.673 415.952,-102.977 415.132,-96.0253"/>
</g>
<!-- Node10 -->
<g id="node19" class="node"><title>Node10</title>
<a xlink:href="class_r_t_x_1_1_tempo_db_point_record.html" target="_top" xlink:title="RTX::TempoDbPointRecord">
<polygon fill="white" stroke="black" points="444.396,-39 444.396,-59 583.604,-59 583.604,-39 444.396,-39"/>
<text text-anchor="middle" x="514" y="-45" font-family="Helvetica,sans-Serif" font-size="10.00">RTX::TempoDbPointRecord</text>
</a>
</g>
<!-- Node3&#45;&gt;Node10 -->
<g id="edge18" class="edge"><title>Node3&#45;&gt;Node10</title>
<path fill="none" stroke="midnightblue" d="M382.871,-92.7049C400.544,-84.8282 423.263,-75.2149 444,-68 453.271,-64.7745 463.39,-61.7303 472.953,-59.0628"/>
<polygon fill="midnightblue" stroke="midnightblue" points="381.295,-89.5761 373.616,-96.876 384.171,-95.9578 381.295,-89.5761"/>
</g>
<!-- Node11 -->
<g id="node21" class="node"><title>Node11</title>
<a xlink:href="class_r_t_x_1_1_tsdb_point_record.html" target="_top" xlink:title="RTX::TsdbPointRecord">
<polygon fill="white" stroke="black" points="455.233,-0 455.233,-20 572.767,-20 572.767,-0 455.233,-0"/>
<text text-anchor="middle" x="514" y="-6" font-family="Helvetica,sans-Serif" font-size="10.00">RTX::TsdbPointRecord</text>
</a>
</g>
<!-- Node3&#45;&gt;Node11 -->
<g id="edge20" class="edge"><title>Node3&#45;&gt;Node11</title>
<path fill="none" stroke="midnightblue" d="M368.194,-89.3511C385.381,-71.6364 414.135,-44.7754 444,-29 450.702,-25.46 458.127,-22.5283 465.551,-20.1159"/>
<polygon fill="midnightblue" stroke="midnightblue" points="365.495,-87.1113 361.149,-96.774 370.572,-91.9302 365.495,-87.1113"/>
</g>
<!-- Node7 -->
<g id="node13" class="node"><title>Node7</title>
<a xlink:href="class_r_t_x_1_1_odbc_direct_point_record.html" target="_top" xlink:title="RTX::OdbcDirectPointRecord">
<polygon fill="white" stroke="black" points="627.788,-136 627.788,-156 774.212,-156 774.212,-136 627.788,-136"/>
<text text-anchor="middle" x="701" y="-142" font-family="Helvetica,sans-Serif" font-size="10.00">RTX::OdbcDirectPointRecord</text>
</a>
</g>
<!-- Node6&#45;&gt;Node7 -->
<g id="edge12" class="edge"><title>Node6&#45;&gt;Node7</title>
<path fill="none" stroke="midnightblue" d="M584.446,-134.132C598.596,-135.586 613.516,-137.118 627.761,-138.581"/>
<polygon fill="midnightblue" stroke="midnightblue" points="584.604,-130.63 574.299,-133.09 583.889,-137.594 584.604,-130.63"/>
</g>
<!-- Node8 -->
<g id="node15" class="node"><title>Node8</title>
<a xlink:href="class_r_t_x_1_1_odbc_prepared_point_record.html" target="_top" xlink:title="RTX::OdbcPreparedPointRecord">
<polygon fill="white" stroke="black" points="620.275,-97 620.275,-117 781.725,-117 781.725,-97 620.275,-97"/>
<text text-anchor="middle" x="701" y="-103" font-family="Helvetica,sans-Serif" font-size="10.00">RTX::OdbcPreparedPointRecord</text>
</a>
</g>
<!-- Node6&#45;&gt;Node8 -->
<g id="edge14" class="edge"><title>Node6&#45;&gt;Node8</title>
<path fill="none" stroke="midnightblue" d="M584.387,-119.499C596.043,-118.239 608.222,-116.922 620.118,-115.636"/>
<polygon fill="midnightblue" stroke="midnightblue" points="583.864,-116.035 574.299,-120.589 584.617,-122.994 583.864,-116.035"/>
</g>
<!-- Node14 -->
<g id="node27" class="node"><title>Node14</title>
<a xlink:href="class_r_t_x_1_1_csv_point_record.html" target="_top" xlink:title="RTX::CsvPointRecord">
<polygon fill="white" stroke="black" points="294.184,-19 294.184,-39 407.816,-39 407.816,-19 294.184,-19"/>
<text text-anchor="middle" x="351" y="-25" font-family="Helvetica,sans-Serif" font-size="10.00">RTX::CsvPointRecord</text>
</a>
</g>
<!-- Node13&#45;&gt;Node14 -->
<g id="edge26" class="edge"><title>Node13&#45;&gt;Node14</title>
<path fill="none" stroke="midnightblue" d="M263.48,-29C273.72,-29 284.187,-29 294.144,-29"/>
<polygon fill="midnightblue" stroke="midnightblue" points="263.344,-25.5001 253.344,-29 263.344,-32.5001 263.344,-25.5001"/>
</g>
</g>
</svg>
