<?xml version="1.0" encoding="UTF-8" standalone="no"?>
<!DOCTYPE svg PUBLIC "-//W3C//DTD SVG 1.1//EN"
 "http://www.w3.org/Graphics/SVG/1.1/DTD/svg11.dtd">
<!-- Generated by graphviz version 2.28.0 (20110509.1545)
 -->
<!-- Title: Graphical Class Hierarchy Pages: 1 -->
<svg width="800pt" height="488pt"
 viewBox="0.00 0.00 800.00 488.00" xmlns="http://www.w3.org/2000/svg" xmlns:xlink="http://www.w3.org/1999/xlink">
<g id="graph1" class="graph" transform="scale(1 1) rotate(0) translate(4 484)">
<title>Graphical Class Hierarchy</title>
<polygon fill="white" stroke="white" points="-4,5 -4,-484 797,-484 797,5 -4,5"/>
<!-- Node1 -->
<g id="node1" class="node"><title>Node1</title>
<polygon fill="white" stroke="#bfbfbf" points="0.574219,-267 0.574219,-287 129.426,-287 129.426,-267 0.574219,-267"/>
<text text-anchor="middle" x="65" y="-273" font-family="Helvetica,sans-Serif" font-size="10.00">enable_shared_from_this</text>
</g>
<!-- Node2 -->
<g id="node3" class="node"><title>Node2</title>
<a xlink:href="class_r_t_x_1_1_time_series.html" target="_top" xlink:title="An abstraction of Points ordered in time. ">
<polygon fill="white" stroke="black" points="166.209,-267 166.209,-287 257.791,-287 257.791,-267 166.209,-267"/>
<text text-anchor="middle" x="212" y="-273" font-family="Helvetica,sans-Serif" font-size="10.00">RTX::TimeSeries</text>
</a>
</g>
<!-- Node1&#45;&gt;Node2 -->
<g id="edge2" class="edge"><title>Node1&#45;&gt;Node2</title>
<path fill="none" stroke="midnightblue" d="M139.76,-277C148.775,-277 157.765,-277 166.171,-277"/>
<polygon fill="midnightblue" stroke="midnightblue" points="139.599,-273.5 129.599,-277 139.599,-280.5 139.599,-273.5"/>
</g>
<!-- Node3 -->
<g id="node5" class="node"><title>Node3</title>
<a xlink:href="class_r_t_x_1_1_constant_time_series.html" target="_top" xlink:title="RTX::ConstantTimeSeries">
<polygon fill="white" stroke="black" points="294.197,-306 294.197,-326 425.803,-326 425.803,-306 294.197,-306"/>
<text text-anchor="middle" x="360" y="-312" font-family="Helvetica,sans-Serif" font-size="10.00">RTX::ConstantTimeSeries</text>
</a>
</g>
<!-- Node2&#45;&gt;Node3 -->
<g id="edge4" class="edge"><title>Node2&#45;&gt;Node3</title>
<path fill="none" stroke="midnightblue" d="M260.365,-289.652C280.188,-294.947 302.9,-301.014 321.529,-305.991"/>
<polygon fill="midnightblue" stroke="midnightblue" points="261.163,-286.243 250.599,-287.043 259.357,-293.006 261.163,-286.243"/>
</g>
<!-- Node4 -->
<g id="node7" class="node"><title>Node4</title>
<a xlink:href="class_r_t_x_1_1_modular_time_series.html" target="_top" xlink:title="A Time Series class that allows a single upstream TimeSeries. ">
<polygon fill="white" stroke="black" points="296.146,-267 296.146,-287 423.854,-287 423.854,-267 296.146,-267"/>
<text text-anchor="middle" x="360" y="-273" font-family="Helvetica,sans-Serif" font-size="10.00">RTX::ModularTimeSeries</text>
</a>
</g>
<!-- Node2&#45;&gt;Node4 -->
<g id="edge6" class="edge"><title>Node2&#45;&gt;Node4</title>
<path fill="none" stroke="midnightblue" d="M268.058,-277C277.148,-277 286.633,-277 295.902,-277"/>
<polygon fill="midnightblue" stroke="midnightblue" points="267.996,-273.5 257.996,-277 267.996,-280.5 267.996,-273.5"/>
</g>
<!-- Node26 -->
<g id="node51" class="node"><title>Node26</title>
<a xlink:href="class_r_t_x_1_1_sine_time_series.html" target="_top" xlink:title="RTX::SineTimeSeries">
<polygon fill="white" stroke="black" points="304.202,-228 304.202,-248 415.798,-248 415.798,-228 304.202,-228"/>
<text text-anchor="middle" x="360" y="-234" font-family="Helvetica,sans-Serif" font-size="10.00">RTX::SineTimeSeries</text>
</a>
</g>
<!-- Node2&#45;&gt;Node26 -->
<g id="edge50" class="edge"><title>Node2&#45;&gt;Node26</title>
<path fill="none" stroke="midnightblue" d="M260.365,-264.348C280.188,-259.053 302.9,-252.986 321.529,-248.009"/>
<polygon fill="midnightblue" stroke="midnightblue" points="259.357,-260.994 250.599,-266.957 261.163,-267.757 259.357,-260.994"/>
</g>
<!-- Node5 -->
<g id="node9" class="node"><title>Node5</title>
<a xlink:href="class_r_t_x_1_1_base_stats_time_series.html" target="_top" xlink:title="RTX::BaseStatsTimeSeries">
<polygon fill="white" stroke="black" points="468.419,-423 468.419,-443 605.581,-443 605.581,-423 468.419,-423"/>
<text text-anchor="middle" x="537" y="-429" font-family="Helvetica,sans-Serif" font-size="10.00">RTX::BaseStatsTimeSeries</text>
</a>
</g>
<!-- Node4&#45;&gt;Node5 -->
<g id="edge8" class="edge"><title>Node4&#45;&gt;Node5</title>
<path fill="none" stroke="midnightblue" d="M420.636,-292.421C422.538,-293.817 424.336,-295.34 426,-297 464.217,-335.124 423.131,-375.541 462,-413 466.216,-417.063 471.169,-420.321 476.481,-422.929"/>
<polygon fill="midnightblue" stroke="midnightblue" points="422.107,-289.221 411.734,-287.068 418.5,-295.22 422.107,-289.221"/>
</g>
<!-- Node8 -->
<g id="node15" class="node"><title>Node8</title>
<a xlink:href="class_r_t_x_1_1_curve_function.html" target="_top" xlink:title="A Curve Function Class to perform arbitrary mapping of values. ">
<polygon fill="white" stroke="black" points="483.795,-384 483.795,-404 590.205,-404 590.205,-384 483.795,-384"/>
<text text-anchor="middle" x="537" y="-390" font-family="Helvetica,sans-Serif" font-size="10.00">RTX::CurveFunction</text>
</a>
</g>
<!-- Node4&#45;&gt;Node8 -->
<g id="edge14" class="edge"><title>Node4&#45;&gt;Node8</title>
<path fill="none" stroke="midnightblue" d="M418.869,-291.762C421.391,-293.335 423.787,-295.075 426,-297 454.501,-321.796 433.075,-349.7 462,-374 468.216,-379.222 475.671,-383.091 483.422,-385.955"/>
<polygon fill="midnightblue" stroke="midnightblue" points="420.369,-288.596 409.89,-287.035 417.108,-294.791 420.369,-288.596"/>
</g>
<!-- Node9 -->
<g id="node17" class="node"><title>Node9</title>
<a xlink:href="class_r_t_x_1_1_failover_time_series.html" target="_top" xlink:title="RTX::FailoverTimeSeries">
<polygon fill="white" stroke="black" points="473.426,-345 473.426,-365 600.574,-365 600.574,-345 473.426,-345"/>
<text text-anchor="middle" x="537" y="-351" font-family="Helvetica,sans-Serif" font-size="10.00">RTX::FailoverTimeSeries</text>
</a>
</g>
<!-- Node4&#45;&gt;Node9 -->
<g id="edge16" class="edge"><title>Node4&#45;&gt;Node9</title>
<path fill="none" stroke="midnightblue" d="M413.977,-290.724C418.167,-292.577 422.23,-294.66 426,-297 445.767,-309.268 442.024,-323.075 462,-335 468.856,-339.093 476.563,-342.366 484.346,-344.979"/>
<polygon fill="midnightblue" stroke="midnightblue" points="415.253,-287.465 404.667,-287.028 412.67,-293.971 415.253,-287.465"/>
</g>
<!-- Node10 -->
<g id="node19" class="node"><title>Node10</title>
<a xlink:href="class_r_t_x_1_1_forecast_time_series.html" target="_top" xlink:title="An arima &#45; based time series predictor/forecaster. ">
<polygon fill="white" stroke="black" points="471.759,-306 471.759,-326 602.241,-326 602.241,-306 471.759,-306"/>
<text text-anchor="middle" x="537" y="-312" font-family="Helvetica,sans-Serif" font-size="10.00">RTX::ForecastTimeSeries</text>
</a>
</g>
<!-- Node4&#45;&gt;Node10 -->
<g id="edge18" class="edge"><title>Node4&#45;&gt;Node10</title>
<path fill="none" stroke="midnightblue" d="M415.828,-289.219C440.038,-294.614 468.145,-300.878 491.086,-305.991"/>
<polygon fill="midnightblue" stroke="midnightblue" points="416.589,-285.803 406.067,-287.043 415.066,-292.635 416.589,-285.803"/>
</g>
<!-- Node11 -->
<g id="node21" class="node"><title>Node11</title>
<a xlink:href="class_r_t_x_1_1_resampler.html" target="_top" xlink:title="RTX::Resampler">
<polygon fill="white" stroke="black" points="492.135,-267 492.135,-287 581.865,-287 581.865,-267 492.135,-267"/>
<text text-anchor="middle" x="537" y="-273" font-family="Helvetica,sans-Serif" font-size="10.00">RTX::Resampler</text>
</a>
</g>
<!-- Node4&#45;&gt;Node11 -->
<g id="edge20" class="edge"><title>Node4&#45;&gt;Node11</title>
<path fill="none" stroke="midnightblue" d="M434.339,-277C453.98,-277 474.599,-277 492.094,-277"/>
<polygon fill="midnightblue" stroke="midnightblue" points="434.179,-273.5 424.179,-277 434.179,-280.5 434.179,-273.5"/>
</g>
<!-- Node15 -->
<g id="node29" class="node"><title>Node15</title>
<a xlink:href="class_r_t_x_1_1_run_time_status_modular_time_series.html" target="_top" xlink:title="RTX::RunTimeStatusModular\lTimeSeries">
<polygon fill="white" stroke="black" points="463.971,-216 463.971,-248 610.029,-248 610.029,-216 463.971,-216"/>
<text text-anchor="start" x="471.971" y="-234" font-family="Helvetica,sans-Serif" font-size="10.00">RTX::RunTimeStatusModular</text>
<text text-anchor="middle" x="537" y="-222" font-family="Helvetica,sans-Serif" font-size="10.00">TimeSeries</text>
</a>
</g>
<!-- Node4&#45;&gt;Node15 -->
<g id="edge28" class="edge"><title>Node4&#45;&gt;Node15</title>
<path fill="none" stroke="midnightblue" d="M410.225,-264.342C429.866,-259.292 452.712,-253.417 473.502,-248.071"/>
<polygon fill="midnightblue" stroke="midnightblue" points="409.087,-261.021 400.273,-266.901 410.83,-267.8 409.087,-261.021"/>
</g>
<!-- Node16 -->
<g id="node31" class="node"><title>Node16</title>
<a xlink:href="class_r_t_x_1_1_single_point_filter_modular_time_series.html" target="_top" xlink:title="RTX::SinglePointFilterModular\lTimeSeries">
<polygon fill="white" stroke="black" points="461.839,-155 461.839,-187 612.161,-187 612.161,-155 461.839,-155"/>
<text text-anchor="start" x="469.839" y="-173" font-family="Helvetica,sans-Serif" font-size="10.00">RTX::SinglePointFilterModular</text>
<text text-anchor="middle" x="537" y="-161" font-family="Helvetica,sans-Serif" font-size="10.00">TimeSeries</text>
</a>
</g>
<!-- Node4&#45;&gt;Node16 -->
<g id="edge30" class="edge"><title>Node4&#45;&gt;Node16</title>
<path fill="none" stroke="midnightblue" d="M416.37,-262.812C419.749,-261.088 422.994,-259.158 426,-257 448.244,-241.031 441.052,-224.636 462,-207 471.399,-199.087 482.834,-192.428 493.877,-187.073"/>
<polygon fill="midnightblue" stroke="midnightblue" points="414.885,-259.642 407.181,-266.914 417.739,-266.034 414.885,-259.642"/>
</g>
<!-- Node24 -->
<g id="node47" class="node"><title>Node24</title>
<a xlink:href="class_r_t_x_1_1_time_gap_time_series.html" target="_top" xlink:title="A Class to map the input time series into a series whos values are the time gaps between successive p...">
<polygon fill="white" stroke="black" points="470.831,-116 470.831,-136 603.169,-136 603.169,-116 470.831,-116"/>
<text text-anchor="middle" x="537" y="-122" font-family="Helvetica,sans-Serif" font-size="10.00">RTX::TimeGapTimeSeries</text>
</a>
</g>
<!-- Node4&#45;&gt;Node24 -->
<g id="edge46" class="edge"><title>Node4&#45;&gt;Node24</title>
<path fill="none" stroke="midnightblue" d="M420.61,-261.552C422.519,-260.163 424.326,-258.649 426,-257 462.949,-220.606 424.428,-181.751 462,-146 466.242,-141.964 471.212,-138.724 476.534,-136.126"/>
<polygon fill="midnightblue" stroke="midnightblue" points="418.476,-258.75 411.683,-266.881 422.063,-264.761 418.476,-258.75"/>
</g>
<!-- Node25 -->
<g id="node49" class="node"><title>Node25</title>
<a xlink:href="class_r_t_x_1_1_warping_time_series.html" target="_top" xlink:title="RTX::WarpingTimeSeries">
<polygon fill="white" stroke="black" points="472.774,-77 472.774,-97 601.226,-97 601.226,-77 472.774,-77"/>
<text text-anchor="middle" x="537" y="-83" font-family="Helvetica,sans-Serif" font-size="10.00">RTX::WarpingTimeSeries</text>
</a>
</g>
<!-- Node4&#45;&gt;Node25 -->
<g id="edge48" class="edge"><title>Node4&#45;&gt;Node25</title>
<path fill="none" stroke="midnightblue" d="M421.413,-261.217C423.039,-259.92 424.576,-258.517 426,-257 472.929,-207.019 414.215,-156.163 462,-107 465.896,-102.992 470.505,-99.7607 475.489,-97.1592"/>
<polygon fill="midnightblue" stroke="midnightblue" points="419.153,-258.51 412.636,-266.864 422.94,-264.397 419.153,-258.51"/>
</g>
<!-- Node6 -->
<g id="node11" class="node"><title>Node6</title>
<a xlink:href="class_r_t_x_1_1_outlier_exclusion_time_series.html" target="_top" xlink:title="RTX::OutlierExclusionTime\lSeries">
<polygon fill="white" stroke="black" points="652.256,-448 652.256,-480 787.744,-480 787.744,-448 652.256,-448"/>
<text text-anchor="start" x="660.256" y="-466" font-family="Helvetica,sans-Serif" font-size="10.00">RTX::OutlierExclusionTime</text>
<text text-anchor="middle" x="720" y="-454" font-family="Helvetica,sans-Serif" font-size="10.00">Series</text>
</a>
</g>
<!-- Node5&#45;&gt;Node6 -->
<g id="edge10" class="edge"><title>Node5&#45;&gt;Node6</title>
<path fill="none" stroke="midnightblue" d="M606.868,-444.795C621.68,-447.332 637.313,-450.009 652.051,-452.534"/>
<polygon fill="midnightblue" stroke="midnightblue" points="607.213,-441.303 596.766,-443.065 606.031,-448.203 607.213,-441.303"/>
</g>
<!-- Node7 -->
<g id="node13" class="node"><title>Node7</title>
<a xlink:href="class_r_t_x_1_1_stats_time_series.html" target="_top" xlink:title="A modular timeseries class for delivering statistical information. ">
<polygon fill="white" stroke="black" points="662.815,-409 662.815,-429 777.185,-429 777.185,-409 662.815,-409"/>
<text text-anchor="middle" x="720" y="-415" font-family="Helvetica,sans-Serif" font-size="10.00">RTX::StatsTimeSeries</text>
</a>
</g>
<!-- Node5&#45;&gt;Node7 -->
<g id="edge12" class="edge"><title>Node5&#45;&gt;Node7</title>
<path fill="none" stroke="midnightblue" d="M615.893,-426.975C631.616,-425.759 647.857,-424.503 662.667,-423.357"/>
<polygon fill="midnightblue" stroke="midnightblue" points="615.355,-423.506 605.655,-427.767 615.895,-430.485 615.355,-423.506"/>
</g>
<!-- Node12 -->
<g id="node23" class="node"><title>Node12</title>
<a xlink:href="class_r_t_x_1_1_aggregator_time_series.html" target="_top" xlink:title="Aggregates (and optionally scales) arbitrary many input time series. ">
<polygon fill="white" stroke="black" points="649.471,-351 649.471,-371 790.529,-371 790.529,-351 649.471,-351"/>
<text text-anchor="middle" x="720" y="-357" font-family="Helvetica,sans-Serif" font-size="10.00">RTX::AggregatorTimeSeries</text>
</a>
</g>
<!-- Node11&#45;&gt;Node12 -->
<g id="edge22" class="edge"><title>Node11&#45;&gt;Node12</title>
<path fill="none" stroke="midnightblue" d="M591.857,-287.271C598.936,-289.831 605.856,-293.022 612,-297 633.211,-310.731 626.863,-327.157 648,-341 654.214,-345.069 661.256,-348.321 668.433,-350.918"/>
<polygon fill="midnightblue" stroke="midnightblue" points="592.755,-283.883 582.164,-284.157 590.615,-290.548 592.755,-283.883"/>
</g>
<!-- Node13 -->
<g id="node25" class="node"><title>Node13</title>
<a xlink:href="class_r_t_x_1_1_first_derivative.html" target="_top" xlink:title="RTX::FirstDerivative">
<polygon fill="white" stroke="black" points="667.361,-312 667.361,-332 772.639,-332 772.639,-312 667.361,-312"/>
<text text-anchor="middle" x="720" y="-318" font-family="Helvetica,sans-Serif" font-size="10.00">RTX::FirstDerivative</text>
</a>
</g>
<!-- Node11&#45;&gt;Node13 -->
<g id="edge24" class="edge"><title>Node11&#45;&gt;Node13</title>
<path fill="none" stroke="midnightblue" d="M588.377,-289.525C616.815,-296.595 651.879,-305.312 678.516,-311.935"/>
<polygon fill="midnightblue" stroke="midnightblue" points="589.169,-286.115 578.62,-287.099 587.48,-292.908 589.169,-286.115"/>
</g>
<!-- Node14 -->
<g id="node27" class="node"><title>Node14</title>
<a xlink:href="class_r_t_x_1_1_moving_average.html" target="_top" xlink:title="RTX::MovingAverage">
<polygon fill="white" stroke="black" points="664.656,-273 664.656,-293 775.344,-293 775.344,-273 664.656,-273"/>
<text text-anchor="middle" x="720" y="-279" font-family="Helvetica,sans-Serif" font-size="10.00">RTX::MovingAverage</text>
</a>
</g>
<!-- Node11&#45;&gt;Node14 -->
<g id="edge26" class="edge"><title>Node11&#45;&gt;Node14</title>
<path fill="none" stroke="midnightblue" d="M592.469,-278.806C615.267,-279.561 641.709,-280.438 664.509,-281.194"/>
<polygon fill="midnightblue" stroke="midnightblue" points="592.388,-275.301 582.278,-278.468 592.156,-282.297 592.388,-275.301"/>
</g>
<!-- Node17 -->
<g id="node33" class="node"><title>Node17</title>
<a xlink:href="class_r_t_x_1_1_gain_time_series.html" target="_top" xlink:title="RTX::GainTimeSeries">
<polygon fill="white" stroke="black" points="663.648,-234 663.648,-254 776.352,-254 776.352,-234 663.648,-234"/>
<text text-anchor="middle" x="720" y="-240" font-family="Helvetica,sans-Serif" font-size="10.00">RTX::GainTimeSeries</text>
</a>
</g>
<!-- Node16&#45;&gt;Node17 -->
<g id="edge32" class="edge"><title>Node16&#45;&gt;Node17</title>
<path fill="none" stroke="midnightblue" d="M580.463,-191.67C609.894,-205.962 644.422,-222.646 648,-224 657.821,-227.717 668.635,-231.104 678.799,-233.993"/>
<polygon fill="midnightblue" stroke="midnightblue" points="581.656,-188.359 571.132,-187.136 578.597,-194.655 581.656,-188.359"/>
</g>
<!-- Node18 -->
<g id="node35" class="node"><title>Node18</title>
<a xlink:href="class_r_t_x_1_1_inversion_time_series.html" target="_top" xlink:title="RTX::InversionTimeSeries">
<polygon fill="white" stroke="black" points="653.921,-195 653.921,-215 786.079,-215 786.079,-195 653.921,-195"/>
<text text-anchor="middle" x="720" y="-201" font-family="Helvetica,sans-Serif" font-size="10.00">RTX::InversionTimeSeries</text>
</a>
</g>
<!-- Node16&#45;&gt;Node18 -->
<g id="edge34" class="edge"><title>Node16&#45;&gt;Node18</title>
<path fill="none" stroke="midnightblue" d="M622.512,-186.875C637.19,-189.632 652.078,-192.429 665.625,-194.974"/>
<polygon fill="midnightblue" stroke="midnightblue" points="622.877,-183.383 612.403,-184.976 621.585,-190.262 622.877,-183.383"/>
</g>
<!-- Node19 -->
<g id="node37" class="node"><title>Node19</title>
<a xlink:href="class_r_t_x_1_1_multiplier_time_series.html" target="_top" xlink:title="RTX::MultiplierTimeSeries">
<polygon fill="white" stroke="black" points="654.205,-156 654.205,-176 785.795,-176 785.795,-156 654.205,-156"/>
<text text-anchor="middle" x="720" y="-162" font-family="Helvetica,sans-Serif" font-size="10.00">RTX::MultiplierTimeSeries</text>
</a>
</g>
<!-- Node16&#45;&gt;Node19 -->
<g id="edge36" class="edge"><title>Node16&#45;&gt;Node19</title>
<path fill="none" stroke="midnightblue" d="M622.535,-168.665C633.158,-168.371 643.891,-168.075 654.145,-167.792"/>
<polygon fill="midnightblue" stroke="midnightblue" points="622.303,-165.17 612.403,-168.945 622.496,-172.167 622.303,-165.17"/>
</g>
<!-- Node20 -->
<g id="node39" class="node"><title>Node20</title>
<a xlink:href="class_r_t_x_1_1_offset_time_series.html" target="_top" xlink:title="RTX::OffsetTimeSeries">
<polygon fill="white" stroke="black" points="660.96,-117 660.96,-137 779.04,-137 779.04,-117 660.96,-117"/>
<text text-anchor="middle" x="720" y="-123" font-family="Helvetica,sans-Serif" font-size="10.00">RTX::OffsetTimeSeries</text>
</a>
</g>
<!-- Node16&#45;&gt;Node20 -->
<g id="edge38" class="edge"><title>Node16&#45;&gt;Node20</title>
<path fill="none" stroke="midnightblue" d="M613.805,-152.572C635.677,-147.255 658.726,-141.652 677.656,-137.051"/>
<polygon fill="midnightblue" stroke="midnightblue" points="612.747,-149.227 603.857,-154.991 614.401,-156.029 612.747,-149.227"/>
</g>
<!-- Node21 -->
<g id="node41" class="node"><title>Node21</title>
<a xlink:href="class_r_t_x_1_1_threshold_time_series.html" target="_top" xlink:title="A Status Class to map the input time series into binary status based on a threshold. ">
<polygon fill="white" stroke="black" points="651.976,-78 651.976,-98 788.024,-98 788.024,-78 651.976,-78"/>
<text text-anchor="middle" x="720" y="-84" font-family="Helvetica,sans-Serif" font-size="10.00">RTX::ThresholdTimeSeries</text>
</a>
</g>
<!-- Node16&#45;&gt;Node21 -->
<g id="edge40" class="edge"><title>Node16&#45;&gt;Node21</title>
<path fill="none" stroke="midnightblue" d="M602.231,-150.576C605.611,-148.843 608.891,-146.986 612,-145 631.335,-132.648 628.284,-119.734 648,-108 654.823,-103.939 662.505,-100.673 670.231,-98.0532"/>
<polygon fill="midnightblue" stroke="midnightblue" points="600.656,-147.449 593.101,-154.877 603.639,-153.782 600.656,-147.449"/>
</g>
<!-- Node22 -->
<g id="node43" class="node"><title>Node22</title>
<a xlink:href="class_r_t_x_1_1_time_offset_time_series.html" target="_top" xlink:title="RTX::TimeOffsetTimeSeries">
<polygon fill="white" stroke="black" points="650.032,-39 650.032,-59 789.968,-59 789.968,-39 650.032,-39"/>
<text text-anchor="middle" x="720" y="-45" font-family="Helvetica,sans-Serif" font-size="10.00">RTX::TimeOffsetTimeSeries</text>
</a>
</g>
<!-- Node16&#45;&gt;Node22 -->
<g id="edge42" class="edge"><title>Node16&#45;&gt;Node22</title>
<path fill="none" stroke="midnightblue" d="M606.546,-149.395C608.448,-148.018 610.274,-146.555 612,-145 639.773,-119.988 619.45,-93.1209 648,-69 652.793,-64.9504 658.353,-61.7182 664.21,-59.139"/>
<polygon fill="midnightblue" stroke="midnightblue" points="604.385,-146.618 597.769,-154.893 608.101,-152.55 604.385,-146.618"/>
</g>
<!-- Node23 -->
<g id="node45" class="node"><title>Node23</title>
<a xlink:href="class_r_t_x_1_1_valid_range_time_series.html" target="_top" xlink:title="RTX::ValidRangeTimeSeries">
<polygon fill="white" stroke="black" points="648.726,-0 648.726,-20 791.274,-20 791.274,-0 648.726,-0"/>
<text text-anchor="middle" x="720" y="-6" font-family="Helvetica,sans-Serif" font-size="10.00">RTX::ValidRangeTimeSeries</text>
</a>
</g>
<!-- Node16&#45;&gt;Node23 -->
<g id="edge44" class="edge"><title>Node16&#45;&gt;Node23</title>
<path fill="none" stroke="midnightblue" d="M607.613,-149.065C609.149,-147.786 610.616,-146.432 612,-145 649.212,-106.482 609.588,-67.3211 648,-30 652.225,-25.895 657.224,-22.6195 662.583,-20.0079"/>
<polygon fill="midnightblue" stroke="midnightblue" points="605.562,-146.228 599.417,-154.859 609.603,-151.944 605.562,-146.228"/>
</g>
</g>
</svg>
