<?xml version="1.0" encoding="UTF-8" standalone="no"?>
<!DOCTYPE svg PUBLIC "-//W3C//DTD SVG 1.1//EN"
 "http://www.w3.org/Graphics/SVG/1.1/DTD/svg11.dtd">
<!-- Generated by graphviz version 2.36.0 (20140111.2315)
 -->
<!-- Title: Graphical Class Hierarchy Pages: 1 -->
<svg width="774pt" height="137pt"
 viewBox="0.00 0.00 774.00 137.00" xmlns="http://www.w3.org/2000/svg" xmlns:xlink="http://www.w3.org/1999/xlink">
<g id="graph0" class="graph" transform="scale(1 1) rotate(0) translate(4 133)">
<title>Graphical Class Hierarchy</title>
<polygon fill="white" stroke="none" points="-4,4 -4,-133 770,-133 770,4 -4,4"/>
<!-- Node1 -->
<g id="node1" class="node"><title>Node1</title>
<g id="a_node1"><a xlink:href="class_r_t_x_1_1_point_record.html" target="_top" xlink:title="A Point Record Class for storing and retrieving Points. ">
<polygon fill="white" stroke="black" points="-0.205078,-37 -0.205078,-55 96.2051,-55 96.2051,-37 -0.205078,-37"/>
<text text-anchor="middle" x="48" y="-43" font-family="Helvetica,sans-Serif" font-size="10.00">RTX::PointRecord</text>
</a>
</g>
</g>
<!-- Node2 -->
<g id="node2" class="node"><title>Node2</title>
<g id="a_node2"><a xlink:href="class_r_t_x_1_1_buffer_point_record.html" target="_top" xlink:title="RTX::BufferPointRecord">
<polygon fill="white" stroke="black" points="133.543,-74 133.543,-92 256.457,-92 256.457,-74 133.543,-74"/>
<text text-anchor="middle" x="195" y="-80" font-family="Helvetica,sans-Serif" font-size="10.00">RTX::BufferPointRecord</text>
</a>
</g>
</g>
<!-- Node1&#45;&gt;Node2 -->
<g id="edge1" class="edge"><title>Node1&#45;&gt;Node2</title>
<path fill="none" stroke="midnightblue" d="M94.337,-57.5688C115.076,-62.8608 139.281,-69.0373 158.644,-73.9782"/>
<polygon fill="midnightblue" stroke="midnightblue" points="95.0259,-54.1325 84.471,-55.0512 93.2951,-60.9151 95.0259,-54.1325"/>
</g>
<!-- Node9 -->
<g id="node9" class="node"><title>Node9</title>
<g id="a_node9"><a xlink:href="class_r_t_x_1_1_deque_point_record.html" target="_top" xlink:title="RTX::DequePointRecord">
<polygon fill="white" stroke="black" points="132.061,-37 132.061,-55 257.939,-55 257.939,-37 132.061,-37"/>
<text text-anchor="middle" x="195" y="-43" font-family="Helvetica,sans-Serif" font-size="10.00">RTX::DequePointRecord</text>
</a>
</g>
</g>
<!-- Node1&#45;&gt;Node9 -->
<g id="edge8" class="edge"><title>Node1&#45;&gt;Node9</title>
<path fill="none" stroke="midnightblue" d="M106.492,-46C114.84,-46 123.465,-46 131.899,-46"/>
<polygon fill="midnightblue" stroke="midnightblue" points="106.478,-42.5001 96.4784,-46 106.478,-49.5001 106.478,-42.5001"/>
</g>
<!-- Node10 -->
<g id="node10" class="node"><title>Node10</title>
<g id="a_node10"><a xlink:href="class_r_t_x_1_1_map_point_record.html" target="_top" xlink:title="RTX::MapPointRecord">
<polygon fill="white" stroke="black" points="137.068,-0 137.068,-18 252.932,-18 252.932,-0 137.068,-0"/>
<text text-anchor="middle" x="195" y="-6" font-family="Helvetica,sans-Serif" font-size="10.00">RTX::MapPointRecord</text>
</a>
</g>
</g>
<!-- Node1&#45;&gt;Node10 -->
<g id="edge9" class="edge"><title>Node1&#45;&gt;Node10</title>
<path fill="none" stroke="midnightblue" d="M94.337,-34.4312C115.076,-29.1392 139.281,-22.9627 158.644,-18.0218"/>
<polygon fill="midnightblue" stroke="midnightblue" points="93.2951,-31.0849 84.471,-36.9488 95.0259,-37.8675 93.2951,-31.0849"/>
</g>
<!-- Node3 -->
<g id="node3" class="node"><title>Node3</title>
<g id="a_node3"><a xlink:href="class_r_t_x_1_1_db_point_record.html" target="_top" xlink:title="A persistence layer for databases. ">
<polygon fill="white" stroke="black" points="296.403,-74 296.403,-92 405.597,-92 405.597,-74 296.403,-74"/>
<text text-anchor="middle" x="351" y="-80" font-family="Helvetica,sans-Serif" font-size="10.00">RTX::DbPointRecord</text>
</a>
</g>
</g>
<!-- Node2&#45;&gt;Node3 -->
<g id="edge2" class="edge"><title>Node2&#45;&gt;Node3</title>
<path fill="none" stroke="midnightblue" d="M266.979,-83C276.756,-83 286.663,-83 296.064,-83"/>
<polygon fill="midnightblue" stroke="midnightblue" points="266.865,-79.5001 256.865,-83 266.865,-86.5001 266.865,-79.5001"/>
</g>
<!-- Node4 -->
<g id="node4" class="node"><title>Node4</title>
<g id="a_node4"><a xlink:href="class_r_t_x_1_1_mysql_point_record.html" target="_top" xlink:title="A persistence layer for MySQL databases. ">
<polygon fill="white" stroke="black" points="444.738,-111 444.738,-129 567.262,-129 567.262,-111 444.738,-111"/>
<text text-anchor="middle" x="506" y="-117" font-family="Helvetica,sans-Serif" font-size="10.00">RTX::MysqlPointRecord</text>
</a>
</g>
</g>
<!-- Node3&#45;&gt;Node4 -->
<g id="edge3" class="edge"><title>Node3&#45;&gt;Node4</title>
<path fill="none" stroke="midnightblue" d="M399.242,-94.4247C421.257,-99.7484 447.077,-105.992 467.694,-110.978"/>
<polygon fill="midnightblue" stroke="midnightblue" points="399.971,-90.9999 389.428,-92.0512 398.325,-97.8038 399.971,-90.9999"/>
</g>
<!-- Node5 -->
<g id="node5" class="node"><title>Node5</title>
<g id="a_node5"><a xlink:href="class_r_t_x_1_1_odbc_point_record.html" target="_top" xlink:title="A persistence class for SCADA databases. ">
<polygon fill="white" stroke="black" points="445.844,-74 445.844,-92 566.156,-92 566.156,-74 445.844,-74"/>
<text text-anchor="middle" x="506" y="-80" font-family="Helvetica,sans-Serif" font-size="10.00">RTX::OdbcPointRecord</text>
</a>
</g>
</g>
<!-- Node3&#45;&gt;Node5 -->
<g id="edge4" class="edge"><title>Node3&#45;&gt;Node5</title>
<path fill="none" stroke="midnightblue" d="M416.083,-83C425.939,-83 436.077,-83 445.821,-83"/>
<polygon fill="midnightblue" stroke="midnightblue" points="415.942,-79.5001 405.942,-83 415.942,-86.5001 415.942,-79.5001"/>
</g>
<!-- Node8 -->
<g id="node8" class="node"><title>Node8</title>
<g id="a_node8"><a xlink:href="class_r_t_x_1_1_sqlite_point_record.html" target="_top" xlink:title="RTX::SqlitePointRecord">
<polygon fill="white" stroke="black" points="445.288,-37 445.288,-55 566.712,-55 566.712,-37 445.288,-37"/>
<text text-anchor="middle" x="506" y="-43" font-family="Helvetica,sans-Serif" font-size="10.00">RTX::SqlitePointRecord</text>
</a>
</g>
</g>
<!-- Node3&#45;&gt;Node8 -->
<g id="edge7" class="edge"><title>Node3&#45;&gt;Node8</title>
<path fill="none" stroke="midnightblue" d="M399.242,-71.5753C421.257,-66.2516 447.077,-60.0076 467.694,-55.0218"/>
<polygon fill="midnightblue" stroke="midnightblue" points="398.325,-68.1962 389.428,-73.9488 399.971,-75.0001 398.325,-68.1962"/>
</g>
<!-- Node6 -->
<g id="node6" class="node"><title>Node6</title>
<g id="a_node6"><a xlink:href="class_r_t_x_1_1_odbc_direct_point_record.html" target="_top" xlink:title="RTX::OdbcDirectPointRecord">
<polygon fill="white" stroke="black" points="611.788,-92 611.788,-110 758.212,-110 758.212,-92 611.788,-92"/>
<text text-anchor="middle" x="685" y="-98" font-family="Helvetica,sans-Serif" font-size="10.00">RTX::OdbcDirectPointRecord</text>
</a>
</g>
</g>
<!-- Node5&#45;&gt;Node6 -->
<g id="edge5" class="edge"><title>Node5&#45;&gt;Node6</title>
<path fill="none" stroke="midnightblue" d="M576.419,-90.0596C587.941,-91.2313 599.917,-92.4491 611.513,-93.6284"/>
<polygon fill="midnightblue" stroke="midnightblue" points="576.734,-86.5736 566.431,-89.0438 576.025,-93.5377 576.734,-86.5736"/>
</g>
<!-- Node7 -->
<g id="node7" class="node"><title>Node7</title>
<g id="a_node7"><a xlink:href="class_r_t_x_1_1_odbc_prepared_point_record.html" target="_top" xlink:title="RTX::OdbcPreparedPointRecord">
<polygon fill="white" stroke="black" points="604.275,-55 604.275,-73 765.725,-73 765.725,-55 604.275,-55"/>
<text text-anchor="middle" x="685" y="-61" font-family="Helvetica,sans-Serif" font-size="10.00">RTX::OdbcPreparedPointRecord</text>
</a>
</g>
</g>
<!-- Node5&#45;&gt;Node7 -->
<g id="edge6" class="edge"><title>Node5&#45;&gt;Node7</title>
<path fill="none" stroke="midnightblue" d="M576.477,-75.542C585.498,-74.5736 594.796,-73.5755 603.972,-72.5906"/>
<polygon fill="midnightblue" stroke="midnightblue" points="576,-72.073 566.431,-76.6204 576.747,-79.033 576,-72.073"/>
</g>
<!-- Node11 -->
<g id="node11" class="node"><title>Node11</title>
<g id="a_node11"><a xlink:href="class_r_t_x_1_1_csv_point_record.html" target="_top" xlink:title="RTX::CsvPointRecord">
<polygon fill="white" stroke="black" points="294.184,-0 294.184,-18 407.816,-18 407.816,-0 294.184,-0"/>
<text text-anchor="middle" x="351" y="-6" font-family="Helvetica,sans-Serif" font-size="10.00">RTX::CsvPointRecord</text>
</a>
</g>
</g>
<!-- Node10&#45;&gt;Node11 -->
<g id="edge10" class="edge"><title>Node10&#45;&gt;Node11</title>
<path fill="none" stroke="midnightblue" d="M263.48,-9C273.72,-9 284.187,-9 294.144,-9"/>
<polygon fill="midnightblue" stroke="midnightblue" points="263.344,-5.5001 253.344,-9 263.344,-12.5001 263.344,-5.5001"/>
</g>
</g>
</svg>
