<?xml version="1.0" encoding="UTF-8" standalone="no"?>
<!DOCTYPE svg PUBLIC "-//W3C//DTD SVG 1.1//EN"
 "http://www.w3.org/Graphics/SVG/1.1/DTD/svg11.dtd">
<!-- Generated by graphviz version 2.28.0 (20110509.1545)
 -->
<!-- Title: Graphical Class Hierarchy Pages: 1 -->
<svg width="432pt" height="184pt"
 viewBox="0.00 0.00 432.00 184.00" xmlns="http://www.w3.org/2000/svg" xmlns:xlink="http://www.w3.org/1999/xlink">
<g id="graph1" class="graph" transform="scale(1 1) rotate(0) translate(4 180)">
<title>Graphical Class Hierarchy</title>
<polygon fill="white" stroke="white" points="-4,5 -4,-180 429,-180 429,5 -4,5"/>
<!-- Node1 -->
<g id="node1" class="node"><title>Node1</title>
<a xlink:href="class_r_t_x_1_1_time_series.html" target="_top" xlink:title="An abstraction of Points ordered in time.">
<polygon fill="white" stroke="black" points="0.209473,-78 0.209473,-98 91.7905,-98 91.7905,-78 0.209473,-78"/>
<text text-anchor="middle" x="46" y="-84" font-family="Helvetica,sans-Serif" font-size="10.00">RTX::TimeSeries</text>
</a>
</g>
<!-- Node2 -->
<g id="node3" class="node"><title>Node2</title>
<a xlink:href="class_r_t_x_1_1_aggregator_time_series.html" target="_top" xlink:title="Aggregates (and optionally scales) arbitrary many input time series.">
<polygon fill="white" stroke="black" points="128.471,-117 128.471,-137 269.529,-137 269.529,-117 128.471,-117"/>
<text text-anchor="middle" x="199" y="-123" font-family="Helvetica,sans-Serif" font-size="10.00">RTX::AggregatorTimeSeries</text>
</a>
</g>
<!-- Node1&#45;&gt;Node2 -->
<g id="edge2" class="edge"><title>Node1&#45;&gt;Node2</title>
<path fill="none" stroke="midnightblue" d="M95.7063,-100.58C116.274,-105.892 139.89,-111.992 159.246,-116.991"/>
<polygon fill="midnightblue" stroke="midnightblue" points="96.4438,-97.1555 85.8863,-98.0435 94.6933,-103.933 96.4438,-97.1555"/>
</g>
<!-- Node3 -->
<g id="node5" class="node"><title>Node3</title>
<a xlink:href="class_r_t_x_1_1_modular_time_series.html" target="_top" xlink:title="A Time Series class that allows a single upstream TimeSeries.">
<polygon fill="white" stroke="black" points="135.146,-78 135.146,-98 262.854,-98 262.854,-78 135.146,-78"/>
<text text-anchor="middle" x="199" y="-84" font-family="Helvetica,sans-Serif" font-size="10.00">RTX::ModularTimeSeries</text>
</a>
</g>
<!-- Node1&#45;&gt;Node3 -->
<g id="edge4" class="edge"><title>Node1&#45;&gt;Node3</title>
<path fill="none" stroke="midnightblue" d="M101.997,-88C112.758,-88 124.119,-88 135.114,-88"/>
<polygon fill="midnightblue" stroke="midnightblue" points="101.896,-84.5001 91.8961,-88 101.896,-91.5001 101.896,-84.5001"/>
</g>
<!-- Node9 -->
<g id="node17" class="node"><title>Node9</title>
<a xlink:href="class_r_t_x_1_1_sine_time_series.html" target="_top" xlink:title="RTX::SineTimeSeries">
<polygon fill="white" stroke="black" points="143.202,-39 143.202,-59 254.798,-59 254.798,-39 143.202,-39"/>
<text text-anchor="middle" x="199" y="-45" font-family="Helvetica,sans-Serif" font-size="10.00">RTX::SineTimeSeries</text>
</a>
</g>
<!-- Node1&#45;&gt;Node9 -->
<g id="edge16" class="edge"><title>Node1&#45;&gt;Node9</title>
<path fill="none" stroke="midnightblue" d="M95.7063,-75.4202C116.274,-70.108 139.89,-64.0085 159.246,-59.0094"/>
<polygon fill="midnightblue" stroke="midnightblue" points="94.6933,-72.0669 85.8863,-77.9565 96.4438,-78.8445 94.6933,-72.0669"/>
</g>
<!-- Node4 -->
<g id="node7" class="node"><title>Node4</title>
<a xlink:href="class_r_t_x_1_1_curve_function.html" target="_top" xlink:title="A Curve Function Class to perform arbitrary mapping of values.">
<polygon fill="white" stroke="black" points="311.795,-156 311.795,-176 418.205,-176 418.205,-156 311.795,-156"/>
<text text-anchor="middle" x="365" y="-162" font-family="Helvetica,sans-Serif" font-size="10.00">RTX::CurveFunction</text>
</a>
</g>
<!-- Node3&#45;&gt;Node4 -->
<g id="edge6" class="edge"><title>Node3&#45;&gt;Node4</title>
<path fill="none" stroke="midnightblue" d="M257.674,-101.72C261.966,-103.566 266.127,-105.65 270,-108 289.89,-120.068 286.442,-133.402 306,-146 312.179,-149.98 319.24,-153.267 326.26,-155.946"/>
<polygon fill="midnightblue" stroke="midnightblue" points="258.719,-98.3715 248.129,-98.0458 256.204,-104.904 258.719,-98.3715"/>
</g>
<!-- Node5 -->
<g id="node9" class="node"><title>Node5</title>
<a xlink:href="class_r_t_x_1_1_first_derivative.html" target="_top" xlink:title="RTX::FirstDerivative">
<polygon fill="white" stroke="black" points="312.361,-117 312.361,-137 417.639,-137 417.639,-117 312.361,-117"/>
<text text-anchor="middle" x="365" y="-123" font-family="Helvetica,sans-Serif" font-size="10.00">RTX::FirstDerivative</text>
</a>
</g>
<!-- Node3&#45;&gt;Node5 -->
<g id="edge8" class="edge"><title>Node3&#45;&gt;Node5</title>
<path fill="none" stroke="midnightblue" d="M251.988,-100.363C274.538,-105.725 300.601,-111.923 321.909,-116.991"/>
<polygon fill="midnightblue" stroke="midnightblue" points="252.773,-96.952 242.234,-98.0435 251.153,-103.762 252.773,-96.952"/>
</g>
<!-- Node6 -->
<g id="node11" class="node"><title>Node6</title>
<a xlink:href="class_r_t_x_1_1_moving_average.html" target="_top" xlink:title="RTX::MovingAverage">
<polygon fill="white" stroke="black" points="309.656,-78 309.656,-98 420.344,-98 420.344,-78 309.656,-78"/>
<text text-anchor="middle" x="365" y="-84" font-family="Helvetica,sans-Serif" font-size="10.00">RTX::MovingAverage</text>
</a>
</g>
<!-- Node3&#45;&gt;Node6 -->
<g id="edge10" class="edge"><title>Node3&#45;&gt;Node6</title>
<path fill="none" stroke="midnightblue" d="M273.126,-88C285.359,-88 297.859,-88 309.519,-88"/>
<polygon fill="midnightblue" stroke="midnightblue" points="272.938,-84.5001 262.938,-88 272.938,-91.5001 272.938,-84.5001"/>
</g>
<!-- Node7 -->
<g id="node13" class="node"><title>Node7</title>
<a xlink:href="class_r_t_x_1_1_offset_time_series.html" target="_top" xlink:title="RTX::OffsetTimeSeries">
<polygon fill="white" stroke="black" points="305.96,-39 305.96,-59 424.04,-59 424.04,-39 305.96,-39"/>
<text text-anchor="middle" x="365" y="-45" font-family="Helvetica,sans-Serif" font-size="10.00">RTX::OffsetTimeSeries</text>
</a>
</g>
<!-- Node3&#45;&gt;Node7 -->
<g id="edge12" class="edge"><title>Node3&#45;&gt;Node7</title>
<path fill="none" stroke="midnightblue" d="M251.988,-75.6371C274.538,-70.2746 300.601,-64.0766 321.909,-59.0094"/>
<polygon fill="midnightblue" stroke="midnightblue" points="251.153,-72.2379 242.234,-77.9565 252.773,-79.048 251.153,-72.2379"/>
</g>
<!-- Node8 -->
<g id="node15" class="node"><title>Node8</title>
<a xlink:href="class_r_t_x_1_1_resampler.html" target="_top" xlink:title="RTX::Resampler">
<polygon fill="white" stroke="black" points="320.135,-0 320.135,-20 409.865,-20 409.865,-0 320.135,-0"/>
<text text-anchor="middle" x="365" y="-6" font-family="Helvetica,sans-Serif" font-size="10.00">RTX::Resampler</text>
</a>
</g>
<!-- Node3&#45;&gt;Node8 -->
<g id="edge14" class="edge"><title>Node3&#45;&gt;Node8</title>
<path fill="none" stroke="midnightblue" d="M257.674,-74.2804C261.966,-72.434 266.127,-70.35 270,-68 289.89,-55.9321 286.442,-42.5981 306,-30 312.179,-26.0202 319.24,-22.7328 326.26,-20.0537"/>
<polygon fill="midnightblue" stroke="midnightblue" points="256.204,-71.0957 248.129,-77.9542 258.719,-77.6285 256.204,-71.0957"/>
</g>
</g>
</svg>
