<?xml version="1.0" encoding="UTF-8" standalone="no"?>
<!DOCTYPE svg PUBLIC "-//W3C//DTD SVG 1.1//EN"
 "http://www.w3.org/Graphics/SVG/1.1/DTD/svg11.dtd">
<!-- Generated by graphviz version 2.28.0 (20110509.1545)
 -->
<!-- Title: Graphical Class Hierarchy Pages: 1 -->
<svg width="572pt" height="127pt"
 viewBox="0.00 0.00 572.00 127.00" xmlns="http://www.w3.org/2000/svg" xmlns:xlink="http://www.w3.org/1999/xlink">
<g id="graph1" class="graph" transform="scale(1 1) rotate(0) translate(4 123)">
<title>Graphical Class Hierarchy</title>
<polygon fill="white" stroke="white" points="-4,5 -4,-123 569,-123 569,5 -4,5"/>
<!-- Node1 -->
<g id="node1" class="node"><title>Node1</title>
<a xlink:href="class_r_t_x_1_1_point_record.html" target="_top" xlink:title="A Point Record Class for storing and retrieving Points.">
<polygon fill="white" stroke="black" points="-0.205078,-40 -0.205078,-60 96.2051,-60 96.2051,-40 -0.205078,-40"/>
<text text-anchor="middle" x="48" y="-46" font-family="Helvetica,sans-Serif" font-size="10.00">RTX::PointRecord</text>
</a>
</g>
<!-- Node2 -->
<g id="node3" class="node"><title>Node2</title>
<a xlink:href="class_r_t_x_1_1_buffer_point_record.html" target="_top" xlink:title="RTX::BufferPointRecord">
<polygon fill="white" stroke="black" points="133.543,-79 133.543,-99 256.457,-99 256.457,-79 133.543,-79"/>
<text text-anchor="middle" x="195" y="-85" font-family="Helvetica,sans-Serif" font-size="10.00">RTX::BufferPointRecord</text>
</a>
</g>
<!-- Node1&#45;&gt;Node2 -->
<g id="edge2" class="edge"><title>Node1&#45;&gt;Node2</title>
<path fill="none" stroke="midnightblue" d="M96.0405,-62.6523C115.728,-67.9474 138.284,-74.0143 156.785,-78.9906"/>
<polygon fill="midnightblue" stroke="midnightblue" points="96.907,-59.261 86.3411,-60.0435 95.0888,-66.0208 96.907,-59.261"/>
</g>
<!-- Node6 -->
<g id="node11" class="node"><title>Node6</title>
<a xlink:href="class_r_t_x_1_1_deque_point_record.html" target="_top" xlink:title="RTX::DequePointRecord">
<polygon fill="white" stroke="black" points="132.061,-40 132.061,-60 257.939,-60 257.939,-40 132.061,-40"/>
<text text-anchor="middle" x="195" y="-46" font-family="Helvetica,sans-Serif" font-size="10.00">RTX::DequePointRecord</text>
</a>
</g>
<!-- Node1&#45;&gt;Node6 -->
<g id="edge10" class="edge"><title>Node1&#45;&gt;Node6</title>
<path fill="none" stroke="midnightblue" d="M106.492,-50C114.84,-50 123.465,-50 131.899,-50"/>
<polygon fill="midnightblue" stroke="midnightblue" points="106.478,-46.5001 96.4784,-50 106.478,-53.5001 106.478,-46.5001"/>
</g>
<!-- Node7 -->
<g id="node13" class="node"><title>Node7</title>
<a xlink:href="class_r_t_x_1_1_map_point_record.html" target="_top" xlink:title="RTX::MapPointRecord">
<polygon fill="white" stroke="black" points="137.068,-1 137.068,-21 252.932,-21 252.932,-1 137.068,-1"/>
<text text-anchor="middle" x="195" y="-7" font-family="Helvetica,sans-Serif" font-size="10.00">RTX::MapPointRecord</text>
</a>
</g>
<!-- Node1&#45;&gt;Node7 -->
<g id="edge12" class="edge"><title>Node1&#45;&gt;Node7</title>
<path fill="none" stroke="midnightblue" d="M96.0405,-37.3477C115.728,-32.0526 138.284,-25.9857 156.785,-21.0094"/>
<polygon fill="midnightblue" stroke="midnightblue" points="95.0888,-33.9792 86.3411,-39.9565 96.907,-40.739 95.0888,-33.9792"/>
</g>
<!-- Node3 -->
<g id="node5" class="node"><title>Node3</title>
<a xlink:href="class_r_t_x_1_1_db_point_record.html" target="_top" xlink:title="A persistence layer for databases.">
<polygon fill="white" stroke="black" points="294.403,-79 294.403,-99 403.597,-99 403.597,-79 294.403,-79"/>
<text text-anchor="middle" x="349" y="-85" font-family="Helvetica,sans-Serif" font-size="10.00">RTX::DbPointRecord</text>
</a>
</g>
<!-- Node2&#45;&gt;Node3 -->
<g id="edge4" class="edge"><title>Node2&#45;&gt;Node3</title>
<path fill="none" stroke="midnightblue" d="M266.799,-89C275.974,-89 285.251,-89 294.091,-89"/>
<polygon fill="midnightblue" stroke="midnightblue" points="266.511,-85.5001 256.511,-89 266.511,-92.5001 266.511,-85.5001"/>
</g>
<!-- Node4 -->
<g id="node7" class="node"><title>Node4</title>
<a xlink:href="class_r_t_x_1_1_mysql_point_record.html" target="_top" xlink:title="A persistence layer for MySQL databases.">
<polygon fill="white" stroke="black" points="440.738,-99 440.738,-119 563.262,-119 563.262,-99 440.738,-99"/>
<text text-anchor="middle" x="502" y="-105" font-family="Helvetica,sans-Serif" font-size="10.00">RTX::MysqlPointRecord</text>
</a>
</g>
<!-- Node3&#45;&gt;Node4 -->
<g id="edge6" class="edge"><title>Node3&#45;&gt;Node4</title>
<path fill="none" stroke="midnightblue" d="M413.619,-97.4263C422.547,-98.6089 431.703,-99.8216 440.57,-100.996"/>
<polygon fill="midnightblue" stroke="midnightblue" points="414.035,-93.951 403.662,-96.1076 413.116,-100.89 414.035,-93.951"/>
</g>
<!-- Node5 -->
<g id="node9" class="node"><title>Node5</title>
<a xlink:href="class_r_t_x_1_1_odbc_point_record.html" target="_top" xlink:title="A persistence class for SCADA databases.">
<polygon fill="white" stroke="black" points="441.844,-60 441.844,-80 562.156,-80 562.156,-60 441.844,-60"/>
<text text-anchor="middle" x="502" y="-66" font-family="Helvetica,sans-Serif" font-size="10.00">RTX::OdbcPointRecord</text>
</a>
</g>
<!-- Node3&#45;&gt;Node5 -->
<g id="edge8" class="edge"><title>Node3&#45;&gt;Node5</title>
<path fill="none" stroke="midnightblue" d="M413.608,-80.9963C422.889,-79.8286 432.415,-78.6299 441.607,-77.4733"/>
<polygon fill="midnightblue" stroke="midnightblue" points="413.147,-77.5267 403.662,-82.2478 414.021,-84.4719 413.147,-77.5267"/>
</g>
</g>
</svg>
