<?xml version="1.0" encoding="UTF-8" standalone="no"?>
<!DOCTYPE svg PUBLIC "-//W3C//DTD SVG 1.1//EN"
 "http://www.w3.org/Graphics/SVG/1.1/DTD/svg11.dtd">
<!-- Generated by graphviz version 2.28.0 (20110509.1545)
 -->
<!-- Title: Graphical Class Hierarchy Pages: 1 -->
<svg width="424pt" height="145pt"
 viewBox="0.00 0.00 424.00 145.00" xmlns="http://www.w3.org/2000/svg" xmlns:xlink="http://www.w3.org/1999/xlink">
<g id="graph1" class="graph" transform="scale(1 1) rotate(0) translate(4 141)">
<title>Graphical Class Hierarchy</title>
<polygon fill="white" stroke="white" points="-4,5 -4,-141 421,-141 421,5 -4,5"/>
<!-- Node1 -->
<g id="node1" class="node"><title>Node1</title>
<a xlink:href="class_r_t_x_1_1_element.html" target="_top" xlink:title="Element Base Class. ">
<polygon fill="white" stroke="black" points="-0.0327148,-78 -0.0327148,-98 78.0327,-98 78.0327,-78 -0.0327148,-78"/>
<text text-anchor="middle" x="39" y="-84" font-family="Helvetica,sans-Serif" font-size="10.00">RTX::Element</text>
</a>
</g>
<!-- Node2 -->
<g id="node3" class="node"><title>Node2</title>
<a xlink:href="class_r_t_x_1_1_dma.html" target="_top" xlink:title="Dma represents a collection of junctions that can be considered together in a control volume...">
<polygon fill="white" stroke="black" points="115.753,-117 115.753,-137 178.247,-137 178.247,-117 115.753,-117"/>
<text text-anchor="middle" x="147" y="-123" font-family="Helvetica,sans-Serif" font-size="10.00">RTX::Dma</text>
</a>
</g>
<!-- Node1&#45;&gt;Node2 -->
<g id="edge2" class="edge"><title>Node1&#45;&gt;Node2</title>
<path fill="none" stroke="midnightblue" d="M76.9723,-101.603C90.7274,-106.664 106.072,-112.31 118.795,-116.991"/>
<polygon fill="midnightblue" stroke="midnightblue" points="77.8911,-98.2118 67.2976,-98.0435 75.474,-104.781 77.8911,-98.2118"/>
</g>
<!-- Node3 -->
<g id="node5" class="node"><title>Node3</title>
<a xlink:href="class_r_t_x_1_1_link.html" target="_top" xlink:title="Link Class. ">
<polygon fill="white" stroke="black" points="117.137,-78 117.137,-98 176.863,-98 176.863,-78 117.137,-78"/>
<text text-anchor="middle" x="147" y="-84" font-family="Helvetica,sans-Serif" font-size="10.00">RTX::Link</text>
</a>
</g>
<!-- Node1&#45;&gt;Node3 -->
<g id="edge4" class="edge"><title>Node1&#45;&gt;Node3</title>
<path fill="none" stroke="midnightblue" d="M88.3671,-88C98.1867,-88 108.22,-88 117.105,-88"/>
<polygon fill="midnightblue" stroke="midnightblue" points="88.2685,-84.5001 78.2684,-88 88.2684,-91.5001 88.2685,-84.5001"/>
</g>
<!-- Node7 -->
<g id="node13" class="node"><title>Node7</title>
<a xlink:href="class_r_t_x_1_1_node.html" target="_top" xlink:title="Node Class. ">
<polygon fill="white" stroke="black" points="114.356,-39 114.356,-59 179.644,-59 179.644,-39 114.356,-39"/>
<text text-anchor="middle" x="147" y="-45" font-family="Helvetica,sans-Serif" font-size="10.00">RTX::Node</text>
</a>
</g>
<!-- Node1&#45;&gt;Node7 -->
<g id="edge12" class="edge"><title>Node1&#45;&gt;Node7</title>
<path fill="none" stroke="midnightblue" d="M76.9723,-74.397C90.7274,-69.3362 106.072,-63.6903 118.795,-59.0094"/>
<polygon fill="midnightblue" stroke="midnightblue" points="75.474,-71.2188 67.2976,-77.9565 77.8911,-77.7882 75.474,-71.2188"/>
</g>
<!-- Node4 -->
<g id="node7" class="node"><title>Node4</title>
<a xlink:href="class_r_t_x_1_1_pipe.html" target="_top" xlink:title="Pipe Class. ">
<polygon fill="white" stroke="black" points="225.302,-78 225.302,-98 286.698,-98 286.698,-78 225.302,-78"/>
<text text-anchor="middle" x="256" y="-84" font-family="Helvetica,sans-Serif" font-size="10.00">RTX::Pipe</text>
</a>
</g>
<!-- Node3&#45;&gt;Node4 -->
<g id="edge6" class="edge"><title>Node3&#45;&gt;Node4</title>
<path fill="none" stroke="midnightblue" d="M187.188,-88C199.768,-88 213.488,-88 225.276,-88"/>
<polygon fill="midnightblue" stroke="midnightblue" points="186.956,-84.5001 176.956,-88 186.956,-91.5001 186.956,-84.5001"/>
</g>
<!-- Node5 -->
<g id="node9" class="node"><title>Node5</title>
<a xlink:href="class_r_t_x_1_1_pump.html" target="_top" xlink:title="RTX::Pump">
<polygon fill="white" stroke="black" points="340.248,-117 340.248,-137 407.752,-137 407.752,-117 340.248,-117"/>
<text text-anchor="middle" x="374" y="-123" font-family="Helvetica,sans-Serif" font-size="10.00">RTX::Pump</text>
</a>
</g>
<!-- Node4&#45;&gt;Node5 -->
<g id="edge8" class="edge"><title>Node4&#45;&gt;Node5</title>
<path fill="none" stroke="midnightblue" d="M296.585,-101.309C311.86,-106.444 329.035,-112.219 343.228,-116.991"/>
<polygon fill="midnightblue" stroke="midnightblue" points="297.467,-97.9128 286.873,-98.0435 295.236,-104.548 297.467,-97.9128"/>
</g>
<!-- Node6 -->
<g id="node11" class="node"><title>Node6</title>
<a xlink:href="class_r_t_x_1_1_valve.html" target="_top" xlink:title="RTX::Valve">
<polygon fill="white" stroke="black" points="341.171,-78 341.171,-98 406.829,-98 406.829,-78 341.171,-78"/>
<text text-anchor="middle" x="374" y="-84" font-family="Helvetica,sans-Serif" font-size="10.00">RTX::Valve</text>
</a>
</g>
<!-- Node4&#45;&gt;Node6 -->
<g id="edge10" class="edge"><title>Node4&#45;&gt;Node6</title>
<path fill="none" stroke="midnightblue" d="M296.951,-88C311.266,-88 327.209,-88 340.786,-88"/>
<polygon fill="midnightblue" stroke="midnightblue" points="296.873,-84.5001 286.873,-88 296.873,-91.5001 296.873,-84.5001"/>
</g>
<!-- Node8 -->
<g id="node15" class="node"><title>Node8</title>
<a xlink:href="class_r_t_x_1_1_junction.html" target="_top" xlink:title="Junction Class. ">
<polygon fill="white" stroke="black" points="216.687,-39 216.687,-59 295.313,-59 295.313,-39 216.687,-39"/>
<text text-anchor="middle" x="256" y="-45" font-family="Helvetica,sans-Serif" font-size="10.00">RTX::Junction</text>
</a>
</g>
<!-- Node7&#45;&gt;Node8 -->
<g id="edge14" class="edge"><title>Node7&#45;&gt;Node8</title>
<path fill="none" stroke="midnightblue" d="M190.086,-49C198.73,-49 207.791,-49 216.308,-49"/>
<polygon fill="midnightblue" stroke="midnightblue" points="189.814,-45.5001 179.814,-49 189.814,-52.5001 189.814,-45.5001"/>
</g>
<!-- Node9 -->
<g id="node17" class="node"><title>Node9</title>
<a xlink:href="class_r_t_x_1_1_reservoir.html" target="_top" xlink:title="RTX::Reservoir">
<polygon fill="white" stroke="black" points="331.916,-39 331.916,-59 416.084,-59 416.084,-39 331.916,-39"/>
<text text-anchor="middle" x="374" y="-45" font-family="Helvetica,sans-Serif" font-size="10.00">RTX::Reservoir</text>
</a>
</g>
<!-- Node8&#45;&gt;Node9 -->
<g id="edge16" class="edge"><title>Node8&#45;&gt;Node9</title>
<path fill="none" stroke="midnightblue" d="M305.642,-49C314.328,-49 323.302,-49 331.756,-49"/>
<polygon fill="midnightblue" stroke="midnightblue" points="305.626,-45.5001 295.626,-49 305.626,-52.5001 305.626,-45.5001"/>
</g>
<!-- Node10 -->
<g id="node19" class="node"><title>Node10</title>
<a xlink:href="class_r_t_x_1_1_tank.html" target="_top" xlink:title="RTX::Tank">
<polygon fill="white" stroke="black" points="342.748,-0 342.748,-20 405.252,-20 405.252,-0 342.748,-0"/>
<text text-anchor="middle" x="374" y="-6" font-family="Helvetica,sans-Serif" font-size="10.00">RTX::Tank</text>
</a>
</g>
<!-- Node8&#45;&gt;Node10 -->
<g id="edge18" class="edge"><title>Node8&#45;&gt;Node10</title>
<path fill="none" stroke="midnightblue" d="M296.585,-35.6911C311.86,-30.5558 329.035,-24.7812 343.228,-20.0094"/>
<polygon fill="midnightblue" stroke="midnightblue" points="295.236,-32.4522 286.873,-38.9565 297.467,-39.0872 295.236,-32.4522"/>
</g>
</g>
</svg>
