<?xml version="1.0" encoding="UTF-8" standalone="no"?>
<!DOCTYPE svg PUBLIC "-//W3C//DTD SVG 1.1//EN"
 "http://www.w3.org/Graphics/SVG/1.1/DTD/svg11.dtd">
<!-- Generated by graphviz version 2.28.0 (20110509.1545)
 -->
<!-- Title: Graphical Class Hierarchy Pages: 1 -->
<svg width="424pt" height="146pt"
 viewBox="0.00 0.00 424.00 146.00" xmlns="http://www.w3.org/2000/svg" xmlns:xlink="http://www.w3.org/1999/xlink">
<g id="graph1" class="graph" transform="scale(1 1) rotate(0) translate(4 142)">
<title>Graphical Class Hierarchy</title>
<polygon fill="white" stroke="white" points="-4,5 -4,-142 421,-142 421,5 -4,5"/>
<!-- Node1 -->
<g id="node1" class="node"><title>Node1</title>
<a xlink:href="class_r_t_x_1_1_element.html" target="_top" xlink:title="Element Base Class.">
<polygon fill="white" stroke="black" points="-0.0327148,-40 -0.0327148,-60 78.0327,-60 78.0327,-40 -0.0327148,-40"/>
<text text-anchor="middle" x="39" y="-46" font-family="Helvetica,sans-Serif" font-size="10.00">RTX::Element</text>
</a>
</g>
<!-- Node2 -->
<g id="node3" class="node"><title>Node2</title>
<a xlink:href="class_r_t_x_1_1_link.html" target="_top" xlink:title="Link Class.">
<polygon fill="white" stroke="black" points="117.137,-79 117.137,-99 176.863,-99 176.863,-79 117.137,-79"/>
<text text-anchor="middle" x="147" y="-85" font-family="Helvetica,sans-Serif" font-size="10.00">RTX::Link</text>
</a>
</g>
<!-- Node1&#45;&gt;Node2 -->
<g id="edge2" class="edge"><title>Node1&#45;&gt;Node2</title>
<path fill="none" stroke="midnightblue" d="M76.9723,-63.603C90.7274,-68.6638 106.072,-74.3097 118.795,-78.9906"/>
<polygon fill="midnightblue" stroke="midnightblue" points="77.8911,-60.2118 67.2976,-60.0435 75.474,-66.7812 77.8911,-60.2118"/>
</g>
<!-- Node6 -->
<g id="node11" class="node"><title>Node6</title>
<a xlink:href="class_r_t_x_1_1_node.html" target="_top" xlink:title="Node Class.">
<polygon fill="white" stroke="black" points="114.356,-40 114.356,-60 179.644,-60 179.644,-40 114.356,-40"/>
<text text-anchor="middle" x="147" y="-46" font-family="Helvetica,sans-Serif" font-size="10.00">RTX::Node</text>
</a>
</g>
<!-- Node1&#45;&gt;Node6 -->
<g id="edge10" class="edge"><title>Node1&#45;&gt;Node6</title>
<path fill="none" stroke="midnightblue" d="M88.3671,-50C97.0842,-50 105.97,-50 114.071,-50"/>
<polygon fill="midnightblue" stroke="midnightblue" points="88.2685,-46.5001 78.2684,-50 88.2684,-53.5001 88.2685,-46.5001"/>
</g>
<!-- Node10 -->
<g id="node19" class="node"><title>Node10</title>
<a xlink:href="class_r_t_x_1_1_zone.html" target="_top" xlink:title="Zone represents a collection of junctions that can be considered together in a control volume...">
<polygon fill="white" stroke="black" points="114.913,-1 114.913,-21 179.087,-21 179.087,-1 114.913,-1"/>
<text text-anchor="middle" x="147" y="-7" font-family="Helvetica,sans-Serif" font-size="10.00">RTX::Zone</text>
</a>
</g>
<!-- Node1&#45;&gt;Node10 -->
<g id="edge18" class="edge"><title>Node1&#45;&gt;Node10</title>
<path fill="none" stroke="midnightblue" d="M76.9723,-36.397C90.7274,-31.3362 106.072,-25.6903 118.795,-21.0094"/>
<polygon fill="midnightblue" stroke="midnightblue" points="75.474,-33.2188 67.2976,-39.9565 77.8911,-39.7882 75.474,-33.2188"/>
</g>
<!-- Node3 -->
<g id="node5" class="node"><title>Node3</title>
<a xlink:href="class_r_t_x_1_1_pipe.html" target="_top" xlink:title="Pipe Class.">
<polygon fill="white" stroke="black" points="225.302,-79 225.302,-99 286.698,-99 286.698,-79 225.302,-79"/>
<text text-anchor="middle" x="256" y="-85" font-family="Helvetica,sans-Serif" font-size="10.00">RTX::Pipe</text>
</a>
</g>
<!-- Node2&#45;&gt;Node3 -->
<g id="edge4" class="edge"><title>Node2&#45;&gt;Node3</title>
<path fill="none" stroke="midnightblue" d="M187.188,-89C199.768,-89 213.488,-89 225.276,-89"/>
<polygon fill="midnightblue" stroke="midnightblue" points="186.956,-85.5001 176.956,-89 186.956,-92.5001 186.956,-85.5001"/>
</g>
<!-- Node4 -->
<g id="node7" class="node"><title>Node4</title>
<a xlink:href="class_r_t_x_1_1_pump.html" target="_top" xlink:title="RTX::Pump">
<polygon fill="white" stroke="black" points="340.248,-118 340.248,-138 407.752,-138 407.752,-118 340.248,-118"/>
<text text-anchor="middle" x="374" y="-124" font-family="Helvetica,sans-Serif" font-size="10.00">RTX::Pump</text>
</a>
</g>
<!-- Node3&#45;&gt;Node4 -->
<g id="edge6" class="edge"><title>Node3&#45;&gt;Node4</title>
<path fill="none" stroke="midnightblue" d="M296.585,-102.309C311.86,-107.444 329.035,-113.219 343.228,-117.991"/>
<polygon fill="midnightblue" stroke="midnightblue" points="297.467,-98.9128 286.873,-99.0435 295.236,-105.548 297.467,-98.9128"/>
</g>
<!-- Node5 -->
<g id="node9" class="node"><title>Node5</title>
<a xlink:href="class_r_t_x_1_1_valve.html" target="_top" xlink:title="RTX::Valve">
<polygon fill="white" stroke="black" points="341.171,-79 341.171,-99 406.829,-99 406.829,-79 341.171,-79"/>
<text text-anchor="middle" x="374" y="-85" font-family="Helvetica,sans-Serif" font-size="10.00">RTX::Valve</text>
</a>
</g>
<!-- Node3&#45;&gt;Node5 -->
<g id="edge8" class="edge"><title>Node3&#45;&gt;Node5</title>
<path fill="none" stroke="midnightblue" d="M296.951,-89C311.266,-89 327.209,-89 340.786,-89"/>
<polygon fill="midnightblue" stroke="midnightblue" points="296.873,-85.5001 286.873,-89 296.873,-92.5001 296.873,-85.5001"/>
</g>
<!-- Node7 -->
<g id="node13" class="node"><title>Node7</title>
<a xlink:href="class_r_t_x_1_1_junction.html" target="_top" xlink:title="Junction Class.">
<polygon fill="white" stroke="black" points="216.687,-40 216.687,-60 295.313,-60 295.313,-40 216.687,-40"/>
<text text-anchor="middle" x="256" y="-46" font-family="Helvetica,sans-Serif" font-size="10.00">RTX::Junction</text>
</a>
</g>
<!-- Node6&#45;&gt;Node7 -->
<g id="edge12" class="edge"><title>Node6&#45;&gt;Node7</title>
<path fill="none" stroke="midnightblue" d="M190.086,-50C198.73,-50 207.791,-50 216.308,-50"/>
<polygon fill="midnightblue" stroke="midnightblue" points="189.814,-46.5001 179.814,-50 189.814,-53.5001 189.814,-46.5001"/>
</g>
<!-- Node8 -->
<g id="node15" class="node"><title>Node8</title>
<a xlink:href="class_r_t_x_1_1_reservoir.html" target="_top" xlink:title="RTX::Reservoir">
<polygon fill="white" stroke="black" points="331.916,-40 331.916,-60 416.084,-60 416.084,-40 331.916,-40"/>
<text text-anchor="middle" x="374" y="-46" font-family="Helvetica,sans-Serif" font-size="10.00">RTX::Reservoir</text>
</a>
</g>
<!-- Node7&#45;&gt;Node8 -->
<g id="edge14" class="edge"><title>Node7&#45;&gt;Node8</title>
<path fill="none" stroke="midnightblue" d="M305.642,-50C314.328,-50 323.302,-50 331.756,-50"/>
<polygon fill="midnightblue" stroke="midnightblue" points="305.626,-46.5001 295.626,-50 305.626,-53.5001 305.626,-46.5001"/>
</g>
<!-- Node9 -->
<g id="node17" class="node"><title>Node9</title>
<a xlink:href="class_r_t_x_1_1_tank.html" target="_top" xlink:title="RTX::Tank">
<polygon fill="white" stroke="black" points="342.748,-1 342.748,-21 405.252,-21 405.252,-1 342.748,-1"/>
<text text-anchor="middle" x="374" y="-7" font-family="Helvetica,sans-Serif" font-size="10.00">RTX::Tank</text>
</a>
</g>
<!-- Node7&#45;&gt;Node9 -->
<g id="edge16" class="edge"><title>Node7&#45;&gt;Node9</title>
<path fill="none" stroke="midnightblue" d="M296.585,-36.6911C311.86,-31.5558 329.035,-25.7812 343.228,-21.0094"/>
<polygon fill="midnightblue" stroke="midnightblue" points="295.236,-33.4522 286.873,-39.9565 297.467,-40.0872 295.236,-33.4522"/>
</g>
</g>
</svg>
